<?xml version="1.0" encoding="iso-8859-1"?>
<!-- Generator: Adobe Illustrator 25.0.1, SVG Export Plug-In . SVG Version: 6.00 Build 0)  -->
<svg version="1.1" id="Assoziationen_x5F_Illustrationen"
	 xmlns="http://www.w3.org/2000/svg" xmlns:xlink="http://www.w3.org/1999/xlink" x="0px" y="0px" viewBox="0 0 618.6378 380.435"
	 style="enable-background:new 0 0 618.6378 380.435;" xml:space="preserve">
<g id="_x32__x5F_11_x5F_Wellen_x5F_Gesellschaft_x5F_Sprache">
	<g id="Ebene_33">
	</g>
	<g>
		<g>
			<path style="fill:#6CA342;" d="M133.2465,180.9568c0.2263-0.6074,3.2145-4.3228,3.2145-4.3228
				c1.1085-1.8848,1.7454-2.7036,2.6375-4.9854c0.4126-1.0547,0.9451-1.3184,0.7988-2.4414
				c-0.0906-0.6963-0.6807-2.1602-0.8169-2.8486c-0.2915-1.4746-0.7058-2.2632-1.1782-3.5806
				c-0.4705-1.312-1.5671-3.6187-1.4612-4.0801c0.1104-0.4604,0.5074-1.5981,0.5425-2.8525
				c0.0356-1.2578-0.1904-2.0889-0.0283-2.5044c0.163-0.4141,0.425-0.8379,0.6155-1.5049c0.189-0.6685,0.3152-1.4814-0.0461-1.6001
				c-0.3628-0.1206-0.417,0.3853-0.6238,0.8545c-0.2095,0.4692-0.5607,1.5518-1.0945,1.748
				c0.0022-1.0112,0.0343-1.8285,0.0365-2.8397c0.0007-0.3262,0.0006-0.6587-0.0967-0.9697
				c-0.0974-0.3115-0.309-0.604-0.6151-0.7168c-0.0641-0.0234-0.1354-0.0386-0.2006-0.0181
				c-0.1594,0.0513-0.1819,0.2642-0.1746,0.4312c0.0564,1.2993-0.0331,2.2933,0.0233,3.5921
				c-0.1689,0.0337-0.2086-0.0067-0.3687-0.0702c-0.3069-1.583-0.7141-2.8159-1.2321-4.3433
				c-0.0555-0.1641-0.1284-0.3452-0.288-0.4121c-0.2104-0.0879-0.4556,0.0903-0.5244,0.3076
				c-0.0688,0.2178-0.0133,0.4526,0.0425,0.6738c0.3574,1.416,0.5685,2.5262,0.9259,3.9417
				c-0.2046-0.001-0.1604-0.0562-0.365-0.0571c-0.7612-1.3428-0.9497-1.94-1.6626-3.0758
				c-0.0652-0.1038-0.3741-0.2868-0.4964-0.2888c-0.1711-0.0029-0.3015,0.1733-0.3125,0.3438s0.064,0.3335,0.1365,0.4888
				c0.7524,1.6074,0.9276,2.1571,1.5359,3.8246c-0.1371,0.2842,0.2454,1.0322-0.0088,1.0039
				c-0.2535-0.0288-0.4894,0.1421-0.797-0.4839c-0.3071-0.625-0.8718-1.0518-1.3801-1.1079
				c-0.5049-0.0576-0.8501,0.0215-0.5607,0.4473c0.2909,0.4268,0.8832,0.877,1.2368,1.4482
				c0.3522,0.5713,0.4745,0.5361,0.8375,1.207c0.361,0.6699,0.9635,1.2192,1.3977,1.583c0.4351,0.3643,0.5796,0.853,0.5796,0.853
				s0.3345,1.4746,0.5344,2.5596c0.2852,1.5464,0.718,2.2515,0.8997,3.8135c0.2217,1.9048,0.4434,3.3457,0.4434,3.3457
				s-1.4663,2.4204-2.012,3.0317c-0.9357,1.0474-2.2373,2.2461-3.0315,2.6772c-0.7406,0.4019-4.2822,0.2573-4.6002-0.0557
				c-0.318-0.3125-0.2655-1.165-0.0825-1.5718c0.0765-0.1699,0.2074-0.3086,0.3302-0.4487c1.4434-1.6494,1.9668-3.917,2.0917-6.1055
				c0.0802-1.4077,0.012-2.8472-0.455-4.1782c-0.467-1.3306-1.3707-2.5493-2.6355-3.1733
				c-2.2571-1.1128-5.1914,0.0283-6.5609,2.1392c-1.3695,2.1113-1.3661,4.895-0.5289,7.2686
				c0.4614,1.3086,1.9698,2.5049,2.2986,3.853c0.033,0.1357-0.4988,2.2723-0.4988,2.2723s-2.4788,0.4987-3.3254,0.4987
				c-0.8313,0-2.5238-0.8628-3.3809-1.7734c-1.7736-1.8843-2.9073-2.3662-2.9929-3.9902c-0.1108-2.1064-0.2131-4.0708,0.2217-6.4292
				c0.2002-1.0845,0.2588-2.9258,0.2588-2.9258s0.1445-0.4893,0.5795-0.853c0.4342-0.3638,1.0367-0.9131,1.3978-1.583
				c0.363-0.6709,0.4854-0.6357,0.8374-1.207c0.3536-0.5713,0.946-1.0215,1.2368-1.4482c0.2894-0.4258-0.0558-0.5049-0.5605-0.4478
				c-0.5083,0.0562-1.073,0.4834-1.3801,1.1084c-0.3077,0.626-0.5435,0.4551-0.7971,0.4839
				c-0.254,0.0283,0.1283-0.7197-0.0088-1.0039c0.6084-1.6675,0.6214-2.2101,1.3738-3.8181
				c0.0725-0.1548,0.1492-0.318,0.1365-0.4883c-0.0256-0.3431-0.3859-0.5094-0.5522-0.4262
				c-0.1096,0.0548-0.2155,0.1586-0.2823,0.2614c-0.6778,1.0418-0.6469,1.8599-1.4081,3.2026
				c-0.2046,0.001-0.2272,0.0322-0.4318,0.0332c0.3573-1.4155,0.2713-2.5539,0.6286-3.9699
				c0.0558-0.2212,0.1115-0.4561,0.0426-0.6738c-0.0688-0.2173-0.314-0.396-0.5244-0.3076
				c-0.1597,0.0669-0.2324,0.248-0.2881,0.4121c-0.5181,1.5273-0.489,2.8122-0.7959,4.3957
				c-0.1602,0.0635-0.3387,0.0796-0.5077,0.0459c0.0565-1.2993,0.113-2.5986,0.1696-3.8975
				c0.0073-0.1675-0.0153-0.3799-0.1746-0.4312c-0.0652-0.021-0.1365-0.0054-0.2007,0.0181
				c-0.3062,0.1123-0.5177,0.4053-0.615,0.7168c-0.0974,0.311-0.0975,0.6431-0.0968,0.9692
				c0.0022,1.0112-0.1118,2.1343-0.1096,3.1455c-0.5338-0.1963-0.885-1.2788-1.0944-1.7485
				c-0.2068-0.4688-0.261-0.9746-0.6238-0.8545c-0.3613,0.1191-0.2351,0.9316-0.0461,1.6001
				c0.1904,0.6675,0.4524,1.0913,0.6155,1.5049c0.1621,0.4155-0.0641,1.2471-0.0284,2.5049
				c0.035,1.2544,0.4321,2.3921,0.5425,2.8525c0.1061,0.4609-0.6907,3.1484-1.1611,4.4604
				c-0.6619,1.8462-0.7457,3.2881-1.0117,5.2314c-0.045,0.3296-0.0902,0.6626-0.0605,0.9941
				c0.0442,0.4932,1.7261,4.5576,6.0491,9.5459c1.0272,1.1851,2.8708,6.1245,3.1038,6.8726
				c0.623,2.002,0.4464,12.7134-0.4435,17.0703c-0.657,3.2168-0.5808,4.7129-0.8867,7.981
				c-0.2424,2.5903-0.1716,5.5967,0.1263,8.1812c0.8275,7.1777,0.6285,10.7534,0.6495,17.979
				c0.0061,2.0723,0.7115,7.0361,0.9977,9.0894c0.3086,2.2139,0.4147,4.2178-0.0167,6.6387
				c-0.4316,2.4209-1.7698,4.812-3.9839,5.8813c-0.4624,0.2236-0.9656,0.3931-1.3397,0.7451
				c-0.3739,0.3511-0.572,0.9658-0.2725,1.3823c0.2897,0.4028,4.5624,0.2173,5.0586,0.2061
				c2.1095-0.0474,0.5508-1.061,2.6603-1.1084c0.7996-0.0181,1.7319-0.1064,2.1611-0.7817c0.627-0.9863,0.2048-2.4385-0.0796-3.5723
				c-0.1592-0.6343-0.0618-1.2983-0.0264-1.9512c0.2217-4.1016,0.3884-6.5015,0.8269-10.7656
				c0.2139-2.0801,0.3495-4.9053,0.1108-6.9834c-0.3533-3.0742,0.7058-6.2432,1.1084-9.311
				c0.4146-3.1582,1.0442-11.2554,1.4978-13.5229c0.2217-1.1089,0.682-0.5264,0.745,0.1104
				c0.4623,4.6719,0.6393,6.8726,1.0826,9.7549c0.1569,1.019,0.5044,6.2974,0.665,7.3159c0.406,2.5747,0.1687,4.6152,0.0001,7.2163
				c-0.0938,1.4453,0.3793,2.8867,0.6525,4.3091c0.1824,0.9497,0.2534,1.8999,0.3801,2.8496
				c0.3154,3.2642,0.4663,5.5371,0.6565,9.0552c0.0353,0.6528,0.1328,1.3169-0.0264,1.9512
				c-0.2844,1.1338-0.7067,2.5859-0.0796,3.5723c0.4292,0.6753,1.3616,0.7637,2.161,0.7817
				c2.1095,0.0469,0.5715,0.8104,2.6603,1.1084c1.3548,0.1933,4.769,0.1968,5.0586-0.2061
				c0.2996-0.4165,0.1016-1.0312-0.2725-1.3823c-0.374-0.3521-0.8773-0.5215-1.3396-0.7451
				c-2.2142-1.0693-3.5522-3.4604-3.9839-5.8813c-0.4314-2.4209-0.1427-6.7227-0.1427-6.7227
				c0.1666-1.6475,0.4258-3.3716,0.6315-4.8579c0.8158-5.8916-0.4128-11.7324,0.6274-17.5884
				c0.5664-3.189,0.7373-9.5039,0.665-12.1934c-0.21-7.8262-1.5518-13.6343-1.4409-17.292
				c0.0291-0.9595,0.1456-6.3843,0.5542-9.6992L133.2465,180.9568z"/>
			<path style="fill:#007988;" d="M389.5248,180.9568c0.2263-0.6074,3.2145-4.3228,3.2145-4.3228
				c1.1085-1.8848,1.7454-2.7036,2.6375-4.9854c0.4126-1.0547,0.9451-1.3184,0.7988-2.4414
				c-0.0906-0.6963-0.6807-2.1602-0.8169-2.8486c-0.2915-1.4746-0.7058-2.2632-1.1782-3.5806
				c-0.4705-1.312-1.5671-3.6187-1.4612-4.0801c0.1104-0.4604,0.5074-1.5981,0.5425-2.8525
				c0.0356-1.2578-0.1904-2.0889-0.0283-2.5044c0.163-0.4141,0.425-0.8379,0.6155-1.5049c0.189-0.6685,0.3152-1.4814-0.0461-1.6001
				c-0.3628-0.1206-0.417,0.3853-0.6238,0.8545c-0.2095,0.4692-0.5607,1.5518-1.0945,1.748
				c0.0022-1.0112,0.0343-1.8285,0.0365-2.8397c0.0007-0.3262,0.0006-0.6587-0.0967-0.9697
				c-0.0974-0.3115-0.309-0.604-0.6151-0.7168c-0.0641-0.0234-0.1354-0.0386-0.2006-0.0181
				c-0.1594,0.0513-0.1819,0.2642-0.1746,0.4312c0.0564,1.2993-0.0331,2.2933,0.0233,3.5921
				c-0.1689,0.0337-0.2086-0.0067-0.3687-0.0702c-0.3069-1.583-0.7141-2.8159-1.2321-4.3433
				c-0.0555-0.1641-0.1284-0.3452-0.288-0.4121c-0.2104-0.0879-0.4556,0.0903-0.5244,0.3076
				c-0.0688,0.2178-0.0133,0.4526,0.0425,0.6738c0.3574,1.416,0.5685,2.5262,0.9259,3.9417
				c-0.2046-0.001-0.1604-0.0562-0.365-0.0571c-0.7612-1.3428-0.9497-1.94-1.6626-3.0758
				c-0.0652-0.1038-0.3741-0.2868-0.4965-0.2888c-0.1711-0.0029-0.3015,0.1733-0.3125,0.3438s0.064,0.3335,0.1365,0.4888
				c0.7524,1.6074,0.9276,2.1571,1.5359,3.8246c-0.1371,0.2842,0.2454,1.0322-0.0088,1.0039
				c-0.2535-0.0288-0.4894,0.1421-0.797-0.4839c-0.3071-0.625-0.8718-1.0518-1.3801-1.1079
				c-0.5049-0.0576-0.8501,0.0215-0.5607,0.4473c0.2909,0.4268,0.8832,0.877,1.2368,1.4482
				c0.3522,0.5713,0.4745,0.5361,0.8375,1.207c0.361,0.6699,0.9635,1.2192,1.3977,1.583c0.4351,0.3643,0.5796,0.853,0.5796,0.853
				s0.3345,1.4746,0.5344,2.5596c0.2852,1.5464,0.718,2.2515,0.8997,3.8135c0.2217,1.9048,0.4434,3.3457,0.4434,3.3457
				s-1.4663,2.4204-2.012,3.0317c-0.9357,1.0474-2.2373,2.2461-3.0315,2.6772c-0.7406,0.4019-4.2822,0.2573-4.6002-0.0557
				c-0.318-0.3125-0.2655-1.165-0.0825-1.5718c0.0765-0.1699,0.2074-0.3086,0.3302-0.4487c1.4434-1.6494,1.9668-3.917,2.0917-6.1055
				c0.0802-1.4077,0.012-2.8472-0.455-4.1782c-0.467-1.3306-1.3707-2.5493-2.6355-3.1733
				c-2.2571-1.1128-5.1914,0.0283-6.5609,2.1392c-1.3695,2.1113-1.3661,4.895-0.5289,7.2686
				c0.4614,1.3086,1.9698,2.5049,2.2986,3.853c0.033,0.1357-0.4988,2.2723-0.4988,2.2723s-2.4788,0.4987-3.3254,0.4987
				c-0.8313,0-2.5238-0.8628-3.3809-1.7734c-1.7736-1.8843-2.9073-2.3662-2.9929-3.9902c-0.1108-2.1064-0.2131-4.0708,0.2217-6.4292
				c0.2002-1.0845,0.2588-2.9258,0.2588-2.9258s0.1445-0.4893,0.5795-0.853c0.4342-0.3638,1.0367-0.9131,1.3978-1.583
				c0.363-0.6709,0.4854-0.6357,0.8374-1.207c0.3536-0.5713,0.946-1.0215,1.2368-1.4482c0.2894-0.4258-0.0558-0.5049-0.5605-0.4478
				c-0.5083,0.0562-1.073,0.4834-1.3801,1.1084c-0.3077,0.626-0.5435,0.4551-0.7971,0.4839
				c-0.254,0.0283,0.1283-0.7197-0.0088-1.0039c0.6084-1.6675,0.6213-2.2101,1.3738-3.8181
				c0.0725-0.1548,0.1492-0.318,0.1365-0.4883c-0.0256-0.3431-0.3859-0.5094-0.5522-0.4262
				c-0.1096,0.0548-0.2155,0.1586-0.2823,0.2614c-0.6778,1.0418-0.6468,1.8599-1.4081,3.2026
				c-0.2046,0.001-0.2272,0.0322-0.4318,0.0332c0.3573-1.4155,0.2712-2.5539,0.6285-3.9699
				c0.0558-0.2212,0.1115-0.4561,0.0426-0.6738c-0.0688-0.2173-0.314-0.396-0.5244-0.3076
				c-0.1597,0.0669-0.2324,0.248-0.2881,0.4121c-0.5181,1.5273-0.489,2.8122-0.7959,4.3957
				c-0.1602,0.0635-0.3387,0.0796-0.5077,0.0459c0.0565-1.2993,0.113-2.5986,0.1696-3.8975
				c0.0073-0.1675-0.0153-0.3799-0.1746-0.4312c-0.0652-0.021-0.1365-0.0054-0.2007,0.0181
				c-0.3062,0.1123-0.5177,0.4053-0.615,0.7168c-0.0974,0.311-0.0975,0.6431-0.0968,0.9692
				c0.0022,1.0112-0.1118,2.1343-0.1096,3.1455c-0.5338-0.1963-0.885-1.2788-1.0944-1.7485
				c-0.2068-0.4688-0.261-0.9746-0.6238-0.8545c-0.3613,0.1191-0.2351,0.9316-0.0461,1.6001
				c0.1904,0.6675,0.4524,1.0913,0.6155,1.5049c0.1621,0.4155-0.0641,1.2471-0.0284,2.5049
				c0.035,1.2544,0.4321,2.3921,0.5425,2.8525c0.1061,0.4609-0.6907,3.1484-1.1611,4.4604
				c-0.6619,1.8462-0.7457,3.2881-1.0117,5.2314c-0.045,0.3296-0.0902,0.6626-0.0605,0.9941
				c0.0442,0.4932,1.7261,4.5576,6.0491,9.5459c1.0272,1.1851,2.8708,6.1245,3.1038,6.8726
				c0.623,2.002,0.4464,12.7134-0.4435,17.0703c-0.657,3.2168-0.5808,4.7129-0.8867,7.981
				c-0.2424,2.5903-0.1716,5.5967,0.1263,8.1812c0.8275,7.1777,0.6285,10.7534,0.6495,17.979
				c0.0061,2.0723,0.7115,7.0361,0.9977,9.0894c0.3086,2.2139,0.4147,4.2178-0.0167,6.6387
				c-0.4316,2.4209-1.7698,4.812-3.9839,5.8813c-0.4624,0.2236-0.9656,0.3931-1.3397,0.7451
				c-0.3739,0.3511-0.572,0.9658-0.2725,1.3823c0.2897,0.4028,4.5624,0.2173,5.0586,0.2061
				c2.1095-0.0474,0.5508-1.061,2.6603-1.1084c0.7996-0.0181,1.7319-0.1064,2.1611-0.7817c0.627-0.9863,0.2048-2.4385-0.0796-3.5723
				c-0.1592-0.6343-0.0618-1.2983-0.0264-1.9512c0.2217-4.1016,0.3884-6.5015,0.8269-10.7656
				c0.2139-2.0801,0.3495-4.9053,0.1108-6.9834c-0.3533-3.0742,0.7058-6.2432,1.1084-9.311
				c0.4146-3.1582,1.0442-11.2554,1.4978-13.5229c0.2217-1.1089,0.682-0.5264,0.745,0.1104
				c0.4623,4.6719,0.6393,6.8726,1.0826,9.7549c0.1569,1.019,0.5044,6.2974,0.665,7.3159c0.406,2.5747,0.1687,4.6152,0.0001,7.2163
				c-0.0938,1.4453,0.3793,2.8867,0.6525,4.3091c0.1824,0.9497,0.2534,1.8999,0.3801,2.8496
				c0.3154,3.2642,0.4663,5.5371,0.6565,9.0552c0.0353,0.6528,0.1328,1.3169-0.0264,1.9512
				c-0.2844,1.1338-0.7067,2.5859-0.0796,3.5723c0.4292,0.6753,1.3616,0.7637,2.161,0.7817c2.1095,0.0469,0.57,0.8208,2.6603,1.1084
				c0.8006,0.1102,4.769,0.1968,5.0586-0.2061c0.2996-0.4165,0.1016-1.0312-0.2725-1.3823
				c-0.374-0.3521-0.8773-0.5215-1.3396-0.7451c-2.2142-1.0693-3.5522-3.4604-3.9839-5.8813
				c-0.4314-2.4209-0.1427-6.7227-0.1427-6.7227c0.1666-1.6475,0.4258-3.3716,0.6315-4.8579
				c0.8158-5.8916-0.4128-11.7324,0.6274-17.5884c0.5664-3.189,0.7373-9.5039,0.665-12.1934
				c-0.21-7.8262-1.5518-13.6343-1.4409-17.292c0.0291-0.9595,0.1456-6.3843,0.5542-9.6992L389.5248,180.9568z"/>
			<path style="fill:#8E4586;" d="M421.8921,180.1809c0.2263-0.6074,1.8844-4.6556,1.8844-4.6556
				c1.1085-1.8848,1.5466-5.9209,2.4387-8.2027c0.4126-1.0547,1.3655-5.4169,1.2193-6.54c-0.0906-0.6963-0.9722-4.743-1.1085-5.4315
				c-0.2915-1.4746-1.2899-4.8656-1.184-5.327c0.1104-0.4604,0.5074-1.5981,0.5425-2.8525
				c0.0356-1.2578-0.1904-2.0889-0.0283-2.5044c0.163-0.4141,0.425-0.8379,0.6155-1.5049c0.189-0.6685,0.3152-1.4814-0.0461-1.6001
				c-0.3628-0.1206-0.417,0.3853-0.6238,0.8545c-0.2095,0.4692-0.5607,1.5518-1.0945,1.748
				c0.0022-1.0112,0.0343-1.8285,0.0365-2.8397c0.0007-0.3262,0.0006-0.6587-0.0967-0.9697
				c-0.0974-0.3115-0.309-0.604-0.6151-0.7168c-0.0641-0.0234-0.1354-0.0386-0.2006-0.0181
				c-0.1594,0.0513-0.1819,0.2642-0.1746,0.4312c0.0564,1.2993-0.0331,2.2933,0.0233,3.5921
				c-0.1689,0.0337-0.2086-0.0067-0.3687-0.0701c-0.3069-1.583-0.7141-2.8159-1.2321-4.3433
				c-0.0555-0.1641-0.1284-0.3452-0.288-0.4121c-0.2104-0.0879-0.4556,0.0903-0.5244,0.3076
				c-0.0688,0.2178-0.0133,0.4526,0.0425,0.6738c0.3574,1.416,0.5685,2.5262,0.9259,3.9417
				c-0.2046-0.001-0.1604-0.0562-0.365-0.0571c-0.7612-1.3428-0.9497-1.94-1.6626-3.0758
				c-0.0652-0.1038-0.3741-0.2868-0.4964-0.2888c-0.1711-0.0029-0.3015,0.1733-0.3125,0.3438s0.064,0.3335,0.1365,0.4888
				c0.7524,1.6074,0.9276,2.1571,1.5359,3.8246c-0.1371,0.2842,0.2454,1.0322-0.0088,1.0039
				c-0.2535-0.0288-0.4894,0.1421-0.797-0.4839c-0.3071-0.625-0.8718-1.0518-1.3801-1.1079
				c-0.5049-0.0576-0.8501,0.0215-0.5607,0.4473c0.2909,0.4268,0.8832,0.877,1.2368,1.4482
				c0.3522,0.5713,0.4745,0.5361,0.8375,1.207c0.361,0.6699,0.9635,1.2192,1.3977,1.583c0.4351,0.3643,0.5796,0.853,0.5796,0.853
				s0.3102,5.081,0.4919,6.643c0.2217,1.9048,0.3326,4.5447,0.3326,4.5447s-2.7798,9.1432-3.3254,9.7545
				c-0.9357,1.0474-2.0878,2.0075-2.882,2.4386c-0.7406,0.4019-1.8989,0.978-2.2169,0.665c-0.318-0.3125-0.2655-1.165-0.0825-1.5718
				c0.0765-0.1699,0.2074-0.3086,0.3302-0.4487c1.4434-1.6494,1.9668-3.917,2.0917-6.1055c0.0802-1.4077,0.012-2.8472-0.455-4.1782
				c-0.467-1.3306-1.3707-2.5493-2.6355-3.1733c-2.2571-1.1128-5.1914,0.0283-6.5609,2.1392
				c-1.3695,2.1113-1.3661,4.895-0.5289,7.2686c0.4614,1.3086,1.9698,2.5049,2.2986,3.853
				c0.0211,0.0869,0.0265,0.9604,0.0277,1.5773c0.0005,0.2929-0.2885,0.4958-0.564,0.3965
				c-0.6386-0.2301-1.7026-0.5716-2.5674-0.6437c-0.8284-0.069-2.3992-1.9163-3.1037-3.3254
				c-0.7759-1.5519-2.882-6.7617-2.882-8.6461c0-1.3711-0.6651-9.9762-0.6651-9.9762s0.0153-0.8931,0.4502-1.2569
				c0.4342-0.3638,1.0367-0.9131,1.3978-1.583c0.363-0.6709,0.4854-0.6357,0.8374-1.207c0.3536-0.5713,0.946-1.0215,1.2368-1.4482
				c0.2894-0.4258-0.0558-0.5049-0.5605-0.4478c-0.5083,0.0562-1.073,0.4834-1.3801,1.1084
				c-0.3077,0.626-0.5435,0.4551-0.7971,0.4839c-0.254,0.0283,0.1283-0.7197-0.0088-1.0039
				c0.6084-1.6675,0.6214-2.2101,1.3738-3.8181c0.0725-0.1548,0.1492-0.318,0.1365-0.4883
				c-0.0256-0.3431-0.3859-0.5093-0.5522-0.4262c-0.1096,0.0548-0.2155,0.1586-0.2823,0.2614
				c-0.6778,1.0418-0.6469,1.8599-1.4081,3.2026c-0.2046,0.001-0.2272,0.0322-0.4318,0.0332
				c0.3573-1.4155,0.2713-2.5539,0.6286-3.9699c0.0558-0.2212,0.1115-0.4561,0.0426-0.6738
				c-0.0688-0.2173-0.314-0.396-0.5244-0.3076c-0.1597,0.0669-0.2324,0.248-0.2881,0.4121
				c-0.5181,1.5273-0.489,2.8122-0.7959,4.3957c-0.1602,0.0635-0.3387,0.0796-0.5077,0.0459
				c0.0565-1.2993,0.113-2.5986,0.1696-3.8975c0.0073-0.1675-0.0153-0.3799-0.1746-0.4312
				c-0.0652-0.021-0.1365-0.0054-0.2007,0.0181c-0.3062,0.1123-0.5177,0.4053-0.615,0.7168
				c-0.0974,0.311-0.0975,0.6431-0.0968,0.9692c0.0022,1.0112-0.1118,2.1343-0.1096,3.1455
				c-0.5338-0.1963-0.885-1.2788-1.0944-1.7485c-0.2068-0.4688-0.261-0.9746-0.6238-0.8545
				c-0.3613,0.1191-0.2351,0.9316-0.0461,1.6001c0.1904,0.6675,0.4524,1.0913,0.6155,1.5049
				c0.1621,0.4155-0.0641,1.2471-0.0284,2.5049c0.035,1.2544,0.4321,2.3921,0.5425,2.8525
				c0.1061,0.4609-0.5952,4.7764-0.6736,6.7363c-0.1109,2.7712,0.1099,5.5297,0.2217,6.9834
				c0.1108,1.441,2.1061,7.7593,5.099,13.3016c0.7452,1.3799,2.2057,8.0089,2.4387,8.757c0.623,2.002,0.4464,12.7134-0.4435,17.0703
				c-0.65,3.1826-0.5824,4.6809-0.8771,7.8773c-0.2469,2.6783-0.2234,5.3789,0.0895,8.0503
				c0.8559,7.3082,0.657,10.8832,0.6765,18.1329c0.0056,2.0934,0.1853,4.1888,0.5318,6.2533
				c0.5934,3.5357,1.0602,6.1275,0.4494,9.5553c-0.4316,2.4209-1.7698,4.812-3.9839,5.8813
				c-0.4624,0.2236-0.9656,0.3931-1.3397,0.7451c-0.3739,0.3511-0.572,0.9658-0.2725,1.3823
				c0.2897,0.4028,4.5624,0.2173,5.0586,0.2061c2.1095-0.0474,0.5508-1.061,2.6603-1.1084
				c0.7996-0.0181,1.7319-0.1064,2.1611-0.7817c0.5348-0.8414,0.3062-2.0218,0.0509-3.0544
				c-0.1658-0.6707-0.2159-1.3683-0.179-2.0583c0.227-4.2432,0.3876-6.6451,0.8143-10.8372
				c0.2525-2.4808,0.3798-4.9854,0.1301-7.4664c-0.3049-3.0292,0.7276-6.1472,1.1239-9.1672
				c0.4146-3.1582,1.0442-11.2554,1.4978-13.5229c0.2217-1.1089,0.682-0.5264,0.745,0.1104
				c0.4623,4.6719,0.6393,6.8726,1.0826,9.7549c0.1569,1.019,0.5044,6.2974,0.665,7.3159c0.417,2.6447,0.1553,4.7258-0.0135,7.4298
				c-0.0649,1.0404,0.121,2.0761,0.4194,3.0749c0.3852,1.2894,0.4546,2.5803,0.6267,3.8703
				c0.3275,3.3895,0.4776,5.7102,0.6786,9.4661c0.0369,0.6898-0.0132,1.3877-0.179,2.0582
				c-0.2553,1.0326-0.4839,2.2129,0.051,3.0543c0.4292,0.6753,1.3616,0.7637,2.161,0.7817c2.1095,0.0469,0.57,0.8208,2.6603,1.1084
				c0.8006,0.1102,4.769,0.1968,5.0586-0.2061c0.2996-0.4165,0.1016-1.0312-0.2725-1.3823
				c-0.374-0.3521-0.8773-0.5215-1.3396-0.7451c-2.2142-1.0693-3.5522-3.4604-3.9839-5.8813
				c-0.4314-2.4209-0.1427-6.7227-0.1427-6.7227c0.1666-1.6475,0.4258-3.3716,0.6315-4.8579
				c0.8158-5.8916-0.4128-11.7324,0.6274-17.5884c0.5664-3.189,0.7373-9.5039,0.665-12.1934
				c-0.21-7.8262-1.5518-13.6343-1.4409-17.292c0.0291-0.9595,0.1456-6.3843,0.5542-9.6992L421.8921,180.1809z"/>
			<path style="fill:#EB3E85;" d="M453.3727,180.9568c0.2263-0.6074,3.2145-4.3228,3.2145-4.3228
				c1.1085-1.8848,1.7454-2.7036,2.6375-4.9854c0.4126-1.0547,0.9451-1.3184,0.7988-2.4414
				c-0.0906-0.6963-0.6807-2.1602-0.8169-2.8486c-0.2915-1.4746-0.7058-2.2632-1.1782-3.5806
				c-0.4705-1.312-1.5671-3.6187-1.4612-4.0801c0.1104-0.4604,0.5074-1.5981,0.5425-2.8525
				c0.0356-1.2578-0.1904-2.0889-0.0283-2.5044c0.163-0.4141,0.425-0.8379,0.6155-1.5049c0.189-0.6685,0.3152-1.4814-0.0461-1.6001
				c-0.3628-0.1206-0.417,0.3853-0.6238,0.8545c-0.2095,0.4692-0.5607,1.5518-1.0945,1.748
				c0.0022-1.0112,0.0343-1.8285,0.0365-2.8397c0.0007-0.3262,0.0006-0.6587-0.0967-0.9697
				c-0.0974-0.3115-0.309-0.604-0.6151-0.7168c-0.0641-0.0234-0.1354-0.0386-0.2006-0.0181
				c-0.1594,0.0513-0.1819,0.2642-0.1746,0.4312c0.0564,1.2993-0.0331,2.2933,0.0233,3.5921
				c-0.1689,0.0337-0.2086-0.0067-0.3687-0.0702c-0.3069-1.583-0.7141-2.8159-1.2321-4.3433
				c-0.0555-0.1641-0.1284-0.3452-0.288-0.4121c-0.2104-0.0879-0.4556,0.0903-0.5244,0.3076
				c-0.0688,0.2178-0.0133,0.4526,0.0425,0.6738c0.3574,1.416,0.5685,2.5262,0.9259,3.9417
				c-0.2046-0.001-0.1604-0.0562-0.365-0.0571c-0.7612-1.3428-0.9497-1.94-1.6626-3.0758
				c-0.0652-0.1038-0.3741-0.2868-0.4965-0.2888c-0.1711-0.0029-0.3015,0.1733-0.3125,0.3438s0.064,0.3335,0.1365,0.4888
				c0.7524,1.6074,0.9276,2.1571,1.5359,3.8246c-0.1371,0.2842,0.2454,1.0322-0.0088,1.0039
				c-0.2535-0.0288-0.4894,0.1421-0.797-0.4839c-0.3071-0.625-0.8718-1.0518-1.3801-1.1079
				c-0.5049-0.0576-0.8501,0.0215-0.5607,0.4473c0.2909,0.4268,0.8832,0.877,1.2368,1.4482
				c0.3522,0.5713,0.4745,0.5361,0.8375,1.207c0.361,0.6699,0.9635,1.2192,1.3977,1.583c0.4351,0.3643,0.5796,0.853,0.5796,0.853
				s0.3345,1.4746,0.5344,2.5596c0.2852,1.5464,0.718,2.2515,0.8997,3.8135c0.2217,1.9048,0.4434,3.3457,0.4434,3.3457
				s-1.4663,2.4204-2.012,3.0317c-0.9357,1.0474-2.2373,2.2461-3.0315,2.6772c-0.7406,0.4019-4.2822,0.2573-4.6002-0.0557
				c-0.318-0.3125-0.2655-1.165-0.0825-1.5718c0.0765-0.1699,0.2074-0.3086,0.3302-0.4487c1.4434-1.6494,1.9668-3.917,2.0917-6.1055
				c0.0802-1.4077,0.012-2.8472-0.455-4.1782c-0.467-1.3306-1.3707-2.5493-2.6355-3.1733
				c-2.2571-1.1128-5.1914,0.0283-6.5609,2.1392c-1.3695,2.1113-1.3661,4.895-0.5289,7.2686
				c0.4614,1.3086,1.9698,2.5049,2.2986,3.853c0.033,0.1357-0.4988,2.2723-0.4988,2.2723s-2.4788,0.4987-3.3254,0.4987
				c-0.8313,0-2.5238-0.8628-3.3809-1.7734c-1.7736-1.8843-2.9073-2.3662-2.9929-3.9902c-0.1108-2.1064-0.2131-4.0708,0.2217-6.4292
				c0.2002-1.0845,0.2588-2.9258,0.2588-2.9258s0.1445-0.4893,0.5795-0.853c0.4342-0.3638,1.0367-0.9131,1.3978-1.583
				c0.363-0.6709,0.4854-0.6357,0.8374-1.207c0.3536-0.5713,0.946-1.0215,1.2368-1.4482c0.2894-0.4258-0.0558-0.5049-0.5605-0.4478
				c-0.5083,0.0562-1.073,0.4834-1.3801,1.1084c-0.3077,0.626-0.5435,0.4551-0.7971,0.4839
				c-0.254,0.0283,0.1283-0.7197-0.0088-1.0039c0.6084-1.6675,0.6214-2.2101,1.3738-3.8181
				c0.0725-0.1548,0.1492-0.318,0.1365-0.4883c-0.0256-0.3431-0.3859-0.5094-0.5522-0.4262
				c-0.1096,0.0548-0.2155,0.1586-0.2823,0.2614c-0.6778,1.0418-0.6469,1.8599-1.4081,3.2026
				c-0.2046,0.001-0.2272,0.0322-0.4318,0.0332c0.3573-1.4155,0.2713-2.5539,0.6286-3.9699
				c0.0558-0.2212,0.1115-0.4561,0.0426-0.6738c-0.0688-0.2173-0.314-0.396-0.5244-0.3076
				c-0.1597,0.0669-0.2324,0.248-0.2881,0.4121c-0.5181,1.5273-0.489,2.8122-0.7959,4.3957
				c-0.1602,0.0635-0.3387,0.0796-0.5077,0.0459c0.0565-1.2993,0.113-2.5986,0.1696-3.8975
				c0.0073-0.1675-0.0153-0.3799-0.1746-0.4312c-0.0652-0.021-0.1365-0.0054-0.2007,0.0181
				c-0.3062,0.1123-0.5177,0.4053-0.615,0.7168c-0.0974,0.311-0.0975,0.6431-0.0968,0.9692
				c0.0022,1.0112-0.1118,2.1343-0.1096,3.1455c-0.5338-0.1963-0.885-1.2788-1.0944-1.7485
				c-0.2068-0.4688-0.261-0.9746-0.6238-0.8545c-0.3613,0.1191-0.2351,0.9316-0.0461,1.6001
				c0.1904,0.6675,0.4524,1.0913,0.6155,1.5049c0.1621,0.4155-0.0641,1.2471-0.0284,2.5049
				c0.035,1.2544,0.4321,2.3921,0.5425,2.8525c0.1061,0.4609-0.6907,3.1484-1.1611,4.4604
				c-0.6619,1.8462-0.7457,3.2881-1.0117,5.2314c-0.045,0.3296-0.0902,0.6626-0.0605,0.9941
				c0.0442,0.4932,1.7261,4.5576,6.0491,9.5459c1.0272,1.1851,2.8708,6.1245,3.1038,6.8726
				c0.623,2.002,0.4464,12.7134-0.4435,17.0703c-0.657,3.2168-0.5808,4.7129-0.8867,7.981
				c-0.2424,2.5903-0.1716,5.5967,0.1263,8.1812c0.8275,7.1777,0.6285,10.7534,0.6495,17.979
				c0.0061,2.0723,0.7115,7.0361,0.9977,9.0894c0.3086,2.2139,0.4147,4.2178-0.0167,6.6387
				c-0.4316,2.4209-1.7698,4.812-3.9839,5.8813c-0.4624,0.2236-0.9656,0.3931-1.3397,0.7451
				c-0.3739,0.3511-0.572,0.9658-0.2725,1.3823c0.2897,0.4028,4.5624,0.2173,5.0586,0.2061
				c2.1095-0.0474,0.5508-1.061,2.6603-1.1084c0.7996-0.0181,1.7319-0.1064,2.1611-0.7817c0.627-0.9863,0.2048-2.4385-0.0796-3.5723
				c-0.1592-0.6343-0.0618-1.2983-0.0264-1.9512c0.2217-4.1016,0.3884-6.5015,0.8269-10.7656
				c0.2139-2.0801,0.3495-4.9053,0.1108-6.9834c-0.3533-3.0742,0.7058-6.2432,1.1084-9.311
				c0.4146-3.1582,1.0442-11.2554,1.4978-13.5229c0.2217-1.1089,0.682-0.5264,0.745,0.1104
				c0.4623,4.6719,0.6393,6.8726,1.0826,9.7549c0.1569,1.019,0.5044,6.2974,0.665,7.3159c0.406,2.5747,0.1687,4.6152,0.0001,7.2163
				c-0.0938,1.4453,0.3793,2.8867,0.6525,4.3091c0.1824,0.9497,0.2534,1.8999,0.3801,2.8496
				c0.3154,3.2642,0.4663,5.5371,0.6565,9.0552c0.0353,0.6528,0.1328,1.3169-0.0264,1.9512
				c-0.2844,1.1338-0.7067,2.5859-0.0796,3.5723c0.4292,0.6753,1.3616,0.7637,2.161,0.7817
				c2.1095,0.0469,0.5666,0.8474,2.6603,1.1084c0.8837,0.1102,4.769,0.1968,5.0586-0.2061
				c0.2996-0.4165,0.1016-1.0312-0.2725-1.3823c-0.374-0.3521-0.8773-0.5215-1.3396-0.7451
				c-2.2142-1.0693-3.5522-3.4604-3.9839-5.8813c-0.4314-2.4209-0.1427-6.7227-0.1427-6.7227
				c0.1666-1.6475,0.4258-3.3716,0.6315-4.8579c0.8158-5.8916-0.4128-11.7324,0.6274-17.5884
				c0.5664-3.189,0.7373-9.5039,0.665-12.1934c-0.21-7.8262-1.5518-13.6343-1.4409-17.292
				c0.0291-0.9595,0.1456-6.3843,0.5542-9.6992L453.3727,180.9568z"/>
			<g>
				<path style="fill:#007988;" d="M170.6301,170.7112c-0.6241-1.0053-0.8923-1.8071-1.5801-2.751
					c0.1246-0.7485,0.3741-1.0809,0.291-2.2864c-0.0503-0.7287-0.0831-1.8705-0.2494-2.4525
					c-0.0517-0.1809-0.2185-0.3584-0.4053-0.3345c-0.2323,0.0298-0.4677,0.1682-0.4677,0.1682s0.0806-0.7092-0.1229-1.0779
					s-0.5524-0.5101-0.8963-0.2675c-0.1902,0.2734-0.2455,0.4068-0.4357,0.6803c-0.062-0.3613-0.2689-0.6041-0.5144-0.8765
					s-0.7281-0.3647-0.9692-0.0879c-0.3287,0.3765,0.0704,1.1307-0.0959,1.4633c-0.3741-0.4157-0.9483-0.9457-1.4133-1.3717
					c-0.1117-0.1023-0.3203-0.0513-0.4319,0.0508c-0.1469,0.1348-0.1839,0.2921-0.0266,0.5596
					c0.3977,0.6761,0.8648,1.615,1.241,2.303c0.3762,0.6885,0.7139,2.0748,0.4607,2.4946
					c-0.0465,0.0771-0.1646,0.0688-0.2544,0.0713c-0.5122,0.0142-0.6136-0.2261-1.0453-0.502
					c-0.1997-0.1279-0.385-0.2847-0.6086-0.3633c-0.2234-0.0791-0.7482-0.2078-0.6651,0.4157
					c0.8475,0.9492,1.4867,1.8681,2.7587,1.9003c0.442,0.1781,0.7605-0.0347,0.9481,0.3359
					c0.5168,1.0215,0.9903,3.5001,0.9903,3.5001s-2.8469,1.392-3.9918,1.3944c-1.2753,0.0024-2.4462-0.7075-3.7104-0.875
					c-0.8402-0.1108-2.4403-0.27-2.4403-0.27s-0.3974-0.6966,0-1.0088c1.1639-0.9145,2.0636-3.5542,2.2447-5.0713
					c0.243-2.0381-0.2107-4.1824-1.3302-5.9026c-1.1194-1.7202-3.2063-2.2065-5.2375-1.9121
					c-2.2031,0.3198-3.2478,2.2353-3.7411,4.4062c-0.4933,2.1704-0.0286,3.7197,0.9145,5.7363
					c0.3184,0.6807,1.5866,2.3127,1.5689,2.3551c-0.0272,0.0649,0.1096,1.1804-0.4882,1.3972
					c-0.5979,0.2173-2.4563,0.3455-3.0889,0.4119c-0.9246,0.0977-1.6181,0.2405-2.4812,0.5857
					c-0.4157,0.1663-1.3579,0.1264-2.0318-0.1231c-0.5803-0.2148-1.1606-0.4297-1.741-0.6445
					c-0.1698-0.9243,0.0663-2.1812,0.1202-3.4194c1.08-0.0425,1.8021-0.71,2.4386-1.5835c0.0928-0.1274,0.1802-0.2637,0.3083-0.3555
					c0.1132-0.0806,0.2495-0.1206,0.3813-0.165c0.6125-0.2065,1.1799-0.5454,1.6523-0.9868
					c0.0752-0.0703,0.153-0.1533,0.1584-0.2563c0.0142-0.2661-0.3842-0.3376-0.6492-0.3082
					c-1.247,0.1386-1.4709,0.4967-2.2104,0.7037c-0.1719-0.5913-0.053-1.2344,0.1848-1.8022
					c0.2377-0.5684,0.5883-1.0806,0.9026-1.6104c0.2423-0.4077,0.4397-0.9922,0.0808-1.3027
					c-0.3638-0.3149-0.504,0.0874-0.9669,0.5061c-0.3569,0.3227-0.5612,0.8284-0.886,1.1833
					c0.0062-0.3647,0.1691-0.7051,0.275-1.0542s0.1471-0.7559-0.0637-1.0537c-0.2202-0.3105-0.6907-0.1475-0.9465,0.1348
					c-0.3335,0.3682-0.388,0.6651-0.5487,0.9624c-0.2411-0.0895-0.5044-0.3145-0.7898-0.4805
					c-0.292-0.1699-0.6868,0.0269-0.8492,0.3232s-0.1561,0.6528-0.1458,0.9907c-0.4274-0.248-0.6696-0.3782-0.8672,0.0747
					c-0.4852,1.1118-0.2873,2.4253-0.1667,3.6324c0.0265,0.2661,0.053,0.5356,0.0088,0.7988
					c-0.0497,0.2964-0.1863,0.5698-0.3212,0.8384c-0.2954,0.5879-0.5908,1.1763-0.8864,1.7646
					c-0.2797,0.5566-0.6367,1.6235-0.7545,2.2354c-0.1177,0.6118-0.2896,1.0044,0.0283,1.54
					c1.1741,1.979,1.4873,2.1764,3.214,3.6975c1.1639,1.0253,3.2362,2.2665,3.8242,2.9929
					c1.4133,1.7458,1.7182,5.8472,1.7182,5.8472c0.623,2.002,0.4463,12.7134-0.4436,17.0703
					c-0.657,3.2168-0.5808,4.7129-0.8867,7.981c-0.2424,2.5903-0.1716,5.5967,0.1265,8.1812
					c0.8274,7.1777,0.6284,10.7534,0.6494,17.979c0.0061,2.0723,0.7117,7.0361,0.9978,9.0894
					c0.3086,2.2139,0.4146,4.2178-0.0168,6.6387c-0.4316,2.4209-1.7698,4.812-3.9839,5.8813
					c-0.4624,0.2236-0.9656,0.3931-1.3396,0.7451c-0.374,0.3511-0.572,0.9658-0.2725,1.3823
					c0.2896,0.4028,4.5623,0.2173,5.0586,0.2061c2.1094-0.0474,0.5508-1.061,2.6602-1.1084
					c0.7996-0.0181,1.7319-0.1064,2.1611-0.7817c0.627-0.9863,0.2048-2.4385-0.0796-3.5723
					c-0.1592-0.6343-0.0618-1.2983-0.0264-1.9512c0.2217-4.1016,0.3884-6.5015,0.8269-10.7656
					c0.2139-2.0801,0.3496-4.9053,0.1108-6.9834c-0.3533-3.0742,0.7058-6.2432,1.1084-9.311
					c0.4146-3.1582,1.0442-11.2554,1.4978-13.5229c0.2217-1.1089,0.6821-0.5264,0.7451,0.1104
					c0.4622,4.6719,0.6392,6.8726,1.0825,9.7549c0.157,1.019,0.5044,6.2974,0.665,7.3159c0.406,2.5747,0.1687,4.6152,0.0002,7.2163
					c-0.0938,1.4453,0.3792,2.8867,0.6523,4.3091c0.1824,0.9497,0.2534,1.8999,0.3801,2.8496
					c0.3154,3.2642,0.4663,5.5371,0.6565,9.0552c0.0354,0.6528,0.1328,1.3169-0.0264,1.9512
					c-0.2844,1.1338-0.7065,2.5859-0.0796,3.5723c0.4292,0.6753,1.3616,0.7637,2.1611,0.7817
					c2.1094,0.0469,0.7702,0.7694,2.6602,1.1084c1.0778,0.1933,4.769,0.1968,5.0586-0.2061
					c0.2996-0.4165,0.1016-1.0312-0.2725-1.3823c-0.374-0.3521-0.8772-0.5215-1.3396-0.7451
					c-2.2141-1.0693-3.5522-3.4604-3.9839-5.8813c-0.4314-2.4209-0.1426-6.7227-0.1426-6.7227
					c0.1665-1.6475,0.4258-3.3716,0.6313-4.8579c0.8159-5.8916-0.4128-11.7324,0.6274-17.5884
					c0.5664-3.189,0.7373-9.5039,0.665-12.1934c-0.21-7.8262-1.5518-13.6343-1.4409-17.292
					c0.0291-0.9595,0.1458-6.3843,0.5542-9.6992c0,0,0.0867-3.1268,1.7459-4.9603c1.531-1.6914,2.4941-2.0784,4.323-3.9073
					c0.4939-0.4939,2.2764-2.4614,2.2447-3.1591C171.508,172.4041,171.049,171.386,170.6301,170.7112z"/>
			</g>
			<g>
				<path style="fill:#6CA342;" d="M362.8389,170.7112c-0.6241-1.0053-0.8923-1.8071-1.5801-2.751
					c0.1246-0.7485,0.3741-1.0809,0.291-2.2864c-0.0503-0.7287-0.0832-1.8705-0.2494-2.4525
					c-0.0517-0.1809-0.2185-0.3584-0.4053-0.3345c-0.2323,0.0298-0.4677,0.1682-0.4677,0.1682s0.0806-0.7092-0.1229-1.0779
					s-0.5523-0.5101-0.8963-0.2675c-0.1902,0.2734-0.2455,0.4068-0.4357,0.6803c-0.062-0.3613-0.2689-0.6041-0.5144-0.8765
					s-0.7281-0.3647-0.9692-0.0879c-0.3287,0.3765,0.0703,1.1307-0.0959,1.4633c-0.3741-0.4157-0.9484-0.9457-1.4133-1.3717
					c-0.1117-0.1023-0.3203-0.0513-0.4319,0.0508c-0.1469,0.1348-0.1839,0.2921-0.0266,0.5596
					c0.3977,0.6761,0.8648,1.615,1.241,2.303c0.3762,0.6885,0.7139,2.0748,0.4607,2.4946
					c-0.0465,0.0771-0.1646,0.0688-0.2544,0.0713c-0.5122,0.0142-0.6136-0.2261-1.0453-0.502
					c-0.1997-0.1279-0.385-0.2847-0.6086-0.3633c-0.2234-0.0791-0.7482-0.2078-0.6651,0.4157
					c0.8475,0.9492,1.4867,1.8681,2.7587,1.9003c0.442,0.1781,0.7605-0.0347,0.9481,0.3359
					c0.5168,1.0215,0.9903,3.5001,0.9903,3.5001s-2.8469,1.392-3.9918,1.3944c-1.2753,0.0024-2.4462-0.7075-3.7104-0.875
					c-0.8402-0.1108-2.4403-0.27-2.4403-0.27s-0.3974-0.6022,0-0.9145c1.1639-0.9145,2.0636-3.5542,2.2447-5.0713
					c0.243-2.0381-0.2107-4.1824-1.3302-5.9026c-1.1194-1.7202-3.2063-2.2065-5.2375-1.9121
					c-2.2031,0.3198-3.2478,2.2353-3.7411,4.4062c-0.4933,2.1704-0.0286,3.7197,0.9145,5.7363
					c0.3184,0.6807,1.5866,2.4544,1.5689,2.4969c-0.0272,0.0649,0.1096,0.9443-0.4882,1.1611
					c-0.5979,0.2173-2.4563,0.3455-3.0889,0.4119c-0.9246,0.0977-1.6181,0.2405-2.4812,0.5857
					c-0.4157,0.1663-1.3579,0.1264-2.0318-0.1231c-0.5803-0.2148-1.1606-0.4297-1.741-0.6445
					c-0.1698-0.9243,0.0663-2.1812,0.1202-3.4194c1.08-0.0425,1.8021-0.71,2.4386-1.5835c0.0928-0.1274,0.1802-0.2637,0.3083-0.3555
					c0.1132-0.0806,0.2495-0.1206,0.3813-0.165c0.6125-0.2065,1.1799-0.5454,1.6523-0.9868
					c0.0752-0.0703,0.153-0.1533,0.1584-0.2563c0.0142-0.2661-0.3842-0.3376-0.6492-0.3082
					c-1.247,0.1386-1.4709,0.4967-2.2104,0.7037c-0.1719-0.5913-0.053-1.2344,0.1848-1.8022
					c0.2377-0.5684,0.5883-1.0806,0.9026-1.6104c0.2423-0.4077,0.4397-0.9922,0.0808-1.3027
					c-0.3638-0.3149-0.504,0.0874-0.9669,0.5061c-0.3569,0.3227-0.5612,0.8284-0.886,1.1833
					c0.0062-0.3647,0.1691-0.7051,0.275-1.0542s0.1471-0.7559-0.0637-1.0537c-0.2202-0.3105-0.6907-0.1475-0.9465,0.1348
					c-0.3335,0.3682-0.3879,0.6651-0.5486,0.9624c-0.2411-0.0895-0.5044-0.3145-0.7898-0.4805
					c-0.292-0.1699-0.6868,0.0269-0.8492,0.3232s-0.1561,0.6528-0.1458,0.9907c-0.4274-0.248-0.6696-0.3782-0.8672,0.0747
					c-0.4852,1.1118-0.2873,2.4253-0.1667,3.6324c0.0265,0.2661,0.053,0.5356,0.0088,0.7988
					c-0.0497,0.2964-0.1863,0.5698-0.3212,0.8384c-0.2954,0.5879-0.5908,1.1763-0.8864,1.7646
					c-0.2797,0.5566-0.6367,1.6235-0.7545,2.2354c-0.1177,0.6118-0.2896,1.0044,0.0283,1.54
					c1.1741,1.979,1.4873,2.1764,3.214,3.6975c1.1639,1.0253,3.2362,2.2665,3.8242,2.9929
					c1.4133,1.7458,1.7182,5.8472,1.7182,5.8472c0.623,2.002,0.4463,12.7134-0.4436,17.0703
					c-0.657,3.2168-0.5808,4.7129-0.8867,7.981c-0.2424,2.5903-0.1716,5.5967,0.1265,8.1812
					c0.8274,7.1777,0.6284,10.7534,0.6494,17.979c0.0061,2.0723,0.7117,7.0361,0.9978,9.0894
					c0.3086,2.2139,0.4146,4.2178-0.0168,6.6387c-0.4316,2.4209-1.7698,4.812-3.9839,5.8813
					c-0.4624,0.2236-0.9656,0.3931-1.3396,0.7451c-0.374,0.3511-0.572,0.9658-0.2725,1.3823
					c0.2896,0.4028,4.5623,0.2173,5.0586,0.2061c2.1094-0.0474,0.5508-1.061,2.6602-1.1084
					c0.7996-0.0181,1.7319-0.1064,2.1611-0.7817c0.627-0.9863,0.2048-2.4385-0.0796-3.5723
					c-0.1592-0.6343-0.0618-1.2983-0.0264-1.9512c0.2217-4.1016,0.3884-6.5015,0.8269-10.7656
					c0.2139-2.0801,0.3496-4.9053,0.1108-6.9834c-0.3533-3.0742,0.7058-6.2432,1.1084-9.311
					c0.4146-3.1582,1.0442-11.2554,1.4978-13.5229c0.2217-1.1089,0.6821-0.5264,0.7451,0.1104
					c0.4622,4.6719,0.6392,6.8726,1.0825,9.7549c0.157,1.019,0.5044,6.2974,0.665,7.3159c0.406,2.5747,0.1687,4.6152,0.0002,7.2163
					c-0.0938,1.4453,0.3792,2.8867,0.6523,4.3091c0.1824,0.9497,0.2534,1.8999,0.3801,2.8496
					c0.3154,3.2642,0.4663,5.5371,0.6565,9.0552c0.0354,0.6528,0.1328,1.3169-0.0264,1.9512
					c-0.2844,1.1338-0.7065,2.5859-0.0796,3.5723c0.4292,0.6753,1.3616,0.7637,2.1611,0.7817
					c2.1094,0.0469,0.5936,0.6831,2.6602,1.1084c0.9392,0.1933,4.769,0.1968,5.0586-0.2061
					c0.2996-0.4165,0.1016-1.0312-0.2725-1.3823c-0.374-0.3521-0.8772-0.5215-1.3396-0.7451
					c-2.2141-1.0693-3.5522-3.4604-3.9839-5.8813c-0.4314-2.4209-0.1426-6.7227-0.1426-6.7227
					c0.1665-1.6475,0.4258-3.3716,0.6313-4.8579c0.8159-5.8916-0.4128-11.7324,0.6274-17.5884
					c0.5664-3.189,0.7373-9.5039,0.665-12.1934c-0.21-7.8262-1.5518-13.6343-1.4409-17.292
					c0.0291-0.9595,0.1458-6.3843,0.5542-9.6992c0,0,0.0867-3.1268,1.7459-4.9603c1.531-1.6914,2.4941-2.0784,4.3231-3.9073
					c0.4939-0.4939,2.2764-2.4614,2.2446-3.1591C363.7167,172.4041,363.2578,171.386,362.8389,170.7112z"/>
			</g>
			<g>
				<path style="fill:#E73B4B;" d="M490.978,170.7112c-0.624-1.0053-0.8923-1.8071-1.5801-2.751
					c0.1246-0.7485,0.3741-1.0809,0.291-2.2864c-0.0503-0.7287-0.0831-1.8705-0.2494-2.4525
					c-0.0517-0.1809-0.2185-0.3584-0.4053-0.3345c-0.2323,0.0298-0.4677,0.1682-0.4677,0.1682s0.0806-0.7092-0.1229-1.0779
					s-0.5524-0.5101-0.8964-0.2675c-0.1902,0.2734-0.2455,0.4068-0.4356,0.6803c-0.062-0.3613-0.269-0.6041-0.5144-0.8765
					s-0.7281-0.3647-0.9692-0.0879c-0.3287,0.3765,0.0704,1.1307-0.0959,1.4633c-0.3741-0.4157-0.9483-0.9457-1.4133-1.3717
					c-0.1117-0.1023-0.3203-0.0513-0.4319,0.0508c-0.1469,0.1348-0.1839,0.2921-0.0266,0.5596
					c0.3977,0.6761,0.8648,1.615,1.241,2.303c0.3762,0.6885,0.7139,2.0748,0.4607,2.4946
					c-0.0464,0.0771-0.1646,0.0688-0.2544,0.0713c-0.5122,0.0142-0.6136-0.2261-1.0453-0.502
					c-0.1997-0.1279-0.385-0.2847-0.6086-0.3633c-0.2234-0.0791-0.7482-0.2078-0.6651,0.4157
					c0.8475,0.9492,1.4867,1.8681,2.7587,1.9003c0.442,0.1781,0.7605-0.0347,0.9481,0.3359
					c0.5168,1.0215,0.9903,3.5001,0.9903,3.5001s-2.8469,1.392-3.9918,1.3944c-1.2753,0.0024-2.4462-0.7075-3.7104-0.875
					c-0.8402-0.1108-2.4402-0.27-2.4402-0.27s-0.3974-0.6022,0-0.9145c1.1639-0.9145,2.0636-3.5542,2.2447-5.0713
					c0.243-2.0381-0.2107-4.1824-1.3302-5.9026c-1.1194-1.7202-3.2063-2.2065-5.2375-1.9121
					c-2.2031,0.3198-3.2478,2.2353-3.7411,4.4062c-0.4933,2.1704-0.0286,3.7197,0.9145,5.7363
					c0.3184,0.6807,1.5866,2.4544,1.5689,2.4969c-0.0272,0.0649,0.1096,0.9443-0.4882,1.1611
					c-0.5979,0.2173-2.4563,0.3455-3.0889,0.4119c-0.9246,0.0977-1.618,0.2405-2.4812,0.5857
					c-0.4157,0.1663-1.3579,0.1264-2.0318-0.1231c-0.5803-0.2148-1.1606-0.4297-1.741-0.6445
					c-0.1698-0.9243,0.0663-2.1812,0.1202-3.4194c1.08-0.0425,1.8021-0.71,2.4386-1.5835c0.0928-0.1274,0.1802-0.2637,0.3083-0.3555
					c0.1132-0.0806,0.2495-0.1206,0.3813-0.165c0.6125-0.2065,1.1799-0.5454,1.6523-0.9868
					c0.0752-0.0703,0.153-0.1533,0.1584-0.2563c0.0142-0.2661-0.3842-0.3376-0.6492-0.3082
					c-1.247,0.1386-1.4709,0.4967-2.2104,0.7037c-0.1719-0.5913-0.053-1.2344,0.1848-1.8022
					c0.2377-0.5684,0.5883-1.0806,0.9026-1.6104c0.2423-0.4077,0.4397-0.9922,0.0808-1.3027
					c-0.3638-0.3149-0.5039,0.0874-0.9669,0.5061c-0.3569,0.3227-0.5612,0.8284-0.886,1.1833
					c0.0062-0.3647,0.1691-0.7051,0.275-1.0542s0.1471-0.7559-0.0637-1.0537c-0.2202-0.3105-0.6907-0.1475-0.9464,0.1348
					c-0.3335,0.3682-0.388,0.6651-0.5487,0.9624c-0.2411-0.0895-0.5044-0.3145-0.7898-0.4805
					c-0.292-0.1699-0.6868,0.0269-0.8492,0.3232s-0.1561,0.6528-0.1458,0.9907c-0.4274-0.248-0.6696-0.3782-0.8672,0.0747
					c-0.4851,1.1118-0.2873,2.4253-0.1667,3.6324c0.0265,0.2661,0.053,0.5356,0.0088,0.7988
					c-0.0497,0.2964-0.1863,0.5698-0.3212,0.8384c-0.2954,0.5879-0.5908,1.1763-0.8864,1.7646
					c-0.2797,0.5566-0.6367,1.6235-0.7545,2.2354c-0.1177,0.6118-0.2896,1.0044,0.0283,1.54
					c1.1741,1.979,1.4873,2.1764,3.214,3.6975c1.1639,1.0253,3.2362,2.2665,3.8242,2.9929
					c1.4133,1.7458,1.7182,5.8472,1.7182,5.8472c0.623,2.002,0.4463,12.7134-0.4436,17.0703
					c-0.657,3.2168-0.5808,4.7129-0.8867,7.981c-0.2424,2.5903-0.1716,5.5967,0.1265,8.1812
					c0.8274,7.1777,0.6284,10.7534,0.6494,17.979c0.0061,2.0723,0.7117,7.0361,0.9978,9.0894
					c0.3086,2.2139,0.4146,4.2178-0.0168,6.6387c-0.4316,2.4209-1.7698,4.812-3.9839,5.8813
					c-0.4624,0.2236-0.9656,0.3931-1.3396,0.7451c-0.374,0.3511-0.572,0.9658-0.2725,1.3823
					c0.2896,0.4028,4.5623,0.2173,5.0586,0.2061c2.1094-0.0474,0.5508-1.061,2.6602-1.1084
					c0.7996-0.0181,1.7319-0.1064,2.1611-0.7817c0.627-0.9863,0.2048-2.4385-0.0796-3.5723
					c-0.1592-0.6343-0.0618-1.2983-0.0264-1.9512c0.2217-4.1016,0.3884-6.5015,0.8269-10.7656
					c0.2139-2.0801,0.3496-4.9053,0.1108-6.9834c-0.3533-3.0742,0.7058-6.2432,1.1084-9.311
					c0.4146-3.1582,1.0442-11.2554,1.4978-13.5229c0.2217-1.1089,0.6821-0.5264,0.7451,0.1104
					c0.4622,4.6719,0.6392,6.8726,1.0825,9.7549c0.157,1.019,0.5044,6.2974,0.665,7.3159c0.406,2.5747,0.1687,4.6152,0.0002,7.2163
					c-0.0938,1.4453,0.3792,2.8867,0.6523,4.3091c0.1824,0.9497,0.2534,1.8999,0.3801,2.8496
					c0.3154,3.2642,0.4663,5.5371,0.6565,9.0552c0.0354,0.6528,0.1328,1.3169-0.0264,1.9512
					c-0.2844,1.1338-0.7065,2.5859-0.0796,3.5723c0.4292,0.6753,1.3616,0.7637,2.1611,0.7817
					c2.1094,0.0469,0.5655,0.8553,2.6602,1.1084c0.9115,0.1102,4.769,0.1968,5.0586-0.2061
					c0.2996-0.4165,0.1016-1.0312-0.2725-1.3823c-0.374-0.3521-0.8772-0.5215-1.3396-0.7451
					c-2.2141-1.0693-3.5522-3.4604-3.9839-5.8813c-0.4314-2.4209-0.1426-6.7227-0.1426-6.7227
					c0.1665-1.6475,0.4258-3.3716,0.6313-4.8579c0.8159-5.8916-0.4128-11.7324,0.6274-17.5884
					c0.5664-3.189,0.7373-9.5039,0.665-12.1934c-0.21-7.8262-1.5518-13.6343-1.4409-17.292
					c0.0291-0.9595,0.1458-6.3843,0.5542-9.6992c0,0,0.0868-3.1268,1.7459-4.9603c1.531-1.6914,2.494-2.0784,4.323-3.9073
					c0.4939-0.4939,2.2764-2.4614,2.2447-3.1591C491.8558,172.4041,491.3969,171.386,490.978,170.7112z"/>
			</g>
			<path style="fill:#8E4586;" d="M203.5235,181.5665c-0.1371,0.6398-0.5666,1.281-0.9976,1.7735
				c-0.388,0.4434-0.4668,0.5605-0.4988,0.7205c-0.0554,0.2771,0.7205,1.6073,0.3977,2.0305
				c-0.2189,0.287-0.5012,0.0761-0.7856-0.1461s-0.2996-0.3895-0.4434-0.7205c-0.0331,0.113-0.6097,0-0.6097,0
				s-0.0094,0.7667-0.6097,0.8868c-0.2771,0.0554-0.584-0.8424-0.584-0.8424l-0.5799-0.0998c0,0-0.0554,0.9976-0.4434,0.9976
				c-0.7205,0-0.7406-0.6566-0.9294-0.9457c-0.2345-0.1628-0.7888-0.0519-0.7888-0.0519s-0.6096,1.053-1.1468,1.4933
				c-0.0652,0.7354-0.1201,1.5146-0.1665,2.2939c0.0032,0.0845,0,0.1416-0.0099,0.1689c-0.1522,2.6167-0.2096,5.1689-0.2286,5.7983
				c-0.1108,3.6577,1.231,9.4658,1.4409,17.292c0.0723,2.6895-0.0986,9.0044-0.665,12.1934
				c-1.0403,5.856,0.1884,11.6968-0.6274,17.5884c-0.2057,1.4863-0.5056,4.9419-0.5056,4.9419
				c-0.3086,2.2139-0.4146,4.2178,0.0168,6.6387c0.4316,2.4209,1.7697,4.812,3.9839,5.8813
				c0.4623,0.2236,0.9656,0.3931,1.3396,0.7451c0.374,0.3511,0.572,0.9658,0.2725,1.3823
				c-0.2896,0.4028-3.8147,0.3994-5.0586,0.2061c-2.0849-0.3239-0.5508-1.0615-2.6603-1.1084
				c-0.7994-0.0181-1.7318-0.1064-2.161-0.7817c-0.6271-0.9863-0.2048-2.4385,0.0796-3.5723
				c0.1592-0.6343,0.0616-1.2983,0.0264-1.9512c-0.1902-3.5181-0.3411-5.791-0.6565-9.0552
				c-0.1267-0.9497-0.1978-1.8999-0.3801-2.8496c-0.2732-1.4224-0.7462-2.8638-0.6525-4.3091
				c0.1686-2.6011,0.4059-4.6416-0.0001-7.2163c-0.1606-1.0186-0.5082-6.2969-0.665-7.3159
				c-0.4434-2.8823-0.6204-5.083-1.0826-9.7549c-0.063-0.6367-0.5233-1.2192-0.745-0.1104
				c-0.4536,2.2676-1.0833,10.3647-1.4978,13.5229c-0.4026,3.0679-1.4617,6.2368-1.1084,9.311
				c0.2386,2.0781,0.103,4.9033-0.1108,6.9834c-0.4385,4.2642-0.6052,6.6641-0.8269,10.7656
				c-0.0354,0.6528-0.1328,1.3169,0.0264,1.9512c0.2844,1.1338,0.7065,2.5859,0.0796,3.5723
				c-0.4292,0.6753-1.3616,0.7637-2.1611,0.7817c-2.1095,0.0474-0.5508,1.061-2.6603,1.1084
				c-0.4962,0.0112-4.7689,0.1968-5.0586-0.2061c-0.2996-0.4165-0.1014-1.0312,0.2725-1.3823
				c0.3741-0.3521,0.8773-0.5215,1.3397-0.7451c2.2141-1.0693,3.5522-3.4604,3.9839-5.8813
				c0.4314-2.4209,0.3253-4.4248,0.0167-6.6387c-0.2861-2.0532-0.9916-7.0171-0.9977-9.0894
				c-0.021-7.2256,0.178-10.8013-0.6495-17.979c-0.298-2.5845-0.3688-5.5908-0.1263-8.1812
				c0.3059-3.2681,0.2297-4.7642,0.8867-7.981c0.835-4.0879,1.0419-13.769,0.5496-16.6025
				c-0.1646-0.3125-0.2892-1.2422-0.3832-1.5209c-0.0282-0.0837-0.198,0.293-0.2771,0.3325
				c-0.2185,0.1089-0.4751-0.0659-0.6179-0.2642c-0.1428-0.1978-0.1026-0.678-0.8231-0.7335
				c-0.3624,0.1895-0.2569,1.0275-0.6651,1.053c-0.8868,0.0554-0.9422-0.8313-0.9422-0.8313l-0.7759,0.1663
				c0,0-0.085,0.8594-0.5542,0.8868c-0.4474,0.0261-0.7759-0.8313-0.7759-0.8313l-0.7759,0.2217c0,0-0.675,1.1576-1.0006,0.8998
				c-0.4755-0.4561,0.3792-1.7964,0.4464-2.4516c0.0321-0.3127-2.8878-1.6187-2.6434-3.1548
				c0.1538-0.9658,1.8309-1.7706,2.6989-2.2213c1.2848-0.6675,3.1391-1.6804,4.4339-2.3278
				c2.4386-1.2193,5.5077-1.0367,6.0966-0.9976c0.5569-0.1001,2.1061-0.6651,2.1061-0.6651s0.1438-0.0517,0.1109-0.1874
				c-0.3287-1.3481-1.8372-2.5444-2.2986-3.853c-0.8372-2.3735-0.8406-5.1572,0.5289-7.2686
				c1.3695-2.1108,4.3038-3.252,6.5609-2.1392c1.2648,0.624,2.1685,1.8428,2.6355,3.1733c0.4669,1.3311,0.5352,2.7705,0.455,4.1782
				c-0.1249,2.1885-0.6483,4.4561-2.0917,6.1055c-0.1228,0.1401-0.2537,0.2788-0.3302,0.4487
				c-0.183,0.4067,0.8647,0.5075,1.3018,0.5954c0.4434,0.0892,1.9953-0.1109,3.4363,0c2.5516,0.1963,4.1828,1.1113,6.0966,2.8266
				C201.2379,179.3512,203.6897,180.7906,203.5235,181.5665z M195.2099,182.1762l-0.1108,1.7736c0,0,0.3325-0.9976,1.1085-1.2193
				c0.7759-0.2217,1.2193-0.6651,1.2193-0.6651L195.2099,182.1762z M175.0358,182.5087c0,0,1.9952,0.6096,2.5495,0.9422
				l-0.4434-1.2193L175.0358,182.5087z"/>
			<path style="fill:#EB3E85;" d="M236.5282,190.462c0.1378-0.6359-0.191-1.9329-0.5665-2.4642
				c-0.9878-1.3965-1.6505-3.0228-2.4818-4.4361c-1.0316-1.7537-1.99-3.962-3.7134-5.0435
				c-1.1101-0.6968-2.1525-0.828-3.4542-0.9799c-0.4602-0.0537-3.2595-0.3639-3.2243-0.5166
				c0.1663-0.7205,0.556-1.8066,0.6651-2.8266c0.1545-1.4463,0.1286-3.3995-0.429-4.7433
				c-0.6685-1.6108-2.3298-2.7148-4.0669-2.8687c-1.7373-0.1538-4.8259,0.5096-5.7623,3.311
				c-0.8819,2.6382,0.0174,5.3216,0.67,7.4046c-1.9397,0.437-3.1064,0.7727-4.9881,0.8868
				c-0.9145,0.0554-2.6049,0.6097-3.264,1.5792c-1.9984,2.9396-3.8555,6.0254-4.9724,9.3999
				c-0.1523,0.4604-0.2908,0.9404-0.2468,1.4238c0.04,0.4385,0.2739,0.8297,0.4113,1.2476
				c0.3682,1.1199,0.7813,2.7476,1.4489,4.1959c0.3195,0.6929,0.7205,1.4687,0.9145,2.2169c0.1555,0.5997,0.4988,1.441,0.388,1.7458
				c-0.3433,0.944-0.2394,2.0998-0.2494,3.1037c-0.0094,0.9414,0.0874,1.1118,0.0554,1.8844
				c-0.0032,0.0774,0.0393,0.1543,0.0936,0.2095c0.1223,0.1245,0.3492,0.0659,0.4569-0.0713
				c0.1079-0.1372,0.1292-0.3213,0.1465-0.4951c0.0393-0.396,0.0672-0.3837,0.1066-0.7793c0.0128-0.1279,0.1206-0.5596,0.194-0.6651
				c0.0732-0.106,0.1361-0.0242,0.1386,0.582c0.0034,0.562,0.0796,0.9898,0.0831,1.5518c0.0007,0.1445,0.0198,0.5251,0.1109,0.6374
				c0.1516,0.187,0.4602,0.2666,0.5676,0.0508c0.1006-0.2017,0.1211-0.4321,0.1401-0.6567c0.0244-0.2925,0.0491-0.5845,0.0737-0.877
				c0.0088-0.1055,0.0307-1.4066,0.1053-1.4823c0.0746-0.0752,0.3196,0.7886,0.3603,0.8868c0.1477,0.3574,0.388,0.997,0.5265,1.3579
				c0.1387,0.3604,0.3595,0.7562,0.7069,0.5872c0.3489-0.1704,0.2777-0.4417,0.1521-0.8089
				c-0.0641-0.1875-0.3797-1.1601-0.388-1.3579s-0.3516-1.0664-0.1663-1.1362c0.1257,0.2979,1.1475,1.9299,1.2732,2.2278
				c0.114,0.2705,0.3303,0.5947,0.6134,0.5171c0.1587-0.0439,0.2574-0.2119,0.2723-0.3755c0.015-0.1641-0.0364-0.3262-0.0869-0.4829
				c-0.0886-0.2734-0.7327-1.6196-0.821-1.8936c0.3054,0.0708,0.6057,0.8384,1.4719,0.8232
				c-0.021,0.1147-0.0408,0.2402-0.0626,0.3477c-0.657,3.2168-0.5808,4.7129-0.8867,7.981
				c-0.2424,2.5903-0.1716,5.5967,0.1263,8.1812c0.8275,7.1777,0.6285,10.7534,0.6495,17.979
				c0.0061,2.0723,0.7115,7.0361,0.9977,9.0894c0.3086,2.2139,0.4147,4.2178-0.0167,6.6387
				c-0.4316,2.4209-1.7698,4.812-3.9839,5.8813c-0.4624,0.2236-0.9656,0.3931-1.3397,0.7451
				c-0.3739,0.3511-0.572,0.9658-0.2725,1.3823c0.2897,0.4028,4.5624,0.2173,5.0586,0.2061
				c2.1095-0.0474,0.5508-1.061,2.6603-1.1084c0.7996-0.0181,1.7319-0.1064,2.1611-0.7817c0.627-0.9863,0.2048-2.4385-0.0796-3.5723
				c-0.1592-0.6343-0.0618-1.2983-0.0264-1.9512c0.2217-4.1016,0.3884-6.5015,0.8269-10.7656
				c0.2139-2.0801,0.3495-4.9053,0.1108-6.9834c-0.3533-3.0742,0.7058-6.2432,1.1084-9.311
				c0.4146-3.1582,1.0443-11.2554,1.4979-13.5229c0.2217-1.1089,0.6819-0.5264,0.7449,0.1104
				c0.4622,4.6719,0.6394,6.8726,1.0828,9.7549c0.1567,1.019,0.5044,6.2974,0.665,7.3159c0.4058,2.5747,0.1685,4.6152,0,7.2163
				c-0.0938,1.4453,0.3794,2.8867,0.6523,4.3091c0.1826,0.9497,0.2534,1.8999,0.3804,2.8496
				c0.3154,3.2642,0.4663,5.5371,0.6562,9.0552c0.0354,0.6528,0.1328,1.3169-0.0264,1.9512
				c-0.2842,1.1338-0.7065,2.5859-0.0796,3.5723c0.4292,0.6753,1.3618,0.7637,2.1611,0.7817
				c2.1094,0.0469,0.5754,0.7847,2.6602,1.1084c1.2441,0.1934,4.769,0.1968,5.0586-0.2061
				c0.2998-0.4165,0.1016-1.0312-0.2725-1.3823c-0.374-0.3521-0.8772-0.5215-1.3394-0.7451
				c-2.2144-1.0693-3.5522-3.4604-3.9839-5.8813s-0.3257-4.4248-0.0171-6.6387c0,0,0.3-3.4556,0.5059-4.9419
				c0.8157-5.8916-0.4131-11.7324,0.6274-17.5884c0.5664-3.189,0.7373-9.5039,0.665-12.1934
				c-0.084-3.1333-0.4671-6.3347-0.7483-8.8122c0.2505-0.0874,0.7154-0.056,0.9422-0.194c0.6374-0.388,1.196-1.0866,1.2543-1.0539
				c0.0569,0.0322-0.5689,0.8608-0.7832,1.3033c-0.1456,0.3006-0.5095,0.8554-0.6875,1.1376
				c-0.1782,0.2822-0.2517,0.7217,0.0325,0.897c0.2778,0.1714,0.6274-0.2755,0.8213-0.5382
				c0.1941-0.2627,1.1085-1.6904,1.441-2.1338c0.0335-0.0446-0.0686,0.446-0.2771,1.1639c-0.0874,0.301-0.3821,1.4041-0.4183,1.7156
				s0.1267,0.6963,0.4397,0.7134c0.3152,0.0171,0.4405-0.7971,0.5328-1.0988c0.1191-0.3892,0.6651-1.829,0.8591-2.1061
				c-0.0277,0.194-0.1526,1.7318-0.1477,2.0018c0.0044,0.27-0.072,0.5425-0.0217,0.8076c0.0505,0.2651,0.3083,0.5259,0.5635,0.4365
				c0.3169-0.1104,0.3161-1.3375,0.3819-1.6664c0.1386-0.6928,0.1137-1.5397,0.2722-1.8371
				c0.1245,0.2251,0.2243,1.5591,0.2821,1.8093c0.0831,0.3603,0.0545,0.5516,0.1109,0.7205
				c0.1108,0.1663,0.3537,0.225,0.4601,0.1005c0.1067-0.124,0.1202-0.6849,0.1218-0.8487c0.0165-1.648,0.2494-3.3808,0.0831-4.4062
				c-0.1058-0.6523-0.0277-0.8591,0.0831-1.2193c0.2396-0.7788,0.5003-1.9031,0.7205-2.688
				C235.4197,194.1476,236.061,192.618,236.5282,190.462z M209.8949,202.7463c-0.0701-0.1318-0.4966-0.5069-0.8568-1.0334
				c-0.4362-0.8797-0.4711-1.0808-1.3342-2.3953c-0.2007-0.3057-0.606-0.4214-0.835-0.7065
				c-0.4561-0.5674-0.5796-1.3704-0.7405-2.0802c-0.4271-1.8831-0.7482-3.8519-1.1916-5.958
				c0.7922-0.9087,1.4062-1.6273,2.1984-2.536c0.3373-0.3867,1.3487-1.6762,1.5704-1.6208c0.3757,0.0939,0.7265,1.2825,0.8868,1.635
				c0.3215,0.7065,0.3981,1.3842,0.5864,2.232c0.1102,0.4962,0.1801,1.001,0.1982,1.5089
				C210.5105,195.5435,210.3443,199.8573,209.8949,202.7463z M231.9003,191.903c-0.6782,2.2051-0.6928,6.0966-1.1639,6.54
				c-1.2354,1.1628-1.0753,2.0346-2.1615,3.27c-0.0894,0.1016-0.908,0.7769-0.9976,0.8868c-0.3701-3.104-0.6124-5.7479-0.554-7.6761
				c0.019-0.6294,0.0762-3.1816,0.2285-5.7983c0.0098-0.0273,0.2041-2.5986,0.2461-2.7129c0.064-0.1743,0.0972-0.1366,0.2734-0.0794
				c0.1765,0.0571,0.7885,0.5566,0.9145,0.6928c1.1125,1.2026,1.6863,1.762,2.7989,2.9651
				c0.0947,0.1021,0.6707,0.7015,0.7205,0.8314C232.2925,191.0512,231.9726,191.6686,231.9003,191.903z"/>
			<path style="fill:#E67528;" d="M301.0411,190.462c0.1378-0.6359-0.191-1.9329-0.5665-2.4642
				c-0.9878-1.3965-1.6505-3.0228-2.4818-4.4361c-1.0316-1.7537-1.99-3.962-3.7134-5.0435
				c-1.1101-0.6968-2.1525-0.828-3.4542-0.9799c-0.4602-0.0537-3.2595-0.3639-3.2243-0.5166
				c0.1663-0.7205,0.5559-1.8066,0.6651-2.8266c0.1545-1.4463,0.1286-3.3995-0.429-4.7433
				c-0.6685-1.6108-2.3298-2.7148-4.0669-2.8687c-1.7373-0.1538-4.8259,0.5096-5.7623,3.311
				c-0.8818,2.6382,0.0174,5.3216,0.67,7.4046c-1.9397,0.437-3.1064,0.7727-4.9881,0.8868
				c-0.9145,0.0554-2.6049,0.6097-3.264,1.5792c-1.9984,2.9396-3.8555,6.0254-4.9724,9.3999
				c-0.1523,0.4604-0.2908,0.9404-0.2468,1.4238c0.04,0.4385,0.2739,0.8297,0.4113,1.2476
				c0.3682,1.1199,0.7813,2.7476,1.4489,4.1959c0.3195,0.6929,0.7205,1.4687,0.9145,2.2169c0.1555,0.5997,0.4988,1.441,0.388,1.7458
				c-0.3433,0.944-0.2394,2.0998-0.2494,3.1037c-0.0094,0.9414,0.0873,1.1118,0.0554,1.8844
				c-0.0032,0.0774,0.0393,0.1543,0.0936,0.2095c0.1223,0.1245,0.3492,0.0659,0.4569-0.0713
				c0.1079-0.1372,0.1292-0.3213,0.1465-0.4951c0.0393-0.396,0.0672-0.3837,0.1066-0.7793c0.0128-0.1279,0.1206-0.5596,0.194-0.6651
				c0.0732-0.106,0.1361-0.0242,0.1385,0.582c0.0034,0.562,0.0796,0.9898,0.0831,1.5518c0.0007,0.1445,0.0198,0.5251,0.1109,0.6374
				c0.1516,0.187,0.4602,0.2666,0.5676,0.0508c0.1006-0.2017,0.1211-0.4321,0.1401-0.6567c0.0244-0.2925,0.0491-0.5845,0.0737-0.877
				c0.0088-0.1055,0.0307-1.4066,0.1053-1.4823c0.0746-0.0752,0.3196,0.7886,0.3603,0.8868c0.1477,0.3574,0.388,0.997,0.5265,1.3579
				c0.1387,0.3604,0.3595,0.7562,0.7069,0.5872c0.3489-0.1704,0.2777-0.4417,0.1521-0.8089
				c-0.0641-0.1875-0.3797-1.1601-0.388-1.3579s-0.3516-1.0664-0.1663-1.1362c0.1257,0.2979,1.1475,1.9299,1.2732,2.2278
				c0.114,0.2705,0.3303,0.5947,0.6134,0.5171c0.1587-0.0439,0.2574-0.2119,0.2723-0.3755c0.015-0.1641-0.0364-0.3262-0.0869-0.4829
				c-0.0886-0.2734-0.7327-1.6196-0.821-1.8936c0.3054,0.0708,0.6057,0.8384,1.4719,0.8232
				c-0.021,0.1147-0.0408,0.2402-0.0626,0.3477c-0.657,3.2168-0.5808,4.7129-0.8867,7.981
				c-0.2424,2.5903-0.1716,5.5967,0.1263,8.1812c0.8275,7.1777,0.6285,10.7534,0.6495,17.979
				c0.0061,2.0723,0.7115,7.0361,0.9977,9.0894c0.3086,2.2139,0.4147,4.2178-0.0167,6.6387
				c-0.4316,2.4209-1.7698,4.812-3.9839,5.8813c-0.4624,0.2236-0.9656,0.3931-1.3397,0.7451
				c-0.3739,0.3511-0.572,0.9658-0.2725,1.3823c0.2897,0.4028,4.5624,0.2173,5.0586,0.2061
				c2.1095-0.0474,0.5508-1.061,2.6603-1.1084c0.7996-0.0181,1.7319-0.1064,2.1611-0.7817c0.627-0.9863,0.2048-2.4385-0.0796-3.5723
				c-0.1592-0.6343-0.0618-1.2983-0.0264-1.9512c0.2217-4.1016,0.3884-6.5015,0.8269-10.7656
				c0.2139-2.0801,0.3495-4.9053,0.1108-6.9834c-0.3533-3.0742,0.7058-6.2432,1.1084-9.311
				c0.4146-3.1582,1.0443-11.2554,1.4979-13.5229c0.2217-1.1089,0.6819-0.5264,0.7449,0.1104
				c0.4622,4.6719,0.6394,6.8726,1.0828,9.7549c0.1567,1.019,0.5044,6.2974,0.665,7.3159c0.4058,2.5747,0.1685,4.6152,0,7.2163
				c-0.0938,1.4453,0.3794,2.8867,0.6523,4.3091c0.1826,0.9497,0.2534,1.8999,0.3804,2.8496
				c0.3154,3.2642,0.4663,5.5371,0.6562,9.0552c0.0354,0.6528,0.1328,1.3169-0.0264,1.9512
				c-0.2842,1.1338-0.7065,2.5859-0.0796,3.5723c0.4292,0.6753,1.3618,0.7637,2.1611,0.7817
				c2.1094,0.0469,0.5754,0.7847,2.6602,1.1084c1.2441,0.1934,4.769,0.1968,5.0586-0.2061
				c0.2998-0.4165,0.1016-1.0312-0.2725-1.3823c-0.374-0.3521-0.8772-0.5215-1.3394-0.7451
				c-2.2144-1.0693-3.5522-3.4604-3.9839-5.8813s-0.3257-4.4248-0.0171-6.6387c0,0,0.3-3.4556,0.5059-4.9419
				c0.8157-5.8916-0.4131-11.7324,0.6274-17.5884c0.5664-3.189,0.7373-9.5039,0.665-12.1934
				c-0.084-3.1333-0.467-6.3347-0.7483-8.8122c0.2505-0.0874,0.7154-0.056,0.9422-0.194c0.6374-0.388,1.196-1.0866,1.2543-1.0539
				c0.0569,0.0322-0.5689,0.8608-0.7832,1.3033c-0.1456,0.3006-0.5095,0.8554-0.6875,1.1376
				c-0.1782,0.2822-0.2517,0.7217,0.0325,0.897c0.2778,0.1714,0.6274-0.2755,0.8213-0.5382
				c0.1941-0.2627,1.1085-1.6904,1.441-2.1338c0.0335-0.0446-0.0686,0.446-0.2771,1.1639c-0.0874,0.301-0.3821,1.4041-0.4183,1.7156
				s0.1267,0.6963,0.4397,0.7134c0.3152,0.0171,0.4405-0.7971,0.5328-1.0988c0.1191-0.3892,0.6651-1.829,0.8591-2.1061
				c-0.0277,0.194-0.1526,1.7318-0.1477,2.0018c0.0044,0.27-0.072,0.5425-0.0217,0.8076c0.0505,0.2651,0.3083,0.5259,0.5635,0.4365
				c0.3169-0.1104,0.3161-1.3375,0.3819-1.6664c0.1385-0.6928,0.1137-1.5397,0.2722-1.8371
				c0.1245,0.2251,0.2243,1.5591,0.2821,1.8093c0.0832,0.3603,0.0545,0.5516,0.1109,0.7205
				c0.1108,0.1663,0.3536,0.225,0.4601,0.1005c0.1067-0.124,0.1202-0.6849,0.1219-0.8487c0.0165-1.648,0.2494-3.3808,0.0831-4.4062
				c-0.1058-0.6523-0.0277-0.8591,0.0831-1.2193c0.2396-0.7788,0.5003-1.9031,0.7205-2.688
				C299.9326,194.1476,300.574,192.618,301.0411,190.462z M274.4079,202.7463c-0.0701-0.1318-0.4966-0.5069-0.8568-1.0334
				c-0.4362-0.8797-0.4711-1.0808-1.3342-2.3953c-0.2007-0.3057-0.606-0.4214-0.835-0.7065
				c-0.4561-0.5674-0.5796-1.3704-0.7405-2.0802c-0.4271-1.8831-0.7482-3.8519-1.1916-5.958
				c0.7922-0.9087,1.4062-1.6273,2.1984-2.536c0.3373-0.3867,1.3487-1.6762,1.5704-1.6208c0.3757,0.0939,0.7265,1.2825,0.8868,1.635
				c0.3215,0.7065,0.3982,1.3842,0.5864,2.232c0.1102,0.4962,0.1801,1.001,0.1982,1.5089
				C275.0235,195.5435,274.8573,199.8573,274.4079,202.7463z M296.4133,191.903c-0.6782,2.2051-0.6928,6.0966-1.1639,6.54
				c-1.2354,1.1628-1.0753,2.0346-2.1615,3.27c-0.0894,0.1016-0.9081,0.7769-0.9977,0.8868
				c-0.3701-3.104-0.6124-5.7479-0.554-7.6761c0.019-0.6294,0.0762-3.1816,0.2285-5.7983c0.0098-0.0273,0.2041-2.5986,0.2461-2.7129
				c0.064-0.1743,0.0972-0.1366,0.2734-0.0794c0.1765,0.0571,0.7885,0.5566,0.9145,0.6928c1.1125,1.2026,1.6863,1.762,2.7989,2.9651
				c0.0947,0.1021,0.6707,0.7015,0.7205,0.8314C296.8055,191.0512,296.4855,191.6686,296.4133,191.903z"/>
			<path style="fill:#EEEA6E;" d="M557.3194,190.462c0.1378-0.6359-0.191-1.9329-0.5665-2.4642
				c-0.9878-1.3965-1.6505-3.0228-2.4818-4.4361c-1.0316-1.7537-1.99-3.962-3.7134-5.0435
				c-1.1101-0.6968-2.1525-0.828-3.4542-0.9799c-0.4602-0.0537-3.2595-0.3639-3.2243-0.5166
				c0.1663-0.7205,0.556-1.8066,0.6651-2.8266c0.1545-1.4463,0.1285-3.3995-0.4291-4.7433
				c-0.6685-1.6108-2.3298-2.7148-4.0669-2.8687c-1.7373-0.1538-4.8259,0.5096-5.7623,3.311
				c-0.8818,2.6382,0.0175,5.3216,0.67,7.4046c-1.9397,0.437-3.1064,0.7727-4.9882,0.8868
				c-0.9145,0.0554-2.6049,0.6097-3.264,1.5792c-1.9984,2.9396-3.8555,6.0254-4.9724,9.3999
				c-0.1523,0.4604-0.2908,0.9404-0.2468,1.4238c0.04,0.4385,0.2739,0.8297,0.4113,1.2476
				c0.3682,1.1199,0.7813,2.7476,1.4489,4.1959c0.3195,0.6929,0.7205,1.4687,0.9145,2.2169c0.1555,0.5997,0.4988,1.441,0.388,1.7458
				c-0.3433,0.944-0.2394,2.0998-0.2495,3.1037c-0.0094,0.9414,0.0874,1.1118,0.0554,1.8844
				c-0.0032,0.0774,0.0393,0.1543,0.0936,0.2095c0.1223,0.1245,0.3492,0.0659,0.4569-0.0713
				c0.1079-0.1372,0.1292-0.3213,0.1465-0.4951c0.0393-0.396,0.0672-0.3837,0.1066-0.7793c0.0128-0.1279,0.1206-0.5596,0.194-0.6651
				c0.0732-0.106,0.1361-0.0242,0.1386,0.582c0.0034,0.562,0.0796,0.9898,0.0831,1.5518c0.0007,0.1445,0.0198,0.5251,0.1108,0.6374
				c0.1516,0.187,0.4602,0.2666,0.5676,0.0508c0.1006-0.2017,0.1211-0.4321,0.1401-0.6567c0.0244-0.2925,0.0491-0.5845,0.0737-0.877
				c0.0088-0.1055,0.0307-1.4066,0.1053-1.4823c0.0746-0.0752,0.3196,0.7886,0.3602,0.8868c0.1477,0.3574,0.388,0.997,0.5266,1.3579
				c0.1387,0.3604,0.3595,0.7562,0.7069,0.5872c0.3489-0.1704,0.2778-0.4417,0.1522-0.8089
				c-0.0641-0.1875-0.3797-1.1601-0.388-1.3579s-0.3516-1.0664-0.1663-1.1362c0.1257,0.2979,1.1475,1.9299,1.2732,2.2278
				c0.114,0.2705,0.3303,0.5947,0.6134,0.5171c0.1587-0.0439,0.2574-0.2119,0.2723-0.3755c0.015-0.1641-0.0364-0.3262-0.0869-0.4829
				c-0.0886-0.2734-0.7327-1.6196-0.821-1.8936c0.3054,0.0708,0.6057,0.8384,1.4719,0.8232
				c-0.021,0.1147-0.0408,0.2402-0.0626,0.3477c-0.657,3.2168-0.5808,4.7129-0.8867,7.981
				c-0.2424,2.5903-0.1716,5.5967,0.1263,8.1812c0.8275,7.1777,0.6285,10.7534,0.6495,17.979
				c0.0061,2.0723,0.7115,7.0361,0.9977,9.0894c0.3086,2.2139,0.4147,4.2178-0.0167,6.6387
				c-0.4316,2.4209-1.7698,4.812-3.9839,5.8813c-0.4624,0.2236-0.9656,0.3931-1.3397,0.7451
				c-0.3739,0.3511-0.572,0.9658-0.2725,1.3823c0.2897,0.4028,4.5624,0.2173,5.0586,0.2061
				c2.1095-0.0474,0.5508-1.061,2.6603-1.1084c0.7996-0.0181,1.7319-0.1064,2.1611-0.7817c0.627-0.9863,0.2048-2.4385-0.0796-3.5723
				c-0.1592-0.6343-0.0618-1.2983-0.0264-1.9512c0.2217-4.1016,0.3884-6.5015,0.8269-10.7656
				c0.2139-2.0801,0.3495-4.9053,0.1108-6.9834c-0.3533-3.0742,0.7058-6.2432,1.1084-9.311
				c0.4146-3.1582,1.0443-11.2554,1.4979-13.5229c0.2217-1.1089,0.6819-0.5264,0.7449,0.1104
				c0.4622,4.6719,0.6394,6.8726,1.0828,9.7549c0.1567,1.019,0.5044,6.2974,0.665,7.3159c0.4058,2.5747,0.1685,4.6152,0,7.2163
				c-0.0938,1.4453,0.3794,2.8867,0.6523,4.3091c0.1826,0.9497,0.2534,1.8999,0.3804,2.8496
				c0.3154,3.2642,0.4663,5.5371,0.6562,9.0552c0.0354,0.6528,0.1328,1.3169-0.0264,1.9512
				c-0.2842,1.1338-0.7065,2.5859-0.0796,3.5723c0.4292,0.6753,1.3618,0.7637,2.1611,0.7817
				c2.1094,0.0469,0.5754,0.7847,2.6602,1.1084c1.2441,0.1934,4.769,0.1968,5.0586-0.2061
				c0.2998-0.4165,0.1016-1.0312-0.2725-1.3823c-0.374-0.3521-0.8772-0.5215-1.3394-0.7451
				c-2.2144-1.0693-3.5522-3.4604-3.9839-5.8813s-0.3257-4.4248-0.0171-6.6387c0,0,0.3-3.4556,0.5059-4.9419
				c0.8157-5.8916-0.4131-11.7324,0.6274-17.5884c0.5664-3.189,0.7373-9.5039,0.665-12.1934
				c-0.084-3.1333-0.467-6.3347-0.7483-8.8122c0.2505-0.0874,0.7155-0.056,0.9422-0.194c0.6374-0.388,1.196-1.0866,1.2543-1.0539
				c0.0569,0.0322-0.5689,0.8608-0.7833,1.3033c-0.1456,0.3006-0.5095,0.8554-0.6874,1.1376
				c-0.1782,0.2822-0.2517,0.7217,0.0325,0.897c0.2778,0.1714,0.6274-0.2755,0.8213-0.5382
				c0.1941-0.2627,1.1085-1.6904,1.441-2.1338c0.0335-0.0446-0.0686,0.446-0.2771,1.1639c-0.0875,0.301-0.3821,1.4041-0.4183,1.7156
				s0.1267,0.6963,0.4397,0.7134c0.3152,0.0171,0.4405-0.7971,0.5328-1.0988c0.1191-0.3892,0.6651-1.829,0.8591-2.1061
				c-0.0277,0.194-0.1526,1.7318-0.1477,2.0018c0.0044,0.27-0.072,0.5425-0.0217,0.8076c0.0505,0.2651,0.3083,0.5259,0.5635,0.4365
				c0.3169-0.1104,0.3162-1.3375,0.3819-1.6664c0.1385-0.6928,0.1137-1.5397,0.2722-1.8371
				c0.1245,0.2251,0.2244,1.5591,0.2821,1.8093c0.0831,0.3603,0.0544,0.5516,0.1108,0.7205
				c0.1108,0.1663,0.3536,0.225,0.4601,0.1005c0.1067-0.124,0.1202-0.6849,0.1218-0.8487c0.0165-1.648,0.2495-3.3808,0.0832-4.4062
				c-0.1058-0.6523-0.0278-0.8591,0.0831-1.2193c0.2396-0.7788,0.5003-1.9031,0.7205-2.688
				C556.2109,194.1476,556.8523,192.618,557.3194,190.462z M530.6862,202.7463c-0.0701-0.1318-0.4966-0.5069-0.8568-1.0334
				c-0.4362-0.8797-0.4711-1.0808-1.3342-2.3953c-0.2007-0.3057-0.606-0.4214-0.835-0.7065
				c-0.4561-0.5674-0.5795-1.3704-0.7405-2.0802c-0.4271-1.8831-0.7482-3.8519-1.1916-5.958
				c0.7922-0.9087,1.4061-1.6273,2.1984-2.536c0.3373-0.3867,1.3488-1.6762,1.5704-1.6208c0.3756,0.0939,0.7265,1.2825,0.8868,1.635
				c0.3215,0.7065,0.3981,1.3842,0.5864,2.232c0.1102,0.4962,0.1801,1.001,0.1982,1.5089
				C531.3018,195.5435,531.1356,199.8573,530.6862,202.7463z M552.6915,191.903c-0.6782,2.2051-0.6927,6.0966-1.1639,6.54
				c-1.2354,1.1628-1.0753,2.0346-2.1615,3.27c-0.0894,0.1016-0.908,0.7769-0.9976,0.8868
				c-0.3701-3.104-0.6124-5.7479-0.5541-7.6761c0.019-0.6294,0.0762-3.1816,0.2285-5.7983
				c0.0098-0.0273,0.2041-2.5986,0.2461-2.7129c0.064-0.1743,0.0972-0.1366,0.2734-0.0794
				c0.1765,0.0571,0.7885,0.5566,0.9145,0.6928c1.1125,1.2026,1.6863,1.762,2.7989,2.9651
				c0.0947,0.1021,0.6707,0.7015,0.7205,0.8314C553.0838,191.0512,552.7638,191.6686,552.6915,191.903z"/>
			<path style="fill:#EEEA6E;" d="M332.5494,181.5665c-0.1371,0.6398-0.5666,1.281-0.9976,1.7735
				c-0.388,0.4434-0.4668,0.5605-0.4988,0.7205c-0.0554,0.2771,0.7205,1.6073,0.3977,2.0305
				c-0.2189,0.287-0.5012,0.0761-0.7856-0.1461s-0.2996-0.3895-0.4434-0.7205c-0.0331,0.113-0.6096,0-0.6096,0
				s-0.0094,0.7667-0.6096,0.8868c-0.2771,0.0554-0.584-0.8424-0.584-0.8424l-0.5799-0.0998c0,0-0.0554,0.9976-0.4434,0.9976
				c-0.7205,0-0.7406-0.6566-0.9294-0.9457c-0.2345-0.1628-0.7888-0.0519-0.7888-0.0519s-0.6097,1.053-1.1468,1.4933
				c-0.0652,0.7354-0.1201,1.5146-0.1665,2.2939c0.0032,0.0845,0,0.1416-0.0099,0.1689c-0.1522,2.6167-0.2096,5.1689-0.2286,5.7983
				c-0.1108,3.6577,1.231,9.4658,1.4409,17.292c0.0723,2.6895-0.0986,9.0044-0.665,12.1934
				c-1.0403,5.856,0.1884,11.6968-0.6274,17.5884c-0.2057,1.4863-0.5056,4.9419-0.5056,4.9419
				c-0.3086,2.2139-0.4146,4.2178,0.0168,6.6387c0.4316,2.4209,1.7697,4.812,3.9839,5.8813
				c0.4623,0.2236,0.9656,0.3931,1.3396,0.7451c0.374,0.3511,0.572,0.9658,0.2725,1.3823
				c-0.2896,0.4028-3.8147,0.3994-5.0586,0.2061c-2.0849-0.3239-0.5508-1.0615-2.6603-1.1084
				c-0.7994-0.0181-1.7318-0.1064-2.161-0.7817c-0.6271-0.9863-0.2048-2.4385,0.0796-3.5723
				c0.1592-0.6343,0.0616-1.2983,0.0264-1.9512c-0.1902-3.5181-0.3411-5.791-0.6565-9.0552
				c-0.1267-0.9497-0.1978-1.8999-0.3801-2.8496c-0.2732-1.4224-0.7462-2.8638-0.6525-4.3091
				c0.1686-2.6011,0.4059-4.6416-0.0001-7.2163c-0.1606-1.0186-0.5082-6.2969-0.665-7.3159
				c-0.4434-2.8823-0.6204-5.083-1.0826-9.7549c-0.063-0.6367-0.5233-1.2192-0.745-0.1104
				c-0.4536,2.2676-1.0833,10.3647-1.4978,13.5229c-0.4026,3.0679-1.4617,6.2368-1.1084,9.311
				c0.2386,2.0781,0.103,4.9033-0.1108,6.9834c-0.4385,4.2642-0.6052,6.6641-0.8269,10.7656
				c-0.0354,0.6528-0.1328,1.3169,0.0264,1.9512c0.2844,1.1338,0.7065,2.5859,0.0796,3.5723
				c-0.4292,0.6753-1.3616,0.7637-2.1611,0.7817c-2.1095,0.0474-0.5508,1.061-2.6603,1.1084
				c-0.4962,0.0112-4.7689,0.1968-5.0586-0.2061c-0.2996-0.4165-0.1014-1.0312,0.2725-1.3823
				c0.3741-0.3521,0.8773-0.5215,1.3397-0.7451c2.2141-1.0693,3.5522-3.4604,3.9839-5.8813
				c0.4314-2.4209,0.3253-4.4248,0.0167-6.6387c-0.2861-2.0532-0.9916-7.0171-0.9977-9.0894
				c-0.021-7.2256,0.178-10.8013-0.6495-17.979c-0.298-2.5845-0.3688-5.5908-0.1263-8.1812
				c0.3059-3.2681,0.2297-4.7642,0.8867-7.981c0.835-4.0879,1.0419-13.769,0.5496-16.6025
				c-0.1646-0.3125-0.2892-1.2422-0.3832-1.5209c-0.0282-0.0837-0.198,0.293-0.2771,0.3325
				c-0.2185,0.1089-0.4751-0.0659-0.6179-0.2642c-0.1428-0.1978-0.1026-0.678-0.8231-0.7335
				c-0.3624,0.1895-0.2568,1.0275-0.6651,1.053c-0.8868,0.0554-0.9422-0.8313-0.9422-0.8313l-0.7759,0.1663
				c0,0-0.085,0.8594-0.5542,0.8868c-0.4474,0.0261-0.7759-0.8313-0.7759-0.8313l-0.7759,0.2217c0,0-0.675,1.1576-1.0006,0.8998
				c-0.4755-0.4561,0.3792-1.7964,0.4464-2.4516c0.0321-0.3127-2.8878-1.6187-2.6434-3.1548
				c0.1538-0.9658,1.8309-1.7706,2.6989-2.2213c1.2848-0.6675,3.1391-1.6804,4.4339-2.3278
				c2.4386-1.2193,5.5077-1.0367,6.0966-0.9976c0.5569-0.1001,2.1061-0.6651,2.1061-0.6651s0.1438-0.2179,0.1109-0.3537
				c-0.3287-1.3481-1.8372-2.5444-2.2986-3.853c-0.8372-2.3735-0.8406-5.1572,0.5289-7.2686
				c1.3695-2.1108,4.3038-3.252,6.5609-2.1392c1.2648,0.624,2.1685,1.8428,2.6355,3.1733c0.4669,1.3311,0.5352,2.7705,0.455,4.1782
				c-0.1249,2.1885-0.6483,4.4561-2.0917,6.1055c-0.1228,0.1401-0.2537,0.2788-0.3302,0.4487
				c-0.183,0.4067-0.0138-0.493,0.3042-0.1805c0.0581,0.0571,1.9804,0.8433,2.2169,0.8868c0,0.1108,0.9976,0.0554,2.4386,0.1663
				c2.5516,0.1963,3.9611,1.0004,5.8749,2.7158C330.2638,179.3512,332.7157,180.7906,332.5494,181.5665z M324.2359,182.3979
				l-0.1109,1.5519c0,0,0.3326-0.9976,1.1085-1.2193c0.7759-0.2217,1.2193-0.6651,1.2193-0.6651L324.2359,182.3979z
				 M304.0617,182.5087c0,0,1.9952,0.6096,2.5495,0.9422l-0.4434-1.2193L304.0617,182.5087z"/>
			<path style="fill:#E67528;" d="M524.093,181.5665c-0.1371,0.6398-0.5667,1.281-0.9976,1.7735
				c-0.3879,0.4434-0.4668,0.5605-0.4988,0.7205c-0.0554,0.2771,0.7205,1.6073,0.3977,2.0305
				c-0.2189,0.287-0.5012,0.0761-0.7856-0.1461s-0.2996-0.3895-0.4434-0.7205c-0.0331,0.113-0.6097,0-0.6097,0
				s-0.0094,0.7667-0.6097,0.8868c-0.2771,0.0554-0.584-0.8424-0.584-0.8424l-0.5799-0.0998c0,0-0.0554,0.9976-0.4434,0.9976
				c-0.7205,0-0.7407-0.6566-0.9294-0.9457c-0.2346-0.1628-0.7888-0.0519-0.7888-0.0519s-0.6097,1.053-1.1468,1.4933
				c-0.0652,0.7354-0.1201,1.5146-0.1665,2.2939c0.0032,0.0845,0,0.1416-0.0099,0.1689c-0.1522,2.6167-0.2096,5.1689-0.2286,5.7983
				c-0.1108,3.6577,1.231,9.4658,1.4409,17.292c0.0723,2.6895-0.0986,9.0044-0.665,12.1934
				c-1.0403,5.856,0.1884,11.6968-0.6274,17.5884c-0.2057,1.4863-0.5056,4.9419-0.5056,4.9419
				c-0.3086,2.2139-0.4146,4.2178,0.0168,6.6387c0.4316,2.4209,1.7697,4.812,3.9839,5.8813
				c0.4623,0.2236,0.9656,0.3931,1.3396,0.7451c0.374,0.3511,0.572,0.9658,0.2725,1.3823
				c-0.2896,0.4028-3.8146,0.3994-5.0586,0.2061c-2.0849-0.3239-0.5508-1.0615-2.6603-1.1084
				c-0.7994-0.0181-1.7318-0.1064-2.161-0.7817c-0.6271-0.9863-0.2048-2.4385,0.0796-3.5723
				c0.1592-0.6343,0.0616-1.2983,0.0264-1.9512c-0.1902-3.5181-0.3411-5.791-0.6565-9.0552
				c-0.1267-0.9497-0.1978-1.8999-0.3801-2.8496c-0.2732-1.4224-0.7462-2.8638-0.6525-4.3091
				c0.1686-2.6011,0.4059-4.6416-0.0001-7.2163c-0.1606-1.0186-0.5082-6.2969-0.665-7.3159
				c-0.4434-2.8823-0.6204-5.083-1.0826-9.7549c-0.063-0.6367-0.5233-1.2192-0.745-0.1104
				c-0.4536,2.2676-1.0833,10.3647-1.4978,13.5229c-0.4026,3.0679-1.4617,6.2368-1.1084,9.311
				c0.2386,2.0781,0.103,4.9033-0.1108,6.9834c-0.4385,4.2642-0.6052,6.6641-0.8269,10.7656
				c-0.0354,0.6528-0.1328,1.3169,0.0264,1.9512c0.2844,1.1338,0.7065,2.5859,0.0796,3.5723
				c-0.4292,0.6753-1.3616,0.7637-2.1611,0.7817c-2.1095,0.0474-0.5508,1.061-2.6603,1.1084
				c-0.4962,0.0112-4.7689,0.1968-5.0586-0.2061c-0.2996-0.4165-0.1014-1.0312,0.2725-1.3823
				c0.3741-0.3521,0.8773-0.5215,1.3397-0.7451c2.2141-1.0693,3.5522-3.4604,3.9839-5.8813
				c0.4314-2.4209,0.3253-4.4248,0.0167-6.6387c-0.2861-2.0532-0.9916-7.0171-0.9977-9.0894
				c-0.021-7.2256,0.178-10.8013-0.6495-17.979c-0.298-2.5845-0.3688-5.5908-0.1263-8.1812
				c0.3059-3.2681,0.2297-4.7642,0.8867-7.981c0.835-4.0879,1.0419-13.769,0.5496-16.6025
				c-0.1646-0.3125-0.2892-1.2422-0.3832-1.5209c-0.0283-0.0837-0.198,0.293-0.2771,0.3325
				c-0.2185,0.1089-0.4751-0.0659-0.6179-0.2642c-0.1428-0.1978-0.1026-0.678-0.8231-0.7335
				c-0.3624,0.1895-0.2568,1.0275-0.6651,1.053c-0.8868,0.0554-0.9422-0.8313-0.9422-0.8313l-0.7759,0.1663
				c0,0-0.085,0.8594-0.5542,0.8868c-0.4474,0.0261-0.7759-0.8313-0.7759-0.8313l-0.7759,0.2217c0,0-0.675,1.1576-1.0006,0.8998
				c-0.4755-0.4561,0.3792-1.7964,0.4464-2.4516c0.0321-0.3127-2.8878-1.6187-2.6434-3.1548
				c0.1538-0.9658,1.8309-1.7706,2.6989-2.2213c1.2848-0.6675,3.1391-1.6804,4.4339-2.3278
				c2.4386-1.2193,5.5077-1.0367,6.0966-0.9976c0.5569-0.1001,2.1061-0.6651,2.1061-0.6651s0.1438-0.3076,0.1109-0.4434
				c-0.3287-1.3481-1.8371-2.1222-2.2986-3.4308c-0.8372-2.3735-0.8406-5.1572,0.5289-7.2686
				c1.3695-2.1108,4.3038-3.252,6.5609-2.1392c1.2648,0.624,2.1685,1.8428,2.6355,3.1733c0.4669,1.3311,0.5352,2.7705,0.455,4.1782
				c-0.1249,2.1885-0.6483,4.4561-2.0917,6.1055c-0.1228,0.1401-0.2537,0.2788-0.3302,0.4487
				c-0.183,0.4067-0.0138-0.8255,0.3042-0.513c0.0581,0.0571,1.9804,0.8433,2.2169,0.8868c0,0.1108,0.9976,0.0554,2.4386,0.1663
				c2.5516,0.1963,3.9611,1.0004,5.8749,2.7158C521.8074,179.3512,524.2593,180.7906,524.093,181.5665z M515.7795,182.3979
				l-0.1108,1.5519c0,0,0.3325-0.9976,1.1085-1.2193s1.2194-0.6651,1.2194-0.6651L515.7795,182.3979z M495.6053,182.5087
				c0,0,1.9952,0.6096,2.5495,0.9422l-0.4434-1.2193L495.6053,182.5087z"/>
			<path style="fill:#E73B4B;" d="M260.8172,216.6516c0.178-0.0332,0.3557-0.0664,0.5337-0.0996
				c0.0823,0.3887,0.0818,0.6421,0.0059,1.0322c-0.3032,1.5581-0.5495,2.9259-0.6916,3.6932
				c-0.1385,0.7482-0.1588,0.9849,0.3048,1.2193c0.1165-0.0073,0.4157-0.5542,0.5266-0.9976
				c0.3083-1.2335,0.4711-1.6073,0.8313-2.7989c0.1946-0.0107,0.3314-0.0477,0.526-0.0584
				c-0.106,1.3149-0.2119,2.6299-0.3179,3.9453c-0.0164,0.2056-0.0305,0.4238,0.071,0.6201
				c0.1016,0.1958,0.3645,0.3477,0.5503,0.2568c0.1409-0.0688,0.1804-0.2383,0.2061-0.3916
				c0.2405-1.4248,0.3765-2.877,0.4067-4.3433c0.1418-0.0659,0.3093-0.0894,0.4758-0.0664c0.1611,1.1938,0.3223,2.3882,0.4836,3.582
				c0.0208,0.1538,0.0774,0.3477,0.2375,0.3867c0.0654,0.0161,0.1309-0.001,0.188-0.0259c0.2729-0.1177,0.426-0.396,0.467-0.6865
				c0.0413-0.29-0.0137-0.5942-0.0681-0.8936c-0.1697-0.9268-0.2468-1.9619-0.4165-2.8892c0.541,0.1548,1.0547,1.1309,1.3315,1.5513
				c0.2744,0.4199,0.4099,0.8813,0.7354,0.7539c0.3245-0.1265,0.0698-0.8652-0.2207-1.4692c-0.292-0.603-0.6116-0.979-0.8352-1.3511
				c-0.2234-0.373-0.1455-1.1465-0.3875-2.2979c-0.1711-0.8154-0.8193-1.4829-0.9216-2.3125
				c-0.0786-0.6387,1.3722-5.8748,1.5343-6.5593c0,0,0.9976-5.5423,0.8868-6.9834c-0.1108-1.441-2.882-13.745-3.7688-15.1861
				c-0.7076-0.9793-1.7381-2.0149-2.8044-2.1155c-1.0752-0.1014-2.1607-0.2342-2.5162-0.3231
				c-1.3302-0.3326-1.8014-0.3637-2.3278-0.6651c0.1003-1.2812,0.1375-2.1104-0.1616-3.3599
				c-0.3213-1.3438-1.0256-2.6309-2.1633-3.4297c-0.229-0.1606-0.4941-0.2793-0.7612-0.3638
				c-5.8-1.8374-8.4668,2.9571-7.8877,7.0426c-1.9953,0.5542-4.4058,0.6982-6.3611,1.6611
				c-0.3557,0.1748-0.7148,0.3843-0.9783,0.6729c0,0-0.9742,1.5457-1.1959,2.9867s-2.5495,12.7474-2.5495,13.8559
				s2.4386,11.6666,2.4386,11.6666c-0.3575,0.426-0.5563,0.8486-0.7973,1.9971c-0.2422,1.1519-0.1646,1.9248-0.3877,2.2983
				c-0.2236,0.3716-0.5435,0.748-0.835,1.3506c-0.2908,0.604-0.5454,1.3433-0.2212,1.4692
				c0.3257,0.1279,0.4609-0.3335,0.7354-0.7539c0.2773-0.4204,0.791-1.3965,1.3315-1.5513
				c-0.1694,0.9272-0.2466,1.9624-0.416,2.8896c-0.0547,0.2988-0.1096,0.6035-0.0684,0.8936c0.041,0.29,0.1941,0.5684,0.4668,0.6865
				c0.0574,0.0244,0.1226,0.042,0.1882,0.0259c0.1602-0.0391,0.2168-0.2334,0.2375-0.3872c0.1611-1.1938,0.3225-2.3877,0.4836-3.582
				c0.1665-0.0225,0.334,0.0005,0.4758,0.0664c0.0303,1.4663,0.166,2.9189,0.4067,4.3438c0.0256,0.1528,0.0649,0.3228,0.2061,0.3916
				c0.1858,0.0908,0.4487-0.061,0.5503-0.2573s0.0874-0.4146,0.0708-0.6201c-0.1057-1.3149-0.2117-2.6299-0.3176-3.9448
				c0.1946,0.0103,0.1898-0.0332,0.3844-0.023c0.5027,1.2681,0.6928,2.1338,0.9976,2.9929c0.036,0.1014,0.4101,0.879,0.5265,0.8868
				c0.1621,0.0107,0.4434-0.0831,0.4157-0.3325c-0.0178-0.16-0.2059-1.2955-0.2494-1.441c-0.4502-1.5103-0.445-1.3516-0.7482-2.9097
				c0.1663-0.388-0.0763-1.209,0.161-1.1714c0.2366,0.0386,1.2571,0.7216,1.4463,1.31l0.1109-1.3302
				c-0.2327-0.6318-0.9769-2.2509-1.3302-2.6049c-0.3048-0.3325-0.7254-0.9415-0.7759-1.1085
				c-0.2202-0.7285-0.4114-2.3987-0.4434-3.1591c-0.2771-6.5954-1.2008-7.4565-0.7205-8.4798
				c1.2747-2.7157,2.882-8.3689,2.882-8.3689s1.1085,7.205,1.1085,8.6461s-0.3538,3.6159-0.2977,3.6149
				c-0.021,0.1147-0.041,0.2402-0.0625,0.3477c-0.6572,3.2168-0.5811,4.7129-0.8867,7.981
				c-0.2427,2.5903-0.1719,5.5967,0.126,8.1812c0.8276,7.1777,0.6289,10.7534,0.6499,17.979
				c0.0059,2.0723,0.7114,7.0361,0.9976,9.0894c0.3086,2.2139,0.4146,4.2178-0.0166,6.6387c-0.4316,2.4209-1.77,4.812-3.9839,5.8813
				c-0.4624,0.2236-0.9658,0.3931-1.3398,0.7451c-0.374,0.3511-0.5723,0.9658-0.2725,1.3823
				c0.2896,0.4028,4.5625,0.2173,5.0586,0.2061c2.1094-0.0474,0.5508-1.061,2.6602-1.1084
				c0.7998-0.0181,1.7319-0.1064,2.1611-0.7817c0.627-0.9863,0.2051-2.4385-0.0796-3.5723
				c-0.1592-0.6343-0.0615-1.2983-0.0264-1.9512c0.2217-4.1016,0.3887-6.5015,0.8271-10.7656
				c0.2139-2.0801,0.3491-4.9053,0.1108-6.9834c-0.3535-3.0742,0.7056-6.2432,1.1084-9.311
				c0.4146-3.1582,1.0439-11.2554,1.4976-13.5229c0.2217-1.1089,0.6821-0.5264,0.7451,0.1104
				c0.4619,4.6719,0.6392,6.8726,1.0825,9.7549c0.1567,1.019,0.5044,6.2974,0.665,7.3159c0.4058,2.5747,0.1685,4.6152,0,7.2163
				c-0.0938,1.4453,0.3794,2.8867,0.6523,4.3091c0.1826,0.9497,0.2534,1.8999,0.3804,2.8496
				c0.3154,3.2642,0.4663,5.5371,0.6562,9.0552c0.0356,0.6528,0.1328,1.3169-0.0264,1.9512
				c-0.2842,1.1338-0.7065,2.5859-0.0796,3.5723c0.4292,0.6753,1.3618,0.7637,2.1611,0.7817
				c2.1094,0.0469,0.5757,0.7847,2.6602,1.1084c1.2441,0.1934,4.769,0.1968,5.0586-0.2061
				c0.2998-0.4165,0.1016-1.0312-0.2725-1.3823c-0.374-0.3521-0.877-0.5215-1.3394-0.7451
				c-2.2144-1.0693-3.5522-3.4604-3.9839-5.8813s-0.3257-4.4248-0.0171-6.6387c0,0,0.3003-3.4556,0.5059-4.9419
				c0.8159-5.8916-0.4131-11.7324,0.6274-17.5884c0.5664-3.189,0.7373-9.5039,0.665-12.1934
				c-0.084-3.1333-0.4668-6.3345-0.748-8.812c0.0076-0.0024-0.1167-0.8306-0.1387-0.8037l0.3603-11.3064
				c0,0,2.5495,6.7617,2.5495,8.0918s-0.7759,7.5376-0.5542,10.1979c0.0925,1.1102-0.6097,3.27-0.6097,3.27
				s-2.0507,4.5447-2.0507,4.9327S260.2487,218.0947,260.8172,216.6516z"/>
		</g>
		<g>
			<path style="stroke:#000000;stroke-width:0.7408;stroke-miterlimit:10;" d="M93.968,253.7771
				c0.1438-0.0049,3.3707,0.4589,3.7305,0"/>
			<path style="stroke:#000000;stroke-width:0.4;stroke-linejoin:round;stroke-miterlimit:10;" d="M82.0962,253.9427
				c0.1438-0.0049,3.1338,0.2143,3.7766,0"/>
			<path style="fill:#F4C6A1;stroke:#000000;stroke-width:0.4;stroke-linejoin:round;stroke-miterlimit:10;" d="M101.8767,176.1073
				c0.0483-0.2441,0.2176-0.4061,0.2655-0.6546c0.4229-2.2112,1.059-3.6793,1.3141-4.9155c0.2821-1.3672,0.5672-2.83,0.7121-3.4123
				c0.1428-0.5822,0.636-2.3629,0.8965-3.8424c0.2626-1.4796,0.4128-4.7889,0.3968-6.1846
				c-0.015-1.3939,0.1117-4.1939,0.3629-4.5951c0.255-0.399,1.0024-1.3437,1.4462-2.5176c0.4454-1.1769,0.5038-2.0365,0.793-2.3762
				c0.2894-0.3377,0.6758-0.6524,1.0741-1.2205c0.3973-0.5697,0.7827-1.2962,0.4802-1.527
				c-0.3034-0.2325-0.5203,0.2279-0.8691,0.6033c-0.3514,0.3749-1.0377,1.2829-1.6063,1.2937
				c0.3331-0.9548,0.5928-2.053,0.9259-3.0079c0.1074-0.308,0.216-0.6219,0.2259-0.9478c0.0099-0.326-0.0942-0.672-0.3466-0.8785
				c-0.0529-0.0433-0.1153-0.081-0.1836-0.0826c-0.1673-0.004-0.2582,0.1897-0.306,0.3501
				c-0.3718,1.2461-0.7437,2.4923-1.1156,3.7384c-0.1707-0.0234-0.3342-0.0972-0.4647-0.2097
				c0.2282-1.5965,0.3481-3.2084,0.3585-4.821c0.0011-0.173-0.0084-0.3682-0.1373-0.4837c-0.17-0.1522-0.46-0.0639-0.5963,0.1191
				c-0.1363,0.183-0.1607,0.4234-0.1803,0.6508c-0.1258,1.4546-0.2515,2.9092-0.3773,4.3639
				c-0.1929-0.0678-0.2154-0.1345-0.4083-0.2023c-0.2037-1.4121-0.0831-3.3254-0.3741-4.2815
				c-0.1287-0.4227-0.6235-0.3325-0.7482,0.1247c-0.045,0.165,0.0107,1.4505,0,1.6211c-0.0416,0.6651-0.0026,1.7492,0.0263,3.5242
				c-0.2225,0.2234-0.106,1.0555-0.3369,0.9457c-0.2301-0.1103-0.5088-0.0261-0.5947-0.7182
				c-0.0855-0.6913-0.4794-1.2794-0.9413-1.4989c-0.4583-0.2193-0.8104-0.2575-0.6763,0.2394
				c0.1351,0.4986,0.5475,1.1179,0.6946,1.7733c0.1458,0.655,0.2729,0.6619,0.3964,1.4146
				c0.1217,0.7514,0.5113,1.4675,0.8026,1.9533c0.2918,0.4865,0.2683,0.9959,0.2683,0.9959s-0.1666,1.503-0.3327,2.5933
				c-0.1663,1.0916-0.4862,3.8446-0.6175,4.5826c-0.1319,0.7407-0.8283,2.7276-1.1016,4.4608
				c-0.173,1.0899-0.5429,2.847-0.8295,4.0095c-0.0853,0.3438-1.3992,3.6288-2.0368,5.7363"/>
			<path style="fill:#F4C6A1;stroke:#000000;stroke-width:0.4;stroke-linejoin:round;stroke-miterlimit:10;" d="M79.1156,175.4977
				c-0.0483-0.2441-0.1929-0.4121-0.2655-0.6546c-0.5422-1.8118-1.2798-3.447-1.5814-4.9709
				c-0.271-1.3694-0.489-3.1178-0.634-3.7001c-0.1428-0.5822-0.636-2.3629-0.8965-3.8424
				c-0.2626-1.4796-0.4128-4.7889-0.3968-6.1846c0.015-1.3939-0.1117-4.1939-0.3629-4.5951
				c-0.255-0.399-1.0024-1.3437-1.4462-2.5176c-0.4454-1.1769-0.5038-2.0365-0.793-2.3762
				c-0.2894-0.3377-0.6758-0.6524-1.0741-1.2205c-0.3973-0.5697-0.7827-1.2962-0.4802-1.527
				c0.3034-0.2325,0.5203,0.2279,0.8691,0.6033c0.3514,0.3749,1.0377,1.2829,1.6063,1.2937
				c-0.3331-0.9548-0.5928-2.053-0.9259-3.0079c-0.1074-0.308-0.216-0.6219-0.2259-0.9478c-0.0099-0.326,0.0942-0.672,0.3466-0.8785
				c0.0529-0.0433,0.1153-0.081,0.1836-0.0827c0.1673-0.004,0.2582,0.1897,0.306,0.3501c0.3719,1.2461,0.7437,2.4923,1.1156,3.7384
				c0.1707-0.0234,0.3342-0.0972,0.4647-0.2097c-0.2282-1.5965-0.3481-3.2084-0.3585-4.821
				c-0.0011-0.173,0.0084-0.3682,0.1373-0.4836c0.17-0.1522,0.46-0.0639,0.5963,0.1191c0.1363,0.183,0.1607,0.4234,0.1803,0.6508
				c0.1258,1.4546,0.2515,2.9092,0.3773,4.3638c0.1929-0.0678,0.2204-0.0961,0.4133-0.1639
				c0.1255-1.5816,0.4157-2.6188,0.6235-3.7827c0.1833-1.0263,0.9145-0.7898,0.8729-0.291c-0.045,0.5401-0.1663,1.658-0.1663,1.829
				c0,0.4988-0.2102,1.4199-0.2391,3.1949c0.2225,0.2234,0.106,1.0555,0.337,0.9457c0.2301-0.1103,0.5088-0.0261,0.5947-0.7182
				c0.0855-0.6913,0.4794-1.2794,0.9413-1.4989c0.4583-0.2193,0.8104-0.2575,0.6763,0.2394
				c-0.1351,0.4986-0.5475,1.1179-0.6946,1.7733c-0.1458,0.655-0.2729,0.6619-0.3964,1.4146
				c-0.1217,0.7514-0.5113,1.4675-0.8026,1.9533c-0.2918,0.4865-0.2683,0.996-0.2683,0.996s0.1666,1.503,0.3327,2.5933
				c0.1663,1.0916,0.4862,3.8446,0.6175,4.5826c0.1319,0.7407,0.8283,2.7276,1.1016,4.4608
				c0.173,1.0899,0.3772,2.9256,0.7513,4.0479c0.3358,1.0076,2.277,4.356,2.4109,5.7363c0.0765,0.7891,0.3089,1.1124,0.5005,1.6646
				c0.0702,0.2038,0.1381,0.3925,0.2022,0.5722L79.1156,175.4977z"/>
			<path style="stroke:#000000;stroke-width:0.7408;stroke-miterlimit:10;" d="M87.256,170.5637
				c0,0.0264-0.4394,0.7705-0.4394,0.7705l0.7832,0.5215l0.1757-0.3799l-0.5019-0.8779"/>
			<g>
				<path style="fill:#F4C6A1;stroke:#000000;stroke-width:0.5468;stroke-miterlimit:10;" d="M97.4074,162.2014l0.2588,2.4688
					c0,0,0.4687,0.7109,0.3164,1.2363c-0.1524,0.5254-0.4746,2.1826-0.6455,2.2012c-0.169,0.0195-0.4092-0.0547-0.4092-0.0547
					s-0.9258,2.3623-2.7412,3.2324c0,0-0.291,2.307-0.4297,3.0996c-0.1321,0.755-3.4873,1.4805-4.6651,0.2598
					c-1.1757-1.2227-1.5332-2.9326-1.5332-2.9326s0.5411-0.3057,0.7413-0.8662c0.1992-0.5606,0.5918-1.6407,0.5918-1.6407
					s-0.3975-0.4736-0.585-1.2539c-0.1768-0.7275-0.1084-1.3984-0.1084-1.3984s-0.7647,0.1074-0.6992-1.0176
					c0.0634-1.123,1.8427-5.7529,1.8427-5.7529l3.2774-1.4502l4.6699,2.5527L97.4074,162.2014z"/>
				<path d="M90.7707,167.8167l0.3095,0.623c0,0,0.3448,0.6211,1.0664,0.8652c1.0371,0.3477,1.5205-0.1201,1.8223-0.415
					c0.1631-0.1602,0.4473-0.624,0.4473-0.624s-1.1426,0.4638-1.6504,0.415c-0.4004-0.04-1.0664-0.2763-1.0664-0.2763
					l-0.3086-0.4141L90.7707,167.8167z"/>
				<path style="fill:#FFFFFF;" d="M94.0041,168.301l-0.3438,0.0352l-2.2353-0.3457l-0.0342,0.2754c0,0,0.584,0.4502,1.3066,0.5547
					c0.3154,0.0439,1.1006-0.1045,1.1006-0.1045L94.0041,168.301z"/>
				<path d="M92.9337,163.3655c0,0-1.0039-0.584-1.373-0.6904c-0.3701-0.1065-1.0029,0.0537-1.2148,0.2646
					c-0.211,0.2139-0.2647,0.3731-0.2647,0.3731s0.5283-0.3184,0.8447-0.3184s0.4766,0,0.7403,0.1592
					c0.2636,0.1592,0.6865,0.4785,1.0029,0.4785C92.9865,163.6321,92.9865,163.6321,92.9337,163.3655z"/>
				<g>
					<g>
						<path d="M93.424,167.26c-0.084-0.084,0.4668-0.0625,0.4492,0.1543c-0.0098,0.1035-0.1748,0.001-0.3037-0.0703
							C93.4904,167.2991,93.4699,167.3059,93.424,167.26z"/>
						<g>
							<path d="M90.5763,167.2415c0,0-0.3017,0.2334-0.372,0.8349C90.2043,168.0764,89.963,167.0657,90.5763,167.2415z"/>
						</g>
						<path d="M92.1896,167.1272c0.1133-0.2256,0.4258-0.1426,0.501,0.0039c0.0224,0.044-0.1319-0.0058-0.1905,0.0176
							C92.2931,167.2346,92.088,167.3323,92.1896,167.1272z"/>
						<path d="M94.4904,171.138c-0.0694,0.0312-0.0335-0.6008-0.0335-0.6008s-1.0554,0.9377-1.6589,1.0148
							c-0.8662,0.1104-1.5869-0.2334-1.9482-0.418c-0.4971-0.2548-1.7188-1.9072-1.7188-1.9072l-0.4258,0.8672
							c0,0,0.9121,1.2051,1.7071,1.7481c0.5185,0.3525,1.1503,0.5312,2.0869,0.3105
							C93.4367,171.9299,94.4904,171.138,94.4904,171.138z"/>
					</g>
					<g>
						<path d="M96.6232,165.0256c0,0-0.1621,0.002-0.3281-0.0419c-0.1875-0.0499-0.3887-0.1495-0.6016-0.1631
							c-0.4023-0.0254-0.7275,0.0488-1.1133,0.2431c0,0,0.9932-0.1465,1.2051-0.0595c0.2129,0.0859,0.4961,0.1972,0.6104,0.1836
							C96.5109,165.1751,96.6232,165.0256,96.6232,165.0256z"/>
						<path d="M92.4582,164.7463c0,0-0.5469-0.5351-0.7149-0.5898c-0.5107-0.1709-0.9863-0.167-1.0986-0.1894
							c-0.1123-0.0235-0.208-0.0625-0.208-0.0625s0.3174,0.2783,0.4717,0.3037c0.1542,0.0244,0.5703,0.04,0.708,0.083
							C92.007,164.4143,92.4582,164.7463,92.4582,164.7463z"/>
						<path d="M91.0773,164.3635c-0.043,0.1446,0.0566,0.3047,0.2236,0.3536c0.167,0.0507,0.3379-0.0274,0.3809-0.1739
							c0.043-0.1445-0.0567-0.3037-0.2227-0.3535C91.2912,164.1389,91.1203,164.2151,91.0773,164.3635z"/>
						<path d="M95.1378,165.1712c-0.0087,0.1533,0.1241,0.2841,0.2989,0.2959c0.1728,0.0107,0.3213-0.1045,0.331-0.2559
							c0.0088-0.1524-0.124-0.2832-0.2978-0.2959C95.297,164.9065,95.1486,165.0198,95.1378,165.1712z"/>
					</g>
					<g>
						<path d="M95.7326,166.7014c-0.0157,0.0371,0.0205,0.0977,0.084,0.1387c0.0625,0.0391,0.1279,0.043,0.1445,0.0059
							c0.0176-0.0342-0.0195-0.0977-0.083-0.1377C95.8166,166.6682,95.7501,166.6653,95.7326,166.7014z"/>
						<path d="M93.1476,165.7405c-0.0039,0.0254,0.0283,0.0527,0.0703,0.0576c0.042,0.0068,0.0811-0.0107,0.084-0.0381
							c0.0029-0.0263-0.0283-0.0527-0.0713-0.0586C93.1886,165.6956,93.1505,165.7131,93.1476,165.7405z"/>
						<path d="M93.3244,166.0237c-0.0049,0.0391,0.039,0.0752,0.0996,0.084c0.0605,0.0078,0.1133-0.0156,0.1191-0.0547
							c0.0039-0.0371-0.041-0.0742-0.1015-0.0811C93.382,165.9631,93.3283,165.9866,93.3244,166.0237z"/>
						<path d="M93.1906,165.3753c-0.0049,0.0263,0.0273,0.0517,0.0693,0.0576c0.043,0.0049,0.0801-0.0108,0.084-0.0371
							c0.0029-0.0274-0.0293-0.0537-0.0713-0.0586C93.2306,165.3303,93.1935,165.3479,93.1906,165.3753z"/>
						<path d="M92.8488,165.6624c-0.0049,0.0371,0.039,0.0722,0.0986,0.082c0.0567,0.0068,0.1094-0.0176,0.1143-0.0547
							c0.0049-0.0361-0.0391-0.0713-0.0977-0.0801C92.9064,165.6018,92.8537,165.6262,92.8488,165.6624z"/>
						<path d="M92.7189,166.1292c-0.002,0.0254,0.0293,0.0507,0.0713,0.0576c0.043,0.0068,0.0801-0.0108,0.083-0.0381
							c0.0039-0.0264-0.0273-0.0527-0.0703-0.0586S92.7228,166.1008,92.7189,166.1292z"/>
						<path d="M92.8986,166.2669c-0.0039,0.038,0.042,0.0771,0.1045,0.0849c0.0615,0.0088,0.1152-0.0176,0.1201-0.0556
							c0.0049-0.0381-0.041-0.0772-0.1035-0.085C92.9591,166.2024,92.9044,166.2278,92.8986,166.2669z"/>
						<path d="M93.4201,166.3762c-0.0039,0.0264,0.0283,0.0518,0.0703,0.0576c0.043,0.0069,0.081-0.0107,0.084-0.0371
							c0.0029-0.0273-0.0293-0.0527-0.0713-0.0586C93.4611,166.3323,93.424,166.3499,93.4201,166.3762z"/>
						<path d="M94.883,166.2776c-0.0049,0.041,0.0488,0.0811,0.1211,0.0898c0.0722,0.0108,0.1357-0.0136,0.1406-0.0546
							c0.0049-0.0411-0.0488-0.0821-0.1211-0.0918C94.9513,166.2112,94.8878,166.2366,94.883,166.2776z"/>
						<path d="M94.4962,166.5452c-0.0058,0.04,0.0489,0.0801,0.1211,0.0898c0.0723,0.0088,0.1348-0.0156,0.1407-0.0566
							c0.0048-0.041-0.0489-0.0801-0.1211-0.0899C94.5646,166.4788,94.5021,166.5042,94.4962,166.5452z"/>
						<path d="M94.2306,166.1917c-0.0058,0.04,0.0479,0.08,0.1192,0.0898c0.0732,0.0098,0.1357-0.0156,0.1425-0.0566
							c0.0039-0.0401-0.0498-0.0821-0.122-0.0909C94.298,166.1253,94.2355,166.1506,94.2306,166.1917z"/>
						<path d="M91.4709,165.5881c-0.0069,0.0411,0.0478,0.0821,0.121,0.0918c0.0713,0.0098,0.1329-0.0156,0.1387-0.0566
							c0.0059-0.041-0.0488-0.082-0.1201-0.0918C91.5382,165.5227,91.4748,165.5491,91.4709,165.5881z"/>
						<path d="M91.1584,165.8743c-0.0059,0.04,0.0488,0.081,0.121,0.0908c0.0723,0.0098,0.1358-0.0156,0.1407-0.0566
							c0.0058-0.0391-0.0489-0.0821-0.1211-0.0899C91.2277,165.8088,91.1632,165.8342,91.1584,165.8743z"/>
						<path d="M90.4328,165.6848c-0.0049,0.0401,0.0488,0.0801,0.1211,0.0889c0.0722,0.0107,0.1357-0.0156,0.1396-0.0557
							c0.0068-0.04-0.0488-0.081-0.1211-0.0908C90.5021,165.6184,90.4386,165.6428,90.4328,165.6848z"/>
						<path d="M90.8673,165.469c-0.0048,0.042,0.0489,0.082,0.1211,0.0928c0.0733,0.0107,0.1358-0.0147,0.1407-0.0557
							c0.0048-0.041-0.0489-0.082-0.1202-0.0918C90.9357,165.4046,90.8732,165.4299,90.8673,165.469z"/>
						<path d="M90.258,165.1174c-0.0059,0.0411,0.0478,0.0821,0.1201,0.0909c0.0722,0.0107,0.1357-0.0147,0.1396-0.0557
							c0.0069-0.04-0.0478-0.0801-0.1201-0.0898C90.3244,165.051,90.2628,165.0774,90.258,165.1174z"/>
						<path d="M91.8664,166.3792c-0.0059,0.041,0.0478,0.082,0.1201,0.0918c0.0722,0.0097,0.1357-0.0147,0.1416-0.0547
							c0.0049-0.042-0.0498-0.084-0.1221-0.0928C91.9347,166.3147,91.8712,166.3401,91.8664,166.3792z"/>
					</g>
				</g>
				<g>
					<path style="fill:#C2975D;stroke:#000000;stroke-width:0.729;stroke-miterlimit:10;" d="M82.7287,168.5354
						c0,0,0.2988,0.874,0.8535,0.875c0.2959,0.002,0.5215-0.084,0.6689-0.1641c-0.1816,0.1631-0.3525,0.4727,0.1514,0.9083
						c0,0-0.5244,0.6875,0.2646,1.3007c0.7872,0.6123,0.9131,0.8106,0.9131,0.8106s-0.2734-0.9141-0.0312-1.1699
						c0.2422-0.2539,0.6465-0.4122,0.6465-0.4122s-0.6543,0.7266,0.0957,1.2598c0.4756,0.3399-0.167,1.2676-0.167,1.2676
						c0.7988,0.2178,0.8818-1.8652,0.8623-2.1445c-0.0186-0.2803,0.4277-0.4297,0.4277-0.4297s0.1231,0.6416,0.4326,0.8076
						c0.2696,0.1455,0.3545,0.4502,0.1338,0.8642c-0.2197,0.4141,0.417,1.4424,0.417,1.4424
						c-0.2226-0.2099,0.3525-1.1006,0.5908-1.9746c0.1289-0.4756-0.4843-0.5078,0.002-1.2744
						c0.8467-1.332-0.1953-1.4922,0.0322-2.3262c0.167-0.6172,0.8135-0.7402,0.1856-2.25c-0.087-0.2099-0.0215-0.6259,0.0859-1.0507
						c0.0605,0.0664,0.5576,0.5937,1.0059,0.4023c0.4775-0.2021,0.7978-0.8701,0.7275-1.3838
						c-0.0713-0.5107,0.5703-1.0107,1.1328-1.3183c0.5615-0.3077,1.2432-0.6495,1.3535-1.4834
						c0.1201-0.917,1.0342-0.9454,1.0342-0.9454l1.0674-0.1337c0,0,0.0928,0.2001,0.9678,1.0166
						c0.5888,0.5498,0.6181,0.749,0.8349,1.6093c0.1074,0.4219,0.1963,1.6973-0.0185,2.5489
						c-0.1719,0.6855-0.3037,1.6503-0.5127,2.3164c-0.2217,0.7138-0.7207,1.7968-1.2559,2.3154l-0.8613,0.8838
						c0,0,0.7099,0.4961,0.2324,0.6972c-0.4766,0.2032-1.3594,0.3223-0.7148,1.0274c0.6435,0.7031-0.251,1.5898-0.251,1.5898
						s0.4873,0.0645,0.8096-0.542c0.2714-0.5078,0.0742-1.2568,0.248-1.5224c0.1387-0.2129,0.8418-0.5664,0.8418-0.5664
						s-0.9795,0.5-0.4531,1.1787c0.5263,0.6767,0.6386,0.4541,0.206,0.7295c-0.4306,0.2734-0.2041,1.1933-0.2041,1.1933
						s0.0586-0.5615,0.5635-0.8652c0.8389-0.5078,0.4717-1.0107,0.4795-1.3184c0.0059-0.3086,0.5488-0.5859,1.123-0.5507
						c0.6036,0.0351,1.3789-0.6846,1.1758-1.3838c-0.1513-0.5176-0.1084-1.0498,0.1045-1.3682
						c0.4541-0.6777,0.3301-1.4756,0.3301-1.4756s0.4111,0.0928,0.749,0.2315c0.3389,0.1396,0.5156,0.1777-0.04,0.7353
						c-0.0479,0.0469-0.0889,0.0947-0.1289,0.1426c-0.4248,0.5332-0.3116,0.999-0.3116,0.999s0.6163-1.1015,1.1387-1.2324
						c0.5215-0.1289,0.8887-0.1094,0.4063-0.7148c-0.4805-0.6045-0.9102-1.4454-0.9102-1.4454l-0.2109-0.5087
						c0,0,0.5176,0.5166,0.9424,0.5498c0.4248,0.0332,0.8798,0.1992,0.8418,0.3769c-0.0401,0.1768,0.2744-0.6816-0.1104-0.8935
						c-0.3838-0.211-1.0566-0.2383-0.9629-0.6534c0.0918-0.4121-1.2002-0.9882-1.0351-1.4472
						c0.164-0.459,0.707-0.6729,0.2119-1.2188c-0.4951-0.5478-0.7862-0.9219-0.7862-0.9219s0.3545-0.2666-0.1191-1.1806
						c-0.4746-0.9141-1.4951-2.2041-2.5381-2.5029c-1.0449-0.2969-1.0449-0.2969-1.0449-0.2969s-0.1397-0.5586,0.6553-0.4746
						c0.7968,0.082,1.498,1.1972,1.498,1.1972s-0.0176-1.1152-0.9648-1.6816c-0.7149-0.4277-1.7305-0.0527-1.7305-0.0527
						s-0.918-1.1387-1.584-0.3575c-0.3633,0.4219-0.666-0.0214-1.4033-0.0703c-1.9092-0.1269-3.0713,0.9395-3.0713,0.9395
						s-0.6543-0.0459-1.293,0.4101c-0.5732,0.4073-0.5761,0.8379-0.8056,1.085c-0.2588,0.2764-0.7744,0.3252-1.2217,0.8896
						c-0.4053,0.5137-0.377,1.5401-0.377,1.5401s-0.0214,0.0039-0.0586,0.0107c0.1514,0.3115-0.0087,0.6231-0.1015,0.9961
						c-0.0811,0.334-0.0069,0.7012-0.1504,1.0117c0.0127-0.0312,0.0312-0.0732,0.0586-0.1347
						c-0.0235,0.0566-0.0459,0.1133-0.0664,0.1709c-0.0313,0.0927-0.0928,0.5029-0.0489,0.1113
						c-0.0439,0.3975-0.1474,0.7432-0.4375,1.0322c-0.0175,0.0176-0.041,0.0313-0.0595,0.0489
						c0.3086,0.4443,0.6191,0.2773,0.4355,0.7402c0.1192,0.0019-0.0693,0.6777-0.0693,0.6777s-0.3662,0.501-0.5576,1.0791
						c-0.1905,0.5781,0.1601,1.2139,0.1601,1.2139s0.3721,0.708-0.5166,0.9375C83.1652,168.9895,82.7287,168.5354,82.7287,168.5354z
						 M89.299,164.8616c0.165-0.6387,0.4277-1.294,0.4277-1.294l0.2979,0.2491c0,0,0.5,0.458,0.3154,0.7265
						C90.1681,164.7991,89.3791,164.8567,89.299,164.8616z"/>
					<g>
						<path d="M94.7479,171.0568c0,0,1.6526-2.0448,1.8753-3.0214c0.2227-0.9746,0.4062-2.6641,0.5146-3.4824
							c0.1084-0.8164,0.9815-2.4199-1.5224-4.54c0,0,1.4648,0.0732,2.1953,1.79c0.7305,1.7168-0.585,2.4297,0.0312,4.0644
							c0.3077,0.8184,0.3428,1.6143,0.2325,2.2911c-0.1094,0.6796-0.8369,1.0263-1.1055,1.3789
							c-0.2344,0.3105-0.1592,1.4384-0.6133,1.832c-0.5771,0.501-1.2031,0.4648-1.2617,0.584
							c-0.1055,0.2119-0.0977,0.6299-0.1318,0.7265c-0.0342,0.1016-0.2481,1.2588-0.2481,1.2588s-0.5547,0.2793-0.5088,0.0977
							c0.044-0.1807,0.4287-0.8994,0.2012-1.2217c-0.2256-0.3203-0.2548-0.5751,0.0713-0.8642
							c0.3281-0.289,0.2803-0.2315,0.2832-0.5655C94.7638,171.053,94.7479,171.0568,94.7479,171.0568z"/>
						<path d="M91.5089,159.0315c0.8907-0.5234,2.0821-0.1123,2.0821-0.1123c-0.3321,0.0107-1.3399-0.291-1.8555,0.6943
							c-0.5176,0.9864,0.4502,1.1309-0.415,1.4737c-0.3926,0.1552-0.6534,0.2451-0.6905,0.5322
							c-0.039,0.2861,0.3975,0.4404-0.0449,0.6602c-0.9307,0.457-0.5088,1.4589-0.1973,1.8037c0,0-1.2871-0.5889-0.9814-1.3389
							c0.3047-0.749,0.7217-0.1523,0.5996-0.792c-0.1221-0.6396-0.2246-1.1123,0.6777-1.3662
							C91.5851,160.3313,91.09,159.2776,91.5089,159.0315z"/>
						<path d="M99.9718,168.7874c0.001-0.0889,0.3653-0.5899,0.3389-0.6602c-0.1865-0.5-1.3965-0.6006-1.1934-0.7578
							c0.8828-0.6865,0.545-2.0898,0.545-2.0898s0.6289,1.1855,0.9111,1.5566c0.2822,0.3691,0.7285,1.0117,0.6309,1.332
							l-0.4102,0.0948L99.9718,168.7874z"/>
						<path d="M90.1125,157.3889c0,0-2.0284,0.6446-2.0479,1.1006c-0.0195,0.4541-0.0596,0.4502-0.5723,0.8809
							c-0.5117,0.4306-1.2939,0.4092-1.1152,0.9316c0.1787,0.5244,0.0117,1.0186-0.957,1.7178
							c-0.5186,0.375-0.1465,1.0068,0.2793,1.8535c0.4257,0.8477-0.875,1.2979-0.8272,1.8867
							c0.0459,0.5899,0.5459,0.5723,0.3477,1.753c-0.0752,0.4472,0.622,1.248,0.083,1.8837
							c-0.5391,0.6348-0.9649,1.0352-0.9649,1.0352s-0.2392-0.6973-0.2168-0.8613c0.0206-0.1631-0.8847-0.2012-0.8847-0.2012
							l-0.2549-0.5742c0,0,1.1309,0.5254,1.0947-0.1455c-0.0351-0.6709-0.1416-1.4346-0.1416-1.4346l0.4961-1.666
							c0,0-0.8408,0.207-0.876,0.7832c-0.0341,0.5781-0.4853,0.8652-0.6269,0.9853c-0.3242,0.2754-1.4092-0.1875-1.4092-0.1875
							s1.5088-0.2421,1.4053-0.7138c-0.1035-0.4717,0.6924-1.4883,0.6924-1.4883s-0.1875-0.5664,0.1914-1.3477
							c0.4775-0.9873,0.8115-0.9179,0.8115-0.9179l0.1533-1.0137c0,0-0.3935,0.2305-0.4805,0.3525
							c-0.1416,0.2002-0.289,0.9385-0.289,0.9385s-0.3291-0.7383-0.25-1.2402c0.0771-0.501,1.1709-0.8838,1.1709-0.8838
							s0.3974-1.2539,0.6885-1.6123c0.291-0.3613,1.6093-0.9102,1.6093-0.9102s0.4873-0.5595,0.9961-0.6572
							C88.7267,157.5374,90.1125,157.3889,90.1125,157.3889z"/>
						<path d="M87.4142,170.637c0,0,0.332-0.333,0.3516-0.7871c0.0156-0.3926-0.3321-0.3399-0.4561-0.7168
							c-0.0205-0.0616-0.0351-0.1348-0.04-0.2246c-0.042-0.6289-0.1621-1.6016-0.1826-1.4375
							c-0.0225,0.164-0.1553,2.1484-0.6787,2.3222c-1.3418,0.4444-1.1211,1.5967-1.1211,1.5967l0.9082-0.7061
							c0,0-0.5,0.4297-0.1768,0.8047c0.3232,0.377,0.4678,1.4776,0.4678,1.4776s0.4385-0.5049,0.4433-1.169
							C86.9337,171.1331,87.4142,170.637,87.4142,170.637z"/>
					</g>
				</g>
				<path d="M94.7287,163.8967c0,0,0.8984-0.2109,1.2148-0.1582c0.3164,0.0518,0.8447,0.3711,1.0039,0.584
					c0.1582,0.2129,0.1582,0.5303,0.0518,0.3721c-0.1045-0.1592-0.5283-0.5322-0.8965-0.585
					c-0.3701-0.0527-1.2676,0.2129-1.374,0.0528C94.6232,164.0032,94.588,163.9671,94.7287,163.8967z"/>
				<path d="M90.4259,167.6438c0,0,0.7403,0.3828,1.5147,0.6221c0.4853,0.1504,0.9912,0.2187,1.3076,0.2431
					c0.7031,0.0538,1.8906-0.3466,1.8906-0.3466s-1.2148-0.0049-1.4785-0.0577c-0.2637-0.0517-0.5156,0.1485-0.7793-0.0117
					c-0.2646-0.1592-0.3711-0.1045-0.5635-0.1045C91.8918,167.9885,91.0255,167.7503,90.4259,167.6438z"/>
				<path d="M91.4552,169.3811c0,0,0.3926,0.5674,1.1739,0.5225c0.4238-0.0244,0.5693-0.1514,0.5693-0.1514
					s-0.4756,0.7969-1.0029,0.5313c-0.5274-0.2647-0.5948-0.5977-0.5948-0.5977L91.4552,169.3811z"/>
			</g>
			<g>
				<path style="fill:#F4C6A1;stroke:#000000;stroke-width:0.4;stroke-miterlimit:10;" d="M86.1616,250.6664
					c-0.0191,1.3304-0.3492,4.795-0.1219,5.7917c0.2273,0.9956,1.0821,2.3472,0.5792,3.4446
					c-0.2205,0.4811-0.7041,0.5868-1.2029,0.5868c-0.9481,0-1.7299,0.8305-2.4093,0.9678
					c-0.0639,0.0131-1.0823,0.0298-1.0823,0.0298s-0.5542,0.3048-1.0808,0.2494c-1.1063-0.1165-4.1632,0.1866-4.2508-0.1628
					c-0.1083-0.4317,0.0124-1.4023,0.9727-1.4882c0.9613-0.086,2.8873-2.444,3.3472-2.7192
					c0.4598-0.2751,1.3006-2.6395,1.2173-3.5703"/>
				
					<path style="fill:#F4C6A1;stroke:#000000;stroke-width:0.3;stroke-linecap:round;stroke-linejoin:round;stroke-miterlimit:10;" d="
					M81.2592,259.6582c-0.0629,0.0165-0.9337,0.6255-1.1639,0.9145c-0.4174,0.524,0.1386,1.441,1.4964,1.0253"/>
				
					<path style="fill:#F4C6A1;stroke:#000000;stroke-width:0.3;stroke-linecap:round;stroke-linejoin:round;stroke-miterlimit:10;" d="
					M78.9647,260.0074c0,0-1.3413,1.5242-0.3658,1.6461"/>
				
					<path style="fill:#F4C6A1;stroke:#000000;stroke-width:0.3;stroke-linecap:round;stroke-linejoin:round;stroke-miterlimit:10;" d="
					M79.8792,259.9243c0,0-1.3412,1.6073-0.3658,1.7292"/>
				
					<path style="fill:#F4C6A1;stroke:#000000;stroke-width:0.3;stroke-linecap:round;stroke-linejoin:round;stroke-miterlimit:10;" d="
					M78.2513,260.0704c0,0-1.2193,1.0974-0.7316,1.5241"/>
			</g>
			<g>
				<path style="fill:#F4C6A1;stroke:#000000;stroke-width:0.4;stroke-miterlimit:10;" d="M94.0662,250.7253
					c0.0191,1.3304,0.3492,4.7951,0.1219,5.7917c-0.2273,0.9956-1.0821,2.3472-0.5792,3.4446
					c0.2205,0.4811,0.7041,0.5868,1.2029,0.5868c0.9481,0,1.7299,0.8305,2.4093,0.9678c0.0639,0.0131,1.0823,0.0298,1.0823,0.0298
					s0.1583,0.2235,1.0808,0.2494c1.112,0.0312,4.1632,0.1866,4.2508-0.1628c0.1083-0.4316-0.0124-1.4023-0.9727-1.4882
					c-0.9613-0.086-2.8873-2.444-3.3472-2.7192c-0.4598-0.2751-1.3006-2.6395-1.2173-3.5703"/>
				
					<path style="fill:#F4C6A1;stroke:#000000;stroke-width:0.3;stroke-linecap:round;stroke-linejoin:round;stroke-miterlimit:10;" d="
					M98.9686,259.7171c0.0629,0.0165,0.9337,0.6255,1.1639,0.9145c0.4174,0.524-0.8606,1.299-1.9414,0.8556"/>
				
					<path style="fill:#F4C6A1;stroke:#000000;stroke-width:0.3;stroke-linecap:round;stroke-linejoin:round;stroke-miterlimit:10;" d="
					M101.2631,260.0663c0,0,1.3412,1.5241,0.3658,1.6461"/>
				
					<path style="fill:#F4C6A1;stroke:#000000;stroke-width:0.3;stroke-linecap:round;stroke-linejoin:round;stroke-miterlimit:10;" d="
					M100.3486,259.9832c0,0,1.3413,1.6073,0.3658,1.7292"/>
				
					<path style="fill:#F4C6A1;stroke:#000000;stroke-width:0.3;stroke-linecap:round;stroke-linejoin:round;stroke-miterlimit:10;" d="
					M101.9765,260.1293c0,0,1.2193,1.0974,0.7316,1.5241"/>
			</g>
			<path d="M89.1699,216.7581c0.3923-0.9751,1.0548-4.4722,1.0548-4.4722c0.4415,0.2153,0.4327,0.061,0.5414,0.7612
				c0.2825,1.8237,10.113-3.2531,10.113-5.1544c0-6.8725-1.5519-8.8678-1.7458-11.3341c-0.0799-1.0164-0.8539-5.3577-0.6779-6.532
				c0.7611-5.0793,2.4823-9.2533,2.7563-10.1782c0.4359-1.4712,0.7482-2.4109,2.5203-8.6953
				c0.0483-0.1712-0.1484-0.3135-0.3259-0.2964c-1.2831,0.123-2.6057-0.1973-3.6915-0.8921
				c-0.1687-0.1079-0.3883-0.0298-0.4384,0.1641c-0.1946,0.7554-1.3925,1.8292-1.8056,2.487
				c-0.4856,0.7739-0.3094,1.0892-1.2211,1.1463c-0.303,0.0195-0.6073-0.0254-0.9102-0.0044
				c-1.03,0.0703-1.8514,0.8608-2.8083,1.2485c-0.6047,0.2451-1.2747,0.2954-1.915,0.1836c-1.2012-0.209-2.085-0.915-2.7712-1.8857
				c-0.7441-1.0522-1.1624,0.0173-2.0131-0.6052c-1.0385-0.7598-1.4473-0.1218-2.0784-1.0807
				c-0.1157-0.1758-1.5542-2.9145-1.7458-2.8266c-1.145,0.5269-3.6909,1.345-4.9465,1.4549
				c-0.1599,0.0137-0.0656,0.1378-0.0345,0.295c0.5333,2.6979,1.3541,4.1659,2.0713,6.3974
				c0.3153,0.9819,1.3389,4.5318,1.6014,5.0323c0.0282,0.0664,1.7794,4.6391,1.6237,11.2109
				c-0.0166,0.7013-0.3288,3.9361-0.4816,5.0394c-0.1528,1.1033-1.3529,5.9056-1.6253,9.2159"/>
			<path d="M90.0751,212.9675c-0.3061,1.8199-0.4928,4.3442-0.9458,6.7858c-0.1329,2.4443-1.4613,9.7912-1.635,10.8076
				c-0.4394,2.5687,0.0592,4.3254,0.194,6.9279c0.075,1.4469,0.0227,3.5211-0.2689,4.9398c-0.26,1.2643-0.5902,3.9279-0.7564,6.0894
				c-0.3496,4.545-0.0474,1.0206-0.3325,5.5701l-4.4753-0.0383c0.2143-1.7946-0.077-3.7733-0.0971-5.3655
				c-0.0278-2.2007,0.0397-4.6254-0.2339-6.8093c-0.7393-5.9017-0.0044-11.865-0.9392-17.7388
				c-0.4065-2.554-0.5395-15.0687-0.3599-16.9615"/>
			<path d="M90.4595,211.7723c0.3061,1.8199,0.6123,6.0187,1.0653,8.4603c0.1329,2.4443,1.116,9.4227,1.2897,10.4391
				c0.4394,2.5687-0.3,4.9624-0.4348,7.565c-0.075,1.4469,0.2181,2.8841,0.5097,4.3028c0.26,1.2643,0.5902,3.9279,0.7564,6.0894
				c0.3496,4.545,0.0474,1.0206,0.3325,5.5701l4.4753-0.0383c-0.2143-1.7946,0.077-3.7733,0.0971-5.3655
				c0.0278-2.2007-0.0397-4.6254,0.2339-6.8093c0.7393-5.9017,0.0044-11.865,0.9392-17.7388
				c0.4065-2.554,1.3348-16.4569,1.1552-18.3497"/>
		</g>
	</g>
</g>
</svg>
