<?xml version="1.0" encoding="iso-8859-1"?>
<!-- Generator: Adobe Illustrator 25.0.1, SVG Export Plug-In . SVG Version: 6.00 Build 0)  -->
<svg version="1.1" id="Assoziationen_x5F_Illustrationen"
	 xmlns="http://www.w3.org/2000/svg" xmlns:xlink="http://www.w3.org/1999/xlink" x="0px" y="0px" viewBox="0 0 618.6378 380.435"
	 style="enable-background:new 0 0 618.6378 380.435;" xml:space="preserve">
<g id="_x32__x5F_4_Interferenz_Werkzeug">
	<defs>
		<rect id="SVGID_1_" x="115.7234" y="64.7441" width="391.0684" height="256.7217"/>
	</defs>
	<clipPath id="SVGID_2_">
		<use xlink:href="#SVGID_1_"  style="overflow:visible;"/>
	</clipPath>
	<g style="clip-path:url(#SVGID_2_);">
		<g>
			<path d="M173.4929,179.6025c0,0,0.7637-0.8408,0.7559-1.9356c-0.0068-0.9423-0.8418-0.7773-1.1855-1.6679
				c-0.0557-0.1465-0.0996-0.3213-0.1231-0.5332c-0.1719-1.5069-0.5752-3.8311-0.6074-3.4356
				c-0.0332,0.3955-0.125,5.1807-1.3721,5.6592c-3.1885,1.2266-2.5224,3.9697-2.5224,3.9697l2.1123-1.8037
				c0,0-1.1563,1.0879-0.333,1.9532c0.3681,0.3867,1.1025,1.3642,1.1796,2.2763c0.0948,1.1289-0.5175,2.1826-0.5175,2.1826
				s1.2959-0.5195,1.7236-1.3613c0.3691-0.7256,1.0361-1.8633,0.5547-2.6621C172.3318,180.875,173.4929,179.6025,173.4929,179.6025z
				"/>
			<path d="M195.7458,152.8535c0.333,0.2217,4.4365,2.1074,5.3242,3.8818c0.8867,1.7744,0.5547,7.3203,0.2217,8.6514
				c-0.333,1.3301-1.6641,12.8652-2.8838,13.8633c-1.2197,0.998-8.3184,5.6562-8.3184,5.6562s-2.4394-0.998-2.9941-2.7734
				C186.5408,180.3584,195.7458,152.8535,195.7458,152.8535z"/>
			<path style="stroke:#000000;stroke-width:0.7;stroke-miterlimit:10;" d="M157.8708,181.3388c0,0,3.5107-0.25,5.0469-0.0927
				c2.1621,0.2216,4.7451-0.2149,6.0625,0.0742c1.7744,0.3877,2.7363-0.2959,4.1406-0.8877
				c1.4053-0.5918,13.7529,1.1093,14.3437,1.1826c0.5918,0.0742,2.1446,0.3701,3.1055,0.3701c0.9619,0,3.7715-0.665,6.3594-1.4053
				c2.5879-0.7392,2.8095-1.5517,7.2461-1.5517c2.7509,0,6.58,1.0342,8.207,1.1826c1.627,0.1475,4.4355,0.8135,4.4355,0.8135
				l1.0352,0.2959c0,0,0.0742,1.0351-0.5176,3.9922c-0.3476,1.7421,0.9766,6.1357,1.0352,7.0244
				c0.0742,1.1093-0.3692,1.4052-0.3692,1.4052s-0.666,0.2217-1.4785,0.1475c-0.958-0.0869-6.2109,0.0742-7.0986,0.8135
				c-0.8877,0.7392-1.3311,1.2568-2.5137,3.2529c-1.1826,1.9961-2.8838,7.0244-3.4013,9.7598
				c-0.5176,2.7353-0.4434,3.4756-1.0352,5.3974c-0.5918,1.9229-1.4785,3.5489-1.9961,6.2852
				c-0.5176,2.7353-1.2568,13.1611-1.4043,15.5273c-0.1484,2.3653,0.7383,3.9922,0.5176,7.0977
				c-0.2227,3.1055-0.3701,6.2842-0.3701,6.2842s-22.2871,2.1543-25.4346,2.4404c-5.6934,0.5176-12.9395-0.9609-14.7139-1.7002
				c-1.7744-0.7402-1.4052-1.9971-1.4052-1.9971s1.2568-11.9775,1.8486-14.4912c0.5918-2.5146,0.9746-4.1377,1.4785-6.0634
				c0.8135-3.1055,0.8877-10.7208,0.7393-12.1993c-0.1475-1.4795-0.8125-3.8457-1.3301-6.0634
				c-0.5176-2.2178-0.9619-6.4327-1.3311-7.3194c-0.3701-0.8877-1.9228-3.1054-2.8838-4.3633
				c-0.9609-1.2568-5.9892-3.8447-6.8027-4.2138c-0.8135-0.3701-2.2178-0.7393-2.1436-1.0352
				c0.0733-0.2959,4.584-9.3906,4.584-9.3906s4.4366-0.9609,4.6582-0.8867C156.7068,181.0976,157.8708,181.3388,157.8708,181.3388z"
				/>
			<path style="fill:#F4C6A1;stroke:#000000;stroke-width:0.7;stroke-miterlimit:10;" d="M198.5368,155.9873
				c0,0,0.4209,1.2216,0.7578,2.3007c0.5547,1.7745-0.0176,3.9834-0.2402,5.2403c-0.2217,1.2568-0.3135,1.7099-0.5352,2.9668
				c-0.2226,1.2568-0.5176,2.4404-0.666,3.7705c-0.1475,1.331-2.2734,4.9453-3.0127,6.6455
				c-0.7393,1.7012-1.5713,2.5234-2.5322,2.8935c-0.9619,0.3692-3.3086,0.4336-3.3086,0.4336s-0.2676,0.334-0.2402,0.8965
				c0.0546,1.1651,0.4433,1.6084,0.4433,1.6084s-0.7207,2.4951-2.4961,3.8262c-1.3857,1.04-4.4355,1.876-8.3545,1.5068
				c-3.9189-0.3701-5.6748-4.3906-5.6748-4.3906s0.794-0.7598,1.2383-2.042c0.666-1.9228,0.2959-3.623,0.5176-4.8057
				c0.2217-1.1835-1.1094-14.0488-0.2217-16.1933c0.8877-2.1436,6.0635-8.6504,9.6123-9.5371
				c3.5488-0.8877,10.7207,0.4433,11.9033,1.3301C196.9109,153.3252,198.5368,155.9873,198.5368,155.9873z"/>
			<path d="M191.3279,179.7675c-0.4433,0-1.5703,0.4434-3.29-0.1298c-1.6416-0.5469-4.6944-2.0889-4.6944-2.0889
				s2.3653,2.0703,3.9922,2.958c1.627,0.8867,3.3643,0.7393,3.3643,0.7393L191.3279,179.7675z"/>
			<g>
				<path style="fill:#C2975D;stroke:#000000;stroke-width:0.7;stroke-miterlimit:10;" d="M163.6618,175.0976
					c0,0,0.8213,2.0645,2.1631,2.0029c0.7158-0.0322,1.251-0.2636,1.5976-0.4736c-0.4179,0.4141-0.7959,1.1768,0.4707,2.166
					c0,0-1.9326,3.0039,0.044,4.3838c1.9746,1.3789,2.2998,1.8399,2.2998,1.8399s-0.7666-2.1631-0.21-2.8047
					c0.5557-0.6426,2.2617-2.3565,2.2617-2.3565s-1.496,1.8213,0.378,3.0166c1.1865,0.7569-0.2569,3.9326-0.2569,3.9326
					c3.669,0.7081,1.9112-5.4531,1.834-6.124c-0.0761-0.6689,0.9864-1.0781,0.9864-1.0781s0.371,1.5244,1.1357,1.8867
					c0.6699,0.3174,0.8271,1.0039,0.4248,2.0606c-0.8965,2.3545,1.3213,3.4638,1.3213,3.4638
					c-0.666-2.4404,0.2217-3.1054,1.1094-4.3261c0.6953-0.9561-1.2871-1.6973-0.1983-3.5967
					c1.8887-3.2959-0.6455-3.5625-0.1933-5.5918c0.332-1.5029,1.8789-1.875,0.1875-5.4258c-0.2344-0.4951-0.126-1.502,0.0859-2.5352
					c0.1543,0.1514,2.1631,1.6319,3.2227,1.1241c1.1289-0.542,1.5058-2.3272,1.2753-3.5498
					c-0.2285-1.2217,0.837-2.6309,2.1602-3.4346c1.3223-0.8027,2.9316-1.7061,3.1006-3.7217
					c0.1855-2.2168,2.3896-2.3887,2.3896-2.3887l2.5606-0.4482c0,0,0.4043,1.2236,3.043,2.3965
					c1.996,0.8867,3.0351,1.3945,3.6601,3.4375c0.3067,1.0039-1.2422,4.875-1.8857,6.5439c-1.7998,4.667-0.2803,3.4834-1.3311,6.211
					c-0.6455,1.6767,1.3311,2.7724,0.5547,5.2129c0,0-0.5547,1.4414-3.2168,2.8837c-1.1016,0.5967-4.9873,2.4102-3.3486,4.0264
					c1.6396,1.6162-0.4219,3.8477-0.4219,3.8477s1.9414-0.6289,2.6514-2.125c0.5957-1.252-0.045-2.2071,0.3437-2.8662
					c0.3135-0.5313,1.5527-1.5528,1.5527-1.5528s-0.955,0.6153,0.3965,2.1817c1.3516,1.5664,1.5948,1.0175,0.585,1.7275
					c-1.0117,0.71-0.3574,2.8936-0.3574,2.8936s0.0791-1.3545,1.2607-2.1446c1.9697-1.3174,1.0254-2.4804,1.0068-3.2226
					c-0.0185-0.7422,0.3965-1.4971,1.7881-1.4805c1.4639,0.0176,3.252-1.8066,2.6807-3.459
					c-0.4258-1.2305-0.3828-2.5127,0.0928-3.2998c1.0215-1.6836,0.6269-3.5859,0.6269-3.5859s1.0039,0.1758,1.8389,0.4697
					c0.8359,0.2939,1.2656,0.3691-0.0127,1.7715c-0.1084,0.1172-0.2051,0.2373-0.293,0.3574
					c-0.9648,1.3291-0.6386,2.4356-0.6386,2.4356s1.3613-2.7188,2.6084-3.0918c1.248-0.3731,2.1337-0.3663,0.8994-1.7637
					c-1.2334-1.3975-2.3662-3.3692-2.3662-3.3692l-0.8555-1.0039c0,0,1.5967,0.9854,2.626,1.0186
					c1.0293,0.0312,2.1504,0.375,2.0761,0.8047c-0.0761,0.4306,0.5879-1.6699-0.3662-2.1319
					c-0.9541-0.4628-2.582-0.4511-2.4052-1.455c0.1748-1.0039-3.0137-2.2354-2.67-3.3575c0.3438-1.123,1.6309-1.7011,0.3731-2.955
					c-1.2588-1.2549-2.0069-2.1221-2.0069-2.1221s1.2403-1.2481-0.0117-3.3877c-1.2519-2.1406-2.7676-5.2832-5.3232-5.8779
					c-2.5567-0.5948-3.8828-0.4444-3.8828-0.4444s-0.0323-1.8125,1.9013-1.705c1.9327,0.1064,3.7559,2.7031,3.7559,2.7031
					s-0.0332-2.9805-2.5264-3.9278c-2.7978-1.0625-4.748,1.1387-4.748,1.1387s-2.3477-2.6269-3.8711-0.6758
					c-0.8262,1.0577-2.5938-0.8291-4.3818-0.8603c-4.628-0.0791-5.7676,3.7715-5.7676,3.7715s-1.9463-0.9483-3.4375,0.2217
					c-1.336,1.0468-1.4951,2.6953-2.0235,3.3164c-0.5898,0.6953-1.832,0.875-2.8457,2.2832
					c-0.9199,1.2773-0.7314,3.7412-0.7314,3.7412s-0.0527,0.0117-0.1416,0.0342c0.4014,0.7285-0.2881,0.2519-0.4688,1.1611
					c-0.1611,0.8076-0.4658,1.2344-0.7763,1.9961c0.0302-0.0791-0.501,1.4824-0.4434,1.331
					c-0.0508,0.1387-0.2949,0.9151-0.3369,1.0567c-0.0645,0.2246-0.1689,1.2187-0.1074,0.2744
					c-0.0615,0.956,1.3662,1.1953,0.6982,1.9248c-0.04,0.0439-0.0957,0.0801-0.1396,0.123
					c0.7988,1.0313,1.1631,0.2539,0.7724,1.3907c0.2871-0.0078-0.998,1.5517-0.998,1.5517s0.4502,1.6699,0.0556,3.0791
					c-0.3935,1.4092,0.5274,2.9004,0.5274,2.9004s0.9805,1.6563-1.1436,2.3125
					C164.7693,176.1367,163.6618,175.0976,163.6618,175.0976z M179.112,165.5039c0.3242-1.5547,0.8838-3.1563,0.8838-3.1563
					l0.75,0.5606c0,0,1.2607,1.0429,0.8476,1.7099C181.2039,165.2509,179.3054,165.4814,179.112,165.5039z"/>
				<g>
					<path d="M183.7771,151.2402c2.0918-1.3604,5.0186-0.5147,5.0186-0.5147c-0.8008,0.0655-3.2715-0.54-4.4043,1.8868
						c-1.1328,2.4277,1.2197,2.665-0.8301,3.5879c-0.9326,0.4199-1.5508,0.6669-1.6084,1.3584
						c-0.0586,0.6923,1.0127,1.0126-0.0332,1.5908c-2.1914,1.2099-1.0586,3.5693-0.2666,4.3574c0,0-3.1787-1.2617-2.5264-3.0986
						c0.6504-1.837,1.7295-0.4522,1.3594-1.9766c-0.3691-1.5244-0.6738-2.6445,1.4766-3.3604
						C184.114,154.3554,182.7928,151.8808,183.7771,151.2402z"/>
					<path d="M204.3708,175.2402c-0.0039-0.1367-0.3301-1.3633,0.9873-2.4766c0.4267-0.3603,0.7685-0.6377,0.7422-0.6972
						c-0.5088-1.1807-3.2862-1.2305-2.8125-1.6338c2.0556-1.752,1.1093-4.4365,1.1093-4.4365s1.4629,2.08,2.1885,2.9365
						c0.7246,0.8574,1.877,2.3476,1.6787,3.1279c0,0,0.9541-0.2598-0.9804,0.2773
						C205.3493,172.874,204.3708,175.2402,204.3708,175.2402z"/>
					<path d="M178.7702,148.0117c0,0-4.8281,1.7851-4.8213,2.8818c0.0078,1.0947-0.0908,1.0869-1.2783,2.1817
						c-1.1875,1.0957-3.082,1.1357-2.5879,2.372c0.4932,1.2354,0.1435,2.4424-2.1143,4.2364
						c-1.2089,0.9609-0.2373,2.4355,0.8907,4.4218c1.1279,1.9854-1.9629,3.2198-1.7813,4.6289
						c0.1787,1.4082,1.3828,1.3106,1.043,4.17c-0.128,1.0839,1.6465,2.9248,0.4179,4.5146
						c-1.2285,1.5889-2.2089,2.6025-2.2089,2.6025s-0.6592-1.6484-0.626-2.0439c0.0332-0.3955-2.1572-0.3799-2.1572-0.3799
						l-0.6836-1.3515c0,0,3.0117,0.372,2.8476-1.2344c-0.164-1.6065-0.7285-2.6699-0.7285-2.6699l1.0049-4.0635
						c0,0-2.0078,0.5947-2.0254,1.9873c-0.0166,1.3926-1.0723,2.1367-1.3994,2.4375c-0.7549,0.7002-3.4268-0.2871-3.4268-0.2871
						s3.6319-0.7637,3.3106-1.8799c-0.5264-1.8223,1.501-3.6572,1.501-3.6572s-0.5186-1.3379,0.3066-3.2588
						c1.041-2.4268,1.8525-2.3008,1.8525-2.3008l0.2549-2.4512c0,0-0.9258,0.5996-1.1201,0.9014
						c-0.3203,0.4971-0.5918,2.291-0.5918,2.291s-0.8789-1.7373-0.7471-2.9502c0.1309-1.2129,2.7285-2.2607,2.7285-2.2607
						s0.8155-3.0596,1.4756-3.9571c0.6631-0.8994,3.7832-2.3711,3.7832-2.3711s1.1133-1.4003,2.3321-1.6962
						C175.4411,148.5293,178.7702,148.0117,178.7702,148.0117z"/>
				</g>
			</g>
			<path d="M199.6599,164.8457c0,0-0.3857,0.0185-0.7841-0.0782c-0.4463-0.1074-1.1514-0.4248-1.6582-0.4433
				c-0.959-0.0362-1.7295,0.1582-2.6338,0.6455c0,0,2.3545-0.4082,2.8642-0.2158c0.5108,0.1923,1.4082,0.5332,1.6807,0.4941
				C199.4001,165.208,199.6599,164.8457,199.6599,164.8457z"/>
			<path style="fill:#F4C6A1;" d="M195.6189,169.8056c0.3487-0.1679,0.8623-0.3203,1.2364-0.6855
				c0.832-0.8115,0.4492-1.2852-0.1084-1.7969c-0.7793-0.7168-1.1358-1.1191-1.3614-1.9092
				c-0.2256-0.79,0.0557-1.2754,0.0557-1.2754l-2.3018,0.2305l-0.9423,3.4385l0.3886,2.1631L195.6189,169.8056z"/>
			<path d="M189.864,171.5468c0.2012-0.5254,0.0948,0.1836,1.1934,0.25c0.5381,0.0332,2.374-0.4609,2.5088-0.4111
				c0.1894,0.0703,0.7412,0.499,0.7412,0.499s0.8506-0.0049,0.9102,0.1035c0.1279,0.2334,0.0312,0.8125-0.0313,1.1114
				c-0.0478,0.2285-0.457-0.2227-0.9834-0.4248c-0.5254-0.2022-0.8945-0.1875-1.7842-0.2276
				C191.5291,172.4072,189.6765,172.0351,189.864,171.5468z"/>
			<path d="M193.278,174.2587l1.0352,0.5176c0,0-0.5909,0.5176-1.1084,0.2217c-0.5176-0.2959-1.0352-0.8135-1.0352-0.8135
				L193.278,174.2587z"/>
			<path style="fill:#F4C6A1;stroke:#000000;stroke-width:0.7;stroke-miterlimit:10;" d="M268.9821,193.6308
				c-0.5547-0.0371-1.0723,0.0371-1.959-0.4805c-0.8877-0.5175-2.9912-0.7832-4.0674-0.7392c-1.8486,0.0732-7.1718-0.0742-8.7978,0
				c-1.627,0.0732-13.0137,0.2949-14.418,0.2217c-3.2763-0.1729-6.0635-0.5059-7.8379-0.5918
				c-0.8984-0.043-6.2851,0.5176-8.0595,0.7392c-1.7745,0.2217-5.9151,0.666-5.9151,0.666
				c-1.1631,0.2207-1.5322-4.5791-1.4043-7.3203c0.1475-3.1797,0.8867-4.8798,0.8867-4.8798s9.3164,0.4433,10.7207,0.4433
				c1.4053,0,4.1407-0.2959,6.0635-0.2959c1.3213,0,3.2354,0.1895,6.1367,0.5176c3.919,0.4443,13.3692,1.625,15.1573,1.9228
				c2.2187,0.3692,6.9511,0.8868,7.9121,0.8135c0.9609-0.0742,3.3232-1.2236,3.9922-1.9599
				c0.3691-0.4063,2.4394-2.7725,2.8095-3.2901c0.3702-0.5176,0.6651-1.2568,1.7744-1.2568c1.1094,0,7.542,0.5176,8.0596,0.7392
				c0,0,1.294,0.4073,1.3682,1.3311C281.4773,181.1347,269.5436,193.6679,268.9821,193.6308z"/>
			<path style="fill:none;stroke:#000000;stroke-width:0.4;stroke-miterlimit:10;" d="M195.4411,164.0273
				c0,0-0.1699,0.708,0.0557,1.498c0.2255,0.7891,0.4707,1.0811,1.25,1.7979c0.5576,0.5117,0.9404,0.9854,0.1084,1.7969
				c-0.3741,0.3652-0.8877,0.5176-1.2364,0.6855"/>
			<path d="M199.1951,163.8896c0,0-0.1025-0.9971-0.373-1.1719c-0.2715-0.1758-1.0625-0.2871-1.5606-0.2812
				c-0.4561,0.0068-0.915-0.0674-1.3066,0.1074c-0.1162,0.0518-0.2022,0.8213,0.1855,0.8105
				c0.4981-0.0146,1.1445-0.0664,1.7891-0.1132C198.3298,163.2119,199.1951,163.8896,199.1951,163.8896z"/>
			<path d="M194.073,161.3105c0.083,0.126,0.043,0.1826-0.0556,0.2773c-0.5537,0.5264-0.9161,0.25-1.8907-0.1699
				c-1.2148-0.5234-2.0322-1.0254-3.0439-1.0498c-1.1367-0.0283-3.1055,0.3877-3.1055,0.3877s2.1006-1.0859,3.4932-1.0254
				c1.3935,0.0596,2.1328,0.4219,2.8008,0.6377C192.9471,160.5859,193.8367,160.9511,194.073,161.3105z"/>
			<path d="M192.7693,162.3486c0,0-0.5908,0.0752-0.9697-0.0469c-0.4668-0.1494-1.0918-0.3857-1.9492-0.4971
				c-1.3545-0.1777-1.7364,0.376-2.8233,0.2364c-0.2881-0.0371-0.5498-0.0264-0.5498-0.0264s0.8408,0.4629,1.2354,0.4248
				c0.3281-0.0322,1.1035-0.1855,1.5654-0.2305c0.0977-0.0039,0.2139-0.0117,0.3057-0.0127
				c0.3672,0.0264,0.8388,0.1729,1.2002,0.2764c0.3173,0.1318,0.6464,0.2774,0.8808,0.3223
				c0.1865,0.0722,0.3145,0.0176,0.333,0.0156C192.5271,162.7666,192.7693,162.3486,192.7693,162.3486z"/>
			<path d="M189.6277,162.8984c0,0.4023,0.3428,0.7295,0.7647,0.7295c0.4209,0,0.7636-0.3272,0.7636-0.7295
				s-0.3427-0.7285-0.7636-0.7285C189.9705,162.1699,189.6277,162.4961,189.6277,162.8984z"/>
			<path d="M196.9099,165.2382c0,0.3467,0.2754,0.6289,0.6163,0.6289c0.3398,0,0.6162-0.2822,0.6162-0.6289
				c0-0.3476-0.2764-0.6279-0.6162-0.6279C197.1853,164.6103,196.9099,164.8906,196.9099,165.2382z"/>
			<path d="M189.2303,171.0839c0,0-0.4913,0.2129-0.5665,0.4102c-0.0761,0.1973-0.1562,0.2842-0.1562,0.2842
				s-0.1494-0.2998-0.0762-0.5528c0.0733-0.2519,0.377-0.2919,0.5713-0.2988c0.1934-0.0078,0.3897,0.0401,0.3897,0.0401
				L189.2303,171.0839z"/>
			<g>
				<path d="M195.367,165.9453c0,0.0644,0.0849,0.1172,0.1884,0.1172c0.1045,0,0.1885-0.0528,0.1885-0.1172
					c0-0.0645-0.084-0.1172-0.1885-0.1172C195.4519,165.8281,195.367,165.8808,195.367,165.9453z"/>
				<path d="M195.3689,166.6054c0,0.0928,0.1182,0.167,0.2666,0.167c0.1465,0,0.2666-0.0742,0.2666-0.167
					c0-0.0908-0.1201-0.165-0.2666-0.165C195.487,166.4404,195.3689,166.5146,195.3689,166.6054z"/>
				<path d="M194.6257,165.8554c0,0.0899,0.1162,0.1621,0.2607,0.1621c0.1436,0,0.2598-0.0722,0.2598-0.1621
					c0-0.0898-0.1162-0.1621-0.2598-0.1621C194.742,165.6933,194.6257,165.7656,194.6257,165.8554z"/>
				<path d="M194.117,166.5019c0,0.0645,0.084,0.1162,0.1875,0.1162c0.1054,0,0.1894-0.0517,0.1894-0.1162
					c0-0.0654-0.084-0.1172-0.1894-0.1172C194.201,166.3847,194.117,166.4365,194.117,166.5019z"/>
				<path d="M194.696,166.8798c0,0.0938,0.123,0.17,0.2734,0.17c0.1524,0,0.2744-0.0762,0.2744-0.17
					c0-0.0947-0.122-0.1709-0.2744-0.1709C194.819,166.7089,194.696,166.7851,194.696,166.8798z"/>
				<path d="M195.7791,167.1543c0,0.0644,0.0849,0.1171,0.1885,0.1171c0.1045,0,0.1884-0.0527,0.1884-0.1171
					c0-0.0645-0.0839-0.1172-0.1884-0.1172C195.864,167.0371,195.7791,167.0898,195.7791,167.1543z"/>
			</g>
			<path d="M191.1219,165.332c0,0.0986,0.1416,0.1777,0.3193,0.1777c0.1758,0,0.3184-0.0791,0.3184-0.1777
				s-0.1426-0.1787-0.3184-0.1787C191.2635,165.1533,191.1219,165.2334,191.1219,165.332z"/>
			<path d="M190.325,165.83c0,0.0987,0.1435,0.1778,0.3193,0.1778c0.1758,0,0.3194-0.0791,0.3194-0.1778
				c0-0.0986-0.1436-0.1787-0.3194-0.1787C190.4684,165.6513,190.325,165.7314,190.325,165.83z"/>
			<path d="M188.6647,165.8896c0,0.0986,0.1416,0.1777,0.3184,0.1777c0.1767,0,0.3183-0.0791,0.3183-0.1777
				c0-0.0986-0.1416-0.1787-0.3183-0.1787C188.8064,165.7109,188.6647,165.791,188.6647,165.8896z"/>
			<path d="M189.6404,165.2431c0,0.0977,0.1416,0.1778,0.3184,0.1778c0.1767,0,0.3183-0.0801,0.3183-0.1778
				c0-0.0986-0.1416-0.1787-0.3183-0.1787C189.782,165.0644,189.6404,165.1445,189.6404,165.2431z"/>
			<path d="M188.0641,164.5957c0,0.0986,0.1416,0.1787,0.3184,0.1787s0.3193-0.0801,0.3193-0.1787
				c0-0.0977-0.1425-0.1778-0.3193-0.1778S188.0641,164.498,188.0641,164.5957z"/>
			<path d="M191.8786,166.7607c0,0.0986,0.1416,0.1787,0.3184,0.1787c0.1767,0,0.3203-0.0801,0.3203-0.1787
				s-0.1436-0.1777-0.3203-0.1777C192.0202,166.583,191.8786,166.6621,191.8786,166.7607z"/>
			<path d="M196.9792,166.9824c0,0.0986,0.1435,0.1787,0.3193,0.1787s0.3184-0.0801,0.3184-0.1787
				c0-0.0987-0.1426-0.1787-0.3184-0.1787S196.9792,166.8837,196.9792,166.9824z"/>
			<path d="M194.2791,169.1289c0.1992-0.5752,0.9756-0.4756,1.2012-0.1495c0.0664,0.0967-0.3184,0.0235-0.4512,0.0997
				C194.5594,169.3505,194.0974,169.6503,194.2791,169.1289z"/>
			<path d="M205.0076,166.6064c0,0-1.2764-0.8877-2.0527-1.9961c-0.9385-1.3418-0.9981-2.6621-0.9981-2.6621
				s-1.0537,1.1641,0.167,3.1611c0.417,0.6817,1.042,0.834,1.3858,1.6075c0.5664,1.2744,0.624,2.0791,0.5546,2.496
				c-0.1113,0.6651-0.8867,1.1641-0.8867,1.1641s1.7735,0.9981,2.5508-0.665C205.8972,169.3496,205.0076,166.6064,205.0076,166.6064
				z"/>
		</g>
		<g>
			<path style="fill:none;stroke:#FFFFFF;stroke-width:0.8;stroke-miterlimit:10;" d="M231.8279,81.9472l-40.3701,87.3946
				l-0.5918,4.5107l0.2959,2.4394c0,0,46.9512,106.6192,46.9512,107.211"/>
			<path style="fill:#BCBCBA;stroke:#000000;stroke-width:0.7;stroke-miterlimit:10;" d="M265.5807,253.1796
				c-3.4082,4.3741-12.4951,11.5801-15.8232,14.4629c-3.3262,2.8838-5.2539,5.3575-7.541,9.3164
				c-2.8838,4.9913-3.2168,9.8711-3.2168,9.8711c-0.0547,0.4991-0.2217,0.6651-0.4434,0.8321
				c-0.2217,0.166-0.6093,0.0547-0.832-0.0557c-0.2217-0.1113-0.2773-0.4443-0.2773-0.4443s0.333-5.9883,2.1074-10.2032
				c1.7744-4.2148,4.6582-8.207,7.9853-11.0908c3.3272-2.8838,11.3125-9.039,14.6397-13.4746v-0.0557
				c0,0,2.7177-3.4384,5.4345-10.5361c2.5772-6.7324,4.2149-22.1816,4.3252-23.1797c0.1114-0.998-0.998-68.4306-0.998-68.4306
				s-0.9424-8.2071-3.1602-15.9707c-2.2187-7.7627-5.7119-13.586-9.039-18.0215c-3.3282-4.4365-14.8623-14.0303-18.1895-16.9141
				c-3.3271-2.8828-6.2109-6.876-7.9853-11.0908c-1.7744-4.2139-2.1065-10.2031-2.1065-10.2031s0.0547-0.333,0.2764-0.4434
				c0.2226-0.1113,0.6103-0.2217,0.832-0.0557c0.2217,0.1661,0.3887,0.3331,0.4444,0.8321c0,0,0.332,4.8799,3.2158,9.8701
				c2.2881,3.96,5.4121,8.0117,8.7617,10.8691c3.7705,3.2168,14.5029,11.7627,17.9111,16.1377
				c3.7158,4.7686,6.3594,9.8907,9.1504,17.4678c3.1055,8.4287,6.211,18.9648,6.211,18.9648s-0.8877,66.5997-0.9981,67.5987
				c-0.1113,0.998-2.2187,16.247-4.9912,22.9023c-2.7725,6.6543-5.3232,10.4805-5.3232,10.4805L265.5807,253.1796z"/>
			<g>
				<path style="fill:#E73B4B;" d="M204.4705,172.7988l-4.4356-1.9229c0,0-1.4423-0.3144-2.0703,0.8877
					c-0.4599,0.8789,0.0371,1.2754,0.0371,1.2754l6.3213,0.0557L204.4705,172.7988z"/>
				<path style="fill:#E73B4B;" d="M204.4705,174l-4.4356,1.9228c0,0-1.6084,0.166-2.0703-0.8877
					c-0.3984-0.9082,0.0733-1.2939,0.0733-1.2939l6.2851-0.0371L204.4705,174z"/>
				<path style="fill:#BCBCBA;" d="M286.0984,173.4824l-95.6758,0.3701c0,0-0.2216-0.0742-0.2216-0.3701
					s0.2216-0.4434,0.2216-0.4434l95.6758-0.3701V173.4824z"/>
				<path style="fill:#E73B4B;" d="M194.4158,173.8525v-0.8135h-3.9932c0,0-0.2216,0.1475-0.2216,0.4434
					s0.2216,0.3701,0.2216,0.3701H194.4158z"/>
				<path style="stroke:#000000;stroke-width:0.4;stroke-miterlimit:10;" d="M282.365,173.4638v-0.8135h3.9922
					c0,0,0.2227,0.1485,0.2227,0.4444c0,0.2949-0.2227,0.3691-0.2227,0.3691H282.365z"/>
				<rect x="197.946" y="172.9834" style="fill:#E73B4B;" width="6.4697" height="0.8134"/>
				<path style="fill:none;stroke:#000000;stroke-width:0.4;stroke-miterlimit:10;" d="M286.0984,173.4824l-95.6758,0.3701
					c0,0-0.2216-0.0742-0.2216-0.3701s0.2216-0.4434,0.2216-0.4434l95.6758-0.3701V173.4824z"/>
			</g>
			<path style="fill:#3CB3B8;" d="M273.9724,141.541c0,0-3.4746-0.4248-4.6582,0.4619c-1.1826,0.8877-1.6074,1.4795-1.7734,3.2539
				c-0.3633,3.873-1.8486,7.6709-1.2578,9.7412c0.5918,2.0703,0.8877,2.0703,2.3662,4.4365
				c1.4785,2.3662,1.7744,3.5489,1.4785,7.3936s-1.7744,6.5068-0.8867,10.9433c0.3887,1.9454,1.7187,1.293,1.4228,4.251
				c-0.2959,2.958-2.6054,5.8037-2.6054,7.874c0,2.0704-0.2969,2.3663,0.5908,4.4366c0.8877,2.0703,1.7744,2.958,1.4785,5.915
				c-0.2959,2.958-2.0693,4.1406-1.7744,7.6895c0.2959,3.5498,0.8877,8.873,1.4785,10.3515c0.5918,1.4785,1.1836,2.958,3.2539,2.958
				c2.0703,0,3.2539-4.1406,4.4356-6.8027c1.1836-2.6621,3.2539-6.2109,2.6621-8.8721c-0.5908-2.6621-2.0703-2.0703-2.0703-6.5068
				c0-4.4365,0.2959-6.8027,0.8877-9.7598c0.5918-2.958,0.5918-4.7324,0.5918-6.8027s0-9.4639,0-9.4639
				s-2.0713-3.2539-1.7745-7.6894c0.295-4.4366,1.0352-6.8028,0.4434-10.6475C277.6696,150.8574,273.9724,141.541,273.9724,141.541z
				"/>
			<path style="fill:#7BC5C7;" d="M272.1979,145.5341l1.461,75.6387c0,0,2.125-1.4424,2.7168-4.1035
				c0.5918-2.6621,1.1455-14.751,1.1455-14.751s-1.1817-2.0703-1.1817-4.7324c0-2.6611,0.5908-3.5488,0.5908-3.5488l-0.5908-41.1094
				l-2.958-8.5772L272.1979,145.5341z"/>
			<path style="fill:none;stroke:#000000;stroke-width:0.7;stroke-miterlimit:10;" d="M273.9724,141.541
				c0,0-3.4746-0.4248-4.6582,0.4619c-1.1826,0.8877-1.5146,1.1816-1.7734,3.2539c-0.5,3.9922-1.8486,7.6709-1.2578,9.7412
				c0.5918,2.0703,0.8877,2.0703,2.3662,4.4365c1.4785,2.3662,1.7744,3.5489,1.4785,7.3936s-1.7744,6.5068-0.8867,10.9433
				c0.3887,1.9454,1.7187,1.293,1.4228,4.251c-0.2959,2.958-2.6054,5.8037-2.6054,7.874c0,2.0704-0.2969,2.3663,0.5908,4.4366
				c0.8877,2.0703,1.7744,2.958,1.4785,5.915c-0.2959,2.958-2.0693,4.1406-1.7744,7.6895c0.2959,3.5498,0.8877,8.873,1.4785,10.3515
				c0.5918,1.4785,1.1836,2.958,3.2539,2.958c2.0703,0,3.2539-4.1406,4.4356-6.8027c1.1836-2.6621,3.2539-6.2109,2.6621-8.8721
				c-0.5908-2.6621-2.0703-2.0703-2.0703-6.5068c0-4.4365,0.2959-6.8027,0.8877-9.7598c0.5918-2.958,0.5918-4.7324,0.5918-6.8027
				s0-9.4639,0-9.4639s-2.0713-3.2539-1.7745-7.6894c0.295-4.4366,1.1827-6.8028,0.5909-10.6475
				C277.8181,150.8574,273.9724,141.541,273.9724,141.541z"/>
			<path style="fill:#81807A;stroke:#000000;stroke-width:0.4;stroke-miterlimit:10;" d="M275.7107,146.0878l2.0518-0.499
				c0,0,0.7763,0.167,1.3857,1.8301c0.6289,1.7129,0.2774,2.8838,0.2774,2.8838l-2.0518,0.666L275.7107,146.0878z"/>
			<path style="fill:#81807A;stroke:#000000;stroke-width:0.4;stroke-miterlimit:10;" d="M271.3299,141.375
				c0.166-0.0557,2.2734-0.1661,2.5507,0.1103c0.2774,0.2774,4.6582,10.7588,4.7686,11.5342
				c0.1113,0.7773-0.2217,2.1631-0.2217,2.1631s-2.4951,0.9424-2.7168,0.7763C275.488,155.7929,271.3299,141.375,271.3299,141.375z"
				/>
			<path style="fill:#81807A;stroke:#000000;stroke-width:0.4;stroke-miterlimit:10;" d="M277.6707,215.3408l2.083,0.3486
				c0,0,0.7617-0.2226,1.249-1.9267c0.501-1.754,0.0654-2.8965,0.0654-2.8965l-2.0947-0.5137L277.6707,215.3408z"/>
			<path style="fill:#81807A;stroke:#000000;stroke-width:0.4;stroke-miterlimit:10;" d="M273.6453,220.3613
				c0.1699,0.0439,2.2803,0,2.5361-0.2969c0.2559-0.2959,3.8604-11.0683,3.9141-11.8516c0.0547-0.7822-0.3789-2.1406-0.3789-2.1406
				s-2.5576-0.7578-2.7666-0.5761C276.741,205.6787,273.6453,220.3613,273.6453,220.3613z"/>
		</g>
		<path style="fill:#F4C6A1;stroke:#000000;stroke-width:0.7;stroke-linecap:round;stroke-miterlimit:10;" d="M279.9255,180.1367
			c0,0-0.2598,0.5176-0.5557,1.4785c-0.2949,0.9619-0.2949,1.2578-0.0732,1.6269c0.2216,0.3702,0.665,0.2959,0.665,0.2959
			l0.5332-0.3193l0.2432-0.2725c0.333-0.332,0.5175-0.5537,0.5918-1.5156c0.0742-0.9609,0.2216-0.8506,0-1.5156"/>
		<path style="fill:#F4C6A1;stroke:#000000;stroke-width:0.7;stroke-miterlimit:10;" d="M279.075,189.4531
			c0,0,0.4433,0.2217,0.0732,0.9609c-0.3691,0.7393-0.497,0.7735-0.5547,1.0723c-0.1474,0.7764-0.7754,0.7031-0.7754,0.7031
			c-0.2968-0.0742-0.5918-0.2959-0.666-0.9619c-0.0742-0.665,0.5547-0.9981,0.8506-1.2197L279.075,189.4531z"/>
		<path d="M178.1492,272.708c0.6719,7.3984,2.374,22.4453,2.752,26.1455c0.3808,3.6992,2.6679,11.0322,2.8671,15.6152
			c0.2002,4.582,2.2198,23.127,1.7168,26.6465c-0.5029,3.5195-1.2002,7.5947-1.3525,9.1318
			c-0.1504,1.5362-1.2041,2.4561-1.165,3.3301c0.0371,0.8721-0.8428,3.6406-0.8428,3.6406s8.0264,3.585,11.4033,0.8145
			c0,0,2.6455-5.6348,3.3467-9.6006c0.7021-3.9658,3.1211-18.6416,3.8994-25.8897c0.7773-7.248-0.167-16.1884-0.6885-23.1611
			c-0.5224-6.9726,1.1983-17.6504,1.7735-22.0478c0.3388-2.6075,2.2978-12.0938,2.2324-16.4932
			c-0.0645-4.3984-4.5-18.5947-4.5-18.5947l-31.3506-0.7393l-9.7598-2.1445c0,0-1.2197,5.2129-1.331,10.6474
			c0,0-2.9873,11.8106-4.3252,23.1797c-0.8867,7.542-2.5879,17.3389-2.9209,21.9961c-0.2432,3.4141,0.2959,8.4297-0.5,15.8477
			c-0.9248,8.6113,1.6836,17.8681,0.9433,29.7461c-0.2578,4.1269,1.0625,3.8896,0.7657,4.5498
			c-0.295,0.6601-0.9502,2.8047-0.4541,3.332c0.4951,0.5264,0.8261,1.2842,2.1464,1.875c1.3194,0.5918,4.7833,0.6182,5.8702-0.1748
			c1.0859-0.793,3.0293-2.0312,3.0595-3.0527c0.0313-1.0225-0.833-4.9463-0.4755-7.6514
			c0.3583-2.7041,2.4541-11.0859,3.0263-14.3447c0.8496-4.8399,1.4483-15.9668,1.4414-19.627
			c-0.0068-3.6611,2.1045-8.2324,2.9571-11.6826c0.8544-3.4512,3.8984-10.4492,5.0039-12.706
			c1.1064-2.2569,3.2773-10.3623,3.2773-10.3623C177.9969,271.4394,178.0007,271.081,178.1492,272.708z"/>
		<path style="fill:#F4C6A1;stroke:#000000;stroke-width:0.7;stroke-miterlimit:10;" d="M280.11,186.791
			c0,0,0.3692,0.1484,0.0733,1.1836c-0.2949,1.0351-1.1084,1.4785-1.1084,1.4785l-0.5918,0.3701
			c-0.6651,0.2959-1.0723,0.4805-1.294,0.332c-0.2216-0.1474-0.4921-0.3759-0.3701-1.1084
			c0.0742-0.4443,0.2227-0.8134,0.6289-1.1465c0.7285-0.5957,0.8877-0.5175,1.1826-0.5917L280.11,186.791z"/>
		<path style="fill:#F4C6A1;stroke:#000000;stroke-width:0.7;stroke-miterlimit:10;" d="M278.6678,187.4941
			c0,0-0.7022-0.333-0.7022-1.1465c0-0.5176,0.2217-0.8867,0.665-1.2568c0.9024-0.752,1.5938-1.3877,1.3311-1.5528l0.8135-0.0742
			c0.3691,0.8877,0.5918,1.8487,0.2217,2.5147c-0.3692,0.665-0.8868,0.8125-0.8868,0.8125L278.6678,187.4941z"/>
		<path style="fill:#F4C6A1;stroke:#000000;stroke-width:0.7;stroke-miterlimit:10;" d="M266.8005,191.3017
			c0.2226,0.0733,1.331,0,2.1445-0.8135c0.8135-0.8134,1.9219-2.3662,2.292-3.1796c0.3701-0.8125,0.5918-2.1436,0.5918-2.1436
			s0.8135-0.0742,1.4785-0.1484c0.665-0.0733,1.4424-0.4063,1.4424-0.4063s0.5537,0.6279,1.4414,0.8506
			c0.8867,0.2217,1.8115,0.2588,2.1816-0.0371c0.3692-0.2959,0.9239-0.8506,0.295-1.3311c-0.67-0.5127-1.1465-0.8506-1.959-1.5898
			c-0.8135-0.7393-0.4434-0.8877-1.2569-1.0352c-0.8134-0.1474-2.2187,0.1114-2.958-0.1103
			c-0.7627-0.2295-2.1445-0.7031-2.1445-0.7031"/>
		<path style="fill:#BCBCBA;stroke:#000000;stroke-width:0.7;stroke-miterlimit:10;" d="M433.0876,129.415
			c0,0,2.6621,0.1484,5.914,0.6016c14.0879,1.9658,24.8067,23.4267,23.6621,51.0078c-1.1455,27.581-13.914,48.8027-28.1269,48.2129
			c-2.1582-0.0899-6.625-0.5967-6.625-0.5967L433.0876,129.415z"/>
		<path style="fill:#F4F2DD;stroke:#000000;stroke-width:0.7;stroke-miterlimit:10;" d="M456.1424,180.1572
			c-1.1397,27.4658-13.5821,49.2529-27.7911,48.664c-14.208-0.5898-24.8017-23.333-23.6621-50.7988
			c1.1407-27.4658,13.5821-49.2529,27.7911-48.664C446.6883,129.9482,457.283,152.6914,456.1424,180.1572z"/>
		<path style="fill:#57544B;stroke:#000000;stroke-width:0.7;stroke-miterlimit:10;" d="M450.9763,179.9433
			c-0.9121,21.9492-10.8554,39.3613-22.2099,38.8906c-11.3545-0.4716-19.8213-18.6474-18.9111-40.5976
			c0.9121-21.9492,10.8554-39.3613,22.2099-38.8906C443.4207,139.8173,451.8864,157.9931,450.9763,179.9433z"/>
		<path style="fill:#3CB3B8;stroke:#000000;stroke-width:0.7;stroke-miterlimit:10;" d="M445.3102,179.7265
			c-0.6797,16.375-8.0976,29.3643-16.5683,29.0127c-8.4707-0.3515-14.7871-13.9111-14.1074-30.2861
			c0.6796-16.375,8.0976-29.3643,16.5683-29.0127C439.6736,149.7919,445.99,163.3515,445.3102,179.7265z"/>
		<path style="fill:#E73B4B;stroke:#000000;stroke-width:0.7;stroke-miterlimit:10;" d="M439.8455,179.5175
			c-0.458,11.0147-5.4473,19.751-11.1445,19.5147c-5.6973-0.2363-9.9454-9.3565-9.4883-20.3701
			c0.457-11.0147,5.4463-19.751,11.1435-19.5147C436.0535,159.3837,440.3025,168.5039,439.8455,179.5175z"/>
		<path style="fill:#EEEA6E;stroke:#000000;stroke-width:0.7;stroke-miterlimit:10;" d="M433.8376,178.9482
			c-0.2188,5.292-2.5948,9.4902-5.3047,9.3779c-2.7109-0.1123-4.7305-4.4931-4.5117-9.7851c0.2207-5.291,2.5957-9.4893,5.3066-9.377
			C432.0388,169.2763,434.0583,173.6572,433.8376,178.9482z"/>
		<path style="stroke:#000000;stroke-width:0.7;stroke-miterlimit:10;" d="M430.6003,178.9746
			c-0.0879,2.1191-1.0401,3.8007-2.125,3.7558c-1.0869-0.0449-1.8955-1.7998-1.8076-3.9189c0.0888-2.1201,1.04-3.8008,2.1259-3.7559
			C429.8787,175.1005,430.6883,176.8554,430.6003,178.9746z"/>
		<path style="fill:none;stroke:#E73B4B;stroke-width:1.3254;stroke-linecap:round;stroke-miterlimit:10;" d="M192.6404,174.7392
			c0,0,15.0684,19.5938,40.8145,19.5938c23.0683,0,34.6035-18.1885,34.6035-18.1885s11.0722-18.7041,35.0469-17.7451
			c22.1806,0.8867,33.2714,13.3086,33.2714,13.3086s18.4844,16.414,31.9414,17.3017c13.5957,0.8965,25.2872-9.3164,31.0547-10.2041
			c5.7666-0.8867,29.2979-0.4433,29.2979-0.4433"/>
		<path style="fill:none;stroke:#3CB3B8;stroke-width:1.3254;stroke-linecap:round;stroke-miterlimit:10;" d="M428.6707,178.8056
			c0,0-36.8399-0.8867-45.7129-0.8867c-8.8721,0-13.9248,3.334-21.7373,8.4287c-10.2041,6.6543-21.7383-1.331-28.3926-5.7676
			c-4.209-2.8047-12.4219-15.083-28.8359-14.6386c-16.4141,0.4433-23.5127,10.2031-23.5127,10.2031s-9.0205,5.4707-23.9561,4.4355
			c-14.9355-1.0351-18.1836-22.9287-36.3769-23.0683c-19.2246-0.1475-27.4317,13.3086-28.6885,16.2666"/>
		<path style="fill:none;stroke:#6CA342;stroke-width:1.3254;stroke-linecap:round;stroke-miterlimit:10;" d="M428.6707,178.8056
			c0,0-39.0586-1.9219-48.5967,1.9971c-9.3437,3.8389-17.5,4.8096-27.0605,3.3271c-9.5391-1.4795-14.2706-6.6552-18.8545-12.4218
			c-4.295-5.4024-6.9053-17.1944-19.0762-23.9561c-11.9775-6.6543-23.9561,0.666-28.8359,3.9922
			c-4.8799,3.3281-11.5342,10.2041-27.0616,9.7607c-19.0732-0.5449-18.6562-17.1357-39.1132-18.1894
			c-17.2276-0.8867-23.7256,9.0908-26.1006,14.1963c-2.9571,6.3584-3.1787,12.6435-3.5489,16.3408"/>
		<path style="fill:none;stroke:#ED5792;stroke-width:1.3254;stroke-linecap:round;stroke-miterlimit:10;" d="M428.2263,179.4716
			c0,0-21.7001-1.9795-41.0507-0.5488c-10.4287,0.7705-19.6787-0.9892-23.959-2.335c-7.7637-2.4394-19.7422-5.7675-30.832-0.4433
			c-11.0909,5.3232-15.9708,15.083-19.5196,23.956c-2.5215,6.3008-5.6992,19.5616-13.7529,20.8506
			c-11.0908,1.7744-15.3223-4.8867-16.415-5.7675c-8.8536-7.1348-10.9053-30.1153-29.7227-29.7227
			c-21.294,0.4434-20.4424,32.0644-38.1523,33.2715c-19.5196,1.331-23.5118-32.8281-23.5118-32.8281
			c-0.666-4.8799-1.4052-10.6475-1.4052-10.6475"/>
		<path style="fill:none;stroke:#8E4586;stroke-width:1.3254;stroke-linecap:round;stroke-miterlimit:10;" d="M428.6707,179.6933
			c0,0-21.7569-0.4433-31.96-1.331c-10.2031-0.8877-15.5273-5.7666-25.7304-7.542c-10.2041-1.7744-20.4073-1.3301-29.2803,6.2109
			c-7.5957,6.457-19.0752,26.6182-29.7227,30.6113c-10.6474,3.9922-18.1885-2.2187-18.1885-2.2187
			c-12.3671-5.8037-15.5273-31.4981-35.0468-34.6035c-19.5196-3.1055-24.4424,29.8877-40.3711,31.0547
			c-20.1846,1.4785-27.3565-26.4698-27.3565-26.4698"/>
		<path style="fill:none;stroke:#EEEA6E;stroke-width:1.3254;stroke-linecap:round;stroke-miterlimit:10;" d="M192.1228,175.0351
			c0,0,18.2627,35.7119,44.4375,35.7119c19.9678,0,26.6172-31.9414,55.4532-30.6103c23.9355,1.1054,31.5146,27.541,53.2363,28.3926
			c22.625,0.8867,25.2871-28.836,42.5879-29.2793c10.6806-0.2745,40.833-0.4444,40.833-0.4444"/>
		<g>
			<path style="fill:#F4C6A1;stroke:#000000;stroke-width:0.7;stroke-miterlimit:10;" d="M145.6423,190.4697
				c0,0-8.1602-4.7871-10.4512-7.375c-1.5791-1.7832-2.4639-2.1817-2.9805-3.9893c-0.5166-1.8086-1.0918-3.4287,1.0332-4.6504
				c2.4649-1.416,4.6084-2.8213,8.4532-3.2646c3.9912-0.46,11.1455-0.541,15.4531-0.3701
				c5.5049,0.2197,12.5273,0.1621,13.3095,0.1484c1.8077-0.0312,3.501-0.4219,4.584-1.7744
				c0.5909-0.7393,1.1426-2.4072,2.1114-3.2627c0.9941-0.8779,2.8095-3.5,3.7295-3.4658c0.497,0.0185,1.2958,0.0879,2.0244,0.0928
				c0.5547,0.0029,0.9423-0.0284,1.4687,0.0039c0.4971,0.0293,0.8125,0.2441,0.7842,0.5273
				c-0.1094,1.0918-1.0156,1.4102-2.0039,1.7139c-0.3604,0.1113-0.7207,0.1386-1.0254,0.1113c0,0-0.5479,0.8594-0.7305,1.1738
				c-0.2675,0.4619-0.8877,1.1826-0.8896,1.3926c-0.0098,0.8164,2.5166,0.9736,2.5166,0.9736s5.4775-0.9629,5.915-1.0351
				c0.8867-0.1485,3.6319,1.1201,4.2139,1.9219c0.6553,0.9023,0.5273,2.5312-0.2471,2.5312c-0.7754,0-0.876-0.8711-2.7842-1.3477
				c-0.5918-0.1484-2.9121,0.5059-4.4355,0.8868c-0.5918,0.1484-0.0127,0.9765-0.0127,0.9765s3.583,0.5508,4.4482,0.7979
				c0.5176,0.1484,3.4746,1.0351,3.3008,2.0439c-0.2197,1.2725-1.1601,1.293-2.4131,1.1358c-1.1836-0.1475-2.4492-0.25-2.4492-0.25
				s0.2471,0.4687-0.0283,1.3584c-0.2305,0.748-0.6875,0.8017-1.5898,0.8877c0,0,0.9394,0.9267,0,1.5527
				c-0.8868,0.5918-2.9571,0.3701-5.4014,0.4814c-1.3242,0.0606-3.542,0-5.6153-0.4814c-1.3769-0.3193-2.583-0.4971-3.622-0.8867
				c-0.9004-0.3379-12.0391,2.1465-15.8975,2.5869c-2.5879,0.2959-3.623,0.3701-3.623,0.3701s0.4795,1.2617-0.2959,3.8447
				c-0.7744,2.583-1.9981,4.5215-3.75,5.4151C147.7605,191.7451,145.6423,190.4697,145.6423,190.4697z"/>
			<path style="fill:none;stroke:#000000;stroke-width:0.7;stroke-miterlimit:10;" d="M145.616,181.3935
				c0.1475,0.2217,4.7324,0.7393,7.1719,0.5918"/>
			<path style="fill:none;stroke:#000000;stroke-width:0.4;stroke-miterlimit:10;" d="M184.3504,175.0078
				c0,0,2.0791,0.499,2.8564,0.665c0.7481,0.1602,1.6904,0.416,1.6904,0.416"/>
			<path style="fill:none;stroke:#000000;stroke-width:0.4;stroke-miterlimit:10;" d="M184.1375,177.6972
				c0.2959,0.0742,2.1445,0.3692,2.8096,0.6651"/>
			<path style="fill:none;stroke:#000000;stroke-width:0.4;stroke-miterlimit:10;" d="M181.3279,164.3144
				c0,0,0.5918,0.5176,1.1094,0.5176"/>
		</g>
	</g>
</g>
</svg>
