<?xml version="1.0" encoding="iso-8859-1"?>
<!-- Generator: Adobe Illustrator 25.0.1, SVG Export Plug-In . SVG Version: 6.00 Build 0)  -->
<svg version="1.1" id="Assoziationen_x5F_Illustrationen"
	 xmlns="http://www.w3.org/2000/svg" xmlns:xlink="http://www.w3.org/1999/xlink" x="0px" y="0px" viewBox="0 0 618.6378 380.435"
	 style="enable-background:new 0 0 618.6378 380.435;" xml:space="preserve">
<g id="_x32__x5F_5_Dreidimensionalit&#xE4;t_Lokalisierung">
	<path style="fill:#E3E3E2;" d="M164.485,189.3686c0,0,13.958-34.3828,15.4903-33.8731c1.5312,0.5108,77.4462-2.2128,77.4462-2.2128
		s51.4043-13.6163,51.7452-14.6377c0.3398-1.0215,7.7441-18.7666,7.7441-18.7666s22.2129,4.3408,31.915,5.873
		c16.9776,2.6807,29.7452,2.9356,29.7452,2.9356l97.7441,87.915c0,0-17.0215,1.8721-30.9785,0.8516
		c-11.25-0.8233-34.8516-6.043-34.8516-6.043l-69.6592,32.9365l-6.8086,10.2979c0,0-22.8505,2.9785-40.1699,4.3408
		c-12.2178,0.9599-45.6172,2.7226-45.6172,2.7226L164.485,189.3686z"/>
	<path style="fill:#FFFFFF;" d="M179.8044,155.4955l69.3193,106.2129c0,0-26.085,14.9786-38.3399,20.5957
		c-12.2558,5.6172-44.5957,17.7022-44.5957,17.7022L112.571,183.0707c0,0,23.8623-5.5517,39.83-12.5966
		C169.7624,162.8149,179.8044,155.4955,179.8044,155.4955z"/>
	<path style="fill:#FFFFFF;" d="M316.6559,119.8784l94.2129,91.4043c0,0-19.1494,14.5107-36,24.2128
		c-21.5801,12.4248-40.7236,19.3194-40.7236,19.3194l-81.3194-101.2764c0,0,22.7022-6.7588,37.958-15.2344
		C309.1667,128.0912,316.6559,119.8784,316.6559,119.8784z"/>
	<path style="fill:#3CB3B8;" d="M164.485,189.3686c0,0,16.3408-30.2979,17.8731-29.7871
		c1.5312,0.5097,74.5527-1.1924,74.5527-1.1924s53.2773-14.2979,53.6172-15.3184c0.3408-1.0214,9.7021-19.7451,9.7021-19.7451
		s18.6289,4.2656,27.0635,5.4473c17.0215,2.3828,27.916,2.7226,27.916,2.7226l91.2334,81.0215c0,0-11.2334,1.0215-25.1914,0
		c-11.251-0.8232-35.3623-5.83-35.3623-5.83l-69.1484,32.7236l-6.7237,10.1279c0,0-25.2763,4.1699-40.2548,4.5108
		c-12.252,0.2783-44.4688,2.0419-44.4688,2.0419L164.485,189.3686z"/>
	<path style="fill:#7BC5C7;" d="M182.3581,159.5815l63.3193,96.5097c0,0-21.958,13.2774-34.2129,18.8946
		c-12.2559,5.6162-40.8516,16.8506-40.8516,16.8506l-50.5527-106.2129c0,0,17.7354-3.6787,33.7022-10.7237
		C171.1237,167.2407,182.3581,159.5815,182.3581,159.5815z"/>
	<path style="fill:#7BC5C7;" d="M320.2301,123.3256l85.958,83.4043c0,0-18.5537,14.1279-35.4043,23.8301
		c-21.58,12.4248-40.8515,18.8936-40.8515,18.8936l-73.1914-91.0645c0,0,20.1484-7.1836,35.4043-15.6592
		C310.528,132.517,320.2301,123.3256,320.2301,123.3256z"/>
	<path style="opacity:0.65;fill:#F4F2DD;" d="M426.4538,195.476c-2.4317,0.4854-4.8008,0.1485-6.3418-1.1308
		c-1.9444-1.6133-4.2119-1.8536-6.3106-2.7569c-3.0869-1.3291-6.3183-0.75-9.4619-0.6113
		c-1.5059,0.0664-2.6406-0.2295-3.7881-0.9815c-1.6123-1.0556-3.2832-2.039-4.6465-3.4248
		c-0.289-0.2949-0.8193-0.5927-0.6552-1.0722c0.1787-0.5215,0.7656-0.3418,1.1816-0.3408c1.0459,0.0029,1.9111-0.2461,2.292-1.3467
		c0.127-0.3653,0.4434-0.3907,0.752-0.4502c1.8105-0.3477,3.6376-0.293,5.4638-0.2178c0.169,0.0068,0.4258,0.0352,0.4893,0.1426
		c0.8984,1.5224,2.5107,1.833,3.9736,2.4238c0.6621,0.2676,1.3047,0.2803,1.9629,0.167c1.6543-0.2861,3.0303,0.2617,4.5352,0.9688
		c1.4013,0.6591,2.7763,1.4375,4.2793,1.9521c2.0947,0.7168,4.1347,1.6895,5.5761,3.5156c0.2696,0.3408,0.1709,0.7705,0.1836,1.1641
		C425.9606,194.1323,425.8405,194.812,426.4538,195.476z"/>
	<path style="opacity:0.65;fill:#F4F2DD;" d="M333.5309,211.0854c0.0469,1.1455-0.9834,1.4111-1.7305,1.7724
		c-0.5947,0.2881-1.746-0.8212-1.8017-1.5527c-0.0508-0.6494,0.1006-1.331-0.4649-1.8799
		c-0.2285-0.2226-0.2168-0.6523,0.0352-0.8574c0.5947-0.4824,0.4541-1.3232,1.0117-1.8418c0.374-0.3476,0.0352-1.3857,1.0645-1.1416
		c0.8203,0.1953,1.1035,0.8994,1.2021,1.5947C333.0319,208.4809,333.8083,209.6733,333.5309,211.0854z"/>
	<path style="opacity:0.65;fill:#F4F2DD;" d="M381.0202,176.5463c-1.4981,0.0293-2.8731-0.4424-3.9512-1.3701
		c-0.4805-0.4141-0.8672-0.4971-1.375-0.501c-1.6621-0.0117-3.3242-0.0039-4.9941-0.1924c1.7187-0.9208,3.3945-1.3974,5.3935-0.7382
		C377.944,174.3549,379.0973,176.0805,381.0202,176.5463z"/>
	<path style="opacity:0.65;fill:#F4F2DD;" d="M401.9528,180.0239c0.581-0.169,0.9346-0.4053,1.1484-0.3135
		c1.9619,0.8389,4.2354,0.6748,6.0684,1.9014c0.251,0.1689,0.8974,0.1455,0.5644,0.6396c-0.1904,0.2822-0.6162,0.5742-1.1103,0.543
		c-1.8789-0.1182-3.4541-1.2617-5.294-1.5391C402.7458,181.1674,402.7585,180.3178,401.9528,180.0239z"/>
	<path style="opacity:0.65;fill:#F4F2DD;" d="M437.5241,199.9321c0.9687-1.3106,2.2344-2.1377,1.5957-3.6836
		c-0.0274-0.0664-0.002-0.2139,0.0478-0.2432c0.1397-0.082,0.3702-0.2187,0.4473-0.165c0.667,0.4629,1.6113,0.414,2.124,1.0996
		c0.1475,0.1963,0.1143,0.626-0.2929,0.7568c-0.4727,0.1533-0.7813,0.6787-0.8223,0.96
		C440.3083,200.8188,438.8444,199.5952,437.5241,199.9321z"/>
	<path style="opacity:0.65;fill:#F4F2DD;" d="M382.7223,175.6918c0.9512-0.3925,2.1387,0.3614,2.9658-0.7041
		c0.2207-0.2841,2.3487,1.4385,2.3916,1.9444c0.0372,0.4326-0.1377,0.623-0.5888,0.6875
		C386.2116,177.8022,383.7448,176.8422,382.7223,175.6918z"/>
	<path style="opacity:0.65;fill:#F4F2DD;" d="M359.4723,174.7202c1.3408-0.0743,2.6807,0.2558,4.0186-0.4073
		c0.9121-0.4511,1.8701,0.291,2.7226,0.6524c0.3809,0.1611,0.3389,0.9795-0.3925,1.0009c-1.294,0.0401-2.6299,0.462-3.8692-0.33
		c-0.4726-0.3028-1.039-0.1719-1.5635-0.1397c-0.5888,0.0371-0.9609-0.1152-0.9023-0.79L359.4723,174.7202z"/>
	<path style="opacity:0.65;fill:#F4F2DD;" d="M373.1403,171.1791c-0.3272-0.0673-0.9092,0.2559-0.9629-0.3066
		c-0.0449-0.4629,0.5176-0.3213,0.8271-0.415c0.0831-0.0245,0.211-0.0342,0.2383-0.0909c0.2608-0.5371,0.6533-0.6308,1.1592-0.3671
		c0.2061,0.1074,0.1582,0.2304,0.042,0.4042C374.1315,170.8705,373.9167,171.4662,373.1403,171.1791z"/>
	<path style="opacity:0.65;fill:#F4F2DD;" d="M242.8542,185.8813c0.04,0.7998-0.1465,1.4502-1.0684,1.6103
		c-0.7822-0.8711-1.7012-1.2265-2.8643-0.8457c-0.2812,0.0928-0.6328,0.0938-0.9228,0.0205
		c-2.2168-0.5605-4.459-1.0839-6.3672-2.4306c-0.4268-0.3008-0.835-0.4375-1.334-0.501c-0.8974-0.1143-1.5205-1.2549-1.2012-2.1357
		c0.1885-0.5196,0.1338-0.7676-0.5175-0.6553c-0.961,0.166-1.9073,0.2549-2.0801-1.1192c-0.0401-0.3125-0.4053-0.2871-0.6602-0.3486
		c-0.1582-0.039-0.4668-0.0127-0.417-0.2187c0.4913-2.0469-1.5205-1.6856-2.3652-2.3477c-1.3779-1.082-3.1748-1.0225-4.8369-0.8408
		c-1.3027,0.1416-1.5283-0.8467-2.0342-1.541c-0.2773-0.3809,0.1192-0.5332,0.457-0.5528c0.4454-0.0263,0.8936-0.0088,1.3389-0.0322
		c0.2119-0.0117,0.458,0.0225,0.5928-0.2158c0.5508-0.9727,1.6299-1.8203,2.7256-1.8262c1.539-0.0078,2.8672-0.6474,4.29-1.0303
		c1.752-0.4707,3.6846-0.9726,5.4561,0.2901c0.3047,0.2178,0.7666,0.1181,1.1836-0.2656c0.6162-0.5655,1.3056-0.5909,2.0566,0.0947
		c0.8848,0.8086,1.9561,1.3857,3.1465,1.7441c1.2851,0.3867,2.3242,1.3867,3.7051,1.586c0.0722,0.0097,0.1347,0.1709,0.1962,0.167
		c1.7491-0.1241,2.6133,1.372,3.8682,2.1396c0.5606,0.3438,1.1113,0.2207,1.6709,0.2891c0.5371,0.0664,1.1963-0.1573,1.3076,0.7441
		c0.1065,0.874-0.1504,1.6065-0.9902,1.7783c-1.1104,0.2266-1.6318,0.8291-2.0342,1.8369
		c-0.2783,0.6973-1.1152,0.9356-1.8398,1.1651c-0.8399,0.2666-1.71,0.5078-0.8496,1.6836
		C242.8327,184.6215,242.3825,185.3657,242.8542,185.8813z"/>
	<path style="opacity:0.65;fill:#F4F2DD;" d="M268.4538,171.4702c1.0429-0.004,1.7158-0.9415,2.7187-0.9473
		c0.4668-0.0029,1.0156-0.3359,1.336,0.1533c0.2275,0.3486,0.2812,0.9434-0.0967,1.2266c-0.458,0.3427-0.9912,1.0595-1.5977,0.6064
		C270.0905,171.9682,269.276,171.8168,268.4538,171.4702z"/>
	<path style="fill:#F4F2DD;" d="M359.486,174.7065c-0.0059,0-0.0088-0.0029-0.0156-0.002c0.0009,0.0049,0.0009,0.0098,0.0019,0.0157
		L359.486,174.7065z"/>
	<path style="opacity:0.65;fill:#F4F2DD;" d="M268.9108,188.3471c0,0,3.5742,0.7656,2.8086-0.5107
		c-0.7656-1.2764-1.2764-1.7871-2.5527-2.8086c-1.2774-1.0215-2.043-0.5108-1.2774,0.7656
		C268.6559,187.0707,268.9108,188.3471,268.9108,188.3471z"/>
	<path style="opacity:0.65;fill:#F4F2DD;" d="M267.3795,188.517c0,0-1.0214-2.5527-1.2773-1.0215
		c-0.2549,1.5323,0.5107,2.5538,0.5107,2.5538L267.3795,188.517z"/>
	<path style="opacity:0.65;fill:#F4F2DD;" d="M270.029,221.4233c0.08-0.1319,0.1367-0.2627,0.1582-0.3955
		c0.1709-1.0215-3.4034-2.2129-4.2549-2.5537c-0.8506-0.3399-2.043-0.6807-2.7237-1.0205
		c-0.6806-0.3409-1.7119-0.0411-2.5527-0.1709c-2.2129-0.3399-4.0849,1.873-4.5957,1.3623c-0.5107-0.5108-0.5107-0.8516,0-2.2129
		c0.4346-1.1602-2.5537-1.7022-3.0635-1.8721c-0.5107-0.1709-2.3838,0.3398-3.4052,0.3398c-1.0205,0-1.0205-0.6806-2.5528-1.3613
		c-0.9961-0.4424-6.1279-0.1699-6.9785-0.1699c-0.4873,0-1.7549,0.2783-2.75,0.5166c-0.207,0-0.4131-0.001-0.6191-0.002
		c-0.7852-0.0009-1.625-0.1767-2.1241,0.7295l-0.124-1.2441l-1.1914-0.5108c0,0-1.7021,0.6807-1.8721,1.7022
		c-0.1709,1.0215,0.4229,2.2998,0.4229,2.2998c0.4551,0.5371,0.5293,1.084-0.2861,1.2803
		c-0.8213,0.1982-0.8096,0.8105-0.7178,1.3486c0.2178,1.2842,0.8408,2.4873,2.0478,2.9502
		c0.8428,0.3232,1.5723,0.7979,2.3526,1.1338c2.5117,1.083,4.7715,2.748,7.6689,3.041c1.0332,0.1035,2.2744,0.8613,2.8408,2.2695
		c0.6368,1.5811,1.0176,3.2901,1.9073,4.7364c0.4804,0.7832,0.5595,1.5185,0.6552,2.3545c0.1456,1.2656,0.8946,2.4853,1.8594,3.0136
		c1.002,0.5469,1.5567,1.2823,1.4444,2.1055c-0.2832,2.083,1.0127,3.207,2.3632,4.1563c0.7364,0.5156,1.7442,1.3896,2.8829,0.5654
		c0.4218-0.3047,0.8964-2.6328,0.4882-3.0069c-1.5263-1.4013,0.0137-2.7548,0.2266-3.9697c0.1562-0.8935,1.3486-2.25,3.0273-1.914
		c0.6914,0.1386,1.1641-0.5186,0.6329-0.9415c-0.9327-0.7441,0.0195-0.9345,0.1718-1.3847
		c0.2227-0.6582,0.3614-1.1504,1.3037-1.1533c1.6534-0.0039,2.8399-1.3506,2.8643-3.0039c0.0098-0.668,0.1592-1.1202,0.958-1.1163
		c0.3936,0.002,0.7891-0.124,1.1787-0.2089c1.9092-0.4121,2.8662-2.2891,1.8584-3.8389c-0.6553-1.0068-0.5556-1.8398,0.2276-2.5996
		C270.2585,222.1928,270.2663,221.7905,270.029,221.4233z"/>
	<path style="opacity:0.65;fill:#F4F2DD;" d="M228.6559,208.2621c0,0,0.8506-0.3408,1.7022-0.1709
		c0.8505,0.1709,2.2129,0.8516,2.2129,0.8516s0.6806-1.5322-0.5108-1.7021c-1.1914-0.17-1.8721-0.8516-2.8935-0.17
		C228.1452,207.7514,228.6559,208.2621,228.6559,208.2621z"/>
	<path style="opacity:0.65;fill:#F4F2DD;" d="M234.7838,209.6235c0-0.8506-0.1709-1.3614,0.3399-1.3614
		c0.5107,0,2.3828-0.1709,2.043,0.3399c-0.3409,0.5107-0.3409,0.8516-1.0215,0.8516
		C235.4645,209.4536,234.7838,209.6235,234.7838,209.6235z"/>
	<path style="opacity:0.65;fill:#F4F2DD;" d="M237.7106,193.4418c-0.8164-1.1777-1.8711-1.7851-3.3691-1.9023
		c-1.3311-0.1035-2.5596-0.7354-3.6934-1.5322c-1.1855-0.833-2.3965-1.6973-4.0361-1.1875c-1.5557,0.4843-2.917-0.0137-4.0567-1.378
		l-0.8047-0.5781c-0.4541,0.6065-0.8789,0.4541-1.2412,0.46c-1.0713,0.0146-2.1425-0.0108-3.2129,0.0107
		c-0.3789,0.0078-0.9072-0.1592-1.0791,0.2861c-0.164,0.4258,0.3467,0.7071,0.5918,0.9512
		c0.5577,0.5528,1.0039,1.2422,1.7393,1.6113c0.1455,0.0723,0.3545,0.209,0.3652,0.3311c0.0772,0.8721-0.9697,1.3057-0.875,2.2842
		c0.0293,0.2929-0.8701,0.1445-1.3437,0.123c-0.1983-0.0097-0.5479-0.1367-0.5625-0.2441
		c-0.1846-1.4444-1.3037-1.0596-2.1602-1.1016c-1.207-0.0576-2.3584-0.2969-3.5273-0.6152
		c-0.6739-0.1836-1.3623-0.2871-2.0518-0.2041c-0.2275-0.3799-0.3476-0.8477-0.1631-1.2178c0.3409-0.6807,2.042-1.5322,2.042-1.5322
		s0.8516-1.5322,0.8516-2.042c0-0.5107,1.1914-1.0215,1.873-1.5322c0.6807-0.5108,3.0635-2.5537,3.0635-2.5537
		s-0.3408-0.6807-1.3623-0.5098c-1.0205,0.1699-2.042,2.042-2.8935,2.042c-0.8506,0-1.7022-1.0215-2.5528-1.0215
		s-1.8721,1.1924-1.8721,1.1924s0.8506,1.3613,0.17,2.042c-0.6807,0.6806-3.0645,1.5322-3.0645,1.5322s-0.3398-1.1914-1.0205-1.0215
		c-0.6807,0.1699-1.0215,1.3613-1.0215,1.3613s-3.0635,2.3829-4.2558,2.3829c-1.1905,0-3.2334,0.3408-3.4034-0.17
		c-0.1709-0.5107-1.1923-1.7021-1.1923-1.7021s-1.1905-0.5108-1.3614,0c-0.1699,0.5107-0.1699,1.1914-0.6806,1.0215
		c-0.5108-0.17-2.3828,0.8506-2.8086,0.4258c-0.0869-0.2422-0.3262-0.3155-0.6621-0.2852c-0.2285-0.0215-0.4756,0.0215-0.7129,0.165
		c-1.6856,0.5352-4.3799,2.1211-5.1748,1.3936c-0.502,0.0654-0.8555,1.54-1.5352,0.1611c-0.0439-0.0898-0.458-0.0986-0.6308-0.0097
		c-1.5977,0.8271-3.3897,1.2099-4.9297,2.163c-0.5498,0.3409-0.1787,0.9004-0.2823,1.3497
		c-0.0761,0.3242,0.0586,0.5751,0.4561,0.6787c0.8555,0.2246,3.291-0.4502,3.5195-1.2149c0.4776-1.5976,1.4229-1.4638,2.5293-0.8847
		c0.4307,0.2255,0.7481,0.6669,1.1172,1.0107c-0.4453,0.3662-0.6797,0.9961-1.3594,1.0684
		c-0.5224,0.0566-1.0459,0.2705-1.5224,0.332c-2.0449,0.2637-3.4785,2.2666-5.6992,1.9277
		c-0.3653-0.0566-0.5498,0.2403-0.7579,0.4678c-0.997,1.0908-2.4316,1.4971-3.6816,2.1016
		c-0.9336,0.4511-1.6055,0.7695-1.7666,1.833c-0.0742,0.4873-0.4043,0.7656-0.9463,0.7519
		c-3.3223-0.0859-6.4062,1.1533-9.6074,1.7451c-0.2197,0.0401-0.499,0.0489-0.5264,0.3145c-0.1181,1.1474-0.997,0.9209-1.709,0.9531
		c-1.4716,0.0654-2.9453,0.0869-4.4179,0.1494c-0.3897,0.0166-0.8496-0.083-1.1397,0.2617
		c-1.4668,1.7452-3.9658,2.2569-5.0459,4.3672c1.1494,0.4014,2.5742-0.1533,3.8906,0.4727
		c-0.3798,0.5947-0.9716,0.3066-1.2685,0.6787c-0.3359,0.4229-0.8281,0.2109-1.2481,0.2988
		c-0.6064,0.127-1.5878-0.0615-1.5517,0.8389c0.0371,0.9131,0.9892,0.6396,1.6133,0.707c0.1318,0.0137,0.2705-0.0185,0.4013-0.0029
		c0.3614,0.043,0.5518,0.1357,0.3975,0.6006c-0.332,0.9971,0.791,2.417,1.6885,2.0097c1.3789-0.6269,2.8086,0.1036,4.1426-0.457
		c0.3027-0.1269,0.7119-0.0615,1.0595-0.0058c0.3643,0.0586,0.6231,0.2656,0.2002,0.6005
		c-0.2314,0.1836-0.6924,0.2852-0.2803,0.6397c0.2706,0.2324,0.7481,0.2002,0.9336-0.1602c0.1934-0.375,0.4668-0.4375,0.8135-0.5654
		c0.8731-0.3223,1.5479-0.9199,1.4971-1.9336c-0.0596-1.1992,0.539-1.6025,1.6045-1.5c0.9326,0.0889,1.6054-0.1299,2.3047-0.8808
		c0.5781-0.6202,0.8681-1.7071,1.9687-1.7471c1.2735-0.0459,2.4522-0.2744,3.707-0.6846c2.0489-0.6699,4.2813-0.8076,6.3848-1.4307
		c0.2861-0.0849,0.7168-0.1347,0.9151,0.0167c0.9375,0.7177,1.9677,0.5976,3.0273,0.5224c0.333-0.0234,0.6807,0.1826,1.0254,0.2695
		c1.6221,0.4112,3.1787,1.1446,4.8662,1.2256c2.1523,0.1026,2.1934,0.1641,2.9619,2.2246c0.3379,0.9082,0.7051,2.0479,2.1289,1.9571
		c0.419-0.0264,0.8262,0.3144,1.2305,0.4394c0.707,0.2207,1.2988,0.9024,2.1514,0.6104c1.5039-0.5157,2.9902-0.6231,4.4804,0.0918
		c0.4258,0.2041,0.9932,0.3925,1.1856-0.3369c0.2724-1.0323,1.0644-0.9844,1.664-0.5948c0.833,0.541,1.6807,0.4698,2.5557,0.4756
		c1.6973,0.0108,3.3945-0.0019,5.0918,0.0235c0.3701,0.0058,0.959-0.1758,1.043,0.3281c0.1904,1.1474,1.04,1.0459,1.7168,0.8769
		c1.2724-0.3164,2.5615-0.5791,3.8193-0.9248c2.0967-0.5752,3.835-2.0615,5.873-2.7265c2.3194-0.7569,4.3311-1.2217,7.1582,0.1113
		c0,0,0.5235,0.875,1.0342,1.5557c0.5108,0.6816,2.8936,0.8515,2.8936,0.8515s0.5107-1.5322-0.1699-1.7021
		c-0.6807-0.17-1.7022,0.5107-2.043-0.3408c-0.3399-0.8506-0.3399-0.8506-0.3399-0.8506s0.6807-1.1914,0-1.5323
		c-0.6816-0.3398-1.5234,0.0918-1.5234,0.0918c-0.5117,0.1094-1.0752-0.042-1.6016,0.0303c-1.3183,0.1816-1.871-0.4726-1.998-1.6816
		c-0.0391-0.377,0.0615-0.8116-0.4697-0.9912c-0.9619-0.3243-2.2139,0.3505-2.378,1.4023c-0.08,0.5078-0.3837,0.7949-0.6855,1.0977
		c-0.6973,0.6992-1.5947,0.8828-2.5371,1.1464c-2.4483,0.6836-3.9707-0.3535-3.7969-2.8437
		c0.0908-1.3125,1.2236-2.8945,2.2442-2.9336c1.0195-0.0391,1.9365-0.2793,2.7099-0.9121c0.7588-0.6211,1.6182-0.6367,2.5127-0.6133
		c0.9375,0.0254,1.875,0.04,2.8125,0.0488c0.4619,0.0049,0.9805,0.0254,1.1748,0.4737c0.3994,0.9238,1.499,0.7929,2.0635,1.4834
		c0.209,0.2558,0.8047,0.334,1.042-0.1133c0.2021-0.3799,0.0596-0.7735-0.375-1.0078c-0.502-0.2696-1.0889-0.4785-1.4522-0.8819
		c-0.3593-0.3994-1.2402-0.9804,0.1612-1.4404c1.2646-0.416,2.1787-1.3037,1.8242-2.9072c-0.1729-0.7803,0.124-1.294,1.0654-1.2051
		c0.5215,0.0498,1.0029-0.0703,1.0508-0.7373c0.0312-0.4375,0.3857-0.5283,0.6807-0.7305c0.8183-0.5576,1.7675-0.6504,2.9902-0.7959
		c-1.1768-0.7324-1.3272-2.1279-2.6914-2.3857c1.6953-0.1602,3.331-0.1416,4.9668-0.167c0.8545-0.0137,1.8594-0.4287,1.9404,1.0332
		c0.0176,0.3037,0.4033,0.2871,0.667,0.2998c0.624,0.0303,1.249,0.0547,1.8731,0.0811c0.0068-0.2803,0.0136-0.5606,0.0205-0.8409
		C238.3708,194.4106,238.0436,193.9213,237.7106,193.4418z"/>
	<path style="opacity:0.65;fill:#F4F2DD;" d="M217.7624,179.4955c0,0,0.6806,1.5323,1.1914,1.5323c0.5107,0,1.3613-0.17,2.0429,0
		c0.6807,0.1699,1.8721,0.1699,2.2119,1.0215c0.3409,0.8505,0.6807,1.872,0.8516,2.3828c0.1699,0.5107,1.8721,0,1.8721,0
		s0.5107-1.5323,0-1.7022c-0.5108-0.1699-0.5108-1.1914-0.5108-1.1914s-0.5107-0.3408-1.0205-0.3408
		c-0.5117,0-0.8515-0.6807-1.3623-0.8506c-0.5107-0.1699-2.8935-0.1699-3.0634-0.8516c-0.1709-0.6806-0.1709-0.8505-0.6817-0.8505
		C218.7838,178.645,217.7624,179.4955,217.7624,179.4955z"/>
	<path style="opacity:0.65;fill:#F4F2DD;" d="M215.0387,172.8578c0,0-1.0215,1.0206-1.3613,2.042
		c-0.3408,1.0215,0.1699,1.8731-0.3408,2.3829c-0.5108,0.5107-1.7022,1.1914-2.2129,1.1914c-0.5108,0,0.5107-1.3614,0-1.5313
		c-0.5108-0.1699-1.1914,1.1914-1.8721,0.8506c-0.6806-0.3398-1.1914-1.0205-1.3623-1.5313
		c-0.1699-0.5107,1.1914-2.0429,1.8731-1.873c0.6806,0.1709,1.872,0.1709,1.872,0.1709s0.6807-0.8516,1.0215-1.3623
		s1.7022-0.8506,2.3828-1.0205C215.7194,172.0063,215.0387,172.8578,215.0387,172.8578z"/>
	<path style="opacity:0.65;fill:#F4F2DD;" d="M389.1901,150.7231c-1.0215-1.0635-1.8955-2.3565-3.7041-1.9229
		c-0.2295,0.0557-0.5274-0.0654-0.7637-0.1718c-1.041-0.4688-2.0605-0.7217-3.1133-0.0079
		c-0.3486,0.2364-0.8437,0.2823-1.125-0.0195c-0.4941-0.5322-1.08-0.2734-1.625-0.3496c-0.163,0.3125-0.4873,0.5039-0.8945,0.6318
		c0.0127-0.0888,0.0068-0.1816-0.0322-0.2812c-0.5664-1.4502-11.9981-3.5049-13.2764-4.5957
		c-2.0049-0.0332-10.5596,0.1357-12.4355-1.2158c-1.46-1.0518-3.2823-1.8252-5.2754-1.5674c-0.2979,0.039-0.6504-0.002-0.918-0.1299
		c-1.5547-0.7451-3.2051-1.1396-4.8896-1.4258c-0.2559-0.0439-0.5079-0.0469-0.7129-0.2861
		c-1.6973-1.9883-2.9844-2.0068-4.6914,0.0176c-0.3125,0.3691-0.6114,0.3838-0.9834,0.5019
		c-1.6963,0.5401-3.5645,0.794-4.0577,3.0781c-0.1035,0.4747-0.6074,1.2041-1.2001,1.6202
		c-1.2999,0.9111-2.8379,1.541-3.8311,2.8203c-1.0459,1.3476-3.4277,1.6396-3.1973,4.0029
		c0.0059,0.0605-0.0918,0.1709-0.1611,0.1943c-1.3496,0.462-1.9648,1.8399-3.2471,2.544c0.8291,0.3603,1.75,0.2139,2.4502,0.834
		c-1.2832-0.1534-2.6787,0.2724-3.1162,1.1552c-0.6387,1.2911-1.459,1.8526-2.9697,2.0401
		c0.5889,0.4267,0.4814,1.0996,1.2148,1.2744c1.0274,0.2461,1.3428,1.6406,0.6211,2.4014
		c-0.2197,0.2324-0.4853,0.1777-0.7451,0.1504c-0.1318-0.0147-0.2978-0.0909-0.2256-0.2481
		c0.669-1.4551-1.4668-1.2119-1.3867-2.3037c-0.8594,0.1728-1.1045-1.2168-2.0469-0.8125
		c-1.0293,0.4414-1.5908,1.2949-1.5166,2.3535c0.0615,0.8916,0.8076,1.2764,1.7002,1.2852c0.0274,0,0.0537,0.1406,0.085,0.2285
		c-0.0625,0.0576-0.1182,0.1299-0.1914,0.1738c-1.9834,1.1856-5.1934-0.3057-6.2637,2.8721
		c-1.8184,1.1152-3.7461,2.0498-5.4648,3.3291c-0.1993,0.1484-0.4209,0.0957-0.6348,0.0185
		c-1.4336,0.4483-1.4121,1.9092-1.9277,2.9385c-1.0147,2.0274-11.2911,7.4356-12.3086,6.249
		c-0.3321-0.3877-0.5498-0.8496-0.7539-1.3222c0.3017-0.1006,0.5859-0.1758,0.7832-0.1758c0.6806,0,1.0214-0.5957,1.0214-0.5957
		s-0.3408-0.4248-1.0214-0.2549c-0.292,0.0723-0.833-0.0439-1.3565-0.1992c-0.2392-0.4248-0.5351-0.8145-0.9834-1.1065
		c-0.874,0.0655-1.5156,0.6573-2.2715,0.9854c-1.2714,0.5527-2.5527,1.1475-3.7695,1.75c-1.5225,0.7549-2.8154,2.1162-3.2617,3.9932
		c-0.127,0.5312-0.5694,0.9541-1.0264,1.3046c-0.5234,0.4034-1.3096,0.5362-1.1933,1.5313
		c0.1191,1.0195,1.0966,0.5439,1.5214,1.0283c0.2764,0.3145,0.6065-0.0156,0.9346-0.1728c1.1113-0.5352,2.5615-0.2461,3.2305,0.6748
		c0.6133,0.8466,1.4385,0.5595,2.164,0.4697c1.1211-0.1377,0.4454-1.1553,0.6944-1.7363c0.3008-0.7041-0.0176-0.9688-0.6748-1.2471
		c-0.5987-0.2539-1.1973-0.6885-0.2315-1.4453c0.503-0.3936,1.0547-0.9737,1.085-1.7549c0.043-1.0947,1.0332-1.1846,1.7109-1.5645
		c0.2373-0.1328,0.7676-0.2031,0.8858,0.2911c0.1924,0.8105-0.4131,1.288-0.8584,1.8213c-0.0264,0.0312-0.0928,0.0312-0.1153,0.0625
		c-0.4472,0.6152-0.4052,1.0761,0.4346,1.2109c0.7022,0.1133,1.4121,0.1777,2.1191,0.2646c0.6993,0.085,0.9131,0.6748,0.4903,1.003
		c-0.7588,0.5898-0.6123,1.3115-0.6651,2.042c-0.0214,0.3095-0.0283,0.623-0.3554,0.8115
		c-1.4551,0.8379-2.8213,1.8105-4.6914,1.5596c-1.1739-0.1573-2.5957-0.3458-3.5391,0.1611
		c-1.081,0.5801-2.1348,1.1308-3.3076,1.4726c-0.1504,0.4952-0.0567,0.9268,0.1221,1.3301l-4.0284,0.9483
		c0,0,0.2559,2.042,0.2559,3.0634c0,1.0215,1.7871,2.2979,2.8086,2.8086c1.0205,0.5108,2.042,0.7657,2.8076-0.5107
		c0.3203-0.5332,0.5469-1.334,0.707-2.1592c0.5411-0.8594,1.4922-1.4639,2.5616-1.5205c0.3388-0.0186,0.7275,0.1221,0.9951-0.2236
		c0.9844-1.2754,2.0039-0.6963,2.9658-0.0039c0.4307,0.3095,0.8018,0.2734,1.2178,0.1445c0.3027-0.585-0.8838-0.4873-0.4698-1.0186
		c0.2979-0.3818,0.834-0.1894,1.2667-0.1914c0.5351-0.0019,1.08,0.1192,1.6035,0.0557c2.207-0.2686,4.2011,0.0752,5.9297,1.623
		c0.5644,0.5049,1.3007,0.5801,1.7988-0.2978c0.1513-0.2666,0.2812-0.3936-0.0137-0.6397
		c-0.4863-0.4091-0.5664-1.0712-0.1348-1.3994c0.5196-0.3955,1.2901-0.375,1.8838,0.0196c1.2051,0.8007,3.0772,0.8115,4.3243,0.1533
		c1.0781-0.5703,2.2753-0.9356,3.4931-1.0694c0.5879-0.0644,1.3828,0.0528,1.292,0.9405c-0.0713,0.6992,0.5957,1.5674-0.7891,2.0166
		c-2.6972,0.8769-5.3554,1.7959-8.1904,2.1797c-0.7588,0.1025-1.706,0.373-1.998,1.4619c-0.2549,0.9482-1.3516,0.789-2.0117,0.9863
		c-0.959,0.2852-2.1084,0.3965-3.1055-0.2012c-0.4971-0.2968-1.0459-0.1601-1.5723-0.1943c-0.7334-0.0469-1.4404-0.126-1.789-0.915
		c-0.0909-0.2041-0.1797-0.4639-0.4346-0.4483c-1.7852,0.1153-3.6182-0.5303-5.3584,0.334
		c-0.1934,0.0957-0.4297,0.1963-0.6289,0.1689c-1.7959-0.2548-2.8399,0.4952-3.1397,2.2833
		c0.0235,0.8681-2.0644,2.0781-2.1045,2.9365c-0.0703,1.4785,0.003,2.4756-0.3408,3.915c-0.1972,0.8233,1.3828,1.7578,1.0694,2.5645
		c1.4257,0.1591,2.6523,0.9404,4.0166,1.2949c1.29,0.3359,2.4599,1.2637,3.9111,0.8086c2.1777-0.6836,4.4961-0.4824,6.6963-1.1553
		c1.5947-0.4883,3.0752,0.9131,4.7549,0.6709c0.8671-0.124,1.5351,0.2666,2.1064,1.0732c0.4209,0.5948,0.8291,1.4717,1.6357,1.6065
		c1.3672,0.2295,2.418,1.0693,3.5391,1.7129c1.0537,0.6055,2.3555,1.3242,2.3955,2.7519c0.043,1.5166,1.3506,2.086,2.1582,2.4746
		c0.9541,0.459,1.8946,0.5635,2.6494,1.5879c1.3496,1.8301,3.6045,2.4112,5.5811,3.3536c0.9297,0.4433,1.792,1.205,2.8926,0.789
		c0.8759-0.332,1.6338-0.999,2.5185-1.2773c2.6328-0.8262,3.8115-2.8477,4.5703-5.2559c0.0743-0.2363,0.086-0.6631-0.0527-0.7695
		c-0.9551-0.7373-0.1084-1.2002,0.2637-1.6416c0.6172-0.7324,0.7246-1.2549-0.376-1.4678
		c-0.4736-0.0918-0.5088-0.3877-0.5791-0.7549c-0.2607-1.3672,0.8008-1.9814,1.581-2.7099c0.5303-0.4952,1.3301-1.2178,0.9112-1.667
		c-0.875-0.9375-1.6602-2.1075-3.0049-2.5157c-1.6523-0.5019-2.1777-1.4687-1.4131-3.0048c0.71-1.4268,1.6094-2.7598,2.4141-4.1407
		c0.7549-1.2939,1.042-2.6933,0.8037-4.1699c-0.1104-0.6846-0.6582-0.7002-1.1289-0.4375c-0.8711,0.4854-1.8135,0.832-2.5039,1.6543
		c-0.753,0.8985-1.7061,1.1797-2.9795,0.8926c-0.8828-0.1983-1.7559-0.6924-2.6914-0.5586
		c-2.6895,0.3867-4.8789-1.1397-7.2666-1.8818c-0.9522-0.2959-2.1895-0.2159-2.7227-1.5821
		c1.9629-0.5205,3.6934,0.5254,5.4785,0.8516c1.3467,0.2471,2.6787,0.7461,4.0469,0.9922c1.0274,0.1855,2.1426-0.1172,3.0322,0.749
		c0.2744,0.2676,0.7412,0.1328,1.1309-0.0654c1.2607-0.6407,2.2578-1.6563,3.5088-2.3672c1.7705-1.0068,3.3017-2.7442,4.1123-4.8076
		c0.2207-0.5625,0.4346-1.3057-0.3272-1.7832c-0.6474-0.4063-0.3115-1.0196,0.0108-1.2295
		c1.4912-0.9727,2.8535-2.1895,4.7803-2.3614c1.7705-0.1591,3.6279,0.587,5.3222-0.5019c0.2285-0.1465,0.6065-0.0322,0.8662,0.2031
		c0.752,0.6836,1.6534,0.9043,2.6553,1.0137c1.2109,0.1318,2.3516,0.6494,3.5449,0.9277c0.6533,0.1524,1.1192,0.0899,1.3321-0.2832
		c0.2275-0.3994,0.9101-0.6777,0.4521-1.4648c-0.749-1.2852-0.8428-2.5283,0.2852-3.877c0.6797-0.8144,1.3496-1.8291,1.6113-2.9638
		c0.1269-0.5489,2.4951-2.9864,2.9756-2.8614c1.1474,0.2989,2.3808-0.2246,3.499,0.5196c0.4902,0.3261,1.2793,0.499,1.793-0.1954
		c0.8525-1.1533,1.9316-1.2646,3.042-0.3535c0.3886,0.3184,0.6972,0.8321,1.3164,0.7793c-0.1582-1.205-0.0362-2.0117,1.5117-2.3701
		c1.0596-0.2451,2.0869-0.2402,3.125-0.3711c0.3349-0.042,0.8564,0.1172,0.8916-0.3447c0.0625-0.8145,0.6875-1.2031,1.0918-1.7617
		c0.5195-0.7158,0.4326-1.9698-0.1768-2.0186c-1.291-0.1045-2.6767-0.5537-3.748,0.6885c-0.585,0.6787-1.0264,0.4004-1.1836-0.335
		c-0.1533-0.7207-0.2442-1.3896,0.457-2.0576c0.6367-0.6064,1.5694-1.0039,1.9668-1.582c0.8213-1.1904,1.8301-1.0469,2.9219-1.1162
		c0.4717-0.0303,1.0908,0.3037,1.3857-0.3946c-1.0127-0.0234-2.209-0.6435-2.4316-1.205c-0.6016-1.5186,0.9902-3.2725,0.3955-4.8086
		c-0.4375-1.1299,5.0264-3.4639,4.5947-4.5957c-0.3379-0.8897,1.4795-1.3711,3.4336-1.8243
		c1.0108,0.7774,2.6524,1.5616,2.6953,1.5694c1.5313,0.2549,2.0918,0.1797,3.0518,0.248c1.085,0.0762,1.3154,0.5528,0.7187,1.4395
		c-0.1992,0.2949-0.5087,0.5469-0.413,0.9346c0.2363,0.9482,3.6171,2.5947,4.5566,2.2285c0.6992-0.2725-0.2148-1.3018-0.7734-2.1953
		c-0.7618-1.2159-0.4668-1.7217,0.9785-1.7627c1.1601-0.0332,2.3203-0.0264,3.4795-0.0606
		c0.6689-0.0195,1.2177-0.3789,1.4882-0.9394C389.692,151.6459,389.5885,151.1371,389.1901,150.7231z M305.5778,186.3246
		c-0.3945,0.5196-0.9229,1.0362-1.6348,0.9532c-2.3662-0.2764-4.1914,1.0205-6.1152,2.0215
		c-1.3115,0.6826-2.2315,0.25-2.2315-1.2315c-0.1054-1.0166,0.3174-1.5234,1.545-1.708c0.8007-0.1211,1.8525-0.1182,2.3437-1.2998
		c0.2979-0.7168,1.6953-0.9209,2.1153-0.5664c1.1269,0.9492,2.3515,0.4883,3.5156,0.6894c0.2969,0.0508,0.6679-0.0722,0.8545,0.2442
		C306.2223,185.8549,305.7585,186.0873,305.5778,186.3246z M314.3581,184.6801c-0.1778-0.001-0.3565,0-0.5342,0
		c-0.5947-0.0224-1.4131,0.3408-1.3086-0.832c0.042-0.4736-0.3701-0.5215-0.7451-0.5596c-0.6162-0.0635-1.2285-0.1767-1.8457-0.2256
		c-1.1192-0.0888-1.1114-0.9316-0.7715-1.5302c0.4639-0.8194,1.1543-1.5704,2.1133-1.8975c0.3593-0.1231,1.08-0.1738,1.0957,0.1318
		c0.0849,1.7295,1.6709,1.5196,2.5449,1.7578c1.3281,0.3633,1.4092,1.4219,1.3828,2.1426
		C316.2604,184.4916,315.2038,184.685,314.3581,184.6801z M321.1608,189.1342c-0.2568,0.3213-0.6191,0.3311-0.9756,0.3281
		c-1.1162-0.0068-2.2324-0.0371-3.3486-0.04c-0.4746-0.001-0.7559-0.1582-0.7842-0.6787c-0.0303-0.5811,0.3252-0.6543,0.7695-0.6524
		c0.7149,0.003,1.4297,0.001,2.1436,0.001c0-0.0107,0-0.0224,0-0.0332c0.625,0,1.251-0.0068,1.876,0.003
		c0.2998,0.0048,0.6728-0.0801,0.7822,0.3261C321.7272,188.767,321.3463,188.9008,321.1608,189.1342z"/>
	<path style="fill:none;stroke:#000000;stroke-width:0.7;stroke-miterlimit:10;" d="M378.571,128.687
		c0,0-12.7676-0.2549-29.7452-2.9356c-9.7021-1.5322-32.1699-5.873-32.1699-5.873s-7.4892,8.2128-25.8721,18.4257
		c-14.1709,7.8731-34.7539,14.2598-37.6123,15.1299c-16.0078,0.5645-71.8847,2.499-73.1962,2.0615
		c-0.0391-0.0127-0.0899,0.0127-0.1436,0.042l-0.0273-0.042c0,0-10.042,7.3194-27.4034,14.9786
		c-15.9677,7.0449-39.83,12.5957-39.83,12.5957l53.6162,116.9365c0,0,32.3408-12.085,44.5966-17.7022
		c12.2549-5.6171,38.3399-20.5957,38.3399-20.5957l-0.0293-0.0459c5.3037-0.2822,33.6973-1.8076,44.7529-2.6777
		c17.253-1.3564,39.9873-4.3164,40.1621-4.3389l0.1358,0.169c0,0,19.1435-6.8946,40.7236-19.3194
		c15.8027-9.0986,33.627-22.4257,35.7822-24.0488c2.0186,0.4434,23.959,5.2217,34.6856,6.0069
		c13.957,1.0205,30.9785-0.8516,30.9785-0.8516L378.571,128.687z"/>
	<path style="opacity:0.65;fill:#F4F2DD;" d="M381.1784,161.686c0,0-0.3614,1.1816-0.5225,2.0654s-1.6621,1.918-1.6621,1.918
		s0.2891,0.4179,1.0596,0.1933c0.7715-0.2246,1.1621-0.7754,1.709-1.7715C382.3083,163.0961,381.8854,161.8149,381.1784,161.686z"/>
	<path style="opacity:0.65;fill:#F4F2DD;" d="M382.5495,159.5161l-0.5352,1.4267c0,0,2.6973,0.6035,2.1406-0.1787
		C383.7624,160.2143,383.2741,159.8657,382.5495,159.5161z"/>
	<g style="opacity:0.7;">
		<path style="fill:#BDBDBB;" d="M327.0387,155.1557c3.7461,0.0625,13.6172,2.3828,2.3828,10.5527
			c-11.5156,8.375-38.4677,17.5323-36.9404,14.8116c0.2627-0.4668,2.8809,0.0146,16.5156-13.6202
			C316.1452,159.7514,319.3795,155.0278,327.0387,155.1557z"/>
	</g>
	<path style="fill:#E73B4B;stroke:#000000;stroke-width:0.7;stroke-miterlimit:10;" d="M312.6559,140.7612
		c0,6.6289-6.7695,19.5547-12.0537,28.914c-3.4971,6.1934-5.5195,10.9063-7.4619,10.9063c-2.1192,0-3.4443-3.6358-7.2705-10.332
		c-5.418-9.4815-13.1055-22.753-13.1055-29.4883c0-11.0157,8.9297-19.9463,19.9453-19.9463
		C303.7253,120.8149,312.6559,129.7455,312.6559,140.7612z"/>
</g>
</svg>
