<?xml version="1.0" encoding="iso-8859-1"?>
<!-- Generator: Adobe Illustrator 25.0.1, SVG Export Plug-In . SVG Version: 6.00 Build 0)  -->
<svg version="1.1" id="Assoziationen_x5F_Illustrationen"
	 xmlns="http://www.w3.org/2000/svg" xmlns:xlink="http://www.w3.org/1999/xlink" x="0px" y="0px" viewBox="0 0 618.6378 380.435"
	 style="enable-background:new 0 0 618.6378 380.435;" xml:space="preserve">
<g id="_x32__x5F_8_x5F_Manipulierbarkeit_x5F_Gestalten">
	<g>
		<g id="Mantel_f&#xFC;llung_1_" style="opacity:0.22;">
			<g>
				<path style="fill:#FFFFFF;" d="M311.2945,145.4874c-0.19-0.18,2.1-0.84,3.32-1.12c-2.61,2.54-5.77,4.87-7.53,6.08
					c-6.2,4.3-13.41,6.75-21.02,7.73l-0.28-2.04c0.92-0.14,1.65-0.34,2.06-0.6
					C294.5445,151.1574,304.7645,150.1274,311.2945,145.4874z"/>
			</g>
			<g>
			</g>
		</g>
		<g id="Mantel_1_">
			<g>
				<g>
					<path style="fill:none;stroke:#FFFFFF;stroke-width:0.7;stroke-miterlimit:10;" d="M312.1006,121.6258
						c-0.491-0.1211-0.9819-0.2197-1.4714-0.2942"/>
					<path style="fill:none;stroke:#FFFFFF;stroke-width:0.7;stroke-miterlimit:10;stroke-dasharray:2.9448,0.9816;" d="
						M309.6544,121.2149c-2.8875-0.2485-5.6873,0.3816-8.0844,2.1846c-3.0701,2.3091-0.0599,2.9363-2.6603,5.7639
						c-7.9246,8.6177-32.0182,15.6045-43.1691,19.1709c-1.0786,0.345-2.2375,0.6584-3.3553,0.656"/>
					<path style="fill:none;stroke:#FFFFFF;stroke-width:0.7;stroke-miterlimit:10;" d="M251.8958,148.9679
						c-0.4971-0.0457-0.9821-0.1638-1.444-0.3809c-0.1002,0.1726,0.0837,0.4258,0.2789,0.3838
						c-0.446-0.1853-0.9088-0.3806-1.3829-0.5793"/>
					<path style="fill:none;stroke:#FFFFFF;stroke-width:0.7;stroke-miterlimit:10;stroke-dasharray:2.9935,0.9978;" d="
						M248.426,148.0079c-1.892-0.7791-3.9082-1.5479-5.7473-1.9243c-1.9241-0.3938-4.0409-0.6235-5.7522,0.3401
						c-1.1814,0.6653-1.9994,1.8083-2.9602,2.7649c-1.4395,1.4329-3.2635,2.5034-4.4081,4.1812
						c-0.9723,1.4255-1.3622,3.1582-1.7058,4.8489c-1.8915,9.3057,3.8927,19.4395,3.6237,28.9314
						c-0.1755,6.1907-1.5437,11.52-2.5424,17.6321c-0.6865,4.2026-1.3784,8.427-2.7351,12.4634
						c-1.5353,4.5686-3.8925,8.8093-6.2365,13.0205c-1.5856,2.8489-3.1884,5.7219-5.3436,8.1682
						c-2.2113,2.51-4.9443,4.5012-7.7277,6.3567c-4.4319,2.9543-9.1337,5.6538-14.3004,6.948
						c-0.9974,0.2498-2.1627,0.5723-2.5309,1.5325c-0.4585,1.196,0.6592,2.3752,1.6835,3.1445
						c0.7869,2.2849,5.0084,1.1089,6.2676,3.1716c0.2783,0.4561,0.3829,0.9934,0.5553,1.499
						c0.6277,1.8411,2.2605,3.3037,4.1592,3.7261c1.2305,0.2737,2.5637,0.1443,3.7026,0.6846
						c2.5712,1.22,2.5928,4.7668,3.4983,7.4648c0.6973,2.0771,2.1401,3.8953,4.0046,5.0459c0.7487,0.4622,1.5634,0.821,2.2626,1.355
						c0.9591,0.7327,1.6484,1.7524,2.382,2.7107c1.9603,2.5615,4.3489,4.7944,7.0365,6.5779
						c0.5525,0.3667,1.1338,0.7212,1.7844,0.8494c0.7318,0.144,1.4856-0.01,2.2163-0.1602
						c1.8885-0.3875,3.9603-0.7261,5.6576,0.1885c0.8464,0.4563,1.5122,1.1853,2.314,1.7158
						c1.3821,0.9148,3.0776,1.1892,4.7157,1.4419c3.0938,0.4773,5.6552,2.2949,7.8521,0.0649
						c2.197-0.0664,4.3503-0.5901,6.4993-1.052c6.3004-1.354,59.6948-7.6843,79.9175-4.9502"/>
					<path style="fill:none;stroke:#FFFFFF;stroke-width:0.7;stroke-miterlimit:10;" d="M337.0599,286.8187
						c0.5164,0.0757,1.0094,0.1577,1.4777,0.2463"/>
				</g>
			</g>
			<g>
				<g>
					<path style="fill:none;stroke:#FFFFFF;stroke-width:0.7;stroke-miterlimit:10;" d="M317.0886,124.5079
						c-0.2108,0.5273-0.3389,1.0022-0.4111,1.4434"/>
					<path style="fill:none;stroke:#FFFFFF;stroke-width:0.7;stroke-miterlimit:10;stroke-dasharray:2.9984,0.9995;" d="
						M316.5973,126.95c-0.0016,0.9617,0.1952,1.8137,0.2114,2.8162c0.0582,3.6094,1.1295,6.3606,1.6101,8.0435
						c1.1941,4.1804-7.8964,10.1794-11.4698,12.656c-15.3698,10.6519-42.8452,8.5156-59.4722,4.3035
						c-3.4294-0.8687-3.1334-3.0139-6.4806-4.5706c0,0-2.7882-1.8564-5.0472-0.0349"/>
					<path style="fill:none;stroke:#FFFFFF;stroke-width:0.7;stroke-miterlimit:10;" d="M235.583,150.4972
						c-0.3112,0.3184-0.6079,0.7168-0.8809,1.2114"/>
				</g>
			</g>
			<g>
				<g>
					<path style="fill:none;stroke:#FFFFFF;stroke-width:0.7;stroke-miterlimit:10;" d="M338.5841,127.3783
						c-0.2399,0.303-0.6152,0.6387-1.1073,1.0022"/>
					<path style="fill:none;stroke:#FFFFFF;stroke-width:0.7;stroke-miterlimit:10;stroke-dasharray:2.7709,0.9236;" d="
						M336.719,128.9037c-3.2208,2.0986-9.5964,4.9536-16.1963,7.8496"/>
					<path style="fill:none;stroke:#FFFFFF;stroke-width:0.7;stroke-miterlimit:10;" d="M320.0931,136.9417
						c-0.4578,0.2007-0.9161,0.4014-1.3744,0.6021c-0.0594,0.5164-0.0682,1.0149-0.0363,1.5005"/>
					<path style="fill:none;stroke:#FFFFFF;stroke-width:0.7;stroke-miterlimit:10;stroke-dasharray:2.9935,0.9978;" d="
						M318.8038,140.034c0.4155,2.3364,1.6694,4.4324,2.5453,6.8628c6.1514,17.0725,12.3029,34.145,18.4542,51.2175
						c2.5441,7.0608,6.438,13.4084,5.1079,18.9509c-1.4125,5.8855-6.1611,14.082-7.8967,19.8806
						c-2.3237,7.7634-3.5212,23.6519-2.3011,31.6631c1.9832,13.0232,4.323,18.9548,8.3484,31.5071
						c0.7836,2.4436,1.036,5.4524,3.3348,6.5925c1.8965,0.9407,8.7917-0.6646,10.2644-2.1851
						c18.0833-18.6731,26.6833-13.2722,39.2395-24.8027c3.2959-3.0266,5.8882-6.6877,8.8665-10.0276
						c4.9648-5.5676,3.1213-9.0684,4.2322-12.6418c0.4551-1.4639,12.3647-5.363,12.2671-6.8931
						c-0.125-1.9587-9.363-0.0603-10.9685-1.1895s-3.5098-1.7407-5.3918-2.2976c-5.3882-1.5942-11.3635-0.8171-16.179-3.7131
						c-3.1848-1.9155-6.3254-4.2942-7.8047-7.7036c-2.0784-4.7898-0.4036-10.2722,0.9653-15.3108
						c1.3687-5.0386,2.2495-10.9436-0.9844-15.0427c-1.1719-1.4856-2.7747-2.5615-4.1382-3.8733
						c-6.6104-6.3594-6.5325-16.6936-7.5481-25.8101c-1.4097-12.6567-5.2869-27.165-12.0017-37.6296
						c-3.6714-5.7219-8.3567-8.9023-13.5432-13.1919"/>
					<path style="fill:none;stroke:#FFFFFF;stroke-width:0.7;stroke-miterlimit:10;" d="M343.2893,124.0785
						c-0.3795-0.3164-0.7616-0.6394-1.146-0.97"/>
				</g>
			</g>
			<path style="fill:none;stroke:#FFFFFF;stroke-width:0.7;stroke-miterlimit:10;stroke-dasharray:3,1;" d="M421.2228,250.278
				c0.5511,2.8009-1.4141,5.3913-3.0208,7.7508c-1.6067,2.3596-2.9359,5.6048-1.2622,7.9173
				c0.4275,0.5907,1.0174,1.0517,1.4265,1.6553c0.4435,0.6543,0.6486,1.4355,0.942,2.1695c0.9769,2.444,3.0375,4.4314,5.5153,5.3192
				c-2.5079,1.814-5.5467,2.7032-8.5073,3.606c-3.3274,1.0147-6.6376,2.0859-9.9286,3.213
				c-6.968,2.3864-4.8336,1.1656-5.9975,1.6644c-1.7036,0.7301-7.4268,1.9952-11.916,1.6627"/>
			<path style="fill:none;stroke:#FFFFFF;stroke-width:0.4;stroke-miterlimit:10;stroke-dasharray:3,1;" d="M253.9916,149.8719
				c4.5055,1.5412,9.011,3.0824,13.5166,4.6235c2.1809,0.746,4.385,1.4973,6.6779,1.7337s11.5887,0.5806,13.5195-0.6783
				c6.7075-4.3734,16.9251-5.4101,23.4522-10.0484"/>
			<path style="fill:none;stroke:#FFFFFF;stroke-width:0.4;stroke-miterlimit:10;stroke-dasharray:3,1;" d="M321.9659,140.4699
				c7.7593,10.4196,23.8505,36.3811,30.239,46.0835c1.8486,2.8075,3.7013,5.622,5.2304,8.6155
				c4.5104,8.8297,6.0317,18.8325,7.5873,28.6247c0.3765,2.3701,0.7744,4.7878,1.8945,6.9101
				c1.1201,2.1224,3.1096,3.935,5.4948,4.1994"/>
			<path style="fill:none;stroke:#FFFFFF;stroke-width:0.4;stroke-miterlimit:10;stroke-dasharray:3,1;" d="M340.5979,181.8302
				c5.1613,11.3423-0.1562,3.9035,5.0051,15.2458c2.1568,4.7397,4.3247,9.5106,5.6081,14.5573
				c3.0334,11.9288,0.9671,24.7161,4.0763,36.6253c0.9412,3.605,2.3433,7.0703,3.7414,10.5238
				c1.5928,3.9343,3.1877,7.8734,5.0839,11.6709c1.6205,3.2455,3.5154,6.4507,6.2969,8.7793
				c2.7814,2.3286,6.6081,3.666,10.1072,2.7094"/>
			<path style="fill:none;stroke:#FFFFFF;stroke-width:0.4;stroke-miterlimit:10;stroke-dasharray:3,1;" d="M406.1096,256.2009
				c-3.1596,0.2778-6.1147-1.7715-9.2862-1.8109c-1.9023-0.0237-3.7505,0.6801-5.6524,0.7224
				c-4.1779,0.0929-7.6999-2.9199-10.7719-5.7531"/>
			<path style="fill:none;stroke:#FFFFFF;stroke-width:0.4;stroke-miterlimit:10;stroke-dasharray:3,1;" d="M344.9915,131.3667
				c6.3859,7.0672,11.1424,15.5978,13.7975,24.7452"/>
			<path style="fill:none;stroke:#FFFFFF;stroke-width:0.4;stroke-miterlimit:10;stroke-dasharray:3,1;" d="M297.8013,139.1397
				c7.0942,1.1085,12.1932-1.3302,18.4006-0.6651"/>
			<path style="fill:none;stroke:#FFFFFF;stroke-width:0.4;stroke-miterlimit:10;stroke-dasharray:3,1;" d="M304.4521,128.055
				c0,1.7736,4.8773,3.9905,11.0847,4.6556"/>
			<path style="fill:none;stroke:#FFFFFF;stroke-width:0.4;stroke-miterlimit:10;stroke-dasharray:3,1;" d="M267.8726,146.6773
				c1.9953,3.7688,17.2921,5.5424,32.3673-0.2217"/>
			<path style="fill:none;stroke:#FFFFFF;stroke-width:0.4;stroke-miterlimit:10;stroke-dasharray:3,1;" d="M327.2866,138.0313
				c2.3278,5.6532,14.1884,8.6461,20.3958,18.5114"/>
			<path style="fill:none;stroke:#FFFFFF;stroke-width:0.4;stroke-miterlimit:10;stroke-dasharray:3,1;" d="M236.5563,212.2854
				c-1.7146,5.7623-3.5265,11.4955-5.4349,17.1966c-3.8876,11.6139-8.7692,23.8717-18.9789,30.6362"/>
			<path style="fill:none;stroke:#FFFFFF;stroke-width:0.4;stroke-miterlimit:10;stroke-dasharray:3,1;" d="M227.2684,279.8519
				c4.6756-11.0705,25.1408-60.9365,33.2883-69.7701"/>
			<path style="fill:none;stroke:#FFFFFF;stroke-width:0.4;stroke-miterlimit:10;stroke-dasharray:3,1;" d="M232.5021,156.7049
				c-1.034,3.1082,5.4518,7.0581,5.2224,10.3257c-0.7849,11.1819,0.1833,22.6091-2.6722,33.4487"/>
		</g>
		<g id="Menschli_1_">
			<g id="K&#xF6;rper_13_">
				<defs>
					<path id="SVGID_1_" d="M318.8622,140.2482c0,0-3.5471,5.099-7.3159,7.3159c-4.2982,2.5284-15.706,12.2966-15.706,12.2966
						l-57.8743,155.6971l89.3777,12.9343l119.5602-25.295l-10.296-34.0559l-44.0326,18.7553c0,0-13.7375,3.6723-19.7862,5.4869
						c-3.3254,0.9976-12.6841,4.5933-15.4632,5.4869c-5.989,1.9258-13.7693,4.2639-13.8004,4.1567
						c-7.1497-24.608-15.4632-44.0617-5.9387-68.0043c5.5193-13.8745,9.4695-18.3121,5.8844-26.5066
						c-2.3789-5.4375-12.4361-33.7171-18.9344-52.1309C321.2421,147.0484,318.8622,140.2482,318.8622,140.2482z"/>
				</defs>
				<clipPath id="SVGID_2_">
					<use xlink:href="#SVGID_1_"  style="overflow:visible;"/>
				</clipPath>
				<g style="clip-path:url(#SVGID_2_);">
					<g>
						<path style="fill:#FFFFFF;" d="M421.1006,304.6223c0,0,11.6409-4.7156,11.8619-8.087c0.22-3.3713,4.6499-3.2009,0.4182-5.2726
							c-4.2317-2.0716-24.8063-3.339-33.1615-1.2897c-5.7677,1.4142-20.9312,7.2553-36.3404,4.9955
							c-7.3276-1.0751-20.7601-2.1526-31.283-5.0903c-6.4187-1.7919-20.5344-4.7551-26.3444-5.7802
							c-11.7041-2.0677-11.6922-1.9125-11.6922-1.9125l-9.0692,3.8159l-11.2876-0.6945c0,0-10.2391,11.6033,6.7018,20.9138
							c4.8333,2.6568,12.0962,8.5383,48.5114,7.3056c3.1043-0.1057,42.6381-3.4251,43.811-3.7537
							C374.3995,309.4427,421.1006,304.6223,421.1006,304.6223z"/>
						<g>
							<defs>
								<path id="SVGID_3_" d="M432.2052,304.0512c0,0,5.0757-2.5457,5.2968-5.9171c0.22-3.3713,0.1105-4.7997-4.1212-6.8714
									c-4.2317-2.0716-24.5683-1.71-33.1615-1.2897c-8.5932,0.4192-22.0947,7.6477-39.7529,5.2573
									c-7.3383-0.994-32.3574-5.5284-39.9455-8.1707c-6.2921-2.1908-20.7858-3.7243-26.5824-4.8264
									c-11.6704-2.2195-11.2569,5.5167-19.0437,3.9575c-4.5328-0.9082-3.3514,5.1592-3.8365,8.3031
									c-0.7285,4.7362,5.7331,12.3548,14.6335,14.4801c5.3647,1.281,13.8144,4.2861,30.6474,4.9308
									c3.1034,0.1195,55.7146-3.8034,56.8876-4.132C374.3995,309.4427,432.2052,304.0512,432.2052,304.0512z"/>
							</defs>
							<clipPath id="SVGID_4_">
								<use xlink:href="#SVGID_3_"  style="overflow:visible;"/>
							</clipPath>
							<g style="clip-path:url(#SVGID_4_);">
								<polygon style="fill:#3CB3B8;" points="263.007,318.668 236.5828,291.4753 271.4773,292.2269 325.5092,288.4682 
									383.1872,291.8697 								"/>
								<path style="fill:#6DA443;" d="M282.046,321.9223c0,0-29.2375,1.99-47.5363-3.5904c0,0-5.8856-2.7335-11.6979-4.1271
									c-5.138-1.2318-7.9768-0.8658-10.8311-0.5089c0,0,10.6061-1.9821,59.0527-3.6929
									c31.2549-1.1039,90.3791-16.2686,90.3791-16.2686s-23.4637,12.958-34.5504,19.6472
									C313.2809,321.5755,287.1961,321.0984,282.046,321.9223z"/>
								<polygon style="fill:#7BC5C7;" points="254.0117,300.5244 312.8449,302.4236 302.6357,292.7326 282.1091,292.2828 								
									"/>
								<path style="fill:none;stroke:#FFFFFF;stroke-width:2.8069;stroke-miterlimit:10;" d="M300.7884,302.6921
									c0,0-5.2643-0.5625-1.4097-2.0652c2.8902-1.1256,12.4361-1.972,22.465-0.8733c6.7704,0.7422,6.3648,2.2994,3.468,3.1915
									c-2.898,0.892-8.7513,2.1056-18.5932,2.529c-8.2373,0.3546-19.1854,0.296-26.2595-0.6164
									c-6.1383-0.7917-12.0816-2.9935-7.8801-5.402c4.2028-2.4085,16.2977-4.1088,23.0255-4.7764
									c6.7289-0.6688,26.1808-2.4887,46.9687-1.3474c10.3626,0.5685,16.0094,2.2681,16.0094,2.2681"/>
							</g>
						</g>
						<path style="fill:none;stroke:#000000;stroke-width:0.8421;stroke-miterlimit:10;" d="M285.49,286.0014l8.7588-3.7921
							c0,0,10.6314,1.3003,25.0076,4.6349c11.1198,2.5797,22.9548,6.3535,35.4829,6.9529
							c3.5995,0.1719,19.9976,0.3387,19.9976,0.3387s22.0088-5.3773,26.3694-6.0794c14.7964-2.3826,28.6283-0.847,32.86,1.2247
							c4.2317,2.0716,4.29,6.9466,1.4541,8.7819c-6.8379,4.4254-21.5228,9.6607-27.3736,11.3052
							c-9.3815,2.636-38.6596,4.5251-38.6596,4.5251s-16.8878,1.724-29.8781,1.0435c-12.9893-0.6815-54.4044,0.9289-66.5983-13.9283
							c-2.4097-2.9355-3.7195-11.8847,2.0796-15.6058L285.49,286.0014z"/>
					</g>
					<g>
						<path style="fill:#F4C6A1;stroke:#000000;stroke-width:0.8421;stroke-miterlimit:10;" d="M351.7666,103.8951
							c1.2584-1.2946,4.1119-3.9753,5.3566-5.1229c2.835-2.6125,3.9611-3.5383,5.464-4.7713
							c1.2675-1.0408,5.4498-4.9705,6.0231-5.8133c0.5746-0.8427,4.4847-6.0935,7.3307-8.5483
							c1.3488-1.1624,4.7527-4.6773,6.9888-6.7653c2.236-2.088,6.329-7.0336,6.5609-8.1703
							c0.2319-1.1356,0.0984-1.8438-0.2557-3.3338c-0.2677-1.1289-0.335-4.3673-0.103-5.5029
							c0.233-1.1356,0.7275-5.0875,0.7275-5.0875s-0.8779-3.127-0.1082-3.5057c0.3848-0.189,1.0386,0.0002,1.4649,0.3668
							c1.0403,0.8921,1.2577,2.3857,1.1852,2.9439c-0.2509,1.9363,0.2679,3.494,0.2679,3.494l8.0558,2.7356
							c0,0,1.0805,1.5949,1.9898,1.2061c1.0515-0.4517,1.715-0.532,3.9816-2.223c0.9728-0.7251,1.8265-0.1401,1.2642,0.8614
							c-0.5624,1.0025-1.5634,1.4776-2.4673,2.186c-0.905,0.7087-2.4555,1.3062-3.1887,2.1611
							c-0.7331,0.855-2.6752,2.6014-3.1638,3.518c-0.7086,1.3248-3.5067,3.2229-3.5067,3.2229s-7.9422,13.0687-10.5577,16.463
							c-2.6143,3.3954-9.3092,9.8179-10.7998,11.2107c-1.4908,1.3916-4.1187,5.4069-6.2499,8.0661
							c-2.1136,2.6375-6.066,7.3336-7.9716,9.5558"/>
						
							<path style="fill:#F4C6A1;stroke:#000000;stroke-width:0.8421;stroke-linecap:round;stroke-linejoin:round;stroke-miterlimit:10;" d="
							M401.9662,58.157c0,0-0.5199-1.0711-0.7869-1.6764c-0.4354-0.9848-1.1496-0.93-1.1496-0.93s-0.2278-1.141-0.6552-1.5076
							c-0.4276-0.3665-1.0679-0.3967-1.0679-0.3967s0.0178-0.8-0.8128-1.2161c-0.8306-0.4155-1.5753-0.7577-2.1925-0.4705
							c-0.616,0.2866-1.9428,2.7845-2.1446,3.2797c-0.2009,0.494-0.5309,1.3972,0.0795,2.0699
							c0.1607,0.1766,0.3537,0.4515,0.3537,0.4515s-0.2201,0.2567-0.2502,0.8983c-0.0311,0.6415,0.2994,0.7757,0.2994,0.7757
							s-0.5564,1.0801-0.4217,1.7893c0.1335,0.7081,1.4045,0.6107,1.7589,0.0246c0.1999-0.3309,1.1483-1.535,1.7269-2.2085
							c0.1101-0.1283,1.8241-0.6297,1.9328-0.568c0.2506,0.1403,0.7884,0.8978,0.7884,0.8978"/>
						
							<path style="fill:#F4C6A1;stroke:#000000;stroke-width:0.4678;stroke-linecap:round;stroke-linejoin:round;stroke-miterlimit:10;" d="
							M393.6391,59.4347c0,0,1.7002-2.5832,2.3827-3.0382c1.215-0.8116,4.0171-0.7267,4.0171-0.7267"/>
						
							<path style="fill:#F4C6A1;stroke:#000000;stroke-width:0.4678;stroke-linecap:round;stroke-linejoin:round;stroke-miterlimit:10;" d="
							M393.5898,57.7608c0,0,1.6136-2.9182,2.2912-3.4499c0.6777-0.5306,2.4255-0.6646,2.4255-0.6646"/>
						
							<path style="fill:#F4C6A1;stroke:#000000;stroke-width:0.4678;stroke-linecap:round;stroke-linejoin:round;stroke-miterlimit:10;" d="
							M391.1458,65.4559c0,0-0.971-0.1655-1.4715-1.4847"/>
						<path style="fill:#F4C6A1;stroke:#000000;stroke-width:0.8421;stroke-linejoin:round;stroke-miterlimit:10;" d="
							M297.3471,108.6673c-0.4061-0.3829-0.9327-0.4636-1.344-0.8551c-3.6742-3.5049-7.7422-7.2329-9.1582-9.0408
							c-1.9375-2.4728-3.5172-4.2025-4.5429-5.0821c-1.0258-0.8797-4.2614-3.5062-6.6799-5.8765
							c-2.4184-2.3702-7.0211-8.2464-8.8163-10.8239c-1.7951-2.5776-5.6904-7.5498-6.6797-7.9536
							c-0.9892-0.4039-3.6031-1.1616-5.9605-2.7378c-2.3564-1.5763-3.5895-3.0787-4.5676-3.3232
							c-0.977-0.2441-2.1004-0.3181-3.5786-0.8434c-1.4771-0.5259-3.1383-1.3568-2.8821-2.1751
							c0.2575-0.818,1.2589-0.2561,2.3944-0.0237c1.1356,0.2325,3.5909,1.0025,4.6533,0.2818
							c1.0626-0.7202,2.8475-4.531,3.7514-5.239c0.904-0.708,2.2054-0.4085,2.5287-0.3535c0.7015,0.1193,1.5745,1.7958,1.8563,1.295
							c0.2807-0.5007,0.9039-0.7085,0.1589-2.0888c-0.7451-1.3802-0.7871-2.9744-0.2246-3.9758
							c0.5613-1.0014,1.1602-1.5264,1.5638-0.439c0.4024,1.0868,0.4505,2.7605,1.0369,4.1528
							c0.5854,1.3925,0.3602,1.5698,1.1175,3.1086c0.7562,1.5395,0.976,3.3594,1.0735,4.6298
							c0.0974,1.2704,0.806,2.1743,0.806,2.1743s2.2709,2.541,4.0052,4.3245c1.7332,1.7847,5.9224,6.4142,7.1311,7.5999
							c1.2087,1.1847,5.0921,3.9222,7.8654,6.7438c1.7426,1.775,4.3711,4.9357,6.4225,6.6949
							c0.6043,0.5182,5.9343,4.8283,9.8681,7.8687c1.413,1.0919,2.6369,2.0038,3.7104,2.7689
							c0.3937,0.2798,0.7667,0.5408,1.1213,0.784"/>
						
							<path style="fill:#F4C6A1;stroke:#000000;stroke-width:0.8421;stroke-linecap:round;stroke-linejoin:round;stroke-miterlimit:10;" d="
							M256.7758,56.5939l-0.8313,0.6227c0,0,2.3232,2.9438,2.436,3.6467c0.1529,0.9466-0.704,1.1034-0.6411,1.0075
							c0,0,0.5377,0.7574,0.3358,1.2521c-0.5171,1.2684-2.1741-0.2326-2.1741-0.2326s0.1468,0.8678-0.7948,1.0995
							c-0.9394,0.2316-2.4176-0.2943-3.4311-1.0148c-1.0136-0.7209-1.8404-0.9251-2.2477-2.2237
							c-0.3165-1.0137-0.0974-1.2704,0.5016-1.7954c0.6106-0.535,1.002-0.4757,1.002-0.4757s-0.1346-0.7086,0.6047-1.4843
							c0.668-0.7011,1.4656-0.6713,1.4656-0.6713s-0.2377-1.0198,0.8492-1.4228"/>
						
							<path style="fill:#F4C6A1;stroke:#000000;stroke-width:0.4678;stroke-linecap:round;stroke-linejoin:round;stroke-miterlimit:10;" d="
							M257.7393,61.8708c0,0-1.6965-1.3072-2.2283-1.985c-0.5318-0.6782-1.411-1.729-1.8679-2.4927
							c-0.4579-0.7631-0.642-1.0686-0.642-1.0686"/>
						
							<path style="fill:#F4C6A1;stroke:#000000;stroke-width:0.4678;stroke-linecap:round;stroke-linejoin:round;stroke-miterlimit:10;" d="
							M255.901,62.8902c0,0-1.8198-0.8188-2.5827-1.3988c-0.763-0.5808-1.5452-1.3992-1.8929-1.7719
							c-0.3476-0.3727-0.4945-1.2394-0.4945-1.2394"/>
						<path style="fill:#F4C6A1;stroke:#000000;stroke-width:0.8421;stroke-miterlimit:10;" d="M315.0799,281.5677
							c-0.1113,2.7238,0.5847,5.5451,1.0602,7.5859c0.4766,2.0395,0.4989,3.1408,0.2608,4.4319
							c-0.1271,0.6885-0.3468,1.0244-0.7871,1.1985c-1.1232,0.446-7.4505,0.7309-9.5641,0.2549
							c-2.1126-0.4771-5.179-0.8812-6.7538-0.6009c-1.5759,0.2816-6.2182,0.1578-7.8419-0.1974
							c-1.6246-0.3539-3.6763-0.037-4.2628-1.4301c-0.5865-1.3918-0.4755-2.0395,1.747-2.2099
							c2.2235-0.1705,4.5803-0.6703,6.1562-0.9507c1.5759-0.2815,7.6347-2.5032,8.7094-3.0642
							c1.0758-0.5623,3.0057-2.4673,2.8596-4.3726"/>
						<g style="display:none;">
							
								<path style="display:inline;fill:#F4C6A1;stroke:#000000;stroke-width:0.8421;stroke-linecap:round;stroke-miterlimit:10;" d="
								M349.4737,298.7353l1.6676-0.8712c1.883-1.5145,5.5056-4.7586,6.2181-5.4695c2.0153-2.0157,2.3506-4.3267,2.2717-5.3547
								c-0.0538-0.7019-0.67-2.4522-1.2469-4.2352l7.5118-4.2824c0.5425,1.6746,1.0372,3.1108,1.3985,4.0142
								c1.279,3.2088,1.6883,2.9987,2.1933,4.1999c0.5063,1.2023,0.9854,3.2314,2.2686,6.0518
								c0.803,1.7668,0.7582,3.07,0.6466,3.7247c0.0002,0.0022,0.0018,0.0383-0.0174,0.0975
								c-0.0492,0.2436-0.1002,0.3753-0.1002,0.3753s-4.0906,1.2438-6.7349,2.2136c-1.055,0.745-2.0201,1.6144-3.1547,2.266
								c-3.1187,1.7892-6.6983,1.5987-9.3425,1.4914c-4.0629-0.1646-2.502-0.2731-3.9006-0.3208
								c-2.9356-0.0996-3.7821-0.795-3.8767-2.0288C345.1817,299.3745,349.4737,298.7353,349.4737,298.7353z"/>
							<path style="display:inline;fill:none;stroke:#000000;stroke-width:0.4678;stroke-miterlimit:10;" d="M350.5585,299.7372
								c0,0-0.7141,0.5129-1.7253,0.7522c-1.3867,0.3292-1.5479,0.0418-1.4829,0.8898c0.065,0.847,0.8661,1.1736,0.8661,1.1736"/>
							<path style="display:inline;fill:none;stroke:#000000;stroke-width:0.4678;stroke-miterlimit:10;" d="M354.8557,300.1837
								c0,0-1.4391,0.8401-2.3838,1.2678c-0.8232,0.3731,0.1781,1.3044,0.1781,1.3044"/>
							<path style="display:inline;fill:none;stroke:#000000;stroke-width:0.4678;stroke-miterlimit:10;" d="M357.0495,300.4804
								c0,0-2.0911,0.8505-1.9767,2.3419"/>
							<path style="display:inline;fill:none;stroke:#000000;stroke-width:0.4678;stroke-miterlimit:10;" d="M352.5913,299.9692
								c0,0-1.2689,0.6404-1.7194,0.83c-0.4504,0.1895-0.7586,0.2132-0.8772,0.6872c-0.1957,0.782,0.9426,1.1677,0.9426,1.1677"/>
						</g>
						<path style="stroke:#000000;stroke-width:0.8558;stroke-miterlimit:10;" d="M306.6634,282.2132
							c-0.1461-1.9053-2.4279-14.9874-3.8922-19.5069c-1.4645-4.5205-4.8455-15.2817-5.809-17.4444
							c-0.9656-2.1615-2.1118-6.7066-2.6006-8.9045c-0.4877-2.1993,2.5329-12.02,4.1776-18.2477
							c2.3884-9.0439,7.5832-19.9316,9.3426-24.0601c1.7595-4.1275,1.8655-5.382,2.9041-10.5731
							c1.0398-5.1912,0.2769-18.839,0.4491-20.7687c0.171-1.9296-3.7194-9.3066-4.3775-13.7284
							c-0.6593-4.4216-5.7803-7.7905-5.8899-9.2189c-0.1096-1.4295,8.8433-1.8603,8.2092-3.8888
							c-1.2857-4.1066-0.5398-8.0115,0.0146-10.2228c0.3046-1.2215,0.2935-1.3802-0.1587-3.1025
							c-0.6511-2.4843-3.6685-6.1877-5.8796-7.9358c-0.9478-0.7486-3.7543-3.2961-6.7913-6.1643l-0.6758-0.6099
							c0.9526-0.0731,3.1765-2.3197,4.7399-3.7972c1.3661-1.2905,3.0486-3.9877,3.0486-3.9877l0.5027,0.2116
							c4.08,2.7937,5.7106,3.2094,7.7162,3.8702c2.9504,0.9718,3.1888,0.9536,5.9728,2.8964
							c0.8355,0.5831,2.8637,1.9368,2.8637,1.9368s-0.2932,2.4176,1.1229,4.2254c1.416,1.8091,5.8864,1.7853,7.7319,0.8451
							c1.8444-0.9402,5.0456-5.0188,5.0456-5.0188s2.1352,0.2548,3.5837-0.6538c2.3539-1.4805,6.207-1.8541,8.6313-2.5197
							c2.3092-0.633,3.1397-0.7193,4.6537-1.7937l4.172-3.9142c0.3668,2.687,2.7165,5.2221,4.2861,6.939
							c1.2374,1.3532,3.254,2.8651,3.254,2.8651l-2.779,3.3278c-1.9056,2.2222-6.1271,6.5395-7.7523,10.3377
							c-1.6252,3.7981-2.8966,8.0489-4.339,12.152c-1.4422,4.1042-4.8039,14.4243-5.5738,16.8795
							c-0.77,2.4553-0.2586,9.1238,0.0218,10.6998c0.2804,1.5761,6.893,18.6093,7.4914,22.2369
							c0.5973,3.6277,0.8525,11.1157,0.6924,13.204c-0.1589,2.0882-0.6003,10.907-0.9313,14.9261
							c-0.331,4.0179-3.602,11.8058-3.5291,14.8357c0.0728,3.0286,0.4993,6.5099,1.2554,8.0494
							c0.7572,1.5394,4.689,6.9874,4.689,6.9874s3.4563,3.4084,7.0941,11.2762c1.6912,3.657,3.1859,10.2976,4.1867,15.0121
							c0.4038,1.9024,2.2134,8.2667,3.2834,11.5673c0,0-0.8929,0.8673-2.896,1.8195c-2.003,0.9524-5.6891,0.8323-5.6891,0.8323
							c-0.2075-0.6403-0.4127-1.2513-0.5778-1.7217c-2.2924-6.5545-8.8354-17.7713-10.5118-20.4371
							c-3.1503-5.0101-5.911-11.0016-7.0561-12.4637c-1.4171-1.8078-5.4353-7.3803-6.2269-10.3844
							c-0.5089-1.9296-2.282-11.005-3.2219-14.9266c-0.9388-3.9205-1.0135-13.6885-1.8194-15.8623
							c-0.8061-2.1749-1.478,1.3821-3.5266,4.199c-1.1104,1.5269-4.4877,6.4767-6.402,9.7311
							c-2.5608,4.3534-7.3446,9.1472-7.8948,10.3071c-0.5492,1.1599-1.6252,3.7981-1.784,5.8875
							c-0.1589,2.0882,2.7582,6.8152,3.942,11.8359c1.1838,5.0206,1.8049,13.1188,1.3396,17.4671
							c-0.4652,4.3484,0.6939,11.1279,0.5839,13.8516c0,0-0.5868,0.6843-3.2862,0.8913
							C309.0944,282.666,306.6634,282.2132,306.6634,282.2132z"/>
						<path style="stroke:#000000;stroke-width:0.8558;stroke-miterlimit:10;" d="M338.0119,106.0079
							c0.0046,0.0595,1.1258,1.6514,1.1258,1.6514l-1.6772,1.3064l-0.4626-0.8232l0.9809-2.0517"/>
						<path style="fill:none;stroke:#000000;stroke-width:0.4678;stroke-miterlimit:10;" d="M312.088,283.4343
							c0,0-0.3795,0.5089,0.1739,1.4846c0.5533,0.9758,0.3568,2.3077,0.3201,2.6104"/>
						<g>
							<path style="fill:#F4C6A1;stroke:#000000;stroke-width:0.6316;stroke-miterlimit:10;" d="M313.6825,89.0154l-0.1584,5.5772
								c0,0-0.9357,1.6805-0.5013,2.8305c0.4344,1.1513,1.448,4.8081,1.8327,4.8227c0.3857,0.0146,0.9151-0.1934,0.9151-0.1934
								s2.1714,4.5036,6.4117,6.1402c0,0,1.8452,5.7833,1.8281,7.5076c-0.0182,1.7244,8.1209,2.7147,10.563-0.2264
								c2.4423-2.9409,2.9511-6.8379,2.9511-6.8379s-1.2717-0.5914-1.8168-1.8133c-0.5463-1.223-1.6185-3.5776-1.6185-3.5776
								s0.8141-1.1283,1.1061-2.911c0.2729-1.6637,0.0024-3.1544,0.0024-3.1544s1.7427,0.1085,1.4031-2.4007
								c-0.3395-2.5093-5.1452-12.5808-5.1452-12.5808l-7.6423-2.6858l-10.0908,6.5314L313.6825,89.0154z"/>
							<path d="M329.6137,100.4578l-0.5914,1.4493c0,0-0.6679,1.4552-2.256,2.1235c-2.2797,0.9589-3.4464-0.0038-4.1813-0.6161
								c-0.3939-0.3285-1.1148-1.3185-1.1148-1.3185s2.6566,0.8439,3.7943,0.6458c0.8953-0.1569,2.356-0.8052,2.356-0.8052
								l0.6271-0.9837L329.6137,100.4578z"/>
							<path style="fill:#FFFFFF;" d="M322.4064,102.1023l0.7809,0.0182l4.9827-1.1617l0.1252,0.6138c0,0-1.2408,1.11-2.8517,1.4666
								c-0.7042,0.1569-2.5001-0.0413-2.5001-0.0413L322.4064,102.1023z"/>
							<path d="M323.9727,90.8531c0,0,2.1625-1.4839,2.9776-1.7862s2.271-0.0543,2.7844,0.3861
								c0.5134,0.4392,0.66,0.7877,0.66,0.7877s-1.2459-0.6228-1.9601-0.5681c-0.7153,0.0549-1.0729,0.0823-1.6406,0.4845
								c-0.5676,0.4032-1.4666,1.1906-2.1808,1.2454C323.8991,91.4572,323.8991,91.4572,323.9727,90.8531z"/>
							<g>
								<g>
									<path d="M323.5356,99.6693c0.1744-0.2035-1.0649-0.062-0.9857,0.4241c0.038,0.2312,0.3937-0.029,0.6714-0.2133
										C323.3903,99.7664,323.4411,99.7795,323.5356,99.6693z"/>
									<g>
										<path d="M329.9546,99.1352c0,0,0.7181,0.4675,0.9802,1.8051C330.9348,100.9402,331.3078,98.6343,329.9546,99.1352z"/>
									</g>
									<path d="M326.2953,99.1578c-0.2943-0.4876-0.984-0.2469-1.1275,0.0944c-0.0419,0.1028,0.2956-0.0396,0.4314,0.0043
										C326.0819,99.414,326.5623,99.5989,326.2953,99.1578z"/>
									<path d="M321.7976,108.5467c0.1617,0.059,0.3054-0.5902,0.3054-0.5902s2.2056,1.1579,3.582,1.2254
										c1.9725,0.0977,3.5389-0.7952,4.3193-1.2714c1.0796-0.6587,3.5489-4.5747,3.5489-4.5747l1.1117,1.8686
										c0,0-1.8497,2.8617-3.5526,4.2164c-1.1046,0.879-2.5022,1.39-4.6525,1.0561
										C324.3106,110.1427,321.7976,108.5467,321.7976,108.5467z"/>
								</g>
								<g>
									<path d="M315.9361,95.212c0,0,0.3661-0.0212,0.7341-0.1501c0.412-0.1448,0.8515-0.4025,1.3283-0.4696
										c0.9022-0.1258,1.6504-0.018,2.551,0.3519c0,0-2.2644-0.1556-2.7275,0.0746c-0.4644,0.2302-1.0829,0.5288-1.344,0.5183
										C316.2171,95.5264,315.9361,95.212,315.9361,95.212z"/>
									<path d="M325.2806,93.8629c0,0,1.1432-1.2915,1.5104-1.4451c1.1236-0.4698,2.1961-0.5441,2.4453-0.6141
										c0.2479-0.071,0.457-0.1765,0.457-0.1765s-0.665,0.6812-1.0084,0.7629c-0.3443,0.0829-1.2808,0.1887-1.585,0.3093
										C326.2415,93.0425,325.2806,93.8629,325.2806,93.8629z"/>
									<path d="M328.328,92.766c0.1241,0.3197-0.0757,0.6936-0.4428,0.8349c-0.3669,0.1413-0.765-0.0035-0.8892-0.3233
										c-0.1218-0.3187,0.077-0.6927,0.4441-0.8339C327.8083,92.3023,328.2061,92.446,328.328,92.766z"/>
									<path d="M319.3107,95.2824c0.0475,0.338-0.2312,0.658-0.6207,0.7128c-0.3896,0.0536-0.7444-0.177-0.7918-0.5152
										c-0.0475-0.3392,0.2301-0.658,0.6196-0.7127C318.9085,94.7136,319.2632,94.9432,319.3107,95.2824z"/>
								</g>
								<g>
									<path d="M318.2319,98.8146c0.0456,0.0779-0.0269,0.2238-0.1629,0.3248c-0.1358,0.1021-0.2815,0.1211-0.3272,0.042
										c-0.0444-0.078,0.0282-0.2227,0.1629-0.3247C318.0407,98.7546,318.1863,98.7366,318.2319,98.8146z"/>
									<path d="M323.8972,96.2114c0.0136,0.06-0.0539,0.124-0.1497,0.1438c-0.0946,0.0198-0.1818-0.011-0.1933-0.0711
										c-0.0135-0.059,0.054-0.1229,0.1474-0.1426C323.7975,96.1217,323.8858,96.1522,323.8972,96.2114z"/>
									<path d="M323.548,96.8806c0.0179,0.0847-0.076,0.1745-0.2107,0.2029c-0.1347,0.0284-0.2592-0.0152-0.2769-0.0998
										c-0.0178-0.0836,0.0771-0.1745,0.2117-0.2029C323.4081,96.7522,323.5303,96.7972,323.548,96.8806z"/>
									<path d="M323.74,95.4009c0.0113,0.0592-0.0551,0.123-0.1497,0.1427c-0.0946,0.0197-0.1829-0.0109-0.1955-0.0699
										c-0.0124-0.0589,0.0562-0.1242,0.1497-0.1438C323.6403,95.3101,323.7263,95.3419,323.74,95.4009z"/>
									<path d="M324.5587,95.9864c0.0164,0.0813-0.0751,0.1698-0.2077,0.198c-0.1313,0.0281-0.2512-0.0158-0.2687-0.0971
										c-0.0165-0.0824,0.075-0.1708,0.2065-0.1991C324.4213,95.8612,324.5411,95.904,324.5587,95.9864z"/>
									<path d="M324.929,97.009c0.0124,0.0591-0.0539,0.1229-0.1486,0.1426c-0.097,0.0198-0.183-0.0109-0.1955-0.0699
										c-0.0124-0.059,0.0539-0.124,0.1497-0.1438C324.8293,96.9182,324.9165,96.9499,324.929,97.009z"/>
									<path d="M324.5479,97.3504c0.0179,0.0857-0.0801,0.1792-0.2171,0.209c-0.1391,0.0289-0.2661-0.0181-0.2839-0.1038
										c-0.0179-0.0857,0.0789-0.1791,0.217-0.2078C324.402,97.218,324.5301,97.2647,324.5479,97.3504z"/>
									<path d="M323.3925,97.6857c0.0124,0.0591-0.0562,0.1242-0.1508,0.144c-0.0946,0.0197-0.1818-0.011-0.1943-0.0711
										c-0.0125-0.059,0.0538-0.123,0.1495-0.1439C323.2916,97.5951,323.379,97.6268,323.3925,97.6857z"/>
									<path d="M320.0756,97.7172c0.0194,0.0913-0.0963,0.1918-0.2577,0.2257c-0.1603,0.0337-0.3063-0.0116-0.3257-0.1018
										c-0.0193-0.0902,0.0962-0.1907,0.2566-0.2245C319.9113,97.5816,320.0574,97.6281,320.0756,97.7172z"/>
									<path d="M320.9942,98.2475c0.0194,0.0913-0.0952,0.1906-0.2566,0.2255c-0.1625,0.034-0.3074-0.0115-0.3257-0.1017
										c-0.0193-0.0902,0.0951-0.1906,0.2567-0.2244C320.83,98.1119,320.976,98.1584,320.9942,98.2475z"/>
									<path d="M321.534,97.4097c0.0194,0.0901-0.0963,0.1906-0.2566,0.2244c-0.1614,0.0339-0.3086-0.0113-0.3268-0.1016
										c-0.0192-0.0891,0.0963-0.1907,0.2577-0.2246C321.3687,97.2742,321.5158,97.3194,321.534,97.4097z"/>
									<path d="M327.6537,95.5827c0.0193,0.0901-0.0952,0.1906-0.2567,0.2245c-0.1615,0.0338-0.3063-0.0116-0.3257-0.1018
										c-0.0192-0.089,0.0952-0.1906,0.2567-0.2245C327.4895,95.4471,327.6343,95.4925,327.6537,95.5827z"/>
									<path d="M328.4057,96.1688c0.0194,0.0901-0.0962,0.1918-0.2565,0.2255c-0.1614,0.0339-0.3086-0.0115-0.3268-0.1017
										c-0.0193-0.0902,0.0963-0.1907,0.2576-0.2256C328.2403,96.0332,328.3865,96.0798,328.4057,96.1688z"/>
									<path d="M330.0095,95.617c0.0183,0.0902-0.0951,0.1906-0.2577,0.2245c-0.1614,0.035-0.3063-0.0105-0.3257-0.1018
										c-0.0192-0.089,0.0951-0.1906,0.2577-0.2245C329.8452,95.4813,329.9902,95.5268,330.0095,95.617z"/>
									<path d="M328.9921,95.2141c0.0193,0.0902-0.0952,0.1906-0.2576,0.2257c-0.1604,0.0337-0.3065-0.0128-0.3258-0.1018
										c-0.0182-0.0902,0.0952-0.1906,0.2576-0.2257C328.8278,95.0786,328.9727,95.124,328.9921,95.2141z"/>
									<path d="M330.3081,94.3179c0.0193,0.0901-0.0952,0.1906-0.2577,0.2246c-0.1603,0.0349-0.3063-0.0105-0.3247-0.1018
										c-0.0192-0.089,0.0952-0.1906,0.2567-0.2245C330.1439,94.1823,330.2887,94.2277,330.3081,94.3179z"/>
									<path d="M326.8968,97.426c0.0193,0.0901-0.0951,0.1906-0.2566,0.2245c-0.1616,0.0338-0.3087-0.0114-0.328-0.1016
										c-0.0182-0.0891,0.0974-0.1907,0.2588-0.2246C326.7325,97.2904,326.8773,97.3358,326.8968,97.426z"/>
								</g>
							</g>
							<g>
								<path style="fill:#C2975D;stroke:#000000;stroke-width:0.8421;stroke-miterlimit:10;" d="M345.8711,101.5778
									c-2.0461-0.3624-1.3299-2.0125-1.3299-2.0125s0.6812-1.4902,0.1522-2.7519c-0.5299-1.2604-1.4429-2.3217-1.4429-2.3217
									s-0.5377-1.4793-0.2716-1.5064c-0.4937-1.0086,0.2357-0.6879,0.8567-1.7379c-0.0467-0.0337-0.102-0.0612-0.1432-0.0965
									c-0.7057-0.5997-0.9969-1.3592-1.1651-2.2389c0.1674,0.8684-0.0449-0.0407-0.1316-0.2422
									c-0.055-0.1259-0.1132-0.2504-0.1758-0.3735c0.0714,0.1337,0.1179,0.2241,0.1561,0.2935
									c-0.3773-0.6702-0.2731-1.5098-0.5158-2.2401c-0.2734-0.8218-0.687-1.4938-0.4007-2.2161
									c-0.0846-0.0105-0.1347-0.0146-0.1347-0.0146s-0.1113-2.3073-1.1139-3.3867c-1.1037-1.1881-2.2774-1.2101-2.9054-1.7865
									c-0.5609-0.5135-0.6417-1.4769-2.002-2.2936c-1.5202-0.9107-2.9902-0.6949-2.9902-0.6949s-2.8017-2.1881-7.0855-1.5756
									c-1.6539,0.2366-2.2626,1.2834-3.1519,0.3978c-1.64-1.6322-3.5127,1.0784-3.5127,1.0784s-2.3535-0.6658-3.8925,0.4185
									c-2.0384,1.4347-1.885,3.9368-1.885,3.9368s1.3884-2.6215,3.1693-2.9447c1.7796-0.3243,1.5596,0.9518,1.5596,0.9518
									s0,0-2.3028,0.8487c-2.3018,0.8486-4.38,3.9178-5.2924,6.0491c-0.9125,2.1301-0.0679,2.6684-0.0679,2.6684
									s-0.5936,0.8906-1.6154,2.2011c-1.0206,1.3103,0.241,1.6966,0.69,2.6974c0.4501,1.0007-2.3651,2.5143-2.0848,3.425
									c0.2802,0.9106-1.2311,1.0899-2.063,1.6301c-0.8309,0.5388,0.0287,2.4109-0.0917,2.0197
									c-0.1193-0.3903,0.8803-0.8391,1.8329-0.988c0.95-0.1498,2.03-1.3956,2.03-1.3956l-0.3895,1.176
									c0,0-0.8214,1.9603-1.8038,3.4011c-0.9814,1.4396-0.1605,1.3303,1.0406,1.5312c1.1999,0.201,2.7794,2.5632,2.7794,2.5632
									s0.173-1.0632-0.8769-2.1842c-0.0949-0.1013-0.1988-0.202-0.3124-0.2973c-1.3499-1.1523-0.9597-1.2715-0.2187-1.6419
									c0.7411-0.3691,1.6517-0.6493,1.6517-0.6493s-0.1451,1.8099,0.9984,3.253c0.5327,0.6753,0.7218,1.8588,0.4692,3.0504
									c-0.3365,1.5995,1.5342,3.0829,2.89,2.8964c1.2874-0.1768,2.5588,0.3513,2.6277,1.0418
									c0.0688,0.6905-0.6715,1.8797,1.3087,2.8728c1.1871,0.5946,1.4196,1.8416,1.4196,1.8416s0.3524-2.1007-0.6688-2.6413
									c-1.019-0.5419-0.7309-0.0605,0.3414-1.6712c1.0724-1.6096-1.2227-2.5638-1.2227-2.5638s1.6408,0.6695,1.9937,1.1255
									c0.4372,0.5661,0.1205,2.2783,0.8197,3.3708c0.8321,1.304,1.9208,1.0746,1.9208,1.0746s-2.1711-1.8303-0.839-3.5198
									c1.332-1.6906-0.6794-1.8066-1.7905-2.1785c-1.109-0.3708,0.4041-1.6047,0.4041-1.6047l-2.0931-1.8317
									c-1.2939-1.0717-2.6082-3.4134-3.2325-4.9732c-0.5812-1.4579-1.0467-3.6024-1.5524-5.1067
									c-0.6324-1.8725-0.6502-4.7459-0.4822-5.7114c0.3423-1.9688,0.3746-2.4181,1.6082-3.7539
									c1.8325-1.9813,2.0094-2.4474,2.0094-2.4474l2.428,0.1193c0,0,2.0641-0.0972,2.4938,1.9368
									c0.3919,1.8503,1.9885,2.5016,3.3087,3.0917c1.3205,0.5922,2.8517,1.6016,2.7812,2.7622
									c-0.0705,1.1604,0.769,2.6064,1.8778,2.9773c1.0425,0.3476,2.0734-0.9193,2.198-1.0782
									c0.3183,0.9339,0.5349,1.8552,0.3754,2.3414c-1.1555,3.4907,0.3223,3.6568,0.8053,5.0124
									c0.655,1.829-1.6646,2.3711,0.4707,5.2089c1.2308,1.6354-0.1468,1.8179,0.226,2.8585
									c0.688,1.9191,2.1379,3.815,1.6723,4.3236c0,0,1.2583-2.4158,0.6923-3.3058c-0.5685-0.8908-0.4308-1.5892,0.1528-1.961
									c0.6677-0.4256,0.8342-1.882,0.8342-1.882s1.0333,0.2557,1.0398,0.8853c0.0076,0.6307,0.5504,5.2876,2.3136,4.6614
									c0,0-1.6074-1.972-0.5947-2.8122c1.5999-1.3265-0.0007-2.842-0.0007-2.842s0.9402,0.2809,1.5308,0.8126
									c0.5894,0.5306,0.1302,2.6261,0.1302,2.6261s0.2482-0.466,1.9201-1.9744c1.6716-1.5106,0.3723-2.9621,0.3723-2.9621
									c1.0599-1.0644,0.621-1.7277,0.1846-2.0631c0.3468,0.1545,0.8698,0.3067,1.5378,0.2531
									c1.2516-0.0982,1.774-2.1091,1.774-2.1091S346.9663,101.7709,345.8711,101.5778z M330.0204,93.0445
									c-0.4602-0.5711,0.588-1.6855,0.588-1.6855l0.6312-0.6073c0,0,0.7041,1.4212,1.1862,2.8245
									C332.2437,93.5788,330.4567,93.5858,330.0204,93.0445z"/>
								<g>
									<path d="M321.6442,108.1094c0,0-4.52-4-5.1894-6.1491c-0.6694-2.1503-1.3748-5.9031-1.7594-7.7177
										c-0.3835-1.8147-2.6275-5.2584,2.6541-10.4446c0,0-3.2928,0.4201-4.6453,4.3963
										c-1.3525,3.9752,1.7379,5.3413,0.6302,9.1156c-0.5545,1.8878-0.4953,3.6764-0.1312,5.1792
										c0.3632,1.504,2.0649,2.1553,2.7294,2.8985c0.5831,0.6556,0.6073,3.1982,1.6984,4.0026
										c1.3886,1.0226,2.7929,0.8346,2.9459,1.0898c0.2726,0.4565,0.3285,1.3925,0.4222,1.6092
										c0.0936,0.218,0.7751,2.7757,0.7751,2.7757s1.2987,0.5305,1.1653,0.1324c-0.1312-0.3983-1.1208-1.9426-0.6655-2.7027
										c0.4553-0.76,1.4471-1.4436,0.6595-2.036c-0.7876-0.5912-1.6413-0.3641-1.7029-1.1083
										C321.1667,108.4051,321.6442,108.1094,321.6442,108.1094z"/>
									<path d="M326.4397,80.889c-2.0988-1.019-4.7153,0.106-4.7153,0.106c0.7498-0.0326,2.9723-0.8818,4.3047,1.238
										c1.3336,2.1196-0.8212,2.613,1.188,3.2316c0.9142,0.2807,1.5157,0.4381,1.6493,1.0728
										c0.1347,0.6356-0.8217,1.0575,0.2158,1.4722c2.1742,0.8662,1.3974,3.1874,0.7545,4.0104c0,0,2.8018-1.5408,1.9836-3.1683
										c-0.8173-1.6276-1.6573-0.2179-1.4918-1.6754c0.1654-1.4575,0.3172-2.5314-1.7611-2.9445
										C326.49,83.8165,327.4268,81.3688,326.4397,80.889z"/>
									<path d="M309.0337,104.2242c-0.0184-0.1966-0.9278-1.2559-0.8793-1.4203c0.3357-1.1548,3.0483-1.5869,2.5611-1.9059
										c-2.1099-1.3858-1.5865-4.5926-1.5865-4.5926s-1.2154,2.7688-1.7884,3.6476c-0.5728,0.88-1.468,2.3958-1.1936,3.0965
										l0.942,0.1427L309.0337,104.2242z"/>
									<path d="M329.3064,76.9652c0,0,4.6863,1.0944,4.8073,2.1112c0.1198,1.0169,0.2112,0.9986,1.4393,1.8762
										c1.2292,0.8776,2.9902,0.695,2.6763,1.898c-0.3137,1.204,0.1513,2.2827,2.4537,3.6843
										c1.233,0.7506,0.5038,2.232-0.311,4.2053c-0.8148,1.9733,2.1948,2.7585,2.1903,4.0871
										c-0.0023,1.3272-1.1299,1.3764-0.4815,3.9887c0.2435,0.9905-1.1879,2.9048,0.1371,4.2365
										c1.3239,1.3308,2.3512,2.1571,2.3512,2.1571s0.42-1.6059,0.3423-1.9688c-0.0765-0.3629,1.9585-0.6039,1.9585-0.6039
										l0.4759-1.333c0,0-2.4583,1.3731-2.4937-0.1357c-0.0344-1.51,0.074-3.2391,0.074-3.2391l-1.4047-3.6529
										c0,0,1.9308,0.3191,2.1099,1.6076c0.177,1.2897,1.2433,1.8574,1.5809,2.0996c0.7818,0.5611,3.1462-0.6655,3.1462-0.6655
										s-3.4419-0.2837-3.289-1.3588c0.1506-1.0751-1.8181-3.2173-1.8181-3.2173s0.3256-1.3012-0.6636-2.9879
										c-1.2483-2.1296-1.9855-1.9182-1.9855-1.9182l-0.5217-2.2441c0,0,0.927,0.4482,1.1436,0.7053
										c0.3549,0.4242,0.8149,2.0565,0.8149,2.0565s0.613-1.7134,0.3503-2.8235c-0.2639-1.11-2.7939-1.7792-2.7939-1.7792
										s-1.1133-2.7441-1.8297-3.4992c-0.7188-0.7572-3.7847-1.7598-3.7847-1.7598s-1.1949-1.1686-2.3603-1.3021
										C332.4542,77.0575,329.3064,76.9652,329.3064,76.9652z"/>
									<path d="M337.666,106.2029c0,0-0.8053-0.6906-0.9262-1.7075c-0.1033-0.8745,0.6907-0.8189,0.906-1.685
										c0.0355-0.1419,0.0554-0.3097,0.0526-0.5086c-0.0161-1.4186,0.0865-3.6214,0.1642-3.2573
										c0.0765,0.3629,0.7169,4.7906,1.9301,5.0901c3.0998,0.7658,2.802,3.3884,2.802,3.3884l-2.1708-1.4276
										c0,0,1.2006,0.8741,0.5364,1.7725c-0.663,0.8993-0.7986,3.393-0.7986,3.393s-1.0764-1.0532-1.202-2.5427
										C338.8352,107.2276,337.666,106.2029,337.666,106.2029z"/>
								</g>
							</g>
							<path d="M320.0149,92.3536c0,0-2.0621-0.3203-2.7672-0.1463c-0.705,0.174-1.8414,0.9795-2.1625,1.4839
								c-0.3211,0.5032-0.2664,1.2174-0.0553,0.8425c0.2111-0.3759,1.0998-1.2825,1.9252-1.4657
								c0.8242-0.1831,2.8946,0.2577,3.1056-0.1183C320.2705,92.5739,320.3444,92.489,320.0149,92.3536z"/>
							<path d="M330.3589,100.0103c0,0-1.5987,0.9881-3.3054,1.6575c-1.0686,0.4202-2.1963,0.6606-2.9052,0.7693
								c-1.579,0.241-4.3245-0.4489-4.3245-0.4489s2.7391-0.2203,3.3238-0.385c0.5871-0.1639,1.1884,0.2425,1.7571-0.1597
								c0.5675-0.4034,0.8141-0.3024,1.2516-0.3359C327.1158,101.034,329.0275,100.3523,330.3589,100.0103z"/>
							<path d="M328.3383,104.082c0,0-0.7884,1.3445-2.5531,1.3759c-0.9637,0.0174-1.3127-0.2398-1.3127-0.2398
								s1.2077,1.7039,2.3542,1.0164c1.1443-0.6863,1.2368-1.4423,1.2368-1.4423L328.3383,104.082z"/>
						</g>
					</g>
					<path style="fill:#FFFFFF;" d="M343.7127,303.276c11.2468-3.7011,29.9502-10.9303,58.0145-15.2673
						c10.0874-1.5587,16.437-0.7854,21.7877-0.7342c18.1125,0.171,12.8839,9.3094,12.8839,9.3094
						s-103.2149,25.3908-144.4475,12.6384C291.9513,309.2224,323.928,309.7861,343.7127,303.276z"/>
					<path d="M350.4151,315.6355c0,0,47.3925-2.1935,56.7741-4.8295c9.3814-2.636,29.2618-10.8933,29.702-14.5215
						c0.4414-3.627-2.0139-4.3969-7.3454-5.1862c-5.3315-0.7891-22.6456,0.007-36.6114,2.7015
						c-14.7595,2.8483-29.5599,8.3492-43.9464,12.8885c-11.8273,3.7309-28.2686,5.3165-38.9463,4.8593
						c-9.1226-0.391-14.2849-0.3753-25.1273-3.4819c-11.1663-3.2006-13.1071-8.1484-13.1071-8.1484s5.4306,8.425,21.5215,12.0794
						c15.8859,3.608,24.6082,3.4266,28.5714,3.634C334.8906,316.3113,350.4151,315.6355,350.4151,315.6355z"/>
					<path style="fill:none;stroke:#000000;stroke-width:0.8421;stroke-miterlimit:10;" d="M327.3412,306.8204
						c18.506-2.8245,35.3726-9.7962,42.5983-12.1605c6.4297-2.1053,20.0468-5.1262,31.1667-6.6035
						c14.8572-1.9732,28.6283-0.847,32.86,1.2247c4.2317,2.0716,4.29,6.9466,1.4541,8.7819"/>
				</g>
			</g>
			<g id="Kopf_10_">
				<path d="M334.1591,130.0503c1.508-1.2818,7.4533-4.6788,4.6556-5.099c-2.7978-0.4188-4.4339-3.5471-4.4339-3.5471
					c0,3.3571-4.9011,9.6568-9.5161,9.0975s-4.9741-7.4297-5.1157-7.989c-0.1381-0.5593-2.882-0.4317-2.882,2.4386
					c0,8.2027,1.7736,12.4149,1.7736,12.4149s5.9629-2.4973,8.2027-3.9905C329.5035,131.6021,331.5983,132.227,334.1591,130.0503z"
					/>
				<path style="fill:#F4C6A1;stroke:#000000;stroke-width:0.8086;stroke-miterlimit:10;" d="M338.7838,101.9516l1.3039,5.4081
					c0,0,1.2591,1.4456,1.0739,2.6574c-0.1876,1.2119-0.4201,4.9879-0.793,5.0811c-0.3729,0.0932-0.9322,0-0.9322,0
					s-1.1806,4.6853-4.9797,7.1563c0,0,0.2164,3.9008,0.5893,5.5788c0.3729,1.6791-6.0421,3.8868-10.6413,2.6603
					c-3.3254-0.8868-4.8303-4.4862-4.8303-4.4862s1.1198-0.839,1.3995-2.1441c0.2809-1.3051,0.8402-3.8232,0.8402-3.8232
					s-1.0266-0.9322-1.6803-2.6103c-0.6076-1.5664-0.6514-3.0774-0.6514-3.0774s-1.6781,0.4661-1.8645-2.0508
					c-0.1865-2.5182,2.4238-13.3343,2.4238-13.3343l6.9006-4.195l11.189,4.2883L338.7838,101.9516z"/>
				<g>
					<g>
						<path d="M331.371,114.3755c-0.2118-0.1623,1.0254-0.2797,1.0484,0.2106c0.0104,0.2337-0.3902,0.053-0.6986-0.0701
							C331.5321,114.4411,331.486,114.4641,331.371,114.3755z"/>
						<g>
							<path d="M331.5101,119.4809c0,0-2.5872,0.0701-3.0072-0.2095c0,0,0.7342,1.1186,1.4686,1.1186
								C330.7069,120.39,331.5101,119.4809,331.5101,119.4809z"/>
							<path d="M325.4063,115.6762c0,0-0.5617,0.443-0.6296,1.3983C324.7767,117.0745,323.9837,115.4666,325.4063,115.6762z"/>
							<path d="M334.1113,117.0745c0,0-2.0177-0.0646-2.3675-0.0646c-0.3499,0-1.4456,0.2797-1.4456,0.2797
								s-0.8332-0.4822-1.2591-0.4661c-1.2119,0.0471-3.8064-0.5823-3.8064-0.5823s1.2183,1.3356,4.9481,1.7712
								C332.1393,118.241,334.1113,117.0745,334.1113,117.0745z"/>
						</g>
						<path d="M328.7533,114.1862c0.1864-0.5363,0.9081-0.4431,1.1198-0.1393c0.0622,0.091-0.2968,0.0219-0.4212,0.0932
							C329.0146,114.3934,328.5842,114.673,328.7533,114.1862z"/>
						<path d="M334.3625,123.0603c0.0837-0.7535,0.0521-0.9411,0.0521-0.9411s-2.0654,1.4645-3.3935,1.8144
							c-1.9047,0.5006-3.6161-0.0461-4.4759-0.3499c-1.1889-0.42-4.4067-3.73-4.4067-3.73l-0.6974,2.052
							c0,0,2.395,2.4099,4.3354,3.3801c1.259,0.6284,2.7265,0.8391,4.7554,0.0691
							C332.5587,124.5862,334.3625,123.0603,334.3625,123.0603z"/>
					</g>
					<g>
						<path d="M339.693,106.8936c0,0-0.8874-1.0416-1.5043-1.1187c-0.6168-0.0772-2.1383,0.1335-3.0417,0.3487
							c-0.8275,0.1991-1.716,0.3096-2.3076,0.6651c-0.1749,0.1048,0.2095,0.9783,0.9092,0.8034
							c0.8978-0.2245,2.0394-0.5513,3.1812-0.8735C337.6398,106.5183,339.693,106.8936,339.693,106.8936z"/>
						<path d="M328.6261,106.1351c0.1461,0.0139,0.2451,0.1612,0.2014,0.3016c-0.1934,0.6238-0.7274,0.7182-1.7241,0.5823
							c-1.1302-0.1541-2.8658-0.6847-3.8026-0.4626c-0.839,0.2002-1.9013,0.4626-1.9013,0.4626s1.5146-1.2337,2.8267-1.3879
							c1.3097-0.1543,1.6065,0.1415,2.2614,0.2579C327.0045,105.9798,328.1185,106.0879,328.6261,106.1351z"/>
						<path d="M337.8786,108.5352c0,0-0.3647,0.0299-0.7458-0.0473c-0.4258-0.0851-0.8776-0.196-1.3564-0.196
							c-0.9091,0-1.6319,0.2095-2.472,0.6998c0,0,2.2155-0.4661,2.7046-0.3038c0.4902,0.1633,1.1239,0.2893,1.3806,0.2432
							C337.6451,108.8839,337.8786,108.5352,337.8786,108.5352z"/>
						<path d="M328.4917,108.1584c0,0-0.3647,0.0299-0.7458-0.0473c-0.4258-0.0851-0.8776-0.196-1.3564-0.196
							c-0.9091,0-1.6319,0.2095-2.472,0.6998c0,0,2.2155-0.4661,2.7046-0.3038c0.4903,0.1633,1.1239,0.2893,1.3806,0.2432
							C328.2581,108.5072,328.4917,108.1584,328.4917,108.1584z"/>
						<path d="M325.4338,108.7508c0,0.3407,0.3188,0.618,0.7112,0.618c0.3925,0,0.7112-0.2773,0.7112-0.618
							c0-0.3418-0.3188-0.618-0.7112-0.618C325.7526,108.1328,325.4338,108.409,325.4338,108.7508z"/>
						<path d="M334.6527,109.0384c0,0.3418,0.32,0.618,0.7124,0.618c0.3925,0,0.7101-0.2762,0.7101-0.618
							c0-0.3407-0.3176-0.617-0.7101-0.617C334.9727,108.4214,334.6527,108.6977,334.6527,109.0384z"/>
					</g>
					<g>
						<path d="M336.3681,112.4478c-0.0299,0.0863,0.0713,0.2128,0.2256,0.2843c0.1531,0.0702,0.2992,0.0587,0.328-0.0265
							c0.0265-0.0863-0.0748-0.2128-0.2267-0.2843C336.5419,112.3511,336.3957,112.3626,336.3681,112.4478z"/>
						<path d="M330.3029,111.0782c0,0.0599,0.0806,0.1093,0.1772,0.1093s0.1749-0.0494,0.1749-0.1093
							c0-0.0599-0.0782-0.1094-0.1749-0.1094S330.3029,111.0184,330.3029,111.0782z"/>
						<path d="M330.7828,111.6583c0,0.0863,0.1094,0.1553,0.2487,0.1553c0.1369,0,0.2486-0.069,0.2486-0.1553
							c0-0.0852-0.1116-0.1543-0.2486-0.1543C330.8922,111.504,330.7828,111.5731,330.7828,111.6583z"/>
						<path d="M330.2913,110.2542c0,0.0598,0.0783,0.1093,0.175,0.1093c0.0966,0,0.1749-0.0495,0.1749-0.1093
							c0-0.0599-0.0782-0.1094-0.1749-0.1094C330.3696,110.1448,330.2913,110.1943,330.2913,110.2542z"/>
						<path d="M329.6124,110.9942c0,0.084,0.1082,0.1507,0.244,0.1507c0.1335,0,0.2417-0.0667,0.2417-0.1507
							c0-0.0828-0.1082-0.1507-0.2417-0.1507C329.7206,110.8435,329.6124,110.9113,329.6124,110.9942z"/>
						<path d="M329.4627,112.0679c0,0.0611,0.0783,0.1094,0.175,0.1094c0.0966,0,0.1749-0.0483,0.1749-0.1094
							c0-0.0599-0.0782-0.1094-0.1749-0.1094C329.541,111.9586,329.4627,112.0081,329.4627,112.0679z"/>
						<path d="M329.9047,112.3223c0,0.0876,0.1151,0.1589,0.2555,0.1589c0.1405,0,0.2555-0.0713,0.2555-0.1589
							c0-0.0874-0.1151-0.1587-0.2555-0.1587C330.0198,112.1635,329.9047,112.2348,329.9047,112.3223z"/>
						<path d="M331.1016,112.4121c0,0.0599,0.0794,0.1094,0.1762,0.1094c0.0966,0,0.1749-0.0495,0.1749-0.1094
							c0-0.0609-0.0782-0.1094-0.1749-0.1094C331.181,112.3027,331.1016,112.3511,331.1016,112.4121z"/>
						<path d="M334.3425,111.7583c0,0.092,0.1335,0.1669,0.2982,0.1669c0.1623,0,0.2969-0.0748,0.2969-0.1669
							c0-0.0909-0.1346-0.1657-0.2969-0.1657C334.476,111.5926,334.3425,111.6675,334.3425,111.7583z"/>
						<path d="M333.5564,112.465c0,0.0922,0.1325,0.1669,0.297,0.1669c0.1645,0,0.2958-0.0747,0.2958-0.1669
							c0-0.0909-0.1313-0.1657-0.2958-0.1657C333.6889,112.2993,333.5564,112.3741,333.5564,112.465z"/>
						<path d="M332.8555,111.7583c0,0.092,0.1347,0.1669,0.297,0.1669c0.1657,0,0.2992-0.0748,0.2992-0.1669
							c0-0.0909-0.1335-0.1657-0.2992-0.1657C332.9902,111.5926,332.8555,111.6675,332.8555,111.7583z"/>
						<path d="M326.5107,111.2381c0,0.0932,0.1323,0.1669,0.297,0.1669c0.1645,0,0.2958-0.0737,0.2958-0.1669
							c0-0.0909-0.1313-0.1657-0.2958-0.1657C326.643,111.0724,326.5107,111.1473,326.5107,111.2381z"/>
						<path d="M325.8984,111.9667c0,0.092,0.1324,0.1657,0.2958,0.1657c0.1657,0,0.2992-0.0737,0.2992-0.1657
							c0-0.092-0.1335-0.1669-0.2992-0.1669C326.0308,111.7998,325.8984,111.8747,325.8984,111.9667z"/>
						<path d="M324.2193,111.7583c0,0.092,0.1335,0.1669,0.298,0.1669c0.1646,0,0.297-0.0748,0.297-0.1669
							c0-0.0909-0.1324-0.1657-0.297-0.1657C324.3528,111.5926,324.2193,111.6675,324.2193,111.7583z"/>
						<path d="M325.1297,111.1565c0,0.0909,0.1324,0.1657,0.2969,0.1657c0.1646,0,0.2958-0.0748,0.2958-0.1657
							c0-0.092-0.1312-0.1669-0.2958-0.1669C325.2621,110.9896,325.1297,111.0644,325.1297,111.1565z"/>
						<path d="M323.66,110.5534c0,0.092,0.1335,0.1657,0.298,0.1657c0.1646,0,0.297-0.0737,0.297-0.1657
							c0-0.0922-0.1324-0.1669-0.297-0.1669C323.7935,110.3866,323.66,110.4613,323.66,110.5534z"/>
						<path d="M327.6283,112.8805c0,0.092,0.1335,0.1669,0.298,0.1669c0.1646,0,0.298-0.0748,0.298-0.1669
							c0-0.091-0.1334-0.1658-0.298-0.1658C327.7618,112.7147,327.6283,112.7895,327.6283,112.8805z"/>
					</g>
				</g>
				<g>
					<path style="fill:#C2975D;stroke:#000000;stroke-width:0.8086;stroke-miterlimit:10;" d="M307.8399,120.3808
						c0,0,0.923,1.853,2.1648,1.6919c0.6617-0.0864,1.1416-0.3429,1.4466-0.5639c-0.3568,0.4166-0.6468,1.1544,0.6054,1.9738
						c0,0-0.9667,1.6837,0.9759,2.8116c1.9416,1.1278,2.2799,1.5306,2.2799,1.5306s-0.8805-1.9496-0.4144-2.5894
						c0.4661-0.6399,1.3246-1.1072,1.3246-1.1072s-1.2476,1.8081,0.5858,2.7714c1.1613,0.6111,0,2.8668,0,2.8668
						c1.8494,0.2463,1.4168-4.4079,1.2947-5.0248c-0.123-0.6156,0.831-1.0783,0.831-1.0783s0.4639,1.3867,1.2027,1.6642
						c0.6457,0.2429,0.9254,0.8943,0.5547,1.8806c-0.3693,0.9863,1.3569,3.082,1.3569,3.082
						c-0.5593-0.3993,0.4627-2.548,0.7389-4.5621c0.1496-1.0921-1.2326-0.9863-0.3694-2.8345
						c1.4973-3.2076-0.877-3.2594-0.6158-5.1779c0.1922-1.4225,1.5997-1.8886-0.2474-5.0547
						c-0.2567-0.4419-0.2349-1.3856-0.1175-2.3616c0.1543,0.1289,1.4214,1.1533,2.3652,0.5986
						c1.0059-0.5916,1.5272-2.1741,1.2176-3.2916c-0.3084-1.1176,0.9783-2.4181,2.1429-3.2674
						c1.1671-0.8494,2.5907-1.8137,2.5907-3.6989c0-2.0728,2.0336-2.4043,2.0336-2.4043l2.3432-0.6157
						c0,0,0.2693,0.4177,2.4651,1.9726c1.4789,1.0473,1.6021,1.4789,2.3422,3.3283c0.3625,0.908,0.9391,3.714,0.7089,5.6716
						c-0.1853,1.571-0.1945,3.7589-0.4615,5.3009c-0.2865,1.6504-1.0853,4.2054-2.1269,5.5174l-1.6642,2.2189
						c0,0,1.731,0.8908,0.7251,1.4823c-1.0082,0.5904-2.4164,1.0891-1.2982,2.4928c1.3375,1.6791-0.092,3.6058-0.092,3.6058
						s1.1094,0,1.6538-1.4432c0.4557-1.2096-0.206-2.8139,0.1036-3.4561c0.2497-0.519,1.769-1.2717,1.769-1.2717
						s-2.0981,1.1658-0.7206,2.5147c1.3765,1.35,1.5606,0.8206,0.6779,1.5594c-0.8839,0.7377-0.107,2.7149-0.107,2.7149
						s-0.0311-1.2648,1.0036-2.09c1.7263-1.3765,0.7596-2.3835,0.6835-3.0718c-0.0736-0.6881,1.0565-1.465,2.3502-1.5582
						c1.3604-0.0966,2.8795-1.93,2.2201-3.4205c-0.4915-1.1105-0.5513-2.304-0.1715-3.0728c0.8182-1.6434,0.3038-3.379,0.3038-3.379
						s0.946,0.0852,1.7447,0.2936c0.7988,0.2071,1.2038,0.2439,0.1255,1.6457c-0.091,0.1174-0.1715,0.2359-0.2451,0.3557
						c-0.7918,1.3085-0.4028,2.3109-0.4028,2.3109s1.0519-2.6309,2.182-3.074c1.1302-0.4442,1.952-0.5064,0.6986-1.7091
						c-1.2544-1.2015-2.4617-2.9439-2.4617-2.9439l-0.6216-1.0681c0,0,1.3097,0.9932,2.2672,0.9426
						c0.9599-0.0506,2.0279,0.1818,1.9911,0.587c-0.0357,0.4051,0.4166-1.5975-0.5052-1.952
						c-0.9218-0.3556-2.433-0.2186-2.3478-1.1646c0.084-0.9461-2.9728-1.8414-2.7403-2.9107
						c0.2302-1.0691,1.3811-1.7055,0.1162-2.7724c-1.2671-1.0681-2.0291-1.8149-2.0291-1.8149s0.7114-0.6986-0.6168-2.5884
						c-1.3304-1.8909-3.9901-4.4551-6.4104-4.8084c-2.4215-0.3533-2.4215-0.3533-2.4215-0.3533s-0.4776-1.1981,1.3258-1.2499
						c1.8023-0.0506,3.6989,2.219,3.6989,2.219s-0.3683-2.4722-2.6516-3.4516c-1.7251-0.74-3.8831,0.3948-3.8831,0.3948
						s-2.3858-2.2569-3.6483-0.3268c-0.6847,1.0472-1.4939,0.1519-3.1569,0.2623c-4.3043,0.2866-6.5854,2.9981-6.5854,2.9981
						s-1.4789,0.0932-2.7748,1.2947c-1.1577,1.0773-1.038,2.0336-1.4799,2.6505c-0.4926,0.6917-1.632,0.9553-2.4652,2.342
						c-0.7539,1.2591-0.3868,3.5321-0.3868,3.5321s-0.0483,0.015-0.1288,0.0426c0.4292,0.6457,0.1633,1.3857,0.0667,2.2442
						c-0.0874,0.7619,0.1888,1.5595-0.0403,2.2915c0.0219-0.076,0.0495-0.1738,0.091-0.3189
						c-0.0369,0.1335-0.0668,0.267-0.0944,0.4017c-0.0437,0.2128-0.0621,1.144-0.0783,0.2623
						c0.0162,0.8931-0.1105,1.6941-0.6744,2.4238c-0.0345,0.0437-0.0817,0.0817-0.1196,0.1242
						c0.8217,0.8966,1.4662,0.4327,1.1935,1.518c0.2657-0.0288,0.046,1.5261,0.046,1.5261s-0.6721,1.2234-0.9288,2.563
						c-0.2555,1.3385,0.7159,2.6516,0.7159,2.6516s1.0392,1.4617-0.8817,2.2374
						C308.9493,121.2589,307.8399,120.3808,307.8399,120.3808z M321.4411,110.2668c0.1819-1.4685,0.5755-3.0004,0.5755-3.0004
						l0.7412,0.4627c0,0,1.2522,0.8712,0.9206,1.5226C323.3654,109.8698,321.6206,110.2311,321.4411,110.2668z"/>
					<g>
						<path d="M334.6136,122.1394c0,0,3.8929-4.3429,4.1368-6.9893c0.206-2.2354,0.122-6.041,0.122-7.8906
							c0-1.8494,1.48-5.6716-4.7416-9.6397c0,0,3.2984-0.2705,5.4379,3.3283c2.1395,3.5988-0.5939,5.5692,1.2649,9.0217
							c0.931,1.7276,1.2429,3.4838,1.1969,5.026c-0.0437,1.541-1.5699,2.5273-2.0636,3.3894
							c-0.4339,0.7596,0.0656,3.2443-0.8321,4.2536c-1.1428,1.2845-2.5515,1.3915-2.6481,1.6723
							c-0.1715,0.5006-0.0334,1.426-0.0794,1.6562c-0.0461,0.2313,0.6866,1.8755,0.6866,1.8755s-2.5285,2.0805-2.4802,1.6639
							c0.0461-0.4155,1.1928-2.4288,0.5921-3.0768c-0.6008-0.6468-1.363-1.9951-0.7491-2.7626
							c0.1256-0.157,0.6699-0.2018,0.5756-0.9418C334.9412,121.9855,334.6136,122.1394,334.6136,122.1394z"/>
						<path d="M324.6646,96.6564c1.8368-1.4272,4.6208-0.8689,4.6208-0.8689c-0.7388,0.1232-3.082-0.2475-3.9452,2.0957
							c-0.8621,2.342,1.3419,2.3788-0.4903,3.3962c-0.8333,0.4627-1.3881,0.7401-1.3881,1.3869c0,0.6479,1.0198,0.862,0.0932,1.48
							c-1.9415,1.2948-0.7054,3.3975,0.091,4.0685c0,0-3.0499-0.9254-2.5872-2.6816c0.4603-1.7562,1.5698-0.5547,1.1095-1.9416
							c-0.4627-1.3868-0.8322-2.4042,1.1094-3.2363C325.2183,99.5233,323.8003,97.3285,324.6646,96.6564z"/>
						<path d="M346.8365,115.7768c-0.023-0.1967,0.2647-1.3657,0.183-1.5164c-0.5651-1.0565-3.102-0.8343-2.6946-1.2463
							c1.7724-1.7873,0.4043-4.8914,0.4043-4.8914s1.7552,2.4502,2.4963,3.189c0.7388,0.74,2.2467,2.0518,2.1225,2.7907
							l-0.9209,0.5023L346.8365,115.7768z"/>
						<path d="M321.059,93.4201c0,0-4.3457,2.0347-4.2537,3.0521c0.092,1.0162,0,1.0162-1.0174,2.1257
							c-1.0174,1.1106-2.7736,1.2948-2.2189,2.4043c0.5547,1.1095,0.3234,2.258-1.6342,4.0994
							c-1.0474,0.9863-0.0299,2.281,1.1715,4.0373c1.2027,1.7574-1.5721,3.1441-1.2935,4.439
							c0.2761,1.2935,1.3856,1.1095,1.2935,3.791c-0.0345,1.0162,1.7574,2.5884,0.7389,4.1604
							c-1.0174,1.5721-1.8484,2.5895-1.8484,2.5895s-0.7412-1.4801-0.7412-1.8494c0-0.3706-2.0324-0.1854-2.0324-0.1854
							l-1.3158-1.619c0,0,3.2912,0.6429,3.0139-0.8372c-0.2785-1.4789-0.8372-3.5162-0.8372-3.5162l0.6789-2.8733
							c0,0-1.8173,0.7089-1.7263,2.0037c0.0944,1.2947-0.8286,2.0682-1.1094,2.3732c-0.6457,0.7089-3.2041,0-3.2041,0
							s3.2985-0.9864,2.9279-2.0037c-0.3694-1.0174,1.1095-3.5137,1.1095-3.5137s-0.5869-1.2015,0.0311-3.051
							c0.7779-2.3351,1.541-2.281,1.541-2.281l0.0461-2.296c0,0-0.8126,0.6284-0.9714,0.9241
							c-0.2578,0.4868-0.3705,2.1741-0.3705,2.1741s-0.9507-1.5457-0.923-2.6816c0.0276-1.1371,2.357-2.3121,2.357-2.3121
							s0.5202-2.9061,1.0634-3.791c0.5455-0.8862,3.3295-2.4963,3.3295-2.4963s0.9242-1.3869,2.0336-1.7574
							C318.0068,94.1601,321.059,93.4201,321.059,93.4201z"/>
						<path d="M318.9344,123.6632c0,0,0.6445-0.839,0.5525-1.8564c-0.0806-0.8735-0.8425-0.656-1.2315-1.457
							c-0.0644-0.1313-0.1174-0.29-0.1553-0.4846c-0.2773-1.3867-0.832-3.5136-0.832-3.1441c0,0.3705,0.2877,4.821-0.8333,5.363
							c-2.8657,1.3869-1.6623,3.5715-1.6623,3.5715l1.4505-1.5275c0,0-0.7173,0.6412-0.3622,1.6949
							c0.5458,1.6198,1.4444,5.9255,2.1767,3.6836c0,0,0.34-1.6438,0.1536-3.1228
							C318.0068,124.905,318.9344,123.6632,318.9344,123.6632z"/>
					</g>
				</g>
			</g>
		</g>
		<g id="H&#xE4;nde_1_">
			<g id="hand_1_">
				<path style="fill:#F4C6A1;" d="M235.3944,151.3329c0.2963-0.9696,0.541-0.984,1.441-1.3302
					c1.2172-0.4681,1.8177-0.0936,2.6603,0c0.9009,0.1001,1.7796,0.6032,2.4386,1.2193c0.7678,0.7177,2.1172,2.4459,3.1037,2.882
					c0.4786,0.2116,2.9093,1.1984,3.8796,1.441c5.3207,1.3302,11.2369,2.5022,17.6247,2.6603
					c-1.2297,0.796-7.0613,0.4669-9.2231,0.6532c-3.3273,0.2867-5.8049-0.1873-7.3966-0.3745
					c-0.7521-0.0885-4.7082-0.805-7.4902-0.2809"/>
				<path style="fill:none;stroke:#000000;stroke-width:0.7;stroke-miterlimit:10;" d="M266.875,158.2054
					c-5.3206,0.8314-6.9834,0.6651-10.475,0.6651c-3.3396,0-10.9045-0.8169-13.6865-0.2928"/>
				<path style="fill:#F4C6A1;stroke:#000000;stroke-width:0.7;stroke-miterlimit:10;" d="M233.5379,155.8625
					c-0.0936-1.0299,0.2282-0.7056,0.2107-1.6315c0.9629,0.439,2.2881,0.2826,3.1599,0.8825
					c0.1904,0.7912,0.0801,2.1642,0.2706,2.9554c0.1398,0.5809,0.2382,1.299-0.2208,1.6815
					c-0.3034,0.2528-0.7742,0.2432-1.1071,0.0307s-0.5339-0.5933-0.5952-0.9835c-0.2661,0.3368-0.826,0.2838-1.1527,0.0052
					c-0.3267-0.2786-0.4787-0.7053-0.6173-1.1117L233.5379,155.8625z"/>
				<path style="fill:#F4C6A1;stroke:#000000;stroke-width:0.7;stroke-miterlimit:10;" d="M236.2363,151.5841
					c-1.4997-0.1859-2.9994-0.3719-4.4992-0.5578c-0.5708-0.0708-1.2233-0.1171-1.6458,0.2731
					c-0.5148,0.4754-0.3641,1.386,0.1438,1.8687c0.5079,0.4827,1.2436,0.6314,1.9417,0.6915
					c0.6981,0.0602,1.4178,0.0562,2.07,0.3122c0.4555,0.1788,1.0822,0.3659,2.0999,1.2227
					c1.6953,1.4272,0.6602,0.8255,2.4343,2.1534c0.5894,0.4412,1.5681,0.8901,2.2703,1.1115
					c0.7022,0.2214,1.5332,0.1761,2.0936-0.3014"/>
				<path style="fill:none;stroke:#000000;stroke-width:0.4;stroke-miterlimit:10;" d="M235.3532,158.5565
					c0.0512-0.2325,0.0298-0.4741,0.0076-0.7111c-0.0919-0.9822-0.1929-1.9635-0.303-2.9438"/>
				<g>
					<path d="M235.5022,151.3563c0.363-0.1045,0.6105-0.0913,0.9015-0.0576c0.2859,0.0269,0.5853,0.0295,0.8956,0.0388
						c0.6011,0.0327,1.3442,0.1199,1.8555,0.6221l-0.24,0.3201c-0.4878-0.2498-1.0393-0.2634-1.6425-0.2788
						c-0.3007-0.0156-0.6135-0.0242-0.9364-0.0613c-0.3163-0.03-0.6765-0.1365-0.876-0.4861L235.5022,151.3563z"/>
				</g>
			</g>
			<g>
				<g id="Zauberstab_1_">
					<path style="fill:#EEEA6E;stroke:#000000;stroke-width:0.7;stroke-miterlimit:10;" d="M333.4043,193.5341l-55.9375-18.5173
						l3.5364-3.1506l-5.5939,0.1287l-1.5431-5.2078l-2.3147,5.4006h-5.2722l4.3721,3.5364l-1.8003,5.4009l4.6294-3.1504
						l4.5007,3.0217c0,0-1.1573-4.4363-1.2217-4.4363c-0.0642,0,56.259,18.5815,56.259,18.5815
						C334.8189,194.6914,333.4043,193.5341,333.4043,193.5341z M274.8307,174.9526l0.7072,2.3145l-1.9287-1.3501l-2.1862,1.2859
						l0.9001-2.2502l-1.9932-1.3503l2.6361-0.0642l0.7073-2.3789l0.8359,2.3789h2.5074L274.8307,174.9526z"/>
				</g>
				<g>
					<path style="fill:#F4C6A1;stroke:#000000;stroke-width:0.4;stroke-miterlimit:10;" d="M319.0264,190.2344
						c0,0-0.5966,1.3333-0.4629,3.2067c0.057,0.7985,0.4004,1.1907,0.7479,1.71c0.3475,0.5195,1.6779,0.1253,2.0172-0.3661
						c-0.692,1.0027,2.8677,1.0531,2.5772,0c0.2101,0.7614,1.2692,1.0572,1.9121,1.0808c0.8674,0.0318,1.3465-0.7831,1.4964-0.9145
						c0.3921-0.3433,0.7068-0.7693,0.4988-1.247c-0.4495-1.0327-1.4822,0.1932-0.6651-0.5819
						c0.3767-0.3572,1.0786-0.3047,1.5917-0.384c1.1252-0.1736,3.0149,0.6436,3.9231-0.043
						c0.8279-0.6257,1.1179-1.6929,0.6895-2.6379c-0.4285-0.9448-1.3328-1.5793-2.2419-2.0796
						c-0.9089-0.5002,0.5793,0.3243-0.1658-0.3978c-0.5886-0.5703-1.6703-1.4872-2.4386-1.7736
						c-0.4353-0.1621-4.8383-1.0323-5.764-1.1639c-0.9258-0.1313-2.4797,0.3801-3.4917,1.4964
						c-0.8393,0.9259-2.4053,2.3344-3.076,2.9929c-0.3539,0.3475-0.8283,1.346-0.948,1.8272
						c-0.3191,1.2834-0.4113,1.7577-0.7303,3.0411c-0.105,0.4219-0.209,0.8726-0.0676,1.2837
						c0.1414,0.4114,0.6368,0.7359,1.019,0.5288c0.9762-0.5288,1.3825-1.6715,1.3637-2.7115
						c0.3364-0.2856,0.5668-1.2797,0.9427-1.6415c0.1587-0.1528,1.0948-1.0624,1.0948-1.0624L319.0264,190.2344z"/>
					<path style="fill:none;stroke:#000000;stroke-width:0.4;stroke-miterlimit:10;" d="M322.9913,188.9655
						c-0.2081,0.3598-1.2819,2.0166-1.4133,2.4109c-0.3326,0.9976-0.5051,1.8258-0.3988,2.4038
						c0.1385,0.7527,0.1826,0.8526,0.3988,1.5867"/>
					<path style="fill:none;stroke:#000000;stroke-width:0.4;stroke-miterlimit:10;" d="M324.1088,196.4293
						c-0.1747-0.8008-0.308-1.6105-0.3992-2.425c-0.0214-0.1914-0.0401-0.3885,0.0114-0.5741
						c0.0521-0.188,0.1718-0.3487,0.2891-0.5045c0.4245-0.5642,0.8844-1.8994,1.3089-2.4637"/>
					<path style="fill:none;stroke:#000000;stroke-width:0.4;stroke-miterlimit:10;" d="M320.4141,188.051
						c-0.1663,0.2494-1.3877,2.1834-1.3877,2.1834"/>
					<path style="fill:#F4C6A1;" d="M327.9517,185.9172c2.7434,0.582,4.432,1.004,7.1496,0.1109
						c0.6598,2.1612,1.1639,3.2977,1.829,5.5978c-1.6808,0.0144-2.5495,0.1663-4.4339,0.2771
						c-1.17-1.5618-3.1939-2.5262-4.5648-3.915c-0.4767-0.483,0.6409-0.3129,0.5466-0.5189
						C328.3592,187.2092,327.8007,186.1599,327.9517,185.9172z"/>
				</g>
			</g>
		</g>
		<g>
			<polygon style="fill:#EEEA6E;" points="266.7963,168.7563 267.1696,169.9781 266.1515,169.2654 264.9974,169.9442 
				265.4726,168.7563 264.4204,168.0435 265.812,168.0096 266.1854,166.7538 266.6266,168.0096 267.9503,168.0096 			"/>
			<polygon style="fill:#EEEA6E;" points="235.0872,183.6208 235.4606,184.8426 234.4424,184.1299 233.2883,184.8087 
				233.7635,183.6208 232.7113,182.908 234.1029,182.8741 234.4763,181.6183 234.9176,182.8741 236.2412,182.8741 			"/>
			<polygon style="fill:#EEEA6E;" points="226.3107,178.8146 226.5144,180.6243 225.2997,179.3726 223.5488,180.0446 
				224.4982,178.4904 223.2369,177.2302 225.1508,177.5234 225.9779,175.8487 226.2662,177.7229 228.0785,178.047 			"/>
			<polygon style="fill:#EEEA6E;" points="210.2378,174.6024 210.4416,176.4121 209.2269,175.1604 207.476,175.8324 
				208.4254,174.2782 207.1641,173.018 209.078,173.3112 209.9051,171.6365 210.1934,173.5107 212.0057,173.8349 			"/>
			<polygon style="fill:#EEEA6E;" points="255.9541,178.171 256.5849,180.2356 254.8644,179.0313 252.9142,180.1784 
				253.7172,178.171 251.9392,176.9664 254.2907,176.9091 254.9217,174.787 255.6674,176.9091 257.9042,176.9091 			"/>
			<polygon style="fill:#EEEA6E;" points="221.3698,170.0238 222.0007,172.0884 220.2801,170.884 218.3299,172.0311 
				219.1329,170.0238 217.3549,168.8192 219.7065,168.7619 220.3374,166.6398 221.0831,168.7619 223.3199,168.7619 			"/>
			<polygon style="fill:#EEEA6E;" points="188.0627,163.3598 188.6936,165.4245 186.9731,164.2201 185.0229,165.3672 
				185.8259,163.3598 184.0478,162.1552 186.3994,162.0979 187.0303,159.9758 187.776,162.0979 190.0128,162.0979 			"/>
			<polygon style="fill:#EEEA6E;" points="206.8489,159.9921 207.4797,162.0567 205.7592,160.8524 203.809,161.9995 
				204.612,159.9921 202.834,158.7875 205.1855,158.7302 205.8165,156.6081 206.5622,158.7302 208.799,158.7302 			"/>
			<polygon style="fill:#EEEA6E;" points="264.7253,177.2824 265.6557,178.1579 264.418,178.0444 263.753,179.2064 
				263.576,177.9393 262.3088,177.8426 263.5001,177.1226 263.2011,175.847 264.2074,176.7183 265.3566,176.0614 			"/>
			<polygon style="fill:#EEEA6E;" points="242.1125,176.6173 243.0429,177.4928 241.8052,177.3793 241.1402,178.5413 
				240.9632,177.2742 239.696,177.1775 240.8873,176.4575 240.5883,175.1819 241.5946,176.0532 242.7438,175.3964 			"/>
			<polygon style="fill:#EEEA6E;" points="256.9296,171.3355 256.7988,172.3397 256.2973,171.4917 255.2419,171.6036 
				255.9741,170.9018 255.4481,170.0426 256.4637,170.474 257.1446,169.6898 257.0518,170.7409 258.0072,171.1745 			"/>
			<polygon style="fill:#EEEA6E;" points="219.0753,157.0362 218.9445,158.0405 218.4431,157.1924 217.3876,157.3043 
				218.1198,156.6026 217.5938,155.7433 218.6095,156.1747 219.2904,155.3906 219.1975,156.4416 220.153,156.8753 			"/>
			<polygon style="fill:#EEEA6E;" points="246.2287,172.3962 244.6771,173.2753 245.3444,171.6182 244.0779,170.1602 
				245.8354,170.5037 246.4928,168.7979 246.9524,170.7778 248.772,170.9565 247.1944,171.9425 247.5876,173.8349 			"/>
			<polygon style="fill:#EEEA6E;" points="211.8107,144.4627 210.2591,145.3419 210.9264,143.6847 209.6599,142.2268 
				211.4174,142.5702 212.0748,140.8644 212.5344,142.8443 214.354,143.0231 212.7764,144.009 213.1696,145.9014 			"/>
			<polygon style="fill:#EEEA6E;" points="191.6073,140.5828 190.0558,141.462 190.7231,139.8048 189.4566,138.3468 
				191.2141,138.6903 191.8715,136.9845 192.331,138.9644 194.1507,139.1431 192.573,140.1291 192.9662,142.0215 			"/>
			<polygon style="fill:#EEEA6E;" points="220.0724,186.4063 218.7722,187.2464 219.2668,185.7768 218.0958,184.5773 
				219.6361,184.7862 220.1196,183.2749 220.6178,184.9674 222.2036,185.0304 220.8863,185.9644 221.3225,187.5844 			"/>
			<polygon style="fill:#EEEA6E;" points="237.8079,171.3311 236.5077,172.1712 237.0023,170.7016 235.8313,169.5021 
				237.3716,169.711 237.8552,168.1997 238.3533,169.8922 239.9391,169.9552 238.6218,170.8892 239.058,172.5092 			"/>
		</g>
	</g>
</g>
</svg>
