<?xml version="1.0" encoding="iso-8859-1"?>
<!-- Generator: Adobe Illustrator 25.0.1, SVG Export Plug-In . SVG Version: 6.00 Build 0)  -->
<svg version="1.1" id="Layer_1" xmlns="http://www.w3.org/2000/svg" xmlns:xlink="http://www.w3.org/1999/xlink" x="0px" y="0px"
	 viewBox="0 0 175.549 192" style="enable-background:new 0 0 175.549 192;" xml:space="preserve">
<g>
	<g>
		<defs>
			<rect id="SVGID_1_" width="175.549" height="192"/>
		</defs>
		<clipPath id="SVGID_2_">
			<use xlink:href="#SVGID_1_"  style="overflow:visible;"/>
		</clipPath>
		<path style="clip-path:url(#SVGID_2_);fill:#FFFFFF;" d="M4.7741,188.8813c0,0,41.263,3.119,77.154-24.665
			c0,0,2.876-3.101,7.951-10.188c6.25-8.726,1.206-17.453,1.206-17.453l-8.869-0.283l-7.266-3.243c0,0-20.618,7.204-36.528,19.914
			C21.9311,166.1373,0.0001,183.7533,4.7741,188.8813"/>
	</g>
	<g>
		<defs>
			<path id="SVGID_3_" d="M36.702,154.135C21.44,167.102,1.56,180.94,6.678,188.739c0,0,42.464,3.42,78.284-27.5
				c0,0,3.771-6.691,8.528-13.654c5.858-8.572,7.007-17.915,7.007-17.915l-8.078,0.533l-7.292-0.645
				C85.127,129.558,57.117,136.791,36.702,154.135"/>
		</defs>
		<clipPath id="SVGID_4_">
			<use xlink:href="#SVGID_3_"  style="overflow:visible;"/>
		</clipPath>
		<polygon style="clip-path:url(#SVGID_4_);fill:#35C0C8;" points="25.1054,172.572 10.0314,141.821 28.3294,139.025 
			32.4974,142.151 107.6544,150.927 		"/>
		<path style="clip-path:url(#SVGID_4_);fill:#7BB24A;" d="M50.5898,181.7326c0,0-24.928,4.706-43.6671-1.734
			c0,0,4.32-4.345,4.613-4.621l80.745-24.994c0,0-10.814,15.088-19.042,20.079C65.0107,175.4546,53.9777,180.6076,50.5898,181.7326"
			/>
		<polygon style="clip-path:url(#SVGID_4_);fill:#7DCED3;" points="20.4051,155.1499 59.079,160.6739 52.4031,144.5079 
			38.9091,142.9269 		"/>
		<path style="clip-path:url(#SVGID_4_);fill:#FFFFFF;" d="M60.4065,168.4548c-1.273,0.205-2.687,0.355-4.255,0.423
			c-5.02,0.217-12.701-0.225-17.826-2.182c-2.693-1.028-5.886-3.211-6.774-6.253c-0.503-1.725-0.163-3.455,0.985-5.003
			c3.614-4.875,13.992-6.98,16.035-7.353c11.291-2.051,21.858-2.137,31.411-0.237c6.841,1.36,10.315,3.044,10.514,3.159
			l-3.512,1.163l-0.698,0.112c0,0-0.538-0.417-6.854-1.672c-9.204-1.83-19.4109-1.756-30.357,0.246
			c-5.546,1.011-12.112,3.338-14.278,6.259c-0.62,0.836-0.797,1.666-0.543,2.538c0.486,1.664,2.526,3.436,5.077,4.41
			c4.722,1.804,11.947,2.205,16.699,1.999c6.545-0.282,9.211-1.597,10.693-2.629c0.478-0.332,1.099-1.29,1.054-1.602
			c-0.063-0.446-0.344-1.083-2.167-1.692c-6.389-2.135-12.026-1.022-13.387,0.2c-0.289,0.259-0.401,0.431-0.443,0.514
			c0.136,0.16,0.537,0.401,0.867,0.514l-0.883,2.674c-0.396-0.13-2.395-0.866-2.765-2.626c-0.159-0.754-0.055-1.916,1.343-3.172
			c2.409-2.162,9.274-3.075,16.16-0.775c3.4041,1.137,4.329,2.837,4.506,4.062c0.199,1.394-0.502,2.798-1.88,3.756
			C67.7715,166.2338,65.0255,167.7098,60.4065,168.4548"/>
	</g>
	<g>
		<defs>
			<rect id="SVGID_5_" width="175.549" height="192"/>
		</defs>
		<clipPath id="SVGID_6_">
			<use xlink:href="#SVGID_5_"  style="overflow:visible;"/>
		</clipPath>
		<g style="clip-path:url(#SVGID_6_);">
			<g>
				<defs>
					<rect id="SVGID_7_" x="3.593" y="132.801" width="89.712" height="57.85"/>
				</defs>
				<clipPath id="SVGID_8_">
					<use xlink:href="#SVGID_7_"  style="overflow:visible;"/>
				</clipPath>
				<g style="clip-path:url(#SVGID_8_);">
					<defs>
						<rect id="SVGID_9_" x="3.593" y="132.801" width="89.711" height="57.85"/>
					</defs>
					<clipPath id="SVGID_10_">
						<use xlink:href="#SVGID_9_"  style="overflow:visible;"/>
					</clipPath>
					<path style="clip-path:url(#SVGID_10_);fill:none;stroke:#231F20;stroke-width:0.689;stroke-miterlimit:10;" d="
						M22.2361,165.7914c-0.018,0.015-0.032,0.028-0.049,0.044c-0.646,0.617-15.234,14.558-16.99,17.438
						c-1.963,3.22-1.399,5.139,0.106,5.481c1.505,0.341,24.962-1.306,33.948-2.851c8.988-1.546,33.466-14.645,42.76-22.721
						c14.891-12.94,10.685-23.98,9.462-26.442c-0.157-0.317-0.485-0.509-0.8391-0.505l-8.241,0.099
						c-0.133,0.002-0.266-0.026-0.388-0.079l-6.839-3.03c-0.2271-0.1-0.48-0.108-0.711-0.017
						c-2.739,1.068-20.53,8.167-31.798,16.542C37.438,153.6304,33.7341,156.3244,22.2361,165.7914z"/>
					<path style="clip-path:url(#SVGID_10_);fill:#231F20;" d="M5.2329,189.7445c0,0,7.089,0.766,12.394,0.891
						c7.882,0.186,17.882-1.26,29.455-5.465c14.709-5.345,25.363-13.046,29.826-16.334c4.464-3.289,9.77-8.712,11.865-11.966
						c3.112-4.831,4.048-10.275,4.048-10.275s-4.091,13.591-24.549,25.22c-14.5861,8.29-26.55,12.743-36.2841,14.656
						c-9.7339,1.914-16.668-0.442-20.04-0.043c-3.373,0.4-6.521,2.115-7.526,1.808C3.4179,187.9285,5.2329,189.7445,5.2329,189.7445
						"/>
				</g>
			</g>
		</g>
		<path style="clip-path:url(#SVGID_6_);fill:#F5CBAB;" d="M85.0522,17.7561c0,0,2.309-0.484,2.605,0.281
			c0.295,0.764,0.194,2.976,0.04,4.229c-0.153,1.253-1.164,1.925-1.164,1.925s-0.701,3.31-1.816,5.465
			c-2.747,5.308-4.759,5.676-5.36,6.037c-0.601,0.362-4.475,1.694-5.605,1.652c-2.919-0.109-4.43-2.371-5.467-3.811
			c-1.036-1.441-2.685-3.41-3.375-6.21c-0.56-2.276-1.26-4.802-1.35-7.237c-0.076-2.022,0.482-6.808,1.672-9.775
			c1.191-2.967,10.763-4.938,13.802-2.806C82.0732,9.6391,84.7471,14.7971,85.0522,17.7561"/>
		<path style="clip-path:url(#SVGID_6_);fill:none;stroke:#231F20;stroke-width:0.881;stroke-miterlimit:10;" d="M85.0522,17.7561
			c0,0,2.309-0.484,2.605,0.281c0.295,0.764,0.194,2.976,0.04,4.229c-0.153,1.253-1.164,1.925-1.164,1.925s-0.701,3.31-1.816,5.465
			c-2.747,5.308-4.759,5.676-5.36,6.037c-0.601,0.362-4.475,1.694-5.605,1.652c-2.919-0.109-4.43-2.371-5.467-3.811
			c-1.036-1.441-2.685-3.41-3.375-6.21c-0.56-2.276-1.26-4.802-1.35-7.237c-0.076-2.022,0.482-6.808,1.672-9.775
			c1.191-2.967,10.763-4.938,13.802-2.806C82.0732,9.6391,84.7471,14.7971,85.0522,17.7561z"/>
		<path style="clip-path:url(#SVGID_6_);fill:#F5CBAB;" d="M85.0295,24.2482c0,0,4.698,11.509,4.433,13.098
			c-0.265,1.59-16.541,17.072-18.922,14.69c-2.382-2.382-4.435-20.386-4.435-20.386L85.0295,24.2482z"/>
		<path style="clip-path:url(#SVGID_6_);fill:#F5CBAB;" d="M31.2397,157.1018c0.422-0.98,0.9319-2.459,1.522-3.771
			c3.073,1.373,5.672,2.503,8.667,4.036c-0.771,2.18-1.491,4.562-1.323,5.69c0.258,1.73,3.015,4.723,5.669,6.097
			c2.654,1.373,5.383,2.511,6.239,2.607c3.565,0.401,2.468,1.946,2.094,3.09c-0.374,1.144-6.746,3.12-9.863,2.695
			c-2.019-0.275-2.689-0.272-5.809-1.275c-3.967-1.275-7.81-3.574-10.626-4.959c-0.604-0.297-3.824-1.36-2.17-4.872
			C27.2927,162.9278,29.9257,160.1548,31.2397,157.1018"/>
		<path style="clip-path:url(#SVGID_6_);fill:none;stroke:#231F20;stroke-width:0.881;stroke-miterlimit:10;" d="M31.2397,157.1018
			c0.422-0.98,0.9319-2.459,1.522-3.771c3.073,1.373,5.672,2.503,8.667,4.036c-0.771,2.18-1.491,4.562-1.323,5.69
			c0.258,1.73,3.015,4.723,5.669,6.097c2.654,1.373,5.383,2.511,6.239,2.607c3.565,0.401,2.468,1.946,2.094,3.09
			c-0.374,1.144-6.746,3.12-9.863,2.695c-2.019-0.275-2.689-0.272-5.809-1.275c-3.967-1.275-7.81-3.574-10.626-4.959
			c-0.604-0.297-3.824-1.36-2.17-4.872C27.2927,162.9278,29.9257,160.1548,31.2397,157.1018z"/>
		<path style="clip-path:url(#SVGID_6_);fill:none;stroke:#231F20;stroke-width:0.44;stroke-miterlimit:10;" d="M42.6858,175.1373
			c0,0,3.733,0.396,3.212,2.379"/>
		<path style="clip-path:url(#SVGID_6_);fill:none;stroke:#231F20;stroke-width:0.44;stroke-miterlimit:10;" d="M45.5659,174.6004
			c0,0,3.733,0.396,3.212,2.379"/>
		<path style="clip-path:url(#SVGID_6_);fill:none;stroke:#231F20;stroke-width:0.44;stroke-miterlimit:10;" d="M48.1162,173.467
			c0,0,3.839,0.608,3.318,2.591"/>
		<path style="clip-path:url(#SVGID_6_);fill:none;stroke:#231F20;stroke-width:0.44;stroke-miterlimit:10;" d="M49.7911,172.3645
			c0,0,4.725,1.356,3.981,2.95"/>
		<path style="clip-path:url(#SVGID_6_);fill:#231F20;" d="M29.312,160.0409c-0.236,0.852,1.8669,3.527,5.542,3.71
			c0.825,0.036,5.13-0.428,5.631-0.568c0.343-2.109,1.464-6.673,2.421-8.707c1.241-2.634,6.137-16.739,8.21-20.177
			c2.072-3.439,4.896-9.409,5.708-10.346c0.813-0.938,1.838-1.363,2.778-3.272c0.941-1.909,1.9-8.414,1.396-9.972
			c-0.504-1.558-0.638-4.463-1.913-9.882c-0.772-3.283-4.373-11.384-4.373-11.384l-3.877-17.792c0,0,5.979-2.797,8.049-3.514
			c2.07-0.716,6.221-2.562,9.923-4.202c3.701-1.64,7.925-3.69,10.184-5.365c4.448-3.298,6.405-6.029,8.041-9.733
			c1.751-3.964,2.868-7.231,3.868-8.741c0.999-1.509,4.29-4.993,5.734-5.345c1.445-0.351,10.382,0.267,14.395-0.195
			c1.965-0.227,4.94-0.58,7.494-0.845c0.016-1.34-0.095-2.98-0.234-4.31c-0.216-2.068-0.674-4.328-1.506-6.249
			c-4.994-0.638-12.985-0.574-14.771-1.313c-2.175-0.901-11.7859-1.781-11.7859-1.781l-2.303,0.071c0,0-1.057,3.559-1.278,4.817
			c-0.232,1.325-2.573,7.233-2.573,7.233s0.2,7.273-2.756,9.346c-2.957,2.074-5.087,2.391-6.962,0.766
			c-1.876-1.626-3.043-5.806-3.043-5.806s-2.788-2.539-4.093-4.334c-2.112-2.906-2.899-7.279-2.899-7.279s-8.674,5.103-12.183,7.123
			c-3.509,2.02-6.239,10.183-7.105,11.673c-0.867,1.49-7.329,6.529-9.854,8.493c-3.825,2.975-5.283,3.118-11.157,9.775
			c-4.782,5.419-7.332,18.171,2.231,28.69c4.466,4.913,13.51,15.324,14.345,16.577c4.463,6.694,2.019,9.563,0.957,11.476
			c-6.376,12.751-5.489,22.213-7.226,26.139C32.393,149.1889,29.565,159.5569,29.312,160.0409"/>
		<path style="clip-path:url(#SVGID_6_);fill:none;stroke:#231F20;stroke-width:0.375;stroke-miterlimit:10;" d="M29.312,160.0409
			c-0.236,0.852,1.8669,3.527,5.542,3.71c0.825,0.036,5.13-0.428,5.631-0.568c0.343-2.109,1.464-6.673,2.421-8.707
			c1.241-2.634,6.137-16.739,8.21-20.177c2.072-3.439,4.896-9.409,5.708-10.346c0.813-0.938,1.838-1.363,2.778-3.272
			c0.941-1.909,1.9-8.414,1.396-9.972c-0.504-1.558-0.638-4.463-1.913-9.882c-0.772-3.283-4.373-11.384-4.373-11.384l-3.877-17.792
			c0,0,5.979-2.797,8.049-3.514c2.07-0.716,6.221-2.562,9.923-4.202c3.701-1.64,7.925-3.69,10.184-5.365
			c4.448-3.298,6.405-6.029,8.041-9.733c1.751-3.964,2.868-7.231,3.868-8.741c0.999-1.509,4.29-4.993,5.734-5.345
			c1.445-0.351,10.382,0.267,14.395-0.195c1.965-0.227,4.94-0.58,7.494-0.845c0.016-1.34-0.095-2.98-0.234-4.31
			c-0.216-2.068-0.674-4.328-1.506-6.249c-4.994-0.638-12.985-0.574-14.771-1.313c-2.175-0.901-11.7859-1.781-11.7859-1.781
			l-2.303,0.071c0,0-1.057,3.559-1.278,4.817c-0.232,1.325-2.573,7.233-2.573,7.233s0.2,7.273-2.756,9.346
			c-2.957,2.074-5.087,2.391-6.962,0.766c-1.876-1.626-3.043-5.806-3.043-5.806s-2.788-2.539-4.093-4.334
			c-2.112-2.906-2.899-7.279-2.899-7.279s-8.674,5.103-12.183,7.123c-3.509,2.02-6.239,10.183-7.105,11.673
			c-0.867,1.49-7.329,6.529-9.854,8.493c-3.825,2.975-5.283,3.118-11.157,9.775c-4.782,5.419-7.332,18.171,2.231,28.69
			c4.466,4.913,13.51,15.324,14.345,16.577c4.463,6.694,2.019,9.563,0.957,11.476c-6.376,12.751-5.489,22.213-7.226,26.139
			C32.393,149.1889,29.565,159.5569,29.312,160.0409z"/>
		<path style="clip-path:url(#SVGID_6_);fill:#231F20;" d="M58.9788,66.6117c-5.907,1.631-20.22,12.229-26.14,13.814
			c-1.52,0.407,24.201,10.923,27.521,13.388c9.453,7.02,16.856,3.788,16.471,5.384c-6.831,7.184-10.201,14.691-10.201,18.985
			c0,5.951-5.243,22.243-5.243,24.652c0,0.884,6.835,7.778,10.426,6.974c0.804-0.186-0.954-3.73-0.508-3.999
			c-0.233-2.125,1.108-5.152,1.488-7.367c0.492-2.87,8.425-18.713,10.2-22.314c2.48-5.03,6.706-10.695,7.239-11.815
			c0.533-1.121,1.408-1.804,1.804-3.895c0.397-2.091,1.6541-7.313-0.329-9.297C76.8618,76.2777,61.1678,68.6037,58.9788,66.6117"/>
		<path style="clip-path:url(#SVGID_6_);fill:none;stroke:#231F20;stroke-width:0.375;stroke-miterlimit:10;" d="M58.9788,66.6117
			c-5.907,1.631-20.22,12.229-26.14,13.814c-1.52,0.407,24.201,10.923,27.521,13.388c9.453,7.02,16.856,3.788,16.471,5.384
			c-6.831,7.184-10.201,14.691-10.201,18.985c0,5.951-5.243,22.243-5.243,24.652c0,0.884,6.835,7.778,10.426,6.974
			c0.804-0.186-0.954-3.73-0.508-3.999c-0.233-2.125,1.108-5.152,1.488-7.367c0.492-2.87,8.425-18.713,10.2-22.314
			c2.48-5.03,6.706-10.695,7.239-11.815c0.533-1.121,1.408-1.804,1.804-3.895c0.397-2.091,1.6541-7.313-0.329-9.297
			C76.8618,76.2777,61.1678,68.6037,58.9788,66.6117z"/>
		<path style="clip-path:url(#SVGID_6_);fill:#F5CBAB;" d="M59.3776,52.2792c0,0-5.675,5.745-7.241,8.019
			c-1.566,2.275-4.463,4.748-4.364,5.413c0.099,0.666,3.108,7.157,4.623,9.108c1.5161,1.951,10.804,11.317,12.1071,12.755
			c1.303,1.439,6.883,5.098,7.801,5.778c0.918,0.679,2.068,2.005,2.147,2.537c0.08,0.532,2.013,11.675,2.132,12.473
			c0.119,0.799-0.102,2.056-1.034,2.195c-0.931,0.139-1.883,0.145-2.268-0.614c-0.386-0.759-1.315-3.342-2.352-4.82
			c-1.037-1.479-2.173-3.623-3.071-4.169c-0.898-0.546-4.302-3.305-5.492-4.896c-1.19-1.592-2.114-3.223-3.298-3.863
			c-1.183-0.64-14.732-9.37-17.822-13.672c-3.091-4.302-5.065-6.593-5.623-7.599c-0.558-1.005-2.233-4.021-2.105-4.993
			c0.127-0.971,3.907-8.475,5.72-10.922c1.812-2.447,7.683-10.534,8.682-12.044"/>
		<path style="clip-path:url(#SVGID_6_);fill:none;stroke:#231F20;stroke-width:0.881;stroke-miterlimit:10;" d="M59.3776,52.2792
			c0,0-5.675,5.745-7.241,8.019c-1.566,2.275-4.463,4.748-4.364,5.413c0.099,0.666,3.108,7.157,4.623,9.108
			c1.5161,1.951,10.804,11.317,12.1071,12.755c1.303,1.439,6.883,5.098,7.801,5.778c0.918,0.679,2.068,2.005,2.147,2.537
			c0.08,0.532,2.013,11.675,2.132,12.473c0.119,0.799-0.102,2.056-1.034,2.195c-0.931,0.139-1.883,0.145-2.268-0.614
			c-0.386-0.759-1.315-3.342-2.352-4.82c-1.037-1.479-2.173-3.623-3.071-4.169c-0.898-0.546-4.302-3.305-5.492-4.896
			c-1.19-1.592-2.114-3.223-3.298-3.863c-1.183-0.64-14.732-9.37-17.822-13.672c-3.091-4.302-5.065-6.593-5.623-7.599
			c-0.558-1.005-2.233-4.021-2.105-4.993c0.127-0.971,3.907-8.475,5.72-10.922c1.812-2.447,7.683-10.534,8.682-12.044"/>
		<path style="clip-path:url(#SVGID_6_);fill:none;stroke:#231F20;stroke-width:0.44;stroke-miterlimit:10;" d="M71.7581,100.6449
			c0.128,0.253,1.422,2.237,1.793,3.815c0.215,0.912,1.695,5.281,1.064,5.919"/>
		<path style="clip-path:url(#SVGID_6_);fill:none;stroke:#231F20;stroke-width:0.44;stroke-miterlimit:10;" d="M73.3579,97.685
			c0,0,1.145,4.637,1.5699,5.663c0.425,1.025,1.458,6.132,1.458,6.132"/>
		<path style="clip-path:url(#SVGID_6_);fill:#F5CBAB;" d="M59.1808,146.8598c1.218-2.125,0.973-1.626,2.49-4.309
			c0.039,0.014,1.359,1.615,2.833,2.126c1.842,0.637,3.188,0.779,5.455-0.354c1.133-0.638,0.484-1.767,0.425-1.347
			c-0.1429,1.015,1.5681,2.12,2.408,2.905c1.063,0.992,3.188,1.234,6.057,1.488c3.613,0.318,5.207,1.806,3.719,3.187
			c-0.733,0.681-3.931,0.744-3.931,0.744s-1.362,1.098-5.738,1.169c-2.174,0.035-2.51-0.285-5.662,0.432
			c-3.153,0.716-6.482,0.783-7.874-0.233C57.9717,151.6508,57.8558,149.1718,59.1808,146.8598"/>
		<path style="clip-path:url(#SVGID_6_);fill:none;stroke:#231F20;stroke-width:0.881;stroke-miterlimit:10;" d="M59.1808,146.8598
			c1.218-2.125,0.973-1.626,2.49-4.309c0.039,0.014,1.359,1.615,2.833,2.126c1.842,0.637,3.188,0.779,5.455-0.354
			c1.133-0.638,0.484-1.767,0.425-1.347c-0.1429,1.015,1.5681,2.12,2.408,2.905c1.063,0.992,3.188,1.234,6.057,1.488
			c3.613,0.318,5.207,1.806,3.719,3.187c-0.733,0.681-3.931,0.744-3.931,0.744s-1.362,1.098-5.738,1.169
			c-2.174,0.035-2.51-0.285-5.662,0.432c-3.153,0.716-6.482,0.783-7.874-0.233C57.9717,151.6508,57.8558,149.1718,59.1808,146.8598z
			"/>
		<path style="clip-path:url(#SVGID_6_);fill:none;stroke:#231F20;stroke-width:0.44;stroke-miterlimit:10;" d="M71.4465,142.2679
			c0,0-0.506,2.893-0.248,4.356"/>
		<path style="clip-path:url(#SVGID_6_);fill:none;stroke:#231F20;stroke-width:0.44;stroke-miterlimit:10;" d="M78.8492,148.6434
			c0,0,3.825-0.106,4.25,0.531"/>
		<path style="clip-path:url(#SVGID_6_);fill:#231F20;" d="M78.9541,19.7764c0,0-0.992-0.866-1.59-0.852s-2.017,0.431-2.845,0.765
			c-0.7599,0.306-1.59,0.538-2.102,0.959c-0.152,0.125,0.338,0.903,0.979,0.637c0.823-0.341,1.863-0.815,2.904-1.284
			C76.9471,19.7104,78.9541,19.7764,78.9541,19.7764"/>
		<path style="clip-path:url(#SVGID_6_);fill:#231F20;" d="M68.4387,20.8332c0.1089-0.003,0.2029,0.126,0.191,0.265
			c-0.053,0.614-0.428,0.763-1.173,0.742c-0.8459-0.025-2.185-0.342-2.836-0.028c-0.5829,0.281-1.003,0.035-1.003,0.035
			s0.613-0.727,1.545-1.016c0.933-0.289,1.1899-0.04,1.684-0.001C67.2367,20.8612,68.0627,20.8432,68.4387,20.8332"/>
		<path style="clip-path:url(#SVGID_6_);fill:#231F20;" d="M70.7928,31.7542c0.049,0.325,1.489,0.379,1.863,0.323
			c0.373-0.055,1.957-0.561,1.909-0.885c-0.049-0.325-1.711-0.346-2.085-0.291C72.1068,30.9572,70.7448,31.4292,70.7928,31.7542"/>
		<path style="clip-path:url(#SVGID_6_);fill:#231F20;" d="M81.7902,34.0608c0,0-3.183,2.38-4.894,2.771
			c-1.711,0.391-4.426,0.433-6.379-0.501l-0.016,2.633c0,0,2.303,2.061,6.251,0.248
			C79.5412,37.9308,81.2672,35.7258,81.7902,34.0608"/>
		<path style="clip-path:url(#SVGID_6_);fill:#231F20;" d="M77.4999,25.2853c0.037,0.078,0.188,0.104,0.336,0.059
			c0.149-0.044,0.239-0.144,0.201-0.221c-0.037-0.078-0.188-0.105-0.336-0.06S77.4628,25.2073,77.4999,25.2853"/>
		<path style="clip-path:url(#SVGID_6_);fill:#231F20;" d="M70.7572,25.0057c0.008,0.057,0.086,0.093,0.173,0.08
			c0.088-0.013,0.152-0.07,0.143-0.127c-0.009-0.058-0.086-0.094-0.174-0.08C70.8122,24.8917,70.7491,24.9487,70.7572,25.0057"/>
		<path style="clip-path:url(#SVGID_6_);fill:#231F20;" d="M71.27,25.4943c0.012,0.081,0.1219,0.132,0.246,0.114
			c0.124-0.019,0.214-0.1,0.202-0.181c-0.012-0.081-0.122-0.132-0.246-0.114C71.348,25.3323,71.258,25.4133,71.27,25.4943"/>
		<path style="clip-path:url(#SVGID_6_);fill:#231F20;" d="M70.6285,24.2234c0.008,0.057,0.086,0.093,0.173,0.08
			c0.088-0.013,0.152-0.07,0.143-0.127c-0.009-0.058-0.086-0.094-0.174-0.08C70.6835,24.1084,70.6204,24.1664,70.6285,24.2234"/>
		<path style="clip-path:url(#SVGID_6_);fill:#231F20;" d="M70.1234,25.0188c0.012,0.079,0.119,0.129,0.239,0.111
			c0.121-0.018,0.209-0.097,0.197-0.176c-0.011-0.079-0.119-0.129-0.239-0.111C70.1994,24.8608,70.1114,24.9398,70.1234,25.0188"/>
		<path style="clip-path:url(#SVGID_6_);fill:#231F20;" d="M70.14,26.061c0.008,0.057,0.086,0.093,0.173,0.08
			c0.088-0.013,0.152-0.07,0.143-0.127c-0.009-0.058-0.086-0.094-0.174-0.08C70.195,25.947,70.132,26.004,70.14,26.061"/>
		<path style="clip-path:url(#SVGID_6_);fill:#231F20;" d="M70.5746,26.2438c0.0129,0.083,0.125,0.136,0.252,0.117
			c0.127-0.019,0.22-0.102,0.207-0.186c-0.012-0.083-0.125-0.135-0.252-0.116C70.6545,26.0778,70.5616,26.1598,70.5746,26.2438"/>
		<path style="clip-path:url(#SVGID_6_);fill:#231F20;" d="M71.6646,26.1679c0.008,0.057,0.086,0.093,0.173,0.08
			c0.088-0.013,0.152-0.07,0.143-0.127c-0.009-0.058-0.086-0.094-0.174-0.08C71.7196,26.0539,71.6566,26.1109,71.6646,26.1679"/>
		<path style="clip-path:url(#SVGID_6_);fill:#231F20;" d="M67.7003,25.8375c0.0129,0.087,0.1429,0.14,0.291,0.118
			s0.257-0.11,0.244-0.198c-0.013-0.087-0.143-0.14-0.291-0.118C67.7963,25.6615,67.6873,25.7505,67.7003,25.8375"/>
		<path style="clip-path:url(#SVGID_6_);fill:#231F20;" d="M66.8183,27.1984c0.0129,0.087,0.1429,0.14,0.291,0.118
			s0.257-0.11,0.244-0.198c-0.013-0.087-0.143-0.14-0.291-0.118C66.9142,27.0224,66.8053,27.1114,66.8183,27.1984"/>
		<path style="clip-path:url(#SVGID_6_);fill:#231F20;" d="M66.5628,26.3972c0.0129,0.088,0.1429,0.141,0.291,0.118
			c0.148-0.022,0.257-0.11,0.244-0.198c-0.013-0.087-0.143-0.14-0.291-0.118C66.6588,26.2212,66.5498,26.3102,66.5628,26.3972"/>
		<path style="clip-path:url(#SVGID_6_);fill:#231F20;" d="M65.5728,25.8417c0.0129,0.087,0.1429,0.141,0.291,0.118
			c0.148-0.022,0.257-0.11,0.244-0.198c-0.013-0.087-0.143-0.14-0.291-0.118C65.6688,25.6657,65.5598,25.7547,65.5728,25.8417"/>
		<path style="clip-path:url(#SVGID_6_);fill:#231F20;" d="M77.8427,24.1716c0.0129,0.087,0.1429,0.141,0.291,0.118
			c0.148-0.022,0.257-0.11,0.244-0.198c-0.013-0.087-0.143-0.14-0.291-0.118C77.9387,23.9956,77.8297,24.0846,77.8427,24.1716"/>
		<path style="clip-path:url(#SVGID_6_);fill:#231F20;" d="M68.3637,26.7638c0.0129,0.087,0.1429,0.14,0.291,0.118
			s0.257-0.11,0.244-0.198c-0.013-0.087-0.143-0.14-0.291-0.118C68.4597,26.5878,68.3507,26.6768,68.3637,26.7638"/>
		<path style="clip-path:url(#SVGID_6_);fill:#231F20;" d="M75.5804,24.7344c0.0129,0.087,0.1429,0.14,0.291,0.118
			s0.257-0.11,0.244-0.198c-0.013-0.087-0.143-0.14-0.291-0.118C75.6763,24.5584,75.5674,24.6474,75.5804,24.7344"/>
		<path style="clip-path:url(#SVGID_6_);fill:#231F20;" d="M75.7537,25.9798c0.0129,0.087,0.1429,0.14,0.291,0.118
			s0.257-0.11,0.244-0.198c-0.013-0.087-0.143-0.14-0.291-0.118C75.8497,25.8038,75.7407,25.8928,75.7537,25.9798"/>
		<path style="clip-path:url(#SVGID_6_);fill:#231F20;" d="M74.2425,24.9339c0.0129,0.087,0.1429,0.141,0.291,0.118
			c0.148-0.022,0.257-0.11,0.244-0.198c-0.013-0.087-0.143-0.14-0.291-0.118C74.3384,24.7579,74.2295,24.8469,74.2425,24.9339"/>
		<path style="clip-path:url(#SVGID_6_);fill:#231F20;" d="M72.1191,33.2345c0,0,1.653-0.019,2.213-0.67c0,0-0.138,1.137-0.829,1.28
			C72.811,33.9885,72.1191,33.2345,72.1191,33.2345"/>
		<path style="clip-path:url(#SVGID_6_);fill:#231F20;" d="M69.6563,31.4699c0,0,0.787-0.994,1.123-0.984
			c0.336,0.01,1.299,0.117,1.299,0.117s0.815-0.441,1.223-0.413c1.165,0.078,2.784,0.594,2.784,0.594s-0.57,0.231-3.523,0.706
			C71.4993,31.6609,69.6563,31.4699,69.6563,31.4699"/>
		<path style="clip-path:url(#SVGID_6_);fill:#231F20;" d="M78.0304,21.7495c0,0-1.124,0.934-1.815,1.018
			c-0.692,0.083-1.882,0.067-1.882,0.067l-0.709,0.343c0,0,0.914,0.421,1.947,0.357c0.501-0.03,1.36-0.426,1.793-0.793
			C77.7974,22.3745,78.0304,21.7495,78.0304,21.7495"/>
		<path style="clip-path:url(#SVGID_6_);fill:#231F20;" d="M68.1896,23.4561c0,0-1.052,0.248-1.575,0.235
			c-0.713-0.017-1.019-0.143-1.019-0.143l-0.718,0.357c0,0,0.443,0.387,1.297,0.486c0.551,0.064,0.882-0.018,1.407-0.142
			c0.527-0.123,1.496-0.767,1.496-0.767L68.1896,23.4561z"/>
		<path style="clip-path:url(#SVGID_6_);fill:#231F20;" d="M73.5983,27.6391c0,0-1.6411,0.857-2.46,0.843
			c-0.818-0.014-1.457-0.191-1.696-0.428c0,0,1.064,1.361,3.168,0.866C73.5292,28.7041,73.5983,27.6391,73.5983,27.6391"/>
		<path style="clip-path:url(#SVGID_6_);fill:#231F20;" d="M85.8541,19.4848c0,0,1.011-1.738,1.0389-1.243
			c0.0291,0.494,0.0211,1.811,0.0211,1.811S86.6401,18.3698,85.8541,19.4848"/>
		<path style="clip-path:url(#SVGID_6_);fill:#231F20;" d="M86.0794,20.5398c0,0-0.1201,0.109,0.066,0.444
			c0.186,0.335,0.188,0.652,0.177,0.881c-0.011,0.228,0.329-1.138,0.245-1.398C86.4834,20.2078,86.0794,20.5398,86.0794,20.5398"/>
		<path style="clip-path:url(#SVGID_6_);fill:none;stroke:#231F20;stroke-width:0.44;stroke-miterlimit:10;" d="M85.218,16.586
			c0,0,1.699,5.008,0.874,9.213"/>
		<path style="clip-path:url(#SVGID_6_);fill:#CCA16A;" d="M92.189,31.9914c-1.876-0.671-0.933-2.116-0.933-2.116
			s0.884-1.3,0.587-2.577c-0.298-1.278-0.991-2.427-0.991-2.427s-0.271-1.486-0.014-1.469c-0.305-1.033,0.333-0.612,1.088-1.505
			c-0.037-0.04-0.085-0.074-0.119-0.115c-0.57-0.68-0.723-1.444-0.742-2.303c0.019,0.848-0.035-0.046-0.084-0.25
			c-0.032-0.129-0.067-0.256-0.106-0.382c0.045,0.138,0.075,0.231,0.099,0.302c-0.248-0.694-0.014-1.471-0.126-2.201
			c-0.126-0.821-0.41-1.522-0.023-2.159c-0.078-0.023-0.125-0.036-0.125-0.036s0.266-2.199-0.508-3.38
			c-0.853-1.301-1.958-1.511-2.46-2.157c-0.448-0.576,0.22-2.393-0.935-3.383c-1.291-1.106-3.097-1.322-3.097-1.322
			s-2.246-2.394-6.395-2.504c-1.601-0.043-2.603,1.799-3.301,0.819c-1.287-1.807-3.494,0.454-3.494,0.454s-2.117-1.008-3.748-0.23
			c-2.158,1.028-2.415,3.419-2.415,3.419s1.734-2.255,3.47-2.275c1.735-0.019,1.321,1.151,1.321,1.151l-2.313,0.432
			c-2.313,0.432-4.772,2.999-5.978,4.867c-1.205,1.867-0.493,2.512-0.493,2.512s-0.705,0.747-1.881,1.821
			c-1.177,1.075-0.046,1.643,0.218,2.661c0.264,1.019-2.641,1.997-2.523,2.903c0.118,0.906-1.339,0.832-2.212,1.209
			c-0.872,0.376-0.361,2.284-0.412,1.896c-0.05-0.389,0.968-0.652,1.892-0.641c0.922,0.012,2.144-0.992,2.144-0.992l-0.558,1.049
			c0,0-1.092,1.722-2.252,2.925c-1.16,1.204-0.367,1.233,0.736,1.616c1.102,0.383,2.215,2.871,2.215,2.871s0.336-0.978-0.477-2.206
			c-0.073-0.112-0.156-0.223-0.247-0.333c-1.091-1.306-0.703-1.356,0.057-1.586c0.76-0.231,1.666-0.348,1.666-0.348
			s-0.428,1.687,0.42,3.235c0.396,0.724,0.385,1.875-0.045,2.96c-0.577,1.458,0.953,3.162,2.264,3.203
			c1.248,0.04,2.364,0.744,2.318,1.408c-0.045,0.664-0.938,1.669,0.775,2.927c1.0259,0.753,1.045,1.97,1.045,1.97
			s0.671-1.93-0.207-2.606c-0.877-0.675-0.68-0.175,0.592-1.524c1.2729-1.35-0.789-2.39-0.789-2.39s1.49,0.665,1.749,1.154
			c0.322,0.606-0.252,2.173,0.232,3.318c0.578,1.368,1.645,1.325,1.645,1.325s-1.759-2.079-0.227-3.462
			c1.531-1.384-0.352-1.818-1.342-2.347c-0.9901-0.53,0.64-1.453,0.64-1.453l-1.685-2.069c-1.052-1.221-1.917-3.646-2.255-5.222
			c-0.316-1.472-0.409-3.574-0.6479-5.078c-0.296-1.872,0.15-4.59,0.465-5.478c0.64-1.805,3.131-3.478,3.131-3.478l2.274,0.503
			c0,0,1.969,0.24,2.048,2.233c0.072,1.812,1.477,2.684,2.63,3.456c1.153,0.771,2.439,1.972,2.185,3.058
			c-0.253,1.086,1.594,0.786,2.584,1.315c0.93,0.498,0.821,1.267,0.964,1.137c0.151,0.933,1.213-0.386,0.983,0.048
			c-1.654,3.114-0.001,3.933,0.239,5.292c0.324,1.835-1.956,1.975-0.394,5.001c0.9,1.744-0.433,1.695-0.2469,2.739
			c0.3409,1.926,1.408,3.951,0.8849,4.356c0,0,1.579-2.08,1.186-3.014c-0.393-0.934-0.151-1.571,0.461-1.828
			c0.7-0.295,1.092-1.646,1.092-1.646s0.936,0.408,0.841,1.005c-0.095,0.597-0.331,5.087,1.437,4.779c0,0-1.203-2.124-0.11-2.755
			c1.725-0.997,0.457-2.687,0.457-2.687s0.844,0.417,1.316,1.014c0.472,0.597-0.3,2.505-0.3,2.505s0.31-0.4,2.134-1.559
			c1.823-1.158,0.828-2.739,0.828-2.739c1.174-0.837,0.18-1.282-0.179-1.67c0.303,0.201,1.445,0.342,2.099,0.236
			c1.187-0.194,2.015-1.71,2.015-1.71S93.194,32.3514,92.189,31.9914"/>
		<path style="clip-path:url(#SVGID_6_);fill:none;stroke:#231F20;stroke-width:0.786;stroke-miterlimit:10;" d="M92.189,31.9914
			c-1.876-0.671-0.933-2.116-0.933-2.116s0.884-1.3,0.587-2.577c-0.298-1.278-0.991-2.427-0.991-2.427s-0.271-1.486-0.014-1.469
			c-0.305-1.033,0.333-0.612,1.088-1.505c-0.037-0.04-0.085-0.074-0.119-0.115c-0.57-0.68-0.723-1.444-0.742-2.303
			c0.019,0.848-0.035-0.046-0.084-0.25c-0.032-0.129-0.067-0.256-0.106-0.382c0.045,0.138,0.075,0.231,0.099,0.302
			c-0.248-0.694-0.014-1.471-0.126-2.201c-0.126-0.821-0.41-1.522-0.023-2.159c-0.078-0.023-0.125-0.036-0.125-0.036
			s0.266-2.199-0.508-3.38c-0.853-1.301-1.958-1.511-2.46-2.157c-0.448-0.576,0.22-2.393-0.935-3.383
			c-1.291-1.106-3.097-1.322-3.097-1.322s-2.246-2.394-6.395-2.504c-1.601-0.043-2.603,1.799-3.301,0.819
			c-1.287-1.807-3.494,0.454-3.494,0.454s-2.117-1.008-3.748-0.23c-2.158,1.028-2.415,3.419-2.415,3.419s1.734-2.255,3.47-2.275
			c1.735-0.019,1.321,1.151,1.321,1.151l-2.313,0.432c-2.313,0.432-4.772,2.999-5.978,4.867c-1.205,1.867-0.493,2.512-0.493,2.512
			s-0.705,0.747-1.881,1.821c-1.177,1.075-0.046,1.643,0.218,2.661c0.264,1.019-2.641,1.997-2.523,2.903
			c0.118,0.906-1.339,0.832-2.212,1.209c-0.872,0.376-0.361,2.284-0.412,1.896c-0.05-0.389,0.968-0.652,1.892-0.641
			c0.922,0.012,2.144-0.992,2.144-0.992l-0.558,1.049c0,0-1.092,1.722-2.252,2.925c-1.16,1.204-0.367,1.233,0.736,1.616
			c1.102,0.383,2.215,2.871,2.215,2.871s0.336-0.978-0.477-2.206c-0.073-0.112-0.156-0.223-0.247-0.333
			c-1.091-1.306-0.703-1.356,0.057-1.586c0.76-0.231,1.666-0.348,1.666-0.348s-0.428,1.687,0.42,3.235
			c0.396,0.724,0.385,1.875-0.045,2.96c-0.577,1.458,0.953,3.162,2.264,3.203c1.248,0.04,2.364,0.744,2.318,1.408
			c-0.045,0.664-0.938,1.669,0.775,2.927c1.0259,0.753,1.045,1.97,1.045,1.97s0.671-1.93-0.207-2.606
			c-0.877-0.675-0.68-0.175,0.592-1.524c1.2729-1.35-0.789-2.39-0.789-2.39s1.49,0.665,1.749,1.154
			c0.322,0.606-0.252,2.173,0.232,3.318c0.578,1.368,1.645,1.325,1.645,1.325s-1.759-2.079-0.227-3.462
			c1.531-1.384-0.352-1.818-1.342-2.347c-0.9901-0.53,0.64-1.453,0.64-1.453l-1.685-2.069c-1.052-1.221-1.917-3.646-2.255-5.222
			c-0.316-1.472-0.409-3.574-0.6479-5.078c-0.296-1.872,0.15-4.59,0.465-5.478c0.64-1.805,3.131-3.478,3.131-3.478l2.274,0.503
			c0,0,1.969,0.24,2.048,2.233c0.072,1.812,1.477,2.684,2.63,3.456c1.153,0.771,2.439,1.972,2.185,3.058
			c-0.253,1.086,1.594,0.786,2.584,1.315c0.93,0.498,0.821,1.267,0.964,1.137c0.151,0.933,1.213-0.386,0.983,0.048
			c-1.654,3.114-0.001,3.933,0.239,5.292c0.324,1.835-1.956,1.975-0.394,5.001c0.9,1.744-0.433,1.695-0.2469,2.739
			c0.3409,1.926,1.408,3.951,0.8849,4.356c0,0,1.579-2.08,1.186-3.014c-0.393-0.934-0.151-1.571,0.461-1.828
			c0.7-0.295,1.092-1.646,1.092-1.646s0.936,0.408,0.841,1.005c-0.095,0.597-0.331,5.087,1.437,4.779c0,0-1.203-2.124-0.11-2.755
			c1.725-0.997,0.457-2.687,0.457-2.687s0.844,0.417,1.316,1.014c0.472,0.597-0.3,2.505-0.3,2.505s0.31-0.4,2.134-1.559
			c1.823-1.158,0.828-2.739,0.828-2.739c1.174-0.837,0.18-1.282-0.179-1.67c0.303,0.201,1.445,0.342,2.099,0.236
			c1.187-0.194,2.015-1.71,2.015-1.71S93.194,32.3514,92.189,31.9914z"/>
		<path style="clip-path:url(#SVGID_6_);fill:#231F20;" d="M68.2323,34.2691c0,0-3.629-4.51-3.916-6.649
			c-0.287-2.14-0.35-5.802-0.421-7.58c-0.07-1.777-2.2-3.517,3.628-7.57c0,0-3.181-0.133-5.099,3.408
			c-1.919,3.541,1.345,3.453-0.311,6.843c-0.827,1.696-1.059,3.396-0.957,4.876c0.102,1.48,1.607,2.369,2.114,3.18
			c0.446,0.713,0.061,3.121,0.962,4.056c1.149,1.191,2.507,1.239,2.61,1.505c0.184,0.476,0.086,1.37,0.14,1.59
			c0.053,0.22,0.287,2.748,0.287,2.748s1.141,0.711,1.081,0.313c-0.06-0.398-0.748-2.017-0.195-2.662
			c0.553-0.646,1.602-1.132,0.951-1.819c-0.65-0.686-1.493-0.608-1.432-1.322C67.7343,34.4711,68.2323,34.2691,68.2323,34.2691"/>
		<path style="clip-path:url(#SVGID_6_);fill:#231F20;" d="M77.0429,15.3421c-1.3571-1.943-2.899-1.629-2.899-1.629
			c0.716,0.09,1.377,0.615,2.296,2.833c0.919,2.219-1.198,2.339,0.602,3.247c0.818,0.412,1.362,0.658,1.387,1.28
			c0.024,0.622-0.778,1.542,0.136,2.1c1.916,1.17-0.359,3.169-1.1,3.844c0,0,3.896-1.61,3.384-3.281s-1.532-0.473-1.141-1.824
			c0.391-1.351,0.708-2.343-1.19-3.068C76.6199,18.1181,77.6459,16.2051,77.0429,15.3421"/>
		<path style="clip-path:url(#SVGID_6_);fill:#231F20;" d="M56.936,28.5665c0.015-0.19-0.675-1.337-0.603-1.485
			c0.503-1.037,3.137-1.009,2.729-1.389c-1.772-1.65-0.762-4.598-0.762-4.598s-1.595,2.422-2.278,3.162
			c-0.682,0.739-1.773,2.029-1.627,2.735l0.869,0.286L56.936,28.5665z"/>
		<path style="clip-path:url(#SVGID_6_);fill:#231F20;" d="M91.177,16.268L90.439,15.9c0.232,0.12,2.036,1.157,2.439,4.707
			c0.135,1.185,0.156,2.023,0.155,2.494c-0.032,0.015-0.067,0.026-0.095,0.043c-0.235,0.138-0.389,0.339-0.513,0.561
			c-0.106,0.075-0.212,0.149-0.303,0.235c-0.212,0.2-0.377,0.466-0.512,0.75c-0.057,0.024-0.113,0.047-0.17,0.072
			c-0.029,0.013-0.0569,0.026-0.086,0.04c-0.119-0.053,0.92,2.071,0.92,2.071l-1.035-0.961c-0.433-0.29-0.049-0.327-1.455-1.896
			c-0.647-0.922-1.833-1.907-1.05-3.155c1.088-1.735,2.0161-3.018,0.971-3.926c-1.952-1.696-2.218-2.79-1.727-3.878
			c0.491-1.088-1.205-1.198-2.225-2.226c-1.02-1.027-1.109-1.023-1.059-2.005c0.05-0.981-4.205-2.769-4.205-2.769
			s2.961,0.594,4.041,0.907c1.081,0.313,2.023,1.61,2.023,1.61s3.646,1.302,4.204,2.133c0.557,0.83,1.698,3.538,1.698,3.538
			s2.589,1.287,3.077,4.559c0.161,1.082-2.045,3.483-2.045,3.483s0.954-3.32,0.137-4.313
			C92.8409,17.021,91.177,16.268,91.177,16.268"/>
		<path style="clip-path:url(#SVGID_6_);fill:#231F20;" d="M89.3976,27.0227c-0.183,0.482-0.26,3.129-0.272,3.654
			c-0.015,0.678,0.457,1.14,0.741,1.74c0.13,0.272,1.394,0.617,1.527,0.888c0.08,0.164,0.231,1.57,0.236,1.581
			c0.03,0.079-0.512,0.7-0.5031,0.744c0.001,0.016-0.752-0.414-0.752-0.414s-0.8391-0.946-1.877-2.417
			c-0.9-1.276-0.42-2.29-0.124-3.672C88.5275,29.1217,89.2435,27.0307,89.3976,27.0227"/>
		<path style="clip-path:url(#SVGID_6_);fill:#231F20;" d="M83.6877,35.0442c0,0-0.651-0.782-0.601-1.763
			c0.043-0.844,0.784-0.663,1.127-1.448c0.057-0.129,0.1021-0.283,0.132-0.472c0.213-1.344,0.665-3.409,0.679-3.053
			c0.015,0.355-0.091,4.644,1.006,5.123c2.808,1.223,2.104,3.654,2.104,3.654l-1.822-1.698c0,0,0.993,1.019,0.222,1.762
			c-0.772,0.743-1.302,3.078-1.302,3.078s-0.847-1.168-0.726-2.596C84.6276,36.2012,83.6877,35.0442,83.6877,35.0442"/>
		<path style="clip-path:url(#SVGID_6_);fill:#F5CBAB;" d="M161.5184,44.8995c-1.3231-0.083-2.796-0.762-6.229-1.883
			c-3.433-1.121-8.54-5.258-15.083-10.815c-6.543-5.555-9.636-7.136-11.812-8.036c-2.175-0.901-5.769-0.365-9.083-0.687
			c-1.098-0.107-3.136-0.208-5.449-0.328c0.006,3.312-0.1021,6.628-0.084,9.989c0.001,0.261,0.007,0.521,0.013,0.781
			c4.069-0.459,9.257-1.013,10.469-0.974c1.504,0.048,2.58,1.792,4.569,3.265c1.988,1.472,9.591,5.918,13.542,7.778
			c3.952,1.861,5.695,3.461,7.071,4.481c1.377,1.019,2.124,5.171,2.835,6.289c0.711,1.119,3.459,2.206,3.898,2.413
			c0.439,0.207,1.589,1.532,2.201,1.985s0.985-0.691,0.886-1.356c-0.099-0.666-0.983-2.031-2.34-2.917
			c-1.357-0.887-1.037-1.479-0.657-1.671c0.38-0.193,1.881-1.465,3.447-1.903c2.656-0.744,8.132,0.305,9.032,0.425
			c1.594,0.212,3.228-1.093,2.125-1.594c-1.169-0.531-5.738-1.7-5.738-1.7s3.931-1.488,5.95-2.763
			c2.019-1.275,3.012-2.215,3.188-2.656c0.213-0.531-0.531-1.913-2.019-0.638c0,0-1.062,0.107-2.55,0.638
			c-1.343,0.479-2.999,0.972-4.534,1.452C164.0333,44.8285,162.5123,44.9615,161.5184,44.8995"/>
		<path style="clip-path:url(#SVGID_6_);fill:none;stroke:#231F20;stroke-width:0.881;stroke-miterlimit:10;" d="M161.5184,44.8995
			c-1.3231-0.083-2.796-0.762-6.229-1.883c-3.433-1.121-8.54-5.258-15.083-10.815c-6.543-5.555-9.636-7.136-11.812-8.036
			c-2.175-0.901-5.769-0.365-9.083-0.687c-1.098-0.107-3.136-0.208-5.449-0.328c0.006,3.312-0.1021,6.628-0.084,9.989
			c0.001,0.261,0.007,0.521,0.013,0.781c4.069-0.459,9.257-1.013,10.469-0.974c1.504,0.048,2.58,1.792,4.569,3.265
			c1.988,1.472,9.591,5.918,13.542,7.778c3.952,1.861,5.695,3.461,7.071,4.481c1.377,1.019,2.124,5.171,2.835,6.289
			c0.711,1.119,3.459,2.206,3.898,2.413c0.439,0.207,1.589,1.532,2.201,1.985s0.985-0.691,0.886-1.356
			c-0.099-0.666-0.983-2.031-2.34-2.917c-1.357-0.887-1.037-1.479-0.657-1.671c0.38-0.193,1.881-1.465,3.447-1.903
			c2.656-0.744,8.132,0.305,9.032,0.425c1.594,0.212,3.228-1.093,2.125-1.594c-1.169-0.531-5.738-1.7-5.738-1.7
			s3.931-1.488,5.95-2.763c2.019-1.275,3.012-2.215,3.188-2.656c0.213-0.531-0.531-1.913-2.019-0.638c0,0-1.062,0.107-2.55,0.638
			c-1.343,0.479-2.999,0.972-4.534,1.452C164.0333,44.8285,162.5123,44.9615,161.5184,44.8995z"/>
		<path style="clip-path:url(#SVGID_6_);fill:none;stroke:#231F20;stroke-width:0.44;stroke-miterlimit:10;" d="M160.3496,47.2726
			c0,0,1.1689-0.106,1.8069,0.319c0.637,0.425,2.549,0.956,2.549,0.956"/>
		<path style="clip-path:url(#SVGID_6_);fill:none;stroke:#231F20;stroke-width:0.44;stroke-miterlimit:10;" d="M172.8881,42.1722
			c-3.931,2.657-6.57,3.099-7.597,3.135c-0.683,0.023-1.435-0.107-2.338-0.213"/>
	</g>
</g>
<g>
</g>
<g>
</g>
<g>
</g>
<g>
</g>
<g>
</g>
<g>
</g>
</svg>
