<?xml version="1.0" encoding="iso-8859-1"?>
<!-- Generator: Adobe Illustrator 25.0.1, SVG Export Plug-In . SVG Version: 6.00 Build 0)  -->
<svg version="1.1" id="Layer_1" xmlns="http://www.w3.org/2000/svg" xmlns:xlink="http://www.w3.org/1999/xlink" x="0px" y="0px"
	 viewBox="0 0 392.1914 339.3493" style="enable-background:new 0 0 392.1914 339.3493;" xml:space="preserve">
<g>
	<g id="Auge_1_">
		<g>
			<circle style="fill:#FFFFFF;" cx="46.0577" cy="22.0458" r="9.1114"/>
			
				<ellipse style="fill:none;stroke:#FFFFFF;stroke-width:3.3;stroke-miterlimit:10;" cx="46.0162" cy="22.1051" rx="17.4189" ry="18.3964"/>
			<path style="fill:none;stroke:#FFFFFF;stroke-width:3.3;stroke-miterlimit:10;" d="M2.3449,22.3712
				c0,0,22.6699-21.0429,43.4959-20.7175s43.1705,20.2836,43.1705,20.2836s-18.982,21.0429-42.8451,21.2598
				S2.3449,22.3712,2.3449,22.3712z"/>
		</g>
	</g>
	<g>
		<radialGradient id="SVGID_1_" cx="50.343" cy="21.763" r="571.8872" gradientUnits="userSpaceOnUse">
			<stop  offset="0" style="stop-color:#F3F1DF;stop-opacity:0.8"/>
			<stop  offset="1" style="stop-color:#F3F1DF;stop-opacity:0"/>
		</radialGradient>
		<polygon style="fill:url(#SVGID_1_);" points="43.4667,23.4353 165.731,314.4087 392.1914,314.4087 48.344,23.4353 		"/>
		<ellipse style="fill:#FFFDE3;" cx="278.9612" cy="314.4087" rx="113.2302" ry="24.9406"/>
	</g>
	<g>
		<g>
			<path style="fill:#F5CBAB;stroke:#000000;stroke-width:0.7;stroke-miterlimit:10;" d="M279.9027,306.1019
				c0,0-0.2491,2.3822-0.2804,3.1059c-0.032,0.7237-0.4532,2.0836,0.1067,2.5429c0.5599,0.4594,2.0767,0.598,2.7973,0.7017
				c0.7206,0.1043,2.5262,0.9271,3.0168,1.3118c0.4906,0.384,1.1564,1.1183,1.4931,1.7126c0.3368,0.595,0.6826,0.9728,1.3279,1.1458
				c0.6452,0.1729,1.3057-0.0153,1.58,0.3588c0.2735,0.3748,0.7831,0.7915,1.9998,0.9941c1.9563,0.3253,2.6808-0.326,2.6084-1.0147
				c0,0,1.2318-0.0358,1.0505-0.9417l0.4243-0.5135c0,0,0.4442-1.0818,0.0831-1.4795c0,0,0.2917-0.4616-0.2751-0.777
				c0,0-0.6993-0.6102-0.9881-0.6231c-0.2902-0.0122-1.1443-0.63-1.925-1.0262c-0.7801-0.3969-3.4358-2.076-4.1291-2.7166
				c-1.8847-1.7392-3.0435-4.2387-3.0435-4.2387L279.9027,306.1019z"/>
			<g>
				<path style="fill:none;stroke:#000000;stroke-width:0.4;stroke-miterlimit:10;" d="M294.5524,316.9608
					c0,0-0.544-0.7603-1.3401-0.9782c-0.7976-0.2171-1.0154-0.7245-1.0154-0.7245"/>
				<path style="fill:none;stroke:#000000;stroke-width:0.4;stroke-miterlimit:10;" d="M295.3477,316.1288
					c0,0,0.1105-0.4357-0.5416-0.7252c-0.6529-0.2903-1.4489-0.9424-1.4489-0.9424"/>
				<path style="fill:none;stroke:#000000;stroke-width:0.4;stroke-miterlimit:10;" d="M296.0272,315.5057
					c0,0-0.1348-0.6094-0.7145-0.9721c-0.579-0.3618-1.2311-0.7969-1.2311-0.7969"/>
				<path style="fill:none;stroke:#000000;stroke-width:0.4;stroke-miterlimit:10;" d="M296.2192,314.4262
					c0,0-1.0512-0.9789-1.8481-1.196"/>
			</g>
		</g>
		<g>
			<path style="fill:#F5CBAB;stroke:#000000;stroke-width:0.7;stroke-miterlimit:10;" d="M261.4882,308.9686
				c0,0,0.5318,1.8619,0.8745,2.4279c0.3429,0.5668,1.2494,2.2611,1.8932,2.9627c0.6437,0.7024,1.0581,1.0262,1.7103,1.5457
				c0.6513,0.5181,0.7603,0.8289,1.3468,1.4064c0.5881,0.5766,1.2959,1.2204,1.5298,1.4763
				c0.2346,0.2545,0.6521,0.5181,0.6414,0.7634c-0.0106,0.2445-0.1021,0.9141-0.5378,1.0795
				c-0.4358,0.1645-1.3667,0.4304-1.6653,0.2339c-0.2971-0.1974-0.8845-0.774-0.8845-0.774s0.0214,0.9203-0.4152,1.0848
				c-0.4358,0.1645-0.806,0.2102-1.1031,0.0129c-0.2978-0.1966-0.5881-0.5767-0.5881-0.5767s-0.0769,0.3641-0.6331,0.4624
				c-0.5554,0.0983-1.212-0.2978-1.212-0.2978s-0.6887,0.3375-0.9919,0.2636c-0.3032-0.0746-0.9523-0.6552-0.9523-0.6552
				s0.0031,0.4525-0.6658,0.5158c-0.4914,0.0457-1.1564-0.9005-1.1564-0.9005s-0.5318-0.4525-0.6902-1.0109
				c-0.16-0.5585-0.7983-1.3835-1.0932-1.641c-0.2948-0.2574-1.4573-0.3085-1.5983-1.295
				c-0.1409-0.9866,0.4152-2.4942,0.4442-3.1669c0.0289-0.6735,0.1546-3.5477,0.1546-3.5477L261.4882,308.9686z"/>
			<g>
				
					<line style="fill:none;stroke:#000000;stroke-width:0.4;stroke-miterlimit:10;" x1="266.3965" y1="320.0903" x2="265.8541" y2="318.8935"/>
				
					<line style="fill:none;stroke:#000000;stroke-width:0.4;stroke-miterlimit:10;" x1="264.268" y1="320.3805" x2="263.9047" y2="318.8935"/>
				<path style="fill:none;stroke:#000000;stroke-width:0.4;stroke-miterlimit:10;" d="M262.6157,320.7774
					c0,0-0.4632-1.5868-0.4632-1.6859"/>
				
					<line style="fill:none;stroke:#000000;stroke-width:0.4;stroke-miterlimit:10;" x1="260.5009" y1="320.3843" x2="260.1039" y2="318.8607"/>
			</g>
		</g>
		<path d="M277.9433,245.6186c0,0,3.205,20.0318,3.5264,21.1586c0.3215,1.1259,0.5355,7.5602,1.3294,9.2011
			c0.793,1.6401,0.4068,1.9944,1.4147,7.2273c1.0079,5.2337,1.1678,15.7429,1.6767,18.2355
			c0.5096,2.4942-0.3535,2.4561-0.1234,2.837c0.2308,0.3809,0.7938,1.641,0.5302,2.0005c-0.2621,0.3589-0.4068,0.8471-1.1687,1.3081
			c-0.7603,0.4609-2.8736,0.7397-3.5973,0.3375c-0.7237-0.4023-1.7963-1.3141-1.8924-1.9358
			c-0.0967-0.6216,0.1341-3.083-0.2895-4.7079c-0.4235-1.6242-2.1666-7.0133-2.5734-9.0085
			c-0.4068-1.9944-0.7664-5.0988-1.0391-7.3347c-0.2735-2.2359-2.3495-5.6625-2.8736-7.7857
			c-0.5257-2.1232-3.9523-11.4158-4.6318-12.8046c-0.6811-1.3887-2.933-6.4289-2.933-6.4289l-1.4878-3.432
			c0,0-2.0836,5.9947-2.143,10.193c-0.0594,4.1984-0.3336,10.4879-0.547,12.579c-0.2148,2.0912-1.5076,6.2355-1.6204,8.8256
			c-0.1135,2.5894,0.2163,12.0557,0.5005,14.0456c0.2834,1.9891,0.678,4.292,0.7633,5.1605
			c0.0853,0.8693,0.6818,1.3888,0.6597,1.8825c-0.0213,0.4929,0.4762,2.0576,0.4762,2.0576s-4.5367,2.0265-6.4457,0.4601
			c0,0-0.9097-3.435-1.3058-5.6762c-0.3976-2.2413-3.2833-11.14-3.7229-15.2363c-0.4396-4.0963,0.1425-7.5313,0.4372-11.4721
			c0.2956-3.9409-0.6772-9.9752-1.0018-12.461c-0.192-1.4733-1.2623-9.3215-1.2623-9.3215L277.9433,245.6186z"/>
		<path d="M266.0095,192.7306c0,0,2.4767,0.9658,4.3888,1.6308c1.7688,0.6152,3.4798,1.734,4.4062,2.6603
			c0.9256,0.9256,2.9629,7.1893,2.9629,7.1893l-9.3969,14.7198l-7.6852-1.1572l-3.6094-2.8232l-1.4353-2.4074l-1.4809,7.1291
			c0,0-3.3337,0.2773-5.0919,0.2773c-1.7598,0-2.2223,0.8334-2.2223,0.3702c0-0.4624-1.1267-6.5676-1.0185-8.5179
			c0.1851-3.3322,0.9256-9.5348,2.3144-11.8492c1.388-2.3152,2.1719-2.8722,3.4685-4.261c1.2966-1.3888,6.1297-2.8831,6.4846-2.7435
			c0.7858,0.3093,1.8977,2.0047,4.9526,2.3749C266.1017,195.6932,266.0095,194.9527,266.0095,192.7306z"/>
		<g>
			<g>
				<path style="fill:#F3F1DF;" d="M337.6024,191.9505c0,0-7.7492,34.2137-73.5743,63.8391c0,0-16.312,6.8121-32.2536,10.7225
					c-19.6266,4.8139-39.708,2.7433-39.708,2.7433l1.759-6.9439l-3.8883-4.999c0,0,21.2013-24.071,59.528-41.8464
					C286.5869,198.2506,308.3473,189.5439,337.6024,191.9505z"/>
				<g>
					<defs>
						<path id="SVGID_2_" d="M337.6024,191.9505c0,0-7.7766,35.1805-73.6018,64.8065c0,0-16.1832,4.7918-32.1256,8.7022
							c-19.6258,4.8147-39.8085,3.7961-39.8085,3.7961l1.759-6.9439l-3.8883-4.999c0,0,21.2013-24.071,59.528-41.8464
							C286.5869,198.2506,308.3473,189.5439,337.6024,191.9505z"/>
					</defs>
					<clipPath id="SVGID_3_">
						<use xlink:href="#SVGID_2_"  style="overflow:visible;"/>
					</clipPath>
					<path style="clip-path:url(#SVGID_3_);fill:#F3F1DF;" d="M291.5904,264.6265c-0.5554-0.8334,58.0479-44.4388,57.2136-67.7693
						c-0.5851-16.3851-51.964-19.1954-47.4929-2.2215c4.2006,15.9463-7.4643,28.1673-22.0347,35.2727
						c-10.6235,5.1811-39.6234,44.0686-39.6234,44.0686L291.5904,264.6265z"/>
					<g style="clip-path:url(#SVGID_3_);">
						<polygon style="fill:#35C0C8;" points="290.4051,207.8243 221.1212,195.5835 215.2446,210.7619 222.3447,214.1893 
							243.645,276.3737 						"/>
						<path style="fill:#7BB24A;" d="M316.8453,219.7383c0,0-0.9789-16.9328-9.3026-26.2368c0,0-10.5275,2.8165-11.1392,3.061
							l-54.3096,67.0806c0,0,31.5002-12.1593,42.5168-19.0148C295.628,237.7735,314.3976,222.5539,316.8453,219.7383z"/>
						<polygon style="fill:#7DCED3;" points="251.2342,204.0701 264.4547,236.0601 228.0599,230.6589 224.2219,219.4938 						"/>
						<path style="fill:none;stroke:#FFFFFF;stroke-width:2.3403;stroke-miterlimit:10;" d="M268.861,230.3473
							c0,0-2.6115-2.8561-7.6715-0.7345c-3.7945,1.5915-5.853,6.7999-0.7755,12.2409c3.4281,3.6727,9.0587,3.4274,11.997,1.8367
							c2.9375-1.5914,6.7344-4.7963,7.222-10.1603c0.4083-4.4886-0.9797-10.446-5.0599-14.2809
							c-3.5402-3.3284-12.1997-6.5287-20.5232-4.2029c-8.3243,2.3258-13.2205,8.9361-14.9345,12.608
							c-1.7141,3.6727-6.2614,14.2885,0.1226,25.5832c3.1821,5.6314,5.4675,7.0597,5.4675,7.0597"/>
					</g>
				</g>
				<path style="fill:none;stroke:#000000;stroke-width:0.7;stroke-miterlimit:10;" d="M337.2961,191.99
					c0,0-7.7766,35.1805-73.601,64.8066c0,0-16.1847,4.7926-32.1256,8.7022c-19.6266,4.8147-39.81,3.7953-39.81,3.7953
					l1.7597-6.9432l-3.8882-4.999c0,0,21.2004-24.071,59.5287-41.8463C286.2806,198.2902,308.041,189.5835,337.2961,191.99z"/>
				<path d="M337.2961,191.99c0,0-7.7766,35.1805-73.601,64.8066c0,0-16.1847,6.8289-32.1256,10.7393
					c-19.6266,4.8139-39.81,1.7583-39.81,1.7583s32.0335,4.5374,78.9717-18.7939
					C307.3729,232.2884,331.2786,206.8957,337.2961,191.99z"/>
			</g>
			<g id="schatten_2_">
				<path d="M250.3627,226.3379l0.2788-13.4247l1.9442-2.4065l5.9239-0.1851c0,0-2.5917,8.0539-3.0549,9.7207
					c-0.4632,1.666-1.2037,2.9626-0.9249,4.2585c0.2773,1.2958,0.8327,4.7217,0.9249,6.5729
					c0.0929,1.8519,1.0193,9.5364,1.0193,9.5364l-1.2037,1.1107L250.3627,226.3379z"/>
				<path d="M259.4359,246.983c0.371,0.5553,1.8519,3.24,2.4073,3.9804c0.5554,0.7412,0.7405,3.889,0.7405,3.889l-3.1478,1.0178
					l-3.611-6.1105l-0.1844-8.3319l0.8335-1.0178c0,0,0.8319,2.9619,1.388,3.7031
					C258.4181,244.8538,259.0656,246.4276,259.4359,246.983z"/>
			</g>
			<path id="schatten_1_" d="M272.6747,205.3218c0,0-1.0178,1.3888-1.5739,1.3888c-0.5546,0-0.5546,0-0.5546,0l-2.2687,1.4809
				c0,0-0.7405,1.2966-1.2037,1.2037c-0.4624-0.0922-0.8792,0.0929-0.8792,0.0929s-0.9721,1.2037-1.3423,1.1107
				c-0.3702-0.0921-0.7405-0.3237-0.7405-0.3237s-1.1123,0.6019-1.5739,0.4167c-0.4632-0.1851-0.3245-1.1572-0.3245-1.1572
				l10.7393-5.4165L272.6747,205.3218z"/>
		</g>
		<g>
			<path style="fill:#F5CBAB;stroke:#000000;stroke-width:0.7;stroke-miterlimit:10;" d="M262.861,207.6674l-0.1843,1.8512
				c0,0,0.1843,0.4319,0.8014,0.4319c0.617,0,0.7725-1.3576,0.7725-1.3576l0.1234,1.0491c0,0,0.0304,0.1851,0.71,0.1851
				c0.6788,0,0.6476-1.5122,0.6476-1.5122c0.4631,0.2316,0.7405,0,1.1115-0.2308c0.4182-0.262,0.7093-0.9104,1.2029-1.404
				c0.4937-0.4944,1.6973-0.9569,1.6973-0.9569c0.1234,0.3085,0.71,0.0922,1.0802,0.0922s1.2966-0.6788,1.2966-0.6788
				s-1.3423-0.9721-1.6668-0.7405c-0.3237,0.2315-0.6476,0.3702-0.6476,0.3702s-0.8799-0.0465-1.2036,0.0464
				c-0.3245,0.0922-1.0651,0.6941-1.0651,0.6941s-0.8562-0.4107-1.0185-0.3702c-0.371,0.0929-1.6204,1.2501-1.6204,1.2501
				s-0.9721,0-1.3423,0.2308C263.1855,206.8492,262.861,207.6674,262.861,207.6674z"/>
			<path style="fill:none;stroke:#000000;stroke-width:0.4;stroke-miterlimit:10;" d="M265.6386,208.3149
				c0,0-0.416-0.5089,0.1858-1.1572c0.3839-0.4137,1.7125-1.6508,1.7125-1.6508"/>
			<path style="fill:none;stroke:#000000;stroke-width:0.4;stroke-miterlimit:10;" d="M264.2505,208.9632
				c0,0-0.093-1.3887,0.1386-1.7125c0.2316-0.3245,0.8334-1.0185,0.8334-1.0185"/>
			<path style="fill:none;stroke:#000000;stroke-width:0.4;stroke-miterlimit:10;" d="M270.1294,205.954
				c0,0-0.5554-0.6171-0.3238-1.1876"/>
		</g>
		<g>
			<path style="fill:#F5CBAB;stroke:#000000;stroke-width:0.7;stroke-miterlimit:10;" d="M263.2937,256.8583
				c0,0-1.1153-0.2643-1.3575-0.3549c-0.3703-0.1387-0.6948-0.3703-0.6948-0.3703c0.8563-0.2087,0.2621-1.6821,0.2621-1.6821
				s0.1242-1.2341,0.1859-1.4809c0.0609-0.2469-0.3086-1.852-0.9264-3.0869c-0.6171-1.2341-2.2832-3.2088-2.53-3.579
				c-0.2476-0.3702-1.142-2.3304-1.3888-3.0708c-0.2468-0.7405-1.0803-3.4983-1.3271-4.644
				c-0.3854-1.7903-0.6788-5.8637-0.8639-8.5796c-0.1851-2.7158-1.0498-4.3819-1.1115-4.9373c-0.0617-0.5554-0.1851-1.6668,0-2.5307
				s0.6178-3.333,0.6178-3.333l-7.5465-1.1572c0,0,0.3245,2.8241,0.387,3.6263c0.0609,0.8022,0,2.3448,0.1234,2.715
				c0.1234,0.371,0.3078,1.4818,0.3078,2.4691c0,0.9881,0.6795,5.5551,1.2349,7.7765c0.5553,2.2223,2.6534,8.4562,3.2095,9.3201
				c0.5546,0.8639,0.6788,1.9137,0.7405,2.4073c0.0609,0.4937,0.5546,0.9874,0.6788,1.481
				c0.1226,0.4936,0.1851,2.3456,0.2468,3.2712c0.0617,0.9257,0.3085,3.95,0.3695,4.4436c0.0625,0.4937,0.464,0.8799,0.7108,1.1885
				s0.4632,0.8334,0.9256,1.1107c0.1912,0.115,0.6476,0.0465,0.6476,0.0465s0.7877,0.2773,1.0658,0.2773
				c0.2766,0,0.601-0.2155,0.601-0.2155s0.8335,0.5858,1.2494,0.6788c0.4174,0.0921,1.8984,0.2316,1.8984,0.2316
				s0.7869,0.1386,0.7405-0.7405c0,0,1.0178-0.0464,1.2966-0.1851C263.3242,257.8152,263.4933,257.3825,263.2937,256.8583z"/>
			<path d="M256.5197,207.6362c0,0-1.1572,6.1105-1.2494,6.7587c-0.0929,0.6476-1.1107,5.2771-1.1107,5.2771
				s-2.7318,0.2308-3.4259,0.2308c-0.694,0-2.4995,0.0465-2.9162,0.1859c-0.4167,0.1386-1.2044,0.2772-1.2044,0.2772
				s-0.4617-4.3972-0.5547-5.786c-0.0929-1.3887-0.3245-2.731,0.0465-4.9533c0.3695-2.2222,9.7672-0.278,9.7672-0.278
				L256.5197,207.6362z"/>
			<g>
				<path style="fill:none;stroke:#000000;stroke-width:0.4;stroke-miterlimit:10;" d="M262.4298,257.9691
					c0,0-2.4691-0.3703-3.2103-0.8022c-0.2826-0.1653-1.2341-2.6846-1.3575-2.7775"/>
				<path style="fill:none;stroke:#000000;stroke-width:0.4;stroke-miterlimit:10;" d="M257.9244,257.9074
					c-0.4327-0.432-0.9188-1.7811-1.4825-3.0244"/>
				<path style="fill:none;stroke:#000000;stroke-width:0.4;stroke-miterlimit:10;" d="M256.2576,257.7223
					c-0.4327-0.432-0.8571-2.3365-1.4193-3.5798"/>
				<polyline style="fill:none;stroke:#000000;stroke-width:0.4;stroke-miterlimit:10;" points="256.3185,257.8457 
					255.1468,255.932 254.9,254.3276 				"/>
				<path style="fill:none;stroke:#000000;stroke-width:0.4;stroke-miterlimit:10;" d="M259.5288,251.0564
					c0,0,0.3078,1.4193,0.3078,2.1606c0,0.3146-0.1227,1.7895,0.3702,2.2831c0.4937,0.4937,1.0345,0.6727,1.0345,0.6727"/>
			</g>
		</g>
		<g>
			<path style="fill:#F5CBAB;stroke:#000000;stroke-width:0.7;stroke-miterlimit:10;" d="M257.5404,175.3243l-1.4464,3.3864
				c0,0-0.981,0.8049-0.9934,1.6163c-0.0109,0.8117-0.2748,3.302-0.0417,3.4039c0.2331,0.1019,0.6085,0.1026,0.6085,0.1026
				s0.2432,3.2904,2.4509,5.3215c0,0-0.2663,3.998-0.6944,5.0522c-0.2691,0.6629,2.3823,1.4474,4.3899,1.9389
				c1.3118,0.3211,2.6931-0.0675,3.6457-1.0247l0.6158-1.9238c0,0,0.717-0.7279,0.6782-1.6106
				c-0.0397-0.8828-0.1276-2.588-0.1276-2.588s0.7727-0.4955,1.3841-1.5188c0.569-0.9555,0.7639-1.937,0.7639-1.937
				s1.044,0.489,1.4427-1.1334c0.3989-1.6232-0.1143-8.9703-0.1143-8.9703l-6.0222-4.8548l-5.7955,2.9244L257.5404,175.3243z"/>
			<g>
				<g>
					<g>
						<path d="M259.7985,185.6045c0.075-0.4545,2.0609-0.1188,2.2865,0.225c0,0-0.6433,0.4101-1.1226,0.3293
							C260.4824,186.0778,259.7985,185.6045,259.7985,185.6045z"/>
						<path d="M259.2443,184.6623c-0.1385-0.0461,0.4396-0.6699,0.8314-0.7759c0.2937-0.0795,0.9422,0.0554,0.9422,0.0554
							s0.666-0.002,0.9422,0.0554c0.7858,0.1642,1.1639,0.8868,1.1639,0.8868s-1.1085-0.2771-2.1061-0.388
							C260.5903,184.4485,259.2443,184.6623,259.2443,184.6623z"/>
					</g>
					<path d="M260.9956,182.0592c0.1487-0.1529-0.7419-0.4143-0.7758,0.2565c-0.01,0.198,0.2975,0.0155,0.5216-0.1116
						C260.8786,182.1267,260.9149,182.1426,260.9956,182.0592z"/>
					<path d="M262.4589,182.2236c-0.291-0.4157-0.6547-0.3681-0.8314-0.1663c-0.0521,0.0606,0.3764,0.1985,0.4613,0.2937
						C262.3169,182.6068,262.6838,182.545,262.4589,182.2236z"/>
					<path d="M257.9554,189.1954c0.0846,0.0753-0.9419-1.4017-0.9419-1.4017s1.829,1.4133,3.1591,1.7458
						c1.2647,0.3162,3.3127,0.1037,3.9073,0c0.8222-0.1433,2.3545-0.698,2.3545-0.698l0.2293,1.4162c0,0-1.8285,1.3094-3.2018,1.729
						c-0.8909,0.2716-1.872,0.2476-3.1115-0.4784C259.1122,190.7835,257.9554,189.1954,257.9554,189.1954z"/>
				</g>
				<g>
					<path d="M255.9342,177.8721c0,0,1.0542-1.2434,1.4534-1.3432c0.3326-0.0831,0.9546-0.4384,1.829-0.291
						c0.3026,0.051,0.8169,0.1185,1.1639,0.4157c0.1026,0.0876,0.0634,0.7316-0.3741,0.5404
						c-0.5613-0.2454-1.6649-0.2649-2.1752-0.2385C257.3435,176.9806,255.9342,177.8721,255.9342,177.8721z"/>
					<path d="M264.1576,176.9855c-0.0969-0.007-0.1778,0.0782-0.1647,0.1747c0.0576,0.4285,0.3957,0.5488,1.0612,0.5699
						c0.7547,0.0238,1.9459-0.1315,2.5329,0.1166c0.5256,0.223,1.1901,0.5112,1.1901,0.5112s-0.8528-0.972-1.6922-1.2171
						c-0.8379-0.2449-1.0642-0.0845-1.5045-0.0806C265.2331,177.0626,264.494,177.0106,264.1576,176.9855z"/>
					<g>
						<path d="M263.3318,179.1121c0,0,0.6799-0.9702,1.7211-0.8839c0.895,0.0742,1.2873,1.3884,1.4583,1.4753
							c0.1698,0.0854,0.3362,0.1329,0.3362,0.1329s-0.5459-0.3869-0.7725-0.514c-0.2285-0.127-0.8275-0.7449-1.0685-0.7686
							C264.3324,178.4876,263.3318,179.1121,263.3318,179.1121z"/>
						<path d="M265.1174,178.4479c0.0594,0.0934,0.0912,0.2034,0.0855,0.3197c-0.0155,0.3159-0.3038,0.5595-0.6432,0.5428
							s-0.6025-0.2873-0.587-0.6032"/>
					</g>
					<g>
						<path d="M257.0135,178.8221c0,0,0.5466-1.1466,1.4549-1.0457c0.4092,0.0455,0.7467,0.3346,0.9093,0.5001
							c0.1921,0.1955,0.5456,0.9093,0.5456,0.9093s-0.7098-0.7397-0.8731-0.8298c-0.3089-0.1704-1.0364-0.4887-1.5819,0.3752
							C257.3677,178.8902,257.0135,178.8221,257.0135,178.8221z"/>
						<path d="M257.5025,178.3862c0.0051,0.309,0.2781,0.5543,0.6104,0.5489s0.599-0.2597,0.5939-0.5687
							c-0.0014-0.084-0.0228-0.1633-0.06-0.2341l-0.5741-0.0597L257.5025,178.3862z"/>
					</g>
				</g>
				<g>
					<path d="M257.597,180.0694c0.0052,0.0602-0.0803,0.125-0.1909,0.1458c-0.1096,0.0202-0.2015-0.011-0.2061-0.0703
						c-0.003-0.0597,0.0826-0.1244,0.1917-0.1456C257.5012,179.9792,257.5932,180.0103,257.597,180.0694z"/>
					<path d="M261.7115,180.1761c-0.0097,0.0384-0.0695,0.057-0.1315,0.0413s-0.1042-0.0601-0.0945-0.0985
						c0.0097-0.0384,0.068-0.0575,0.13-0.0418S261.7213,180.1376,261.7115,180.1761z"/>
					<path d="M261.3093,180.4703c-0.014,0.0554-0.0954,0.0819-0.1848,0.0593c-0.0879-0.0223-0.1483-0.0847-0.1343-0.1401
						c0.0139-0.0547,0.0967-0.0809,0.1846-0.0586C261.2642,180.3535,261.3232,180.4156,261.3093,180.4703z"/>
					<path d="M261.8528,179.6492c-0.0097,0.0383-0.068,0.0574-0.1301,0.0417c-0.062-0.0157-0.1042-0.0602-0.0945-0.0985
						c0.0097-0.0384,0.068-0.0575,0.13-0.0418C261.8204,179.5663,261.8625,179.6107,261.8528,179.6492z"/>
					<path d="M262.1682,180.2343c-0.0136,0.0539-0.0939,0.0791-0.181,0.0571c-0.0857-0.0217-0.1443-0.0821-0.1306-0.136
						c0.0135-0.0532,0.0939-0.0791,0.1796-0.0574C262.1233,180.12,262.1817,180.1812,262.1682,180.2343z"/>
					<path d="M262.0898,180.9476c-0.0099,0.0392-0.068,0.0575-0.1301,0.0417c-0.062-0.0157-0.1044-0.0594-0.0945-0.0986
						c0.0097-0.0384,0.068-0.0575,0.13-0.0418C262.0574,180.8647,262.0995,180.9092,262.0898,180.9476z"/>
					<path d="M261.7649,181.039c-0.0142,0.0562-0.0997,0.0832-0.1898,0.0604c-0.0901-0.0228-0.1524-0.0873-0.1382-0.1434
						c0.0142-0.0561,0.0996-0.0832,0.1898-0.0603C261.7168,180.9185,261.7791,180.9829,261.7649,181.039z"/>
					<path d="M260.9823,180.9022c-0.0097,0.0384-0.0687,0.0573-0.1308,0.0415c-0.062-0.0157-0.1042-0.0602-0.0945-0.0986
						c0.0099-0.0391,0.068-0.0575,0.13-0.0418C260.9491,180.8191,260.9922,180.8631,260.9823,180.9022z"/>
					<path d="M259.0089,179.9561c-0.015,0.0591-0.1128,0.0854-0.2184,0.0586c-0.1041-0.0264-0.1783-0.0963-0.1634-0.1553
						c0.0148-0.0583,0.1133-0.0845,0.2174-0.0581C258.9501,179.8281,259.0237,179.8978,259.0089,179.9561z"/>
					<path d="M259.3985,180.5373c-0.015,0.0591-0.1121,0.0856-0.2177,0.0588s-0.1777-0.096-0.1627-0.1552
						c0.0147-0.0583,0.1111-0.085,0.2167-0.0583C259.3404,180.4095,259.4132,180.479,259.3985,180.5373z"/>
					<path d="M259.963,180.1977c-0.015,0.0591-0.1136,0.0852-0.2177,0.0588c-0.1063-0.0269-0.1798-0.0966-0.1649-0.1557
						c0.0148-0.0583,0.1126-0.0846,0.2189-0.0577C259.9035,180.0695,259.9778,180.1394,259.963,180.1977z"/>
					<path d="M264.1189,180.8948c-0.0151,0.0598-0.112,0.0856-0.2177,0.0588c-0.1056-0.0267-0.1779-0.0953-0.1627-0.1551
						c0.0147-0.0583,0.1111-0.085,0.2167-0.0583C264.0609,180.767,264.1337,180.8365,264.1189,180.8948z"/>
					<path d="M264.3934,181.4618c-0.015,0.0591-0.1118,0.0848-0.2167,0.0583c-0.1064-0.0269-0.1801-0.0959-0.1651-0.1549
						c0.015-0.0591,0.1128-0.0854,0.2191-0.0585C264.3356,181.3332,264.4084,181.4027,264.3934,181.4618z"/>
					<path d="M265.5048,181.6009c-0.015,0.0591-0.1128,0.0854-0.2184,0.0587c-0.1056-0.0267-0.1784-0.0963-0.1635-0.1553
						c0.0148-0.0583,0.1118-0.0848,0.2175-0.0581C265.446,181.4729,265.5195,181.5426,265.5048,181.6009z"/>
					<path d="M265.0183,181.0668c-0.0147,0.0583-0.1118,0.0848-0.2174,0.0581c-0.1057-0.0267-0.1776-0.0961-0.1629-0.1544
						c0.015-0.0591,0.1113-0.0858,0.2169-0.059C264.9605,180.9382,265.0333,181.0077,265.0183,181.0668z"/>
					<path d="M266.0594,180.9186c-0.015,0.0591-0.1126,0.0846-0.2182,0.0579c-0.1057-0.0267-0.1786-0.0955-0.1636-0.1546
						c0.015-0.0591,0.112-0.0856,0.2177-0.0588C266.0009,180.7898,266.0744,180.8595,266.0594,180.9186z"/>
					<path d="M263.1349,181.7671c-0.015,0.0591-0.1128,0.0854-0.2184,0.0587c-0.1057-0.0267-0.1791-0.0965-0.1642-0.1555
						c0.0148-0.0584,0.1125-0.0847,0.2182-0.058C263.0762,181.639,263.1497,181.7087,263.1349,181.7671z"/>
				</g>
			</g>
			<g>
				<path style="fill:#CBA067;stroke:#000000;stroke-width:0.7;stroke-miterlimit:10;" d="M274.2627,190.8269
					c-1.1684-0.7177-0.3292-1.5574-0.3292-1.5574s0.7786-0.7502,0.7592-1.652c-0.0201-0.9026-0.3241-1.7752-0.3241-1.7752
					s0.0277-1.039,0.198-0.991c-0.0585-0.7384,0.3111-0.3647,0.9461-0.8595c-0.0201-0.032-0.0467-0.0619-0.0644-0.0943
					c-0.2878-0.5384-0.2823-1.0752-0.1734-1.6563c-0.1076,0.5737-0.0171-0.0361-0.0222-0.1798
					c-0.0032-0.091-0.008-0.1814-0.0174-0.2726c0.0111,0.0993,0.0183,0.1661,0.0243,0.2182
					c-0.069-0.503,0.1991-0.9932,0.2259-1.5001c0.0314-0.571-0.0607-1.0833,0.2906-1.4575
					c-0.0495-0.0269-0.0794-0.0419-0.0794-0.0419s0.4898-1.4432,0.1363-2.3481c-0.3912-0.9969-1.1059-1.2944-1.3513-1.8
					c-0.2206-0.4513-0.0371-1.0623-0.6743-1.8929c-0.7136-0.9269-1.6687-1.1505-1.6687-1.1505s-1.1905-2.021-3.9684-2.6818
					c-1.0733-0.2551-1.7,0.2402-2.0317-0.5187c-0.6116-1.3987-2.4173-0.1883-2.4173-0.1883s-1.2837-0.9782-2.4911-0.6851
					c-1.5982,0.388-2.1107,1.9611-2.1107,1.9611s1.4877-1.2726,2.6586-1.0412c1.1714,0.2324,0.7278,0.9618,0.7278,0.9618
					s0,0-1.6194-0.0359c-1.6187-0.0358-3.6369,1.3452-4.7135,2.4329c-1.0749,1.0873-0.6875,1.6216-0.6875,1.6216
					s-0.5795,0.4036-1.5242,0.9613c-0.9431,0.5572-0.2619,1.0992-0.2293,1.8224c0.0341,0.7235-2.0597,0.9714-2.109,1.5982
					c-0.0485,0.6268-1.0198,0.3711-1.6607,0.5017c-0.6407,0.1299-0.5659,1.4868-0.5446,1.2185
					c0.0206-0.2685,0.7433-0.3026,1.3642-0.164c0.6194,0.1385,1.5836-0.3657,1.5836-0.3657l-0.5233,0.6288
					c0,0-0.9798,1.0044-1.9308,1.6506c-0.9505,0.647-0.4209,0.7781,0.2679,1.1924c0.6888,0.4136,1.0859,2.2467,1.0859,2.2467
					s0.3643-0.6115-0.0085-1.5527c-0.0349-0.0863-0.0744-0.1725-0.1209-0.2591c-0.5495-1.0336-0.2811-1.0131,0.2631-1.0603
					c0.5443-0.0481,1.1711,0.0004,1.1711,0.0004s-0.5268,1.0762-0.1736,2.239c0.1633,0.5437-0.0072,1.3161-0.4502,1.9868
					c-0.5944,0.9003,0.1953,2.2642,1.0726,2.477c0.8341,0.2032,1.4863,0.8347,1.3625,1.2758
					c-0.1254,0.4409-0.8672,0.9918,0.108,2.0803c0.5845,0.6525,0.425,1.4746,0.425,1.4746s0.7247-1.205,0.229-1.7839
					c-0.4948-0.5794-0.433-0.2136,0.6141-0.9432c1.0476-0.7288-0.1935-1.7207-0.1935-1.7207s0.9088,0.6585,1.0146,1.0248
					c0.1314,0.4532-0.4771,1.4276-0.3128,2.2673c0.1964,1.0019,0.9206,1.124,0.9206,1.124s-0.8909-1.6482,0.3368-2.3637
					c1.2268-0.7148,0.0201-1.2736-0.573-1.77c-0.5914-0.4968,0.6365-0.8877,0.6365-0.8877l-0.842-1.6315
					c-0.5354-0.9711-0.7756-2.7267-0.7809-3.8354c-0.0046-1.0359,0.2303-2.465,0.2823-3.5108
					c0.0652-1.3031,0.7504-3.0711,1.087-3.6239c0.6867-1.1257,0.3457-1.9246,1.4263-2.4454
					c1.6044-0.7732,2.9097-1.9537,2.9097-1.9537l1.0914,0.6945c0.7336,0.4668,1.1206,1.3211,0.9874,2.1804
					c-0.0493,0.3183-0.1062,0.6732-0.1691,1.0463c-0.2075,1.2305,1.1631,1.7974,1.8314,2.4802
					c0.6667,0.6826,0.8158,1.8923,0.4915,2.5878c-0.3251,0.6953-0.159,1.7856,0.4325,2.2825
					c0.5549,0.466,1.4948-0.0632,1.6096-0.1303c-0.0308,0.65-0.1205,1.2683-0.3366,1.5285
					c-1.5541,1.8633-0.6867,2.3225-0.7179,3.2721c-0.0406,1.281-1.5961,1.0535-0.9719,3.3119
					c0.36,1.3014-0.5306,1.0802-0.5532,1.8095c-0.0414,1.345,0.3892,2.8601-0.0199,3.0591c0,0,1.3575-1.1779,1.2249-1.8624
					c-0.1334-0.6846,0.1209-1.0789,0.5691-1.1664c0.5128-0.0998,0.9682-0.9539,0.9682-0.9539s0.5718,0.407,0.4237,0.7953
					c-0.1476,0.3893-0.9423,3.3795,0.292,3.4223c0,0-0.5097-1.6002,0.3156-1.8712c1.3027-0.427,0.6874-1.7444,0.6874-1.7444
					s0.5089,0.3995,0.7427,0.8685c0.2338,0.4689-0.5555,1.6446-0.5555,1.6446s0.2652-0.2257,1.6566-0.7481
					c1.3922-0.5223,0.9465-1.7277,0.9465-1.7277c0.9075-0.397,0.7994-0.9105,0.6124-1.2217
					c0.1747,0.1778,0.4597,0.3981,0.8822,0.5273c0.7928,0.2418,1.5992-0.866,1.5992-0.866S274.8886,191.2105,274.2627,190.8269z
					 M266.5964,181.752c-0.1447-0.4617,0.7685-0.8925,0.7685-0.8925l0.5347-0.2204c0,0,0.0883,1.0432,0.0454,2.0217
					C267.8318,182.6177,266.7327,182.1898,266.5964,181.752z"/>
				<g>
					<path d="M257.8073,188.9743c0,0-1.8056-3.55-1.6979-5.0314c0.1093-1.4819,0.5854-3.9565,0.7889-5.1638
						c0.2036-1.2072-0.1426-4.6264,4.3551-6.5317c0,0-2.3223,0.222-4.1149,2.3355c-1.7926,2.1135-0.2254,3.7005-1.8187,5.7494
						c-0.7979,1.0251-1.1947,2.1371-1.3345,3.1488c-0.1411,1.0107,0.7465,1.8224,0.9738,2.4395
						c0.1996,0.5435-0.4,2.1104,0.075,2.868c0.6045,0.9642,1.5122,1.1891,1.5444,1.383c0.0568,0.3456-0.1352,0.9344-0.1305,1.0897
						c0.0046,0.1561-0.1953,1.8915-0.1953,1.8915s0.6692,0.6405,0.6835,0.3633c0.0157-0.2763-0.2182-1.4638,0.2452-1.8206
						c0.4633-0.356,1.2384-0.5359,0.8977-1.0901c-0.3409-0.5534-0.9198-0.6202-0.7768-1.0928
						C257.4432,189.0396,257.8073,188.9743,257.8073,188.9743z"/>
					<path d="M267.3391,173.4222c-1.0418-1.1337-2.9204-1.0758-2.9204-1.0758c0.4687,0.1617,2.0389,0.1777,2.3444,1.8022
						c0.3049,1.6236-1.1377,1.405-0.0538,2.2707c0.493,0.3937,0.8246,0.6359,0.7534,1.058
						c-0.0713,0.4229-0.7605,0.4504-0.2238,0.9557c1.1247,1.0589,0.0865,2.2953-0.5072,2.6455c0,0,2.0926-0.2683,1.9839-1.4655
						c-0.1071-1.197-0.9636-0.5349-0.5104-1.3894c0.4547-0.8542,0.8078-1.4776-0.3679-2.2345
						C266.6621,175.2325,267.8292,173.956,267.3391,173.4222z"/>
					<path d="M251.0062,183.5372c0.0367-0.1259-0.2662-0.9959-0.1963-1.0853c0.4852-0.6274,2.2548-0.2363,2.0342-0.55
						c-0.9601-1.3617,0.1363-3.204,0.1363-3.204s-1.4153,1.4061-1.9804,1.8068c-0.5637,0.4017-1.4814,1.1161-1.4817,1.612
						l0.5431,0.3164L251.0062,183.5372z"/>
					<path d="M270.0488,171.7067c0,0,2.6126,1.8064,2.4405,2.4604c-0.1719,0.6532-0.1119,0.6633,0.4301,1.4995
						c0.5418,0.8369,1.6679,1.1505,1.1837,1.8136c-0.4842,0.6631-0.4596,1.4383,0.6155,2.8557
						c0.575,0.7591-0.2315,1.4922-1.2091,2.5063c-0.9785,1.0147,0.6801,2.2253,0.3557,3.0398
						c-0.3226,0.8139-1.0265,0.5716-1.2616,2.3321c-0.0893,0.6671-1.432,1.496-0.9402,2.6342
						c0.491,1.1382,0.9214,1.8937,0.9214,1.8937s0.6467-0.8845,0.6873-1.1256c0.0408-0.2419,1.347,0.1027,1.347,0.1027l0.616-0.7027
						c0,0-1.8426,0.2479-1.4987-0.6877c0.3445-0.9347,0.8297-1.97,0.8297-1.97l0.0215-2.5829c0,0,1.1082,0.6627,0.9062,1.4979
						c-0.2041,0.8347,0.3132,1.4411,0.463,1.6711c0.3434,0.5338,2.0914,0.3527,2.0914,0.3527s-2.0444-1.0069-1.6906-1.6301
						c0.3531-0.6234-0.3374-2.4156-0.3374-2.4156s0.5153-0.7196,0.3155-1.9949c-0.2507-1.6098-0.7548-1.6585-0.7548-1.6585
						l0.2226-1.5037c0,0,0.4612,0.4996,0.5324,0.7101c0.1147,0.3461,0.0025,1.4599,0.0025,1.4599s0.7907-0.9043,0.8976-1.6487
						c0.1071-0.7453-1.284-1.7686-1.284-1.7686s-0.0197-1.9541-0.2768-2.5915c-0.2585-0.6385-1.8985-1.9959-1.8985-1.9959
						s-0.4506-1.007-1.1339-1.3709C271.9595,172.5257,270.0488,171.7067,270.0488,171.7067z"/>
					<path d="M268.1066,191.6807c0,0-0.3283-0.6186-0.1563-1.2725c0.1488-0.5613,0.6221-0.3354,0.9642-0.8154
						c0.0565-0.0786,0.1086-0.1764,0.1547-0.2992c0.3336-0.8746,0.9298-2.2018,0.8892-1.9606
						c-0.0408,0.2419-0.7184,3.1151-0.0464,3.5923c1.7178,1.2207,0.9006,2.7586,0.9006,2.7586l-0.9874-1.4011
						c0,0,0.5249,0.8271-0.0988,1.2179c-0.6253,0.3913-1.3128,1.8892-1.3128,1.8892s-0.4057-0.9066-0.1212-1.8514
						C268.5753,192.5934,268.1066,191.6807,268.1066,191.6807z"/>
				</g>
			</g>
		</g>
	</g>
</g>
<g>
</g>
<g>
</g>
<g>
</g>
<g>
</g>
<g>
</g>
<g>
</g>
</svg>
