<?xml version="1.0" encoding="iso-8859-1"?>
<!-- Generator: Adobe Illustrator 25.0.1, SVG Export Plug-In . SVG Version: 6.00 Build 0)  -->
<svg version="1.1" id="Assoziationen_x5F_Illustrationen"
	 xmlns="http://www.w3.org/2000/svg" xmlns:xlink="http://www.w3.org/1999/xlink" x="0px" y="0px" viewBox="0 0 618.6378 380.435"
	 style="enable-background:new 0 0 618.6378 380.435;" xml:space="preserve">
<g id="_x32__x5F_10_x5F_Wellenlaenge_x5F_gezieltes_x5F_Untersuchen">
	<g>
		<g id="netz_hinten">
			<path style="fill:none;stroke:#000000;stroke-width:0.4;stroke-miterlimit:10;" d="M265.8794,246.7714
				c0,0,3.8941,11.8898,6.5602,15.5812c2.666,3.6914,2.8699,2.2571,5.3309,7.9969c2.4608,5.7398,4.2386,7.5868,8.6801,9.2262
				c4.4413,1.6394,11.6953,5.3238,11.6953,5.3238"/>
			<path style="fill:none;stroke:#000000;stroke-width:0.4;stroke-miterlimit:10;" d="M261.5739,267.2733
				c3.6902,7.9969,4.3055,12.3024,7.9957,15.3774c3.6902,3.075,7.5563,3.8941,9.8262,7.7906
				c2.2699,3.8964,1.2234,4.9206,7.3852,6.3562c6.1617,1.4355,9.2882,2.9438,9.5344,3.4851"/>
			<path style="fill:none;stroke:#000000;stroke-width:0.4;stroke-miterlimit:10;" d="M300.7332,267.2733
				c-0.4102,1.2305-3.4851,6.5626-8.4059,12.3024c-4.9207,5.7398-4.637,9.1758-10.3148,15.3515
				c-5.6777,6.1758-3.832,2.6918-8.5476,8.6367s-4.1016,3.8203-5.9461,9.7008c-1.8445,5.8805-2.1996,5.0813-2.9449,8.2488"/>
			<path style="fill:none;stroke:#000000;stroke-width:0.4;stroke-miterlimit:10;" d="M298.8651,245.5343
				c-0.4102,1.2305-5.515,11.2317-10.4357,16.9715c-4.9207,5.7398-4.6371,9.1758-10.3148,15.3515
				c-5.6777,6.1758-3.832,2.6918-8.5476,8.6367s-4.1016,3.8203-5.9461,9.7008c-1.8445,5.8805-2.1996,5.0813-2.9449,8.2488"/>
			<path style="fill:none;stroke:#000000;stroke-width:0.4;stroke-miterlimit:10;" d="M300.0981,289.8271
				c-0.3902,0.6142-3.2602,7.5973-7.7707,11.8969c-4.5106,4.2996-3.3023,1.6336-7.4941,6.7594s0.0832,1.8469-5.4374,8.6122
				c-5.5207,6.7653-7.1613,6.5602-6.7512,10.6606s0.8203,5.946,0.8203,5.946"/>
		</g>
		<g>
			<g id="XMLID_16_">
				<g>
					<path style="fill:#F4C6A1;" d="M391.0832,289.1724c0.18,0.348,0.192,0.696,0.06,1.032c0.06-0.348,0.048-0.696-0.084-1.02
						C391.0712,289.1844,391.0712,289.1724,391.0832,289.1724z"/>
					<path style="fill:#F4C6A1;" d="M314.9672,295.9284c-1.056-0.312-2.112-0.648-3.168-1.008c-0.816-0.276-1.656-0.576-2.34-1.104
						c-0.108-0.084-0.216-0.168-0.312-0.276c-0.012-0.012-0.012-0.036-0.012-0.048c-0.18-0.168-0.36-0.336-0.552-0.504
						c0-0.012-0.012-0.012-0.012-0.012c-0.276-0.312-0.552-0.624-0.852-0.9c-0.888-0.84-1.68-1.128-2.688-1.356h-0.012
						c-1.044-0.432-2.124-0.696-3.264-0.756c-0.18-0.06-0.36-0.12-0.54-0.204c-0.828-0.372-1.596-1.044-1.776-1.932
						c-0.036-0.216-0.072-0.456-0.252-0.564c-0.24-0.132-0.516,0.048-0.72,0.228c-1.992,1.716-4.332,3.036-6.84,3.84
						c2.628-1.164,4.86-3.192,6.252-5.7c-3.384,2.436-7.392,3.996-11.532,4.512c3.768-1.692,7.404-3.672,10.872-5.892
						c-2.952,0.432-5.988,0.42-8.94-0.024c2.64-0.132,5.28-0.552,7.836-1.236c-2.088-0.156-4.152-0.588-6.132-1.272
						c2.664,0.216,5.376-0.252,7.812-1.344c0.48-0.216,1.044-0.456,1.548-0.456c0.276,0,0.528,0.072,0.756,0.252
						c0.228,0.204,0.372,0.492,0.54,0.756c0.6,0.876,2.052,1.536,3.108,1.38c1.116,0.756,1.932,2.076,1.752,3.408
						c-0.156,1.224,0.912,1.092,2.052,1.56c1.14,0.468,2.4,0.54,3.624,0.708c2.832,0.396,5.556,1.368,8.34,2.064
						c6.348,1.584,12.972,1.692,19.512,1.776c4.068,0.06,8.148,0.12,12.216,0.18c1.512,0.024,3.024,0.036,4.536,0.06
						c0.588,0.012,1.212,0.012,1.728-0.288c1.104-0.624,1.128-2.268,0.516-3.372c-0.6-1.116-1.632-1.92-2.352-2.964
						c-0.72-1.032-1.056-2.556-0.204-3.504c0.564-0.624,1.464-0.78,2.304-0.876c2.148-0.216,4.332-0.132,6.468,0.216
						c3,0.504,5.916,1.548,8.532,3.084c0.732,0.444,1.512,0.996,1.668,1.836c0.3,1.56-1.668,2.94-1.224,4.464
						c0.36,1.284,2.016,1.44,3.408,1.248c0.036,0.012,0.084,0.024,0.12,0.036c0.336,0.108,0.66,0.288,0.912,0.528
						c-0.192-0.204-0.396-0.408-0.588-0.624c0.012-0.012,0.036-0.012,0.048-0.012c4.644-0.888,9.216-0.84,13.944-2.652
						c0.132,0.324,0.144,0.672,0.084,1.02c0.012,0.024,0,0.048-0.024,0.072c-0.264,0.708-1.044,1.356-1.764,1.752
						c-7.86,4.332-16.968,5.688-25.86,6.972c-1.932,0.276-3.852,0.552-5.796,0.792c-1.236-0.144-2.484,0.144-3.756,0.444
						c-0.012,0-0.024,0-0.036,0.012c-2.172,0.216-4.356,0.384-6.54,0.444c-2.412,0.06-4.548,0.144-6.684,0.108
						c-2.604-0.252-5.22-0.504-7.824-0.756c-1.932-0.264-3.864-0.456-5.808-0.552c-0.288-0.036-0.564-0.06-0.852-0.084
						c-0.12-0.012-0.24-0.012-0.372-0.012c-0.12,0-0.24,0.012-0.36,0.024c-1.044-0.036-2.088-0.036-3.12-0.024
						c0.132-0.492,0.276-0.984,0.408-1.476c-0.096-0.024-0.18-0.036-0.276-0.06c0.06-0.084,0.156-0.144,0.264-0.18
						c-1.164-0.144-2.328-0.336-3.48-0.576C317.8232,296.7564,316.3952,296.3604,314.9672,295.9284z"/>
					<path style="fill:#E73B4B;" d="M340.4912,291.4164c0.192-0.012,0.396-0.048,0.588-0.084c-2.268-0.192-4.428-1.212-6.096-2.748
						c-0.9-0.84-1.668-1.824-2.232-2.928c-0.228-0.456-0.432-0.948-0.588-1.44c0.372-0.06,0.732-0.12,1.104-0.18
						c-0.072-0.084-0.144-0.168-0.216-0.252c-0.084-0.096-0.156-0.18-0.24-0.276c0.468,0,0.936-0.06,1.392-0.156
						c-0.264-0.252-0.444-0.576-0.54-0.924c0-0.072,0.48-0.264,1.032-0.468c0.612-0.228,1.308-0.456,1.428-0.492
						c0.6-0.192,1.2-0.36,1.812-0.492c0.264-0.072,0.528-0.12,0.792-0.168c1.776-0.336,3.6-0.432,5.388-0.312
						c0.24,0.012,0.468,0.036,0.708,0.072c0.012,0,0.024,0,0.024,0c0.24,0.024,0.48,0.048,0.72,0.084
						c0.12,0.012,0.276,0.048,0.384,0c-0.108-0.132-0.336-0.18-0.492-0.24c-0.408-0.144-0.816-0.252-1.224-0.36
						c-1.116-0.288-2.244-0.408-3.384-0.492c-0.864-0.048-1.74-0.084-2.604-0.084c0.132,0.156,0.264,0.312,0.396,0.468
						c-0.756-0.024-1.524-0.048-2.28-0.06c0.216,0.108,0.444,0.228,0.66,0.348c-2.364,0.132-4.68,1.152-6.384,2.796
						c0.36,0.288,0.756,0.516,1.188,0.672c-0.396,0.024-0.78,0.048-1.164,0.072c0.24,0.408,0.492,0.816,0.732,1.236
						c-0.324-0.06-0.66-0.108-0.996-0.156c0.996,1.428,2.1,2.784,3.3,4.044c-0.336-0.096-0.672-0.192-0.996-0.276
						c-0.228,0.06-0.084,0.396,0.084,0.54C334.8872,290.9484,337.7552,291.7764,340.4912,291.4164z M383.6672,288.2484
						c-0.372,0.72-0.708,1.464-1.008,2.22c2.832,0.36,5.76-0.18,8.292-1.512c0.048,0.072,0.084,0.144,0.108,0.228
						c-4.728,1.812-9.3,1.764-13.944,2.652c-0.012,0-0.036,0-0.048,0.012c-0.144-0.144-0.276-0.3-0.42-0.444
						c-0.432-0.456-0.876-0.96-0.996-1.572c-0.144-0.756,0.24-1.512,0.756-2.076c0.528-0.552,1.176-0.96,1.764-1.452
						c0.912-0.768,1.788-1.86,2.16-3.024c-0.168,0.084-0.288,0.324-0.42,0.456c-0.156,0.18-0.336,0.336-0.504,0.492
						c-0.372,0.312-0.78,0.588-1.188,0.852c-0.828,0.528-1.704,0.996-2.448,1.644c-0.744,0.648-1.368,1.512-1.488,2.496
						c-0.12,0.972,0.372,2.064,1.296,2.436c0.336,0.132,0.696,0.156,1.044,0.252c-1.392,0.192-3.048,0.036-3.408-1.248
						c-0.444-1.524,1.524-2.904,1.224-4.464c-0.156-0.84-0.936-1.392-1.668-1.836c-2.616-1.536-5.532-2.58-8.532-3.084
						c-2.136-0.348-4.32-0.432-6.468-0.216c-0.84,0.096-1.74,0.252-2.304,0.876c-0.852,0.948-0.516,2.472,0.204,3.504
						c0.72,1.044,1.752,1.848,2.352,2.964c0.612,1.104,0.588,2.748-0.516,3.372c-0.516,0.3-1.14,0.3-1.728,0.288
						c-1.512-0.024-3.024-0.036-4.536-0.06c-4.068-0.06-8.148-0.12-12.216-0.18c-6.54-0.084-13.164-0.192-19.512-1.776
						c-2.784-0.696-5.508-1.668-8.34-2.064c-1.224-0.168-2.484-0.24-3.624-0.708c-1.14-0.468-2.208-0.336-2.052-1.56
						c0.18-1.332-0.636-2.652-1.752-3.408c-1.056,0.156-2.508-0.504-3.108-1.38c-0.168-0.264-0.312-0.552-0.54-0.756
						c-0.228-0.18-0.48-0.252-0.756-0.252l0.756-1.44c0.012,0,0.012,0.012,0.024,0.012c2.112,0.996,4.56,1.512,6.492,0.204
						c-0.552-0.492-1.308-0.564-2.076-0.564h2.256c2.28-1.08,13.74-7.092,26.268-8.616c5.916-0.72,15.516-1.212,21.564-0.924v-0.072
						c2.688-0.66,7.344,1.356,10.02,2.076c4.14,1.104,5.796,1.548,9.42,3.828c4.524,2.856,9.36,5.22,14.376,7.08
						C386.5232,283.4844,384.9152,285.7764,383.6672,288.2484z M384.2072,281.5644c0.036-0.096,0.252-0.36,0.132-0.432
						c-0.096-0.06-0.372,0.18-0.444,0.228c-0.444,0.348-0.672,0.936-0.936,1.428c-0.384,0.72-0.744,1.44-1.08,2.184
						c-0.36,0.792-0.756,1.656-1.548,2.016c0.888-0.156,1.476-0.972,1.932-1.74
						C382.9832,284.0604,383.5952,282.8244,384.2072,281.5644z"/>
					<path d="M390.9872,288.7524l-0.036,0.204c-2.532,1.332-5.46,1.872-8.292,1.512c0.3-0.756,0.636-1.5,1.008-2.22
						c1.848,0.348,3.768,0.408,5.64,0.18c0.372-0.048,0.768-0.108,1.128,0C390.6392,288.4884,390.8432,288.5964,390.9872,288.7524z"
						/>
					<path style="fill:#E73B4B;" d="M357.6992,299.7924c1.944-0.24,3.864-0.516,5.796-0.792c8.892-1.284,18-2.64,25.86-6.972
						c0.72-0.396,1.5-1.044,1.764-1.752c-0.06,0.36-0.228,0.696-0.444,0.984c-0.492,0.66-1.224,1.092-1.956,1.476
						c-9.564,5.16-20.688,6.348-31.524,7.344c0.012-0.072,0.012-0.144,0.012-0.216
						C357.3752,299.8404,357.5432,299.8284,357.6992,299.7924z"/>
					<path d="M384.3392,281.1324c0.12,0.072-0.096,0.336-0.132,0.432c-0.612,1.26-1.224,2.496-1.944,3.684
						c-0.456,0.768-1.044,1.584-1.932,1.74c0.792-0.36,1.188-1.224,1.548-2.016c0.336-0.744,0.696-1.464,1.08-2.184
						c0.264-0.492,0.492-1.08,0.936-1.428C383.9672,281.3124,384.2432,281.0724,384.3392,281.1324z"/>
					<path d="M379.9112,283.7364c0.132-0.132,0.252-0.372,0.42-0.456c-0.372,1.164-1.248,2.256-2.16,3.024
						c-0.588,0.492-1.236,0.9-1.764,1.452c-0.516,0.564-0.9,1.32-0.756,2.076c0.12,0.612,0.564,1.116,0.996,1.572
						c0.144,0.144,0.276,0.3,0.42,0.444c-0.144,0.024-0.288,0.048-0.444,0.06c-0.348-0.096-0.708-0.12-1.044-0.252
						c-0.924-0.372-1.416-1.464-1.296-2.436c0.12-0.984,0.744-1.848,1.488-2.496c0.744-0.648,1.62-1.116,2.448-1.644
						c0.408-0.264,0.816-0.54,1.188-0.852C379.5752,284.0724,379.7552,283.9164,379.9112,283.7364z"/>
					<path style="fill:#F4C6A1;" d="M377.0672,291.8484c0.192,0.216,0.396,0.42,0.588,0.624c-0.252-0.24-0.576-0.42-0.912-0.528
						c-0.036-0.012-0.084-0.024-0.12-0.036C376.7792,291.8964,376.9232,291.8724,377.0672,291.8484z"/>
					<path style="fill:#F4C6A1;" d="M357.2072,299.8644c-1.08,0.132-2.172,0.264-3.264,0.372c1.272-0.3,2.52-0.588,3.756-0.444
						C357.5432,299.8284,357.3752,299.8404,357.2072,299.8644z"/>
					<path style="fill:#E73B4B;" d="M353.9072,300.2484c0.012-0.012,0.024-0.012,0.036-0.012c1.092-0.108,2.184-0.24,3.264-0.372
						c0,0.072,0,0.144-0.012,0.216c-0.288,0.036-0.576,0.06-0.864,0.084c-1.932,4.992-4.5,9.756-7.608,14.136h-0.012
						c-0.18,0.276-0.372,0.54-0.564,0.804c-0.108,0.132-0.216,0.276-0.36,0.348c-0.348,0.156-0.732-0.096-1.02-0.336
						c-3.12-2.748-4.68-7.152-3.984-11.244c0.972-0.864,1.824-1.74,2.796-2.604c-1.632-0.156-3.264-0.312-4.896-0.468
						c2.136,0.036,4.272-0.048,6.684-0.108C349.5512,300.6324,351.7352,300.4644,353.9072,300.2484z"/>
					<path d="M356.3312,300.1644c0.288-0.024,0.576-0.048,0.864-0.084c-0.144,5.46-1.98,11.664-4.728,16.38
						c-1.332-0.096-2.592-0.744-3.444-1.752c-0.108-0.132-0.204-0.276-0.3-0.408
						C351.8312,309.9204,354.3992,305.1564,356.3312,300.1644z"/>
					<path style="fill:#E73B4B;" d="M354.6272,268.5204v0.072c-6.048-0.288-15.648,0.204-21.564,0.924
						c-12.528,1.524-23.988,7.536-26.268,8.616h-2.256c-0.348,0-0.708,0.024-1.056,0.012c-2.148-0.048-4.356-1.344-4.968-3.408
						c1.716,0.312,3.216-1.044,4.716-1.92c0.576-0.336,1.176-0.612,1.788-0.876c4.356-1.848,8.976-3.036,13.68-3.516
						c0.84-0.084,1.752-0.144,2.472,0.3c0.168-0.432-0.144-0.972-0.612-1.044c1.236-0.348,2.568-0.276,3.756,0.204
						c0.036-0.456-0.204-0.924-0.6-1.152c1.14-0.372,2.46-0.12,3.372,0.66c0.192-0.72-0.024-1.536-0.564-2.052
						c1.452,0.288,2.88,0.744,4.224,1.344c0.084-0.924-0.216-1.884-0.816-2.604c2.028,0.228,4.212,1.392,5.292,3.132
						c0.924-1.14,0.816-2.976-0.228-3.996c1.728-0.336,3.204,1.2,4.296,2.58c0.12-1.344-0.3-2.724-1.14-3.792
						c1.2-0.096,2.388,0.468,3.3,1.248c0.912,0.792,1.596,1.812,2.268,2.808c0.756-1.08,0.804-2.616,0.108-3.744
						c2.208,0.168,4.236,1.776,4.896,3.876c1.128-0.828,1.428-2.58,0.66-3.756c1.692,1.008,3,2.664,3.588,4.56
						c0.792-0.648,1.32-1.62,1.44-2.64C354.3272,265.7244,354.3752,267.1884,354.6272,268.5204z"/>
					<path d="M334.6952,281.9604c-0.552,0.204-1.032,0.396-1.032,0.468c0.096,0.348,0.276,0.672,0.54,0.924
						c-0.456,0.096-0.924,0.156-1.392,0.156c0.084,0.096,0.156,0.18,0.24,0.276c0.072,0.084,0.144,0.168,0.216,0.252
						c-0.372,0.06-0.732,0.12-1.104,0.18c0.156,0.492,0.36,0.984,0.588,1.44c0.564,1.104,1.332,2.088,2.232,2.928
						c1.668,1.536,3.828,2.556,6.096,2.748c-0.192,0.036-0.396,0.072-0.588,0.084c-2.736,0.36-5.604-0.468-7.704-2.256
						c-0.168-0.144-0.312-0.48-0.084-0.54c0.324,0.084,0.66,0.18,0.996,0.276c-1.2-1.26-2.304-2.616-3.3-4.044
						c0.336,0.048,0.672,0.096,0.996,0.156c-0.24-0.42-0.492-0.828-0.732-1.236c0.384-0.024,0.768-0.048,1.164-0.072
						c-0.432-0.156-0.828-0.384-1.188-0.672c1.704-1.644,4.02-2.664,6.384-2.796c-0.216-0.12-0.444-0.24-0.66-0.348
						c0.756,0.012,1.524,0.036,2.28,0.06c-0.132-0.156-0.264-0.312-0.396-0.468c0.864,0,1.74,0.036,2.604,0.084
						c1.14,0.084,2.268,0.204,3.384,0.492c0.408,0.108,0.816,0.216,1.224,0.36c0.156,0.06,0.384,0.108,0.492,0.24
						c-0.108,0.048-0.264,0.012-0.384,0c-0.24-0.036-0.48-0.06-0.72-0.084c0,0-0.012,0-0.024,0c-0.24-0.036-0.468-0.06-0.708-0.072
						c-1.788-0.12-3.612-0.024-5.388,0.312c-0.264,0.048-0.528,0.096-0.792,0.168c-0.612,0.132-1.212,0.3-1.812,0.492
						C336.0032,281.5044,335.3072,281.7324,334.6952,281.9604z"/>
					<path style="fill:#F4C6A1;" d="M332.8592,300.0444c2.604,0.252,5.22,0.504,7.824,0.756c-1.992-0.024-3.984-0.168-6.192-0.516
						C333.9512,300.2004,333.3992,300.1164,332.8592,300.0444z"/>
					<path style="fill:#E73B4B;" d="M332.8592,300.0444c-1.932-0.192-3.876-0.372-5.808-0.552
						C328.9952,299.5884,330.9272,299.7804,332.8592,300.0444z"/>
					<path style="fill:#F4C6A1;" d="M326.1992,299.4084c0.288,0.024,0.564,0.048,0.852,0.084c-0.42-0.024-0.828-0.048-1.236-0.06
						c0-0.012,0-0.024,0.012-0.036C325.9592,299.3964,326.0792,299.3964,326.1992,299.4084z"/>
					<path style="fill:#F4C6A1;" d="M325.8272,299.3964c-0.012,0.012-0.012,0.024-0.012,0.036c-0.12-0.012-0.228-0.012-0.348-0.012
						C325.5872,299.4084,325.7072,299.3964,325.8272,299.3964z"/>
					<path d="M322.2512,298.4964c0.036-0.024,0.084-0.036,0.12-0.06c-0.096,0.264-0.192,0.528-0.288,0.792
						c0.084,0.06,0.168,0.12,0.264,0.168c0.876,0.444,2.04,0.096,3.12,0.024c0.12,0,0.228,0,0.348,0.012
						c-0.036,0.096-0.072,0.18-0.096,0.288c-0.348,0.912-1.032,1.656-1.704,2.376c-1.908,2.052-3.804,4.092-5.712,6.144
						c0.06-1.464,0.432-2.928,1.08-4.248c-1.272,0.168-2.568,0.096-3.804-0.216c0.756-0.6,1.344-1.38,1.716-2.256
						c0.9-0.372,1.764-0.84,2.58-1.416C320.6552,299.5524,321.3872,298.9044,322.2512,298.4964z"/>
					<path style="fill:#E73B4B;" d="M322.3472,299.3964c1.032-0.012,2.076-0.012,3.12,0.024
						C324.3872,299.4924,323.2232,299.8404,322.3472,299.3964z"/>
					<path style="fill:#E73B4B;" d="M322.7552,297.9204c-0.132,0.492-0.276,0.984-0.408,1.476c-0.096-0.048-0.18-0.108-0.264-0.168
						c0.096-0.264,0.192-0.528,0.288-0.792c-0.036,0.024-0.084,0.036-0.12,0.06c-0.024-0.228,0.06-0.468,0.228-0.636
						C322.5752,297.8844,322.6592,297.8964,322.7552,297.9204z"/>
					<path style="fill:#F4C6A1;" d="M322.7432,297.6804c-0.108,0.036-0.204,0.096-0.264,0.18c-1.08-0.228-2.148-0.48-3.216-0.756
						C320.4152,297.3444,321.5792,297.5364,322.7432,297.6804z"/>
					<path style="fill:#E73B4B;" d="M317.2952,301.5204c-3.792,1.584-8.28,1.488-12.312,0.396c-1.08-0.288-2.196-0.66-3.3-0.456
						c0.144-0.204,0.3-0.396,0.456-0.6c-0.564,0.036-1.128,0.06-1.704,0.096c-0.06-0.276,0-0.576,0.156-0.816
						c-0.288-0.252-0.696-0.312-1.068-0.372c-0.372-0.072-0.78-0.18-1.008-0.48c-0.228-0.312-0.12-0.864,0.264-0.924
						c-0.384-0.252-0.768-0.504-1.14-0.756c0.912-1.152,1.896-2.352,3.276-2.856c0.636-0.228,1.308-0.3,1.98-0.372
						c2.1-0.204,4.176-0.432,6.276-0.648c-0.012-0.06-0.024-0.12-0.024-0.192c0.096,0.108,0.204,0.192,0.312,0.276
						c0.684,0.528,1.524,0.828,2.34,1.104c1.056,0.36,2.112,0.696,3.168,1.008c1.416,0.48,2.844,0.864,4.296,1.176
						c1.068,0.276,2.136,0.528,3.216,0.756c-0.168,0.168-0.252,0.408-0.228,0.636c-0.864,0.408-1.596,1.056-2.376,1.608
						C319.0592,300.6804,318.1952,301.1484,317.2952,301.5204z"/>
					<path style="fill:#E73B4B;" d="M314.9672,295.9284c1.428,0.432,2.856,0.828,4.296,1.176
						C317.8112,296.7924,316.3832,296.4084,314.9672,295.9284z"/>
					<path style="fill:#F4C6A1;" d="M309.1352,293.4924c0,0.012,0,0.036,0.012,0.048c-0.192-0.168-0.384-0.36-0.564-0.552
						C308.7752,293.1564,308.9552,293.3244,309.1352,293.4924z"/>
					<path style="fill:#E73B4B;" d="M307.7192,292.0764c0.3,0.276,0.576,0.588,0.852,0.9c-1.08-0.924-2.268-1.716-3.54-2.256
						C306.0392,290.9484,306.8312,291.2364,307.7192,292.0764z"/>
					<path style="fill:#F4C6A1;" d="M305.0192,290.7204c-0.36-0.084-0.744-0.168-1.176-0.264c-0.696-0.156-1.416-0.264-2.088-0.492
						C302.8952,290.0244,303.9752,290.2884,305.0192,290.7204z"/>
					<path style="fill:#E73B4B;" d="M301.7552,289.9644c-0.204-0.012-0.408-0.012-0.612-0.012c-1.74,0.024-3.156,1.296-4.512,2.364
						c-2.556,2.028-5.496,3.552-8.616,4.488c-1.08,0.312-2.364,0.528-3.192-0.216c-0.216,0.24-0.42,0.48-0.636,0.72
						c-0.192-0.648-0.432-1.272-0.696-1.884c-0.3,0.204-0.528,0.528-0.636,0.876c-0.48-0.696-0.744-1.536-0.744-2.388
						c-0.3,0.144-0.6,0.288-0.888,0.432c-0.144-0.816-0.288-1.632-0.42-2.436c-0.276,0.024-0.552,0.06-0.816,0.084
						c0.072-0.912,0.012-1.848-0.156-2.748c-0.228,0.06-0.456,0.132-0.684,0.204c0.144-0.768,0.396-1.5,0.732-2.208
						c-0.276-0.12-0.6-0.168-0.9-0.12c0.072-0.864,0.324-1.704,0.72-2.46c-0.288-0.036-0.564-0.072-0.852-0.108
						c0.168-0.564,0.564-1.056,1.08-1.356c-0.42-0.072-0.744-0.492-0.72-0.9c0.024-0.42,0.396-0.792,0.816-0.828
						c-0.42-0.264-0.84-0.54-1.26-0.804c1.068-0.552,1.896-1.56,2.232-2.712c0.228-0.744,0.492-1.764,1.272-1.74
						c-0.288-0.288-0.468-0.744-0.312-1.128c0.144-0.384,0.696-0.588,0.996-0.3c-0.252-0.3-0.072-0.804,0.252-1.02
						c0.324-0.228,0.732-0.252,1.128-0.276c-0.06-0.384-0.12-0.756-0.18-1.14c0.36-0.024,0.72-0.036,1.08-0.048
						c0.864-0.6,2.028-0.708,2.988-0.312c2.16,0.912,4.284,1.08,6.156,2.484c1.872,1.392,3.612,3,5.724,4.008l-0.756,1.44
						c-0.504,0-1.068,0.24-1.548,0.456c-2.436,1.092-5.148,1.56-7.812,1.344c1.98,0.684,4.044,1.116,6.132,1.272
						c-2.556,0.684-5.196,1.104-7.836,1.236c2.952,0.444,5.988,0.456,8.94,0.024c-3.468,2.22-7.104,4.2-10.872,5.892
						c4.14-0.516,8.148-2.076,11.532-4.512c-1.392,2.508-3.624,4.536-6.252,5.7c2.508-0.804,4.848-2.124,6.84-3.84
						c0.204-0.18,0.48-0.36,0.72-0.228c0.18,0.108,0.216,0.348,0.252,0.564c0.18,0.888,0.948,1.56,1.776,1.932
						C301.3952,289.8444,301.5752,289.9044,301.7552,289.9644z"/>
				</g>
				<g>
					<path style="fill:none;stroke:#000000;stroke-width:0.4;stroke-miterlimit:10;" d="M348.7232,314.3004
						c0.096,0.132,0.192,0.276,0.3,0.408c0.024,0.036,0.06,0.084,0.084,0.12"/>
					<path style="fill:none;stroke:#000000;stroke-width:0.4;stroke-miterlimit:10;" d="M348.6032,314.1444
						c0.036,0.048,0.072,0.108,0.108,0.156"/>
					<path style="fill:none;stroke:#000000;stroke-width:0.4;stroke-miterlimit:10;" d="M357.2072,299.8524v0.012
						c0,0.072,0,0.144-0.012,0.216c-0.144,5.46-1.98,11.664-4.728,16.38c-1.332-0.096-2.592-0.744-3.444-1.752
						c-0.12-0.132-0.216-0.264-0.312-0.408"/>
					<path style="fill:none;stroke:#000000;stroke-width:0.4;stroke-miterlimit:10;" d="M325.8392,299.3484
						c0,0.012-0.012,0.036-0.012,0.048"/>
					<path style="fill:none;stroke:#000000;stroke-width:0.4;stroke-miterlimit:10;" d="M325.8272,299.3964
						c-0.012,0.012-0.012,0.024-0.012,0.036"/>
					<path style="fill:none;stroke:#000000;stroke-width:0.4;stroke-miterlimit:10;" d="M325.8152,299.4324
						c-0.036,0.096-0.072,0.18-0.096,0.288"/>
					<path style="fill:none;stroke:#000000;stroke-width:0.4;stroke-miterlimit:10;" d="M317.3312,301.4604
						c-0.012,0.024-0.012,0.036-0.036,0.06c-0.372,0.876-0.96,1.656-1.716,2.256c1.236,0.312,2.532,0.384,3.804,0.216
						c-0.648,1.32-1.02,2.784-1.08,4.248c1.908-2.052,3.804-4.092,5.712-6.144c0.672-0.72,1.356-1.464,1.704-2.376"/>
					<path style="fill:none;stroke:#000000;stroke-width:0.4;stroke-miterlimit:10;" d="M342.0992,280.2084
						c0.036-0.036,0.084-0.072,0.132-0.108c0.816,0.144,1.74,0.252,2.592,0.468c0.012,0,0.024,0,0.024,0
						c0.516,0.132,1.02,0.3,1.464,0.528c0.684,0.348,1.308,0.78,1.932,1.212c1.488,1.032,2.988,2.064,4.476,3.096
						c0.384,0.252,0.756,0.516,1.092,0.84"/>
					<path style="fill:none;stroke:#000000;stroke-width:0.4;stroke-miterlimit:10;" d="M336.4472,290.5524
						c0.972,0.288,2.556,0.612,4.044,0.864c0.996,0.168,1.944,0.3,2.628,0.36c0.888,0.072,1.776,0.06,2.676,0.048
						c1.5-0.024,3.012-0.048,4.524-0.072c0.264-0.012,0.54-0.012,0.768,0.12c0.06,0.036,0.108,0.084,0.156,0.132
						c0.132,0.144,0.192,0.348,0.108,0.516"/>
					<path style="fill:none;stroke:#000000;stroke-width:0.4;stroke-miterlimit:10;" d="M306.7952,278.1324
						c2.28-1.08,13.74-7.092,26.268-8.616c5.916-0.72,15.516-1.212,21.564-0.924c0.096,0,0.192,0.012,0.276,0.012"/>
					<path style="fill:none;stroke:#000000;stroke-width:0.4;stroke-miterlimit:10;" d="M314.1272,295.6404
						c0.276,0.096,0.564,0.204,0.84,0.288c1.416,0.48,2.844,0.864,4.296,1.176c1.152,0.24,2.316,0.432,3.48,0.576
						c-0.108,0.036-0.204,0.096-0.264,0.18c-0.168,0.168-0.252,0.408-0.228,0.636c-0.012,0.012,0,0.036,0,0.048"/>
					<path style="fill:none;stroke:#000000;stroke-width:0.4;stroke-miterlimit:10;" d="M353.9432,300.2364
						c1.272-0.3,2.52-0.588,3.756-0.444c0.216,0.036,0.432,0.072,0.648,0.132"/>
					<path style="fill:none;stroke:#000000;stroke-width:0.4;stroke-miterlimit:10;" d="M350.8832,300.7884
						c1.008-0.048,2.028-0.3,3.024-0.54"/>
					<path style="fill:none;stroke:#000000;stroke-width:0.4;stroke-miterlimit:10;" d="M332.3792,283.6164
						c0.228,0.06,0.444,0.12,0.672,0.168c5.328,1.356,10.824,2.268,15.732,4.74"/>
					<path style="fill:none;stroke:#000000;stroke-width:0.4;stroke-miterlimit:10;" d="M333.3872,281.7084
						c0.444,0.084,0.876,0.168,1.308,0.252c6.036,1.248,11.868,3.408,17.256,6.384"/>
					<path style="fill:none;stroke:#000000;stroke-width:0.4;stroke-miterlimit:10;" d="M336.8072,280.6404
						c0.372,0.108,0.756,0.216,1.128,0.336c2.688,0.804,5.304,1.824,7.824,3.048"/>
					<path style="fill:none;stroke:#000000;stroke-width:0.4;stroke-miterlimit:10;" d="M332.4272,285.6084
						c0.108,0.012,0.216,0.036,0.324,0.048c1.452,0.204,2.904,0.456,4.332,0.768c1.824,0.384,3.624,0.864,5.388,1.464"/>
					<path style="fill:none;stroke:#000000;stroke-width:0.4;stroke-miterlimit:10;" d="M332.8112,287.1204
						c0.564,0.684,1.332,1.152,2.172,1.464c0.276,0.096,0.564,0.18,0.852,0.252c1.14,0.276,2.328,0.312,3.492,0.408
						c2.328,0.204,4.62,0.624,6.864,1.26"/>
					<path style="fill:none;stroke:#000000;stroke-width:0.4;stroke-miterlimit:10;" d="M364.3352,278.2164
						c-0.084,1.02-0.168,2.052-0.096,3.06c0.012,0.312,0.048,0.624,0.096,0.924c0.228,1.344,0.792,2.616,0.9,3.972
						c0.108,1.452-0.276,3.06,0.564,4.236c0.948,1.296,2.916,1.356,4.044,2.496"/>
					<path style="fill:none;stroke:#000000;stroke-width:0.4;stroke-miterlimit:10;" d="M383.5712,288.2364
						c0.036,0.012,0.06,0.012,0.096,0.012c1.848,0.348,3.768,0.408,5.64,0.18c0.372-0.048,0.768-0.108,1.128,0
						c0.204,0.06,0.408,0.168,0.552,0.324"/>
				</g>
			</g>
			
				<ellipse transform="matrix(0.1206 -0.9927 0.9927 0.1206 54.4535 617.4075)" style="fill:#F4F2DD;stroke:#000000;stroke-width:0.4;stroke-miterlimit:10;" cx="375.7117" cy="277.9684" rx="1.5487" ry="1.9131"/>
			<ellipse cx="376.0479" cy="278.1566" rx="1.1977" ry="0.9695"/>
			<path style="fill:none;stroke:#000000;stroke-width:0.7;stroke-linecap:round;stroke-linejoin:round;" d="M306.6185,278.6936
				c-0.8132-0.7198-2.0456-0.5253-3.1314-0.5483c-2.1487-0.0457-4.365-1.3434-4.9709-3.4055c1.7118,0.3077,3.209-1.0441,4.71-1.9226
				c0.575-0.3366,1.1838-0.6114,1.7968-0.8725c4.3477-1.8521,8.9757-3.0445,13.6771-3.524c0.8402-0.0857,1.747-0.1346,2.4687,0.3042
				c0.1678-0.4308-0.1472-0.9771-0.6041-1.0477c1.2263-0.3471,2.5678-0.2722,3.7477,0.2093
				c0.0432-0.4576-0.201-0.9299-0.5993-1.1592c1.1371-0.3719,2.459-0.1127,3.3714,0.661c0.1976-0.7174-0.025-1.5346-0.5591-2.0527
				c1.454,0.2886,2.875,0.743,4.2267,1.3516c0.0767-0.93-0.2231-1.8857-0.8174-2.6052c2.0249,0.2279,4.2134,1.3935,5.2863,3.1258
				c0.9232-1.133,0.8207-2.9663-0.2229-3.9894c1.7278-0.3381,3.1993,1.1961,4.2903,2.5779
				c0.1186-1.3447-0.2958-2.7292-1.1338-3.7876c1.2019-0.0955,2.3829,0.458,3.2936,1.2481
				c0.9107,0.7901,1.5943,1.8035,2.2667,2.8043c0.7616-1.0789,0.8093-2.615,0.116-3.739c2.2014,0.1604,4.2275,1.765,4.8881,3.871
				c1.1268-0.833,1.4348-2.5857,0.6596-3.753c1.7025,1.0055,3.009,2.6629,3.589,4.5532c0.798-0.6467,1.3283-1.614,1.4443-2.6346
				c-0.0882,1.3602-0.036,2.8254,0.2113,4.1659c3.8767,0.3513,6.6836,1.1294,9.3636,1.8477
				c4.1334,1.1078,8.1827,2.5437,11.8052,4.8218c4.5303,2.849,7.6316,4.4562,12.6539,6.3048
				c-2.4829,2.5792-4.4601,5.6435-5.7869,8.9686c2.8299,0.3577,5.766-0.1781,8.2871-1.5122
				c0.4207,0.7065,0.2218,1.6514-0.2717,2.3091c-0.4935,0.6577-1.2267,1.0869-1.9507,1.4767
				c-9.8229,5.2884-21.2786,6.4046-32.3882,7.4201c-2.0573,5.3128-4.8203,10.3519-8.1937,14.9431
				c-0.0994,0.1353-0.2054,0.2753-0.3572,0.347c-0.344,0.1624-0.7336-0.0893-1.0193-0.3404
				c-3.1186-2.7408-4.6787-7.1473-3.9794-11.2398c0.9677-0.8643,1.8245-1.7352,2.7923-2.5996
				c-6.4591-0.6227-12.9182-1.2453-19.3774-1.868c-1.3587-0.131-3.0388,0.6606-4.1179-0.1754c0.098-0.262,0.196-0.524,0.294-0.786
				c-0.9209,0.3983-1.6835,1.0805-2.5022,1.6605c-4.2156,2.9863-9.9016,3.175-14.8858,1.8163
				c-1.0846-0.2957-2.2044-0.6616-3.3099-0.4574c0.154-0.2008,0.3079-0.4015,0.4619-0.6023
				c-0.5673,0.0323-1.1346,0.0646-1.7019,0.0969c-0.0616-0.2753-0.0076-0.5746,0.1463-0.8111
				c-0.2847-0.253-0.6864-0.3122-1.0612-0.3801c-0.3748-0.0679-0.7784-0.1753-1.0054-0.4812
				c-0.227-0.3059-0.121-0.8575,0.2554-0.9163c-0.3794-0.2521-0.7588-0.5042-1.1381-0.7562
				c0.9132-1.1524,1.8973-2.3575,3.2784-2.8621c0.6314-0.2307,1.3087-0.2988,1.9777-0.3651
				c2.1001-0.2079,4.1767-0.4386,6.2768-0.6465c-0.0106-0.0822-0.0211-0.1645-0.0317-0.2467
				c-2.204-2.0968-4.9567-3.5871-7.9985-3.5444c-1.7313,0.0243-3.1457,1.3013-4.5041,2.375
				c-2.557,2.0212-5.5009,3.551-8.6245,4.4819c-1.0688,0.3185-2.3538,0.5244-3.1916-0.2117
				c-0.2096,0.237-0.4192,0.474-0.6288,0.7111c-0.1998-0.6383-0.4325-1.2663-0.6968-1.8807
				c-0.3018,0.2119-0.5312,0.5252-0.642,0.8769c-0.4761-0.6964-0.7376-1.5373-0.7404-2.3809
				c-0.2971,0.1405-0.5942,0.281-0.8913,0.4216c-0.1392-0.8122-0.2784-1.6244-0.4176-2.4366
				c-0.273,0.0313-0.5461,0.0626-0.8191,0.094c0.0724-0.9199,0.0216-1.8493-0.1508-2.7558
				c-0.2295,0.0678-0.459,0.1356-0.6886,0.2034c0.1527-0.7604,0.401-1.5016,0.7371-2.2007
				c-0.2798-0.1267-0.5963-0.1714-0.9003-0.1271c0.071-0.8582,0.3179-1.7014,0.721-2.4623c-0.2845-0.0335-0.569-0.067-0.8535-0.1005
				c0.1687-0.5665,0.5622-1.0626,1.0754-1.3558c-0.4129-0.0769-0.7354-0.4883-0.7115-0.9076
				c0.0239-0.4193,0.3912-0.7914,0.8101-0.8209c-0.4198-0.2691-0.8397-0.5382-1.2595-0.8073
				c1.0676-0.5527,1.8944-1.5529,2.2364-2.7054c0.2217-0.747,0.4872-1.7636,1.2662-1.7447
				c-0.2911-0.2919-0.4653-0.7412-0.3152-1.1252c0.1501-0.3839,0.703-0.5858,1.0046-0.3048
				c-0.2522-0.3034-0.0806-0.799,0.2448-1.0221c0.3253-0.2231,0.7423-0.2489,1.1364-0.2674
				c-0.0616-0.3833-0.1231-0.7666-0.1847-1.1499c0.3601-0.0162,0.7202-0.0325,1.0803-0.0487
				c0.8604-0.5886,2.0228-0.7066,2.9838-0.3029c2.1589,0.9069,4.2837,1.0787,6.1634,2.4752s3.6266,3.0178,5.7425,4.0209
				C302.2364,279.4906,304.6773,280.0033,306.6185,278.6936z"/>
			<path style="fill:none;stroke:#000000;stroke-width:0.4;stroke-miterlimit:10;" d="M296.9221,286.3833
				c-0.1027,0.014-0.2053,0.028-0.308,0.042c-0.6056,1.7579-1.9823,3.1725-3.5698,4.1405c-1.5875,0.968-3.3849,1.5326-5.1813,2.0122
				"/>
			<path style="fill:none;stroke:#000000;stroke-width:0.4;stroke-miterlimit:10;" d="M296.2604,284.5381
				c-3.8925,2.7707-8.2539,4.8809-12.8423,6.2135"/>
			<path style="fill:none;stroke:#000000;stroke-width:0.4;stroke-miterlimit:10;" d="M296.0889,282.9846
				c0.0764-0.0866,0.1529-0.1732,0.2293-0.2599c-1.1623-0.0481-2.3056,0.2568-3.4472,0.4806
				c-3.4292,0.6722-6.9992,0.6169-10.4059-0.1614"/>
			<path style="fill:none;stroke:#000000;stroke-width:0.4;stroke-miterlimit:10;" d="M284.2241,280.0289
				c2.5229,1.1859,5.4055,1.5925,8.158,1.1508c0.6948-0.1115,1.4198-0.2736,2.0879-0.0526"/>
			<path d="M356.6192,288.2632c1.1288,2.6985,2.8245,5.4733,5.5989,6.3998c-1.7271-2.0404-3.482-4.1262-4.4893-6.6024
				c1.3831,2.2747,3.2237,4.27,5.3798,5.8316c-0.9091-1.0533-1.7455-2.1693-2.5014-3.3375
				c1.1548,0.9493,2.5519,1.6014,4.0213,1.8766c-3.1273-2.028-5.856-4.6682-7.9859-7.7269c-0.526-0.7553-1.022-1.533-1.5926-2.2563
				c-0.2806-0.3557-0.5788-0.6986-0.9065-1.0119c-0.2079-0.1988-0.766-0.82-1.0682-0.8257c-0.4825-0.0091,0.1824,0.7,0.2708,0.8162
				c0.2855,0.3751,0.5451,0.7694,0.7841,1.1756c0.4921,0.8364,0.8954,1.7215,1.2675,2.6166
				C355.8177,286.2285,356.1972,287.2544,356.6192,288.2632z"/>
		</g>
		<g>
			<path style="fill:#F4F2DD;" d="M391.6441,305.824c0,0-0.1995,1.1971,1.3967,1.696c0,0-0.906,0.7697-1.1971,0.9976
				c-0.2824,0.221-0.399,1.2969-0.399,1.2969l2.9929-1.3967c0.7088-0.3012,1.515-0.2726,2.1966,0.0859
				c0.7038,0.3702,1.4084,0.9668,1.7939,0.9117c0.6983-0.0998,0.9976-0.6983,0.9976-0.6983l4.2898,0.0998
				c0,0,0.6983,1.696,1.2969,1.4964s0.399-1.2969,0.399-1.2969h2.3943c0,0,1.696,2.2945,1.8955,1.7957s0-1.8955,0-1.8955
				s3.2921,0,4.8883-1.8955c0,0-0.4988-0.6983-2.7933-1.0974c-1.2928-0.2248-6.1853-0.7981-6.1853-0.7981
				s-1.3967-1.8955-1.8955-1.696s-0.7981,1.7957-0.7981,1.7957s-6.4846,1.3967-7.4822,1.3967S391.6441,305.824,391.6441,305.824z"/>
			<path style="fill:#889FA2;" d="M391.6441,305.824c0,0-0.1995,1.1971,1.3967,1.696c0,0-0.906,0.7697-1.1971,0.9976
				c-0.2824,0.221-0.399,1.2969-0.399,1.2969l2.9929-1.3967c0.141-0.0599,0.6939-0.9617,1.9287-0.9644
				c2.4007-0.0052,5.7197-0.2661,10.2423-0.133c3.8656,0.1137,7.3197,0.4859,7.981-0.2993c0,0-0.4988-0.6983-2.7933-1.0974
				c-1.2928-0.2248-6.1853-0.7981-6.1853-0.7981l-2.6936,0.0998c0,0-6.4846,1.3967-7.4822,1.3967S391.6441,305.824,391.6441,305.824
				z"/>
			<path style="fill:none;stroke:#000000;stroke-width:0.7;stroke-miterlimit:10;" d="M391.6441,305.824
				c0,0-0.1995,1.1971,1.3967,1.696c0,0-0.906,0.7697-1.1971,0.9976c-0.2824,0.221-0.399,1.2969-0.399,1.2969l2.9929-1.3967
				c0.7088-0.3012,1.515-0.2726,2.1966,0.0859c0.7038,0.3702,1.4084,0.9668,1.7939,0.9117
				c0.6983-0.0998,0.9976-0.6983,0.9976-0.6983l4.2898,0.0998c0,0,0.6983,1.696,1.2969,1.4964s0.399-1.2969,0.399-1.2969h2.3943
				c0,0,1.696,2.2945,1.8955,1.7957s0-1.8955,0-1.8955s3.2921,0,4.8883-1.8955c0,0-0.4988-0.6983-2.7933-1.0974
				c-1.2928-0.2248-6.1853-0.7981-6.1853-0.7981s-1.3967-1.8955-1.8955-1.696s-0.7981,1.7957-0.7981,1.7957
				s-6.4846,1.3967-7.4822,1.3967S391.6441,305.824,391.6441,305.824z"/>
		</g>
		<g>
			<path style="fill:#F4F2DD;" d="M398.96,289.729c0,0-0.1995,1.1971,1.3967,1.696c0,0-0.906,0.7697-1.1972,0.9976
				c-0.2824,0.221-0.399,1.2969-0.399,1.2969l2.9929-1.3967c0.7087-0.3012,1.515-0.2726,2.1966,0.0859
				c0.7038,0.3702,1.4085,0.9668,1.7939,0.9117c0.6983-0.0998,0.9976-0.6983,0.9976-0.6983l4.2898,0.0998
				c0,0,0.6983,1.696,1.2969,1.4964s0.399-1.2969,0.399-1.2969h2.3943c0,0,1.696,2.2945,1.8955,1.7957s0-1.8955,0-1.8955
				s3.2922,0,4.8884-1.8955c0,0-0.4988-0.6983-2.7933-1.0974c-1.2928-0.2248-6.1853-0.7981-6.1853-0.7981
				s-1.3967-1.8955-1.8955-1.696s-0.7981,1.7957-0.7981,1.7957s-6.4846,1.3967-7.4822,1.3967S398.96,289.729,398.96,289.729z"/>
			<path style="fill:#889FA2;" d="M398.96,289.729c0,0-0.1995,1.1971,1.3967,1.696c0,0-0.906,0.7697-1.1972,0.9976
				c-0.2824,0.221-0.399,1.2969-0.399,1.2969l2.9929-1.3967c0.141-0.0599,0.6939-0.9617,1.9287-0.9644
				c2.4007-0.0052,5.7197-0.266,10.2422-0.133c3.8656,0.1137,7.3198,0.4859,7.981-0.2993c0,0-0.4988-0.6983-2.7933-1.0974
				c-1.2928-0.2248-6.1853-0.7981-6.1853-0.7981l-2.6936,0.0998c0,0-6.4846,1.3967-7.4822,1.3967S398.96,289.729,398.96,289.729z"/>
			<path style="fill:none;stroke:#000000;stroke-width:0.7;stroke-miterlimit:10;" d="M398.96,289.729
				c0,0-0.1995,1.1971,1.3967,1.696c0,0-0.906,0.7697-1.1972,0.9976c-0.2824,0.221-0.399,1.2969-0.399,1.2969l2.9929-1.3967
				c0.7087-0.3012,1.515-0.2726,2.1966,0.0859c0.7038,0.3702,1.4085,0.9668,1.7939,0.9117
				c0.6983-0.0998,0.9976-0.6983,0.9976-0.6983l4.2898,0.0998c0,0,0.6983,1.696,1.2969,1.4964s0.399-1.2969,0.399-1.2969h2.3943
				c0,0,1.696,2.2945,1.8955,1.7957s0-1.8955,0-1.8955s3.2922,0,4.8884-1.8955c0,0-0.4988-0.6983-2.7933-1.0974
				c-1.2928-0.2248-6.1853-0.7981-6.1853-0.7981s-1.3967-1.8955-1.8955-1.696s-0.7981,1.7957-0.7981,1.7957
				s-6.4846,1.3967-7.4822,1.3967S398.96,289.729,398.96,289.729z"/>
		</g>
		<g>
			<path style="fill:#F4F2DD;" d="M406.0099,298.6411c0,0-0.1995,1.1971,1.3967,1.696c0,0-0.906,0.7697-1.1971,0.9976
				c-0.2825,0.2211-0.3991,1.2969-0.3991,1.2969l2.9929-1.3967c0.7088-0.3012,1.515-0.2726,2.1966,0.0859
				c0.7038,0.3702,1.4085,0.9668,1.7939,0.9117c0.6983-0.0998,0.9976-0.6983,0.9976-0.6983l4.2898,0.0998
				c0,0,0.6983,1.696,1.2969,1.4965c0.5986-0.1996,0.399-1.2969,0.399-1.2969h2.3943c0,0,1.696,2.2946,1.8955,1.7957
				s0-1.8955,0-1.8955s3.2921,0,4.8883-1.8955c0,0-0.4988-0.6983-2.7933-1.0974c-1.2928-0.2248-6.1853-0.7981-6.1853-0.7981
				s-1.3967-1.8955-1.8955-1.696s-0.7981,1.7957-0.7981,1.7957s-6.4846,1.3967-7.4822,1.3967S406.0099,298.6411,406.0099,298.6411z"
				/>
			<path style="fill:#889FA2;" d="M406.0099,298.6411c0,0-0.1995,1.1971,1.3967,1.696c0,0-0.906,0.7697-1.1971,0.9976
				c-0.2825,0.2211-0.3991,1.2969-0.3991,1.2969l2.9929-1.3967c0.141-0.0599,0.6939-0.9617,1.9287-0.9644
				c2.4007-0.0052,5.7197-0.2661,10.2422-0.133c3.8656,0.1137,7.3198,0.4859,7.981-0.2993c0,0-0.4988-0.6983-2.7933-1.0974
				c-1.2928-0.2248-6.1853-0.7981-6.1853-0.7981l-2.6936,0.0998c0,0-6.4846,1.3967-7.4822,1.3967
				S406.0099,298.6411,406.0099,298.6411z"/>
			<path style="fill:none;stroke:#000000;stroke-width:0.7;stroke-miterlimit:10;" d="M406.0099,298.6411
				c0,0-0.1995,1.1971,1.3967,1.696c0,0-0.906,0.7697-1.1971,0.9976c-0.2825,0.2211-0.3991,1.2969-0.3991,1.2969l2.9929-1.3967
				c0.7088-0.3012,1.515-0.2726,2.1966,0.0859c0.7038,0.3702,1.4085,0.9668,1.7939,0.9117
				c0.6983-0.0998,0.9976-0.6983,0.9976-0.6983l4.2898,0.0998c0,0,0.6983,1.696,1.2969,1.4965
				c0.5986-0.1996,0.399-1.2969,0.399-1.2969h2.3943c0,0,1.696,2.2946,1.8955,1.7957s0-1.8955,0-1.8955s3.2921,0,4.8883-1.8955
				c0,0-0.4988-0.6983-2.7933-1.0974c-1.2928-0.2248-6.1853-0.7981-6.1853-0.7981s-1.3967-1.8955-1.8955-1.696
				s-0.7981,1.7957-0.7981,1.7957s-6.4846,1.3967-7.4822,1.3967S406.0099,298.6411,406.0099,298.6411z"/>
		</g>
		<g id="netz_1_">
			<g id="netz">
				<path style="fill:none;stroke:#000000;stroke-width:0.7;stroke-miterlimit:10;" d="M287.545,331.5072
					c0,0,6.423-3.9561,14.0086-6.8261c7.5855-2.8699,13.5317-2.2547,26.0378-3.075c12.5063-0.8203,21.1185-0.4102,31.575,1.0242
					c10.4567,1.4344,36.2896,0.4102,49.0008,0c12.7114-0.4102,19.2727-5.5348,20.2981-8.168
					c1.0254-2.6331-5.5359-6.5929-4.9207-9.6691s2.0496-4.5106-2.8699-8.2008c-4.9195-3.6902-2.4609-3.8953-3.2156-7.1754
					c-0.7547-3.2801,2.3941-12.9163-0.886-15.1722c-3.2801-2.2559-10.4567-3.4864-14.352-2.666
					c-3.8952,0.8203-2.8699-0.6153-6.3551-3.6902c-3.485-3.075-15.171-8.4047-22.3476-11.4809
					c-7.1766-3.0761-29.1152-11.073-35.2652-17.0179c-6.15-5.9449-20.7071-17.4258-27.0632-24.1922
					c-6.3563-6.7663-17.6321-25.834-17.6321-25.834"/>
				<g>
					<path style="fill:none;stroke:#000000;stroke-width:0.4;stroke-miterlimit:10;" d="M277.7704,204.1256
						c0,0,14.148,26.6531,21.3234,30.9586l16.1508,15.0645c0,0,11.3027,7.7636,13.9992,9
						c2.6965,1.2364,23.0659,11.3549,26.1866,12.5234c3.1207,1.1683,14.4502,6.1202,18.7886,7.8147
						c4.3382,1.6945,9.6982,4.7365,14.4655,6.4846c4.9881,1.8289,10.403,3.543,14.3815,3.5605
						c3.9786,0.0176,14.393-0.1148,14.393-0.1148"/>
					<path style="fill:none;stroke:#000000;stroke-width:0.4;stroke-miterlimit:10;" d="M273.4649,217.6572
						c0.2051,0.6152,7.5492,11.6871,10.0277,15.7876s2.7575,7.3805,6.4113,11.2758c3.6539,3.8953,8.9437,10.4566,10.1941,10.6616"/>
					<path style="fill:none;stroke:#000000;stroke-width:0.4;stroke-miterlimit:10;" d="M269.5696,230.7787
						c0,0,6.5309,12.9691,9.8262,18.1711c3.2952,5.2019,7.4695,11.9671,10.5081,13.4027c3.0387,1.4355,3.0399,2.6648,4.2691,4.7156
						c1.2293,2.0508,5.925,5.1258,5.925,5.1258s8.1469,5.7563,12.7465,7.7555c4.5996,1.9992,22.3417,8.6086,27.1641,10.9992
						c4.8223,2.3907,11.4656,6.4008,18.0504,7.4004c6.5848,0.9996,20.9848,6.1992,24.7852,8.1996
						c3.8004,2.0004,18.6012,3.4008,23.0004,4.4004s9,0.2004,12.9996,0c3.9996-0.2004,7.3277-1.139,7.3277-1.139"/>
					<path style="fill:none;stroke:#000000;stroke-width:0.4;stroke-miterlimit:10;" d="M260.6645,291.6822
						c-0.0187,0.5943,5.8289,8.3965,12.8004,11.8817c6.9714,3.4852,10.2293,3.2789,13.316,5.5348
						c3.0866,2.2559,9.5344,2.666,9.5344,2.666s3.3644-0.9914,7.2856-5.3813c3.921-4.3898,7.2151-4.6089,9.8484-10.5352
						c2.6331-5.9262,0.9012-6.1453,6.9258-13.8281c6.0246-7.6829,7.1226-5.5677,9.5367-14.7469
						c2.4142-9.1793,2.4152-7.6675,5.7071-14.3496c3.2918-6.6821,5.3472-11.4082,5.3472-11.4082"/>
					<path style="fill:none;stroke:#000000;stroke-width:0.4;stroke-miterlimit:10;" d="M258.9079,311.7647
						c0,0,6.1512,4.1016,11.4821,5.9461c5.3309,1.8445,13.4637,2.6648,16.0606,2.6648c2.5968,0,5.8769,0,5.8769,0"/>
					<path style="fill:none;stroke:#000000;stroke-width:0.4;stroke-miterlimit:10;" d="M265.8794,326.1166
						c0,0,4.7156-0.8202,7.5856,0c2.8699,0.8203,10.6394,0.2051,11.3683,0c0.7289-0.205,5.0707-1.2304,5.0707-1.2304"/>
					<path style="fill:none;stroke:#000000;stroke-width:0.4;stroke-miterlimit:10;" d="M292.3274,191.0041
						c0,0-1.7707,7.2645-2.4234,10.0465c-0.6528,2.782-2.9285,9.8413-5.0707,13.3265c-2.1422,3.4852-4.8082,9.6352-7.0628,15.3762
						s-2.461,5.536-5.5359,11.6872c-3.075,6.1511-4.8246,9.2297-6.6153,11.4832"/>
					<path style="fill:none;stroke:#000000;stroke-width:0.4;stroke-miterlimit:10;" d="M298.1458,212.9416
						c-0.0774,0.6152-5.2032,14.9672-9.7137,23.5782s-4.7157,12.9175-10.6617,20.5031c-5.9461,7.5855-12.3394,16.983-16.4398,22.519
						"/>
					<polyline style="fill:none;stroke:#000000;stroke-width:0.4;stroke-miterlimit:10;" points="300.7332,236.5198 
						305.7664,228.4619 308.1512,220.9995 310.4505,214.3771 					"/>
					<path style="fill:none;stroke:#000000;stroke-width:0.4;stroke-miterlimit:10;" d="M298.1458,216.3893
						c0,0,3.2354-3.4613,4.3551-4.5746c0.9175-0.9123,3.7688-3.5471,3.7688-3.5471"/>
					<path style="fill:none;stroke:#000000;stroke-width:0.4;stroke-miterlimit:10;" d="M300.7332,289.8271l7.4179-7.1496
						l5.0778-12.0714l3.9516-8.5605c0,0,4.3909-4.9852,4.8293-6.6634c0.4382-1.6781,2.1949-6.287,2.414-7.6043
						c0.2191-1.3171,2.1961-6.3656,2.6344-7.2433c0.4382-0.8778,0.225-0.9762,2.414-4.0148
						c2.1891-3.0386,2.1891-3.0386,2.1891-3.0386"/>
					<path style="fill:none;stroke:#000000;stroke-width:0.4;stroke-miterlimit:10;" d="M352.291,247.5377c0,0,0,0-1.5269,2.4352
						c-1.527,2.4352-2.1949,6.1453-5.0484,13.8282c-2.8536,7.6827-1.9758,7.4636-4.7497,15.5847
						c-2.7738,8.121-5.1281,6.8039-9.3047,10.4413c-4.1765,3.6376-8.7738,11.0695-14.0425,17.6544
						c-5.2687,6.5847-10.9746,7.0242-16.8035,10.0968c-5.829,3.0727-7.7801,2.7973-7.7801,2.7973l-2.1949,3.5683l2.3203,0.6868
						c0,0,6.2155-2.9134,7.6547-3.1172c1.439-0.2039,3.7827-1.5211,9.6352-4.5937c5.8523-3.0727,11.5594-3.5122,19.4612-9.4382
						c7.902-5.9262,10.3172-7.6817,15.804-15.3646c5.4866-7.6828,7.9019-6.15,10.0968-15.4769
						c2.1949-9.327,2.1949-14.3754,3.7313-17.8875c1.5363-3.5121,2.7984-6.8907,2.7984-6.8907"/>
					<path style="fill:none;stroke:#000000;stroke-width:0.4;stroke-miterlimit:10;" d="M369.7121,254.842l-0.9492,10.9946
						c0,0-1.977,8.7199-1.7567,9.3785s-2.414,11.4081-2.414,11.4081l-7.6828,11.4199l-6.8039,7.902c0,0-7.0231,6.1512-7.902,5.8195
						c-0.8789-0.3317-9.8894,5.1563-10.5422,5.5945c-0.6527,0.4383-8.3354,3.0164-8.3354,3.0164l-5.6837,1.725"/>
					<path style="fill:none;stroke:#000000;stroke-width:0.4;stroke-miterlimit:10;" d="M376.8841,257.8748
						c0.4277,0.1898,1.0969,4.8305,1.5363,11.1949c0.4395,6.3644,0.6586,8.3929-1.5363,15.8297s-3.7313,12.4852-8.1211,17.5336
						c-4.3898,5.0485-6.1453,5.8593-12.9504,10.8317c-6.8051,4.9722-13.3898,7.111-13.3898,7.111l-2.414,0.8145"/>
					<path style="fill:none;stroke:#000000;stroke-width:0.4;stroke-miterlimit:10;" d="M387.1977,262.71
						c0,0,4.6125,16.2246,3.2953,23.9132c-1.3171,7.6887,1.0969,7.4683-6.1465,16.0289c-7.2433,8.5605-5.0484,9.7148-12.2917,13.418
						c-7.2434,3.7031-15.8122,6.1828-15.8122,6.1828"/>
					<path style="fill:none;stroke:#000000;stroke-width:0.4;stroke-miterlimit:10;" d="M399.1052,271.3807
						c0,0,3.6797,5.8102,3.6797,10.8586s1.7555,5.4878-3.5121,15.1453c-5.2675,9.6573-7.9031,16.6827-12.7313,19.9746
						c-4.8281,3.2918-11.8535,6.0047-11.8535,6.0047"/>
					<path style="fill:none;stroke:#000000;stroke-width:0.4;stroke-miterlimit:10;" d="M409.3367,271.7076
						c0,0,3.7653,4.8293,3.3258,12.0703s2.0168,11.6309-1.4063,18.8742c-3.423,7.2434-3.3,11.6345-8.1902,14.7071
						c-4.8901,3.0726-10.1519,5.7516-10.1519,5.7516"/>
					<path style="fill:none;stroke:#000000;stroke-width:0.4;stroke-miterlimit:10;" d="M294.882,250.2905l5.8512,5.0917
						c0,0,10.3126,6.7746,12.7114,8.1668s15.7992,10.6008,21.1992,12.2004c5.4,1.5996,22.1965,9.2004,27.6984,11.4
						c5.502,2.1996,16.302,7.2,23.502,8.7996c7.2,1.5996,15.2004,3.4675,19.8,4.3336c4.5996,0.8661,18.3703,0,18.3703,0"/>
					<path style="fill:none;stroke:#000000;stroke-width:0.4;stroke-miterlimit:10;" d="M298.6651,283.7139l1.433,1.1856
						c0,0,23.2336,14.9824,23.3461,14.8301c0.1124-0.1524,10.5996,2.8183,15,3.8191s22.5996,6.8016,25.8,7.0008
						c3.2004,0.1992,12.5988,3.4266,17.1996,3.9128c4.6008,0.4864,20.6016,3.088,25.0008,3.8872c4.3992,0.7992,9.8004,1.6008,12,0
						c2.1996-1.6008,10.0207-3.8872,10.0207-3.8872"/>
					<polyline style="fill:none;stroke:#000000;stroke-width:0.4;stroke-miterlimit:10;" points="296.3153,310.5494 
						321.8446,316.0702 336.4438,316.0702 362.3422,321.5135 364.0438,322.2529 366.2446,323.3639 					"/>
					<path style="fill:none;stroke:#000000;stroke-width:0.4;stroke-miterlimit:10;" d="M298.1458,300.667l12.3047,6.6821
						c0,0,11.1937,2.1996,11.7937,2.1996c0.6,0,28.2317,4.9136,28.2317,4.9136s3.059,0.174,7.5832,1.6079
						c13.738,4.3539,20.882,6.0151,27.7988,7.2122"/>
					<polyline style="fill:none;stroke:#000000;stroke-width:0.4;stroke-miterlimit:10;" points="290.8403,320.3756 
						300.0981,319.274 311.4617,321.1901 317.2214,322.2183 					"/>
					<path style="fill:none;stroke:#000000;stroke-width:0.4;stroke-miterlimit:10;" d="M396.2446,275.7495
						c2.7996,1.2,12.3902,4.3898,14.4,4.9992c2.0098,0.6093,7.4698-0.098,7.4698-0.098"/>
					<path style="fill:none;stroke:#000000;stroke-width:0.4;stroke-miterlimit:10;" d="M383.0446,268.5494"/>
					<path style="fill:none;stroke:#000000;stroke-width:0.4;stroke-miterlimit:10;" d="M283.4926,193.874
						c0,0,9.8391,17.6332,12.8227,20.5031c0,0,13.7636,12.9715,15.1464,14.1715c1.3829,1.2,6.4442,8.4012,8.9134,10.0008
						c2.4691,1.5996,9.9246,9.2414,13.2691,10.4004c3.3445,1.159,14.4012,5.4656,17.0004,6.4324
						c2.5992,0.9668,16.1356,5.0883,19.0675,7.3278"/>
					<path style="fill:none;stroke:#000000;stroke-width:0.4;stroke-miterlimit:10;" d="M383.0446,268.5494
						c1.3992,0.6,10.4004,6,13.2,7.2"/>
				</g>
			</g>
			<g id="gest&#xE4;nge">
				<path style="stroke:#000000;stroke-width:0.7;stroke-miterlimit:10;" d="M300.0981,211.9139
					c-3.6738-17.0168-6.1347-23.5781-6.75-31.7789c-0.6152-8.2008-6.8976-9.6364-6.8976-9.6364l-1.3032,6.9398
					c0,0-2.0508,8.0274-6.1512,18.2789c-4.1003,10.2516-13.1202,34.854-15.9913,45.9258
					c-2.8711,11.0719-8.1996,36.9035-7.7906,49.411c0.409,12.5075,0.8203,25.8351,4.7156,31.9851s7.3793,12.0961,15.1711,12.3012
					c7.7917,0.2051,15.7874-3.0762,20.298-15.7876s8.2008-33.0081,8.2008-48.5906
					C303.5997,255.3799,303.7719,228.9307,300.0981,211.9139z M297.3009,295.3608c-1.3782,11.482-3.1325,19.2714-8.6685,28.4976
					c-5.5359,9.2262-10.6606,7.9969-16.6055,6.3563c-5.9449-1.6407-7.7917-9.6364-10.2527-16.95
					c-2.461-7.3136-0.6152-33.2813,0-39.6375c0.6152-6.3562,6.5614-34.0336,8.2008-39.5695s18.6573-56.6191,18.6573-56.6191
					s1.0254,4.1321,1.2715,8.8477c0.2461,4.7155,3.6492,16.8116,4.4695,21.7324c0.8203,4.9207,3.4851,31.9839,4.1004,41.8254
					C299.0891,259.6854,298.679,283.8787,297.3009,295.3608z"/>
				
					<rect x="250.8045" y="113.7373" transform="matrix(0.1517 -0.9884 0.9884 0.1517 135.9935 393.6061)" style="fill:#B5B4AF;stroke:#000000;stroke-width:0.7;stroke-miterlimit:10;" width="92.9939" height="7.679"/>
				<path style="stroke:#000000;stroke-width:0.7;stroke-miterlimit:10;" d="M311.3107,58.2318
					c0.1171-0.621,0.2378-1.2421,0.3574-1.8608c0.7676-3.9504,1.5703-7.9079,1.8856-11.9262c0.2203-2.8254,0.8824-7.2832-2.7691-8.1
					c-1.1262-0.252-2.284-0.3598-3.4372-0.313c-1.6335,0.068-2.1281,1.6548-2.5488,2.9555
					c-1.3254,4.1028-2.4516,8.3063-3.1325,12.5672c-0.2308,1.439-0.4113,2.8886-0.5238,4.3429
					c-0.5262,6.791-2.4421,15.0821-1.3816,21.7148c2.625-1.9805,5.3226,0.3047,7.6793,1.827
					C309.7871,72.9108,310.0731,64.8014,311.3107,58.2318z"/>
				<path style="stroke:#000000;stroke-width:0.7;stroke-miterlimit:10;" d="M287.0434,157.349
					c-1.6161,5.0602-3.9374,9.9832-3.4957,15.4957c0.9539,0.4254,1.7473,0.7277,2.809,0.7933
					c0.2778,0.975,0.1394,1.3664,0.675,2.2535c2.338,0.3434,4.2703,2.7164,6.7606,0.8192c2.3684-1.8036,1.125-6.0587,1.2152-7.7977
					c0.1008-1.916,2.1282-7.0313,0.9293-8.5945c-1.7508-2.2828-6.1371-1.4695-8.1891-2.2898
					c-0.116,1.3043-0.6598,2.3179-0.7043,3.5203"/>
				<path style="fill:none;stroke:#000000;stroke-width:0.4;stroke-miterlimit:10;" d="M302.5485,265.8354
					c0.1453,0.1606,6.511-10.4532,6.511-10.4532l2.6332-8.6108l1.9758-8.2126l2.414-7.7801l4.2926-7.0008"/>
			</g>
		</g>
		<g>
			<path style="fill:#F4F2DD;" d="M414.7889,325.2444c0,0-0.1995,1.1972,1.3967,1.696c0,0-0.906,0.7697-1.1971,0.9976
				c-0.2825,0.221-0.3991,1.2969-0.3991,1.2969l2.9929-1.3967c0.7088-0.3012,1.515-0.2726,2.1966,0.0859
				c0.7038,0.3702,1.4085,0.9668,1.7939,0.9117c0.6983-0.0998,0.9976-0.6983,0.9976-0.6983l4.2898,0.0998
				c0,0,0.6983,1.696,1.2969,1.4964s0.399-1.2969,0.399-1.2969h2.3943c0,0,1.696,2.2945,1.8955,1.7957s0-1.8955,0-1.8955
				s3.2921,0,4.8883-1.8955c0,0-0.4988-0.6984-2.7933-1.0974c-1.2928-0.2248-6.1853-0.7981-6.1853-0.7981
				s-1.3967-1.8955-1.8955-1.696s-0.7981,1.7957-0.7981,1.7957s-6.4846,1.3967-7.4822,1.3967S414.7889,325.2444,414.7889,325.2444z"
				/>
			<path style="fill:#889FA2;" d="M414.7889,325.2444c0,0-0.1995,1.1972,1.3967,1.696c0,0-0.906,0.7697-1.1971,0.9976
				c-0.2825,0.221-0.3991,1.2969-0.3991,1.2969l2.9929-1.3967c0.141-0.0599,0.6939-0.9617,1.9287-0.9644
				c2.4007-0.0051,5.7197-0.266,10.2422-0.133c3.8656,0.1137,7.3198,0.4859,7.981-0.2993c0,0-0.4988-0.6984-2.7933-1.0974
				c-1.2928-0.2248-6.1853-0.7981-6.1853-0.7981l-2.6936,0.0998c0,0-6.4846,1.3967-7.4822,1.3967
				S414.7889,325.2444,414.7889,325.2444z"/>
			<path style="fill:none;stroke:#000000;stroke-width:0.7;stroke-miterlimit:10;" d="M414.7889,325.2444
				c0,0-0.1995,1.1972,1.3967,1.696c0,0-0.906,0.7697-1.1971,0.9976c-0.2825,0.221-0.3991,1.2969-0.3991,1.2969l2.9929-1.3967
				c0.7088-0.3012,1.515-0.2726,2.1966,0.0859c0.7038,0.3702,1.4085,0.9668,1.7939,0.9117
				c0.6983-0.0998,0.9976-0.6983,0.9976-0.6983l4.2898,0.0998c0,0,0.6983,1.696,1.2969,1.4964s0.399-1.2969,0.399-1.2969h2.3943
				c0,0,1.696,2.2945,1.8955,1.7957s0-1.8955,0-1.8955s3.2921,0,4.8883-1.8955c0,0-0.4988-0.6984-2.7933-1.0974
				c-1.2928-0.2248-6.1853-0.7981-6.1853-0.7981s-1.3967-1.8955-1.8955-1.696s-0.7981,1.7957-0.7981,1.7957
				s-6.4846,1.3967-7.4822,1.3967S414.7889,325.2444,414.7889,325.2444z"/>
		</g>
		<g>
			<path style="fill:#F4F2DD;" d="M428.2236,293.5865c0,0-0.1995,1.1971,1.3967,1.696c0,0-0.906,0.7697-1.1972,0.9976
				c-0.2824,0.2211-0.399,1.2969-0.399,1.2969l2.9929-1.3967c0.7087-0.3012,1.515-0.2726,2.1966,0.0859
				c0.7038,0.3702,1.4085,0.9668,1.7939,0.9117c0.6983-0.0998,0.9976-0.6983,0.9976-0.6983l4.2898,0.0998
				c0,0,0.6983,1.696,1.2969,1.4965s0.399-1.2969,0.399-1.2969h2.3943c0,0,1.696,2.2946,1.8955,1.7957s0-1.8955,0-1.8955
				s3.2922,0,4.8884-1.8955c0,0-0.4988-0.6983-2.7933-1.0974c-1.2928-0.2248-6.1853-0.7981-6.1853-0.7981
				s-1.3967-1.8955-1.8955-1.696s-0.7981,1.7957-0.7981,1.7957s-6.4846,1.3967-7.4822,1.3967S428.2236,293.5865,428.2236,293.5865z"
				/>
			<path style="fill:#889FA2;" d="M428.2236,293.5865c0,0-0.1995,1.1971,1.3967,1.696c0,0-0.906,0.7697-1.1972,0.9976
				c-0.2824,0.2211-0.399,1.2969-0.399,1.2969l2.9929-1.3967c0.141-0.0599,0.6939-0.9617,1.9287-0.9644
				c2.4007-0.0052,5.7197-0.266,10.2422-0.133c3.8656,0.1137,7.3198,0.4859,7.981-0.2993c0,0-0.4988-0.6983-2.7933-1.0974
				c-1.2928-0.2248-6.1853-0.7981-6.1853-0.7981l-2.6936,0.0998c0,0-6.4846,1.3967-7.4822,1.3967
				S428.2236,293.5865,428.2236,293.5865z"/>
			<path style="fill:none;stroke:#000000;stroke-width:0.7;stroke-miterlimit:10;" d="M428.2236,293.5865
				c0,0-0.1995,1.1971,1.3967,1.696c0,0-0.906,0.7697-1.1972,0.9976c-0.2824,0.2211-0.399,1.2969-0.399,1.2969l2.9929-1.3967
				c0.7087-0.3012,1.515-0.2726,2.1966,0.0859c0.7038,0.3702,1.4085,0.9668,1.7939,0.9117
				c0.6983-0.0998,0.9976-0.6983,0.9976-0.6983l4.2898,0.0998c0,0,0.6983,1.696,1.2969,1.4965s0.399-1.2969,0.399-1.2969h2.3943
				c0,0,1.696,2.2946,1.8955,1.7957s0-1.8955,0-1.8955s3.2922,0,4.8884-1.8955c0,0-0.4988-0.6983-2.7933-1.0974
				c-1.2928-0.2248-6.1853-0.7981-6.1853-0.7981s-1.3967-1.8955-1.8955-1.696s-0.7981,1.7957-0.7981,1.7957
				s-6.4846,1.3967-7.4822,1.3967S428.2236,293.5865,428.2236,293.5865z"/>
		</g>
		<g>
			<path style="fill:#F4F2DD;" d="M453.6298,282.9452c0,0-0.1995,1.1971,1.3967,1.696c0,0-0.906,0.7697-1.1971,0.9976
				c-0.2825,0.221-0.399,1.2969-0.399,1.2969l2.9929-1.3967c0.7088-0.3012,1.515-0.2726,2.1966,0.0859
				c0.7038,0.3702,1.4084,0.9668,1.7939,0.9117c0.6983-0.0998,0.9976-0.6983,0.9976-0.6983l4.2898,0.0998
				c0,0,0.6983,1.696,1.2969,1.4964s0.399-1.2969,0.399-1.2969h2.3943c0,0,1.696,2.2945,1.8955,1.7957s0-1.8955,0-1.8955
				s3.2921,0,4.8883-1.8955c0,0-0.4988-0.6983-2.7933-1.0974c-1.2928-0.2249-6.1853-0.7981-6.1853-0.7981
				s-1.3967-1.8955-1.8955-1.696s-0.7981,1.7957-0.7981,1.7957s-6.4846,1.3967-7.4822,1.3967S453.6298,282.9452,453.6298,282.9452z"
				/>
			<path style="fill:#889FA2;" d="M453.6298,282.9452c0,0-0.1995,1.1971,1.3967,1.696c0,0-0.906,0.7697-1.1971,0.9976
				c-0.2825,0.221-0.399,1.2969-0.399,1.2969l2.9929-1.3967c0.141-0.0599,0.6939-0.9617,1.9287-0.9644
				c2.4007-0.0051,5.7197-0.266,10.2422-0.133c3.8656,0.1137,7.3198,0.4859,7.981-0.2993c0,0-0.4988-0.6983-2.7933-1.0974
				c-1.2928-0.2249-6.1853-0.7981-6.1853-0.7981l-2.6936,0.0998c0,0-6.4846,1.3967-7.4822,1.3967
				S453.6298,282.9452,453.6298,282.9452z"/>
			<path style="fill:none;stroke:#000000;stroke-width:0.7;stroke-miterlimit:10;" d="M453.6298,282.9452
				c0,0-0.1995,1.1971,1.3967,1.696c0,0-0.906,0.7697-1.1971,0.9976c-0.2825,0.221-0.399,1.2969-0.399,1.2969l2.9929-1.3967
				c0.7088-0.3012,1.515-0.2726,2.1966,0.0859c0.7038,0.3702,1.4084,0.9668,1.7939,0.9117
				c0.6983-0.0998,0.9976-0.6983,0.9976-0.6983l4.2898,0.0998c0,0,0.6983,1.696,1.2969,1.4964s0.399-1.2969,0.399-1.2969h2.3943
				c0,0,1.696,2.2945,1.8955,1.7957s0-1.8955,0-1.8955s3.2921,0,4.8883-1.8955c0,0-0.4988-0.6983-2.7933-1.0974
				c-1.2928-0.2249-6.1853-0.7981-6.1853-0.7981s-1.3967-1.8955-1.8955-1.696s-0.7981,1.7957-0.7981,1.7957
				s-6.4846,1.3967-7.4822,1.3967S453.6298,282.9452,453.6298,282.9452z"/>
		</g>
		<g>
			<path style="fill:#F4F2DD;" d="M416.9172,252.2184c0,0-0.1995,1.1971,1.3967,1.696c0,0-0.906,0.7697-1.1972,0.9976
				c-0.2824,0.221-0.399,1.2969-0.399,1.2969l2.9929-1.3967c0.7087-0.3012,1.515-0.2726,2.1966,0.0859
				c0.7038,0.3702,1.4085,0.9668,1.7939,0.9117c0.6983-0.0998,0.9976-0.6983,0.9976-0.6983l4.2898,0.0998
				c0,0,0.6983,1.696,1.2969,1.4964s0.399-1.2969,0.399-1.2969h2.3943c0,0,1.696,2.2945,1.8955,1.7957s0-1.8955,0-1.8955
				s3.2922,0,4.8884-1.8955c0,0-0.4988-0.6983-2.7933-1.0974c-1.2928-0.2248-6.1853-0.7981-6.1853-0.7981
				s-1.3967-1.8955-1.8955-1.696c-0.4988,0.1995-0.7981,1.7957-0.7981,1.7957s-6.4846,1.3967-7.4822,1.3967
				S416.9172,252.2184,416.9172,252.2184z"/>
			<path style="fill:#889FA2;" d="M416.9172,252.2184c0,0-0.1995,1.1971,1.3967,1.696c0,0-0.906,0.7697-1.1972,0.9976
				c-0.2824,0.221-0.399,1.2969-0.399,1.2969l2.9929-1.3967c0.141-0.0599,0.6939-0.9617,1.9287-0.9644
				c2.4007-0.0052,5.7197-0.266,10.2422-0.133c3.8656,0.1137,7.3198,0.4859,7.981-0.2993c0,0-0.4988-0.6983-2.7933-1.0974
				c-1.2928-0.2248-6.1853-0.7981-6.1853-0.7981l-2.6936,0.0998c0,0-6.4846,1.3967-7.4822,1.3967
				S416.9172,252.2184,416.9172,252.2184z"/>
			<path style="fill:none;stroke:#000000;stroke-width:0.7;stroke-miterlimit:10;" d="M416.9172,252.2184
				c0,0-0.1995,1.1971,1.3967,1.696c0,0-0.906,0.7697-1.1972,0.9976c-0.2824,0.221-0.399,1.2969-0.399,1.2969l2.9929-1.3967
				c0.7087-0.3012,1.515-0.2726,2.1966,0.0859c0.7038,0.3702,1.4085,0.9668,1.7939,0.9117
				c0.6983-0.0998,0.9976-0.6983,0.9976-0.6983l4.2898,0.0998c0,0,0.6983,1.696,1.2969,1.4964s0.399-1.2969,0.399-1.2969h2.3943
				c0,0,1.696,2.2945,1.8955,1.7957s0-1.8955,0-1.8955s3.2922,0,4.8884-1.8955c0,0-0.4988-0.6983-2.7933-1.0974
				c-1.2928-0.2248-6.1853-0.7981-6.1853-0.7981s-1.3967-1.8955-1.8955-1.696c-0.4988,0.1995-0.7981,1.7957-0.7981,1.7957
				s-6.4846,1.3967-7.4822,1.3967S416.9172,252.2184,416.9172,252.2184z"/>
		</g>
		<g>
			<path style="fill:#F4F2DD;" d="M357.0598,243.6388c0,0-0.1995,1.1971,1.3967,1.696c0,0-0.906,0.7697-1.1971,0.9976
				c-0.2825,0.221-0.399,1.2969-0.399,1.2969l2.9929-1.3967c0.7088-0.3012,1.515-0.2726,2.1966,0.0859
				c0.7038,0.3702,1.4084,0.9668,1.7939,0.9117c0.6983-0.0998,0.9976-0.6983,0.9976-0.6983l4.2898,0.0998
				c0,0,0.6983,1.696,1.2969,1.4964s0.399-1.2969,0.399-1.2969h2.3943c0,0,1.696,2.2945,1.8955,1.7957s0-1.8955,0-1.8955
				s3.2921,0,4.8883-1.8955c0,0-0.4988-0.6983-2.7933-1.0974c-1.2928-0.2248-6.1853-0.7981-6.1853-0.7981
				s-1.3967-1.8955-1.8955-1.696c-0.4988,0.1995-0.7981,1.7957-0.7981,1.7957s-6.4846,1.3967-7.4822,1.3967
				S357.0598,243.6388,357.0598,243.6388z"/>
			<path style="fill:#889FA2;" d="M357.0598,243.6388c0,0-0.1995,1.1971,1.3967,1.696c0,0-0.906,0.7697-1.1971,0.9976
				c-0.2825,0.221-0.399,1.2969-0.399,1.2969l2.9929-1.3967c0.141-0.0599,0.6939-0.9617,1.9287-0.9644
				c2.4007-0.0052,5.7197-0.266,10.2422-0.133c3.8656,0.1137,7.3198,0.4859,7.981-0.2993c0,0-0.4988-0.6983-2.7933-1.0974
				c-1.2928-0.2248-6.1853-0.7981-6.1853-0.7981l-2.6936,0.0998c0,0-6.4846,1.3967-7.4822,1.3967
				S357.0598,243.6388,357.0598,243.6388z"/>
			<path style="fill:none;stroke:#000000;stroke-width:0.7;stroke-miterlimit:10;" d="M357.0598,243.6388
				c0,0-0.1995,1.1971,1.3967,1.696c0,0-0.906,0.7697-1.1971,0.9976c-0.2825,0.221-0.399,1.2969-0.399,1.2969l2.9929-1.3967
				c0.7088-0.3012,1.515-0.2726,2.1966,0.0859c0.7038,0.3702,1.4084,0.9668,1.7939,0.9117
				c0.6983-0.0998,0.9976-0.6983,0.9976-0.6983l4.2898,0.0998c0,0,0.6983,1.696,1.2969,1.4964s0.399-1.2969,0.399-1.2969h2.3943
				c0,0,1.696,2.2945,1.8955,1.7957s0-1.8955,0-1.8955s3.2921,0,4.8883-1.8955c0,0-0.4988-0.6983-2.7933-1.0974
				c-1.2928-0.2248-6.1853-0.7981-6.1853-0.7981s-1.3967-1.8955-1.8955-1.696c-0.4988,0.1995-0.7981,1.7957-0.7981,1.7957
				s-6.4846,1.3967-7.4822,1.3967S357.0598,243.6388,357.0598,243.6388z"/>
		</g>
		<g>
			<path style="fill:#F4F2DD;" d="M336.276,255.0117c0,0-0.1996,1.1971,1.3967,1.696c0,0-0.906,0.7697-1.1971,0.9976
				c-0.2825,0.221-0.3991,1.2969-0.3991,1.2969l2.9929-1.3967c0.7088-0.3012,1.515-0.2726,2.1966,0.0859
				c0.7038,0.3702,1.4084,0.9668,1.7939,0.9117c0.6983-0.0998,0.9976-0.6983,0.9976-0.6983l4.2898,0.0998
				c0,0,0.6983,1.696,1.2969,1.4964s0.399-1.2969,0.399-1.2969h2.3943c0,0,1.696,2.2945,1.8955,1.7957s0-1.8955,0-1.8955
				s3.2921,0,4.8883-1.8955c0,0-0.4988-0.6983-2.7933-1.0974c-1.2928-0.2248-6.1853-0.7981-6.1853-0.7981
				s-1.3967-1.8955-1.8955-1.696s-0.7981,1.7957-0.7981,1.7957s-6.4846,1.3967-7.4822,1.3967S336.276,255.0117,336.276,255.0117z"/>
			<path style="fill:#889FA2;" d="M336.276,255.0117c0,0-0.1996,1.1971,1.3967,1.696c0,0-0.906,0.7697-1.1971,0.9976
				c-0.2825,0.221-0.3991,1.2969-0.3991,1.2969l2.9929-1.3967c0.141-0.0599,0.6939-0.9617,1.9287-0.9644
				c2.4007-0.0052,5.7197-0.266,10.2422-0.133c3.8656,0.1137,7.3198,0.4859,7.981-0.2993c0,0-0.4988-0.6983-2.7933-1.0974
				c-1.2928-0.2248-6.1853-0.7981-6.1853-0.7981l-2.6936,0.0998c0,0-6.4846,1.3967-7.4822,1.3967S336.276,255.0117,336.276,255.0117
				z"/>
			<path style="fill:none;stroke:#000000;stroke-width:0.7;stroke-miterlimit:10;" d="M336.276,255.0117
				c0,0-0.1996,1.1971,1.3967,1.696c0,0-0.906,0.7697-1.1971,0.9976c-0.2825,0.221-0.3991,1.2969-0.3991,1.2969l2.9929-1.3967
				c0.7088-0.3012,1.515-0.2726,2.1966,0.0859c0.7038,0.3702,1.4084,0.9668,1.7939,0.9117
				c0.6983-0.0998,0.9976-0.6983,0.9976-0.6983l4.2898,0.0998c0,0,0.6983,1.696,1.2969,1.4964s0.399-1.2969,0.399-1.2969h2.3943
				c0,0,1.696,2.2945,1.8955,1.7957s0-1.8955,0-1.8955s3.2921,0,4.8883-1.8955c0,0-0.4988-0.6983-2.7933-1.0974
				c-1.2928-0.2248-6.1853-0.7981-6.1853-0.7981s-1.3967-1.8955-1.8955-1.696s-0.7981,1.7957-0.7981,1.7957
				s-6.4846,1.3967-7.4822,1.3967S336.276,255.0117,336.276,255.0117z"/>
		</g>
		<g>
			<path style="fill:#F4F2DD;" d="M249.3165,246.1329c0,0-0.1995,1.1971,1.3967,1.696c0,0-0.906,0.7697-1.1971,0.9976
				c-0.2825,0.2211-0.3991,1.2969-0.3991,1.2969l2.9929-1.3967c0.7088-0.3012,1.515-0.2726,2.1966,0.0859
				c0.7038,0.3702,1.4085,0.9668,1.7939,0.9117c0.6983-0.0998,0.9976-0.6983,0.9976-0.6983l4.2898,0.0998
				c0,0,0.6983,1.696,1.2969,1.4964s0.399-1.2969,0.399-1.2969h2.3943c0,0,1.696,2.2945,1.8955,1.7957s0-1.8955,0-1.8955
				s3.2922,0,4.8884-1.8955c0,0-0.4988-0.6983-2.7933-1.0974c-1.2928-0.2248-6.1853-0.7981-6.1853-0.7981
				s-1.3967-1.8955-1.8955-1.696s-0.7981,1.7957-0.7981,1.7957s-6.4846,1.3967-7.4822,1.3967
				C252.1099,246.931,249.3165,246.1329,249.3165,246.1329z"/>
			<path style="fill:#889FA2;" d="M249.3165,246.1329c0,0-0.1995,1.1971,1.3967,1.696c0,0-0.906,0.7697-1.1971,0.9976
				c-0.2825,0.2211-0.3991,1.2969-0.3991,1.2969l2.9929-1.3967c0.141-0.0599,0.6939-0.9617,1.9287-0.9644
				c2.4007-0.0051,5.7197-0.266,10.2423-0.133c3.8656,0.1137,7.3198,0.4859,7.981-0.2993c0,0-0.4988-0.6983-2.7933-1.0974
				c-1.2928-0.2248-6.1853-0.7981-6.1853-0.7981l-2.6936,0.0998c0,0-6.4846,1.3967-7.4822,1.3967
				C252.1099,246.931,249.3165,246.1329,249.3165,246.1329z"/>
			<path style="fill:none;stroke:#000000;stroke-width:0.7;stroke-miterlimit:10;" d="M249.3165,246.1329
				c0,0-0.1995,1.1971,1.3967,1.696c0,0-0.906,0.7697-1.1971,0.9976c-0.2825,0.2211-0.3991,1.2969-0.3991,1.2969l2.9929-1.3967
				c0.7088-0.3012,1.515-0.2726,2.1966,0.0859c0.7038,0.3702,1.4085,0.9668,1.7939,0.9117
				c0.6983-0.0998,0.9976-0.6983,0.9976-0.6983l4.2898,0.0998c0,0,0.6983,1.696,1.2969,1.4964s0.399-1.2969,0.399-1.2969h2.3943
				c0,0,1.696,2.2945,1.8955,1.7957s0-1.8955,0-1.8955s3.2922,0,4.8884-1.8955c0,0-0.4988-0.6983-2.7933-1.0974
				c-1.2928-0.2248-6.1853-0.7981-6.1853-0.7981s-1.3967-1.8955-1.8955-1.696s-0.7981,1.7957-0.7981,1.7957
				s-6.4846,1.3967-7.4822,1.3967C252.1099,246.931,249.3165,246.1329,249.3165,246.1329z"/>
		</g>
		<g>
			<path style="fill:#F4F2DD;" d="M219.5874,257.5058c0,0-0.1995,1.1971,1.3967,1.696c0,0-0.906,0.7697-1.1971,0.9976
				c-0.2825,0.221-0.399,1.2969-0.399,1.2969l2.9929-1.3967c0.7088-0.3012,1.515-0.2726,2.1966,0.0859
				c0.7038,0.3702,1.4084,0.9668,1.7939,0.9117c0.6983-0.0998,0.9976-0.6983,0.9976-0.6983l4.2898,0.0998
				c0,0,0.6983,1.696,1.2969,1.4964s0.399-1.2969,0.399-1.2969h2.3943c0,0,1.696,2.2945,1.8955,1.7957s0-1.8955,0-1.8955
				s3.2922,0,4.8884-1.8955c0,0-0.4988-0.6983-2.7934-1.0974c-1.2928-0.2249-6.1853-0.7981-6.1853-0.7981
				s-1.3967-1.8955-1.8955-1.696c-0.4988,0.1995-0.7981,1.7957-0.7981,1.7957s-6.4845,1.3967-7.4822,1.3967
				C222.3807,258.3039,219.5874,257.5058,219.5874,257.5058z"/>
			<path style="fill:#889FA2;" d="M219.5874,257.5058c0,0-0.1995,1.1971,1.3967,1.696c0,0-0.906,0.7697-1.1971,0.9976
				c-0.2825,0.221-0.399,1.2969-0.399,1.2969l2.9929-1.3967c0.141-0.0599,0.6939-0.9617,1.9287-0.9644
				c2.4007-0.0051,5.7197-0.266,10.2423-0.133c3.8656,0.1137,7.3198,0.4859,7.981-0.2993c0,0-0.4988-0.6983-2.7934-1.0974
				c-1.2928-0.2249-6.1853-0.7981-6.1853-0.7981l-2.6936,0.0998c0,0-6.4845,1.3967-7.4822,1.3967
				C222.3807,258.3039,219.5874,257.5058,219.5874,257.5058z"/>
			<path style="fill:none;stroke:#000000;stroke-width:0.7;stroke-miterlimit:10;" d="M219.5874,257.5058
				c0,0-0.1995,1.1971,1.3967,1.696c0,0-0.906,0.7697-1.1971,0.9976c-0.2825,0.221-0.399,1.2969-0.399,1.2969l2.9929-1.3967
				c0.7088-0.3012,1.515-0.2726,2.1966,0.0859c0.7038,0.3702,1.4084,0.9668,1.7939,0.9117
				c0.6983-0.0998,0.9976-0.6983,0.9976-0.6983l4.2898,0.0998c0,0,0.6983,1.696,1.2969,1.4964s0.399-1.2969,0.399-1.2969h2.3943
				c0,0,1.696,2.2945,1.8955,1.7957s0-1.8955,0-1.8955s3.2922,0,4.8884-1.8955c0,0-0.4988-0.6983-2.7934-1.0974
				c-1.2928-0.2249-6.1853-0.7981-6.1853-0.7981s-1.3967-1.8955-1.8955-1.696c-0.4988,0.1995-0.7981,1.7957-0.7981,1.7957
				s-6.4845,1.3967-7.4822,1.3967C222.3807,258.3039,219.5874,257.5058,219.5874,257.5058z"/>
		</g>
		<g>
			<path style="fill:#F4F2DD;" d="M397.9624,264.0901c0,0-0.1995,1.1972,1.3967,1.696c0,0-0.9059,0.7697-1.1971,0.9976
				c-0.2824,0.221-0.399,1.2969-0.399,1.2969l2.9929-1.3967c0.7087-0.3012,1.515-0.2726,2.1966,0.0859
				c0.7038,0.3702,1.4084,0.9668,1.7939,0.9117c0.6983-0.0998,0.9976-0.6983,0.9976-0.6983l4.2898,0.0998
				c0,0,0.6983,1.696,1.2969,1.4964s0.399-1.2969,0.399-1.2969h2.3943c0,0,1.696,2.2945,1.8955,1.7957s0-1.8955,0-1.8955
				s3.2922,0,4.8884-1.8955c0,0-0.4988-0.6984-2.7933-1.0974c-1.2928-0.2248-6.1853-0.7981-6.1853-0.7981
				s-1.3967-1.8955-1.8955-1.696s-0.7981,1.7957-0.7981,1.7957s-6.4846,1.3967-7.4822,1.3967S397.9624,264.0901,397.9624,264.0901z"
				/>
			<path style="fill:#889FA2;" d="M397.9624,264.0901c0,0-0.1995,1.1972,1.3967,1.696c0,0-0.9059,0.7697-1.1971,0.9976
				c-0.2824,0.221-0.399,1.2969-0.399,1.2969l2.9929-1.3967c0.141-0.0599,0.6939-0.9617,1.9287-0.9644
				c2.4007-0.0051,5.7197-0.266,10.2423-0.133c3.8656,0.1137,7.3198,0.4859,7.981-0.2993c0,0-0.4988-0.6984-2.7933-1.0974
				c-1.2928-0.2248-6.1853-0.7981-6.1853-0.7981l-2.6936,0.0998c0,0-6.4846,1.3967-7.4822,1.3967
				S397.9624,264.0901,397.9624,264.0901z"/>
			<path style="fill:none;stroke:#000000;stroke-width:0.7;stroke-miterlimit:10;" d="M397.9624,264.0901
				c0,0-0.1995,1.1972,1.3967,1.696c0,0-0.9059,0.7697-1.1971,0.9976c-0.2824,0.221-0.399,1.2969-0.399,1.2969l2.9929-1.3967
				c0.7087-0.3012,1.515-0.2726,2.1966,0.0859c0.7038,0.3702,1.4084,0.9668,1.7939,0.9117
				c0.6983-0.0998,0.9976-0.6983,0.9976-0.6983l4.2898,0.0998c0,0,0.6983,1.696,1.2969,1.4964s0.399-1.2969,0.399-1.2969h2.3943
				c0,0,1.696,2.2945,1.8955,1.7957s0-1.8955,0-1.8955s3.2922,0,4.8884-1.8955c0,0-0.4988-0.6984-2.7933-1.0974
				c-1.2928-0.2248-6.1853-0.7981-6.1853-0.7981s-1.3967-1.8955-1.8955-1.696s-0.7981,1.7957-0.7981,1.7957
				s-6.4846,1.3967-7.4822,1.3967S397.9624,264.0901,397.9624,264.0901z"/>
		</g>
		<g>
			<path style="fill:#F4F2DD;" d="M369.9628,262.2216c0,0-0.0069,1.2137,1.6483,1.4527c0,0-0.7722,0.9038-1.0235,1.175
				c-0.2438,0.2631-0.188,1.3438-0.188,1.3438l2.7331-1.8542c0.6519-0.4099,1.4525-0.5098,2.1824-0.264
				c0.7536,0.2538,1.5441,0.7309,1.9159,0.6153c0.6736-0.2094,0.8741-0.8479,0.8741-0.8479l4.2512-0.5827
				c0,0,0.9588,1.5636,1.5181,1.2715s0.188-1.3438,0.188-1.3438l2.3639-0.3802c0,0,2.0388,1.9961,2.1566,1.472
				c0.1178-0.5242-0.301-1.8714-0.301-1.8714s3.2504-0.5228,4.5253-2.6477c0,0-0.6034-0.6103-2.9322-0.6399
				c-1.3121-0.0167-6.2335,0.1942-6.2335,0.1942s-1.6799-1.6497-2.1407-1.3735c-0.4608,0.2762-0.5028,1.8997-0.5028,1.8997
				s-6.1805,2.4087-7.1655,2.5671S369.9628,262.2216,369.9628,262.2216z"/>
			<path style="fill:#889FA2;" d="M369.9628,262.2216c0,0-0.0069,1.2137,1.6483,1.4527c0,0-0.7722,0.9038-1.0235,1.175
				c-0.2438,0.2631-0.188,1.3438-0.188,1.3438l2.7331-1.8542c0.1297-0.0815,0.5324-1.0597,1.7511-1.2584
				c2.3694-0.3863,5.6049-1.1709,10.0912-1.7578c3.8346-0.5016,7.304-0.6826,7.8322-1.5628c0,0-0.6034-0.6103-2.9322-0.6399
				c-1.3121-0.0167-6.2335,0.1942-6.2335,0.1942l-2.6436,0.5262c0,0-6.1805,2.4087-7.1655,2.5671
				S369.9628,262.2216,369.9628,262.2216z"/>
			<path style="fill:none;stroke:#000000;stroke-width:0.7;stroke-miterlimit:10;" d="M369.9628,262.2216
				c0,0-0.0069,1.2137,1.6483,1.4527c0,0-0.7722,0.9038-1.0235,1.175c-0.2438,0.2631-0.188,1.3438-0.188,1.3438l2.7331-1.8542
				c0.6519-0.4099,1.4525-0.5098,2.1824-0.264c0.7536,0.2538,1.5441,0.7309,1.9159,0.6153
				c0.6736-0.2094,0.8741-0.8479,0.8741-0.8479l4.2512-0.5827c0,0,0.9588,1.5636,1.5181,1.2715s0.188-1.3438,0.188-1.3438
				l2.3639-0.3802c0,0,2.0388,1.9961,2.1566,1.472c0.1178-0.5242-0.301-1.8714-0.301-1.8714s3.2504-0.5228,4.5253-2.6477
				c0,0-0.6034-0.6103-2.9322-0.6399c-1.3121-0.0167-6.2335,0.1942-6.2335,0.1942s-1.6799-1.6497-2.1407-1.3735
				c-0.4608,0.2762-0.5028,1.8997-0.5028,1.8997s-6.1805,2.4087-7.1655,2.5671S369.9628,262.2216,369.9628,262.2216z"/>
		</g>
		<path style="fill:none;stroke:#000000;stroke-width:0.4;stroke-miterlimit:10;" d="M369.7099,262.71
			c2.9319,2.2394,11.9331,5.2394,13.3323,5.8394"/>
	</g>
</g>
</svg>
