<?xml version="1.0" encoding="iso-8859-1"?>
<!-- Generator: Adobe Illustrator 25.0.1, SVG Export Plug-In . SVG Version: 6.00 Build 0)  -->
<svg version="1.1" id="Assoziationen_x5F_Illustrationen"
	 xmlns="http://www.w3.org/2000/svg" xmlns:xlink="http://www.w3.org/1999/xlink" x="0px" y="0px" viewBox="0 0 618.6378 380.435"
	 style="enable-background:new 0 0 618.6378 380.435;" xml:space="preserve">
<g id="_x32__x5F_12_x5F_Risiken">
	<g>
		<g>
			<g>
				<path style="fill:#BD9D19;" d="M306.4141,236.8248l8.3387,0.0466c0.7055,0,0.4333,1.0733,0.4333,1.7593v6.3572
					c0,0.686-0.572,1.242-1.2775,1.242h-6.5601c-0.7055,0-1.2775-0.5561-1.2775-1.242v-6.3572
					C306.071,237.9447,305.7085,236.8248,306.4141,236.8248z"/>
				<rect x="306.071" y="228.4639" style="fill:#BD9D19;" width="9.1151" height="8.8413"/>
				<rect x="306.071" y="207.6481" style="fill:#BD9D19;" width="9.1151" height="20.8385"/>
				<polygon style="fill:#D5C157;" points="306.5755,174.5487 307.3491,173.9928 313.807,173.9601 314.6143,174.6141 
					315.2197,175.2682 315.1861,201.0112 306.071,201.0112 306.0037,175.2682 				"/>
				<rect x="306.071" y="200.739" style="fill:#C6B452;" width="9.1151" height="12.1594"/>
			</g>
		</g>
		<path style="fill:none;stroke:#000000;stroke-width:0.7;stroke-miterlimit:10;" d="M313.205,246.3018h-5.1816c-1.1,0-2-0.9-2-2
			V175.856c0-1.1,0.9-2,2-2h5.1816c1.1,0,2,0.9,2,2v68.4459C315.205,245.4018,314.305,246.3018,313.205,246.3018z"/>
	</g>
	<g>
		<g>
			<path style="fill:#FFE988;" d="M492.0176,238.3629c-15.5137-11.9385-18.4121-34.1934-6.4737-49.707
				c11.9385-15.5137,34.1934-18.4121,49.7071-6.4727c15.5136,11.9385,18.4121,34.1934,6.4736,49.7071
				C529.7861,247.4039,507.5312,250.3024,492.0176,238.3629z"/>
		</g>
		<g>
			<path style="fill:#D9C26E;" d="M513.6613,180.5312c6.3398-0.0005,12.7278,2.0156,18.1409,6.1812
				c13.0342,10.0303,15.4685,28.7275,5.4382,41.7607c-5.865,7.6221-14.6948,11.6201-23.6213,11.6201
				c-6.3399,0-12.7276-2.0156-18.1407-6.1812c-13.0342-10.0303-15.4688-28.7275-5.4382-41.7617
				C495.9051,184.5292,504.7347,180.5317,513.6613,180.5312 M513.6627,178.5312h-0.0017
				c-9.9549,0.0005-19.1421,4.52-25.2058,12.3994c-5.177,6.7271-7.4246,15.0679-6.3284,23.4854
				c1.0959,8.4175,5.4045,15.9043,12.1318,21.0811c5.6074,4.3154,12.302,6.5962,19.3604,6.5962
				c9.9548,0,19.1423-4.52,25.2063-12.4004c5.177-6.7271,7.4243-15.0669,6.3284-23.4844
				c-1.0962-8.4175-5.4045-15.9043-12.1318-21.0811C527.4144,180.812,520.7201,178.5312,513.6627,178.5312L513.6627,178.5312z"/>
		</g>
		<g>
			<g>
				<path style="fill:#FFFFFF;stroke:#000000;stroke-width:0.7;stroke-miterlimit:10;" d="M519.1141,209.3893L519.1141,209.3893
					c-1.1483,0-2.0879-0.9396-2.0879-2.0879v-7.2275c0-1.1484,0.9396-2.0879,2.0879-2.0879l0,0c1.1484,0,2.088,0.9396,2.088,2.0879
					v7.2275C521.2021,208.4498,520.2625,209.3893,519.1141,209.3893z"/>
				<path style="fill:#FFFFFF;stroke:#000000;stroke-width:0.7;stroke-miterlimit:10;" d="M506.8565,209.4261L506.8565,209.4261
					c-1.1484,0-2.088-0.9396-2.088-2.0879v-7.2275c0-1.1484,0.9396-2.0879,2.088-2.0879l0,0c1.1484,0,2.088,0.9396,2.088,2.0879
					v7.2275C508.9444,208.4866,508.0049,209.4261,506.8565,209.4261z"/>
			</g>
			<path style="fill:#FFFFFF;stroke:#000000;stroke-width:0.7;stroke-miterlimit:10;" d="M502.8701,218.26l2.8316-2.1804
				c5.213-4.0141,11.0754-4.1267,16.333-0.3135l3.4387,2.4939c0.5955,0,1.0828,0.8938,1.0828,1.9863v0
				c0,1.0925-0.4873,1.9863-1.0828,1.9863l-3.4387-2.4939c-5.2576-3.8131-11.12-3.7006-16.333,0.3135l-2.8316,2.1804
				c-0.5956,0-1.0828-0.8938-1.0828-1.9863v0C501.7873,219.1539,502.2746,218.26,502.8701,218.26z"/>
		</g>
		<g>
			<defs>
				<path id="SVGID_1_" d="M535.7411,181.1579c-6.6079-5.085-14.4055-7.5454-22.1448-7.5449
					c-10.897,0.0005-21.6761,4.8804-28.8357,14.1841c-12.2444,15.9111-9.272,38.7358,6.6389,50.98
					c6.6079,5.0854,14.405,7.5449,22.1443,7.5449c10.897,0,21.6765-4.8809,28.8362-14.1841
					C554.6245,216.2272,551.652,193.402,535.7411,181.1579z M538.5519,229.6105c-6.0415,7.8506-15.196,12.353-25.116,12.353
					c-7.0293,0-13.6978-2.272-19.2837-6.5703c-13.8352-10.6475-16.4292-30.5654-5.7822-44.4004
					c6.041-7.8501,15.1953-12.3525,25.116-12.3535h0.002c7.0281,0,13.6956,2.2725,19.282,6.5718
					c6.7021,5.1567,10.9944,12.6157,12.0864,21.002S543.7094,222.9083,538.5519,229.6105z"/>
			</defs>
			<clipPath id="SVGID_2_">
				<use xlink:href="#SVGID_1_"  style="overflow:visible;"/>
			</clipPath>
			<g style="clip-path:url(#SVGID_2_);">
				<g>
					<path style="fill:#BD9D19;" d="M470.0103,205.4203l72.5575,37.8522c0.6257,0.326-0.1258,1.1793-0.4517,1.805l-3.021,5.7991
						c-0.326,0.6257-1.0975,0.8687-7.3644,11.5431l-71.0022-36.988c5.0155-11.3263,4.7725-12.0978,5.0984-12.7235l3.021-5.7991
						C469.1738,206.2834,469.3846,205.0943,470.0103,205.4203z"/>
					
						<rect x="466.9055" y="216.2048" transform="matrix(0.8869 0.462 -0.462 0.8869 159.4809 -209.8265)" style="fill:#D9C26E;" width="82.6139" height="9.0938"/>
					
						<rect x="471.7182" y="205.62" transform="matrix(0.8869 0.462 -0.462 0.8869 155.7571 -213.095)" style="fill:#FFE988;" width="82.6139" height="11.7865"/>
					<polygon style="fill:#FFE988;" points="499.7472,148.6866 500.6974,148.5369 571.6246,185.4479 572.0297,186.4174 
						572.2559,187.2937 559.9929,210.761 486.7247,172.5926 498.8982,149.0787 					"/>
					
						<rect x="478.2455" y="190.4649" transform="matrix(0.8869 0.462 -0.462 0.8869 150.7067 -217.5281)" style="fill:#F8F4D0;" width="82.6139" height="17.0373"/>
				</g>
				
					<rect x="477.9448" y="197.5829" transform="matrix(0.8869 0.462 -0.462 0.8869 150.6945 -217.6894)" style="fill:#FFFFFF;" width="83.8618" height="2.5903"/>
			</g>
		</g>
		<g>
			<path style="fill:none;stroke:#000000;stroke-width:0.7;stroke-miterlimit:10;" d="M513.59,178.7701
				c7.028,0,13.6956,2.2724,19.2819,6.5717c6.7022,5.157,10.9944,12.6158,12.0865,21.002
				c1.0921,8.3862-1.1469,16.6953-6.3044,23.3975c-6.0415,7.8507-15.1961,12.3533-25.1161,12.3533
				c-7.0294,0-13.6976-2.272-19.2838-6.5708c-13.8351-10.647-16.429-30.565-5.7822-44.4003
				c6.0411-7.8498,15.1954-12.3524,25.1161-12.3533"/>
			<path style="fill:none;stroke:#000000;stroke-width:0.7;stroke-miterlimit:10;" d="M513.6985,173.7436
				c-10.897,0.0005-21.6762,4.8806-28.8358,14.1841c-12.2444,15.9113-9.272,38.7358,6.639,50.9804
				c6.6078,5.085,14.4048,7.5446,22.1443,7.5446c10.897,0,21.6765-4.8806,28.8361-14.1841
				c12.2444-15.9108,9.272-38.7358-6.639-50.9799C529.2353,176.2036,521.4377,173.7431,513.6985,173.7436L513.6985,173.7436z"/>
		</g>
	</g>
	<g>
		<path style="fill:none;stroke:#000000;stroke-width:0.6658;stroke-miterlimit:10;" d="M451.1633,173.2725"/>
		<g>
			<defs>
				<path id="SVGID_3_" d="M428.0034,173.6223L428.0034,173.6223c5.2728-0.0005,10.5853,2.4601,15.0873,7.5451
					c10.8403,12.2441,12.8654,35.0691,4.5232,50.9799c-4.8779,9.3035-12.222,14.1841-19.6462,14.1841l-0.6195-0.0787
					c0.1,0,0.19,0,0.29,0c0.85,0,1.78-0.0196,2.74-0.0489c3.42-0.137,7.33-0.5383,10.09-1.5855c2.69-1.0276,4.89-3.0633,6.86-5.0794
					c2.41-2.4565,4.21-5.3437,5.67-8.4167c7.74-16.2365,5.34-39.0107-5.36-50.8528c-2.77-3.0731-5.84-5.1283-10.01-5.9407
					c-1.81-0.3523-4.79-0.6264-7.39-0.734c-1.17-0.0489-2.26-0.0685-3.13-0.0294c-0.06-0.0098-0.12,0-0.17,0"/>
			</defs>
			<clipPath id="SVGID_4_">
				<use xlink:href="#SVGID_3_"  style="overflow:visible;"/>
			</clipPath>
			<g style="clip-path:url(#SVGID_4_);">
				<path style="fill:#BD9D19;" d="M432.4675,237.0383l51.8489,0.0468c4.387,0,2.6944,1.0793,2.6944,1.769v6.3923
					c0,0.6897-3.5564,1.2489-7.9434,1.2489h-40.79c-4.387,0-7.9434-0.5591-7.9434-1.2489v-6.3923
					C430.334,238.1644,428.0805,237.0383,432.4675,237.0383z"/>
				<rect x="430.334" y="228.6313" style="fill:#BD9D19;" width="56.6768" height="8.89"/>
				<rect x="430.334" y="217.1318" style="fill:#BD9D19;" width="56.6768" height="11.5224"/>
				<polygon style="fill:#BD9D19;" points="426.867,173.2693 431.0827,172.9682 475.8971,174.0325 480.9165,174.6901 
					484.681,175.3477 484.4718,201.2326 427.795,201.2326 427.3767,175.3477 				"/>
				<rect x="430.334" y="200.7537" style="fill:#BD9D19;" width="56.6768" height="16.6556"/>
			</g>
		</g>
		<g>
			<path style="fill:#C6B452;" d="M452.8573,213.1016l4.6649-0.0332c0,0-0.1562-7.343-0.1562-8.9835
				c0-1.6405-0.4687-3.2028-0.4687-3.2028h-4.5353c0,0,0.6249,3.9059,0.6249,5.9369S452.8573,213.1016,452.8573,213.1016z"/>
			<path style="fill:#D5C157;" d="M429.6906,173.3204l4.2174,0.2818c0,0,6.3424-0.1613,12.4698,4.9987
				c3.8311,3.2262,7.5304,11.5987,8.6945,15.0558c1.1926,3.542,2.2631,7.1813,1.9349,7.215l-4.6454,0.0105
				c0,0-2.6902-9.6654-5.0876-14.4121c-2.5627-5.0742-7.2634-8.2859-9.327-10.0916
				C435.8837,174.5727,429.6906,173.3204,429.6906,173.3204z"/>
		</g>
		<g>
			<path style="fill:#FFE988;" d="M413.2562,238.0414c-10.5696-11.9385-12.5443-34.1934-4.4106-49.707
				c8.1338-15.5137,23.2962-18.4121,33.8658-6.4727c10.5695,11.9385,12.5443,34.1934,4.4105,49.7071
				C438.9882,247.0824,423.8258,249.9809,413.2562,238.0414z"/>
		</g>
		<path style="fill:none;stroke:#000000;stroke-width:0.7;stroke-miterlimit:10;" d="M427.3723,246.0524c0.1,0,0.19,0,0.29,0
			c0.85,0,1.78-0.0196,2.74-0.0489c3.42-0.137,7.33-0.5383,10.09-1.5855c2.69-1.0276,4.89-3.0633,6.86-5.0794
			c2.41-2.4565,4.21-5.3437,5.67-8.4167c7.74-16.2365,5.34-39.0107-5.36-50.8528c-2.77-3.0731-5.6452-4.8392-9.8784-5.8063
			c-1.7976-0.4107-6.5138-0.7614-9.1854-0.8408"/>
		<g>
			<path style="fill:#D9C26E;" d="M428.2146,179.9989c4.3489-0.0005,8.7278,2.0283,12.4358,6.2202
				c8.9404,10.1074,10.5896,28.9668,3.6841,42.1235c-4.0415,7.7012-10.1184,11.7417-16.2556,11.7417
				c-4.3489,0-8.7275-2.0283-12.4353-6.2202c-8.9404-10.1074-10.5896-28.9668-3.6841-42.1245
				C416.001,184.0389,422.0777,179.9989,428.2146,179.9989 M428.2154,177.9989h-0.0002c-7.1831,0-13.7534,4.6699-18.0266,12.811
				c-7.2478,13.8105-5.4727,33.7188,3.957,44.3794c3.9897,4.5107,8.8079,6.895,13.9333,6.895
				c7.1829,0,13.7534-4.6699,18.0266-12.8125c7.248-13.8091,5.4729-33.7168-3.957-44.3779
				C438.1585,180.3831,433.3406,177.9989,428.2154,177.9989L428.2154,177.9989z"/>
		</g>
		<g>
			<defs>
				<path id="SVGID_5_" d="M443.0454,180.8363c-4.502-5.085-9.8146-7.5454-15.0874-7.5449
					c-7.4242,0.0005-14.768,4.8804-19.646,14.1841c-8.3422,15.9111-6.3171,38.7358,4.5231,50.98
					c4.502,5.0854,9.8143,7.5449,15.0871,7.5449c7.4242,0,14.7684-4.8809,19.6463-14.1841
					C455.9107,215.9056,453.8856,193.0804,443.0454,180.8363z M444.9604,229.2889c-4.1161,7.8506-10.3532,12.353-17.1117,12.353
					c-4.7891,0-9.3324-2.272-13.1382-6.5703c-9.426-10.6475-11.1933-30.5654-3.9395-44.4004
					c4.1158-7.8501,10.3527-12.3525,17.1117-12.3535h0.0013c4.7883,0,9.3309,2.2725,13.137,6.5718
					c4.5663,5.1567,7.4906,12.6157,8.2346,21.002S448.4742,222.5868,444.9604,229.2889z"/>
			</defs>
			<clipPath id="SVGID_6_">
				<use xlink:href="#SVGID_5_"  style="overflow:visible;"/>
			</clipPath>
			<g style="clip-path:url(#SVGID_6_);">
				<g>
					<path style="fill:#BD9D19;" d="M395.0278,208.4254l51.2669,38.6133c0.0622,3.0569-2.2184,7.124-2.4405,7.7497l-2.0582,5.7991
						c-0.2221,0.6257-0.7477,0.8687-1.174,0.5428l-48.3744-36.988c-0.4263-0.326-0.5919-1.0975-0.3698-1.7232l2.0582-5.7991
						C394.1582,215.9943,394.2373,210.8304,395.0278,208.4254z"/>
					<polygon style="fill:#D9C26E;" points="399.7127,202.976 449.6309,241.1444 446.7591,248.8644 396.8409,210.696 					"/>
					<polygon style="fill:#FFE988;" points="402.2395,193.1051 452.1577,231.2735 448.8174,241.4947 398.8992,203.3263 					"/>
					<polygon style="fill:#FFE988;" points="414.988,158.3976 415.6354,158.2479 463.9587,195.1588 464.2347,196.1284 
						464.3888,197.0047 456.0339,220.4719 406.1157,182.3035 414.4096,158.7897 					"/>
					<polygon style="fill:#F8F4D0;" points="406.3917,179.5981 456.3098,217.7665 451.2352,232.7288 401.317,194.5604 					"/>
				</g>
				<polygon style="fill:#FFFFFF;" points="453.9908,227.2622 403.3185,188.5173 403.7357,186.22 454.4079,224.965 				"/>
			</g>
		</g>
		<g>
			<path style="fill:none;stroke:#000000;stroke-width:0.7;stroke-miterlimit:10;" d="M427.9987,178.0933
				c4.7882,0,9.2858,2.6277,13.0918,6.9269c4.5663,5.157,7.4906,12.6158,8.2346,21.002c0.7441,8.3862-0.7814,16.6953-4.2952,23.3975
				c-4.1161,7.8507-10.3532,12.3533-17.1118,12.3533c-4.7892,0-9.3323-2.272-13.1382-6.5707
				c-9.426-10.647-11.1932-30.565-3.9394-44.4004c4.1158-7.8498,10.3711-12.7076,17.1302-12.7085H427.9987z"/>
			<path style="fill:none;stroke:#000000;stroke-width:0.7;stroke-miterlimit:10;" d="M428.0275,173.422
				c-7.4242,0.0005-14.7682,4.8806-19.6461,14.1841c-8.3422,15.9113-6.3171,38.7358,4.5232,50.9804
				c4.5019,5.085,9.8141,7.5446,15.0871,7.5446c7.4242,0,14.7683-4.8806,19.6462-14.1841
				c8.3422-15.9108,6.3171-38.7358-4.5232-50.9799C438.6129,175.882,433.3004,173.4215,428.0275,173.422L428.0275,173.422z"/>
		</g>
		<g>
			<g>
				<path style="fill:#FFFFFF;stroke:#000000;stroke-width:0.7;stroke-miterlimit:10;" d="M431.2769,208.7567L431.2769,208.7567
					c-1.0316,0-1.8755-0.844-1.8755-1.8755v-7.6523c0-1.0316,0.844-1.8755,1.8755-1.8755l0,0c1.0316,0,1.8755,0.844,1.8755,1.8755
					v7.6523C433.1524,207.9127,432.3084,208.7567,431.2769,208.7567z"/>
				<path style="fill:#FFFFFF;stroke:#000000;stroke-width:0.7;stroke-miterlimit:10;" d="M423.8592,208.7935L423.8592,208.7935
					c-1.0316,0-1.8755-0.844-1.8755-1.8755v-7.6523c0-1.0316,0.844-1.8755,1.8755-1.8755l0,0c1.0316,0,1.8755,0.844,1.8755,1.8755
					v7.6523C425.7347,207.9495,424.8907,208.7935,423.8592,208.7935z"/>
			</g>
			<path style="fill:#FFFFFF;stroke:#000000;stroke-width:0.7;stroke-miterlimit:10;" d="M419.3144,217.9576l2.152-2.1804
				c3.9619-4.0141,8.4173-4.1267,12.4131-0.3135l2.6134,2.4939c0.4526,0,0.8229,0.8938,0.8229,1.9863l0,0
				c0,1.0925-0.3703,1.9863-0.8229,1.9863l-2.6134-2.4939c-3.9958-3.8131-8.4512-3.7006-12.4131,0.3135l-2.152,2.1804
				c-0.4526,0-0.8229-0.8938-0.8229-1.9863l0,0C418.4914,218.8514,418.8618,217.9576,419.3144,217.9576z"/>
		</g>
	</g>
	<g>
		<g>
			<path style="fill:#BD9D19;" d="M354.9784,246.2438l7.3443,0.0964c4.8291,0,9.606-4.8806,12.7788-14.1841
				c5.4262-15.9108,4.1089-38.7358-2.9421-50.9799c-2.9283-5.085-6.3838-7.5455-9.8135-7.5451l0,0l-9.7308-0.0437L354.9784,246.2438
				z"/>
		</g>
		<path style="fill:#FFE988;" d="M370.9278,205.9337c0.04,1.45,0.04,2.91,0,4.37c-0.15,5.37-0.82,10.79-2.05,15.87
			c-4.3,17.73-13.85,24.67-21.33,15.51c-4.72-5.78-7.48-16.56-7.81-28.18c-0.04-1.45-0.04-2.91,0-4.38
			c0.15-5.37,0.82-10.79,2.05-15.87c4.3-17.73,13.85-24.67,21.33-15.5C367.8378,183.5237,370.5978,194.3137,370.9278,205.9337z"/>
		<path style="fill:none;stroke:#000000;stroke-width:0.7;stroke-miterlimit:10;" d="M361.5891,247.7191"/>
		<g>
			<path style="fill:#C6B452;" d="M371.4223,213.019h7.343c0,0-0.1562-7.343-0.1562-8.9835c0-1.6405-0.4687-3.2028-0.4687-3.2028
				h-7.4211c0,0,0.6249,3.9059,0.6249,5.9369S371.4223,213.019,371.4223,213.019z"/>
			<path style="fill:#D5C157;" d="M356.7738,173.5016h7.3516c0,0,4.3852,1.6767,7.2226,5.8039s5.159,10.447,5.6749,14.0583
				c0.5159,3.6113,1.1174,7.4689,1.1174,7.4689h-7.4211c0,0-1.4348-9.9194-3.4984-14.8205c-2.0636-4.9011-5.03-8.6414-7.0937-10.447
				C358.0636,173.7595,356.7738,173.5016,356.7738,173.5016z"/>
		</g>
		<g>
			<g>
				<path style="fill:#FFFFFF;stroke:#000000;stroke-width:0.7;stroke-miterlimit:10;" d="M357.4451,208.4108L357.4451,208.4108
					c-0.8809,0-1.6015-0.7207-1.6015-1.6015v-8.2003c0-0.8808,0.7207-1.6015,1.6015-1.6015h0c0.8808,0,1.6015,0.7207,1.6015,1.6015
					v8.2003C359.0466,207.6901,358.326,208.4108,357.4451,208.4108z"/>
				<path style="fill:#FFFFFF;stroke:#000000;stroke-width:0.7;stroke-miterlimit:10;" d="M352.1112,208.4476L352.1112,208.4476
					c-0.8808,0-1.6015-0.7207-1.6015-1.6015v-8.2003c0-0.8808,0.7207-1.6015,1.6015-1.6015l0,0
					c0.8808,0,1.6015,0.7207,1.6015,1.6015v8.2003C353.7127,207.7269,352.992,208.4476,352.1112,208.4476z"/>
			</g>
			<path style="fill:#FFFFFF;stroke:#000000;stroke-width:0.7;stroke-miterlimit:10;" d="M349.2758,217.0001l1.548-1.791
				c2.8498-3.2973,6.0545-3.3898,8.9287-0.2576l1.8798,2.0486c0.3256,0,0.5919,0.7342,0.5919,1.6316v0
				c0,0.8974-0.2664,1.6316-0.5919,1.6316l-1.8798-2.0486c-2.8742-3.1322-6.0789-3.0398-8.9287,0.2575l-1.548,1.7911
				c-0.3256,0-0.5919-0.7342-0.5919-1.6316v0C348.6839,217.7343,348.9503,217.0001,349.2758,217.0001z"/>
		</g>
		<g>
			<defs>
				<path id="SVGID_7_" d="M365.2674,181.2343c-2.947-5.085-6.4245-7.5454-9.8761-7.5449
					c-4.8598,0.0005-9.667,4.8804-12.8601,14.1841c-5.4607,15.9111-4.1351,38.7358,2.9608,50.98
					c2.947,5.0854,6.4243,7.5449,9.8759,7.5449c4.8598,0,9.6672-4.8809,12.8603-14.1841
					C373.6889,216.3036,372.3633,193.4784,365.2674,181.2343z M366.5209,229.6869c-2.6944,7.8506-6.7771,12.353-11.2011,12.353
					c-3.1349,0-6.1089-2.272-8.6001-6.5703c-6.1702-10.6475-7.3271-30.5654-2.5787-44.4004
					c2.6942-7.8501,6.7768-12.3525,11.2011-12.3535l0.0009,0.4252c3.1344,0,6.1079,1.8473,8.5993,6.1466
					c2.989,5.1567,4.9032,12.6157,5.3903,21.002S368.821,222.9848,366.5209,229.6869z"/>
			</defs>
			<clipPath id="SVGID_8_">
				<use xlink:href="#SVGID_7_"  style="overflow:visible;"/>
			</clipPath>
			<g style="clip-path:url(#SVGID_8_);">
				<g>
					<path style="fill:#BD9D19;" d="M333.8355,208.8234l33.5588,38.6133c0.0407,3.0569-1.4521,7.124-1.5975,7.7497l-1.3473,5.7991
						c-0.1454,0.6257-0.4895,0.8687-0.7685,0.5428l-31.6654-36.988c-0.2791-0.326-0.3874-1.0975-0.242-1.7232l1.3473-5.7991
						C333.2663,216.3923,333.3181,211.2284,333.8355,208.8234z"/>
					<polygon style="fill:#D9C26E;" points="336.9023,203.374 369.5782,241.5424 367.6984,249.2624 335.0224,211.094 					"/>
					<polygon style="fill:#FFE988;" points="338.5562,193.5031 371.2322,231.6715 369.0457,241.8927 336.3697,203.7243 					"/>
					<polygon style="fill:#FFE988;" points="346.9013,158.7956 347.3251,158.6459 378.957,195.5568 379.1377,196.5264 
						379.2386,197.4027 373.7695,220.8699 341.0936,182.7015 346.5227,159.1877 					"/>
					<polygon style="fill:#F8F4D0;" points="341.2742,179.9961 373.9502,218.1645 370.6284,233.1268 337.9524,194.9584 					"/>
				</g>
				<polygon style="fill:#FFFFFF;" points="372.4321,227.6602 339.2626,188.9153 339.5356,186.618 372.7052,225.3629 				"/>
			</g>
		</g>
		<g>
			<path style="fill:#D9C26E;" d="M355.1563,179.4076c1.084,0,2.1865,0.3262,3.2869,1.0088
				c6.915,4.2896,11.105,21.0352,9.3589,37.4014c-1.468,13.7632-6.667,22.876-12.3955,22.876c-1.084,0-2.186-0.3257-3.2864-1.0083
				c-6.915-4.29-11.105-21.0356-9.3591-37.4023C344.2293,188.5204,349.4278,179.4081,355.1563,179.4076 M355.1568,178.4076
				L355.1568,178.4076c-6.4924,0.001-11.8735,9.5527-13.3901,23.7695c-1.8101,16.9678,2.5063,33.8169,9.8264,38.3579
				c1.2395,0.769,2.5225,1.1587,3.8135,1.1587c6.4924,0,11.8733-9.5522,13.3899-23.77c1.8103-16.9678-2.5059-33.8164-9.8262-38.3569
				C357.7307,178.7977,356.4478,178.4076,355.1568,178.4076L355.1568,178.4076z"/>
		</g>
		<g>
			<path style="fill:none;stroke:#000000;stroke-width:0.7;stroke-miterlimit:10;" d="M355.1909,178.0719
				c3.1145,0,6.0399,2.6277,8.5155,6.9269c2.9701,5.157,4.8722,12.6158,5.3562,21.0019c0.484,8.3862-0.5083,16.6953-2.7938,23.3975
				c-2.6773,7.8507-6.7343,12.3533-11.1303,12.3533c-3.1151,0-6.0702-2.272-8.5457-6.5707
				c-6.1311-10.647-7.2806-30.565-2.5624-44.4003c2.6771-7.8498,6.7458-12.7076,11.1422-12.7086H355.1909z"/>
			<path style="fill:none;stroke:#000000;stroke-width:0.7;stroke-miterlimit:10;" d="M355.2096,173.4006
				c-4.829,0.0005-9.6059,4.8806-12.7787,14.1841c-5.4261,15.9113-4.1089,38.7358,2.9421,50.9804
				c2.9283,5.085,6.3836,7.5446,9.8134,7.5446c4.8291,0,9.606-4.8806,12.7788-14.1841c5.4261-15.9108,4.1089-38.7358-2.9421-50.9799
				C362.0948,175.8606,358.6393,173.4001,355.2096,173.4006L355.2096,173.4006z"/>
		</g>
		<g>
			<path style="fill:none;stroke:#000000;stroke-width:0.7;stroke-miterlimit:10;" d="M362.5539,173.497L362.5539,173.497
				c3.4297-0.0005,6.8852,2.4601,9.8135,7.5451c7.0511,12.2441,8.3683,35.0691,2.9421,50.9799
				c-3.1728,9.3035-7.9498,14.1841-12.7788,14.1841l-7.3443-0.0964"/>
		</g>
		
			<line style="fill:none;stroke:#000000;stroke-width:0.7;stroke-miterlimit:10;" x1="362.5539" y1="173.497" x2="355.2096" y2="173.4006"/>
	</g>
	<g>
		<g>
			<path style="fill:#BD9D19;" d="M266.1751,246.5458l-7.3443,0.0964c-4.8291,0-9.606-4.8806-12.7788-14.1841
				c-5.4262-15.9108-4.1089-38.7358,2.9421-50.9799c2.9283-5.085,6.3838-7.5455,9.8135-7.5451l0,0l9.7308-0.0437L266.1751,246.5458z
				"/>
		</g>
		<path style="fill:#FFE988;" d="M250.2257,206.2357c-0.04,1.45-0.04,2.91,0,4.37c0.15,5.37,0.82,10.79,2.05,15.87
			c4.3,17.73,13.85,24.67,21.33,15.51c4.72-5.78,7.48-16.56,7.81-28.18c0.04-1.45,0.04-2.91,0-4.38
			c-0.15-5.37-0.82-10.79-2.05-15.87c-4.3-17.73-13.85-24.67-21.33-15.5C253.3157,183.8257,250.5557,194.6157,250.2257,206.2357z"/>
		<g>
			<path style="fill:#C6B452;" d="M250.004,213.019h-7.343c0,0,0.1562-7.343,0.1562-8.9835c0-1.6405,0.4687-3.2028,0.4687-3.2028
				h7.4212c0,0-0.6249,3.9059-0.6249,5.9369S250.004,213.019,250.004,213.019z"/>
			<path style="fill:#D5C157;" d="M264.6525,173.5016h-7.3516c0,0-4.3852,1.6767-7.2227,5.8039s-5.159,10.447-5.6749,14.0583
				c-0.5159,3.6113-1.1174,7.4689-1.1174,7.4689h7.4212c0,0,1.4348-9.9194,3.4984-14.8205
				c2.0636-4.9011,5.0301-8.6414,7.0937-10.447C263.3627,173.7595,264.6525,173.5016,264.6525,173.5016z"/>
		</g>
		<path style="fill:none;stroke:#000000;stroke-width:0.7;stroke-miterlimit:10;" d="M259.5644,248.0211"/>
		<g>
			<defs>
				<path id="SVGID_9_" d="M252.9254,232.5162c3.193,9.3032,8.0005,14.1841,12.8603,14.1841c3.4515,0,6.9289-2.4595,9.8759-7.5449
					c7.0959-12.2441,8.4215-35.0688,2.9608-50.98c-3.1931-9.3037-8.0003-14.1836-12.8601-14.1841
					c-3.4515-0.0005-6.9291,2.46-9.8761,7.5449C248.7903,193.7804,247.4646,216.6056,252.9254,232.5162z M251.821,206.5914
					c0.487-8.3862,2.4013-15.8452,5.3903-21.002c2.4914-4.2993,5.465-6.1466,8.5993-6.1466l0.0009-0.4252
					c4.4244,0.001,8.507,4.5034,11.2011,12.3535c4.7483,13.835,3.5915,33.7529-2.5787,44.4004
					c-2.4912,4.2983-5.4652,6.5703-8.6001,6.5703c-4.424,0-8.5068-4.5024-11.2011-12.353
					C252.3325,223.2867,251.334,214.9776,251.821,206.5914z"/>
			</defs>
			<clipPath id="SVGID_10_">
				<use xlink:href="#SVGID_9_"  style="overflow:visible;"/>
			</clipPath>
			<g style="clip-path:url(#SVGID_10_);">
				<g>
					<path style="fill:#BD9D19;" d="M287.318,209.1254l-33.5588,38.6133c-0.0407,3.0569,1.4521,7.124,1.5975,7.7497l1.3473,5.7991
						c0.1454,0.6257,0.4894,0.8687,0.7685,0.5428l31.6654-36.988c0.2791-0.326,0.3874-1.0975,0.2421-1.7232l-1.3473-5.7991
						C287.8873,216.6943,287.8354,211.5304,287.318,209.1254z"/>
					<polygon style="fill:#D9C26E;" points="284.2513,203.6759 251.5753,241.8443 253.4552,249.5644 286.1312,211.396 					"/>
					<polygon style="fill:#FFE988;" points="282.5973,193.805 249.9213,231.9734 252.1078,242.1947 284.7838,204.0262 					"/>
					<polygon style="fill:#FFE988;" points="274.2522,159.0976 273.8284,158.9479 242.1965,195.8588 242.0159,196.8284 
						241.915,197.7047 247.384,221.1719 280.06,183.0035 274.6309,159.4897 					"/>
					<polygon style="fill:#F8F4D0;" points="279.8793,180.298 247.2034,218.4665 250.5252,233.4288 283.2011,195.2604 					"/>
				</g>
				<polygon style="fill:#FFFFFF;" points="248.7214,227.9622 281.891,189.2173 281.6179,186.92 248.4483,225.6649 				"/>
			</g>
		</g>
		<g>
			<path style="fill:#D9C26E;" d="M265.9971,179.7098c5.7285,0,10.9272,9.1123,12.3953,22.875
				c1.7461,16.3672-2.4438,33.1123-9.3589,37.4023c-1.1003,0.6826-2.2029,1.0088-3.2869,1.0088
				c-5.7285,0-10.927-9.1128-12.3953-22.876c-1.7461-16.3667,2.4438-33.1118,9.3591-37.4019
				C263.8108,180.0355,264.9129,179.7098,265.9971,179.7098 M265.9971,178.7098c-1.2913,0-2.5742,0.3896-3.8137,1.1587
				c-7.3203,4.541-11.6367,21.3896-9.8264,38.3574c1.5168,14.2178,6.8977,23.77,13.3897,23.77c1.2913,0,2.5745-0.3901,3.814-1.1592
				c7.3203-4.541,11.6362-21.3901,9.8262-38.3579C277.8701,188.2616,272.4893,178.7098,265.9971,178.7098L265.9971,178.7098z"/>
		</g>
		<g>
			<path style="fill:none;stroke:#000000;stroke-width:0.7;stroke-miterlimit:10;" d="M265.9626,178.3739
				c-3.1145,0-6.0399,2.6276-8.5155,6.9269c-2.9701,5.157-4.8723,12.6158-5.3562,21.0019
				c-0.484,8.3862,0.5083,16.6953,2.7938,23.3975c2.6773,7.8507,6.7342,12.3533,11.1303,12.3533
				c3.1151,0,6.0702-2.272,8.5457-6.5707c6.1311-10.647,7.2806-30.565,2.5624-44.4003
				c-2.6771-7.8498-6.7458-12.7076-11.1422-12.7085H265.9626z"/>
			<path style="fill:none;stroke:#000000;stroke-width:0.7;stroke-miterlimit:10;" d="M265.9439,173.7025
				c4.829,0.0005,9.6059,4.8806,12.7787,14.1841c5.4261,15.9113,4.1089,38.7358-2.9421,50.9804
				c-2.9283,5.085-6.3836,7.5446-9.8134,7.5446c-4.829,0-9.606-4.8806-12.7788-14.1841
				c-5.4262-15.9108-4.1089-38.7358,2.9421-50.9799C259.0587,176.1626,262.5143,173.702,265.9439,173.7025L265.9439,173.7025z"/>
		</g>
		<g>
			<path style="fill:none;stroke:#000000;stroke-width:0.7;stroke-miterlimit:10;" d="M258.5996,173.799L258.5996,173.799
				c-3.4297-0.0005-6.8852,2.4601-9.8135,7.5451c-7.051,12.2441-8.3683,35.0691-2.9421,50.9799
				c3.1728,9.3035,7.9498,14.1841,12.7788,14.1841l7.3443-0.0964"/>
		</g>
		
			<line style="fill:none;stroke:#000000;stroke-width:0.7;stroke-miterlimit:10;" x1="258.5996" y1="173.799" x2="265.9439" y2="173.7025"/>
		<g>
			<g>
				<path style="fill:#FFFFFF;stroke:#000000;stroke-width:0.7;stroke-miterlimit:10;" d="M263.7688,208.7686L263.7688,208.7686
					c0.8808,0,1.6015-0.7207,1.6015-1.6015v-8.2003c0-0.8808-0.7207-1.6015-1.6015-1.6015l0,0
					c-0.8808,0-1.6015,0.7207-1.6015,1.6015v8.2003C262.1673,208.0479,262.888,208.7686,263.7688,208.7686z"/>
				<path style="fill:#FFFFFF;stroke:#000000;stroke-width:0.7;stroke-miterlimit:10;" d="M269.1028,208.8054L269.1028,208.8054
					c0.8809,0,1.6015-0.7207,1.6015-1.6015v-8.2003c0-0.8808-0.7207-1.6015-1.6015-1.6015l0,0
					c-0.8808,0-1.6015,0.7207-1.6015,1.6015v8.2003C267.5013,208.0847,268.2219,208.8054,269.1028,208.8054z"/>
			</g>
			<path style="fill:#FFFFFF;stroke:#000000;stroke-width:0.7;stroke-miterlimit:10;" d="M273.4968,216.2883l-1.5479,1.7911
				c-2.8498,3.2973-6.0545,3.3898-8.9287,0.2575l-1.8798-2.0486c-0.3256,0-0.5919-0.7342-0.5919-1.6316l0,0
				c0-0.8974,0.2664-1.6316,0.5919-1.6316l1.8798,2.0486c2.8742,3.1322,6.0789,3.0398,8.9287-0.2576l1.5479-1.791
				c0.3256,0,0.5919,0.7342,0.5919,1.6316l0,0C274.0887,215.5541,273.8223,216.2883,273.4968,216.2883z"/>
		</g>
	</g>
	<g>
		<g>
			<path style="fill:#FFE988;" d="M84.7359,238.5129c-15.5137-11.9385-18.4121-34.1934-6.4737-49.707
				c11.9385-15.5137,34.1934-18.4121,49.7071-6.4727c15.5136,11.9385,18.4121,34.1934,6.4736,49.7071
				C122.5044,247.5539,100.2495,250.4524,84.7359,238.5129z"/>
		</g>
		<g>
			<path style="fill:#D9C26E;" d="M106.3792,180.681c6.3398,0,12.728,2.0156,18.1411,6.1812
				c13.0344,10.0303,15.4688,28.7275,5.4382,41.7612c-5.865,7.6221-14.6948,11.6196-23.6213,11.6196
				c-6.3398,0-12.7275-2.0151-18.1406-6.1807c-13.0342-10.0308-15.4685-28.7275-5.438-41.7622
				C88.6236,184.679,97.4527,180.6815,106.3792,180.681 M106.3806,178.681h-0.0015c-9.9551,0.0005-19.1421,4.52-25.2056,12.3994
				c-10.6868,13.8877-8.0835,33.8799,5.8032,44.5669c5.6074,4.3149,12.3022,6.5957,19.3604,6.5957
				c9.9551,0,19.1423-4.5195,25.2063-12.3999c5.177-6.7271,7.4246-15.0674,6.3286-23.4849
				c-1.0962-8.4175-5.4048-15.9043-12.1321-21.0811C120.1326,180.9622,113.4382,178.681,106.3806,178.681L106.3806,178.681z"/>
		</g>
		<g>
			<defs>
				<path id="SVGID_11_" d="M128.4594,181.3079c-6.6079-5.085-14.4055-7.5454-22.1448-7.5449
					c-10.897,0.0005-21.676,4.8804-28.8357,14.1841c-12.2444,15.9111-9.272,38.7358,6.6389,50.98
					c6.6079,5.0854,14.405,7.5449,22.1443,7.5449c10.897,0,21.6765-4.8809,28.8362-14.1841
					C147.3427,216.3772,144.3703,193.552,128.4594,181.3079z M131.2702,229.7605c-6.0415,7.8506-15.196,12.353-25.116,12.353
					c-7.0293,0-13.6978-2.272-19.2837-6.5703c-13.8352-10.6475-16.4292-30.5654-5.7822-44.4004
					c6.041-7.8501,15.1953-12.3525,25.116-12.3535h0.002c7.0281,0,13.6956,2.2725,19.282,6.5718
					c6.7021,5.1567,10.9944,12.6157,12.0864,21.002S136.4276,223.0583,131.2702,229.7605z"/>
			</defs>
			<clipPath id="SVGID_12_">
				<use xlink:href="#SVGID_11_"  style="overflow:visible;"/>
			</clipPath>
			<g style="clip-path:url(#SVGID_12_);">
				<g>
					<path style="fill:#BD9D19;" d="M62.7286,205.5703l72.5574,37.8522c0.6257,0.326-0.1257,1.1793-0.4517,1.805l-3.021,5.7991
						c-0.326,0.6257-1.0975,0.8687-7.3644,11.5431l-71.0022-36.988c5.0155-11.3263,4.7724-12.0978,5.0984-12.7235l3.021-5.7991
						C61.8921,206.4334,62.1028,205.2443,62.7286,205.5703z"/>
					
						<rect x="59.6238" y="216.3548" transform="matrix(0.8869 0.462 -0.462 0.8869 113.4765 -21.6415)" style="fill:#D9C26E;" width="82.6139" height="9.0938"/>
					
						<rect x="64.4365" y="205.7701" transform="matrix(0.8869 0.462 -0.462 0.8869 109.7527 -24.91)" style="fill:#FFE988;" width="82.6139" height="11.7865"/>
					<polygon style="fill:#FFE988;" points="92.4654,148.8367 93.4157,148.687 164.3428,185.5979 164.748,186.5674 
						164.9741,187.4438 152.7112,210.911 79.443,172.7426 91.6164,149.2287 					"/>
					
						<rect x="70.9637" y="190.6149" transform="matrix(0.8869 0.462 -0.462 0.8869 104.7022 -29.3431)" style="fill:#F8F4D0;" width="82.6139" height="17.0373"/>
				</g>
				
					<rect x="70.663" y="197.733" transform="matrix(0.8869 0.462 -0.462 0.8869 104.6901 -29.5044)" style="fill:#FFFFFF;" width="83.8618" height="2.5903"/>
			</g>
		</g>
		<g>
			<path style="fill:none;stroke:#000000;stroke-width:0.7;stroke-miterlimit:10;" d="M106.3082,178.9201
				c7.028,0,13.6955,2.2724,19.2819,6.5717c6.7022,5.157,10.9944,12.6158,12.0865,21.002s-1.1469,16.6953-6.3044,23.3975
				c-6.0415,7.8507-15.1961,12.3533-25.1161,12.3533c-7.0294,0-13.6976-2.272-19.2838-6.5707
				c-13.8351-10.647-16.4289-30.565-5.7821-44.4004c6.0411-7.8498,15.1954-12.3524,25.1161-12.3533"/>
			<path style="fill:none;stroke:#000000;stroke-width:0.7;stroke-miterlimit:10;" d="M106.4167,173.8936
				c-10.897,0.0005-21.6762,4.8806-28.8358,14.1841c-12.2444,15.9113-9.272,38.7358,6.639,50.9804
				c6.6078,5.085,14.4049,7.5446,22.1444,7.5446c10.897,0,21.6764-4.8806,28.8361-14.1841
				c12.2444-15.9108,9.272-38.7358-6.639-50.9799C121.9536,176.3536,114.156,173.8931,106.4167,173.8936L106.4167,173.8936z"/>
		</g>
		<g>
			<g>
				<path style="fill:#FFFFFF;stroke:#000000;stroke-width:0.7;stroke-miterlimit:10;" d="M99.7684,209.7225L99.7684,209.7225
					c1.1484,0,2.0879-0.9396,2.0879-2.0879v-7.2275c0-1.1484-0.9396-2.0879-2.0879-2.0879h0c-1.1484,0-2.0879,0.9396-2.0879,2.0879
					v7.2275C97.6805,208.7829,98.6201,209.7225,99.7684,209.7225z"/>
				<path style="fill:#FFFFFF;stroke:#000000;stroke-width:0.7;stroke-miterlimit:10;" d="M112.0261,209.7593L112.0261,209.7593
					c1.1484,0,2.0879-0.9396,2.0879-2.0879v-7.2275c0-1.1484-0.9396-2.0879-2.0879-2.0879l0,0
					c-1.1484,0-2.0879,0.9396-2.0879,2.0879v7.2275C109.9382,208.8197,110.8777,209.7593,112.0261,209.7593z"/>
			</g>
			<path style="fill:#FFFFFF;stroke:#000000;stroke-width:0.7;stroke-miterlimit:10;" d="M117.5712,216.9608l-2.8316,2.1804
				c-5.213,4.0141-11.0754,4.1267-16.333,0.3135l-3.4387-2.4939c-0.5955,0-1.0828-0.8938-1.0828-1.9863l0,0
				c0-1.0925,0.4873-1.9863,1.0828-1.9863l3.4387,2.4939c5.2577,3.8131,11.12,3.7006,16.333-0.3135l2.8316-2.1804
				c0.5955,0,1.0828,0.8938,1.0828,1.9863l0,0C118.6539,216.067,118.1667,216.9608,117.5712,216.9608z"/>
		</g>
	</g>
	<g>
		<g>
			<defs>
				<path id="SVGID_13_" d="M192.5801,173.5544L192.5801,173.5544c-5.2728-0.0005-10.5853,2.4601-15.0873,7.5451
					c-10.8403,12.2441-12.8654,35.0691-4.5232,50.9799c4.8779,9.3035,12.222,14.1841,19.6462,14.1841l0.6195-0.0787
					c-0.1,0-0.19,0-0.29,0c-0.85,0-1.78-0.0196-2.74-0.0489c-3.42-0.137-7.33-0.5383-10.09-1.5855
					c-2.69-1.0276-4.89-3.0633-6.86-5.0794c-2.41-2.4565-4.21-5.3437-5.67-8.4167c-7.74-16.2365-5.34-39.0107,5.36-50.8528
					c2.77-3.0731,5.84-5.1283,10.01-5.9407c1.81-0.3523,4.79-0.6264,7.39-0.734c1.17-0.0489,2.26-0.0685,3.13-0.0294
					c0.06-0.0098,0.12,0,0.17,0"/>
			</defs>
			<clipPath id="SVGID_14_">
				<use xlink:href="#SVGID_13_"  style="overflow:visible;"/>
			</clipPath>
			<g style="clip-path:url(#SVGID_14_);">
				<path style="fill:#BD9D19;" d="M188.116,236.9705l-51.8489,0.0468c-4.387,0-2.6944,1.0793-2.6944,1.769v6.3923
					c0,0.6897,3.5564,1.2489,7.9434,1.2489h40.7901c4.387,0,7.9434-0.5591,7.9434-1.2489v-6.3923
					C190.2495,238.0966,192.503,236.9705,188.116,236.9705z"/>
				
					<rect x="133.5727" y="228.5635" transform="matrix(-1 -4.499613e-11 4.499613e-11 -1 323.8221 466.017)" style="fill:#BD9D19;" width="56.6768" height="8.89"/>
				
					<rect x="133.5727" y="217.0639" transform="matrix(-1 -4.483537e-11 4.483537e-11 -1 323.8221 445.6502)" style="fill:#BD9D19;" width="56.6768" height="11.5224"/>
				<polygon style="fill:#BD9D19;" points="193.7165,173.2015 189.5008,172.9004 144.6864,173.9647 139.667,174.6223 
					135.9025,175.2799 136.1116,201.1647 192.7885,201.1647 193.2067,175.2799 				"/>
				
					<rect x="133.5727" y="200.6859" transform="matrix(-1 -4.480339e-11 4.480339e-11 -1 323.8221 418.0274)" style="fill:#BD9D19;" width="56.6768" height="16.6556"/>
			</g>
		</g>
		<g>
			<path style="fill:#C6B452;" d="M167.7769,213.0523l-4.6649-0.0332c0,0,0.1562-7.343,0.1562-8.9835
				c0-1.6405,0.4687-3.2028,0.4687-3.2028h4.5353c0,0-0.6249,3.9059-0.6249,5.9369S167.7769,213.0523,167.7769,213.0523z"/>
			<path style="fill:#D5C157;" d="M190.9435,173.271l-4.2175,0.2818c0,0-6.3424-0.1613-12.4698,4.9987
				c-3.8311,3.2262-7.5304,11.5987-8.6945,15.0558c-1.1926,3.542-2.2631,7.1813-1.935,7.215l4.6454,0.0105
				c0,0,2.6902-9.6654,5.0876-14.4121c2.5627-5.0742,7.2634-8.2859,9.327-10.0916S190.9435,173.271,190.9435,173.271z"/>
		</g>
		<path style="fill:none;stroke:#000000;stroke-width:0.7;stroke-miterlimit:10;" d="M193.2112,245.9846c-0.1,0-0.19,0-0.29,0
			c-0.85,0-1.78-0.0196-2.74-0.0489c-3.42-0.137-7.33-0.5383-10.09-1.5855c-2.69-1.0276-4.89-3.0633-6.86-5.0794
			c-2.41-2.4565-4.21-5.3437-5.67-8.4167c-7.74-16.2365-5.34-39.0107,5.36-50.8528c2.77-3.0731,5.6452-4.8392,9.8784-5.8063
			c1.7977-0.4107,6.5138-0.7614,9.1854-0.8408"/>
		<g>
			<path style="fill:#FFE988;" d="M207.3273,237.9735c10.5696-11.9385,12.5443-34.1934,4.4106-49.707
				c-8.1338-15.5137-23.2962-18.4121-33.8658-6.4727c-10.5695,11.9385-12.5443,34.1934-4.4105,49.7071
				C181.5953,247.0145,196.7577,249.913,207.3273,237.9735z"/>
		</g>
		<g>
			<path style="fill:#D9C26E;" d="M192.3687,179.931c6.137,0,12.2139,4.0405,16.2554,11.7412
				c6.9055,13.1572,5.2563,32.0166-3.6841,42.124c-3.7078,4.1919-8.0864,6.2202-12.4353,6.2202
				c-6.1372,0-12.2141-4.0405-16.2556-11.7417c-6.9055-13.1567-5.2563-32.0161,3.6841-42.1235
				C183.6409,181.9593,188.0198,179.931,192.3687,179.931 M192.3687,177.931c-5.1257,0-9.9438,2.3843-13.9336,6.895
				c-9.4299,10.6611-11.2051,30.5688-3.957,44.3784c4.2732,8.1421,10.8438,12.812,18.0266,12.812
				c5.1255,0,9.9436-2.3843,13.9333-6.895c9.4299-10.6606,11.2048-30.5688,3.957-44.3789
				C206.1218,182.6004,199.5513,177.931,192.3687,177.931L192.3687,177.931z"/>
		</g>
		<g>
			<defs>
				<path id="SVGID_15_" d="M173.015,231.7484c4.8779,9.3032,12.2221,14.1841,19.6463,14.1841
					c5.2728,0,10.5851-2.4595,15.0871-7.5449c10.8402-12.2441,12.8653-35.0688,4.5231-50.98
					c-4.8779-9.3037-12.2218-14.1836-19.646-14.1841c-5.2728-0.0005-10.5854,2.46-15.0874,7.5449
					C166.6979,193.0126,164.6728,215.8378,173.015,231.7484z M171.3278,205.8236c0.744-8.3862,3.6684-15.8452,8.2346-21.002
					c3.8061-4.2993,8.3487-6.5718,13.137-6.5718h0.0013c6.759,0.001,12.9959,4.5034,17.1117,12.3535
					c7.2539,13.835,5.4866,33.7529-3.9395,44.4004c-3.8058,4.2983-8.349,6.5703-13.1381,6.5703
					c-6.7585,0-12.9956-4.5024-17.1117-12.353C172.1093,222.5189,170.5838,214.2099,171.3278,205.8236z"/>
			</defs>
			<clipPath id="SVGID_16_">
				<use xlink:href="#SVGID_15_"  style="overflow:visible;"/>
			</clipPath>
			<g style="clip-path:url(#SVGID_16_);">
				<g>
					<path style="fill:#BD9D19;" d="M225.5557,208.3576l-51.267,38.6133c-0.0622,3.0569,2.2184,7.124,2.4405,7.7497l2.0582,5.7991
						c0.2221,0.6257,0.7477,0.8687,1.174,0.5428l48.3744-36.988c0.4263-0.326,0.5919-1.0975,0.3698-1.7232l-2.0582-5.7991
						C226.4253,215.9265,226.3462,210.7626,225.5557,208.3576z"/>
					<polygon style="fill:#D9C26E;" points="220.8707,202.9081 170.9526,241.0765 173.8244,248.7966 223.7426,210.6282 					"/>
					<polygon style="fill:#FFE988;" points="218.344,193.0372 168.4258,231.2056 171.7661,241.4268 221.6843,203.2585 					"/>
					<polygon style="fill:#FFE988;" points="205.5955,158.3298 204.948,158.1801 156.6248,195.091 156.3488,196.0605 
						156.1947,196.9369 164.5496,220.4041 214.4678,182.2357 206.1739,158.7218 					"/>
					<polygon style="fill:#F8F4D0;" points="214.1918,179.5303 164.2737,217.6987 169.3483,232.661 219.2665,194.4926 					"/>
				</g>
				<polygon style="fill:#FFFFFF;" points="166.5927,227.1944 217.2649,188.4494 216.8478,186.1522 166.1756,224.8971 				"/>
			</g>
		</g>
		<g>
			<path style="fill:none;stroke:#000000;stroke-width:0.7;stroke-miterlimit:10;" d="M192.5847,178.0255
				c-4.7882,0-9.2858,2.6277-13.0918,6.9269c-4.5662,5.157-7.4906,12.6158-8.2346,21.002s0.7814,16.6953,4.2952,23.3975
				c4.1161,7.8507,10.3532,12.3533,17.1118,12.3533c4.7892,0,9.3323-2.272,13.1382-6.5707
				c9.426-10.647,11.1932-30.565,3.9394-44.4004c-4.1158-7.8498-10.3711-12.7076-17.1302-12.7085H192.5847z"/>
			<path style="fill:none;stroke:#000000;stroke-width:0.7;stroke-miterlimit:10;" d="M192.5559,173.3542
				c7.4242,0.0005,14.7682,4.8806,19.6461,14.1841c8.3422,15.9113,6.3171,38.7358-4.5232,50.9804
				c-4.5019,5.085-9.8141,7.5446-15.0871,7.5446c-7.4242,0-14.7683-4.8806-19.6462-14.1841
				c-8.3422-15.9108-6.3171-38.7358,4.5232-50.9799C181.9706,175.8142,187.2831,173.3537,192.5559,173.3542L192.5559,173.3542z"/>
		</g>
		<g>
			<g>
				<path style="fill:#FFFFFF;stroke:#000000;stroke-width:0.7;stroke-miterlimit:10;" d="M196.1535,208.8683L196.1535,208.8683
					c-1.0316,0-1.8756-0.844-1.8756-1.8755v-7.6523c0-1.0316,0.844-1.8755,1.8755-1.8755h0c1.0315,0,1.8755,0.844,1.8755,1.8755
					v7.6523C198.0291,208.0243,197.1851,208.8683,196.1535,208.8683z"/>
				<path style="fill:#FFFFFF;stroke:#000000;stroke-width:0.7;stroke-miterlimit:10;" d="M188.7358,208.9051L188.7358,208.9051
					c-1.0316,0-1.8755-0.844-1.8755-1.8755v-7.6523c0-1.0315,0.844-1.8755,1.8755-1.8755l0,0c1.0316,0,1.8755,0.844,1.8755,1.8755
					v7.6523C190.6114,208.0611,189.7674,208.9051,188.7358,208.9051z"/>
			</g>
			<path style="fill:#FFFFFF;stroke:#000000;stroke-width:0.7;stroke-miterlimit:10;" d="M183.6323,215.7764l2.152,2.1804
				c3.9619,4.0141,8.4173,4.1267,12.4131,0.3135l2.6134-2.4939c0.4526,0,0.8229-0.8938,0.8229-1.9863l0,0
				c0-1.0925-0.3703-1.9863-0.8229-1.9863l-2.6134,2.4939c-3.9958,3.8131-8.4512,3.7006-12.4131-0.3135l-2.152-2.1804
				c-0.4526,0-0.8229,0.8938-0.8229,1.9863l0,0C182.8094,214.8826,183.1797,215.7764,183.6323,215.7764z"/>
		</g>
	</g>
</g>
</svg>
