<?xml version="1.0" encoding="iso-8859-1"?>
<!-- Generator: Adobe Illustrator 25.0.1, SVG Export Plug-In . SVG Version: 6.00 Build 0)  -->
<svg version="1.1" id="Assoziationen_x5F_Illustrationen"
	 xmlns="http://www.w3.org/2000/svg" xmlns:xlink="http://www.w3.org/1999/xlink" x="0px" y="0px" viewBox="0 0 695.2395 380.435"
	 style="enable-background:new 0 0 695.2395 380.435;" xml:space="preserve">
<g id="_x32__x5F_2_x5F_Reflexion_x5F_verlaengerter_x5F_Tastsinn">
	<g>
		<path style="fill:#F4C6A1;stroke:#000000;stroke-width:0.7;stroke-miterlimit:10;" d="M220.2858,149.1173l3.0813,12.7801
			c0,0,2.9755,3.4161,2.5377,6.2799c-0.4434,2.8638-0.9929,11.7872-1.874,12.0075c-0.8812,0.2203-2.2029,0-2.2029,0
			s-2.79,11.0721-11.7678,16.9115c0,0-1.4554,14.5995-0.5742,18.5648c0.8812,3.9681-24.4559,4.629-24.4559,4.629l-10.1391-14.3249
			c0,0,2.6463-1.9827,3.3072-5.0668c0.6637-3.0841,1.9854-9.0348,1.9854-9.0348s-2.426-2.2029-3.9709-6.1685
			c-1.4359-3.7016-1.5393-7.2725-1.5393-7.2725s-3.9656,1.1015-4.4061-4.8465c-0.4406-5.951,5.7279-31.5109,5.7279-31.5109
			l16.3073-9.9135l26.4414,10.1338L220.2858,149.1173z"/>
		<path d="M247.0594,268.2732c-2.1108,5.4365-2.8298,25.8787-2.4435,31.6978c0.67,10.0916,2.2644,11.146,2.6652,16.9641
			c-30.4397,12.0074-48.0115,12.6816-80.2532,7.0942c-0.6651-11.3064-6.5825-30.1168-6.8949-31.6807
			c-2.4168-12.099-4.323-16.6271-6.9834-24.2755c0.1504,0.8896-22.9194-22.2368-12.5034-41.035
			c4.6707-8.4294,11.6199-9.8363,16.368-13.3975c5.4265-4.0699,19.753-12.0815,20.0794-10.7597
			c0.3345,1.3218,10.4711,12.1192,21.3771,13.441s10.5769-1.3218,10.5769-9.2551c0,0,7.2696,3.9679,13.8845,4.9583
			c12.796,1.9162,17.8089,12.6852,20.1367,27.6496C243.1654,240.2947,251.9143,255.7691,247.0594,268.2732z"/>
		<path d="M554.4908,189.6662c1.3345,4.7567,3.002,13.155,0.3981,13.8856c-2.6039,0.7306-5.165-6.2065-6.4996-10.9631
			c-1.3346-4.7567-2.1423-10.2038,0.4617-10.9344C551.4549,180.9237,553.1562,184.9095,554.4908,189.6662z"/>
		<g>
			<path style="fill:#F4C6A1;stroke:#000000;stroke-width:1.3;stroke-miterlimit:10;" d="M584.4338,159.4463
				c0.4034-1.0351,0.9698-3.4169,1.3449-4.4626c0.181-0.5043,2.7095-4.2951,4.0067-5.5107c0.7097-0.6651,2.161-1.0054,3.1057-0.774
				c1.6669,0.4084,1.197,3.16,0.3874,4.6732c-3.7604,7.0285-5.3879,9.1255-6.1628,16.6012
				c-0.3165,3.0538-2.3064,10.0695-3.9905,12.6366c-1.7321,2.6403-6.0773,5.147-8.6461,6.9834
				c-9.0599,6.4768-17.2339,8.4226-26.2098,11.1735c-1.5448,0.4734-9.9,1.9868-11.9189,2.1128
				c-1.2121,0.0756,1.5392-2.9305,1.3338-3.2054c-4.0976-5.4832-2.1303-12.8418-1.6796-12.8771
				c2.7394-0.2142,18.8441-4.5847,21.0911-5.6982c2.1556-1.0682,4.0109-2.6521,5.402-4.6152
				c2.7706-3.9098,3.5284-8.8411,4.9914-13.4043c2.6973-8.4133,7.9774-15.9945,9.3768-24.7181
				c0.1646-1.0257,0.0925-2.415,1.0137-2.8952c0.4418-0.2303,1.4097-0.2452,1.9338-0.0284
				c1.0089-4.0325,1.3536-12.094,3.994-10.4842c0.2017-0.578,0.2289-1.6624,0.7666-2.3791c0.6857-0.914,2.0336-0.6104,3.1087,0.8012
				c0.8416,1.1049,0.8544,2.541,1.2705,2.8056c2.928,1.8624,2.0536,8.1267,1.6676,9.9036
				c-0.9777,4.5001-1.9147,8.3806-3.3088,12.7695c-1.0759,3.3873-1.1924,3.2005-1.6678,5.753L584.4338,159.4463z"/>
			<g>
				<path style="fill:none;stroke:#000000;stroke-width:0.9;stroke-miterlimit:10;" d="M588.359,124.9219
					c0.4572,4.4737-0.1494,8.5316-0.7643,12.2626c-0.5517,3.347-2.9578,13.4571-3.8319,15.5808"/>
				<path style="fill:none;stroke:#000000;stroke-width:0.9;stroke-miterlimit:10;" d="M583.2804,124.732
					c1.9753,0.7575,2.2167,2.2164,2.2451,4.1599c0.0272,1.8596-0.312,5.4515-0.7597,7.3599
					c-0.9752,4.1566-0.6573,6.3676-1.7286,10.2687c-0.5471,1.9922-0.709,4.44-1.4117,6.1102
					c0.2477-0.2088,0.6528,0.0342,0.9006-0.1746"/>
				<path style="fill:none;stroke:#000000;stroke-width:0.9;stroke-miterlimit:10;" d="M579.0839,158.9077
					c-4.8955,15.9147-2.277,20.7028-2.277,24.7c0,4.9881-5.9102,7.5247-9.3111,8.6461"/>
				<path style="fill:none;stroke:#000000;stroke-width:0.9;stroke-miterlimit:10;" d="M579.8842,135.4126
					c1.5288,3.3626,0.8379,5.2582,0.5437,8.3218c-0.1222,1.272-0.2443,2.5441-0.3665,3.8161
					c-0.3208,3.3408,0.1238,4.0267-1.1296,7.1401"/>
				<path style="fill:none;stroke:#000000;stroke-width:0.9;stroke-miterlimit:10;" d="M576.7679,138.4005
					c-0.3694,4.2513-1.2461,8.4584-2.6055,12.5034c-0.1277,0.3802-0.2608,0.7613-0.4565,1.1114
					c-0.1934,0.3461-1.0358,2.0488-1.2617,2.3747"/>
				<path style="fill:none;stroke:#000000;stroke-width:0.9;stroke-miterlimit:10;" d="M585.7371,163.1431
					c0,0-0.7657-3.1053-1.4108-3.9522"/>
				<path style="fill:none;stroke:#000000;stroke-width:0.4;stroke-miterlimit:10;" d="M583.8774,152.8147
					c-0.123-0.2577-0.5573-0.2699-0.6945-0.0194c0.2576-0.0471,0.5307-0.0929,0.7754,0.0005s1.1472,0.499,1.0383,0.7372"/>
			</g>
		</g>
		<path d="M178.6444,234.2648c0,0,31.148-1.1085,33.8083-1.1085c2.6603,0,18.6223,2.2169,23.9429,0.8868
			s78.4797-10.1979,101.0925-13.3016c35.754-4.9074,210.7523-38.741,210.7523-38.741s0.0939,6.7637,1.4089,11.3064
			c1.829,6.3183,5.2098,10.0871,5.2098,10.0871s-32.4227,7.8147-49.3823,10.8076c-8.0882,1.4273-58.0052,9.8596-64.2358,11.4172
			c-12.4149,3.1037-52.9326,10.9225-58.5272,11.9715c-5.3207,0.9976-131.0075,19.1022-140.9974,19.9525
			c-20.8392,1.7736-64.0696,6.9834-80.0316,2.9929C161.6848,260.5355,159.0245,242.9108,178.6444,234.2648z"/>
		<path style="fill:#007988;" d="M149.9574,221.0524c0,0,11.433,0.2345,21.2826,6.6508c9.7322,6.3399,44.9425,3.6795,46.5334,3.6795
			c2.6603,0,17.7355-0.4434,28.3768-1.3302c5.4655-0.4555,27.9334-1.3302,35.471-2.6603
			c3.5271-0.6224,35.9144-4.4339,35.9144-4.4339l39.0182-4.4339c0,0-40.0622,6.0865-50.5463,9.3111
			c-6.6675,2.0507-30.5897,3.7668-43.8953,5.764c-6.3514,0.9534-34.806,1.5519-42.787,2.217
			c-9.9914,0.8326-28.5985,1.3302-44.5605-2.6603C174.7648,233.1563,159.2686,223.7127,149.9574,221.0524z"/>
		<path style="fill:none;stroke:#000000;stroke-width:1.3;stroke-miterlimit:10;" d="M187.623,230.0526
			c0,0,30.1504,0.8868,32.8107,0.8868c2.6603,0,64.2913-3.1037,69.6119-4.4339c5.3206-1.3302,111.2904-11.5281,162.7234-23.9429"/>
		<g>
			<g>
				<path d="M202.7681,178.4768c-0.5005-0.3835,2.4232-0.6609,2.4775,0.4977c0.0245,0.5523-0.9221,0.1253-1.6509-0.1657
					C203.1488,178.6319,203.0399,178.6862,202.7681,178.4768z"/>
				<g>
					<path d="M203.097,190.5417c0,0-6.1139,0.1657-7.1065-0.4952c0,0,1.735,2.6435,3.4704,2.6435
						C201.1988,192.6901,203.097,190.5417,203.097,190.5417z"/>
					<path d="M188.6726,181.5506c0,0-1.3273,1.0469-1.4877,3.3044C187.1849,184.855,185.3108,181.0554,188.6726,181.5506z"/>
					<path d="M209.244,184.855c0,0-4.7681-0.1526-5.5947-0.1526c-0.8269,0-3.4161,0.6609-3.4161,0.6609s-1.969-1.1396-2.9755-1.1015
						c-2.8638,0.1114-7.2042-0.2971-7.2042-0.2971s1.0881,2.0773,9.9023,3.1066C204.5838,187.6118,209.244,184.855,209.244,184.855z
						"/>
				</g>
				<path d="M196.5822,178.0295c0.4406-1.2675,2.1458-1.0471,2.6463-0.3292c0.147,0.215-0.7015,0.0518-0.9954,0.2203
					C197.1997,178.5191,196.1826,179.18,196.5822,178.0295z"/>
				<path d="M209.8375,199.0005c0.1978-1.7805,0.1231-2.224,0.1231-2.224s-4.8809,3.4609-8.0193,4.2878
					c-4.5011,1.183-8.5455-0.1089-10.5772-0.8269c-2.8095-0.9926-10.4137-8.8145-10.4137-8.8145l-1.6482,4.8492
					c0,0,5.6597,5.6951,10.2452,7.9877c2.9752,1.485,6.4431,1.9829,11.2378,0.1632
					C205.5748,202.6064,209.8375,199.0005,209.8375,199.0005z"/>
			</g>
			<g>
				<path d="M222.4344,160.7959c0,0-2.0971-2.4614-3.5548-2.6435c-1.4577-0.1824-5.0531,0.3156-7.1881,0.8241
					c-1.9556,0.4704-4.0552,0.7316-5.4533,1.5719c-0.4133,0.2476,0.4952,2.3118,2.1486,1.8985
					c2.1216-0.5305,4.8195-1.3028,7.5176-2.0642C217.5824,159.9092,222.4344,160.7959,222.4344,160.7959z"/>
				<path d="M196.2816,159.0035c0.3453,0.0329,0.5793,0.381,0.476,0.7127c-0.457,1.4741-1.7189,1.6972-4.0742,1.3761
					c-2.6708-0.3643-6.7723-1.6181-8.9861-1.0931c-1.9827,0.4731-4.493,1.0931-4.493,1.0931s3.5793-2.9153,6.6798-3.2799
					c3.095-0.3646,3.7965,0.3345,5.3441,0.6094C192.4494,158.6364,195.0821,158.8921,196.2816,159.0035z"/>
				<path d="M218.1468,164.6753c0,0-0.862,0.0707-1.7624-0.1117c-1.0062-0.201-2.0739-0.4633-3.2054-0.4633
					c-2.1483,0-3.8564,0.4952-5.8418,1.6537c0,0,5.2355-1.1015,6.3913-0.718c1.1586,0.386,2.6559,0.6836,3.2625,0.5747
					C217.5948,165.4994,218.1468,164.6753,218.1468,164.6753z"/>
				<path d="M195.964,163.785c0,0-0.862,0.0707-1.7623-0.1117c-1.0062-0.201-2.0739-0.4633-3.2054-0.4633
					c-2.1483,0-3.8564,0.4952-5.8418,1.6537c0,0,5.2355-1.1015,6.3913-0.718c1.1586,0.386,2.6559,0.6836,3.2625,0.5747
					C195.412,164.6091,195.964,163.785,195.964,163.785z"/>
				<path d="M190.1533,165.3677c0,0.8052,0.7533,1.4605,1.6808,1.4605c0.9274,0,1.6807-0.6553,1.6807-1.4605
					c0-0.8076-0.7533-1.4604-1.6807-1.4604C190.9067,163.9073,190.1533,164.5601,190.1533,165.3677z"/>
				<path d="M212.5092,166.1579c0,0.8076,0.7561,1.4604,1.6835,1.4604c0.9274,0,1.678-0.6528,1.678-1.4604
					c0-0.8051-0.7506-1.4579-1.678-1.4579C213.2654,164.6999,212.5092,165.3527,212.5092,166.1579z"/>
			</g>
			<g>
				<path d="M214.5771,173.9214c-0.0707,0.2039,0.1685,0.503,0.5331,0.6718c0.3618,0.166,0.7071,0.1387,0.7751-0.0627
					c0.0627-0.2039-0.1768-0.503-0.5358-0.6717C214.9879,173.693,214.6423,173.72,214.5771,173.9214z"/>
				<path d="M200.2441,170.6849c0,0.1415,0.1905,0.2582,0.4189,0.2582c0.2284,0,0.4133-0.1167,0.4133-0.2582
					c0-0.1415-0.1849-0.2584-0.4133-0.2584C200.4346,170.4265,200.2441,170.5434,200.2441,170.6849z"/>
				<path d="M201.3781,172.0557c0,0.2039,0.2584,0.367,0.5876,0.367c0.3236,0,0.5874-0.1632,0.5874-0.367
					c0-0.2014-0.2637-0.3646-0.5874-0.3646C201.6366,171.6911,201.3781,171.8544,201.3781,172.0557z"/>
				<path d="M200.2168,168.7377c0,0.1412,0.1849,0.2582,0.4136,0.2582c0.2284,0,0.4133-0.117,0.4133-0.2582
					c0-0.1415-0.1849-0.2585-0.4133-0.2585C200.4017,168.4792,200.2168,168.5961,200.2168,168.7377z"/>
				<path d="M198.6123,170.4864c0,0.1985,0.2557,0.3562,0.5765,0.3562c0.3155,0,0.5712-0.1577,0.5712-0.3562
					c0-0.1958-0.2557-0.3562-0.5712-0.3562C198.868,170.1302,198.6123,170.2906,198.6123,170.4864z"/>
				<path d="M198.2586,173.0238c0,0.1443,0.1849,0.2584,0.4136,0.2584c0.2284,0,0.4133-0.1142,0.4133-0.2584
					c0-0.1415-0.1849-0.2585-0.4133-0.2585C198.4436,172.7653,198.2586,172.8823,198.2586,173.0238z"/>
				<path d="M199.303,173.6248c0,0.2069,0.2721,0.3754,0.6038,0.3754c0.332,0,0.6038-0.1685,0.6038-0.3754
					c0-0.2066-0.2718-0.3751-0.6038-0.3751C199.5751,173.2496,199.303,173.4181,199.303,173.6248z"/>
				<path d="M202.1315,173.837c0,0.1415,0.1877,0.2585,0.4164,0.2585c0.2284,0,0.4133-0.117,0.4133-0.2585
					c0-0.144-0.1849-0.2585-0.4133-0.2585C202.3192,173.5785,202.1315,173.693,202.1315,173.837z"/>
				<path d="M209.7902,172.2921c0,0.2175,0.3155,0.3944,0.7046,0.3944c0.3835,0,0.7015-0.1768,0.7015-0.3944
					c0-0.2147-0.318-0.3916-0.7015-0.3916C210.1058,171.9006,209.7902,172.0774,209.7902,172.2921z"/>
				<path d="M207.9326,173.962c0,0.2178,0.313,0.3944,0.7018,0.3944c0.3888,0,0.699-0.1766,0.699-0.3944
					c0-0.2147-0.3102-0.3916-0.699-0.3916C208.2457,173.5705,207.9326,173.7473,207.9326,173.962z"/>
				<path d="M206.2764,172.2921c0,0.2175,0.3183,0.3944,0.7018,0.3944c0.3916,0,0.7071-0.1768,0.7071-0.3944
					c0-0.2147-0.3155-0.3916-0.7071-0.3916C206.5947,171.9006,206.2764,172.0774,206.2764,172.2921z"/>
				<path d="M191.2825,171.0629c0,0.2203,0.3128,0.3943,0.7018,0.3943c0.3888,0,0.699-0.1741,0.699-0.3943
					c0-0.2147-0.3102-0.3916-0.699-0.3916C191.5952,170.6713,191.2825,170.8481,191.2825,171.0629z"/>
				<path d="M189.8357,172.7845c0,0.2175,0.3128,0.3916,0.699,0.3916c0.3916,0,0.7071-0.1741,0.7071-0.3916
					c0-0.2175-0.3155-0.3944-0.7071-0.3944C190.1484,172.3902,189.8357,172.567,189.8357,172.7845z"/>
				<path d="M185.8676,172.2921c0,0.2175,0.3155,0.3944,0.7043,0.3944c0.3891,0,0.7018-0.1768,0.7018-0.3944
					c0-0.2147-0.3128-0.3916-0.7018-0.3916C186.1831,171.9006,185.8676,172.0774,185.8676,172.2921z"/>
				<path d="M188.019,170.8698c0,0.2147,0.3128,0.3916,0.7016,0.3916c0.3891,0,0.699-0.1768,0.699-0.3916
					c0-0.2175-0.31-0.3943-0.699-0.3943C188.3318,170.4755,188.019,170.6523,188.019,170.8698z"/>
				<path d="M184.5458,169.4448c0,0.2175,0.3155,0.3916,0.7043,0.3916c0.3891,0,0.7018-0.1741,0.7018-0.3916
					c0-0.2178-0.3127-0.3944-0.7018-0.3944C184.8614,169.0504,184.5458,169.227,184.5458,169.4448z"/>
				<path d="M193.9235,174.944c0,0.2175,0.3155,0.3944,0.7043,0.3944c0.3891,0,0.7043-0.1768,0.7043-0.3944
					c0-0.215-0.3153-0.3918-0.7043-0.3918C194.239,174.5522,193.9235,174.729,193.9235,174.944z"/>
			</g>
		</g>
		<g>
			<path style="fill:#C2975D;stroke:#000000;stroke-width:1.3;stroke-miterlimit:10;" d="M147.1605,192.6684
				c0,0,2.1812,4.3789,5.1158,3.9982c1.5638-0.2041,2.6978-0.8104,3.4186-1.3326c-0.843,0.9845-1.5284,2.7279,1.4307,4.6643
				c0,0-2.2845,3.9789,2.3063,6.6442c4.5883,2.6653,5.3879,3.6172,5.3879,3.6172s-2.0807-4.6072-0.9792-6.1192
				c1.1015-1.5123,3.1303-2.6165,3.1303-2.6165s-2.9482,4.2728,1.3844,6.5492c2.7443,1.444,0,6.7748,0,6.7748
				c4.3705,0.5821,3.3481-10.4165,3.0596-11.8744c-0.2908-1.4549,1.9637-2.5483,1.9637-2.5483s1.0962,3.2771,2.8421,3.9327
				c1.5259,0.574,2.1868,2.1133,1.3109,4.444c-0.8728,2.3308,3.2067,7.2833,3.2067,7.2833
				c-1.3218-0.9436,1.0934-6.0215,1.7462-10.781c0.3534-2.5809-2.9128-2.3308-0.8731-6.6985
				c3.5383-7.5799-2.0726-7.7025-1.4552-12.2362c0.4542-3.3615,3.7804-4.463-0.5846-11.9452
				c-0.6066-1.0444-0.5551-3.2744-0.2777-5.5809c0.3645,0.3047,3.359,2.7254,5.5892,1.4145
				c2.377-1.3981,3.6091-5.1378,2.8775-7.7785c-0.7288-2.641,2.3118-5.7143,5.064-7.7214c2.758-2.0071,6.1223-4.2861,6.1223-8.741
				c0-4.8983,4.8058-5.6817,4.8058-5.6817l5.5374-1.4549c0,0,0.6364,0.987,5.8254,4.6615c3.4949,2.475,3.7859,3.4949,5.5349,7.8654
				c0.8567,2.1458,2.2191,8.7767,1.6752,13.4028c-0.4378,3.7124-0.4595,8.8828-1.0906,12.5269
				c-0.677,3.9001-2.5647,9.938-5.0261,13.0385l-3.9327,5.2436c0,0,4.0906,2.1052,1.7136,3.503
				c-2.3826,1.3953-5.7102,2.5738-3.068,5.8908c3.1608,3.968-0.2175,8.521-0.2175,8.521s2.6218,0,3.9082-3.4105
				c1.077-2.8585-0.4868-6.6497,0.2448-8.1673c0.5901-1.2265,4.1803-3.0053,4.1803-3.0053s-4.9581,2.7549-1.7028,5.9426
				c3.2529,3.1902,3.6879,1.9392,1.6019,3.6851c-2.0888,1.7434-0.2529,6.4158-0.2529,6.4158s-0.0735-2.9889,2.3717-4.9389
				c4.0795-3.2529,1.7949-5.6327,1.6153-7.2591c-0.1741-1.6262,2.4967-3.462,5.5538-3.6824
				c3.2147-0.2284,6.8046-4.561,5.2464-8.0832c-1.1613-2.6243-1.3028-5.4447-0.4052-7.2616c1.9336-3.8837,0.718-7.9852,0.718-7.9852
				s2.2355,0.2014,4.1229,0.6938c1.8877,0.4893,2.8449,0.5765,0.2966,3.889c-0.215,0.2774-0.4052,0.5576-0.5793,0.8405
				c-1.8712,3.0922-0.9519,5.4611-0.9519,5.4611s2.4859-6.2172,5.1564-7.2644c2.6708-1.0497,4.6128-1.1967,1.6509-4.0388
				c-2.9644-2.8393-5.8173-6.9569-5.8173-6.9569l-1.4688-2.524c0,0,3.095,2.3472,5.3578,2.2274
				c2.2684-0.1195,4.7921,0.4297,4.7053,1.3872c-0.0844,0.9572,0.9845-3.7751-1.1939-4.6128
				c-2.1784-0.8402-5.7496-0.5166-5.5483-2.7522c0.1986-2.2358-7.0252-4.3516-6.4757-6.8784
				c0.5439-2.5266,3.2637-4.0305,0.2746-6.5517c-2.9944-2.524-4.795-4.2889-4.795-4.2889s1.681-1.6509-1.4577-6.1167
				c-3.144-4.4685-9.4292-10.5281-15.1488-11.3631c-5.7223-0.8349-5.7223-0.8349-5.7223-0.8349s-1.1288-2.8312,3.1331-2.9538
				c4.2591-0.1195,8.741,5.2439,8.741,5.2439s-0.8703-5.8421-6.2663-8.1567c-4.0767-1.7487-9.1763,0.933-9.1763,0.933
				s-5.638-5.3333-8.6215-0.7723c-1.6181,2.4747-3.5303,0.359-7.4602,0.6199c-10.1717,0.6773-15.5623,7.085-15.5623,7.085
				s-3.4949,0.2203-6.5573,3.0596c-2.736,2.5458-2.453,4.8058-3.4974,6.2635c-1.1641,1.6345-3.8567,2.2575-5.8257,5.5346
				c-1.7816,2.9755-0.914,8.3469-0.914,8.3469s-0.1142,0.0354-0.3044,0.1006c1.0143,1.5259,0.386,3.2746,0.1576,5.3035
				c-0.2066,1.8005,0.4462,3.6854-0.0953,5.4151c0.0518-0.1796,0.117-0.4108,0.215-0.7536
				c-0.0872,0.3155-0.1579,0.6311-0.2231,0.9494c-0.1033,0.503-0.1468,2.7034-0.1849,0.6199
				c0.0381,2.1105-0.2612,4.0034-1.5939,5.7279c-0.0816,0.1033-0.193,0.193-0.2827,0.2935
				c1.9417,2.1188,3.4648,1.0226,2.8204,3.5874c0.628-0.068,0.1086,3.6063,0.1086,3.6063s-1.5883,2.8911-2.1949,6.0568
				c-0.6038,3.1632,1.6919,6.2663,1.6919,6.2663s2.4558,3.4542-2.0835,5.2873
				C149.7823,194.7435,147.1605,192.6684,147.1605,192.6684z M179.3022,168.7675c0.4297-3.4704,1.3599-7.0903,1.3599-7.0903
				l1.7515,1.0934c0,0,2.9591,2.0587,2.1756,3.5982C183.8496,167.8292,179.7264,168.6831,179.3022,168.7675z"/>
			<g>
				<path d="M210.431,196.8243c0,0,9.1996-10.2629,9.776-16.5169c0.4869-5.2825,0.2883-14.2759,0.2883-18.6467
					c0-4.3705,3.4974-13.4028-11.2052-22.7802c0,0,7.7947-0.6392,12.8506,7.8654c5.0559,8.5045-1.4034,13.1608,2.9892,21.3197
					c2.2001,4.0825,2.9371,8.2327,2.8284,11.8772c-0.1033,3.6417-3.7099,5.9724-4.8765,8.0097
					c-1.0254,1.7949,0.1551,7.6668-1.9665,10.0519c-2.7006,3.0354-6.0295,3.2883-6.2579,3.9519
					c-0.4052,1.1831-0.0788,3.3699-0.1877,3.9138c-0.1089,0.5467,1.6225,4.432,1.6225,4.432s-5.9752,4.9166-5.861,3.9321
					c0.1089-0.982,2.8187-5.7398,1.3992-7.271c-1.4198-1.5284-3.221-4.7148-1.7702-6.5284c0.2968-0.3709,1.5829-0.477,1.3601-2.2257
					C211.2052,196.4604,210.431,196.8243,210.431,196.8243z"/>
				<path d="M186.9201,136.604c4.3407-3.3726,10.9197-2.0534,10.9197-2.0534c-1.7459,0.291-7.2833-0.5849-9.3231,4.9526
					c-2.0372,5.5346,3.171,5.6215-1.1586,8.0258c-1.9693,1.0934-3.2802,1.749-3.2802,3.2774c0,1.5312,2.4099,2.0369,0.2203,3.4974
					c-4.588,3.0599-1.6671,8.0289,0.215,9.6144c0,0-7.2073-2.1868-6.1139-6.337c1.0878-4.1502,3.7096-1.3109,2.6218-4.5883
					c-1.0934-3.2771-1.9665-5.6814,2.6218-7.6479C188.2285,143.3788,184.8775,138.1923,186.9201,136.604z"/>
				<path d="M239.3156,181.7885c-0.0543-0.4648,0.6256-3.2273,0.4326-3.5835c-1.3354-2.4967-7.3306-1.9716-6.3678-2.9452
					c4.1884-4.2237,0.9554-11.5591,0.9554-11.5591s4.1477,5.7903,5.8992,7.5362c1.7459,1.7487,5.3093,4.8488,5.0158,6.5948
					l-2.1762,1.187L239.3156,181.7885z"/>
				<path d="M178.3993,128.9561c0,0-10.2697,4.8083-10.0522,7.2126c0.2175,2.4015,0,2.4015-2.4043,5.0233
					c-2.4043,2.6246-6.5545,3.0599-5.2436,5.6817c1.3109,2.6218,0.7642,5.3361-3.862,9.6876
					c-2.475,2.3308-0.0707,5.3904,2.7686,9.5409c2.8421,4.153-3.7152,7.4301-3.0568,10.49
					c0.6525,3.0568,3.2743,2.6218,3.0568,8.9588c-0.0816,2.4015,4.153,6.1167,1.7462,9.8316
					c-2.4043,3.7152-4.368,6.1195-4.368,6.1195s-1.7515-3.4977-1.7515-4.3705c0-0.8759-4.803-0.4381-4.803-0.4381l-3.1094-3.826
					c0,0,7.7775,1.5193,7.1222-1.9784c-0.6581-3.4949-1.9784-8.3093-1.9784-8.3093l1.6044-6.79c0,0-4.2945,1.6752-4.0795,4.7351
					c0.2231,3.0596-1.9581,4.8874-2.6218,5.6082c-1.5259,1.6752-7.5719,0-7.5719,0s7.795-2.331,6.9191-4.7351
					c-0.8731-2.4043,2.6218-8.3035,2.6218-8.3035s-1.3869-2.8393,0.0735-7.2101c1.8384-5.5182,3.6417-5.3904,3.6417-5.3904
					l0.1089-5.4257c0,0-1.9203,1.485-2.2957,2.1837c-0.6091,1.1505-0.8756,5.1378-0.8756,5.1378s-2.2467-3.6528-2.1812-6.337
					c0.0652-2.6873,5.57-5.4639,5.57-5.4639s1.2293-6.8675,2.5129-8.9588c1.2892-2.0943,7.8682-5.8992,7.8682-5.8992
					s2.184-3.2774,4.8058-4.153C171.1865,130.7048,178.3993,128.9561,178.3993,128.9561z"/>
				<path d="M173.3785,200.4251c0,0,1.5231-1.9827,1.3056-4.3869c-0.1905-2.0643-1.991-1.5501-2.9103-3.4431
					c-0.1521-0.3103-0.2774-0.6854-0.3671-1.1452c-0.6553-3.2771-1.9662-8.3032-1.9662-7.4301
					c0,0.8756,0.6798,11.3929-1.9693,12.6737c-6.772,3.2774-3.9283,8.44-3.9283,8.44l3.4278-3.6097c0,0-1.695,1.5152-0.8559,4.0054
					c1.2899,3.8278,3.4134,14.0028,5.1438,8.7049c0,0,0.8036-3.8847,0.363-7.3796
					C171.1865,203.3597,173.3785,200.4251,173.3785,200.4251z"/>
			</g>
		</g>
	</g>
</g>
</svg>
