<?xml version="1.0" encoding="iso-8859-1"?>
<!-- Generator: Adobe Illustrator 25.0.1, SVG Export Plug-In . SVG Version: 6.00 Build 0)  -->
<svg version="1.1" id="Assoziationen_x5F_Illustrationen"
	 xmlns="http://www.w3.org/2000/svg" xmlns:xlink="http://www.w3.org/1999/xlink" x="0px" y="0px" viewBox="0 0 618.6378 380.435"
	 style="enable-background:new 0 0 618.6378 380.435;" xml:space="preserve">
<g id="_x32__x5F_9_x5F_Absorption_x5F_Sehen">
	<g id="Ebene_1">
		<g>
			<g>
				<path style="fill:#007988;" d="M300.217,143.6854c-7.3594,8.5703-15.5313,16.5322-22.1358,25.6377
					c-7.6894,10.6005-9.2919,22.5761-3.6054,35c6.5781,14.374,17.8877,20.0478,33.2441,16.3662
					c2.3545-0.5655,4.8018-1.209,6.877-2.3916c15.3154-8.7276,27.6504-20.2813,34.3164-37.0459
					c0.3154-0.792,0.5576-1.6289,0.6953-2.4678c0.0596-0.3643-0.2354-0.7861-0.6826-2.1084
					c-1.1905,1.751-2.2793,2.9082-2.8643,4.2813c-5.1494,12.0751-13.8271,21.3535-23.6865,29.5937
					c-8.0615,6.7393-17.4141,9.5625-28.0039,8.2246c-5.5371-0.7002-9.7188-3.3633-12.7686-7.8066
					c-7.0146-10.2207-8.997-21.3018-4.6201-33.0616c1.5869-4.2646,3.9736-8.2431,6.1533-12.2666
					c0.6641-1.2265,1.8575-2.1669,2.8086-3.2382c0.3565,0.2334,0.7129,0.4668,1.0694,0.6992
					c-0.6524,1.4707-1.3301,2.9316-1.9512,4.416c-1.9873,4.7461-4.4141,9.3662-5.8438,14.2764
					c-4.9765,17.0966,1.9258,25.7353,19.3829,28.0371c3.9687,0.5224,8.9062-0.4649,12.3173-2.5362
					c17.7373-10.7744,30.1338-25.7675,34.2735-46.665c2.6152-13.2012-1.9248-23.7197-12.3897-31.7207
					c-17.4218-13.3193-38.164-12.5215-54.584,2.0283c-7.5957,6.7305-15.8535,12.9834-22.2226,20.7539
					c-6.5537,7.9961-11.3692,17.4649-16.5733,26.5039c-3.7832,6.5703-6.8349,13.5576-10.4316,20.2412
					c-8.2187,15.2696-8.4004,30.6905-0.9736,46.21c6.7793,14.1689,17.7861,24.3164,31.5732,32.6592
					c-0.2051-4.4483-3.2568-5.9444-5.6182-8.0264c-5.666-4.998-12.0292-9.4746-16.6777-15.3047
					c-11.5508-14.4853-13.8428-31.0371-8.3808-48.6875c0.164-0.5283,0.4541-1.0351,0.7734-1.4892
					c0.125-0.1768,0.4951-0.1817,1.2148-0.4131c0.0713,0.9765,0.3536,1.8867,0.1661,2.6875
					c-5.6817,24.2558,3.5585,43.0918,21.2636,58.9092c5.5489,4.957,11.1172,9.9043,16.4492,15.0888
					c6.1387,5.9688,13.5928,9.5801,21.5323,12.1094c8.4453,2.6904,17.1123,4.6807,25.6611,7.0527
					c4.4277,1.2295,8.7559,2.6993,10.6816,7.5342c-0.3925,0.3008-0.6513,0.6338-0.7929,0.5899
					c-10.5215-3.2578-21.0039-6.6407-31.5508-9.8086c-19.4043-5.8291-36.1992-16.5166-52.0879-28.5908
					c-8.8506-6.7247-13.7793-16.7032-18.1641-26.7676c-0.7265-1.666-1.457-3.3301-2.1865-4.9942
					c-0.3935,0.0869-0.7871,0.1748-1.1806,0.2627c0.5546,3.2051,0.8134,6.4961,1.7187,9.5987
					c2.8867,9.8964,9.3105,17.414,17.2607,23.5332c19.5459,15.0449,40.5606,27.4668,64.4629,34.3574
					c4.3897,1.2656,8.9659,1.8691,13.42,2.9316c1.4648,0.3496,2.8144,1.1826,4.2168,1.7949c-0.1778,0.5831-0.3555,1.167-0.5333,1.75
					c-7.5996-1.373-15.3115-2.3076-22.7763-4.2089c-16.9395-4.3145-31.4473-13.6055-45.6914-23.3223
					c-2.6006-1.7754-5.1699-3.6387-7.9336-5.124c-19.2686-10.3565-27.1192-27.1543-27.0283-48.2373
					c0.0527-12.086,3.3789-23.4629,8.788-34.2539c4.8711-9.7188,8.9219-19.9414,14.6661-29.1065
					c8.4326-13.4541,17.5293-26.6416,31.6767-35.083c1.085-0.6484,2.2129-1.2266,3.3213-1.8379
					c-0.4004-0.5722-0.7998-1.1445-1.1992-1.7168c-1.0586,0.3262-2.3359,0.378-3.1406,1.0205
					c-6.002,4.792-12.4785,9.169-17.6934,14.7198c-5.5547,5.9111-9.8047,13.0341-14.7871,19.5009
					c-2.7871,3.6172-6.001,6.9034-8.8516,10.4756c-2.7588,3.4571-5.6904,6.8692-7.8584,10.6904
					c-5.0781,8.9532-9.5078,18.1006-11.6162,28.4434c-3.1074,15.2432-9.1289,29.2705-21.3886,39.7647
					c-0.1407,0.1211-0.0821,0.4726-0.1661,1.0527c7.7403-4.0293,13.002-10.1836,16.17-17.8223
					c3.2812-7.915,5.2568-16.375,8.5888-24.2636c4.7198-11.1768,10.1338-22.0616,15.3408-33.0284
					c0.4551-0.959,1.5704-1.6045,2.379-2.3955c0.3593,0.2393,0.7177,0.4785,1.0771,0.7178
					c-0.7764,1.7119-1.4131,3.5029-2.3486,5.1221c-6.9844,12.0849-13.1758,24.4472-15.252,38.5019
					c-2.1777,14.7354-1.5566,28.8906,7.669,41.5684c-4.9014-0.041-6.2745-2.3906-9.8213-12.9746
					c-1.8555-5.5371-3.7608-10.8496-1.8936-16.8321c-0.5771-0.1201-1.1533-0.2402-1.7305-0.3593
					c-1.3583,4.0371-3.0546,7.998-3.9716,12.1318c-0.7989,3.6025-0.4883,7.4424-1.1504,11.0889
					c-0.2256,1.2402-1.7344,2.8291-2.9746,3.2011c-4.4619,1.3399-9.0782,2.1543-13.5996,3.3106
					c-3.2891,0.8398-6.5215,1.9043-9.9922,2.3818c6.3125-6.2285,17.3056-4.4101,22.1269-13.1484
					c-7.4551,4.289-15.0791,7.9365-25.2744,8.3291c13.1787-9.1113,26.0967-17.0098,29.3496-33.2344
					c-3.8779,5.6387-7.5908,11.4004-11.6797,16.8818c-4.2011,5.6309-9.5605,9.7725-16.7841,11.1885
					c-0.0372-0.4306-0.1387-0.791-0.0616-0.834c15.8057-8.8847,24.7354-23.4003,30.6123-39.6386
					c8.9209-24.6426,23.4551-45.4317,41.0039-64.4453c1.2002-1.3008,2.1524-2.8311,3.2207-4.2539
					c-0.289-0.3467-0.5781-0.6924-0.8671-1.0381c-1.2315,0.8291-2.6739,1.4619-3.6631,2.5175
					c-18.1621,19.3916-34.0352,40.1944-42.1114,66.0889c-3.2461,10.4082-7.4531,20.6192-15.6562,28.2842
					c-3.6475,3.4072-8.1777,5.8691-12.8076,8.1533c11.082-8.873,21.1191-18.2793,23.5547-33.2334
					c-3.2598,5.6104-6.3233,11.3457-9.8321,16.7949c-3.6211,5.626-8.4775,9.9414-14.9218,12.0303
					c4.498-5.7529,8.9785-11.4824,13.4589-17.2129l-0.1552,0.1485c6.9707-8.1739,13.4814-16.6182,17.6279-26.6915
					c8.793-21.3662,21.3271-40.4599,38.666-55.5966c9.3106-8.1289,19.1553-16.4287,31.6582-20.1309
					c4.2227-1.251,8.1494-3.4775,12.25-5.166c19.9356-8.2119,42.8262-2.5479,54.5508,13.6504
					c6.5937,9.1084,8.3838,18.9346,5.3125,30.0928c-5.0928,18.4921-16.418,32.2705-31.3184,43.3984
					c-10.789,8.0586-19.4306,7.8662-30.7949,0.5234c-0.3144-0.2031-0.7764-0.1787-2.5039-0.539
					c1.4961,2.0459,2.1817,3.5136,3.3115,4.4365c5.8545,4.7842,12.833,5.085,19.6006,3.4014
					c4.7305-1.1778,9.5469-3.3926,13.4278-6.3291c9.7861-7.4063,17.5029-16.8536,24.0839-27.2061
					c5.5069-8.6611,7.586-18.585,9.3379-28.3691c1.7207-9.6114-3.0908-17.7139-9.7656-24.1836
					c-15.1621-14.6944-32.7256-19.0869-53.3516-12.7276c-24.3564,7.5088-44.1093,21.4102-60.7793,40.2784
					c-4.6455,5.2587-9.3691,10.4755-14.3935,15.3652c-8.5371,8.3086-14.292,18.5556-20.7949,28.331
					c-4.9756,7.4815-10.71,14.462-16.2119,21.585c-0.8321,1.0771-2.2315,1.7148-3.3682,2.5566
					c-0.2949-0.2841-0.5908-0.5683-0.8858-0.8515c0.6055-1.0039,1.1543-2.0469,1.8233-3.0059
					c7.875-11.2715,15.5019-22.7295,23.7139-33.751c15.1211-20.2929,32.2451-38.8369,52.0009-54.6601
					c14.167-11.3477,30.5362-18.9043,48.6143-21.4443c30.9824-4.3555,55.9326,15.9345,59.4043,46.9824
					c2.6543,23.75-5.9072,42.1933-23.8926,57.4209c-12.293,10.4092-25.8115,15.4941-41.8291,14.372
					c-13.3818-0.9384-24.5351-11.3564-25.4717-24.7392c-1.2842-18.3623,3.0674-34.9854,16.377-48.5069
					c3.8193-3.8798,7.6152-7.7851,11.376-11.7207c1.1298-1.1826,2.1084-2.5097,3.1572-3.7695
					c-0.2344-0.3584-0.4678-0.7168-0.7012-1.0752c-1.0078,0.376-2.2656,0.4863-2.9863,1.167
					c-10.0059,9.4629-20.1094,18.9043-25.7266,31.8731c-5.2226,12.0537-6.6015,24.622-3.4287,37.4003
					c2.9151,11.7383,10.8712,19.2623,21.2803,23.9263c16.4786,7.3848,42.3309,2.1224,54.3075-11.3903
					c0.7539-0.8505-1.8104-2.4637-1.6806-4.2069c-12.8964,12.1045-24.8424,17.7443-42.2536,14.5802
					c-0.0966-0.3896,1.9273,0.3886,1.8306,0c1.9639-0.208,3.523,0.1026,5.4918,0c24.6524-1.292,43.6179-17.6714,53.4939-40.273
					c4.0078-9.1709,7.1017-18.1426,10.17-27.6622c4.2803-13.2773,1.9917-27.7963-6.102-39.4594
					c-9.833-14.167-23.738-22.8057-39.6346-28.916c-17.3164-6.6563-34.5937-2.6924-50.123,5.9453
					c-18.9942,10.5654-37.1104,22.7109-55.6074,34.1719c-1.8067,1.1201-1.1018,1.2657-3.3196,2.63
					c-0.4316-4.0801,3.676-3.8919,5.8986-5.2884c11.3985-7.1631,20.2058-12.7707,31.7302-19.7297
					c7.1114-4.2939,14.0883-7.6558,21.2982-11.7838c24.1075-13.8008,46.5224-15.5137,69.1406,0.749
					c9.6211,6.917,18.3067,14.7442,24.5547,24.9473c6.2187,10.1562,8.1309,20.9599,4.6846,32.5508
					c-1.3467,4.5283-1.919,9.3652-3.7979,13.6425c-8.6396,19.6739-15.6816,40.3711-32.9238,54.8926
					c-17.5645,14.794-47.4644,11.8927-62.8199-5.163c-10.4375-11.5937-9.3359-24.8897-6.5088-39.256
					c3.6835-18.7109,15.3986-33.728,29.8996-45.3579 M356.4142,161.2259c-0.5-0.0498-1.0009-0.0996-1.5009-0.1494
					c-0.3643,3.5449-0.8604,7.081-1.0713,10.6357c-1.3994,23.623-23.1524,48.7871-46.3897,52.8984
					c-16.0322,2.8369-27.1142-1.8144-32.874-16.2754c-0.5127-1.2861-1.4404-2.4072-2.1748-3.6054
					c-0.5518,0.2676-1.1025,0.5351-1.6533,0.8027c1.0908,3.0586,1.7783,6.3438,3.3437,9.1348
					c6.1241,10.9189,17.8409,15.9687,32.3877,12.7041c25.585-5.7422,41.5264-22.416,49.5616-46.8584
					C358.0793,174.3196,357.9561,167.6507,356.4142,161.2259z"/>
				<path style="fill:#ED5792;" d="M362.2774,94.6194c-8.081-4.0303-16.2285-7.9258-24.4101-11.747
					c-3.3145-1.5489-6.6221-3.4239-10.041-4.7188c-3.003-1.1377-6.1016-0.5127-9.1045-1.3057
					c-2.6807-0.7089-5.3692-2.1767-8.1514-2.1718c-3.0166,0.0048-6.2559,0.4765-9.3242,0.5869
					c-7.0264,0.2539-14.0498,0.5879-21.0742,0.8779c-2.1211,0.0879-4.2403,0.2129-6.3594,0.3213
					c-0.0967-0.5566-0.1934-1.1133-0.2901-1.6699c1.5909-0.5674,3.1426-1.3057,4.7784-1.6739
					c15.6855-3.5341,31.3076-2.3593,46.8925,0.754c0.1407,0.0273,0.293,0.0273,0.4209,0.0839
					c14.1143,6.2452,28.8584,11.3965,42.167,19.0459c13.251,7.6182,19.7901,21.4336,23.3614,37.251
					c2.3125,10.2402,2.6972,20.9297,3.7441,31.4395c0.6387,6.4013,0.7666,12.8525,1.3584,19.2597
					c0.7451,8.0586,0.7197,15.9805-1.8838,23.793c-3.5732,10.7217-6.8848,21.5303-10.3867,32.2754
					c-0.5059,1.5508-1.4561,2.956-2.2002,4.4277c-0.3691-0.0967-0.7383-0.1933-1.1084-0.291
					c0.2871-1.375,0.498-2.7715,0.8721-4.1221c3.6728-13.2353,7.9111-26.3466,10.8369-39.7451
					c1.4629-6.6992,0.7637-13.9238,0.6416-20.9043c-0.1777-10.1611-0.4824-20.8017-2.8438-30.6836
					c-0.9736-4.0752-1.6152-8.3769-2.0615-12.6103C386.4796,117.6243,376.3604,101.6429,362.2774,94.6194z M334.7766,85.0979
					c7.5419,3.4746,15.2158,6.6875,22.6025,10.4629c10.5771,5.4053,18.0225,13.8877,23.0605,24.6348
					c6.0655,12.9404,9.045,26.501,8.9786,40.7773c-0.0157,3.4327-0.1788,6.9649,0.5205,10.2832
					c3.038,14.4248-0.0059,28.1885-4.0332,41.8858c-3.7061,12.6074-7.4219,25.2138-11.1924,37.8027
					c-1.6123,5.3867-3.8174,10.4522-9.2578,13.6153c2.6445-5.587,5.29-11.1749,7.9345-16.7627
					c-0.5068-0.2373-1.0146-0.4747-1.5224-0.712c-6.4795,9.5215-10.834,20.1993-15.6524,30.7071
					c-0.8769-5.6973,0.7637-10.7207,3.3828-15.4278c3.8985-7.0088,8.167-13.8154,11.9737-20.872
					c10.4345-19.3448,16.3633-39.9307,16.4345-62.0342c0.004-1.5957-0.4384-3.1914-0.6728-4.7881
					c-0.4268-0.0137-0.8535-0.0283-1.2803-0.042c-0.2471,1.4004-0.707,2.8008-0.707,4.2012
					c0.0039,13.3457-2.6299,26.3105-7.1299,38.7051c-6.5918,18.1572-13.5107,36.2461-26.0361,51.5107
					c-4.583,5.5859-7.084,12.127-5.1944,19.6348c0.1338,0.5322,0.0498,1.1328-0.0107,1.6933
					c-0.0273,0.2549-0.2441,0.4903-0.377,0.7324c-3.4472-2.497-4.8378-7.2958-2.5712-12.5107
					c1.9736-4.542,4.7392-8.8066,7.5927-12.8857c9.75-13.9327,18.291-28.4239,22.2442-45.1924
					c0.1875-0.7959,0.2509-1.6211-0.2852-2.711c-0.876,1.5684-1.9023,3.0733-2.6055,4.7159
					c-6.9961,16.3506-14.455,32.4287-24.8164,47.0283c-5.7422,8.0898-8.3886,16.918-3.7978,26.8105
					c-4.3545-3.5761-5.9444-8.041-5.3584-13.2802c0.834-7.4522,5.2861-13.1729,9.3232-19.0889
					c4.0303-5.9082,8.1074-11.79,11.9424-17.8242c1.3203-2.0762,1.9746-4.5752,2.9336-6.8809
					c-0.3594-0.209-0.7178-0.418-1.0771-0.626c-0.7227,0.8741-1.5577,1.6787-2.1485,2.6338
					c-2.5596,4.1426-5.081,8.3096-7.5576,12.503c-5.7812,9.7919-14.0098,16.5097-24.8711,19.9697
					c-0.9053,0.2871-1.7685,0.7051-2.9131,1.1699c4.252,1.4873,5.5586,1.0664,15.5674-4.7793
					c-0.0947,6.3008-2.4209,9.7949-8.3477,12.3477c1.1797,1.5078,2.3301,2.9795,3.4805,4.4511
					c-0.2148,0.3838-0.4287,0.7686-0.6426,1.1524c-5.3642-0.9707-9.8505-6.5186-16.7089-3.874
					c7.8125,3.9287,16.9687,4.4736,21.1875,12.7802c0.5703,1.1231,0.4707,2.586-0.1817,4.2793
					c-0.7578-0.7207-1.5566-1.4013-2.2676-2.166c-5.8457-6.2871-12.9853-10.3906-21.3798-11.9844
					c-14.4952-2.7509-27.6124-8.5449-39.3008-17.455c-7.0518-5.375-14.4278-10.5411-20.5528-16.8711
					c-13.2295-13.6739-17.2461-29.9883-12.6347-48.75c4.6123-18.7647,13.1123-35.3418,25.206-50.252
					c1.0391-1.2812,1.5371-3.001,2.2862-4.5176c0.8144,0.7051,1.6298,1.4102,2.4443,2.1153
					c-1.1563,1.7529-2.252,3.5498-3.4785,5.2519c-9.503,13.2031-17.5283,27.1875-22.5664,42.7403
					c-3.628,11.2001-2.1875,21.9375,4.0595,31.75c7.8135,12.2734,16.3204,24.1289,30.6924,29.5556
					c16.6699,6.294,33.5987,5.6709,50.0157-0.4902c5.3378-2.0029,10.4716-6.2451,14.1171-10.7451
					c12.2032-15.0625,22.9082-31.1817,29.5508-49.6055c1.252-3.4727,1.959-7.168,2.6572-10.8096
					c1.0508-5.4804,1.7754-11.0224,2.8116-16.5068c3.0068-15.917-1.2129-30.5117-8.7139-44.2168
					c-13.6592-24.957-35.2139-38.5186-63.3818-40.1123c-11.585-0.6553-23.4639,1.334-34.9942,3.3496
					c-5.6894,0.9951-11.0498,4.5-16.2676,7.3945c-4.6171,2.5606-8.7578,5.9639-13.246,8.7793
					c-3.2325,2.0283-6.6895,3.7012-10.0469,5.5323c-0.3311-0.3516-0.6621-0.7032-0.9922-1.0547
					c0.9726-1.1114,1.7627-2.4961,2.9492-3.291c7.4942-5.0176,14.9121-10.1856,22.6709-14.7686
					c11.0322-6.5156,23.4697-7.9268,35.96-8.9248c14.042-1.1211,27.4599,0.5908,40.8496,5.6475
					c27.6162,10.4296,49.9101,38.5205,48.8965,68.0625c-0.7891,23.0117-3.8653,46.3759-18.1797,66.1806
					c-5.2012,7.1953-10.4512,14.4151-14.9112,22.0703c-6.4814,11.1289-16.1855,16.584-28.5107,18.2901
					c-2.3691,0.3271-4.7227,0.7763-7.0371,1.7187c4.748,2.6875,9.3555-1.1435,14.0283-0.5713
					c0.1182,0.4278,0.2373,0.8555,0.3555,1.2832c-2.2539,0.6895-4.5196,1.9961-6.7588,1.9512
					c-5.9775-0.1211-11.9609-0.668-17.9092-1.3389c-4.7558-0.5351-9.4639-1.5-14.1924-2.2744
					c-0.1504,0.3711-0.2988,0.7422-0.4482,1.1133c1.3096,0.9268,2.4932,2.2705,3.9502,2.7168
					c15.2363,4.6641,30.1162,5.8047,43.6972-4.8525c7.4737-5.8653,12.1211-13.961,17.7403-21.3721
					c8.2138-10.832,15.1943-22.377,21.9892-34.0615c1.9659-3.3799,3.4346-7.2676,4.1612-11.1065
					c2.0439-10.8017,3.7734-21.6738,5.2773-32.5654c2.3877-17.2949-2.6084-32.9678-11.7119-47.377
					c-9.8271-15.5517-23.9658-25.0097-41.1973-31.9921c-22.4765-9.1084-44.1855-5.2608-66.1982-0.8448
					c-7.2764,1.459-14.7129,3.9824-20.0117,10.0957c4.5703-6.5175,10.2636-11.3867,18.1826-13.4121
					c14.835-3.7939,29.8682-5.2851,45.1504-4.3906c4.249,0.248,6.9072,0.3965,10.8691,2.1582
					C325.1964,82.385,330.2491,83.012,334.7766,85.0979z M332.0216,277.5667c-0.1367-0.1865-0.2735-0.3721-0.4102-0.5576
					c-5.1484,0-10.2978-0.0489-15.4453,0.0088c-15.1514,0.1689-28.0986-4.8057-40.584-13.7452
					c-12.8515-9.2011-23.0137-20.0185-30.3633-33.7783c-0.5175-0.9678-1.2109-1.8428-1.8222-2.7607
					c0.5722,8.1133,3.8222,15.0342,9.3691,20.2656c8.2051,7.7412,17.1318,14.7168,25.7149,22.0606
					c13.5488,11.5947,29.8886,11.8261,46.3466,11.2216C327.256,280.1927,329.6252,278.511,332.0216,277.5667z"/>
				<path style="fill:#6CA342;" d="M298.2433,191.1643c2.0313-2.333,3.7608-5.0517,6.1514-6.9287
					c7.1338-5.5966,11.3477-13.2021,15.1426-21.0976c1.0195-2.1211,1.584-4.6426,1.6514-7.001
					c0.1318-4.5938-3.7471-7.1318-7.8955-5.0791c-2.2188,1.0986-4.3145,2.9131-5.8262,4.8936
					c-7.0977,9.3037-12.3916,19.6025-15.8672,30.7832c-0.6211,2.0009-0.7539,4.2275-0.6934,6.3369
					c0.0323,1.0898,0.9854,2.1533,2.0127,4.2109c1.4942-16.2998,8.7793-28.6152,17.7393-40.0703
					c1.4355-1.835,5.0127-4.0918,6.3769-3.4707c3.3858,1.541,1.5176,4.9912,0.5088,7.5371
					c-2.8134,7.1025-7.4892,12.9463-12.4297,18.5723c-0.5322-0.3077-1.0634-0.6162-1.5957-0.9239
					c4.1944-6.9101,8.3897-13.8203,12.584-20.7304c-0.3935-0.2891-0.7861-0.5782-1.1797-0.8662
					c-1.0547,1.0048-2.4463,1.8271-3.1103,3.0449c-5.4619,10.0273-10.8721,20.0849-16.0606,30.2549
					c-0.7226,1.417-0.1533,3.4941-0.1826,5.2656c1.8701-0.3057,4.1963-0.0039,5.5362-1.0117
					c10.6464-8.0137,20.0488-17.1905,24.8847-30.0108c3.0752-8.1504,1.1113-16.1123-4.417-19.3388
					c-5.3349-3.1143-12.3789-1.2159-18.0859,5.6943c-8.2061,9.9375-14.2871,21.2021-17.4883,33.6943
					c-3.581,13.9766,3.4238,20.3692,18.25,19.1524c2.9902-0.2451,6.1943-1.628,8.7031-3.3535
					c11.2285-7.7227,19.7998-17.876,24.9717-30.4893c5.2793-12.8721,2.8145-25.5615-6.5029-32.9834
					c-3.2627-2.5996-7.7861-4.5078-11.9268-4.959c-16.7822-1.8252-30.4463,4.7188-40.4736,17.961
					c-6.1045,8.0595-11.1572,16.9394-16.3867,25.6289c-3.6729,6.1035-7.375,12.2841-10.1338,18.8232
					c-5.6807,13.4609-4.207,26.3955,4.8389,38.0889c4.0273,5.206,8.2246,10.3203,12.7705,15.0683
					c2.4189,2.5274,5.499,4.7578,8.7041,6.1407c17.8134,7.6836,35.6689,6.9638,53.3515-0.6055
					c1.6973-0.7266,3.1211-2.0908,4.6719-3.1592c-0.21-0.4404-0.4209-0.8799-0.6309-1.3203
					c-1.5527,0.5625-3.1533,1.0205-4.6513,1.7031c-18.5635,8.4629-36.9649,7.628-55.1416-1.1035
					c-2.25-1.081-4.3887-2.831-5.9785-4.7637c-4.2666-5.1894-8.2891-10.5879-12.2598-16.0107
					c-6.4365-8.792-8.7881-18.1211-4.0127-28.6279c1.7236-3.792,2.5068-8.0127,3.7187-12.0381
					c0.4561,0.0508,0.9122,0.1015,1.3672,0.1513c0.0743,1.1006,0.3184,2.2207,0.1993,3.2998
					c-4.8711,44.1641,37.0185,59.2598,66.2841,47.1416c7.9414-3.288,15.001-7.9218,20.2686-14.7841
					c8.7695-11.4229,16.5019-23.4395,19.7158-37.792c0.2324-1.0381,0.7549-2.0108,1.1426-3.0137
					c0.3896,0.0029,0.7793,0.0068,1.1689,0.0098c0.1367,1.1894,0.6338,2.4707,0.3575,3.5547
					c-5.25,20.6201-14.9307,38.5107-33.0616,50.583c-18.8418,12.5459-45.9795,11.1875-63.789-2.7119
					c-8.3272-6.4991-13.1026-15.0049-14.0469-25.6065c-0.1426-1.6016-0.6406-3.1709-0.9746-4.7549
					c-0.4278,0.0049-0.8545,0.0108-1.2822,0.0156c-0.1875,1.3995-0.5616,2.8018-0.5372,4.1963
					c0.2715,15.1827,8.9415,25.1368,21.254,32.0616c30.1367,16.9472,67.3291,4.7714,84.2421-25.3711
					c8.6895-15.4854,10.1778-31.9375,12.7442-48.5479c0.3408-2.2041,1.123-4.3408,1.7012-6.5088c0.5,0.0918,1,0.1846,1.499,0.2764
					c0,1.3037,0.1367,2.624-0.0215,3.9082c-1.1065,8.9531-1.9346,17.9609-3.5498,26.8252
					c-0.9356,5.1318-2.4434,10.4307-4.9551,14.9541c-6.8066,12.2627-14.2412,24.1797-21.5156,36.1787
					c-6.3965,10.5537-15.7217,16.7148-27.96,18.7022c-17.7695,2.8857-34.8408,1.7587-49.2637-10.1993
					c-8.5126-7.0576-15.1435-16.0224-20.124-26.0058c-4.3164-8.6524-3.8086-17.6875-0.4785-26.334
					c7.5733-19.6602,18.0293-37.7891,31.8506-53.7041c8.8799-10.2236,20.0352-16.6455,34.3428-15.4453
					c0.9795,0.082,1.9883-0.1123,2.9746-0.2373c0.2265-0.0293,0.4209-0.3037,1.3262-1.0049
					c-1.6651-0.6572-2.7901-1.4268-3.9668-1.5156c-11.6514-0.8897-22.0811,1.9541-31.0206,9.873
					c-5.1318,4.5459-10.5732,8.7588-16.0273,12.9229c-8.9424,6.8261-14.2363,16.373-19.4268,25.9336
					c-8,14.7363-12.3769,30.5-11.748,47.3779c0.4814,12.9082,5.6797,24.0908,14.8223,32.9336
					c14.955,14.4638,31.7968,26.3154,51.7343,33.0654c5.6787,1.9229,11.6563,2.9453,17.4112,4.668
					c5.7373,1.7168,10.7431,4.5488,13.6787,11.6953c-1.8672-0.7793-2.8672-0.9951-3.6231-1.5469
					c-6.3798-4.6523-13.5107-7.2656-21.25-8.7822c-10.8086-2.1182-20.8672-6.5586-29.8261-12.8193
					c-9.8379-6.875-19.6075-14.0508-28.3868-22.1954c-14.8271-13.7529-19.5195-30.8447-16.581-51.1582
					c3.082-21.2988,11.9824-39.6435,25.6543-55.3007c8.6211-9.8711,19.4277-18.4161,30.6289-25.3262
					c20.6357-12.7315,49.8672,1.7373,53.0068,25.2598c1.0664,7.9892-1.5527,15.4072-5.0439,22.3222
					c-5.6279,11.1455-13.6016,20.5332-23.7334,27.8848c-2.6035,1.8887-5.7793,3.2812-8.9024,4.1103
					c-14.5996,3.8741-27.0449-7.1152-23.498-21.6435c3.7353-15.3086,10.9033-29.2539,22.3496-40.5098
					c4.7734-4.6924,10.7539-5.4863,16.7627-2.9433c5.7393,2.4287,8.7354,7.247,9.0791,13.5019
					c0.1172,2.1279,0.1699,4.3936-0.4131,6.4033c-4.9082,16.9219-15.4424,29.2881-31.3779,36.6045
					c-7.4795,3.4356-12.6963-1.1767-10.9668-9.3203c2.9717-13.9961,9.3935-26.4101,18.7099-37.2363
					c4.0625-4.7207,9.1211-5.8809,12.9815-3.6768c3.9482,2.2539,6.2373,7.9033,3.7227,13.3028
					c-3.1622,6.7919-7.3604,13.1835-11.7481,19.29c-2.6328,3.6621-6.4521,6.4824-9.8047,9.6094
					c-0.7363,0.6875-1.7558,1.0722-2.6455,1.5966C298.9553,191.9173,298.5998,191.5403,298.2433,191.1643z M346.881,237.4974
					c-0.2753-0.6016-0.5507-1.2032-0.8261-1.8038c-23.0098,18.7491-47.4746,19.837-73.3994,7.0557
					c1.6757,2.2344,3.4443,3.9961,5.5732,4.9814c21.2813,9.8506,41.9619,7.6797,61.9453-3.705
					C342.7979,242.5306,344.6642,239.7054,346.881,237.4974z"/>
				<path style="fill:#EEEA6E;" d="M363.2384,166.3001c-0.2998-10.542-1.7696-20.8545-6.5176-30.4024
					c-5.6397-11.3418-14.8779-18.6748-26.5176-23.2021c-18.3418-7.1328-35.6728-4.4414-53.7129,2.8506
					c-29.3711,11.873-48.5781,35.1416-68.6816,57.5322c-7.126,7.9375-12.6504,17.3066-18.9961,25.9561
					c-3.3516,4.5703-6.8975,8.998-11.0996,12.9941c1.3369-5.5723,5.4394-9.4805,8.3125-14.0957
					c2.9521-4.7402,5.7715-9.5889,9.0654-14.0859c3.3291-4.545,7.167-8.7178,10.7822-13.0538
					c-0.2158-0.2822-0.4316-0.5654-0.6465-0.8486c-1.1533,0.7774-2.4296,1.4219-3.4365,2.3565
					c-3.4629,3.2158-6.7861,6.583-10.2636,9.7822c-1.0108,0.9307-2.3584,1.4941-3.5518,2.2256
					c-0.3848-0.3916-0.7686-0.7832-1.1523-1.1748c1.4199-1.7373,2.5908-3.7832,4.2988-5.1641
					c15.3535-12.4082,31.0556-24.3027,44.5908-38.9228c6.8105-7.3565,15.0957-14.1602,24.0215-18.5635
					c14.5732-7.1905,28.999-15.7988,46.2099-15.7754c7.5606,0.0107,14.8106,1.1416,21.7237,4.3027
					c1.8095,0.8281,3.7568,1.3789,5.6758,1.9395c18.9902,5.541,33.7265,25.164,33.0712,44.4306
					c-0.1269,3.7227-1.2285,7.4121-1.8818,11.1172C364.1017,166.4319,363.67,166.3655,363.2384,166.3001z"/>
				<path style="fill:#8E4586;" d="M399.3332,206.345c-0.3975-9.4258-0.9336-18.8476-1.1514-28.2773
					c-0.207-8.9825,0.252-17.9903-0.2158-26.9532c-0.3232-6.205-1.0986-12.5351-2.8115-18.4795
					c-1.8906-6.5634-5.0957-12.747-7.7012-19.1064c-0.6318-1.542-1.1572-3.1279-1.7324-4.6934
					c0.459-0.2187,0.918-0.4384,1.376-0.6572c2.79,5.8506,5.581,11.7002,8.3701,17.5508
					c-0.4268-7.2188-3.4649-13.417-7.3047-19.2119c-5.0918-7.6817-11.7793-13.4717-20.3711-17.211
					c-11.9434-5.1992-23.5127-11.2871-35.5811-16.1572c-12.0527-4.8642-24.7783-6.9238-37.8779-5.6621
					c-1.164,0.1123-2.3486,0.0147-3.5234,0.0147c-0.0713-0.4219-0.1426-0.8438-0.2129-1.2657
					c1.6377-0.4814,3.248-1.2256,4.918-1.4023c12.4277-1.3086,24.6992-0.5215,36.3066,4.3945
					c12.7861,5.416,25.6934,10.6953,37.959,17.1524c17.6211,9.2744,26.5742,25.2793,30.0683,44.2558
					c1.3243,7.1953,0.4444,14.7891,0.6543,22.1983c0.2579,9.1269,0.3291,18.2714,0.9922,27.3711
					c0.6455,8.8525,2.0352,17.665-2.2724,26.042L399.3332,206.345z"/>
				<path style="fill:#ED5792;" d="M335.4884,109.1829c-1.1368-0.4609-2.3223-0.832-3.4043-1.3975
					c-16.2188-8.4755-32.8643-8.5068-49.3155-1.3798c-10.207,4.4209-19.9755,9.9414-29.6572,15.4668
					c-9.2324,5.2675-16.8525,12.5117-24.4463,20.0361c-10.2207,10.1269-21.8779,18.8047-32.9424,28.0771
					c-0.3593,0.3028-0.9746,0.2989-2.1699-0.3076c1.5117-1.7285,2.8203-3.7041,4.5703-5.1426
					c7.9629-6.541,16.0684-12.9072,24.0762-19.3935c1.6113-1.3047,3.0225-2.8555,4.5254-4.293
					c-0.3418-0.458-0.6846-0.916-1.0264-1.375c-7.7119,5.5215-15.4228,11.043-23.1347,16.5635c-0.333-0.3662-0.667-0.7334-1-1.1006
					c0.7177-1.1006,1.2588-2.3896,2.1904-3.2637c2.291-2.1513,4.5693-4.4052,7.1894-6.0996
					c16.8272-10.8799,33.6856-21.7138,50.6524-32.374c11.8496-7.4443,24.4267-13.0654,38.5361-14.8799
					c12.1846-1.5674,23.2422,1.8125,33.9893,6.8926c1.0058,0.4746,1.5869,1.8506,2.3652,2.8086
					C336.1544,108.4075,335.8214,108.7962,335.4884,109.1829z"/>
				<path style="fill:#ED5792;" d="M196.0724,263.6409c1.6748-0.3975,3.4189-1.3115,5.0097-1.0947
					c4.7373,0.6435,6.8184-1.8311,7.9522-5.8526c0.4228-1.5009,0.9228-2.9795,1.6181-5.206
					c1.7266,8.1523,5.1748,14.2656,12.541,17.4922c2.4717,1.083,4.9014,2.3379,7.1719,3.791
					c13.6143,8.7129,27.124,17.5879,40.7715,26.2461c11.752,7.457,24.375,12.5859,38.4551,13.5566
					c1.7617,0.1211,3.4883,0.752,5.2314,1.1465c0.0225,0.5176,0.044,1.0371,0.0655,1.5547c-1.3926,0.209-2.8086,0.6953-4.1748,0.582
					c-17.253-1.4199-32.6934-7.9804-47.1397-17.0918c-10.6465-6.7158-21.1631-13.6435-31.6211-20.6504
					c-10.8242-7.2519-22.0039-13.4052-35.6396-13.1386C196.2336,264.5306,196.1534,264.0862,196.0724,263.6409z"/>
				<path style="fill:#8E4586;" d="M181.3829,268.1995c3.1143-0.4434,6.252-1.3828,9.3369-1.2373
					c9.6504,0.457,18.9404,2.2656,27.3652,7.5879c15.5987,9.8535,31.4375,19.3291,47.0528,29.1572
					c9.1191,5.7402,18.9092,9.3193,29.5224,11.0654c4.1631,0.6856,8.1573,2.4043,12.2286,3.6534
					c-0.2168,0.7412-0.4327,1.4824-0.6495,2.2236c-9.0732-2.377-18.1455-4.7539-27.2187-7.1299
					c-0.124,0.3721-0.249,0.7451-0.3731,1.1182c5.4073,4.5449,14.0323,2.0713,19.004,7.5664
					c-0.1524,0.5195-0.3038,1.0381-0.4561,1.5566c-3.4043-0.9199-7.1035-1.2793-10.1543-2.876
					c-6.7021-3.5087-13.4814-7.1064-19.5059-11.6318c-13.9921-10.5107-28.6045-19.8008-43.9892-28.2412
					c-12.4551-6.833-24.8555-11.334-38.999-11.0283c-1.0303,0.0215-2.0684-0.3555-3.1026-0.5469
					C181.424,269.0247,181.4034,268.6126,181.3829,268.1995z"/>
				<path style="fill:#6CA342;" d="M329.4815,61.7669c1.4991,0.2129,3.0684,0.2129,4.4834,0.6797
					c5.0254,1.6601,10.1172,3.209,14.9473,5.3359c3.1894,1.4043,5.9893,3.707,8.9385,5.6465
					c1.6513,1.0859,3.1025,2.6748,4.9004,3.3125c21.0859,7.4834,32.7421,23.5713,40.0156,43.6465
					c3.7295,10.292,4.5244,20.8847,2.9912,31.7324c-0.7891,5.582-1.082,11.2363-1.5996,16.8574
					c-0.4922,0.041-0.9844,0.083-1.4766,0.124c-0.1855-1.6005-0.6074-3.2148-0.5166-4.7998
					c0.3281-5.7129,0.6709-11.4336,1.291-17.1191c2.5215-23.1123-6.7978-41.2227-23.6045-56.1602
					c-12.1601-10.8086-26.1923-18.3212-41.6035-23.4121c-3.2334-1.0674-6.2812-2.6992-9.415-4.0703
					C329.049,62.9485,329.2657,62.3577,329.4815,61.7669z"/>
				<path style="fill:#E73B4B;" d="M191.92,279.6399c3.7764,0.9834,7.5615,1.9346,11.3272,2.9571
					c7.5576,2.0527,15.1982,3.8554,22.625,6.3076c6.3408,2.0937,12.5947,4.6162,18.5722,7.5849
					c4.1905,2.0811,7.958,5.0899,11.7295,7.9287c10.0449,7.5606,19.5039,16.0274,32.1289,19.4649
					c-0.1855,0.5771-0.3711,1.1533-0.5566,1.7295c-2.0196-0.4063-4.3291-0.3164-6.0078-1.3027
					c-8.0137-4.7042-16.3985-9.0137-23.6446-14.7383c-13.9521-11.0235-29.1875-18.4405-46.8847-20.8174
					c-4.0762-0.5469-8.0996-1.8613-11.9961-3.249c-2.751-0.9795-5.2471-2.6778-7.8565-4.0547
					C191.5441,280.847,191.7325,280.2434,191.92,279.6399z"/>
				<path style="fill:#8E4586;" d="M272.0079,324.972c-2.2637-1.0547-4.7227-1.8262-6.7549-3.2188
					c-6.1308-4.2012-12.1709-8.5439-18.1084-13.0156c-8.9902-6.7695-18.7842-11.293-30.1611-12.3106
					c-4.2305-0.3789-8.4522-1.5078-12.5215-2.788c-2.4463-0.7696-4.5928-2.4922-6.707-4.0459
					C226.7014,292.4534,251.7813,303.4681,272.0079,324.972z"/>
				<path style="fill:#EEEA6E;" d="M276.8527,94.5091c-19.4902,11.3896-38.0224,22.2187-56.5547,33.0488
					c-0.3486-0.3643-0.6972-0.7285-1.0459-1.0918c1.6319-1.6738,3.0039-3.7754,4.9375-4.9531
					c13.1914-8.0303,26.4454-15.9639,39.8106-23.7012C267.5714,95.7454,271.4348,93.7815,276.8527,94.5091z"/>
				<path style="fill:#EEEA6E;" d="M188.7852,228.5696c-2.8447,2.5235-5.6113,5.1416-8.5644,7.5303
					c-1.5859,1.2842-3.4902,2.1748-5.5557,3.4277c0.0518-0.8056,0.0069-1.0097,0.0762-1.0615
					c12.2148-9.1758,17.6963-22.7363,23.9189-35.9512c3.3252-7.0615,7.9102-13.5342,12.0069-20.2226
					c0.6826-1.1143,1.7754-1.9776,3.5556-2.4043c-0.3369,0.959-0.5605,1.9795-1.0293,2.8701
					c-6.1835,11.7432-12.3867,23.4756-18.6201,35.1924c-1.9258,3.6191-3.9619,7.1806-5.9453,10.7685
					C188.6301,228.7181,188.7852,228.5696,188.7852,228.5696z"/>
				<path style="fill:#EEEA6E;" d="M250.1389,314.4837c-11.7813-4.4629-24.5909-9.3145-37.1163-14.0596
					C223.213,297.347,242.4025,304.9056,250.1389,314.4837z"/>
				<path style="fill:#6CA342;" d="M185.0031,274.5667c11.6436-3.3447,26.8858,1.0303,34.1035,9.6289
					C207.7081,280.9778,196.7775,277.8919,185.0031,274.5667z"/>
				<path style="fill:#EEEA6E;" d="M173.672,231.9602c5.4013-6.4072,10.8027-12.8144,16.2031-19.2216
					c0.3486,0.2841,0.6973,0.5683,1.0449,0.8525c-3.834,7.6621-7.2344,15.6709-15.7578,19.5918
					C174.6651,232.7747,174.1682,232.3675,173.672,231.9602z"/>
				<path style="fill:#E73B4B;" d="M383.6974,84.8587c-6.6543-3.6153-13.3086-7.2305-19.9639-10.8457
					C372.2873,74.3294,378.9532,78.0432,383.6974,84.8587z"/>
				<path style="fill:#EEEA6E;" d="M399.2219,206.2474c-1.4209,5.0644-2.8428,10.1289-4.2637,15.1933
					c-0.4981-0.167-0.9961-0.334-1.4941-0.501c0.5898-5.3632,1.6357-10.5595,5.8691-14.5947L399.2219,206.2474z"/>
				<path style="fill:#EEEA6E;" d="M350.9279,275.3655c2.5283,5.0381,2.2988,7.5254-2.0527,11.3877
					c0.3223-4.4922,0.5713-7.9492,0.8193-11.4062C350.1057,275.3538,350.5168,275.3597,350.9279,275.3655z"/>
				<path style="fill:#EEEA6E;" d="M189.0352,188.5432c-2.1767,2.9834-3.9511,5.417-6.0322,8.2706
					C181.379,192.2796,183.5567,189.3489,189.0352,188.5432z"/>
			</g>
			<path style="fill:#E73B4B;" d="M370.0147,128.6399 M375.9171,189.3636 M274.1202,269.9915 M358.3477,246.47 M376.2257,210.1077
				c1.9658-3.3799,3.4345-7.2676,4.1611-11.1064c2.0439-10.8018,3.7734-21.6739,5.2773-32.5655
				c2.3877-17.2949-2.6084-32.9677-11.7119-47.3769c-9.8271-15.5518-23.9658-25.0098-41.1972-31.9922
				c-22.4766-9.1084-44.1856-5.2608-66.1983-0.8447c-7.2763,1.4589-14.7129,3.9824-20.0117,10.0957
				c4.5703-6.5176,10.2637-11.3868,18.1826-13.4121c14.835-3.794,29.8682-5.2852,45.1504-4.3907
				c4.249,0.2481,6.9072,0.3965,10.8692,2.1582c4.5312,2.0147,9.5839,2.6416,14.1113,4.7276
				c7.542,3.4746,15.2158,6.6875,22.6025,10.4629c10.5772,5.4052,18.0225,13.8877,23.0606,24.6347
				c6.0654,12.9405,9.0449,26.501,8.9785,40.7774c-0.0156,3.4326-0.1787,6.9648,0.5205,10.2832
				c3.0381,14.4248-0.0059,28.1885-4.0332,41.8857c-3.7061,12.6074-7.4219,25.2139-11.1924,37.8028
				c-1.6123,5.3867-3.8174,10.4521-9.2578,13.6152c2.6445-5.5869,5.29-11.1748,7.9346-16.7627
				c-0.5069-0.2373-1.0147-0.4746-1.5225-0.7119c-6.4795,9.5215-10.834,20.1992-15.6523,30.707
				c-0.877-5.6973,0.7636-10.7207,3.3828-15.4277c3.8984-7.0088,8.167-13.8155,11.9736-20.8721
				c10.4346-19.3447,16.3633-39.9307,16.4346-62.0342c0.0039-1.5957-0.4385-3.1914-0.6729-4.7881
				c-0.4267-0.0136-0.8535-0.0283-1.2802-0.042c-0.2471,1.4004-0.7071,2.8008-0.7071,4.2012
				c0.0039,13.3457-2.6299,26.3106-7.1299,38.7051c-6.5918,18.1572-13.5107,36.2461-26.0361,51.5107
				c-4.583,5.586-7.084,12.127-5.1943,19.6348c0.1338,0.5322,0.0498,1.1328-0.0108,1.6934
				c-0.0273,0.2548-0.2441,0.4902-0.3769,0.7324c-3.4473-2.4971-4.8379-7.2959-2.5713-12.5108
				c1.9736-4.542,4.7392-8.8066,7.5928-12.8857c9.75-13.9326,18.291-28.4238,22.2441-45.1924
				c0.1875-0.7959,0.251-1.6211-0.2852-2.7109 M354.2365,244.1692 M364.2325,225.4349 M382.4123,159.2542 M255.3712,99.2718"/>
			<path style="fill:#3CB3B8;stroke:#3EB3B8;stroke-miterlimit:10;" d="M293.9331,145.1988
				c-4.627,3.9463-9.4516,9.2464-13.3047,13.972c-3.7082,4.5478-7.2315,8.8644-9.5598,14.2379
				c-5.2227,12.0537-7.5216,24.9021-4.3488,37.6805c2.915,11.7383,11.2967,18.2361,21.7059,22.8999
				c16.4785,7.385,38.5293,2.458,50.5059-11.0547c0.7539-0.8503,1.2227-1.9531,1.3525-3.6963
				c-12.8965,12.1045-27.4766,18.0774-44.8877,14.9131c-0.0967-0.3894-0.1943-0.7793-0.291-1.1677
				c1.9639-0.208,3.9229-0.5078,5.8916-0.6106c24.6523-1.292,45.7646-15.5847,55.6406-38.1863
				c4.0078-9.1709,7.6992-18.5283,10.7676-28.0481c4.2803-13.2771,2.7422-26.0671-5.3516-37.7302
				c-9.833-14.167-22.877-24.7903-38.7734-30.9004c-17.3164-6.6565-34.0381-1.689-49.5674,6.9487
				c-18.9941,10.5652-37.323,21.8874-55.8201,33.3485c-1.8066,1.1201-3.9988,3.1191-6.2166,4.4836
				c-0.4316-4.0801,2.356-6.5387,4.5786-7.9352c11.3984-7.1631,22.8506-14.2473,34.375-21.2063
				c7.1113-4.2937,14.3779-8.3298,21.5879-12.458c24.1074-13.8008,47.4619-12.75,70.0801,3.5127
				c9.6211,6.917,19.3406,13.8491,25.5887,24.0522c6.2188,10.156,8.7346,21.1561,5.2884,32.7472
				c-1.3467,4.5283-3.2138,10.2443-5.0927,14.5214c-8.6396,19.6741-15.6816,40.3711-32.9238,54.8926
				c-17.5645,14.7942-48.4426,12.7292-63.7981-4.3267c-10.4375-11.5935-11.5205-25.7048-8.6934-40.0713
				c2.6147-13.2867,10.0571-24.6372,18.8012-34.864c9.6235-11.2551,20.3523-18.6758,35.4475-16.3933
				c4.1323,0.6248,8.4118,1.2879,11.8107,3.7197c3.2211,2.3046,6.1956,4.8825,7.8367,8.487
				c3.0171,6.6265,1.7677,17.4459-0.8136,24.2045c-2.5569,6.6948-6.8144,11.9487-11.5937,17.2889
				c-5.8322,6.5167-13.5543,12.0367-21.7637,15.0515c-0.3187-0.5872-0.6562-2.216-0.9749-2.8031
				c11.4827-6.9327,22.2399-15.8571,28.4193-27.7621c3.3309-6.4171,5.2347-13.9748,3.2177-20.9178
				c-1.5231-5.2427-5.2971-9.79-10.1702-12.2534c-9.2837-4.6925-21.4908-0.952-28.8733,5.3572
				C293.9849,145.1546,293.959,145.1767,293.9331,145.1988z"/>
			<path style="fill:#8E4586;" d="M243.8317,145.702c-17.3389,15.1367-29.873,34.2302-38.666,55.5964
				c-4.1465,10.0735-10.6572,18.5176-17.6279,26.6917l0.1553-0.1487c-4.4805,5.7307-8.9609,11.4602-13.459,17.2129
				c6.4443-2.0889,11.3008-6.4043,14.9219-12.0303c3.5088-5.4492,6.5723-11.1843,9.832-16.7949
				c-2.4355,14.9541-12.4727,24.3606-23.5547,33.2334c4.6299-2.2842,9.1602-4.7461,12.8076-8.1531
				c8.2031-7.665,12.4102-17.8762,15.6562-28.2844c8.0762-25.8943,23.9492-46.6973,42.1113-66.0889
				c0.9893-1.0554,2.4316-1.6882,3.6631-2.5173c0.2891,0.3457,0.5781,0.6914,0.8672,1.0381
				c-1.0684,1.4229-2.0205,2.9531-3.2207,4.2539c-17.5488,19.0134-32.083,39.8027-41.0039,64.4453
				c-5.877,16.2383-14.8066,30.7539-30.6123,39.6384c-0.0771,0.043,0.0244,0.4036,0.0615,0.834
				c7.2236-1.416,12.583-5.5576,16.7842-11.1885c4.0889-5.4814,7.8018-11.2429,11.6797-16.8818
				c-2.561,12.7734-11.1125,20.3862-21.0656,27.493c-2.6892,1.9202-5.4807,3.8035-8.284,5.7416
				c10.1953-0.3928,17.8193-4.0403,25.2744-8.3291c-4.8213,8.7383-15.8145,6.9197-22.127,13.1482
				c3.4707-0.4773,6.7031-1.542,9.9922-2.3816c4.5215-1.1565,9.1377-1.9707,13.5996-3.3108
				c1.2402-0.3718,2.749-1.9609,2.9746-3.2009c0.6621-3.6465,0.3516-7.4866,1.1504-11.0889
				c0.917-4.134,2.6133-8.0947,3.9717-12.1318c0.5771,0.1189,1.1533,0.239,1.7305,0.3591
				c-1.8672,5.9827,0.0381,11.2952,1.8936,16.8323c3.5469,10.584,4.9199,12.9336,9.8213,12.9746
				c-9.2256-12.678-9.8467-26.833-7.6689-41.5686c2.0762-14.0547,8.2676-26.417,15.252-38.5017
				c0.9355-1.6194,1.5723-3.4104,2.3486-5.1221c-0.3594-0.2395-0.7178-0.4785-1.0771-0.718
				c-0.8086,0.791-1.9238,1.4365-2.3789,2.3955c-5.207,10.9668-10.6211,21.8518-15.3408,33.0286
				c-3.332,7.8884-5.3076,16.3486-8.5889,24.2634c-3.168,7.6389-8.4297,13.7932-16.1699,17.8225
				c0.084-0.5803,0.0513-0.9941,0.192-1.1152c12.2598-10.4944,18.2553-24.459,21.3627-39.7024
				c2.1084-10.3428,6.5381-19.49,11.6162-28.4434c2.168-3.821,5.0996-7.2332,7.8584-10.6904
				c2.8506-3.572,6.0645-6.8584,8.8516-10.4756c4.9824-6.4668,9.2324-13.5896,14.7871-19.5007
				c5.2148-5.5508,11.6914-9.928,17.6934-14.72C261.5106,133.4327,252.167,138.4253,243.8317,145.702z"/>
		</g>
	</g>
</g>
</svg>
