<?xml version="1.0" encoding="iso-8859-1"?>
<!-- Generator: Adobe Illustrator 25.0.1, SVG Export Plug-In . SVG Version: 6.00 Build 0)  -->
<svg version="1.1" id="Layer_1" xmlns="http://www.w3.org/2000/svg" xmlns:xlink="http://www.w3.org/1999/xlink" x="0px" y="0px"
	 viewBox="0 0 161.9203 212.0135" style="enable-background:new 0 0 161.9203 212.0135;" xml:space="preserve">
<g>
	<g id="Maskottchen_5_">
		<g id="rechter_Arm_3_">
			<path style="fill:#F5CBAB;stroke:#000000;stroke-width:0.7;stroke-linejoin:round;stroke-miterlimit:10;" d="M115.9756,51.1366
				c1.0622,1.1465,3.2505,3.735,4.1863,4.8631c2.1302,2.5693,2.8796,3.5848,3.8774,4.94c0.8424,1.143,4.0503,4.9367,4.7529,5.4705
				c0.7025,0.535,5.0648,4.1532,7.0582,6.7248c0.9438,1.2187,3.8283,4.3208,5.5322,6.3486
				c0.6102,0.7261,1.5264,1.6747,2.4958,2.6049l0.3239,0.3011c3.0315,2.6444,3.8103,3.0067,4.8976,3.0734
				c1.0829,0.0666,5.2895-1.8015,6.6373-1.6002c0.5506,0.0823,3.2649,0.1789,3.2873,0.9664c0.017,0.5914-0.3494,0.855-0.438,0.8272
				c0.2946,0.1178,2.8122,0.8203,2.9246,1.6016c0.0361,0.2529,0.0405,0.4609-0.4578,0.5969
				c-1.7539-0.479-4.1414-0.8919-4.4402-0.8662c-0.4601,0.0409-1.2273,0.2926-1.2273,0.2926s2.8643,0.9106,3.6724,1.1188
				c0.4613,0.1192,1.6058,0.6172,2.5041,1.0227c0.0261,0.3101-0.0075,0.6167-0.1536,0.9077
				c-0.33,0.6527-2.8926-0.3482-3.6122-0.4276c-0.6797-0.0748-2.8828-0.318-4.0145-0.2529c0.502,0.158,3.0296,1.0726,3.3433,1.2519
				c0.6349,0.3614,0.4612,3.8304,0.2722,4.1571c-0.189,0.3266-0.297,0.4391-0.7559,0.4998c-1.0556,0.1386-0.579-3.1956-1.579-3.4792
				c-0.9359-0.2662-3.0131-0.3351-3.5307-0.448c-0.5786,0.4082-1.0794,0.8157-1.0794,0.8157s-0.2999,1.8835,0.9546,3.4916
				c0.8288,1.0621,0.245,3.8773-0.8364,2.1146c-0.7662-1.2455-1.185-1.5068-1.8919-2.5268
				c-0.4247-0.6128-0.7742-1.4175-1.548-2.8359c-0.7729-1.4178-1.8994-1.9-2.5451-2.5629
				c-0.9407-0.9677-3.2336-2.2822-4.9211-3.4697c-1.6874-1.1874-6.7089-4.5714-8.1794-5.8324
				c-2.817-2.414-8.0662-8.4929-9.2027-9.8447c-1.1355-1.3519-4.4879-3.8057-6.6903-5.7687
				c-2.1844-1.9467-6.0654-5.5765-7.9002-7.3247"/>
			<path style="fill:none;stroke:#000000;stroke-width:0.4;stroke-linecap:round;stroke-linejoin:round;stroke-miterlimit:10;" d="
				M159.1997,85.6026c0,0-2.4214-0.6243-2.7859-0.5461c-0.3645,0.0784-1.6305,0.467-1.6305,0.467"/>
		</g>
		<g id="rechter_Arm_4_">
			<path style="fill:#F5CBAB;stroke:#000000;stroke-width:0.7;stroke-linejoin:round;stroke-miterlimit:10;" d="M56.5067,47.8846
				c-1.3742,0.7447-4.2778,2.4932-5.5263,3.261c-2.8425,1.7491-3.8783,2.4701-5.2585,3.433
				c-1.1648,0.8119-5.4212,3.3744-6.258,3.6543c-0.8371,0.281-6.1303,2.3066-8.844,4.1019
				c-1.2853,0.8511-5.0132,2.8624-7.278,4.2356c-0.811,0.4917-1.9833,1.0958-3.2002,1.6654l-0.4034,0.1811
				c-3.7202,1.5308-4.5741,1.6238-5.6252,1.3377c-1.0469-0.2847-4.1492-3-5.4038-3.5323c-0.4799-0.2036-1.6666-1.2745-2.4599-1.5344
				c-0.3709-0.1215-0.6548,0.1404-0.7421,0.3757c-0.206,0.5546,3.5236,2.6835,3.3321,3.013s-2.3403-0.7941-3.9698-0.9942
				c-1.5131-0.1858-2.9146,0.0472-3.0866,0.3861c-0.1154,0.2279-0.1863,0.4234,0.2419,0.7123
				c1.8149,0.1096,3.9644,0.6892,4.2391,0.8095c0.4225,0.1865,1.6254,0.7272,1.6254,0.7272s-3.3181-0.3173-4.1503-0.3797
				c-0.4751-0.0352-3.2092,0.934-3.3335,1.2193s-0.0741,0.8008,0.505,0.9157c0.7174,0.1424,2.8337-0.4626,3.5407-0.3067
				c0.6677,0.1475,2.8322,0.6247,3.8831,1.0498c-0.5262-0.0116-3.2136,0.0429-3.5683,0.1118
				c-0.7173,0.1383-4.2257,1.1457-4.1517,1.5157s0.3158,0.8221,0.7062,0.788c1.0606-0.0928,3.9824-0.5784,5.0206-0.5259
				c0.9718,0.0485,2.9611,0.6503,3.4875,0.7096c0.4169,0.5724,0.7603,1.1191,0.7603,1.1191s-0.3209,1.8801-2.0253,3.0001
				c-1.126,0.7397-1.4772,3.5932,0.113,2.2712c1.1256-0.9335,1.6062-1.0464,2.6031-1.7853c0.599-0.4439,1.1884-1.0938,2.3767-2.1885
				c1.1873-1.0945,2.409-1.1894,3.2333-1.6098c1.2016-0.6143,3.7953-1.1229,5.7747-1.7055
				c1.9794-0.5826,7.8216-2.1746,9.6192-2.8967c3.443-1.3814,10.3664-5.4525,11.8769-6.3677
				c1.5096-0.9156,5.4723-2.1628,8.1885-3.3145c2.6939-1.1421,8.91-3.8724,11.2091-4.9387"/>
		</g>
		<g id="rechter_Fuss">
			<path style="fill:#F5CBAB;stroke:#000000;stroke-width:0.7;stroke-linecap:round;stroke-miterlimit:10;" d="M81.254,205.6769
				l1.6091-0.2528c1.9639-0.7208,5.8337-2.3786,6.615-2.7643c2.2112-1.0953,3.1262-2.898,3.3462-3.763
				c0.1502-0.5906,0.1295-2.197,0.1501-3.8191l7.3474-1.4324c-0.0188,1.5238-0.0107,2.8389,0.0355,3.6799
				c0.1605,2.9862,0.5544,2.9272,0.636,4.0523c0.0823,1.1263,0.2348,2.979,0.5063,5.6477c0.1694,1.6715-0.5069,2.832-1.4491,3.4876
				s-3.3004-0.0664-5.7379-0.0032c-1.0717,0.3189-2.104,0.7648-3.2151,0.985c-3.0536,0.6039-5.9369-0.5436-8.076-1.3638
				c-3.2869-1.2601-1.9766-0.9169-3.1106-1.3432c-2.3803-0.8946-2.882-1.6994-2.618-2.7377
				C77.5566,205.0126,81.254,205.6769,81.254,205.6769z"/>
			<path style="fill:none;stroke:#000000;stroke-width:0.4;stroke-miterlimit:10;" d="M81.8664,206.799
				c0,0-0.7278,0.223-1.6234,0.1393c-1.2286-0.114-1.2812-0.3944-1.4627,0.3192c-0.1813,0.7127,0.3854,1.2025,0.3854,1.2025"/>
			<path style="fill:none;stroke:#000000;stroke-width:0.4;stroke-miterlimit:10;" d="M85.2675,208.3553
				c0,0-1.413,0.2906-2.3064,0.3797c-0.7786,0.0781-0.2151,1.1192-0.2151,1.1192"/>
			<path style="fill:none;stroke:#000000;stroke-width:0.4;stroke-miterlimit:10;" d="M86.9847,209.2062
				c0,0-1.9507,0.1185-2.2699,1.3735"/>
			<path style="fill:none;stroke:#000000;stroke-width:0.4;stroke-miterlimit:10;" d="M83.4695,207.5523
				c0,0-1.2181,0.1739-1.6401,0.2046c-0.4219,0.0308-0.6812-0.0352-0.9098,0.3207c-0.3771,0.5873,0.4498,1.2188,0.4498,1.2188"/>
		</g>
		<g>
			<path style="fill:#F5CBAB;stroke:#000000;stroke-width:0.7;stroke-miterlimit:10;" d="M54.8277,187.254
				c-0.128,2.1917,0.0658,5.3595,0.0787,8.6494c0.0045,1.1457,0.7075,2.5057,0.3614,3.9725
				c-0.4368,1.8509-3.2408,2.2813-4.1611,2.4038c-0.9202,0.1227-2.6667-0.7503-3.5221-1.1238
				c-0.8557-0.3728-3.3787-0.6951-4.1731-0.6071c-0.7938,0.0872-1.7878,0.2102-2.5558,0.6304
				c-0.7687,0.421-1.4536,0.2396-2.4695,0.1653c-0.854-0.0624-1.7017-0.3591-2.5634-0.4906
				c-0.588-0.0897-1.4847,0.1843-3.0367-0.1174c-2.4366-0.4738-3.9448-3.0423-1.7555-3.5386c0,0-0.0725-0.5002,0.3307-0.6513
				c0.3725-0.1396,0.6592-0.2392,1.1294-0.4279c0.1257-0.0505,0.2339-0.4528,0.3926-0.5203
				c0.9324-0.3967,3.1827-0.619,5.0065-0.5577c2.0126,0.0676,4.1811-1.023,5.303-1.4763c1.652-0.6675,2.5756-1.4547,3.281-2.3452
				c1.2515-1.58,1.1675-3.9958,1.1675-3.9958L54.8277,187.254z"/>
			<path style="fill:none;stroke:#000000;stroke-width:0.4;stroke-miterlimit:10;" d="M35.4991,196.6914
				c0,0-0.8603,0.1772-1.9353-0.0364c-1.0484-0.2083-1.8798-0.0845-1.8798-0.0845"/>
			<path style="fill:none;stroke:#000000;stroke-width:0.4;stroke-miterlimit:10;" d="M32.8014,195.9058l1.1702,0.0185
				c0.9238,0.1921,2.0776-0.0574,2.0776-0.0574"/>
			<path style="fill:none;stroke:#000000;stroke-width:0.4;stroke-miterlimit:10;" d="M30.6613,197.3099
				c0,0,1.6331,0.4242,2.9972,0.2825c1.3333-0.1385,2.8346,0.1412,2.8346,0.1412"/>
		</g>
		<path id="K&#xF6;rper_6_" style="stroke:#000000;stroke-width:0.7;stroke-miterlimit:10;" d="M47.5827,188.4758
			c0.0903-1.6518-0.2393-13.8049-0.6775-17.8943c-0.4988-4.6556,1.2471-20.4812,0.6651-22.4465
			c-0.584-1.9645-0.0246-6.169,0.28-8.0943c0.4944-3.125,1.9193-7.5607,3.0454-13.022c1.128-5.4611,5.6976-16.6849,7.6751-20.0291
			c1.9775-3.3433,2.3363-4.8426,3.8156-9.1804c1.4803-4.3377,3.5707-9.7464,3.937-11.3831c0.3652-1.6368,1.3267-4.0703,1.2625-7.94
			c-0.0652-3.8696,0.6268-8.941,0.6946-10.1794c0.0678-1.2394-0.5364-2.5814-0.8509-4.3943
			c-0.6384-3.6702,0.0409-6.199,0.7672-8.0342c0.3998-1.0139-4.2373,0.9579-6.2419,1.6557c0,0-2.7007-2.4038-4.2723-4.2705
			c-1.6288-1.9347-3.5757-4.6499-3.5757-4.6499c0.1425-0.575,9.5985-5.3682,11.4746-6.1815
			c1.4927-0.647,7.2713-2.0768,9.0714-2.0061c2.6871,0.1055,5.8438-0.1245,5.8438-0.1245s1.4352,1.1609,2.0918,5.5795
			c0.2923,1.9673,3.1332,1.425,4.8236,0.827c1.6895-0.5981,5.4485-6.7618,5.4485-6.7618s5.8966,1.1473,8.4116,1.8383
			c2.5975,0.7137,5.818,2.4076,8.152,3.9427c2.6924,1.7708,11.9469,10.5264,11.9469,10.5264s-0.8061,1.3228-2.7941,3.4205
			c-1.9881,2.0977-5.6227,3.8555-5.6227,3.8555c-2.2721-1.0817-7.5766-3.9868-8.3537-2.6771c-1.825,3.0758-2.1219,3.788-3.55,6.6223
			c-1.6946,3.3632-4.9592,9.7632-5.898,11.7833c-0.9389,2.0201-1.2551,7.8015-1.1929,9.1859
			c0.0622,1.3845,2.0067,11.1823,2.3426,14.3475c0.5704,5.3739-0.3277,11.634-0.7016,13.4083
			c-0.3728,1.7743-1.2599,9.8002-1.9991,13.2122c-0.7391,3.411-2.0217,12.8445-2.3022,15.4532
			c-0.2805,2.6077-0.4072,5.4796,0.0675,6.8865c0.4756,1.407,1.4846,4.563,1.9573,5.8242
			c2.6308,7.0201,5.4304,22.5843,5.7555,26.7441c0.1311,1.6786,0.9636,7.3458,1.5082,10.2998c0,0-0.8646,0.6432-2.6916,1.2338
			c-1.827,0.5906-4.9771,0.0701-4.9771,0.0701c-0.1056-0.573-0.2125-1.1207-0.301-1.5431
			c-1.2254-5.8852-5.5709-16.2533-6.7079-18.7311c-2.1365-4.6568-4.435-14.657-5.2523-16.0415
			c-1.0115-1.7121-2.8199-6.3106-3.1591-8.9786c-0.2183-1.7138-0.247-5.8389-0.6097-9.3111
			c-0.3618-3.4712-0.9976-11.3064-1.2193-14.9643c-0.1935-3.1924-0.3325-9.6437-0.3325-9.6437s-3.2146,4.2122-5.3105,8.0283
			c-2.0585,3.748-7.9137,13.8503-8.5172,14.7835c-0.6027,0.9333-2.1486,4.7476-2.5214,6.5229
			c-0.3728,1.7743-0.8362,4.9077-0.3887,9.3509c0.4476,4.4432-1.4596,18.0002-2.3513,21.6796
			c-0.8916,3.6795-0.9671,9.6463-1.37,11.9715c0,0-0.7754,0.4315-3.1157,0.3035C49.4224,189.222,47.5827,188.4758,47.5827,188.4758z
			"/>
		<g id="Kopf_5_">
			<g id="Gesicht_2_">
				<path style="fill:#F5CBAB;stroke:#000000;stroke-width:0.5468;stroke-miterlimit:10;" d="M76.7686,23.4542l-0.7674,4.7689
					c0,0-0.9933,1.3364-0.7508,2.3726c0.2425,1.0373,0.6984,4.2906,1.0269,4.3468c0.3294,0.0562,0.8073-0.0624,0.8073-0.0624
					s1.271,4.5696,4.725,6.4544c0,0,1.0116,4.7143,0.8017,6.1923c-0.2109,1.478,6.6626,3.2495,9.0917,1.0018
					c2.4291-2.2476,3.3071-5.5347,3.3071-5.5347s-1.0246-0.6516-1.354-1.7621c-0.3304-1.1115-0.8548-3.1398-0.8548-3.1398
					s0.6973-0.9902,1.1498-2.4873c0.4226-1.397,0.3593-2.7071,0.3593-2.7071s1.4835,0.2904,1.4761-1.9016
					c-0.0072-2.1922-2.9915-11.3805-2.9915-11.3805l-6.2551-3.1706l-9.4003,4.4632L76.7686,23.4542z"/>
				<path style="stroke:#000000;stroke-width:0.7408;stroke-miterlimit:10;" d="M83.9909,37.6273
					c0.2413,0.3364,1.5154,0.3977,2.4711,0.0187c0.6009-0.2383,1.3486-0.8922,1.3618-1.5198
					c0.0054-0.2584-0.5226-0.619-0.6972-0.9533c-0.4289-0.8211-2.0266-1.6276-3.1573-0.1727
					C82.8384,36.4552,83.5354,36.9923,83.9909,37.6273z"/>
				<path style="fill:#FFFFFF;" d="M83.3285,35.6216l0.7873-1.0824l1.995-0.0782l1.0157,0.7119c0,0-0.3438-0.0292-1.7577,0.1738
					C84.7507,35.4362,83.3285,35.6216,83.3285,35.6216z"/>
				<g>
					<g>
						<path d="M84.1479,31.4333c0.1826-0.1989-1.0701-0.0991-1.0071,0.393c0.0303,0.2341,0.4505,0.1048,0.7365-0.0712
							C84.0513,31.6466,84.0489,31.5411,84.1479,31.4333z"/>
						<path d="M85.975,31.4175c-0.2794-0.5011-0.9822-0.2826-1.1385,0.0561c-0.0458,0.1021,0.469,0.0691,0.6042,0.118
							C85.9212,31.7669,86.2285,31.8708,85.975,31.4175z"/>
					</g>
					<path d="M80.5738,40.7461c0.1321,0.0689,0.3977-0.4205,0.3977-0.4205s2.8037,2.0903,3.9773,2.3041
						c1.6819,0.3072,3.07-0.1801,3.7937-0.5005c1.0012-0.4431,4.2583-4.7272,4.2583-4.7272l1.4014,1.8658
						c0,0-3.2648,3.3131-4.8797,4.283c-1.0476,0.6293-2.305,0.9097-4.1128,0.3796C83.6029,43.4003,80.5738,40.7461,80.5738,40.7461z
						"/>
				</g>
				<g>
					<path d="M79.2387,30.968c0.0303,0.0721-0.0485,0.189-0.1766,0.2603c-0.1281,0.0722-0.2553,0.0721-0.2856-0.001
						c-0.0293-0.072,0.0494-0.188,0.1766-0.2602C79.0814,30.8949,79.2084,30.896,79.2387,30.968z"/>
					<path d="M84.3959,29.3752c0.0049,0.053-0.0603,0.1004-0.1447,0.1065c-0.0835,0.0063-0.1548-0.03-0.1578-0.0829
						c-0.005-0.0521,0.0602-0.0994,0.1427-0.1057C84.3205,29.287,84.3928,29.3232,84.3959,29.3752z"/>
					<path d="M84.0204,29.9101c0.0057,0.0747-0.085,0.1412-0.2038,0.1503c-0.1189,0.0091-0.2207-0.0424-0.2263-0.117
						c-0.0058-0.0737,0.0859-0.141,0.2047-0.1501C83.9149,29.7841,84.0146,29.8365,84.0204,29.9101z"/>
					<path d="M84.3528,28.6618c0.003,0.052-0.0612,0.0993-0.1447,0.1056c-0.0835,0.0062-0.1558-0.0301-0.1599-0.0821
						c-0.004-0.052,0.0623-0.1003,0.1447-0.1065C84.2775,28.5726,84.3477,28.6097,84.3528,28.6618z"/>
					<path d="M84.9891,29.2571c0.0049,0.0717-0.0837,0.1372-0.2007,0.1465c-0.1159,0.0093-0.2138-0.042-0.2196-0.1138
						c-0.0048-0.0726,0.0838-0.1381,0.1998-0.1475C84.8854,29.134,84.9834,29.1843,84.9891,29.2571z"/>
					<path d="M85.1912,30.1767c0.004,0.0521-0.0602,0.0994-0.1437,0.1056c-0.0855,0.0061-0.1558-0.03-0.1599-0.0821
						c-0.004-0.052,0.0603-0.1004,0.1447-0.1065C85.1159,30.0874,85.1872,30.1246,85.1912,30.1767z"/>
					<path d="M84.8254,30.4266c0.0057,0.0756-0.089,0.1448-0.21,0.1548c-0.1227,0.009-0.2263-0.0456-0.2319-0.1212
						c-0.0057-0.0756,0.088-0.1448,0.2098-0.1538C84.7152,30.2963,84.8199,30.3509,84.8254,30.4266z"/>
					<path d="M83.7958,30.5835c0.004,0.0521-0.0623,0.1002-0.1457,0.1065c-0.0835,0.0062-0.1548-0.03-0.1587-0.083
						c-0.0041-0.0521,0.0601-0.0995,0.1446-0.1066C83.7195,30.4943,83.7909,30.5314,83.7958,30.5835z"/>
					<path d="M80.9454,30.2349c0.0063,0.0806-0.1044,0.1537-0.2468,0.1646c-0.1414,0.0108-0.2616-0.0446-0.268-0.1242
						c-0.0064-0.0796,0.1042-0.1527,0.2457-0.1636C80.8197,30.0999,80.9399,30.1564,80.9454,30.2349z"/>
					<path d="M81.6738,30.7941c0.0063,0.0806-0.1033,0.1528-0.2458,0.1645c-0.1433,0.0108-0.2626-0.0447-0.268-0.1242
						c-0.0064-0.0796,0.1032-0.1528,0.2457-0.1635C81.5481,30.6592,81.6682,30.7156,81.6738,30.7941z"/>
					<path d="M82.2319,30.1361c0.0065,0.0796-0.1042,0.1527-0.2456,0.1635c-0.1424,0.0108-0.2636-0.0447-0.269-0.1242
						c-0.0064-0.0787,0.1042-0.1527,0.2466-0.1636C82.1054,30.0011,82.2266,30.0566,82.2319,30.1361z"/>
					<path d="M87.6913,29.261c0.0064,0.0796-0.1033,0.1528-0.2457,0.1636c-0.1424,0.0107-0.2616-0.0446-0.268-0.1242
						c-0.0064-0.0786,0.1033-0.1528,0.2457-0.1636C87.5656,29.126,87.6848,29.1814,87.6913,29.261z"/>
					<path d="M88.2703,29.8492c0.0065,0.0796-0.1042,0.1537-0.2456,0.1645c-0.1424,0.0108-0.2635-0.0448-0.269-0.1243
						c-0.0064-0.0796,0.1042-0.1527,0.2467-0.1645C88.1437,29.7141,88.2639,29.7706,88.2703,29.8492z"/>
					<path d="M89.7093,29.5572c0.0055,0.0795-0.1032,0.1528-0.2466,0.1635c-0.1425,0.0117-0.2617-0.0437-0.268-0.1242
						c-0.0064-0.0786,0.1032-0.1528,0.2466-0.1635C89.5837,29.4222,89.7029,29.4777,89.7093,29.5572z"/>
					<path d="M88.8817,29.0963c0.0064,0.0796-0.1033,0.1528-0.2467,0.1646c-0.1415,0.0108-0.2616-0.0457-0.2681-0.1242
						c-0.0054-0.0795,0.1033-0.1528,0.2467-0.1646C88.756,28.9613,88.8753,29.0167,88.8817,29.0963z"/>
					<path d="M90.1127,28.476c0.0064,0.0796-0.1033,0.1528-0.2466,0.1636c-0.1416,0.0118-0.2617-0.0437-0.2671-0.1242
						c-0.0064-0.0786,0.1033-0.1528,0.2457-0.1636C89.9871,28.3411,90.1063,28.3965,90.1127,28.476z"/>
					<path d="M86.8329,30.7574c0.0064,0.0796-0.1032,0.1528-0.2456,0.1636c-0.1425,0.0107-0.2636-0.0448-0.27-0.1243
						c-0.0055-0.0785,0.1052-0.1527,0.2476-0.1634C86.7072,30.6224,86.8264,30.6778,86.8329,30.7574z"/>
				</g>
				<g>
					<g>
						<path d="M92.9022,39.1858c0,0,0.0873-0.8973,0.0986-1.7838c0.0103-0.7623,0.6855-0.6246,0.9684-1.3436
							c0.0465-0.1177,0.0826-0.2596,0.1028-0.4305c0.1468-1.2194,0.4843-3.0984,0.5098-2.7771
							c0.0246,0.3201,2.0039,1.0407,2.2697,3.155c0.3448,2.7426-0.8698,3.1867-0.8698,3.1867s0.9315,0.8862,0.2597,1.582
							c-0.6708,0.6968-1.0697,2.8217-1.0697,2.8217s-1.7224-1.5596-1.6615-2.8522C93.5722,39.4506,92.9022,39.1858,92.9022,39.1858z
							"/>
					</g>
				</g>
				<g>
					<path d="M85.9972,23.4534c0.6011,0.3599,0.9494,0.811,1.7009,0.8521c0.5115,0.028,1.6576,0.1633,2.189,0.3993
						c0.6445,0.2862,0.5695,0.5799,0.2406,0.5509c-0.6005-0.0522-3.1812-0.1536-3.683-0.5178
						C85.9429,24.3736,85.3961,23.0935,85.9972,23.4534z"/>
					<g>
						<path d="M78.5135,27.8659c0.2274-0.302,0.754-0.6613,1.1635-0.7392c0.7749-0.1465,1.0949,0.0005,1.7379,0.7001
							c0,0-0.987-0.6122-1.674-0.3472c-0.4187,0.1615-1.0703,0.7951-1.378,1.0918C78.2002,28.7284,78.2795,28.1768,78.5135,27.8659z
							"/>
						<path d="M86.4885,27.5537c0,0,0.1881-1.3708,1.02-1.5231c0.3144-0.0576,0.6874-0.021,1.0416,0.0663
							c0.3878,0.0955,0.6115,0.3896,0.6115,0.3896c-0.3049,0.0322-1.1388-0.2166-1.4135-0.1475
							C86.9725,26.5363,86.4885,27.5537,86.4885,27.5537z"/>
						<path d="M88.7763,27.4272c0.0781,0.3204-0.1595,0.6518-0.5272,0.7403c-0.3676,0.0886-0.7289-0.0996-0.8071-0.42
							c-0.076-0.3192,0.1605-0.6507,0.5283-0.7392C88.3391,26.9198,88.7004,27.1069,88.7763,27.4272z"/>
						<path d="M80.8083,28.6651c0.0026,0.3067-0.2833,0.5591-0.6368,0.5621c-0.3534,0.002-0.6424-0.2452-0.6449-0.5521
							c-0.0024-0.3078,0.2824-0.5592,0.6358-0.5622C80.5168,28.111,80.8058,28.3573,80.8083,28.6651z"/>
					</g>
					<path d="M81.5347,23.9684c-0.642,0.7119-1.8594,0.8762-2.3993,1.1984c-0.5398,0.3222-1.5157,1.0311-1.6542,1.5299
						c-0.1388,0.4978,0.0419,0.6001,0.1963,0.3747c0.211-0.3079,0.7958-0.7577,1.433-1.1179
						c0.6362-0.3599,1.9944-0.4873,2.2263-0.7595C81.5785,24.9103,81.9077,23.5548,81.5347,23.9684z"/>
				</g>
				<path d="M87.8237,36.1261c-0.1108,0.1362-1.0716-1.2193-1.5732-1.3245c-1.0009-0.21-1.2067,0.0048-1.7908,0.1623
					c-1.335,0.3601-0.8828,1.7642-1.0843,1.6911c-0.2015-0.0731-0.2212-2.4424,0.8386-2.6516
					c0.5177-0.1022,0.8343-0.0497,1.3926-0.2777C86.4757,33.3708,87.9345,35.99,87.8237,36.1261z"/>
				<path d="M87.588,38.2209c0,0-0.669,0.8525-1.9972,0.7852c-0.7253-0.0366-0.973-0.2246-0.973-0.2246s0.811,1.1905,1.7118,0.7917
					c0.8991-0.3981,1.0116-0.895,1.0116-0.895L87.588,38.2209z"/>
			</g>
			<g id="Haare">
				<path d="M78.0145,38.1186l-6.1328-3.1868l-0.9648,0.2451c-0.1833-0.1215-0.272-0.2129-0.1757-0.2438l-0.0308-0.6579
					c0,0,1.8875-2.0382,1.8298-3.0125c-0.0175-0.2963-0.6791-0.8161-1.3397-0.6254c-0.5937,0.1714-0.4973,1.4827-0.4973,1.4827
					c-0.5655,0.1911-0.4936-2.6469-0.0464-3.4861c0.5626-1.0558-1.2691-1.5677-0.5221-2.3597
					c0.7475-0.7919,0.979-3.6933,0.979-3.6933s-0.6497,1.1895-1.4118,1.7131c-0.7104,0.4888-1.5487-0.6252-1.8458-0.5319
					c-0.3102,0.0975-0.2987,2.1909-0.2987,2.1909c-0.0043,0.2477-2.309,0.3709-2.1644,3.1691
					c0.0563,1.1175-0.8317,1.4025-1.7569,1.2849c-1.1194-0.1424-1.0403-1.5435-2.4909-2.3353
					c-1.7065-0.9334-2.6351,1.2584-2.6351,1.2584s1.9042-0.7697,2.0434,0.4868c0.186,1.6733,0.7227,2.8225,2.1289,3.3991
					c0.9156,0.3762,2.2398,0.4271,4.3005-0.4773c-0.1839,0.3665-0.3409,0.6758-0.3982,0.7807
					c-0.3186,0.5806-0.6229,1.5674-1.5881,1.5743c-0.7881,0.0053-1.4867,0.2962-2.0849,1.1354
					c-0.8101,1.1367-2.3625,0.8997-2.3625,0.8997s1.8828,1.1343,3.3963,0.2478c1.115-0.653,2.2278-0.3286,3.0268-0.9753
					c0.7821-0.633,1.5631-0.8045,1.9494-0.8127c0.2291-0.0051,0.5085,0.0503,0.8056,0.1257
					c-0.0955,0.2569-0.3288,0.6241-0.8972,0.682c-0.8841,0.0896-1.9272,0.4017-1.7303,1.4795
					c0.1968,1.0778-2.0999,2.2373-2.0999,2.2373s1.2915,0.2863,2.4312-0.6857c1.1399-0.9714,1.7866-0.6891,2.3559-0.3147
					c0.7364,0.4838,1.5502,0.4471,2.2367,0.7517c1.1141,0.4942,1.6649,0.8485,1.6649,0.8485l5.8278-0.139L78.0145,38.1186z"/>
				<path d="M72.9502,20.5615c0.6729,0.4055,4.2679-2.0024,4.2679-2.0024s-3.6131-1.1443-3.855-2.1593
					c-0.2429-1.0147,3.3047-6.5942,2.7109-7.1777c-0.5938-0.5835-3.4129,0.3415-4.3088-0.6437
					c-0.896-0.9852-2.833-0.8149-3.9559-0.0867c-1.1243,0.7277-2.3686,1.2493-2.9006,0.5248
					c-0.931-1.2668,0.3513-3.3108,0.3513-3.3108s-1.2033-0.054-1.9459,1.8557c-0.1269,0.3282-0.506,1.2849-0.1389,2.187
					c0.3678,0.9017,0.803,1.8423,1.6987,1.867c1.4844,0.0399,2.8013-0.7827,3.2963-0.4563c0.495,0.3265,0.7921,0.1389,0.5742,1.109
					c-0.217,0.9698-0.3759,2.2866-0.1038,2.9938c0.2725,0.7082,0.5261,2.9442,2.2128,3.296
					C72.1157,18.8213,72.277,20.1551,72.9502,20.5615z"/>
				<g>
					<path style="fill:#CBA067;stroke:#000000;stroke-width:0.5;stroke-miterlimit:10;" d="M71.3155,12.1709
						c-0.5542,0.5109-1.1155,2.2914-1.1626,2.3079c-0.774,0.2716-1.2151,0.5698-1.8759-0.5124
						c-0.2439-0.4006-0.1743-0.8858-0.9201-1.1002c-0.2167-0.0622-0.465-0.0587-0.715-0.0171
						c-0.6779-0.1892-1.5664-0.136-2.1845,0.7309c-0.7671,1.0701-0.0452,1.5203-1.0259,1.9718
						c-0.5711,0.2632-0.7675-0.3711-1.0044-0.8227c-0.2042-0.3882-0.3077-0.7851-0.9023-1.1525
						c-0.7045-0.4361-1.0144-0.5914-2.117,0.0109c-0.7093,0.3881-1.3484,1.3811-1.3484,1.3811s2.2319-0.6457,2.5769,0.3742
						c0.3464,1.0209,0.6702,2.2039,1.8246,2.3722c2.0612,0.299,2.7509-0.4956,5.3153-0.3446
						c0.1384,0.0081,2.5304,0.7115,2.5304,0.7115c0.188,0.1795,0.3676,0.4094,0.5456,0.7081
						c-0.8085,0.3695-0.9025,1.6126-1.3772,1.346c-0.6285-0.3508-1.9387-1.6436-3.2497-0.3338
						c-1.0417,1.0399-2.2936,1.251-2.2723,2.0673c0.0208,0.8178,0.6138,1.6581-0.3539,2.3313
						c-0.6268,0.4366-1.2542,0.239-1.4801-0.2164c-0.4827-0.9697-0.5081-1.8283-0.5081-1.8283s-0.5142,1.2473-0.5548,1.9635
						c-0.0401,0.7147,0.5306,2.2874,2.6753,2.0821c1.0693-0.1024,2.0649-0.9849,2.1208-1.289
						c0.2519-1.3704,1.3914-1.902,1.7461-1.8611c0.0941,0.0109,0.1459,1.4164,1.3823,1.4945
						c0.9216,0.0582,1.2549-0.3425,1.5654,0.0909c0.0991,0.1384,0.3667,1.3245-0.4603,1.6199
						c-0.5078,0.1814-1.4344,1.2218-1.0478,1.683c0.4494,0.5361,0.5976,1.8873-0.6053,1.8077
						c-1.1512-0.0762-2.6786,0.7782-2.7845,0.9301c-0.2036,0.2919,1.7163-0.2051,2.8773,0.409
						c0.9634,0.5096,1.7652-0.1526,1.7585,0.0804c-0.0184,0.6356,0.4,1.3124,0.0728,1.7775
						c-0.4667,0.6634,0.6797,0.9557,0.4783,1.8467c-0.2014,0.891,0.6946,1.5089,1.4364,1.3214
						c1.0203-0.2579,1.7346,0.9521,1.1009,1.4793c-0.6333,0.5287-3.4192-0.1222-3.4192-0.1222s0.8933,0.6915,1.2615,1.2926
						c0.369,0.6036,2.3924,1.0045,3.073,0.6666c0.6785-0.3404,1.1823,0.6748,2.1232-0.149c0.6042-0.529,1.6959,0.1049,2.0153,0.0686
						c0.3183-0.0393-2.2555-3.698-1.4527-3.837c1.1361-0.1951-0.8664-4.4591-0.7689-5.5272c0,0-0.9912-8.0308,2.6917-10.2035
						c3.7676-2.2227,6.4162-2.279,6.4162-2.279l4.936,2.2126l4.4267,6.1287c0.4462,0.9755,2.9045,7.4549-0.3646,7.0546
						c0,0-0.4318,1.8433,0.7047,1.6502c0.8035-0.135,1.2573-0.5875,1.5707-0.6564c0.3132-0.0714,0.4285,0.7809,0.5265,1.4381
						c0.0337,0.2248,0.0101,0.2631-0.0085,0.2631c0.0355,0.0313,0.1374,0.1523,0.3863,0.5463
						c0.6679,1.0571,1.2935,0.9148,2.0467,1.0107c0.7538,0.0935,1.5454-0.5439,1.6933-1.2356
						c0.1477-0.6893,0.1933-1.0447,0.1933-1.0447s-1.1494,1.0633-1.9221,0.7746c-0.7728-0.2873-0.8541-1.77,0.1489-2.0887
						c0.8134-0.2582,1.1834-1.2292,1.0209-2.2631l0.0143,0.0159c2.1454-0.0651,1.2709-1.9858,1.6352-2.342
						c0.2405-0.2352,1.1604-0.2296,0.8873-0.4983c1.267,0.7167,2.8994-0.4356,3.5092-1.7473
						c0.8021-1.7254,1.7349-1.4494,1.3554-3.0897c-0.2857-1.2313,2.3094-1.0391,2.3094-1.0391s-1.6031-1.7596-2.9035-0.3128
						c-1.1056,1.2281-0.5661,2.5236-1.575,3.0294c-0.8336,0.4175-1.7659,0.4433-2.0835-0.6294
						c-0.7922-2.6879-3.6375-1.2161-3.7236-1.4482c-0.0518-0.1393-0.0855-0.2697-0.1233-0.4019
						c0.048-0.0282,0.095-0.0564,0.1454-0.0835c0.6188-0.3354,0.8786-1.1916,0.6926-1.8326c0.272,0.0242,0.5887,0.1046,0.9867,0.297
						c0.2785,0.1345,1.2588-0.3383,2.2625,0.0444c0.9175,0.3498,2.072-0.2065,2.1011-1.1207
						c0.028-0.8772,0.5475-1.9567,0.4124-2.593c-0.2714-1.2777-0.8147-2.2312-0.8147-2.2312s0.1098,2.5602-0.5549,3.4369
						c-0.3072,0.4052-0.5885,0.8989-1.3246,0.6953c-1.1361-0.3145-0.9471-1.1139-1.1987-1.892
						c-0.1484-0.4605-1.7994-0.511-2.1186-0.8444c3.7757-1.2922,3.1909-5.2898,3.1909-5.2898s-0.8152,2.387-2.2118,2.9913
						c-0.6348,0.2747-1.4989-0.3287-2.2693-0.7962c-0.2878-0.1742-0.6428-0.2728-1.0214-0.3331
						c0.5951-0.0628,2.1234-1.2766,2.1234-1.2766c0.4318-0.5231,0.7547-1.1426,0.8944-1.7575
						c0.3368-1.4819-0.2943-2.5814-1.5561-3.696c-0.9479-0.8367,1.434-3.5688,1.434-3.5688s-2.9843,1.1163-3.2024,3.0486
						c-0.1866,1.6422,1.0051,2.3836,0.4777,3.3812c-0.0662,0.125-0.1418,0.2412-0.2219,0.3507
						c-0.5324-0.1137-1.2072-0.0616-1.6257,0.2358c-0.0662,0.0472-0.1181,0.0938-0.1669,0.141
						c-0.016-0.0116-0.0309-0.0168-0.047-0.0295c-2.2061-1.728-3.6671,1.1232-3.8723,0.9844
						c-1.5039-1.0197-1.9297-2.2665,0.211-2.6335c0.3048-0.0523,2.38-0.1251,3.0147-0.9917c0.382-0.5204,0.578-1.412,0.2829-2.2359
						c-0.2944-0.8264-0.2119-1.5747-0.8195-1.9532c-0.6089-0.3785-2.0931-2.0711-2.0931-2.0711s0.441,2.3149,0.9567,3.2679
						c0.2428,0.4465,0.0435,1.0733-0.6743,1.3353c-1.1075,0.404-1.454-0.5641-2.1108-1.0519
						c-0.6553-0.4867-0.9597-0.8036-2.4096-0.5494c-1.8256,0.3193-2.5434,2.1867-2.6177,2.9024
						c-0.0267,0.2597-0.1891,0.5168-0.4335,0.7636c-0.4825-0.1721-0.983-0.2939-1.3497-0.245
						c-0.0209,0.0028-0.0417,0.0114-0.0627,0.0152c0.3484-0.4015,0.6011-0.7804,0.6212-1.0546
						c0.0228-0.3059,0.6082-1.2098-0.426-2.3324c-0.3785-0.4104-0.4916-0.691-0.224-1.2475
						c0.2672-0.5531,0.8103-1.0286,1.1558-1.0522c0.6869-0.0505,2.9543-1.5263,2.9543-1.5263s-2.3168,0.2452-2.8681-0.0509
						c-0.973-0.5217-1.2319,0.6994-1.8924,0.7009c-0.5938,0.0018-1.5334,0.5964-1.7706,1.2822
						c-0.2533,0.7338,0.1834,0.9558,0.3709,1.3856c0.5053,1.1636,0.0077,1.3525-0.6597,1.8295
						c-0.0407,0.0291-0.4941,1.1563-1.136,0.9618c-0.9491-0.2866-1.1661,0.6743-2.3566,2.0503
						c-0.2203,0.2545-2.557-4.4456-2.6246-4.2787c0.1451-0.3246-4.7432-1.8687-5.4977-0.9667c0,0,1.3713,0.2969,2.5184,1.6893
						c0.6277,0.762,1.587,0.6998,2.1933,1.9767c0.5128,1.08,0.1606,1.6306-0.2404,2.4002
						C74.5003,9.4108,71.8697,11.66,71.3155,12.1709z"/>
					<path style="fill:#CBA067;" d="M97.2333,22.8913C97.2211,22.9006,97.1972,22.8878,97.2333,22.8913L97.2333,22.8913z"/>
				</g>
				<path d="M81.4399,40.7439c0,0-3.4265-3.945-3.7576-5.8653c-0.3311-1.9213-0.5115-5.2222-0.6362-6.8232
					c-0.1237-1.6009-1.6597-4.8107,3.4606-8.6639c0,0-2.162-0.0093-3.7868,2.1153c-0.2484,0.3249-1.3654,0.9733-1.5791,1.4057
					c-0.4874,0.986-0.9717,1.8493-0.5809,2.361c0.4993,0.6536,0.8383,1.5623,0.5222,2.4146
					c-0.3351,0.9035,0.4368,1.7942,0.1682,2.9078c-0.1996,0.8279-1.0693,1.8746-0.3683,2.3769
					c0.82,0.5876,1.4554,1.8336,1.0074,2.4127c-0.8195,1.0595,0.4702,1.6625,0.9564,2.3756
					c0.4262,0.6287,1.7899,2.6421,2.6353,3.4561c1.076,1.0349,0.6718,1.2041,0.7742,1.4405
					c0.1823,0.4227,0.1243,1.2323,0.1801,1.429c0.0557,0.1977,0.3509,2.4701,0.3509,2.4701s1.0546,0.6024,0.9852,0.2456
					c-0.0675-0.3567-0.742-1.7942-0.2651-2.3951c0.4768-0.6008,1.4055-1.0752,0.7966-1.6728
					c-0.609-0.5966-1.3674-0.4983-1.336-1.1441C80.9967,40.9436,81.4399,40.7439,81.4399,40.7439z"/>
				<path d="M97.866,27.6481c0,0,0.1227-1.1547-0.9281-2.4818c-1.3262-1.6757-1.9329-1.4058-1.9329-1.4058l-0.7171-1.8612
					c0,0,0.8486,0.2728,1.0653,0.4672c0.3553,0.3211,0.9459,1.6652,0.9459,1.6652s0.3196-1.5427-0.0391-2.4628
					c-0.3597-0.9199-2.6092-1.1895-2.6092-1.1895s-1.2843-2.2188-1.9893-2.7801c-0.7072-0.5628-3.4563-1.0538-3.4563-1.0538
					s-1.1649-0.8582-2.1801-0.8326c-0.2108,0.0056-1.1128,0.5107-1.7013,0.8023c-0.7398,0.3666-1.1493,0.9605-2.4253,0.7999
					c-0.6256-0.0788-1.3525,1.2929-2.1397,1.2707c-0.4239-0.012-0.8539,0.145-1.2511,0.3744
					c-0.9789,0.5653-3.8335-1.4395-3.8335-1.4395s2.6918,2.7736,3.6049,2.4415c2.5512-0.928,7.4126-2.6051,7.579-1.9738
					c0.225,0.8574,0.4539,0.5166,1.6123,1.1213c1.1593,0.6046,2.9449,0.3613,2.8204,1.4303
					c-0.1242,1.0699,0.0141,1.7835,2.1565,2.7084c1.1473,0.4953,1.4563,1.4805,0.9949,3.2702
					c-0.4614,1.7898,2.2133,2.1011,2.3692,3.2407c0.0744,0.5375,0.3326,1.7917-0.1024,2.5518
					c-0.486,0.8493-1.3987,0.5867-1.3987,0.5867c0.3278,0.8199-0.4279,3.5275,2.1946,3.9546
					c1.9081,0.3108,2.398,2.2005,2.398,2.2005s0.2294-0.5847,0.21-1.175c-0.0137-0.4155-0.315-0.9141-0.1921-0.8639
					c0.3438,0.1405,1.8208-0.1814,1.8208-0.1814l0.3757-1.5406c0,0-2.3688,0.9176-2.5805-0.3717
					c-0.211-1.2905-0.3259-2.7858-0.3259-2.7858l-1.1878-2.4766c0,0,0.7623-0.6262,1.0709-0.1713
					C98.4026,29.9415,97.866,27.6481,97.866,27.6481z"/>
				<path d="M76.502,14.6955c-0.0948-0.4769,0.7396-0.8892-0.2504-1.8176c-0.99-0.9284-1.6571-0.9343-1.4978-1.5389
					c0.1839-0.6977-0.0691-2.5432-0.0691-2.5432l-1.4687,1.3559l0.3083,1.2918l0.6411,1.5214l1.542,0.8199L76.502,14.6955z"/>
				<path d="M100.8506,28.2846c-0.9287-2.1546,1.5767-0.7717,2.666,0.0738c0.2731,0.2687,0.5049,0.5553,0.6378,0.8642
					c1.1378,2.6496,4.9225,0.8164,4.9225,0.8164s-0.4044,0.9619-1.6604,1.6521c-0.5536,0.3042-1.6494,1.352-2.7396,0.4808
					c-2.1986-1.7568-1.8462-0.9287-3.9916-0.8636C100.6852,31.3083,101.4496,29.6743,100.8506,28.2846z"/>
				<path d="M99.272,13.6105c0.8969,0.2821,1.102-1.6097,1.102-1.6097c0.4318-0.5231,0.7547-1.1426,0.8944-1.7575
					c0.3368-1.4819-0.2943-2.5814-1.5561-3.696c-0.9479-0.8367,1.434-3.5688,1.434-3.5688s-2.9843,1.1163-3.2024,3.0486
					c-0.1866,1.6422,1.0051,2.3836,0.4777,3.3812c-0.0662,0.125-0.1418,0.2412-0.2219,0.3507
					c-0.5324-0.1137-1.2072-0.0616-1.6257,0.2358l-0.1669,0.141c-0.016-0.0116-0.0309-0.0168-0.047-0.0295
					c-2.2061-1.728-3.6671,1.1232-3.8723,0.9844c-0.7346-0.498-1.5749,1.3263-0.4792,1.5528
					c1.1856,0.2451,1.194,2.3166,2.2558,1.9896c0,0,1.7155-0.9192,2.8127-0.429S98.3752,13.3283,99.272,13.6105z"/>
				<path d="M86.0288,16.0284c0.3911-1.061,0.7904-1.7469,0.4231-2.7799c-0.3673-1.0331-0.5591-1.5848-0.5591-1.5848
					s1.7385,1.4516,1.3769,2.4812c-0.3616,1.0296,0.22,2.574,0.22,2.574L86.0288,16.0284z"/>
				<path d="M101.0137,20.8304c0,0-2.6848-0.8406-2.4183-1.9084c0.2665-1.0678-1.0315,0.8456,0.1522,1.7845
					c1.1837,0.939,2.1202,0.5738,2.1202,0.5738L101.0137,20.8304z"/>
				<path d="M70.5842,18.027c0.2693,0.3313,0.9586,1.5118,1.4406,1.6423c0.482,0.1304,1.018,0.1207,1.018,0.1207
					s-0.8115,0.6899-1.3926,0.282c-0.5366-0.3767-1.2455-0.8674-1.2455-0.8674L70.5842,18.027z"/>
			</g>
		</g>
	</g>
	<g>
		<g>
			<g>
				<path d="M22.4634,64.6671c1.1868-0.6784,2.3185-1.4504,3.4759-2.1795c1.1539-0.7353,2.3206-1.4502,3.4898-2.1625
					c1.1679-0.7146,2.3469-1.4119,3.5541-2.0647c1.2159-0.6306,2.3993-1.3498,3.7899-1.6977
					c2.6115-0.6448,4.9745-2.0898,7.3369-3.4424c2.3517-1.392,4.72-2.758,7.1182-4.0826c-2.2743,1.5209-4.5719,3.0114-6.898,4.4559
					c-1.1764,0.6997-2.3558,1.3991-3.5786,2.0343c-1.2205,0.6328-2.5019,1.2012-3.8678,1.5056
					c-1.2778,0.3004-2.4838,1.0022-3.6906,1.6162c-1.201,0.6445-2.3912,1.3155-3.5825,1.9851
					C27.2305,61.9772,24.8888,63.3965,22.4634,64.6671z"/>
			</g>
			<g>
				<path d="M25.7889,61.3417c0.8868-0.5313,1.7244-1.142,2.5844-1.7185c0.8599-0.5769,1.7289-1.1409,2.6054-1.6958
					c0.8758-0.5565,1.7738-1.0794,2.7002-1.5604c0.4637-0.24,0.9319-0.4732,1.4305-0.6623c0.2401-0.1077,0.5111-0.172,0.7711-0.2513
					c0.2449-0.0588,0.4892-0.1191,0.7299-0.1956c1.9274-0.6154,3.7055-1.7155,5.5478-2.6595
					c1.8413-0.9727,3.7261-1.7887,5.5784-2.7292c-1.6861,1.2129-3.5458,2.1756-5.3687,3.1252
					c-1.8288,0.9466-3.5783,2.1015-5.6155,2.7316c-2.0336,0.3931-3.7671,1.5359-5.5824,2.5202
					C29.3721,59.2617,27.6396,60.4032,25.7889,61.3417z"/>
			</g>
		</g>
		<g>
			<g>
				<path d="M59.3755,60.0115c-2.511,1.3602-4.9959,2.7739-7.5793,4.0112c-1.2952,0.6006-2.5989,1.2306-4.0141,1.5936
					c-1.3034,0.3955-2.5297,1.1803-3.7473,1.8967c-2.4257,1.4759-4.8155,3.1107-7.4401,4.2745
					c-2.5692,1.2327-5.1056,2.5477-7.6468,3.8534c2.4401-1.4881,4.919-2.911,7.4634-4.2239
					c2.592-1.1945,4.9336-2.8067,7.3693-4.3185c1.2272-0.7383,2.4374-1.5226,3.8796-1.9492c1.3613-0.331,2.657-0.9324,3.955-1.5152
					C54.2153,62.4695,56.7621,61.172,59.3755,60.0115z"/>
			</g>
			<g>
				<path d="M56.0501,63.0044c-1.7978,1.08-3.5312,2.2774-5.4144,3.2407c-0.9414,0.4698-1.9155,0.9321-2.9659,1.1837
					c-0.9683,0.2507-1.887,0.7749-2.7962,1.272c-1.8147,1.0292-3.5714,2.1944-5.4391,3.1852
					c-0.9339,0.5104-1.9051,0.9073-2.8479,1.3544c-0.9389,0.4606-1.8917,0.9024-2.8167,1.4029
					c1.6942-1.2412,3.6026-2.2243,5.4557-3.1471c1.8359-0.9925,3.5752-2.1662,5.4042-3.2235
					c0.9198-0.5188,1.8545-1.0372,2.9265-1.3126c1-0.2227,1.9477-0.6489,2.8888-1.0987
					C52.3357,64.9764,54.14,63.8904,56.0501,63.0044z"/>
			</g>
		</g>
		<g>
			<g>
				<path d="M145.7736,81.044c-1.8082-1.8887-3.5007-3.8829-5.2496-5.8218c-1.7668-1.9098-3.4626-3.9406-5.4311-5.5932
					c-0.2443-0.1808-0.5132-0.3568-0.8058-0.5341c-0.2768-0.1864-0.5463-0.3829-0.8035-0.5931
					c-0.5166-0.4183-0.9872-0.8831-1.4467-1.352l-2.6994-2.8411c-1.8692-1.8108-3.6945-3.7174-5.2827-5.7936
					c1.7502,1.9494,3.6541,3.7178,5.5352,5.5434c1.8781,1.8385,3.4671,3.9238,5.7347,5.2681
					c1.0366,0.8471,1.9197,1.8096,2.8133,2.7685c0.8885,0.9616,1.7476,1.9483,2.5953,2.9436
					C142.4516,77.0097,144.0543,79.0781,145.7736,81.044z"/>
			</g>
			<g>
				<path d="M143.659,76.8433c-1.4616-1.5129-2.7701-3.162-4.1724-4.7202c-1.4248-1.5433-2.7484-3.1659-4.6011-4.2052
					c-1.7064-1.3103-2.9961-2.9888-4.4881-4.4541c-1.5061-1.4427-2.994-2.9709-4.2438-4.6604
					c0.7119,0.7738,1.4676,1.5033,2.2121,2.2394c0.7519,0.7274,1.5393,1.4181,2.284,2.1695
					c1.5075,1.4688,2.8398,3.1277,4.4707,4.3908c0.4062,0.3125,0.8576,0.5525,1.3,0.8944c0.4178,0.3389,0.8066,0.7016,1.1773,1.0789
					c0.7429,0.7535,1.4465,1.5384,2.1164,2.3501c0.6727,0.8093,1.3334,1.6269,1.9831,2.4527
					C142.3486,75.2035,142.9566,76.0636,143.659,76.8433z"/>
			</g>
		</g>
		<g>
			<g>
				<path d="M113.2472,65.3322c1.9049,1.7903,3.8102,3.5836,5.7978,5.2514c0.5046,0.4065,1.0125,0.8014,1.5571,1.1273
					c0.595,0.3651,1.0759,0.8289,1.542,1.2986c0.9295,0.9443,1.7478,1.9681,2.582,2.9749c0.8295,1.0102,1.6483,2.0262,2.5086,3.0003
					c0.8412,0.9888,1.8081,1.8533,2.7123,2.8104c1.8209,1.8811,3.5608,3.8338,5.2531,5.8271
					c-1.8306-1.8661-3.6651-3.7275-5.5275-5.5535c-0.9348-0.8983-1.9036-1.796-2.7719-2.7871
					c-0.8766-0.9782-1.7053-1.9914-2.5412-2.9943c-0.8364-1.0008-1.6695-2.007-2.569-2.9303
					c-0.4475-0.4598-0.9167-0.9111-1.4368-1.2335c-0.5724-0.3545-1.0906-0.7735-1.596-1.1944
					C116.7578,69.2165,114.9707,67.2996,113.2472,65.3322z"/>
			</g>
			<g>
				<path d="M113.4291,67.1227c1.5358,1.4404,2.9085,3.0375,4.4261,4.4708c0.7525,0.7223,1.5187,1.4243,2.3984,1.9493
					c0.9315,0.5977,1.6564,1.3831,2.3671,2.1643c1.4051,1.5777,2.6885,3.2377,4.1205,4.7559
					c1.4702,1.4575,2.9739,2.9895,4.1933,4.6995c-0.7213-0.7654-1.4875-1.4837-2.2346-2.2156
					c-0.755-0.7203-1.5527-1.4018-2.2794-2.1793c-1.4627-1.5266-2.7652-3.184-4.1656-4.7305
					c-0.7074-0.7572-1.4154-1.5431-2.2562-2.0849c-0.9185-0.5684-1.6985-1.3129-2.445-2.0542
					C116.0677,70.3927,114.7974,68.7121,113.4291,67.1227z"/>
			</g>
		</g>
		<g>
			<g>
				<path d="M97.5675,116.7445c-0.5468,2.7659-0.7351,5.5663-1.0108,8.3731c-0.3223,2.7983-0.8816,5.5689-1.2045,8.3459
					c-0.2388,2.8057-0.6603,5.5927-0.9942,8.3817c-0.3148,2.783-0.7174,5.5961-0.6281,8.3613
					c0.1918,2.7687,1.1885,5.4194,2.2184,8.0241c0.5193,1.294,1.0268,2.6589,1.3301,4.0291
					c0.3472,1.3652,0.6723,2.7352,0.9843,4.1082c1.19,5.4974,2.271,11.054,2.5141,16.6838
					c-0.2009-2.8072-0.6628-5.5834-1.1691-8.3462c-0.5103-2.763-1.1068-5.5098-1.7589-8.2424
					c-0.3199-1.3677-0.6528-2.7325-1.0074-4.091c-0.317-1.3783-0.8006-2.6545-1.333-3.9677
					c-1.0379-2.6016-2.0893-5.2921-2.2645-8.1686c-0.0773-2.8647,0.3427-5.6494,0.6702-8.4462
					c0.3496-2.7942,0.7708-5.5721,1.0615-8.3676c0.3742-2.8058,0.9686-5.5499,1.3435-8.3349
					C96.6721,122.3071,96.943,119.4881,97.5675,116.7445z"/>
			</g>
			<g>
				<path d="M101.6082,173.2418c-0.5841-2.5132-1.1211-5.0453-1.7435-7.5407c-0.7562-2.4624-1.6004-4.9049-2.4057-7.3577
					c-0.7879-2.4639-1.6714-4.8776-2.2434-7.4388c-0.4117-2.6159,0.0644-5.2264,0.1654-7.7613l0.0033-0.0362l0.9423-6.1187
					c0.3143-2.0412,0.6663-4.0723,0.8911-6.12c0.4864-4.0926,0.8164-8.2172,1.4343-12.3039
					c-0.4413,4.1068-0.5175,8.2413-0.9842,12.3538c-0.1934,2.0623-0.5397,4.1038-0.8497,6.1443l-0.9574,6.1236l0.0032-0.0358
					c-0.1369,2.6063-0.6012,5.1641-0.2527,7.6883c0.5173,2.4873,1.3855,4.9505,2.1405,7.4096
					c0.7757,2.4624,1.6002,4.9083,2.2995,7.4004C100.6201,168.1761,101.086,170.7119,101.6082,173.2418z"/>
			</g>
		</g>
		<g>
			<g>
				<path d="M73.8965,125.1342l0.9719,13.5234c0.3439,4.5147,0.4477,9.0383,1.1959,13.4635
					c1.0428,4.3291,3.2329,8.3964,4.5379,12.7228c1.458,4.2786,2.8438,8.58,4.2128,12.8872l-4.557-12.767
					c-1.4031-4.2989-3.5454-8.2855-4.6727-12.7523c-0.3958-2.2515-0.6113-4.4909-0.7393-6.7711l-0.4041-6.761
					C74.1631,134.175,74.0077,129.6513,73.8965,125.1342z"/>
			</g>
			<g>
				<path d="M72.8434,128.127c0.2325,3.5842,0.4215,7.1749,0.5544,10.7675c0.0982,3.5829,0.2798,7.1814,0.4777,10.7491
					c0.1597,1.7717,0.4678,3.5399,1.0375,5.2178c0.2731,0.8415,0.6995,1.6157,1.0454,2.4656
					c0.3446,0.8359,0.6552,1.6798,0.9637,2.5249c1.2305,3.38,2.33,6.8015,3.4033,10.2307
					c-1.2171-3.3804-2.4527-6.7548-3.7331-10.1067c-0.3263-0.835-0.6554-1.6701-1.014-2.4871
					c-0.3465-0.8067-0.7875-1.6154-1.0796-2.4831c-0.5984-1.7224-0.9231-3.5176-1.099-5.319
					c-0.2442-3.6023-0.3755-7.1841-0.4435-10.7835C72.8668,135.3147,72.8333,131.7241,72.8434,128.127z"/>
			</g>
		</g>
		<g>
			<g>
				<path d="M101.3865,70.5974c-1.2259,2.28-2.4191,4.5791-3.4922,6.9236c-0.5033,1.1774-1.0653,2.3659-1.3172,3.5848
					c-0.1736,1.2281-0.1373,2.5511-0.1236,3.8284c0.0166,1.2883,0.0702,2.5781,0.1625,3.8637
					c0.054,1.2881,0.3518,2.5526,0.5271,3.8316c0.4096,2.5505,0.7872,5.1078,1.1397,7.6749
					c-0.5344-2.5329-1.0438-5.0756-1.5211-7.6251c-0.5745-2.5331-0.7442-5.1423-0.8075-7.7366
					c0.0038-1.3062-0.0259-2.5875,0.1766-3.9207c0.298-1.315,0.8531-2.4913,1.417-3.6635
					C98.6901,75.0237,100.0019,72.7863,101.3865,70.5974z"/>
			</g>
			<g>
				<path d="M101.6082,73.2578c-0.7059,1.6334-1.3891,3.2728-1.9807,4.941c-0.5754,1.6642-1.1579,3.3618-1.298,5.0891
					c-0.1398,1.7438-0.0287,3.5215,0.0978,5.2853c0.1307,1.7675,0.3294,3.5322,0.5206,5.3021
					c-0.3962-1.7361-0.6915-3.4941-0.9035-5.2652c-0.2064-1.7721-0.317-3.5579-0.2127-5.3622
					c0.0801-0.914,0.2975-1.7918,0.5499-2.6525c0.2541-0.8607,0.5407-1.7094,0.8881-2.5326
					C99.9417,76.4081,100.7173,74.8,101.6082,73.2578z"/>
			</g>
		</g>
		<g>
			<g>
				<path d="M66.1372,68.8239c0.1523,2.5595-0.1905,5.1135-0.3716,7.6565c-0.0947,1.2733-0.2218,2.5434-0.2893,3.8132
					c-0.0497,0.6504-0.0142,1.2318-0.0808,1.9309c-0.0895,0.656-0.2376,1.2774-0.3858,1.9034
					c-0.6452,2.4835-1.3787,4.9317-2.1569,7.3676c-0.777,2.4357-1.6071,4.8538-2.4797,7.2571l2.1121-7.369
					c0.7002-2.4549,1.4384-4.9026,2.0394-7.3753c0.1537-0.6146,0.3079-1.237,0.3979-1.8463
					c0.0658-0.5712,0.0444-1.2723,0.1002-1.8956c0.091-1.2804,0.2067-2.5544,0.3615-3.8237l0.4477-3.8062
					C65.9714,71.3692,66.1779,70.1012,66.1372,68.8239z"/>
			</g>
			<g>
				<path d="M63.9202,70.8191c0.0894,1.8266,0.1048,3.6549,0.065,5.4842c-0.0438,1.8221-0.1185,3.6763-0.5462,5.4825
					c-0.4222,1.787-0.9327,3.5424-1.4665,5.2907c-0.5487,1.7438-1.1207,3.4795-1.7658,5.1914
					c0.4373-1.776,0.9194-3.5369,1.3847-5.3016c0.4773-1.7605,0.9558-3.5221,1.3686-5.2907
					c0.4648-1.7463,0.5123-3.571,0.6582-5.3883L63.9202,70.8191z"/>
			</g>
		</g>
		<g>
			<g>
				<path d="M45.7413,183.4397c-0.4016-5.9802-0.7835-11.9624-0.9875-17.9558c-0.1062-2.9937-0.16-6.0067,0.0653-9.0045
					c0.209-2.9958,0.5431-5.9712,0.2826-8.942c-0.3218-3.0284,0.2227-6.0508,0.7798-8.9857l0.8915-4.4061
					c0.2824-1.487,0.7237-2.928,1.1434-4.3665c1.7565-5.7372,3.6985-11.4075,5.6951-17.0597l-2.6869,8.5791
					c-0.8959,2.8588-1.7809,5.7219-2.6041,8.5994c-0.9069,2.8515-1.3848,5.7999-1.9741,8.7429
					c-0.5288,2.9365-1.0595,5.8991-0.7703,8.8624c0.2501,3.018-0.1031,6.0327-0.3239,9.0063
					c-0.2253,2.9813-0.2357,5.9697-0.1603,8.9651C45.2438,171.4624,45.4768,177.4522,45.7413,183.4397z"/>
			</g>
			<g>
				<path d="M50.1752,116.3772c-1.2454,4.6401-2.5269,9.2699-3.8122,13.8974c-1.3699,4.5993-2.4238,9.2935-2.6632,14.071
					c-0.0635,1.1906-0.0659,2.3847,0.0315,3.5688c0.1078,1.2244,0.0165,2.4263-0.0143,3.627
					c-0.0922,2.4011-0.2042,4.7997-0.2666,7.196c-0.0591,2.3976-0.0467,4.7979,0.0028,7.1974
					c0.0417,2.3998,0.1169,4.8006,0.293,7.1961c-0.4928-4.7799-0.6928-9.5894-0.6718-14.399
					c0.0046-2.4069,0.1187-4.8072,0.1943-7.2063c0.0244-1.1977,0.1069-2.4023-0.0051-3.573
					c-0.1069-1.2093-0.1116-2.4227-0.0548-3.6301c0.242-4.8312,1.3493-9.5772,2.7631-14.1598
					C47.3334,125.5554,48.7342,120.9605,50.1752,116.3772z"/>
			</g>
		</g>
		<g>
			<g>
				<path d="M70.4602,128.127c-1.201,2.0484-2.3801,4.1093-3.5393,6.1804c-1.1713,2.0635-2.3241,4.1392-3.3952,6.2507
					c-0.5315,1.0691-1.024,2.1073-1.4035,3.2424c-0.4168,1.1187-0.8614,2.2084-1.1124,3.348
					c-0.2583,1.1364-0.3406,2.3083-0.3018,3.4785c0.0575,1.1732,0.103,2.3787,0.1031,3.5637
					c0.0127,2.3792-0.0348,4.7569-0.1555,7.1335c-0.0602,1.1882-0.1419,2.3761-0.2681,3.5627
					c-0.1082,1.1956-0.3678,2.3617-0.5269,3.5287c-0.3384,2.3456-0.6134,4.7041-0.8881,7.0616l-0.8164,7.0758
					c0.3616-4.7358,0.7441-9.4687,1.3298-14.1887c0.8035-4.6788,0.8521-9.4311,0.8352-14.1689
					c-0.0114-1.1894-0.0566-2.3566-0.1019-3.5553c-0.031-1.2007,0.0625-2.4171,0.3396-3.595
					c0.2698-1.1815,0.7356-2.2961,1.1544-3.3969c0.38-1.117,0.9089-2.2281,1.4628-3.2698
					C65.4197,136.1791,67.9174,132.1385,70.4602,128.127z"/>
			</g>
			<g>
				<path d="M69.2409,133.5585c-0.9136,1.5538-1.7932,3.1271-2.6398,4.7162c-0.8573,1.5823-1.6859,3.1826-2.4051,4.8244
					c-0.3535,0.8201-0.6977,1.6555-0.9003,2.502c-0.1949,0.8616-0.317,1.7558-0.4044,2.642
					c-0.1694,1.7794-0.1451,3.5726-0.0339,5.3642c0.1559,1.7809,0.1267,3.6395,0.0132,5.4268
					c-0.1063,1.8031-0.2356,3.6033-0.4275,5.3977c-0.3768,3.5865-0.8208,7.1768-1.6265,10.6945
					c0.3297-1.7724,0.543-3.5619,0.7324-5.3525c0.2012-1.7892,0.3708-3.582,0.5102-5.3768
					c0.1306-1.7954,0.2749-3.5897,0.3564-5.3861c0.0975-1.8108,0.1114-3.5637-0.0564-5.3757
					c-0.0969-1.8052-0.1071-3.6275,0.0805-5.4368c0.0974-0.9054,0.2264-1.8008,0.4359-2.6945
					c0.2203-0.9079,0.5916-1.7382,0.9719-2.5611C65.3942,139.6647,67.2851,136.5866,69.2409,133.5585z"/>
			</g>
		</g>
	</g>
</g>
<g>
</g>
<g>
</g>
<g>
</g>
<g>
</g>
<g>
</g>
<g>
</g>
</svg>
