<?xml version="1.0" encoding="iso-8859-1"?>
<!-- Generator: Adobe Illustrator 25.0.1, SVG Export Plug-In . SVG Version: 6.00 Build 0)  -->
<svg version="1.1" id="Layer_1" xmlns="http://www.w3.org/2000/svg" xmlns:xlink="http://www.w3.org/1999/xlink" x="0px" y="0px"
	 viewBox="0 0 173.6633 267.3611" style="enable-background:new 0 0 173.6633 267.3611;" xml:space="preserve">
<g>
	<g id="Maskottchen_4_">
		<path style="fill:#F5CBAB;stroke:#000000;stroke-width:0.7;stroke-miterlimit:10;" d="M20.1578,63.2709
			c0,0,2.6477-5.7414,2.5698-7.5714c-0.0615-1.4445,10.2426,0.3667,10.1537,3.2106c-0.0195,0.623-0.218,1.5574,0.2434,2.3362
			s2.2905,1.7238,2.2905,1.7238l-0.5243,3.9609l-8.3829,1.3238L20.1578,63.2709z"/>
		<g>
			<g>
				<path style="fill:#F5CBAB;stroke:#000000;stroke-width:0.7;stroke-miterlimit:10;" d="M51.903,230.8525
					c0,0-0.3532,3.7103-0.3976,4.8376c-0.0454,1.1272-0.6427,3.2452,0.1513,3.9606c0.7939,0.7155,2.9448,0.9314,3.9667,1.0929
					c1.0219,0.1625,3.5822,1.4439,4.2779,2.0432c0.6957,0.598,1.6398,1.7419,2.1173,2.6673
					c0.4775,0.9267,0.9679,1.5152,1.883,1.7846c0.9149,0.2692,1.8516-0.0238,2.2405,0.5588
					c0.3878,0.5838,1.1105,1.2329,2.8358,1.5484c2.7741,0.5067,3.8015-0.5078,3.6988-1.5804c0,0,1.7468-0.0558,1.4897-1.4666
					l0.6017-0.7997c0,0,0.6299-1.6849,0.1178-2.3043c0,0,0.4137-0.719-0.3901-1.2103c0,0-0.9916-0.9504-1.4011-0.9706
					c-0.4115-0.019-1.6226-0.9813-2.7298-1.5983c-1.1062-0.6182-4.872-3.2334-5.8551-4.2312
					c-2.6726-2.7089-4.3157-6.6019-4.3157-6.6019L51.903,230.8525z"/>
				<g>
					<path style="fill:none;stroke:#000000;stroke-width:0.4;stroke-miterlimit:10;" d="M72.6767,247.7656
						c0,0-0.7714-1.1843-1.9002-1.5236c-1.131-0.3381-1.4399-1.1284-1.4399-1.1284"/>
					<path style="fill:none;stroke:#000000;stroke-width:0.4;stroke-miterlimit:10;" d="M73.8045,246.4698
						c0,0,0.1566-0.6786-0.768-1.1295c-0.9258-0.4521-2.0547-1.4677-2.0547-1.4677"/>
					<path style="fill:none;stroke:#000000;stroke-width:0.4;stroke-miterlimit:10;" d="M74.7681,245.4992
						c0,0-0.1912-0.9492-1.0133-1.514c-0.821-0.5635-1.7457-1.2411-1.7457-1.2411"/>
					<path style="fill:none;stroke:#000000;stroke-width:0.4;stroke-miterlimit:10;" d="M75.0403,243.8179
						c0,0-1.4907-1.5247-2.6207-1.8629"/>
				</g>
			</g>
			<g>
				<path style="fill:#F5CBAB;stroke:#000000;stroke-width:0.7;stroke-miterlimit:10;" d="M25.7905,235.3175
					c0,0,0.7541,2.9,1.2402,3.7815c0.4862,0.8828,1.7717,3.5217,2.6845,4.6145c0.9128,1.094,1.5005,1.5982,2.4252,2.4074
					c0.9236,0.8069,1.0781,1.291,1.9099,2.1904c0.834,0.8981,1.8376,1.9008,2.1693,2.2994c0.3327,0.3963,0.9247,0.8069,0.9095,1.189
					c-0.015,0.3808-0.1447,1.4238-0.7626,1.6814c-0.6179,0.2562-1.9381,0.6703-2.3615,0.3643
					c-0.4212-0.3074-1.2542-1.2055-1.2542-1.2055s0.0303,1.4333-0.5887,1.6896c-0.6179,0.2562-1.1429,0.3274-1.5643,0.0202
					c-0.4223-0.3062-0.834-0.8983-0.834-0.8983s-0.1091,0.5672-0.8977,0.7203c-0.7875,0.1531-1.7187-0.4639-1.7187-0.4639
					s-0.9766,0.5256-1.4065,0.4106c-0.43-0.1163-1.3503-1.0205-1.3503-1.0205s0.0043,0.7048-0.9441,0.8034
					c-0.6968,0.0712-1.6398-1.4025-1.6398-1.4025s-0.7541-0.7048-0.9788-1.5745c-0.2269-0.8698-1.1321-2.1548-1.5502-2.5559
					c-0.418-0.401-2.0665-0.4805-2.2664-2.0171c-0.1998-1.5366,0.5887-3.8848,0.6299-4.9325
					c0.041-1.0489,0.2192-5.5257,0.2192-5.5257L25.7905,235.3175z"/>
				<g>
					
						<line style="fill:none;stroke:#000000;stroke-width:0.4;stroke-miterlimit:10;" x1="32.7507" y1="252.6399" x2="31.9816" y2="250.7758"/>
					
						<line style="fill:none;stroke:#000000;stroke-width:0.4;stroke-miterlimit:10;" x1="29.7325" y1="253.0919" x2="29.2172" y2="250.7758"/>
					<path style="fill:none;stroke:#000000;stroke-width:0.4;stroke-miterlimit:10;" d="M27.3894,253.7101
						c0,0-0.6569-2.4715-0.6569-2.6258"/>
					
						<line style="fill:none;stroke:#000000;stroke-width:0.4;stroke-miterlimit:10;" x1="24.3905" y1="253.0979" x2="23.8277" y2="250.7248"/>
				</g>
			</g>
			<path d="M5.8008,151.3642c0,0,3.2303,12.934,3.5025,15.2287c0.4603,3.8718,1.8397,13.2703,1.4206,19.4084
				c-0.418,6.1379-1.2434,11.488-0.62,17.8681c0.6233,6.3801,4.7154,20.2401,5.2792,23.7309
				c0.5617,3.4908,1.8517,8.8409,1.8517,8.8409c2.7071,2.4396,9.1402-0.7166,9.1402-0.7166s-0.7054-2.4372-0.6752-3.2049
				c0.0313-0.7689-0.8145-1.5781-0.9355-2.932c-0.121-1.3527-0.6805-4.9396-1.0824-8.0376
				c-0.403-3.0993-0.8707-17.8433-0.7097-21.8763c0.1598-4.0342,1.993-10.489,2.2977-13.7461
				c0.3025-3.257,0.6914-13.0531,0.7757-19.5922c0.0843-6.539,3.0388-15.8759,3.0388-15.8759l2.1098,5.3454
				c0,0,3.1933,7.8503,4.1591,10.0132c0.9636,2.1631,5.8226,16.6366,6.5681,19.9435c0.7431,3.3069,3.687,8.644,4.0748,12.1265
				c0.3867,3.4825,0.8966,8.3177,1.4735,11.424c0.5769,3.1075,3.0486,11.5012,3.6491,14.0309
				c0.6007,2.5309,0.2733,6.3645,0.4105,7.3328c0.1362,0.9682,1.6572,2.3885,2.6834,3.0151
				c1.0262,0.6265,4.0229,0.1922,5.101-0.5256c1.0658-0.7083,1.2798-1.458,1.6423-2.0147c0.516-0.7926,0.3538-2.0162-0.3296-2.6699
				c-1.2987-1.2422,0.6343-0.2285-0.2324-4.8874c-0.7217-3.8824-0.9485-20.2508-2.3777-28.4023
				c-1.4292-8.1504-0.8815-8.7021-2.0061-11.2567c-1.1257-2.5558-1.4292-12.5774-1.8851-14.3311
				c-0.4559-1.755-1.7602-16.9544-4.3288-26.6891s-4.6161-16.195-4.8136-21.2193c-0.1976-5.0244-2.4921-12.3782-2.6897-15.9371
				c-0.1976-3.5589,0.5879-7.2254,1.7734-10.1563c1.1855-2.9309,1.7666-1.8154,1.569-4.3276c0,0,6.9541,0.3839,9.2535-0.6988
				c0.1971-0.0928,0.1577-0.1948,0.1168-0.4088c-0.1814-0.9485-1.2688-7.0836-1.7187-9.2901
				c-0.6253-3.0665-1.4741-8.494-3.2262-10.4798c-1.7183-1.9473-3.964-3.25-6.5213-3.8246c-4.0944-0.92-8.4302-4.187-8.4302-4.187
				s-0.9221,4.1172-5.0713,4.2568s-8.7596-1.9539-9.2206-4.5359c0,0-3.3589,2.6533-6.3885,3.4906s-5.6641,2.0362-7.8375,4.4786
				s-2.832,5.4665-3.4248,9.5499c-0.5594,3.8538-1.1196,10.8671-1.1196,10.8671s5.9934,1.8297,10.4719,0.2945
				c0,0-1.1166,12.6498-0.5377,16.6578c0.6447,4.4633-3.329,7.1837-5.2908,16.1985C5.3112,129.9801,3.1664,136.6587,5.8008,151.3642
				z"/>
		</g>
		<g>
			<path style="fill:#F5CBAB;stroke:#000000;stroke-width:0.8301;stroke-miterlimit:10;" d="M19.7946,41.3777
				c0,0-2.2339-0.4677-2.5194,0.2716c-0.2856,0.7383-0.1875,2.8785-0.0395,4.0897c0.1481,1.2124,1.1271,1.8622,1.1271,1.8622
				s0.6775,3.2002,1.7545,5.2849c2.6569,5.1336,4.6031,5.4895,5.1849,5.8399c0.5806,0.3494,4.3271,1.6374,5.4213,1.5969
				c2.8231-0.1055,3.7733-2.0592,4.7746-3.4527c1.0025-1.3934,3.1085-3.5314,3.7755-6.2394c0.5422-2.2009,1.2187-4.6436,1.306-6.999
				c0.0746-1.9559-0.4666-6.5846-1.6171-9.4534c-1.1516-2.8689-10.409-4.7758-13.3482-2.7133
				C22.6751,33.5264,20.0887,38.5152,19.7946,41.3777z"/>
			<g>
				<path d="M25.6921,43.3314c0,0,0.9588-0.8373,1.5372-0.8235c0.5774,0.0139,1.9516,0.4166,2.7516,0.7393
					c0.735,0.2962,1.5383,0.5199,2.0337,0.9279c0.1469,0.1204-0.3281,0.8725-0.9482,0.6158
					c-0.7947-0.3302-1.8013-0.7884-2.8081-1.2411C27.632,43.2686,25.6921,43.3314,25.6921,43.3314z"/>
				<path d="M35.8614,44.3541c-0.1054-0.0043-0.1959,0.1214-0.1842,0.2557c0.0512,0.5944,0.4133,0.7382,1.1345,0.7169
					c0.8181-0.0234,2.1136-0.3302,2.7432-0.0266c0.5625,0.2716,0.9695,0.034,0.9695,0.034s-0.5923-0.7031-1.4947-0.9822
					c-0.9012-0.279-1.1505-0.0383-1.6278-0.001C37.0237,44.3807,36.2257,44.3637,35.8614,44.3541z"/>
				<path d="M33.5848,54.9154c-0.0468,0.3143-1.4403,0.3665-1.8013,0.3132c-0.3612-0.0543-1.8931-0.5422-1.8462-0.8564
					c0.0468-0.3143,1.6544-0.3355,2.0155-0.2812C32.3151,54.1453,33.6318,54.6022,33.5848,54.9154z"/>
				<g>
					<path d="M27.0982,48.6601c-0.0362,0.0745-0.1822,0.1001-0.3249,0.0564c-0.1449-0.0425-0.2312-0.1395-0.1949-0.2141
						c0.0362-0.0745,0.1811-0.1011,0.326-0.0575C27.0472,48.4885,27.1335,48.5844,27.0982,48.6601z"/>
					<g>
						<path d="M33.619,48.3894c-0.0075,0.0543-0.0831,0.0895-0.1672,0.0778c-0.0842-0.0139-0.146-0.0682-0.1375-0.1236
							c0.0074-0.0554,0.0831-0.0905,0.1672-0.0778C33.5656,48.2787,33.6275,48.333,33.619,48.3894z"/>
						<path d="M33.1236,48.8613c-0.0118,0.0778-0.1183,0.1278-0.2387,0.1097c-0.1193-0.017-0.2077-0.0959-0.1949-0.1737
							c0.0118-0.0788,0.1183-0.1288,0.2387-0.1107C33.0479,48.7048,33.1353,48.7826,33.1236,48.8613z"/>
						<path d="M33.7436,47.632c-0.0085,0.0554-0.0841,0.0905-0.1683,0.0778c-0.083-0.0128-0.1449-0.0682-0.1373-0.1225
							c0.0085-0.0554,0.083-0.0905,0.1683-0.0778C33.6903,47.5223,33.7521,47.5766,33.7436,47.632z"/>
						<path d="M34.2326,48.4012c-0.0128,0.0767-0.1162,0.1246-0.2322,0.1076c-0.1162-0.017-0.2014-0.0937-0.1907-0.1705
							c0.0117-0.0756,0.115-0.1246,0.2322-0.1065C34.158,48.2488,34.2432,48.3244,34.2326,48.4012z"/>
						<path d="M34.2156,49.4089c-0.0075,0.0554-0.0831,0.0905-0.1673,0.0778c-0.0841-0.0118-0.146-0.0671-0.1384-0.1225
							c0.0096-0.0554,0.0841-0.0905,0.1683-0.0778C34.1622,49.2992,34.2251,49.3535,34.2156,49.4089z"/>
						<path d="M33.7969,49.5869c-0.0129,0.0798-0.1225,0.131-0.245,0.1118c-0.1236-0.0181-0.2121-0.098-0.1993-0.179
							c0.0107-0.0798,0.1204-0.131,0.2429-0.1129C33.718,49.426,33.8075,49.5059,33.7969,49.5869z"/>
						<path d="M32.7423,49.5133c-0.0096,0.0554-0.0842,0.0895-0.1683,0.0778c-0.0842-0.0139-0.146-0.0682-0.1375-0.1236
							c0.0085-0.0554,0.0831-0.0905,0.1672-0.0778C32.6879,49.4025,32.7497,49.4579,32.7423,49.5133z"/>
					</g>
					<g>
						<path d="M36.5751,49.1937c-0.0117,0.0842-0.1384,0.1353-0.2812,0.114c-0.1427-0.0213-0.2482-0.1065-0.2365-0.1918
							c0.0128-0.0841,0.1396-0.1353,0.2823-0.114C36.4836,49.0233,36.588,49.1085,36.5751,49.1937z"/>
						<path d="M37.4285,50.5094c-0.0118,0.0852-0.1385,0.1353-0.2812,0.115c-0.1428-0.0213-0.2483-0.1076-0.2355-0.1917
							c0.0118-0.0853,0.1385-0.1364,0.2802-0.1151C37.3347,50.3389,37.4413,50.4252,37.4285,50.5094z"/>
						<path d="M37.6756,49.7349c-0.0128,0.0842-0.1384,0.1353-0.2812,0.114c-0.1438-0.0213-0.2482-0.1065-0.2354-0.1918
							c0.0117-0.0841,0.1384-0.1353,0.2812-0.114C37.5819,49.5645,37.6884,49.6497,37.6756,49.7349z"/>
						<path d="M38.6334,49.197c-0.0129,0.0852-0.1385,0.1364-0.2823,0.115c-0.1417-0.0213-0.2483-0.1065-0.2355-0.1918
							c0.0129-0.0841,0.1385-0.1353,0.2823-0.115C38.5406,49.0276,38.6461,49.1128,38.6334,49.197z"/>
						<path d="M26.7669,47.582c-0.0128,0.0852-0.1395,0.1364-0.2823,0.1151c-0.1427-0.0214-0.2482-0.1077-0.2354-0.1918
							c0.0128-0.0853,0.1385-0.1364,0.2812-0.1151C26.6732,47.4126,26.7787,47.4977,26.7669,47.582z"/>
						<path d="M35.9338,50.0886c-0.0128,0.0853-0.1384,0.1364-0.2822,0.1151c-0.1417-0.0213-0.2472-0.1076-0.2355-0.1918
							c0.0129-0.0841,0.1385-0.1364,0.2823-0.114C35.8412,49.9192,35.9467,50.0045,35.9338,50.0886z"/>
						<path d="M28.9551,48.1263c-0.0139,0.0842-0.1385,0.1364-0.2823,0.1151c-0.1428-0.0214-0.2493-0.1077-0.2365-0.1918
							c0.0139-0.0842,0.1395-0.1364,0.2823-0.1151C28.8613,47.9559,28.9668,48.0422,28.9551,48.1263z"/>
						<path d="M28.7868,49.3312c-0.0118,0.0841-0.1385,0.1353-0.2812,0.114c-0.1439-0.0213-0.2483-0.1066-0.2365-0.1918
							c0.0128-0.0841,0.1384-0.1353,0.2823-0.114C28.6931,49.1607,28.7995,49.246,28.7868,49.3312z"/>
						<path d="M30.2483,48.3192c-0.0128,0.0852-0.1384,0.1364-0.2812,0.115c-0.1427-0.0213-0.2493-0.1076-0.2365-0.1917
							c0.0128-0.0842,0.1385-0.1364,0.2823-0.114C30.1557,48.1487,30.2612,48.2349,30.2483,48.3192z"/>
					</g>
				</g>
				<g>
					<path d="M32.3022,56.3472c0,0-1.599-0.0191-2.1412-0.6476c0,0,0.1331,1.0983,0.8032,1.2379
						C31.6333,57.077,32.3022,56.3472,32.3022,56.3472z"/>
					<path d="M34.6832,54.6406c0,0-0.7607-0.9609-1.0856-0.9514c-0.326,0.0085-1.2559,0.1129-1.2559,0.1129
						s-0.7884-0.4261-1.1836-0.4006c-1.126,0.0768-2.692,0.5753-2.692,0.5753s0.5508,0.2237,3.4069,0.6839
						C32.901,54.826,34.6832,54.6406,34.6832,54.6406z"/>
				</g>
				<path d="M26.5848,45.2393c0,0,1.0877,0.9033,1.7556,0.9854c0.6679,0.08,1.8196,0.065,1.8196,0.065l0.686,0.3302
					c0,0-0.8832,0.4081-1.8835,0.3462c-0.4847-0.0298-1.3156-0.4122-1.7332-0.767C26.8107,45.8444,26.5848,45.2393,26.5848,45.2393z
					"/>
				<path d="M36.1032,46.8895c0,0,1.0173,0.2397,1.5234,0.228c0.6882-0.017,0.9854-0.1385,0.9854-0.1385l0.6946,0.3453
					c0,0-0.4303,0.3738-1.2548,0.4708c-0.5338,0.0617-0.8534-0.0181-1.3615-0.1374c-0.5092-0.1193-1.4467-0.7424-1.4467-0.7424
					L36.1032,46.8895z"/>
				<path d="M30.8715,50.9355c0,0,1.5873,0.8288,2.3789,0.816c0.7915-0.0138,1.4094-0.1853,1.6406-0.4143
					c0,0-1.0291,1.3167-3.0627,0.8383C30.9386,51.9656,30.8715,50.9355,30.8715,50.9355z"/>
				<path d="M32.8608,59.4065c-1.8901,0.9023-3.5243,0.7981-5.1787,0.4188c-1.6555-0.3782-4.7331-2.6791-4.7331-2.6791
					c0.5049,1.6106,2.1753,3.7423,4.8715,4.9813c0.5051,0.2319,0.9622,0.3889,1.3798,0.4918l0.8397,1.7656l0.4845,2.2345
					c0,0,0.5864,3.2074,0.5475,0.8323c-0.031-1.891-0.6008-3.734-0.971-4.7162c1.7292-0.0857,2.7707-1.354,2.7801-1.8105
					C32.8946,60.2825,32.8608,59.4065,32.8608,59.4065z"/>
			</g>
			<g>
				<path style="fill:#CCA16A;stroke:#000000;stroke-width:0.8301;stroke-miterlimit:10;" d="M10.9207,54.6342
					c0,0,0.801,1.467,1.9505,1.6534c0.6317,0.1033,1.7355-0.0331,2.0284-0.227c-0.3472,0.375-1.3071,0.8054-0.1726,1.6139
					c0,0-0.9619,1.5298,0.8022,2.6494c1.7631,1.1208,2.0613,1.5075,2.0613,1.5075s-0.7457-1.8451-0.2886-2.4225
					c0.457-0.5763,1.274-0.9801,1.274-0.9801s-1.2272,1.6342,0.4401,2.5983c1.0567,0.6103-0.1055,2.6653-0.1055,2.6653
					c1.7098,0.2973,1.4818-4.0449,1.3902-4.6233c-0.0927-0.5774,0.8128-0.9716,0.8128-0.9716s0.3793,1.3072,1.0557,1.5916
					c0.5912,0.2493,0.8267,0.8651,0.4464,1.7684c-0.3804,0.9033,1.1462,2.9158,1.1462,2.9158
					c-0.5049-0.3931,0.5273-2.3511,0.8565-4.2132c0.18-1.0099-1.109-0.9631-0.2387-2.6495
					c1.5106-2.9264-0.6946-3.0616-0.3814-4.8364c0.2322-1.3146,1.8313-2.1061,0.2313-5.1188
					c-0.2226-0.4187,0.8053,0.8564,0.9501-0.0458c0.1396,0.1246,0.0331-0.6179,0.9321-1.0994
					c0.9578-0.5114,2.7453-0.2217,2.4993-1.2721c-0.2451-1.0503,0.9981-2.2115,2.1145-2.9583
					c1.1143-0.7457,2.4736-1.5894,2.5429-3.3418c0.0767-1.9271,1.9804-2.1594,1.9804-2.1594l2.1987-0.4869
					c0,0,2.4097,1.6182,3.0287,3.3642c0.3047,0.8575,0.7361,3.4866,0.4485,5.2988c-0.2301,1.4541-0.3195,3.4867-0.6253,4.91
					c-0.327,1.5244-1.1633,3.8691-2.1817,5.0505l-1.6289,2.0006c0,0,1.5766,0.8928,0.62,1.4051
					c-0.9588,0.5124-2.7794,0.9321-1.2986,2.2702c1.4818,1.3379-0.2195,3.3482-0.2195,3.3482s1.0312,0.0416,1.5905-1.2815
					c0.4687-1.1069-0.0874-2.6228,0.2237-3.2087c0.2513-0.473,1.6927-1.1154,1.6927-1.1154s-1.9942,1.0057-0.7638,2.3107
					c1.2305,1.305,1.4212,0.8202,0.5722,1.4744c-0.8491,0.653-0.1993,2.5194-0.1993,2.5194s0.0171-1.1761,1.011-1.9048
					c1.6566-1.2165,0.7926-2.1881,0.7489-2.8305c-0.0447-0.6424,1.0345-1.3231,2.2425-1.3614
					c1.2666-0.0405,2.7473-1.6886,2.1891-3.099c-0.4154-1.0493-0.4272-2.1614-0.0436-2.8613
					c0.8192-1.4979,0.4059-3.1298,0.4059-3.1298s0.8767,0.1139,1.6107,0.3365c0.735,0.2227,1.1112,0.2717,0.0554,1.5352
					c-0.0874,0.1055-0.1661,0.213-0.2387,0.3217c-0.7862,1.1868-0.4612,2.1328-0.4612,2.1328s1.077-2.4055,2.1424-2.7761
					c1.0663-0.3719,1.8344-0.3996,0.7116-1.5629c-1.1206-1.1643-2.1775-2.8283-2.1775-2.8283l-0.5401-1.0153
					c0,0,1.1814,0.9704,2.0742,0.9599c0.8927-0.0118,1.8771,0.2439,1.8291,0.619c-0.0479,0.376,0.4453-1.4691-0.3973-1.8334
					c-0.8459-0.3643-2.2542-0.293-2.1403-1.1686c0.114-0.8767-2.6952-1.8227-2.4406-2.807c0.2557-0.9855,1.3497-1.5352,0.211-2.5738
					c-1.1378-1.0397-1.8185-1.762-1.8185-1.762s0.6892-0.6232-0.4773-2.43c-1.1655-1.8057-3.5442-4.2888-5.7814-4.7064
					c-2.2371-0.4187-2.2371-0.4187-2.2371-0.4187s-0.4006-1.1313,1.2773-1.1122c1.68,0.0192,3.3568,2.1998,3.3568,2.1998
					s-0.2493-2.3127-2.3362-3.3066c-1.5766-0.7522-3.6242,0.2226-3.6242,0.2226s-2.1348-2.186-3.3792-0.4389
					c-0.6754,0.9481-1.6437-0.8331-3.1926-0.7926c-4.013,0.1065-6.1862,2.4214-6.1862,2.4214s-1.746,0.2099-2.9945,1.2795
					c-1.1165,0.9577-0.4709,2.7144-0.9035,3.2715c-0.4867,0.6243-1.5543,0.8288-2.3798,2.0869
					c-0.7478,1.142-0.4911,3.2683-0.4911,3.2683s-0.0469,0.0117-0.1203,0.0351c0.3738,0.6158,0.0991,1.2943-0.0235,2.088
					c-0.1077,0.7051,0.1193,1.4573-0.1215,2.1284c0.0235-0.0692,0.0533-0.1587,0.0959-0.2918
					c-0.0372,0.1214-0.0724,0.245-0.1022,0.3685c-0.048,0.1982-0.0991,1.0622-0.082,0.2418
					c-0.017,0.8309-0.1662,1.5703-0.7169,2.2275c-0.032,0.0395-0.0789,0.0735-0.1151,0.1119
					c0.7297,0.8629,1.3466,0.457,1.0525,1.4551c0.2483-0.017-0.0139,1.4201-0.0139,1.4201s-0.67,1.1121-0.9577,2.3479
					c-0.2877,1.2358,0.5667,2.4917,0.5667,2.4917s0.912,1.3977-0.9012,2.0476C11.9199,55.4928,10.9207,54.6342,10.9207,54.6342z"/>
				<path d="M36.0617,57.3475c0,0,3.5091-4.3613,3.7872-6.4312c0.277-2.0688,0.3377-5.6109,0.407-7.3292
					c0.0682-1.7194,2.1274-3.4015-3.5102-7.3218c0,0,3.0766-0.1289,4.9323,3.2959c1.8557,3.425-1.3007,3.3398,0.3004,6.6187
					c0.8,1.6396,1.0248,3.2844,0.9257,4.715c-0.098,1.4307-1.5532,2.2915-2.0433,3.0755c-0.4314,0.6893-0.0596,3.018-0.9311,3.9224
					c-1.111,1.1527-2.4246,1.1995-2.5247,1.4563c-0.1779,0.4602-0.0831,1.3242-0.1353,1.5372
					c-0.0501,0.213-0.2781,2.6579-0.2781,2.6579s-1.1026,0.6882-1.0441,0.3025c0.0576-0.3845,0.7224-1.9505,0.1875-2.5748
					c-0.5336-0.6243-1.5489-1.0951-0.9194-1.7588c0.6296-0.6637,1.4446-0.5881,1.3861-1.2784
					C36.5432,57.5435,36.0617,57.3475,36.0617,57.3475z"/>
				<path d="M27.5404,39.0426c1.3124-1.8781,2.8039-1.5756,2.8039-1.5756c-0.6924,0.0874-1.3316,0.5955-2.22,2.741
					c-0.8896,2.1455,1.158,2.2617-0.5827,3.1394c-0.7915,0.3996-1.3178,0.6361-1.3412,1.2379
					c-0.0245,0.6019,0.752,1.4914-0.131,2.0315c-1.8547,1.1324,0.3462,3.0638,1.0621,3.7179c0,0-3.7669-1.5574-3.2726-3.1735
					c0.4943-1.616,1.4818-0.4581,1.1036-1.764c-0.3782-1.3061-0.6839-2.2649,1.1516-2.9669
					C27.9494,41.7282,26.9566,39.8777,27.5404,39.0426z"/>
				<path d="M46.9864,51.8325c-0.0149-0.1833,0.653-1.2922,0.5827-1.436c-0.4869-1.0025-3.0329-0.9759-2.6388-1.3434
					c1.713-1.5958,0.7372-4.4476,0.7372-4.4476s1.5426,2.3436,2.202,3.0585c0.6604,0.7148,1.7162,1.9622,1.5734,2.6451
					l-0.8394,0.277L46.9864,51.8325z"/>
				<path d="M13.8705,39.9384l0.7138-0.3557c-0.2237,0.115-1.9698,1.1186-2.3587,4.552c-0.131,1.1463-0.1512,1.957-0.1501,2.4119
					c0.0309,0.0148,0.0638,0.0266,0.0926,0.0425c0.2258,0.1332,0.375,0.327,0.4965,0.5412c0.1012,0.0735,0.2034,0.1449,0.2919,0.228
					c0.2045,0.1929,0.3653,0.4506,0.4963,0.7254c0.0533,0.0235,0.1077,0.0448,0.1631,0.0693
					c0.0277,0.0128,0.0553,0.0256,0.083,0.0384c0.1151-0.0512-0.8895,2.0038-0.8895,2.0038l1.0014-0.93
					c0.4187-0.2802,0.0458-0.3165,1.4072-1.8334c0.6254-0.8917,1.7716-1.844,1.0153-3.051
					c-1.0526-1.6779-1.9506-2.9199-0.9397-3.7968c1.8877-1.6406,2.1455-2.6995,1.6704-3.7508
					c-0.4741-1.0515,1.1655-1.159,2.1519-2.153c0.9875-0.9928,1.0728-0.9896,1.0248-1.9388
					c-0.049-0.9482,4.0662-2.6793,4.0662-2.6793s-2.8635,0.5753-3.9086,0.8778c-1.045,0.3026-1.9558,1.5575-1.9558,1.5575
					s-3.5262,1.2592-4.0652,2.0624c-0.539,0.8032-1.6427,3.4217-1.6427,3.4217s-2.5034,1.2453-2.9764,4.4104
					c-0.1554,1.0461,1.9794,3.3674,1.9794,3.3674s-0.9236-3.2109-0.1332-4.1707C12.2619,40.6671,13.8705,39.9384,13.8705,39.9384z"
					/>
				<path d="M15.5909,50.34c0.1768,0.4666,0.2525,3.0254,0.2642,3.5325c0.0149,0.6562-0.4432,1.1025-0.7191,1.6842
					c-0.1236,0.2631-1.3455,0.5966-1.4743,0.8576c-0.0789,0.1597-0.2237,1.519-0.228,1.5297
					c-0.0299,0.0756,0.4943,0.6775,0.4858,0.7202c-0.0022,0.0148,0.7276-0.4006,0.7276-0.4006s0.8106-0.9151,1.8142-2.3384
					c0.8703-1.2336,0.4069-2.2148,0.1214-3.5507C16.4336,52.3694,15.74,50.3474,15.5909,50.34z"/>
				<path d="M21.1134,58.0975c0,0,0.6306-0.7563,0.5816-1.7055c-0.0416-0.815-0.7585-0.6403-1.0898-1.3998
					c-0.0543-0.1247-0.1001-0.2738-0.1278-0.456c-0.2067-1.3008-0.6434-3.2971-0.6572-2.9541
					c-0.0139,0.3441,0.0895,4.4923-0.9716,4.9547c-2.7165,1.1825-2.0358,3.5346-2.0358,3.5346l1.7631-1.6427
					c0,0-0.9619,0.9865-0.2162,1.7045c0.7468,0.7191,1.2603,2.9775,1.2603,2.9775s0.8191-1.1292,0.702-2.5119
					C20.2047,59.216,21.1134,58.0975,21.1134,58.0975z"/>
			</g>
		</g>
		<g>
			<path style="fill:#F5CBAB;" d="M45.5437,91.1475c0,0,2.5185,0.2438,4.4715,0.1667c1.9583-0.0773,4.2101-0.661,4.2101-0.661
				c0.3568,1.6339,1.4813,6.648,0.9362,11.0478c-0.5451,4.3998-1.207,8.7607-3.2317,9.4615s-7.1643,0.6619-9.1111,0.7398
				s-22.2606-0.748-25.4978-1.3669c-3.2372-0.6189-9.6617-1.3587-11.2191-1.4366s-4.0104-0.2336-4.5166-4.5555
				c0,0-0.7593,0.8347-1.1292,0.1168c-0.5199-1.0091,0.9747-2.6477,2.2589-3.6989c0,0,13.0284,3.6741,13.0608,3.6227
				c0.0325-0.0514,1.9679,0.3488,4.0705-0.1574s10.2792-0.1557,13.4719-0.7787c3.1928-0.623,9.8509-2.2194,10.6685-2.8423
				l0.0797-5.2041C44.0664,95.6013,44.8298,94.058,45.5437,91.1475z"/>
			<g>
				<path style="fill:none;stroke:#000000;stroke-width:0.7;stroke-miterlimit:10;" d="M45.7389,84.0629
					c0,0,7.3979-1.7911,7.0864-1.246c-0.3115,0.5451,0.8955,5.49,1.246,7.1253s1.6353,7.3589,1.0902,11.7587
					c-0.5451,4.3998-1.207,8.7607-3.2317,9.4615s-7.1643,0.6619-9.1111,0.7398s-22.2606-0.748-25.4978-1.3669
					c-3.2372-0.6189-9.6617-1.3587-11.2191-1.4366s-4.0104-0.2336-4.5166-4.5555c0,0-0.7593,0.8347-1.1292,0.1168
					c-0.5199-1.0091,0.9747-2.6477,2.2589-3.6989c0,0,13.0284,3.6741,13.0608,3.6227c0.0325-0.0514,1.9679,0.3488,4.0705-0.1574
					s10.2792-0.1557,13.4719-0.7787c3.1928-0.623,9.8509-2.2194,10.6685-2.8423l-0.2726-6.0351
					C43.7142,94.7704,46.4008,88.6184,45.7389,84.0629z"/>
				<path style="fill:none;stroke:#000000;stroke-width:0.4;stroke-miterlimit:10;" d="M44.0287,100.8893
					c1.5574-0.5451,1.9079-1.4406,1.9079-1.4406"/>
				<path style="fill:none;stroke:#000000;stroke-width:0.4;stroke-miterlimit:10;" d="M1.6348,104.21
					c0.4478-0.4283,0.9289-1.443,1.6812-1.5435"/>
				<path style="fill:none;stroke:#000000;stroke-width:0.4;stroke-miterlimit:10;" d="M2.2355,106.4375
					c0.4478-0.4283,0.9289-1.2592,1.6812-1.3596"/>
				<path style="fill:none;stroke:#000000;stroke-width:0.4;stroke-miterlimit:10;" d="M2.8339,107.87
					c0.7176,0.1387,2.7244,0.7197,2.967,0.254"/>
			</g>
		</g>
		<g id="rechter_Arm_1_">
			<path style="fill:#F5CBAB;" d="M3.1171,90.5577c-0.0988,2.618-1.5313,10.3238,0.9385,14.72s3.7541,5.5817,5.6311,5.1866
				c1.877-0.3952,3.3589-2.5192,4.4456-3.6553s4.0011-5.236,5.236-11.6574s5.5323-18.6717,5.7793-19.709
				c0.247-1.0373,2.9638-2.4698,2.371-5.3348c0,0,0.2717-0.6915,0.6915-1.4819c0,0-0.1482,2.3216,0.7903,2.124
				c0.9385-0.1976,1.0373-1.7289,1.0373-1.7289s0.8397,0.3211,0.5187-1.6548c-0.3518-2.1651-0.4501-4.4205-2.1487-5.6558
				c-0.5434-0.3952-2.2228,0.0494-2.2228,0.0494s0.3458-1.0867,2.4204-0.9385c1.3303,0.095,2.9638,0.494,3.2601-0.1482
				c0.2964-0.6421-0.5187-1.0867-1.6795-1.3584c-0.9339-0.2186-3.9023-0.9632-4.7914-0.1235
				c-0.8891,0.8397-3.1119,3.6059-3.1119,3.6059s-1.1608,0.247-1.5066,1.1361s-0.0247,7.6564-0.3705,9.237
				s-7.854,14.6706-7.854,14.6706l-2.2064,3.4413c0,0-2.8277,0.0975-4.4127-0.1976C4.3477,90.7894,3.1171,90.5577,3.1171,90.5577z"
				/>
			<path style="fill:none;stroke:#000000;stroke-width:0.7;stroke-miterlimit:10;" d="M3.3641,87.6433
				c-0.0988,2.618-1.7783,13.2381,0.6915,17.6344s3.7541,5.5817,5.6311,5.1866c1.877-0.3952,3.3589-2.5192,4.4456-3.6553
				s4.0011-5.236,5.236-11.6574s5.5323-18.6717,5.7793-19.709c0.247-1.0373,2.9638-2.4698,2.371-5.3348
				c0,0,0.2717-0.6915,0.6915-1.4819c0,0-0.1482,2.3216,0.7903,2.124c0.9385-0.1976,1.0373-1.7289,1.0373-1.7289
				s0.8397,0.3211,0.5187-1.6548c-0.3518-2.1651-0.4501-4.4205-2.1487-5.6558c-0.5434-0.3952-2.2228,0.0494-2.2228,0.0494
				s0.3458-1.0867,2.4204-0.9385c1.3303,0.095,2.9638,0.494,3.2601-0.1482c0.2964-0.6421-0.5187-1.0867-1.6795-1.3584
				c-0.9339-0.2186-3.9023-0.9632-4.7914-0.1235c-0.8891,0.8397-3.1119,3.6059-3.1119,3.6059s-1.1608,0.247-1.5066,1.1361
				s-0.0247,7.6564-0.3705,9.237s-7.854,14.6706-7.854,14.6706l-0.8397-2.2722L3.3641,87.6433z"/>
			<path style="fill:none;stroke:#000000;stroke-width:0.4;stroke-miterlimit:10;" d="M12.6259,87.9644
				c-0.6915,0.9879-2.2475,3.2848-3.5318,4.4209s-3.8529,2.6674-4.3962,5.5323"/>
			<path style="fill:none;stroke:#000000;stroke-width:0.4;stroke-miterlimit:10;" d="M27.5187,70.1077
				c-0.6421-0.0988-1.1855-0.9879-0.5434-2.3216c0.6421-1.3337-0.9879-1.309-1.2349-1.1608c-0.247,0.1482-1.309,0.5681-1.1361,1.062
				c0.1729,0.494,1.1855,2.2722,0.5681,4.0011"/>
			<path style="fill:none;stroke:#000000;stroke-width:0.4;stroke-miterlimit:10;" d="M28.2103,68.6259
				c0.3211-0.8397,1.1079-3.152-0.494-4.0258c-0.815-0.4446-2.8403-0.0741-3.7788,0c-0.9385,0.0741-1.8277-0.1482-2.2228,0.4446"/>
			<path style="fill:none;stroke:#000000;stroke-width:0.4;stroke-miterlimit:10;" d="M22.2828,62.97
				c0.5434-0.247,3.9764-1.0373,3.9764-1.0373"/>
			<path style="fill:none;stroke:#000000;stroke-width:0.4;stroke-miterlimit:10;" d="M29.8897,68.842
				c0.0247-1.1608,0-2.4883-0.2717-3.2293c-0.2717-0.7409-0.3952-2.3216-1.1608-2.4698c-0.7656-0.1482-3.4824,0.0988-4.7173,0.247
				c-1.2349,0.1482-1.9758,0.0741-2.2475,0.6174"/>
			<path d="M12.8969,109.8479c0.5735-0.3597,3.8703-4.2377,4.0763-5.1751c0.2059-0.9374-1.1974-0.0889-1.1974-0.0889l-2.5974,3.2861
				l-1.6645,1.7059L12.8969,109.8479z"/>
		</g>
	</g>
	<g id="Fragezeichen">
		<path style="fill:#FFFFFF;stroke:#000000;stroke-width:0.7;stroke-miterlimit:10;" d="M53.5209,37.729
			c0,1.1289-1.2187,2.0444-2.7209,2.0444c-1.5017,0-2.7198-0.9155-2.7198-2.0444c0-1.1298,1.2181-2.0449,2.7198-2.0449
			C52.3022,35.6842,53.5209,36.5992,53.5209,37.729z"/>
		<path style="fill:#FFFFFF;stroke:#000000;stroke-width:0.7;stroke-miterlimit:10;" d="M64.5909,31.966
			c0,1.9229-1.9903,3.4808-4.4459,3.4808s-4.4453-1.5579-4.4453-3.4808c0-1.9219,1.9898-3.4803,4.4453-3.4803
			S64.5909,30.044,64.5909,31.966z"/>
		<path style="fill:#FFFFFF;stroke:#000000;stroke-width:0.7;stroke-miterlimit:10;" d="M82.2585,0.8877
			C93.7883-1.5479,96.322,5.0664,96.4674,5.3223c0.2168-0.226,3.5461-1.7771,7.3593-0.1273
			c3.8892,1.6827,3.7647,4.6352,3.826,5.5064c0.3609-0.0884,8.0065-0.4381,10.0374,7.0324
			c1.934,7.1142-3.8653,10.0006-4.7004,10.2841l-0.1174,0.1262c0.0407,0.1102,0.0897,0.2693,0.1332,0.4605
			c0.0708,0.2842,1.4818,5.6185-5.3056,10.6216c-5.5388,4.0827-12.0479,2.8502-14.1124,0.7264
			c-0.6144,0.3828-3.7763,5.2087-11.0475,2.7333c-5.2423-1.7847-6.2018-5.836-6.486-7.7444
			c-0.2031,0.0926-8.8186-1.2093-10.0552-8.9383c-1.346-8.4127,4.8793-10.4317,5.8889-11.273
			C70.7097,7.3271,75.6811,2.2771,82.2585,0.8877z"/>
	</g>
	<g id="Katze_1_">
		<g>
			<path d="M148.5286,213.2645c-0.0102-0.7047,0.1262-1.2891,0.2487-1.8106c0.1261-0.5224,0.2502-0.9955,0.3087-1.4756
				c0.0591-0.4778,0.0557-0.966-0.0443-1.4593c-0.0975-0.4933-0.2831-0.9839-0.5189-1.4639
				c0.3929,0.3575,0.7662,0.7607,1.0727,1.2357c0.3088,0.4726,0.5363,1.0201,0.6842,1.5855
				c0.2945,1.1251,0.2841,2.3203,0.6115,2.9907L148.5286,213.2645z"/>
			<path d="M146.3582,210.8871c-0.0102-0.7047,0.1262-1.2891,0.2487-1.8106c0.1261-0.5224,0.2503-0.9955,0.3088-1.4756
				c0.0591-0.4778,0.0557-0.966-0.0445-1.4594c-0.0974-0.4933-0.2829-0.9839-0.5188-1.4639
				c0.3929,0.3575,0.7661,0.7607,1.0727,1.2357c0.3087,0.4726,0.5363,1.0201,0.684,1.5855
				c0.2945,1.1251,0.2843,2.3202,0.6115,2.9907L146.3582,210.8871z"/>
			<path d="M143.6951,208.488c-0.0101-0.7047,0.1262-1.2891,0.2487-1.8106c0.1261-0.5224,0.2503-0.9955,0.3088-1.4756
				c0.0591-0.4778,0.0557-0.966-0.0443-1.4594c-0.0975-0.4932-0.2831-0.9839-0.519-1.4639
				c0.3929,0.3575,0.7661,0.7607,1.0727,1.2357c0.3087,0.4726,0.63,1.4124,1.3707,1.8419c0.2946,1.1251-0.4024,2.0639-0.0751,2.7344
				L143.6951,208.488z"/>
			<path d="M141.6607,208.2104c-0.0102-0.7047,0.1262-1.2891,0.2487-1.8106c0.1261-0.5224,0.2503-0.9955,0.3088-1.4756
				c0.0589-0.4778-0.3582-1.0116-0.4583-1.5049c0.3562-0.4499,0.1309-0.9383-0.1051-1.4183
				c0.3931,0.3575,0.7072,0.8052,1.2375,1.2408c0.5126,0.4211,0.3717,1.0149,0.5194,1.5804
				c0.2945,1.1251,0.2841,2.3202,0.6115,2.9907L141.6607,208.2104z"/>
			<path d="M140.4554,207.1601c-0.1945-0.6774-0.2161-1.2771-0.2345-1.8125c-0.0154-0.5372-0.0195-1.0263-0.0889-1.5049
				c-0.0683-0.4765-0.1996-0.9468-0.4254-1.3967c-0.2234-0.4504-0.5311-0.8753-0.8847-1.2767
				c0.473,0.242,0.9389,0.5332,1.3591,0.9113c0.4219,0.3751,0.7851,0.8437,1.0759,1.3507c0.5792,1.0085,0.8825,2.1646,1.3742,2.7258
				L140.4554,207.1601z"/>
			<path d="M139.468,206.6159c-0.3689-0.6005-0.5504-1.1725-0.7115-1.6834c-0.1587-0.5134-0.2936-0.9836-0.4887-1.4261
				c-0.1935-0.4408-0.446-0.8587-0.7841-1.2317c-0.3359-0.3742-0.746-0.7011-1.1942-0.9931
				c0.5206,0.1065,1.0474,0.2623,1.5536,0.5139c0.507,0.2484,0.9823,0.6026,1.3983,1.0132c0.8282,0.8165,1.4301,1.8492,2.054,2.2581
				L139.468,206.6159z"/>
			<path d="M134.5235,206.033c-0.5375-0.4558-0.8882-0.9429-1.2003-1.3782c-0.3106-0.4386-0.5852-0.8433-0.9083-1.2031
				c-0.3211-0.3587-0.6911-0.6773-1.1286-0.9264c-0.4356-0.251-0.9272-0.434-1.444-0.572c0.5279-0.0609,1.0769-0.0768,1.6364,0.0047
				c0.559,0.0782,0.7113,0.1934,1.9722,0.4264c1.2609,0.233,1.6067,1.4131,2.327,1.6075L134.5235,206.033z"/>
			<path d="M131.802,207.1454c-0.5782-0.4029-0.9733-0.8547-1.3252-1.2585c-0.3508-0.4072-0.6624-0.7841-1.0182-1.1118
				c-0.3536-0.3267-0.752-0.6088-1.211-0.8155c-0.4575-0.2087-0.9642-0.3442-1.4918-0.4327
				c0.5197-0.1105,1.0648-0.1784,1.6295-0.1501c0.564,0.025,2.8563-0.5318,3.4017-0.3218c1.0856,0.4173,0.3351,1.8145,1.0706,1.9398
				L131.802,207.1454z"/>
			<path d="M129.9878,207.8292c-0.6441-0.2857-1.1179-0.6542-1.5402-0.9838c-0.4217-0.3331-0.7993-0.644-1.2109-0.8981
				c-0.4091-0.2536-0.8539-0.4549-1.3438-0.5706c-0.4888-0.118-1.012-0.1548-1.5468-0.1415
				c0.4893-0.2072,1.0116-0.3774,1.5713-0.4569c0.5584-0.0826,1.6461-0.7161,2.2215-0.6136
				c1.1451,0.2036,1.7309,1.3692,2.4768,1.3526L129.9878,207.8292z"/>
			<path d="M127.3956,209.4458c-0.6694-0.2204-1.1772-0.5402-1.6301-0.8263c-0.4527-0.2897-0.8592-0.5616-1.2939-0.7737
				c-0.4322-0.2118-0.8949-0.368-1.3938-0.4346c-0.498-0.069-1.0224-0.0538-1.5532,0.0124
				c0.4663-0.2547,0.9692-0.4758,1.5184-0.6103c0.5475-0.1376,1.7771-1.0709,2.3598-1.0258
				c1.1597,0.0891,1.648,1.3861,2.3886,1.2956L127.3956,209.4458z"/>
			<path d="M124.9119,211.829c-0.6694-0.2204-1.1772-0.5402-1.6301-0.8263c-0.4527-0.2897-0.8592-0.5616-1.2939-0.7737
				c-0.4322-0.2118-0.8949-0.368-1.3938-0.4346c-0.498-0.069-1.0224-0.0538-1.5532,0.0124
				c0.4663-0.2547,0.9692-0.4758,1.5184-0.6103c0.5475-0.1376,1.7771-1.0709,2.3598-1.0258
				c1.1597,0.0891,1.648,1.3861,2.3886,1.2956L124.9119,211.829z"/>
			<path d="M117.779,215.6962c-0.589-0.387-0.9962-0.8279-1.359-1.222c-0.3617-0.3975-0.6835-0.7658-1.0481-1.0837
				c-0.3622-0.317-0.7683-0.5882-1.2327-0.7822c-0.463-0.1961-0.9732-0.3179-1.5029-0.3921
				c0.5165-0.1246,1.0596-0.2072,1.6249-0.1943c0.5644,0.0096,1.9945-0.5717,2.5454-0.3766
				c1.0966,0.3877,1.2307,1.7671,1.9693,1.8724L117.779,215.6962z"/>
			<path d="M120.7213,214.8527c-0.5326-0.4615-0.8779-0.9524-1.1854-1.391c-0.306-0.4419-0.5762-0.8495-0.8955-1.2128
				c-0.3171-0.3621-0.6838-0.6846-1.1184-0.9385c-0.4329-0.2557-0.9226-0.4439-1.4378-0.5875
				c0.5285-0.0552,1.0777-0.0652,1.6363,0.0224c0.5582,0.0842,2.0526-0.3027,2.5729-0.0365
				c1.0357,0.5294,0.986,1.9144,1.7043,2.1165L120.7213,214.8527z"/>
			<path d="M136.6047,202.8087c-0.416-0.4106,0.59-0.6021-1.3983-1.0132c-0.5062-0.2517-1.0331-0.4075-1.5535-0.5139
				c0.2885,0.188,0.5514,0.3972,0.7988,0.6174c0.0828,0.2397-0.3148,0.3252-0.3148,0.3252l0.6022-0.0522
				c0.0341,0.0355,0.0753,0.0662,0.1079,0.1026c0.3382,0.3729,0.5906,0.7908,0.784,1.2317c0.1951,0.4426,0.33,0.9127,0.4887,1.4261
				c0.1613,0.5109,0.3426,1.0829,0.7115,1.6834l1.8276-1.5491C138.0348,204.6579,137.4329,203.6253,136.6047,202.8087z"/>
		</g>
		<g>
			<path d="M119.9403,213.8049c-0.6941-0.1219-1.2427-0.3653-1.732-0.5833c-0.4896-0.2216-0.931-0.4321-1.3917-0.5795
				c-0.4583-0.1475-0.9385-0.2356-1.4418-0.2297c-0.5028,0.0035-1.0195,0.0939-1.5352,0.2357
				c0.4248-0.319,0.8907-0.6102,1.4147-0.8224c0.5221-0.2149,1.1024-0.3359,1.6856-0.3752
				c1.1604-0.0786,2.3324,0.1553,3.0524-0.0407L119.9403,213.8049z"/>
			<path d="M116.672,215.4918c-0.6941-0.1219-1.2427-0.3653-1.732-0.5833c-0.4896-0.2216-0.931-0.4323-1.3917-0.5796
				c-0.4583-0.1475-0.9385-0.2356-1.4419-0.2296c-0.5028,0.0033-1.0195,0.0937-1.5351,0.2355
				c0.4248-0.319,0.8906-0.6101,1.4147-0.8224c0.522-0.2147,1.1024-0.3359,1.6856-0.3751c1.1604-0.0786,2.3324,0.1552,3.0523-0.0408
				L116.672,215.4918z"/>
			<path d="M114.3433,217.6588c-0.6941-0.122-1.2427-0.3653-1.732-0.5833c-0.4896-0.2216-0.931-0.4323-1.3917-0.5796
				c-0.4583-0.1475-0.9385-0.2356-1.4418-0.2297c-0.5028,0.0034-1.0195,0.0939-1.5352,0.2357
				c0.4248-0.319,0.8906-0.6101,1.4147-0.8224c0.522-0.2147,1.5054-0.3544,2.0659-1.0016c1.1604-0.0788,1.9521,0.7817,2.6719,0.5858
				L114.3433,217.6588z"/>
			<path d="M113.6897,219.6052c-0.6941-0.1219-1.2427-0.3653-1.732-0.5833c-0.4896-0.2216-0.931-0.4323-1.3917-0.5796
				c-0.4583-0.1473-1.0608,0.1625-1.5641,0.1684c-0.3753-0.4341-0.8972-0.3042-1.4129-0.1623
				c0.4248-0.3192,0.9234-0.5439,1.4506-0.9833c0.5096-0.4247,1.0666-0.1751,1.6497-0.2143
				c1.1604-0.0786,2.3324,0.1553,3.0523-0.0408L113.6897,219.6052z"/>
			<path d="M112.4323,220.5926c-0.7018,0.0642-1.295-0.0268-1.8244-0.109c-0.5306-0.0855-1.0118-0.173-1.495-0.1944
				c-0.4809-0.0221-0.9674,0.0188-1.4516,0.1564c-0.4843,0.1351-0.9592,0.3578-1.4197,0.63
				c0.3263-0.4193,0.6996-0.8225,1.1497-1.1645c0.4474-0.3442,0.9758-0.6132,1.5283-0.804
				c1.0991-0.3801,2.2915-0.4616,2.9349-0.8396L112.4323,220.5926z"/>
			<path d="M111.7129,221.4605c-0.659,0.25-1.2548,0.3211-1.7869,0.3838c-0.534,0.0597-1.0211,0.1043-1.4924,0.213
				c-0.4693,0.1075-0.927,0.2773-1.3567,0.5396c-0.4304,0.2599-0.8283,0.6016-1.1991,0.9872
				c0.2021-0.4914,0.4537-0.9798,0.7957-1.4299c0.3389-0.4515,0.7759-0.8521,1.2571-1.1839
				c0.9572-0.6607,2.0842-1.0586,2.6028-1.5949L111.7129,221.4605z"/>
			<path d="M110.2146,226.2085c-0.5484,0.4427-1.0925,0.6959-1.5786,0.9211c-0.489,0.223-0.9379,0.417-1.3519,0.667
				c-0.4125,0.2483-0.7947,0.552-1.1213,0.9352c-0.3281,0.3809-0.5999,0.8296-0.8322,1.3113
				c0.039-0.5299,0.1261-1.0723,0.311-1.6066c0.1815-0.5345,0.3232-0.6625,0.7881-1.8575c0.465-1.195,1.689-1.3137,2.0148-1.9849
				L110.2146,226.2085z"/>
			<path d="M110.7977,229.0901c-0.504,0.4925-1.0218,0.796-1.4843,1.0662c-0.4657,0.2683-0.8943,0.5039-1.2827,0.792
				c-0.3872,0.2861-0.7389,0.6247-1.0278,1.0369c-0.2906,0.4104-0.5187,0.8827-0.7044,1.3844
				c-0.0113-0.5312,0.0242-1.0794,0.1576-1.6288c0.1301-0.5493,0.0124-2.9054,0.3208-3.4019
				c0.6132-0.9882,1.8451,0.0105,2.106-0.6885L110.7977,229.0901z"/>
			<path d="M111.1298,231.0003c-0.4012,0.5792-0.8519,0.9756-1.2548,1.3287c-0.4062,0.3519-0.7823,0.6646-1.1089,1.0213
				c-0.3257,0.3544-0.6067,0.7537-0.8121,1.2132c-0.2074,0.4581-0.3416,0.9651-0.4286,1.4929
				c-0.112-0.5194-0.1813-1.0643-0.1546-1.6291c0.0234-0.564-0.3739-2.2881-0.1654-2.8341c0.4143-1.0867,1.6477-0.907,1.771-1.6428
				L111.1298,231.0003z"/>
			<path d="M112.2325,233.8494c-0.3419,0.6163-0.7511,1.0553-1.1169,1.4465c-0.3693,0.3905-0.7125,0.7389-1.0023,1.1262
				c-0.289,0.3849-0.5291,0.8102-0.6879,1.2878c-0.161,0.4763-0.2443,0.9942-0.2786,1.528
				c-0.1629-0.5057-0.2859-1.0411-0.3153-1.6058c-0.0326-0.5635-0.8222-1.8995-0.6689-2.4635
				c0.3046-1.1225,1.7731-1.406,1.8229-2.1505L112.2325,233.8494z"/>
			<path d="M113.7416,237.126c-0.3419,0.6163-0.7511,1.0553-1.1169,1.4466c-0.3693,0.3905-0.7125,0.7389-1.0023,1.1262
				c-0.289,0.3849-0.529,0.8102-0.6879,1.2878c-0.161,0.4763-0.2443,0.9942-0.2786,1.528
				c-0.1629-0.5058-0.2859-1.0411-0.3153-1.6058c-0.0326-0.5635-1.0199-3.0915-0.8665-3.6555
				c0.3046-1.1225,1.9708-0.2141,2.0206-0.9585L113.7416,237.126z"/>
			<path d="M115.2115,239.4938c-0.3827,0.5918-0.8206,1.0021-1.2121,1.3678c-0.3949,0.3646-0.7608,0.689-1.0761,1.0559
				c-0.3143,0.3645-0.5826,0.7726-0.7733,1.2384c-0.1928,0.4644-0.3109,0.9755-0.3812,1.5057
				c-0.1283-0.5156-0.2149-1.058-0.2061-1.6234c0.0055-0.5645-0.5861-1.9903-0.395-2.5426
				c0.3797-1.0994,1.7581-1.2434,1.8581-1.9828L115.2115,239.4938z"/>
			<path d="M117.559,244.1103c-0.2748,0.649-0.6354,1.1287-0.9579,1.5565c-0.326,0.4273-0.6305,0.81-0.8777,1.2258
				c-0.2467,0.4133-0.4405,0.8615-0.548,1.3532c-0.1097,0.4907-0.1379,1.0145-0.1156,1.5489
				c-0.2154-0.4857-0.3943-1.0051-0.4831-1.5635c-0.092-0.5569-0.9208-1.8593-0.8279-2.4363
				c0.1843-1.1484,1.5172-1.5282,1.488-2.2738L117.559,244.1103z"/>
			<path d="M116.5263,241.4249c-0.3713,0.599-0.8013,1.0177-1.1856,1.3908c-0.3878,0.3721-0.7475,0.7035-1.0556,1.0764
				c-0.3073,0.3705-0.5676,0.7836-0.7493,1.253c-0.1838,0.468-0.2921,0.9813-0.3522,1.5128
				c-0.1382-0.513-0.2352-1.0537-0.2372-1.6192c-0.0053-0.5645-0.6242-1.9787-0.4438-2.5346
				c0.3585-1.1065,1.7339-1.277,1.8196-2.0182L116.5263,241.4249z"/>
			<path d="M119.0588,247.0487c-0.2378,0.6199-0.5465,1.0795-0.8226,1.4894c-0.2791,0.4094-0.5396,0.7763-0.752,1.174
				c-0.212,0.3954-0.3796,0.8236-0.4747,1.2924c-0.097,0.4678-0.1255,0.9664-0.1114,1.4747
				c-0.1775-0.4602-0.3239-0.9527-0.394-1.4832c-0.0727-0.5291-0.7609-1.7608-0.6773-2.3106
				c0.1659-1.0943,1.2946-1.4675,1.2766-2.1765L119.0588,247.0487z"/>
			<path d="M120.7587,250.0775c-0.2076,0.5476-0.4765,0.9538-0.7171,1.3159c-0.2432,0.3618-0.4701,0.686-0.6553,1.0374
				c-0.1848,0.3494-0.3311,0.7276-0.4143,1.1416c-0.0849,0.4131-0.1102,0.8534-0.0985,1.3022
				c-0.1539-0.4061-0.2807-0.8408-0.341-1.3092c-0.0626-0.467-0.6598-1.5538-0.5865-2.0393
				c0.1455-0.9663,1.1276-1.2971,1.1127-1.9231L120.7587,250.0775z"/>
			<path d="M121.89,252.4426c-0.0324,0.5847-0.1661,1.0532-0.286,1.4711c-0.1225,0.4184-0.2409,0.796-0.3112,1.1869
				c-0.0706,0.3889-0.0957,0.7936-0.05,1.2134c0.0439,0.4195,0.1528,0.8468,0.2996,1.2711
				c-0.2694-0.3406-0.5217-0.7167-0.7207-1.1449c-0.2008-0.4263-1.0985-1.2818-1.1753-1.7668
				c-0.1533-0.9651,0.6829-1.5772,0.4796-2.1695L121.89,252.4426z"/>
			<path d="M123.4972,253.1908c-0.0324,0.5847-0.1661,1.0532-0.286,1.4711c-0.1225,0.4184-0.2409,0.796-0.3112,1.1869
				c-0.0706,0.3889-0.0957,0.7936-0.05,1.2134c0.0439,0.4195,0.1528,0.8468,0.2996,1.2711
				c-0.2694-0.3406-0.5217-0.7167-0.7207-1.1449c-0.2008-0.4263-1.0985-1.2818-1.1753-1.7668
				c-0.1533-0.9651,0.6829-1.5772,0.4796-2.1695L123.4972,253.1908z"/>
			<path d="M107.4369,223.5604c-0.4812,0.3318-0.481-0.6923-1.2571,1.1839c-0.342,0.4501-0.5937,0.9385-0.7957,1.4298
				c0.2387-0.2482,0.4934-0.4673,0.756-0.6691c0.251-0.0364,0.2605,0.3701,0.2605,0.3701l0.0615-0.6013
				c0.0413-0.0268,0.0791-0.0616,0.121-0.0868c0.4297-0.2624,0.8874-0.4321,1.3567-0.5396c0.4713-0.1087,0.9584-0.1533,1.4924-0.213
				c0.5321-0.0628,1.1279-0.1338,1.7869-0.3838l-1.1795-2.0853C109.5211,222.5019,108.3941,222.8997,107.4369,223.5604z"/>
		</g>
		<path style="fill:#58595B;" d="M172.4274,214.3328c-0.9543-1.2697,0.0747-2.9627-1.5352-4.7718
			c-1.6101-1.8091-3.8506-3.0871-4.1162-3.2199c0,0-0.6141-4.7635-2.0414-5.4771c-1.4274-0.7137-3.6682,0.8796-3.3196,3.3029
			c0,0-1.5602-0.4149-3.0539,0.0166c0,0-1.8589-2.8382-2.8714-2.3403c-1.0125,0.4979-0.3154,3.4191-0.5644,3.9834
			c-0.2489,0.5643-0.3983,2.2075-0.1992,2.6224c0,0-2.0283,0.8404-3.6015,5.5602c-0.1328,0.3983-3.4357-11.0207-14.7885-11.1535
			c-11.3525-0.1328-17.7261,9.9585-17.9252,10.0249c-0.1992,0.0664-5.7758-1.7925-8.4314,5.1784
			c-2.6556,6.9709-4.1065,13.9514,4.2488,28.3484c6.473,11.1535,9.7429,11.3858,9.7926,11.419
			c0.0497,0.0332,2.4564,5.6597,4.5477,6.2075c2.0913,0.5477,4.4149-0.2987,4.4149-0.2987s1.9253,1.8921,2.6224,2.639
			c0.6972,0.7468,1.2977,1.1446,2.7883,0.8464c0.3321-0.0664,3.1536,0.2988,3.9502-0.4481
			c0.7966-0.7469,1.3279-2.2075-0.2323-3.1037c0,0-0.5994-1.1784-1.5362-1.1951c-0.9369-0.0165-1.6671,0.3818-1.9658,0.2987
			c-0.2987-0.0829-3.7344-3.7012-5.0954-7.1534c-1.3611-3.4523,1.1619-20.1328,1.2615-21.3609
			c0.0996-1.2283-0.8632-2.2572-0.5643-2.888c0.2986-0.6307,9.4605,0.9627,10.4895,2.058c1.0291,1.0955,1.0955,3.6847,0.83,5.0125
			c-0.2657,1.3278-0.9627,6.0082-0.498,13.2116c0.4647,7.2032-0.4315,7.2032-0.4647,8.4315
			c-0.0332,1.2283-0.3651,3.3859,1.4274,3.2863c0.5975-0.0332,1.2945,1.195,3.253,0.8963s2.8547-2.7883,0.8962-4.249
			c0,0-0.4647-2.722,0.2325-4.3485c0,0,1.4273,3.6515,1.3941,4.7137c-0.0332,1.0623-0.3651,1.693,0.0332,3.0871
			c0.3985,1.3942-0.166,2.0913,0.5976,2.6225c0.5793,0.403,2.556,0.4647,2.8547,0c0,0,2.7717,0.6306,3.3526-1.3611
			s-1.278-2.7552-2.307-2.8879c0,0-0.6037-1.3232-0.5311-6.6224c0.0165-1.2116-0.9461-12.0331-0.0167-16.1161
			s4.2822-8.6307,4.6805-12.8796c0.3983-4.2489,1.3279-4.946,1.693-4.946c0.3651,0,2.2241,2.4232,3.3526,2.6224
			c1.1287,0.1992,2.7085-0.6804,2.1909-1.8921c-0.3651-0.8548,0.5146-1.6017,0.2574-3.7676c0,0,2.4984,1.2952,4.2323,0.332
			c0.2987-0.166,0.6971-0.8631,0.9958-1.2116C173.4565,217.0133,173.3818,215.6025,172.4274,214.3328z M121.0003,250.1584
			c-0.9627-0.0996-3.1947-5.0238-5.2449-11.0207c-3.9833-11.6514,0.7137-14.6313,0.7137-14.6313s2.3735,7.3949,4.332,12.4072
			C122.7597,241.926,121.5538,250.2156,121.0003,250.1584z"/>
		<path style="fill:#F7A6AC;" d="M164.23,217.1879c0.0356,0.5621,1.8461,5.2195,3.5459,3.0579
			c0.5726-0.7282,0.4822-2.6242-1.3087-3.0579C164.6764,216.7542,164.23,217.1879,164.23,217.1879z"/>
		<g>
			<path style="fill:none;stroke:#000000;stroke-width:0.7;stroke-miterlimit:10;" d="M152.4026,265.783
				c0.5793,0.403,2.556,0.4647,2.8548,0c0,0,2.7718,0.6307,3.3527-1.361c0.5809-1.9917-1.278-2.7552-2.307-2.8879
				c0,0-0.6037-1.3232-0.5311-6.6224c0.0166-1.2116-0.9461-12.0331-0.0166-16.1161c0.9295-4.083,4.2821-8.6307,4.6805-12.8796
				c0.3983-4.2489,1.3278-4.946,1.6929-4.946s2.2241,2.4232,3.3527,2.6224c1.1286,0.1992,2.7085-0.6804,2.1909-1.8921
				c-0.3651-0.8548,0.5145-1.6017,0.2573-3.7676c0,0,2.4984,1.2952,4.2323,0.3319c0.2988-0.166,0.6971-0.8631,0.9958-1.2116
				s0.2241-1.7593-0.7303-3.029c-0.9544-1.2697,0.0747-2.9626-1.5353-4.7718c-1.61-1.8091-3.8506-3.0871-4.1162-3.2199
				c0,0-0.6141-4.7635-2.0415-5.4772c-1.4274-0.7137-3.668,0.8797-3.3195,3.3029c0,0-1.5602-0.4149-3.0539,0.0166
				c0,0-1.8589-2.8382-2.8714-2.3402c-1.0124,0.4979-0.3154,3.4191-0.5643,3.9834s-0.3983,2.2075-0.1992,2.6224
				c0,0-2.0284,0.8404-3.6017,5.5602c-0.1328,0.3983-3.4357-11.0207-14.7883-11.1535
				c-11.3527-0.1328-17.7261,9.9585-17.9252,10.0248c-0.1992,0.0664-5.7759-1.7925-8.4315,5.1784
				c-2.6556,6.9709-4.1065,13.9514,4.2489,28.3484c6.473,11.1535,9.7427,11.3858,9.7925,11.4191
				c0.0498,0.0332,2.4564,5.6597,4.5477,6.2074c2.0913,0.5477,4.4149-0.2988,4.4149-0.2988s1.9253,1.8921,2.6224,2.639
				c0.6971,0.7469,1.2977,1.1446,2.7884,0.8465c0.332-0.0664,3.1535,0.2987,3.9502-0.4481
				c0.7967-0.7469,1.3278-2.2075-0.2324-3.1037c0,0-0.5994-1.1784-1.5362-1.195c-0.9368-0.0166-1.6671,0.3817-1.9658,0.2987
				c-0.2988-0.083-3.7344-3.7012-5.0954-7.1535c-1.361-3.4523,1.1618-20.1327,1.2614-21.3609s-0.8631-2.2572-0.5643-2.8879
				c0.2988-0.6307,9.4605,0.9626,10.4896,2.0581s1.0954,3.6846,0.8299,5.0124c-0.2656,1.3278-0.9627,6.0083-0.4979,13.2116
				c0.4647,7.2033-0.4315,7.2033-0.4647,8.4315c-0.0332,1.2282-0.3651,3.3859,1.4274,3.2863
				c0.5975-0.0332,1.2946,1.195,3.2531,0.8963s2.8548-2.7884,0.8963-4.2489c0,0-0.4647-2.722,0.2324-4.3485
				c0,0,1.4274,3.6514,1.3942,4.7137c-0.0332,1.0622-0.3651,1.6929,0.0332,3.0871
				C152.2034,264.5548,151.6391,265.2519,152.4026,265.783z"/>
			<path style="fill:none;stroke:#000000;stroke-width:0.5989;stroke-miterlimit:10;" d="M121.0003,249.8495
				c0,0,1.7593-8.2323-0.1992-13.2448s-4.332-12.4072-4.332-12.4072s-4.697,2.9799-0.7136,14.6313
				C117.8057,244.8257,120.0708,249.4179,121.0003,249.8495z"/>
			<path style="fill:none;stroke:#000000;stroke-width:0.5989;stroke-miterlimit:10;" d="M150.3777,255.3598
				c-0.7967-2.8216-3.2661-12.7252-2.8216-17.3609c0.2324-2.4232-2.1114-4.447-2.8548-4.8796"/>
			<path style="fill:none;stroke:#000000;stroke-width:0.5989;stroke-miterlimit:10;" d="M132.9836,263.4261
				c0,0-8.1659-8.1991-7.668-11.585c0.4979-3.3859,1.406-5.7491,0.166-9.9916c-1.6496-5.6438-9.2116-15.7676-7.6349-19.5518"/>
			<path style="fill:none;stroke:#000000;stroke-width:0.5989;stroke-miterlimit:10;" d="M161.415,203.858
				c0.5809,0.1826,4,1.0954,5.361,2.1743"/>
			<path style="fill:#58595B;" d="M124.9807,251.9533c0,0,2.6247,1.531,2.6499,4.336
				C127.6558,259.0942,124.3803,254.4389,124.9807,251.9533z"/>
			<path style="fill:none;stroke:#000000;stroke-width:0.5989;stroke-miterlimit:10;" d="M121.0003,249.8495
				c0.5809,0.5145,5.6597,2.0747,6.4232,4.9626c0.7635,2.888-0.6307,3.5519-3.4025,2.7054"/>
		</g>
		<g>
			<path d="M154.9278,208.0779c0.6266,0.6224-0.2223,3.1618,2.703,3.9543c0,0-1.2396,0.1166-2.1909-0.4191
				c-0.3258-0.1835-1.0635-1.7491-1.3319-2.166C153.5229,208.5385,154.9278,208.0779,154.9278,208.0779z"/>
			<path d="M158.2159,204.082c0.1201,0.9752,1.6811,1.1726,2.917,2.0166c0,0-2.1888-1.4253-2.2946-2.1846L158.2159,204.082z"/>
			<path d="M155.025,202.2237c0.3983-0.7546,0.946-0.0753,1.7427,0.6716s1.9087,4.4315,2.5892,5.7427
				c0.6805,1.3112-0.2863,1.8755-0.8672,1.9419c0,0,0.4979-0.6722,0.2863-1.6929c-0.2116-1.0207-2.6547-6.6568-3.6846-5.3278
				C154.638,204.1443,155.025,202.2237,155.025,202.2237z"/>
			<path d="M166.5312,212.6463c0.1514-0.6244,1.5809-1.2697,2.0041-0.8465s0.5477,1.307,0.5477,1.307l0.7469,0.5975
				c0,0-1.668,0.5104-1.7054,0.4979C168.0872,214.1899,166.332,213.4679,166.5312,212.6463z"/>
			<path style="stroke:#000000;stroke-width:0.2995;stroke-miterlimit:10;" d="M171.6722,216.0944c0,0,0.3486,1.5187,1.2448,0.8963
				s-0.7593,0.9336-0.7593,0.9336L171.6722,216.0944z"/>
			<path d="M161.415,203.6588c0.1058-0.0187,3.9149,1.1763,4.4875,0.3797c0.5726-0.7967,0.5228-0.3548,0.5228-0.3548
				s0.2801,2.1224,0.2614,2.11c-0.0187-0.0125-2.4212-0.9772-2.4087-0.9958S161.415,203.6588,161.415,203.6588z"/>
			<path d="M169.5368,212.6464c-0.048-0.0182-0.452-1.9667-2.1044-2.0542c-1.6523-0.0874-2.7687,0.319-2.7687,0.319
				s1.2642-0.2047,2.1947-0.0167c0.9305,0.188,1.0063,0.9078,1.6582,1.3003C169.1684,212.5874,169.5368,212.6464,169.5368,212.6464z
				"/>
			<path d="M164.23,217.1879c0,0,1.2089,3.8882,3.2046,3.4021c0.2707-0.0659,0,1.4804,0,1.4804s-1.9449,0.9541-2.7561-2.2059
				S164.23,217.1879,164.23,217.1879z"/>
			<path d="M126.3861,222.6297c0,0,6.5578,1.7571,9.7344,5.1784c2.5776,2.7762,8.3153,4.9294,8.3153,4.9294
				s-5.8964-1.5527-7.4191-1.6763c-1.5226-0.1236-3.0622,0.1328-3.0622,0.1328s-0.6224-3.6099-2.5892-5.0539
				C129.3986,224.696,126.3861,222.6297,126.3861,222.6297z"/>
			<path d="M148.7514,264.0004c0.6676-0.4775,2.0713-0.1317,2.251-1.3079c0.1796-1.1763,0.006-2.3339-0.6247-2.7918
				c-0.6307-0.4579-0.6639-4.8064-0.6639-4.906c0-0.0996-3.0539-17.2945-3.0539-17.2945l-1.3278,0.8299
				c0,0-0.4835,7.4674-0.4489,8.9632c0.0346,1.4959,0.3253,7.8162,0.2543,8.7631c-0.071,0.9469-1.0728,5.3274-0.4361,6.0184
				s0.9332,0.9563,1.4459,0.8049C146.6599,262.9282,148.0878,264.4751,148.7514,264.0004z"/>
			<path d="M124.021,257.5175c-0.1513-0.3999,1.8113,0.5898,2.5571,0.2617c0.7458-0.3281,0.8759-0.8823,0.9363-0.7968
				c0.0604,0.0855,5.4692,6.4438,5.4692,6.4438s-3.0941,1.203-4.4149,0.2988C127.2478,262.8206,125.465,261.3349,124.021,257.5175z"
				/>
			<path d="M150.7097,213.3849c0.4647,2.2738,2.2738,2.3153,2.2738,2.3153s-1.74-1.5465-1.4333-2.8523L150.7097,213.3849z"/>
			<path d="M125.2243,251.1358c0.0332-0.0935,3.0539,1.9751,2.9211,4.3651c-0.1328,2.39-0.39,3.3942-0.39,3.3942
				s0.3645-1.4606-0.1248-3.0539c-0.4893-1.5934-1.2423-3.4897-2.3347-3.6037
				C124.2036,252.1233,125.2243,251.1358,125.2243,251.1358z"/>
			<path d="M149.9937,258.1067c0,0,0.0026-2.3421,0.3468-2.6524c0.3443-0.3102-2.0796-8.2597-2.2992-10.6833
				c-0.2196-2.4236-0.5169-6.1812-0.4803-7.3771s-1.5982-3.4274-2.2289-3.6966c0,0,0.4301,2.8434,0.3147,3.7933
				c-0.1154,0.9499,2.0633,9.7115,2.2063,12.6741S149.9937,258.1067,149.9937,258.1067z"/>
			<path d="M121.0003,249.8495c0,0,4.297,2.4561,4.2957,2.3879c-0.0013-0.0682,1.2811-6.1519,0.7997-8.0311
				s-3.1453-8.6579-4.3693-10.9377c-1.224-2.2798-3.1503-6.409-3.4813-8.8796c-0.331-2.4706,0.0996-7.2199,0.0996-7.2199
				l-1.8184,6.9463l2.3495,7.4436c0,0,2.6016,5.4772,2.8506,8.6805C121.9753,243.4429,121.0003,249.8495,121.0003,249.8495z"/>
			<path style="fill:none;stroke:#000000;stroke-width:0.5989;stroke-miterlimit:10;" d="M167.7675,222.068
				c-0.0041-0.0631-1.4231,0.2007-2.0828-0.2972s-2.029-4.3195-1.3195-4.7614c0.7095-0.4419,2.9875,0.3797,3.5643,0.9232"/>
			<path d="M161.4098,221.6235c-0.2193-0.2335-0.3733-0.4483-0.5349-0.6858c-0.1553-0.2349-0.2964-0.4773-0.4132-0.7315
				c-0.2343-0.5036-0.3743-1.0713-0.2914-1.5931c0.122,0.5137,0.429,0.9162,0.7819,1.2494c0.1775,0.1668,0.3711,0.316,0.5703,0.4524
				c0.1952,0.1314,0.4181,0.2678,0.6045,0.3492L161.4098,221.6235z"/>
			<g>
				<polygon points="142.1973,263.6469 140.6096,263.9241 142.0271,263.0726 				"/>
			</g>
		</g>
		<path d="M150.5291,212.3529c-0.6472-1.5736-2.4956-5.2236-2.8899-5.7729c-0.4648-0.6473-2.6697-1.9196-2.9377-2.2905
			c-0.2683-0.3708-1.5984-1.2614-2.9709-1.0623c-0.0098,0.0015-0.0159,0.0039-0.0249,0.0056
			c-1.0713-0.7087-2.8179-0.948-3.1917-0.8795c-0.4502,0.0824-2.9226-0.5233-3.7058-0.3771
			c-0.5605,0.1045-3.3933,1.087-5.2021,1.8062c-2.1675,0.6631-3.7781,1.4194-4.3179,1.7705c-1.0679,0.6951-6.2188,6.49-6.2188,6.49
			c1.5132-1.3628,7.1924-7.5116,13.1177-7.9976c5.9253-0.4861,10.2891,0.4816,13.0786,3.5706
			c2.7759,3.0737,4.6006,5.0393,5.1951,6.0264c0.7605,1.2629,1.6868,1.7115,1.6868,1.7115S151.4986,214.047,150.5291,212.3529z"/>
		<path d="M118.85,211.7955c-1.667,0.3412-5.0291,1.3472-5.6426,1.6317c-0.7229,0.3354-2.3854,2.2631-2.8,2.457
			c-0.4145,0.1941-1.5383,1.334-1.5997,2.7195c-0.0004,0.0099,0.0009,0.0163,0.0009,0.0255
			c-0.8968,0.9196-1.4588,2.5905-1.4615,2.9705c-0.0033,0.4577-1.0612,2.7729-1.0642,3.5697
			c-0.0023,0.5702,0.4325,3.5368,0.8002,5.4483c0.2456,2.2533,0.687,3.977,0.9308,4.573c0.4828,1.1791,4.8377,7.7366,4.8377,7.7366
			c-1.0554-1.7416-5.659-8.8843-5.027-14.7958c0.6319-5.9115,2.6065-10.806,6.1632-12.9679
			c3.5391-2.1513,6.0618-2.2168,6.6854-3.1858c1.2043-1.8716,5.0644-5.9447,5.0644-5.9447s-3.5649,2.6881-4.8438,3.9881
			C120.2519,210.6734,119.4667,211.5832,118.85,211.7955z"/>
	</g>
</g>
<g>
</g>
<g>
</g>
<g>
</g>
<g>
</g>
<g>
</g>
<g>
</g>
</svg>
