<?xml version="1.0" encoding="iso-8859-1"?>
<!-- Generator: Adobe Illustrator 25.0.1, SVG Export Plug-In . SVG Version: 6.00 Build 0)  -->
<svg version="1.1" id="Layer_1" xmlns="http://www.w3.org/2000/svg" xmlns:xlink="http://www.w3.org/1999/xlink" x="0px" y="0px"
	 viewBox="0 0 194.9648 213.7137" style="enable-background:new 0 0 194.9648 213.7137;" xml:space="preserve">
<g id="Maskottchen_3_">
	<g id="Arm">
		<g>
			<path style="fill:#F5CBAB;" d="M172.5394,94.7136c0.9134-2.9894,0.5517-5.312,0.9135-7.0584
				c1.4482-6.9904,3.7807-14.9363,5.6466-14.0335c2.5742,1.2456,0.8304,10.1307,0.8304,10.1307s5.7297-5.8958,6.8092-7.1413
				c1.0795-1.2456,2.8441-2.3458,3.9028-1.3286c0.9748,0.9365-0.1557,3.6226-0.4982,4.1519c0,0,3.0619-2.0898,4.1519-0.6643
				c1.0795,1.4117-3.28,5.8335-5.3353,8.6983c-2.0562,2.8662-3.3838,5.8335-2.8856,6.8299
				c0.4982,0.9965,5.6942-6.6403,7.3904-4.5671c1.121,1.3701-4.7747,6.8092-5.8127,10.0477
				c-1.2188,3.8027-6.2279,9.0512-7.3489,9.9231c-1.121,0.8719-5.2314,6.2279-6.6016,7.3489
				c-1.3701,1.121-6.1033,9.0927-17.0645,13.9505c-10.9611,4.8578-18.0609,3.4876-19.5556,2.8648
				c-1.4947-0.6228-4.7332-5.9788-5.6051-8.0963c0,0,6.1033-16.068,7.3489-15.3206c1.2456,0.7473,5.7297,6.477,5.7297,6.477
				c1.4742-1.2777,15.9587-6.2841,22.5865-9.757c1.7719-0.9285,3.3877-4.6925,3.1347-5.3145
				c-1.4947-3.6745-3.2177-5.1899-6.0411-5.8542c-2.8233-0.6643-4.093-2.2789-1.5777-3.3631
				C167.4741,90.5616,172.5394,94.7136,172.5394,94.7136z"/>
		</g>
		<g>
			<g>
				<g>
					<path style="fill:none;stroke:#000000;stroke-miterlimit:10;" d="M172.5394,94.7136c0.9134-2.9894,0.5517-5.312,0.9135-7.0584
						c1.4482-6.9904,3.7807-14.9363,5.6466-14.0335c2.5742,1.2456,0.8304,10.1307,0.8304,10.1307s5.7297-5.8958,6.8092-7.1413
						c1.0795-1.2456,2.8441-2.3458,3.9028-1.3286c0.9748,0.9365-0.1557,3.6226-0.4982,4.1519c0,0,3.0619-2.0898,4.1519-0.6643
						c1.0795,1.4117-3.28,5.8335-5.3353,8.6983c-2.0562,2.8662-3.3838,5.8335-2.8856,6.8299
						c0.4982,0.9965,5.6942-6.6403,7.3904-4.5671c1.121,1.3701-4.7747,6.8092-5.8127,10.0477
						c-1.2188,3.8027-6.2279,9.0512-7.3489,9.9231c-1.121,0.8719-5.2314,6.2279-6.6016,7.3489
						c-1.3701,1.121-6.1033,9.0927-17.0645,13.9505c-10.9611,4.8578-18.0609,3.4876-19.5556,2.8648
						c-1.4947-0.6228-4.7332-5.9788-5.6051-8.0963c0,0,6.1033-16.068,7.3489-15.3206c1.2456,0.7473,5.7297,6.477,5.7297,6.477
						c1.4742-1.2777,15.9587-6.2841,22.5865-9.757c1.7719-0.9285,3.3877-4.6925,3.1347-5.3145
						c-1.4947-3.6745-3.2177-5.1899-6.0411-5.8542c-2.8233-0.6643-4.093-2.2789-1.5777-3.3631
						C167.4741,90.5616,172.5394,94.7136,172.5394,94.7136z"/>
				</g>
			</g>
			<path style="fill:none;stroke:#000000;stroke-miterlimit:10;" d="M179.6808,83.9185c-0.6228,2.8648-1.2456,4.8578-0.6228,5.6051"
				/>
			<path style="fill:none;stroke:#000000;stroke-miterlimit:10;" d="M189.7284,80.3479c-1.121,1.2456-6.1864,6.8092-6.6846,8.553"/>
			<path style="fill:none;stroke:#000000;stroke-miterlimit:10;" d="M172.5394,94.7136c1.038,0.9134,3.5914,2.7195,4.0274,3.716"/>
			<path style="fill:none;stroke:#000000;stroke-miterlimit:10;" d="M170.2766,101.8549c0.4982,1.2456,2.8648,5.9165,6.5393,4.8578"
				/>
		</g>
	</g>
	<path id="K&#xF6;rper_1_" style="stroke:#000000;stroke-miterlimit:10;" d="M59.3576,80.9291
		c4.2802-2.1401,25.3439-12.5008,25.3439-12.5008l21.7391,8.5149l7.7226-7.5565c0,0,9.0278,3.2746,10.7743,6.1241
		c1.1834,1.9308,2.4912,4.2973,4.8578,8.6568c2.0517,3.7795,2.6985,7.1759,3.9859,10.5874
		c1.2456,3.3008,3.2385,9.3419,4.7955,11.833c1.557,2.4912,3.6745,6.1656,3.6745,6.1656s-0.2491,3.799-3.4254,8.8436
		c-2.7949,4.439-6.3525,7.9094-6.3525,7.9094s-2.8026-2.4912-3.5499-3.9236c0,0-0.6612,5.7163-5.9549,12.5047
		c-5.2937,6.7884-5.8159,28.039-7.0614,36.0107c-1.2456,7.9717-0.9195,39.1113-0.9195,39.1113l-66.3418-0.4982
		c0,0-2.9894-20.9258,5.9788-46.5847s-18.6837-47.083-18.6837-47.083S48.8947,86.1606,59.3576,80.9291z"/>
	<g id="Gesicht_1_">
		<path style="fill:#F5CBAB;stroke:#000000;stroke-width:1.789;stroke-miterlimit:10;" d="M119.2661,23.7267l3.3513,10.1465
			c0,0,2.6389,2.5681,2.4759,4.9173c-0.1675,2.3496-0.0155,9.6149-0.7146,9.8523c-0.6991,0.2374-1.7845,0.1474-1.7845,0.1474
			s-1.5104,9.4545-8.3922,14.7855c0,0-0.2108,11.6254,0.7683,14.7785c0.6154,1.9829-7.2433,3.6006-13.1689,4.5292
			c-3.8718,0.6067-7.7703-0.8559-10.29-3.8574l-1.3085-5.7136c0,0-1.8946-2.2807-1.5657-4.8233
			c0.3312-2.5427,1.0037-7.4517,1.0037-7.4517s-2.1126-1.6222-3.6294-4.7312c-1.4109-2.9024-1.7336-5.7882-1.7336-5.7882
			s-3.1387,1.1576-3.8936-3.6311c-0.7551-4.7912,2.5314-25.9092,2.5314-25.9092l18.6041-12.5599l16.0399,9.8777L119.2661,23.7267z"
			/>
		<g>
			<g>
				<g>
					<path d="M110.2146,52.8974c-0.1052-1.3325-5.93-0.8491-6.6666,0.0895c0,0,1.7595,1.3436,3.1653,1.2275
						C108.1211,54.0981,110.2146,52.8974,110.2146,52.8974z"/>
					<path d="M112.0483,50.3091c0.4119-0.0994-1.1068-2.0449-2.2135-2.4475c-0.8296-0.3018-2.7379-0.0709-2.7379-0.0709
						s-1.9251-0.1691-2.7379-0.0709c-2.3124,0.2819-3.5829,2.2785-3.5829,2.2785s3.2731-0.5293,6.1849-0.6051
						C108.2089,49.3607,112.0483,50.3091,112.0483,50.3091z"/>
				</g>
				<path d="M107.6232,42.3526c-0.3924-0.4786,2.2468-1.0159,2.1801,0.9319c-0.0197,0.575-0.8641-0.0282-1.4809-0.4508
					C107.9448,42.5765,107.8361,42.6137,107.6232,42.3526z"/>
				<path d="M103.3519,42.4692c0.9433-1.1305,1.9834-0.9037,2.4446-0.2768c0.1358,0.188-1.1369,0.4817-1.4059,0.7362
					C103.6683,43.6119,102.6225,43.3433,103.3519,42.4692z"/>
				<path d="M114.6629,63.7328c-0.2631,0.1971,3.0674-3.822,3.0674-3.822s-5.6351,3.6378-9.5629,4.273
					c-3.7344,0.6039-9.6041-0.513-11.298-0.9586c-2.3423-0.616-6.6367-2.5959-6.6367-2.5959l-1.0106,4.0385
					c0,0,4.9658,4.2346,8.8338,5.785c2.5095,1.0038,5.352,1.1751,9.1143-0.6198C110.9286,68.0408,114.6629,63.7328,114.6629,63.7328
					z"/>
			</g>
			<g>
				<path d="M123.2852,31.4875c0,0-2.7431-3.8538-3.8729-4.2403c-0.9411-0.322-2.6525-1.5019-5.217-1.2901
					c-0.8875,0.0733-2.391,0.1422-3.4673,0.9164c-0.3182,0.2282-0.3626,2.0997,0.9491,1.6543
					c1.6832-0.5717,4.879-0.3575,6.348-0.1561C119.4291,28.5642,123.2852,31.4875,123.2852,31.4875z"/>
				<path d="M99.7252,26.9065c0.282,0.0035,0.4948,0.2699,0.4333,0.5455c-0.2716,1.2247-1.2789,1.4899-3.2083,1.3873
					c-2.1879-0.1164-5.5943-0.8576-7.3525-0.2842c-1.5744,0.516-3.5665,1.1862-3.5665,1.1862s2.7044-2.6011,5.1916-3.1039
					c2.4827-0.5024,3.0978,0.0169,4.3699,0.136C96.5964,26.8656,98.7461,26.8965,99.7252,26.9065z"/>
				<g>
					<path d="M101.5912,33.2582c0,0-1.7279-2.9721-4.7598-2.9778c-2.606-0.0049-4.0628,3.6988-4.5784,3.9081
						c-0.5118,0.2053-1.0047,0.3017-1.0047,0.3017s1.6733-0.9848,2.3597-1.2967c0.6919-0.3112,2.5754-1.9507,3.2781-1.9601
						C98.8513,31.207,101.5912,33.2582,101.5912,33.2582z"/>
					<path d="M70.6487,28.5711c2.4386,0,5.099,0,8.6461,0.6651s17.2965,1.6633,17.2965,1.6633
						c-0.1946,0.2555-0.3136,0.5656-0.3257,0.9034c-0.0327,0.9173,0.7413,1.6923,1.7268,1.7274
						c0.9855,0.0351,1.8126-0.683,1.8453-1.6002"/>
				</g>
				<g>
					<path d="M119.9314,33.9698c0,0-1.2992-3.4495-3.9501-3.3805c-1.1943,0.0311-2.2411,0.7842-2.7519,1.223
						c-0.6035,0.5183-1.8006,2.4953-1.8006,2.4953s2.2339-1.9646,2.7282-2.1851c0.9351-0.417,3.1165-1.1587,4.4821,1.4728
						C118.8906,34.0798,119.9314,33.9698,119.9314,33.9698z"/>
					<path d="M118.6245,32.5894c-0.0905,0.8922-0.9401,1.5346-1.8994,1.4373c-0.9593-0.0973-1.6683-0.8978-1.5778-1.79
						c0.0246-0.2425,0.1061-0.4665,0.231-0.6622l1.6746-0.0318L118.6245,32.5894z"/>
				</g>
			</g>
			<g>
				<path d="M117.9381,37.4331c-0.0298,0.1728,0.2016,0.3811,0.5163,0.4683c0.3121,0.0853,0.5854,0.0178,0.6133-0.1527
					c0.0233-0.1718-0.2083-0.38-0.5185-0.4679C118.2374,37.1957,117.9637,37.263,117.9381,37.4331z"/>
				<path d="M106.0151,36.732c0.0187,0.1135,0.1869,0.1819,0.3701,0.1517s0.316-0.1482,0.2973-0.2617
					c-0.0187-0.1134-0.1825-0.1828-0.3656-0.1526C106.1337,36.4996,105.9964,36.6185,106.0151,36.732z"/>
				<path d="M107.1058,37.6815c0.0269,0.1635,0.2558,0.2602,0.5198,0.2167c0.2595-0.0428,0.4495-0.2085,0.4225-0.372
					c-0.0266-0.1615-0.2597-0.2575-0.5192-0.2147C107.2649,37.355,107.0792,37.52,107.1058,37.6815z"/>
				<path d="M105.7358,35.1739c0.0187,0.1132,0.1824,0.1826,0.3658,0.1524c0.1832-0.0302,0.316-0.1484,0.2973-0.2617
					c-0.0187-0.1135-0.1825-0.1829-0.3656-0.1527C105.85,34.9422,105.7171,35.0604,105.7358,35.1739z"/>
				<path d="M104.6802,36.7884c0.0262,0.1592,0.2521,0.2519,0.5094,0.2095c0.2531-0.0417,0.4373-0.2019,0.411-0.3612
					c-0.0259-0.157-0.2521-0.2519-0.5052-0.2102C104.8382,36.469,104.6543,36.6314,104.6802,36.7884z"/>
				<path d="M104.7319,38.8702c0.0191,0.1157,0.1825,0.1828,0.3659,0.1526c0.1832-0.0302,0.3164-0.1462,0.2973-0.2619
					c-0.0187-0.1135-0.1825-0.1829-0.3656-0.1527C104.8461,38.6385,104.7132,38.7567,104.7319,38.8702z"/>
				<path d="M105.649,39.2142c0.0274,0.166,0.2678,0.2651,0.5339,0.2213c0.2663-0.0439,0.462-0.2149,0.4346-0.3809
					c-0.0273-0.1657-0.2676-0.2649-0.5338-0.2211C105.8176,38.8774,105.6217,39.0485,105.649,39.2142z"/>
				<path d="M107.9455,39.0105c0.0187,0.1135,0.1847,0.1825,0.3681,0.1522c0.1832-0.0302,0.316-0.1484,0.2973-0.2619
					c-0.019-0.1155-0.1825-0.1828-0.3656-0.1527C108.0618,38.7784,107.9264,38.895,107.9455,39.0105z"/>
				<path d="M113.8836,36.7592c0.0287,0.1744,0.3052,0.2746,0.6172,0.2231c0.3076-0.0507,0.5393-0.2346,0.5105-0.409
					c-0.0284-0.1722-0.3068-0.272-0.6144-0.2213C114.085,36.4035,113.8553,36.587,113.8836,36.7592z"/>
				<path d="M112.6146,38.344c0.0288,0.1747,0.3032,0.2749,0.615,0.2235c0.3118-0.0514,0.5373-0.234,0.5085-0.4087
					c-0.0284-0.1722-0.3006-0.273-0.6124-0.2216C112.8139,37.9886,112.5862,38.1718,112.6146,38.344z"/>
				<path d="M111.0655,37.2237c0.0287,0.1744,0.3074,0.2742,0.615,0.2235c0.314-0.0518,0.5437-0.2353,0.515-0.4097
					c-0.0284-0.1722-0.3048-0.2723-0.6189-0.2206C111.2691,36.8676,111.0371,37.0514,111.0655,37.2237z"/>
				<path d="M98.8778,38.2197c0.0291,0.1767,0.303,0.2749,0.615,0.2235c0.3118-0.0514,0.5376-0.232,0.5085-0.4087
					c-0.0284-0.1722-0.3006-0.273-0.6124-0.2216C99.0769,37.8643,98.8494,38.0474,98.8778,38.2197z"/>
				<path d="M97.945,39.7917c0.0287,0.1744,0.3026,0.2727,0.6124,0.2216c0.314-0.0518,0.5441-0.2331,0.5154-0.4075
					c-0.0287-0.1744-0.3052-0.2746-0.6192-0.2228C98.1438,39.4341,97.9163,39.6173,97.945,39.7917z"/>
				<path d="M94.6975,39.9213c0.0288,0.1744,0.3052,0.2746,0.617,0.2232c0.312-0.0514,0.5395-0.2346,0.5107-0.409
					c-0.0284-0.1722-0.3026-0.2727-0.6146-0.2213C94.8988,39.5655,94.6692,39.7491,94.6975,39.9213z"/>
				<path d="M96.235,38.4962c0.0284,0.1722,0.3026,0.2727,0.6144,0.2213c0.312-0.0514,0.5373-0.2342,0.5089-0.4064
					c-0.0288-0.1744-0.3007-0.2753-0.6128-0.2239C96.4337,38.1386,96.2062,38.3218,96.235,38.4962z"/>
				<path d="M93.2611,37.8124c0.0287,0.1744,0.3048,0.2723,0.6166,0.2209c0.312-0.0514,0.5399-0.2324,0.5111-0.4068
					c-0.0288-0.1747-0.303-0.2749-0.615-0.2235C93.4621,37.4544,93.2323,37.6377,93.2611,37.8124z"/>
				<path d="M101.5089,40.9833c0.0288,0.1744,0.3052,0.2746,0.617,0.2232c0.312-0.0514,0.5415-0.2349,0.5127-0.4094
					c-0.0284-0.1724-0.3046-0.2726-0.6167-0.2212C101.7102,40.6273,101.4805,40.8109,101.5089,40.9833z"/>
			</g>
		</g>
		<g>
			<path style="fill:#CBA067;stroke:#000000;stroke-width:0.8375;stroke-miterlimit:10;" d="M91.7112,80.6215
				c0,0-0.0815-0.0848-0.2091-0.2234C91.5586,80.4903,91.6245,80.5699,91.7112,80.6215z"/>
			<path style="fill:#CBA067;stroke:#000000;stroke-miterlimit:10;" d="M140.9257,39.1015
				c-1.6095,0.7158-3.2146-0.9976-4.4519-2.3392c-3.5751-3.8763-6.5833,2.0993-8.7389,1.3416
				c0.0318-0.4385-1.0947-7.1019-0.8314-9.0895c0.2716-2.0831,0.2455-3.5486,0.6097-6.7062
				c0.2491-2.159,0.9326-1.9143,0.4344-4.4055s-2.0578-2.4053-4.8993-5.8127c-2.8458-3.4094-7.3608-5.4782-12.0499-5.7719
				c-4.6915-0.2934-4.6915-0.2934-4.6915-0.2934s-1.1037-2.218,2.3404-2.6023c3.4422-0.3819,7.4318,3.663,7.4318,3.663
				s-1.0959-4.6744-5.622-6.1883c-3.4193-1.1437-7.371,1.3699-7.371,1.3699s-4.924-3.9431-7.0356-0.0487
				c-1.1452,2.113-2.8357,0.527-6.0017,1.0014c-8.1945,1.2291-12.1326,6.7806-12.1326,6.7806s-3.1272-0.4569-5.4177,2.0481
				c-2.0461,2.2453-3.6109,2.2369-4.3595,3.4876c-0.8336,1.4019-1.6471,4.5551-0.1506,6.1624
				c1.9208,2.0631,3.2146,1.6073,3.2146,1.6073s7.3518,7.8034,1.2193,7.2605c0.9238,1.1682-0.6158,2.11-0.6651,3.7688
				c-0.0469,1.4724-2.0634,5.2959-1.9952,3.8242c-0.1776,3.8358-1.2925,3.6766-1.6627,4.4339
				c-0.1833,0.3749-1.7522,0.043-2.7162,1.5293c-0.0593,0.0891-0.1436,0.1691-0.2093,0.2567
				c1.7146,1.5864,2.875,0.5964,2.5247,2.7171c0.5041-0.0971,0.3293,2.9141,0.3293,2.9141s-1.0933,2.4483-1.3727,5.0533
				c-0.2774,2.6027,1.7899,4.9629,1.7899,4.9629s2.2204,2.6339-1.334,4.4225c-1.9038,0.9558-4.1667-0.5497-4.1667-0.5497
				s2.06,3.4011,4.4117,2.8964c1.2532-0.2701,2.1311-0.8371,2.6802-1.3083c-0.617,0.854-1.0555,2.3119,1.4711,3.6827
				c0,0-1.5844,3.3761,2.3128,5.2278c3.895,1.8519,4.6065,2.5697,4.6065,2.5697s-1.9938-3.5929-1.2026-4.8915
				c0.791-1.2986,2.3606-2.329,2.3606-2.329s-2.1024,3.6585,1.5598,5.2126c2.3197,0.9861,0.4533,5.4881,0.4533,5.4881
				c3.5795,0.1791,2.0152-8.6622,1.6839-9.8239c-0.3328-1.1591,1.4203-2.1958,1.4203-2.1958s1.1072,2.5816,2.5653,2.9957
				c1.2746,0.3629,1.9129,1.5656,1.3593,3.5123c-0.4716,1.6662,2.1181,4.6383,2.8759,5.462
				c-0.6805-1.1117,0.708-5.026,0.9022-8.6267c0.1137-2.1145-2.5156-1.6932-1.1554-5.3679c2.359-6.3769-2.1945-6.1008-1.9977-9.8148
				c0.1429-2.7533,2.7636-3.8682-1.2728-9.6371c-0.5612-0.8055-0.6689-2.6153-0.5984-4.5025
				c0.3157,0.2225,2.9033,1.983,4.6223,0.772c1.8318-1.2916,2.5796-4.4034,1.8104-6.4937
				c-0.7672-2.0907-0.0391-5.5519,2.0559-7.3621c2.1-1.8104,6.2022-3.1133,5.904-6.7223c-0.0904-1.094-0.1676-2.1341-0.2323-3.0666
				c-0.1743-2.5173,1.1543-4.8924,3.3899-6.0623l3.3263-1.7404c0,0,3.4846,3.7335,7.9339,6.3629
				c2.9967,1.7711,1.815,3.9973,3.5242,7.4207c0.8377,1.6809,2.385,6.9612,2.2539,10.7451
				c-0.1062,3.0365,0.2221,7.2263-0.0452,10.2207c-0.2874,3.2046-1.4125,8.2219-3.1989,10.8984l-2.8348,4.5107
				c0,0,3.4543,1.4316,1.6225,2.723c-1.8366,1.2897-5.4631,2.6097-2.0911,4.9774c3.3745,2.3699,0.394,6.9171,0.394,6.9171
				s2.1238-0.1754,2.9377-3.0242c0.6812-2.3878-0.8395-5.3543-0.3482-6.6325c0.3959-1.033,3.1851-2.7141,3.1851-2.7141
				s-3.8321,2.5634-0.9815,4.9278c2.8484,2.3666,3.117,1.3241,1.5442,2.8778c-1.5754,1.5522,0.2245,5.2142,0.2245,5.2142
				s-0.2597-2.4161,1.5907-4.1595c3.0869-2.9079,1.0771-4.6828,0.8228-5.9885c-0.25-1.3055,1.7907-2.9715,4.2525-3.3544
				c2.5889-0.4001,5.207-4.1502,3.7091-6.8992c-1.1165-2.0481-1.4197-4.3232-0.8142-5.8551
				c1.3064-3.2755-2.9636-2.9135-1.2083-6.2593c0.5558-1.059,0.5791-2.2444,0.7322-3.1418l3.4783-1.2201
				c0,0,4.3971,3.6006,5.5423,2.3278c1.1442-1.2737,4.3011-0.0013,4.7664,0.5542C145.7143,43.761,142.5354,38.3855,140.9257,39.1015
				z M91.5039,40.0903c-0.5013,1.2324-3.7843,2.2001-4.1221,2.2968c0.1157-2.84,0.6271-5.8346,0.6271-5.8346l1.4919,0.7685
				C89.5008,37.3211,92.0356,38.7907,91.5039,40.0903z"/>
		</g>
		<g>
			<path d="M115.1455,63.1296c0,0,6.0918-9.8218,6.1439-14.1316c0.0475-4.3117-0.7218-11.5837-1.0143-15.1244
				c-0.2925-3.5404,1.5474-13.3422-10.9902-19.9546c0,0,6.6603,1.2116,11.325,7.7625c4.6647,6.5509-0.2561,10.755,3.8481,17.0704
				c2.0555,3.1599,2.9301,6.4725,3.086,9.4321c0.16,2.9569-2.6056,5.0863-3.4143,6.8147c-0.7106,1.5226,0.6387,6.2003-0.9203,8.2743
				c-1.9846,2.6396-4.6643,3.0672-4.8049,3.6201c-0.2491,0.9855,0.1617,2.7351,0.1098,3.183
				c-0.0516,0.4501,0.1007,5.5172,0.1007,5.5172s-2.092,1.6879-2.0654,0.8827c0.0225-0.8028,0.9902-4.179-0.2622-5.3244
				c-1.2524-1.1431-3.4494-1.8534-2.3283-3.3722c1.1213-1.5166,2.8118-1.5676,2.5143-2.9693
				C116.1822,63.4078,115.1455,63.1296,115.1455,63.1296z"/>
			<path d="M91.4003,15.8228c3.2906-3.0225,8.7083-2.3941,8.7083-2.3941c-1.3948,0.3526-5.9391,0.0136-7.2209,4.6358
				c-1.2799,4.6197,2.9449,4.3416-0.4014,6.579c-1.5221,1.0175-2.5401,1.6363-2.4378,2.8744
				c0.1025,1.2404,2.0885,1.4888,0.4125,2.8184c-3.5118,2.7857-0.8132,6.6155,0.8175,7.7739c0,0-5.9847-1.2891-5.3767-4.7243
				c0.6035-3.4347,2.9173-1.3102,1.8168-3.8923c-1.105-2.5815-1.9732-4.4707,1.6121-6.3708
				C92.9135,21.2233,89.852,17.2461,91.4003,15.8228z"/>
			<path d="M136.5006,53.3603c-0.2263,0.7166-2.2269-1.1586-2.2421-1.9099c-0.0327-1.6275,1.0701-4.8222,0.9854-4.9518
				c-1.2488-1.9332-5.0516-0.2733-4.7933-1.3559c0.9757-4.0897-1.441-6.54-1.441-6.54s6.4681-0.3325,6.8682,1.6374
				c0.8096,3.9859,4.9787,3.4653,4.8578,4.8993c0,0,0.1597,2.8927-3.0724,4.4011
				C136.4176,50.1218,136.5006,53.3603,136.5006,53.3603z"/>
			<path d="M83.9862,10.1977c0,0-7.9974,4.5823-7.6603,6.5154c0.3369,1.9308,0.1607,1.9454-1.6115,4.2301
				c-1.772,2.287-5.1048,2.9173-3.8675,4.9534c1.2374,2.0361,3.646,4.0496,0.1897,7.8843c-1.849,2.0537-2.3665,4.5931,0.2113,7.7653
				c2.5802,3.174-2.5124,6.2675-1.7743,8.7021c0.7331,2.4326,2.8279,1.9047,3.0757,7.0527c0.0946,1.9508,3.7735,4.677,2.0724,7.8474
				c-1.699,3.1704-3.1289,5.2495-3.1289,5.2495s-1.6529-2.7161-1.7113-3.4232c-0.0586-0.7095-3.9201-0.0335-3.9201-0.0335
				l-1.6088-2.1828c0,0,5.267,1.1688,4.5021-1.6207c-0.767-2.7871-1.9159-5.8996-1.9159-5.8996l0.5715-7.4737
				c0,0-3.3667,1.6444-2.9878,4.1087c0.3855,2.4636-1.2592,4.0902-1.7486,4.7184c-1.124,1.4591-6.1337,0.5067-6.1337,0.5067
				s6.1584-2.4099,5.288-4.2987c-0.8682-1.8892,1.5682-6.9018,1.5682-6.9018s-2.1271-2.0054-1.2365-5.6438
				c1.1199-4.5931,6.0499-3.2632,6.0499-3.2632l2.2169-1.3302l-0.2217-7.3159c0,0,0.652-8.7505,1.5519-10.5305
				c0.9042-1.7828,0.8226-3.1487,0.8226-3.1487s1.5499-2.8011,3.6151-3.6858C78.2603,12.097,83.9862,10.1977,83.9862,10.1977z"/>
			<path d="M84.7015,68.4284c0,0,1.1012-1.708,0.7641-3.6411c-0.2924-1.6594-1.7166-1.1225-2.588-2.5944
				c-0.1439-0.2411-0.2706-0.5367-0.374-0.9031c-0.7501-2.6108-2.1484-6.5946-2.09-5.8873
				c0.0586,0.7093,1.3131,9.1835-0.7472,10.3983c-5.2665,3.1081-3.281,7.7554-3.281,7.7554l3.1988-3.809
				c0,0-1.7206,2.2627-0.013,3.5459c1.712,1.2848,3.3326,5.7847,3.3326,5.7847s1.3955-2.5219,0.8048-5.3235
				C83.1221,70.9522,84.7015,68.4284,84.7015,68.4284z"/>
		</g>
	</g>
	<g id="Hand">
		<g>
			<path style="fill:#F5CBAB;" d="M13.022,145.4502c-2.6992-4.9985,0.4982-9.9646-0.7473-14.6978
				c-1.2456-4.7332-15.1417-22.4227-10.8781-27.4858c2.6572-3.1555,5.5556-2.7206,8.0132,0.4567
				c2.7176,3.5134,6.7296,8.1019,9.9647,14.3242c1.8764,3.6089,4.0805,12.2166,5.3559,10.712
				c1.3669-1.6126,2.079-8.5986,0.3737-16.9399c-1.9188-9.3858-8.164-28.4346-2.4496-32.4682
				c6.3525-4.484,8.8021,5.0654,9.5495,7.8056c0.7473,2.7403,3.0918,12.6938,3.8613,16.068
				c1.6193,7.0998,1.8684,17.8118,3.8613,16.3171c1.9929-1.4947,2.9894-1.2456,1.7438-11.9576
				c-1.2456-10.712-0.9965-13.2032-1.4947-17.9364c-0.4982-4.7332-3.8795-20.8073,3.8613-22.2959
				c6.477-1.2456,9.1373,8.203,9.591,18.0608c0.4331,9.4104,1.8435,13.5012,1.8684,24.1643
				c0.0162,6.993-0.8719,12.2067,1.8684,11.4594c2.7403-0.7474,3.2385-16.4417,4.9823-21.6731
				c1.7438-5.2314,3.7029-23.7085,11.4593-22.545c7.4735,1.121,5.4806,13.5768,3.7367,25.5344
				c-1.7438,11.9576-3.4876,16.6908-3.4876,21.6731s0.4982,23.9152,1.4947,25.4099c0.9965,1.4947,9.2173,9.9646,14.1996,11.9576
				c4.9823,1.9929,15.1961,13.4523,12.4558,18.9328c-2.7403,5.4806-11.5878,6.6957-22.4205-8.47
				c-2.4912-3.4876-7.7893,1.1035-22.4205-5.4806c-4.9823-2.242-9.4664-5.9788-14.4487-6.2279S26.4743,170.3619,13.022,145.4502z"/>
		</g>
		<g>
			<path style="fill:none;stroke:#000000;stroke-width:1.7;stroke-miterlimit:10;" d="M13.022,145.4502
				c-2.6992-4.9985,0.4982-9.9646-0.7473-14.6978c-1.2456-4.7332-14.2133-21.7683-10.8781-27.4858
				c2.3251-3.9859,5.5556-2.7206,8.0132,0.4567c2.7176,3.5134,6.7296,8.1019,9.9647,14.3242
				c1.8764,3.6089,4.0805,12.2166,5.3559,10.712c1.3669-1.6126,2.079-8.5986,0.3737-16.9399
				c-1.9188-9.3858-7.9862-28.932-1.9514-32.4682c6.5186-3.8197,8.3039,5.0654,9.0512,7.8056
				c0.7473,2.7403,3.0918,12.6938,3.8613,16.068c1.6193,7.0998,1.8684,17.8118,3.8613,16.3171
				c1.9929-1.4947,2.9894-1.2456,1.7438-11.9576c-1.2456-10.712-0.9965-13.2032-1.4947-17.9364
				c-0.4982-4.7332-3.8795-20.8073,3.8613-22.2959c6.477-1.2456,9.1373,8.203,9.591,18.0608
				c0.4331,9.4104,1.8435,13.5012,1.8684,24.1643c0.0162,6.993-0.8719,12.2067,1.8684,11.4594
				c2.7403-0.7474,3.2385-16.4417,4.9823-21.6731c1.7438-5.2314,3.7029-23.7085,11.4593-22.545
				c7.4735,1.121,5.4806,13.5768,3.7367,25.5344c-1.7438,11.9576-3.4876,16.6908-3.4876,21.6731s0.4982,23.9152,1.4947,25.4099
				c0.9965,1.4947,9.2173,9.9646,14.1996,11.9576c4.9823,1.9929,15.1961,13.4523,12.4558,18.9328
				c-2.7403,5.4806-11.5878,6.6957-22.4205-8.47c-2.4912-3.4876-7.7893,1.1035-22.4205-5.4806
				c-4.9823-2.242-9.4664-5.9788-14.4487-6.2279S26.4743,170.3619,13.022,145.4502z"/>
		</g>
	</g>
	<g id="Augenbinde">
		<path d="M71.092,26.1878c9.7641,4.0773,47.5303,3.1401,50.7125,0.6651c1.4947-1.1625-19.3306,10.8563-21.7814,12.1377
			c-4.0897,2.1382-22.114,2.6603-30.4275-0.4988C68.4331,38.0501,70.1475,25.7934,71.092,26.1878z"/>
		<path style="fill:#EF3B4F;stroke:#000000;stroke-width:0.83;stroke-miterlimit:10;" d="M71.092,23.195
			c9.8484,3.869,51.9028-1.7871,55.8669-1.053c2.9929,0.5542,2.0507,12.6366,1.5518,15.962
			c-0.0748,0.4988-6.0412,1.441-15.0198,0.7759c-1.4392-0.1066-3.6113-1.3263-5.1544-1.3302
			c-4.3582-0.0108-5.2392,1.1493-9.81,1.6073c-5.5386,0.5549-14.8207,0.7759-29.0973-0.1662
			C68.1884,38.909,69.5402,22.5853,71.092,23.195z"/>
		<path d="M127.8457,23.0288c-1.2193,2.3277-2.4624,3.3098-19.3899,5.1543c0,0,10.1818,0.9976,14.2042,1.1639
			c4.0224,0.1663-19.9339,4.5115-18.2265,4.9881c1.2431,0.347,2.8749,0.6294,6.6781,0.9498
			c1.5809,0.1332,3.1601,1.2774,4.5092,2.3756c1.6341,1.3302,3.2054,1.6488,3.2682,1.6627
			c0.7542,0.1663,9.2859,0.4767,9.6218-0.9976C130.506,29.5687,127.8457,23.0288,127.8457,23.0288z"/>
	</g>
</g>
<g>
</g>
<g>
</g>
<g>
</g>
<g>
</g>
<g>
</g>
<g>
</g>
</svg>
