<?xml version="1.0" encoding="iso-8859-1"?>
<!-- Generator: Adobe Illustrator 25.0.1, SVG Export Plug-In . SVG Version: 6.00 Build 0)  -->
<svg version="1.1" id="Layer_1" xmlns="http://www.w3.org/2000/svg" xmlns:xlink="http://www.w3.org/1999/xlink" x="0px" y="0px"
	 viewBox="0 0 192.4828 208.157" style="enable-background:new 0 0 192.4828 208.157;" xml:space="preserve">
<g>
	<g id="erdbebenwellen_1_">
		<g>
			<g id="elefant_seismische_wellen_4_">
				<g>
					
						<ellipse style="fill:none;stroke:#000000;stroke-width:0.7;stroke-miterlimit:10;" cx="58.4231" cy="192.2959" rx="38.1754" ry="7.3329"/>
					
						<ellipse style="fill:none;stroke:#000000;stroke-width:0.7;stroke-miterlimit:10;" cx="58.4231" cy="192.2959" rx="28.8147" ry="5.5349"/>
					
						<ellipse style="fill:none;stroke:#000000;stroke-width:0.7;stroke-miterlimit:10;" cx="58.4231" cy="192.2959" rx="19.2098" ry="3.6899"/>
					
						<ellipse style="fill:none;stroke:#000000;stroke-width:0.7;stroke-miterlimit:10;" cx="58.4231" cy="192.2959" rx="9.6049" ry="1.845"/>
				</g>
			</g>
		</g>
		<g>
			<g id="elefant_seismische_wellen_3_">
				<g>
					
						<ellipse style="fill:none;stroke:#000000;stroke-width:0.7;stroke-miterlimit:10;" cx="116.9503" cy="202.2721" rx="28.8147" ry="5.5349"/>
					
						<ellipse style="fill:none;stroke:#000000;stroke-width:0.7;stroke-miterlimit:10;" cx="116.9503" cy="202.2721" rx="19.2098" ry="3.6899"/>
					
						<ellipse style="fill:none;stroke:#000000;stroke-width:0.7;stroke-miterlimit:10;" cx="116.9503" cy="202.2721" rx="9.6049" ry="1.845"/>
				</g>
			</g>
		</g>
	</g>
	<g id="Maskottchen_2_">
		<g id="F&#xFC;sse_4_">
			<g>
				<path style="fill:#F5CBAB;" d="M52.0847,168.7176c-2.3792,2.6965-4.0859,3.9335-5.4235,4.5537s-3.7994,3.8278-1.4366,6.4701
					s6.0856,3.6392,6.5429,6.0274c0.4573,2.3882,0.4609,6.1283,3.4896,6.3843c2.8154,0.2379,5.1804,0.3336,6.7313,0.3073
					c2.3396-0.0397,2.1116-2.1711,0.2974-2.974c-1.5427-0.6828-2.8608-1.4862-3.0633-2.4486
					c-0.2025-0.9624-1.0268-7.3649-1.2293-8.3273c-0.2025-0.9624-0.119-4.4809-0.119-4.4809"/>
				<g>
					<path style="fill:none;stroke:#000000;stroke-width:0.7;stroke-miterlimit:10;" d="M52.0847,168.7176
						c-2.3792,2.6965-4.0859,3.9335-5.4235,4.5537s-3.7994,3.8278-1.4366,6.4701s6.0856,3.6392,6.5429,6.0274
						c0.4573,2.3882,0.4609,6.1283,3.4896,6.3843c2.8154,0.2379,5.1804,0.3336,6.7313,0.3073
						c2.3396-0.0397,2.1116-2.1711,0.2974-2.974c-1.5427-0.6828-2.8608-1.4862-3.0633-2.4486
						c-0.2025-0.9624-1.0268-7.3649-1.2293-8.3273c-0.2025-0.9624-0.119-4.4809-0.119-4.4809"/>
					<path style="fill:none;stroke:#000000;stroke-width:0.4;stroke-miterlimit:10;" d="M56.8432,189.5161
						c0.5006-0.4571,1.9946-0.5905,3.1843-0.1729c0.961,0.3373,1.7235,1.0341,1.6039,2.2101
						c-0.0339,0.3334-0.5056,0.9814-1.606,0.9368"/>
				</g>
			</g>
			<g>
				<path style="fill:#F5CBAB;" d="M112.7255,193.5608c0.1344,1.0629,0.9701,2.9793,1.1282,4.7567
					c0.1581,1.7774,0.6199,4.2842,3.3453,4.0418c2.7254-0.2424,3.2081-1.0816,5.2874-1.4258
					c2.0793-0.3442,5.6789-1.5004,7.6283-1.5146c1.2532-0.0091,1.7704-0.7095,1.98-1.2087
					c0.1253-0.2985,0.4145-0.4983,0.7358-0.5373c0.8565-0.1039,2.2534-0.4472,1.527-1.5774c0,0,1.5843-0.539,1.3885-1.3974
					c0,0,0.7118-0.5012,0.7232-0.8207c0,0,1.1103-0.4969,0.7284-1.6572c0,0,1.4698-1.3428-0.0168-2.4269
					c-0.6812-0.4968-0.3414,0.1896-1.8502,0.6821c-1.5088,0.4925-5.9202,1.92-8.9388,1.5515
					c-3.0186-0.3685-3.9384,0.0318-6.7192-2.5872"/>
				<g>
					<path style="fill:none;stroke:#000000;stroke-width:0.7;stroke-miterlimit:10;" d="M113.0332,194.2402
						c0.1344,1.0629,0.6624,2.2999,0.8205,4.0773c0.1581,1.7774,0.6199,4.2842,3.3453,4.0418
						c2.7254-0.2424,3.2081-1.0816,5.2874-1.4258c2.0793-0.3442,5.6789-1.5004,7.6283-1.5146
						c1.2532-0.0091,1.7704-0.7095,1.98-1.2087c0.1253-0.2985,0.4145-0.4983,0.7358-0.5373
						c0.8565-0.1039,2.2534-0.4472,1.527-1.5774c0,0,1.5843-0.539,1.3885-1.3974c0,0,0.7118-0.5012,0.7232-0.8207
						c0,0,1.1103-0.4969,0.7284-1.6572c0,0,1.4698-1.3428-0.0168-2.4269c-0.6812-0.4968-0.3414,0.1896-1.8502,0.6821
						c-1.5088,0.4925-5.9202,1.92-8.9388,1.5515c-3.0186-0.3685-4.5928-0.3877-7.3736-3.0067"/>
					<path style="fill:none;stroke:#000000;stroke-width:0.4;stroke-miterlimit:10;" d="M137.1977,192.2202
						c-0.6601-0.2598-0.2599-1.1314-2.9369,0.102"/>
					<path style="fill:none;stroke:#000000;stroke-width:0.4;stroke-miterlimit:10;" d="M136.4693,193.8774
						c-0.1817-0.7004-0.4135-1.5158-2.5586-0.5686"/>
					<path style="fill:none;stroke:#000000;stroke-width:0.4;stroke-miterlimit:10;" d="M135.7461,194.6981
						c-0.8602-0.7197-1.5352-0.6995-3.5118,0.3522"/>
					<path style="fill:none;stroke:#000000;stroke-width:0.4;stroke-miterlimit:10;" d="M134.3576,196.0956
						c-0.8611-0.2817-1.2631-0.3256-2.8799,0.296"/>
				</g>
			</g>
		</g>
		<g id="linker_Arm_3_">
			<path style="fill:#F5CBAB;" d="M143.1596,85.225c-0.0541-0.7388-3.0468-2.7549-4.4846-4.0546
				c-1.4379-1.2995-6.7211-2.4137-7.4252-2.5011c-1.2185-0.1514-7.3876-3.7312-9.0089-5.0303l0.071-0.0909
				c0,0-7.2963-5.155-9.1204-5.6309c-1.8241-0.4759-5.8688-10.5876-5.8688-10.5876l-5.6309,4.6395l-0.8327,4.2826
				c0,0,5.7498,7.7722,6.5033,8.1687c0.7534,0.3965,10.3497,4.9964,10.3497,4.9964l0.0363-0.0465
				c2.1469,1.2739,9.8747,4.223,10.7372,4.8107c0.9249,0.6305,3.1632,2.7783,4.5237,3.6581
				c0.7449,0.4816,1.4763,0.2536,2.2043,0.6041c0.6012,0.2894,1.2567,1.19,1.4185,1.2958c0.3575,0.2336-0.4771,1.0165,0.6716,1.4897
				c0.8877,0.3656,1.093-0.6097,1.093-0.6097c1.1973,0.6851,1.5172-1.1111,1.5172-1.1111c1.6712,1.1442,1.6353-1.6739,1.6353-1.6739
				C142.7771,88.9702,143.2135,85.964,143.1596,85.225z M141.3152,86.857l-1.08-1.2683l1.3179,0.2848L141.3152,86.857z"/>
			<g>
				<path style="fill:none;stroke:#000000;stroke-width:0.7;stroke-miterlimit:10;" d="M99.9669,63.0001
					c0.7138,4.3619,4.9554,8.6093,5.8886,9.8342c1.2689,1.6655,4.9171,3.093,11.5124,6.2846
					c1.5644,0.7571,10.1587,3.8209,10.8524,4.6995c0.8922,1.1301,3.4284,3.1411,4.7888,4.0207
					c0.7511,0.4857,1.5861,0.2954,2.3171,0.647c0.593,0.2852,1.0683,0.9191,1.0919,1.1089
					c0.0928,0.7466,0.4571,1.1231,0.7603,1.2749c0.8583,0.4299,1.1434-0.3317,1.1434-0.3317
					c1.1972,0.6851,1.4704-0.8273,1.4704-0.8273c1.307,0.7173,1.5733-2.0958,1.5733-2.0958
					c1.228,1.1362,1.8481-1.6514,1.7941-2.3902c-0.054-0.7388-3.0467-2.755-4.4845-4.0546s-7.3554-2.2086-8.0159-2.4673
					c-3.8622-1.5126-11.3212-7.4549-12.8677-8.3273c-2.991-1.6872-3.9654-1.725-5.3929-3.1525
					c-1.4275-1.4275-3.9654-7.5343-5.7102-10.1712"/>
				<path style="fill:none;stroke:#000000;stroke-width:0.4;stroke-miterlimit:10;" d="M141.6414,87.7515
					c-0.8882-0.4866,0.3578-1.5561-0.3651-2.1865"/>
				<path style="fill:none;stroke:#000000;stroke-width:0.4;stroke-miterlimit:10;" d="M138.8071,81.3183
					c0.4351,0.6535,2.0825,2.521,2.4787,3.1668c0.3962,0.6457,0.1699,1.7732-1.5558,0.6989s-1.3832-1.5718-2.7652-2.0918"/>
				<path style="fill:none;stroke:#000000;stroke-width:0.4;stroke-miterlimit:10;" d="M139.7427,89.5798
					c-0.9872-0.7744,0.2423-1.8371-0.2085-2.2107s-2.0744-1.6472-2.0744-1.6472"/>
				<path style="fill:none;stroke:#000000;stroke-width:0.4;stroke-miterlimit:10;" d="M138.3966,90.619
					c-1.1387-0.9767,1.1648-2.2404-2.1265-3.7869"/>
				<path style="fill:none;stroke:#000000;stroke-width:0.4;stroke-miterlimit:10;" d="M137.7286,83.5184
					c-0.5776,0.3087-1.185,1.5215-4.2112,0.1256"/>
				<path style="fill:none;stroke:#000000;stroke-width:0.4;stroke-miterlimit:10;" d="M140.0808,85.4009
					c0,0,1.332,1.0712,1.2673,1.9985"/>
			</g>
		</g>
		<path id="K&#xF6;rper_11_" style="stroke:#000000;stroke-width:0.846;stroke-miterlimit:10;" d="M63.5447,37.1061
			c1.2449-1.7982,11.8962-5.6309,11.8962-5.6309s0.5641,0.4508,1.7844,1.3879c0.2303,0.1768,0.2615-4.221,0.4999-4.0132
			c1.6018,1.396,1.0015,5.198,1.2585,5.382c2.1891,1.5678,4.8476,3.198,6.2914,3.0724c2.7361-0.2379,2.4982-3.093,2.4982-3.093
			s5.3533,3.4499,7.4946,4.1637c2.1413,0.7138,4.082,1.9272,5.4722,4.1637c1.3681,2.2008,7.0188,15.2271,7.0188,15.2271
			s-3.4499,3.212-5.9481,3.8068c0,0-2.4387,10.3497-1.3681,14.1565c1.2391,4.4056,1.9814,15.6238,1.606,19.1529
			c-0.3965,3.7275-0.5948,8.5653-3.8068,15.9409c0,0,7.6136,18.5581,8.0894,22.8407c0.5655,5.0896,0,12.9668,0.7138,16.8926
			c0.7138,3.9257,5.1154,17.8443,5.7102,20.4614s6.6321,16.4465,7.0782,17.7848c0,0-0.4164,2.5874-3.1525,4.1339
			s-4.0447,1.2788-4.0447,1.2788c-0.2379-0.3569-7.4946-14.8702-10.1118-19.5098c-2.6172-4.6395-7.1377-13.5617-7.1377-21.4131
			s-0.7138-10.5876-1.6655-12.8479c-0.9517-2.2603-5.2343-8.5653-5.2343-8.5653s-6.186,7.8515-7.4946,9.6359
			c-1.3086,1.7844-4.6395,8.3273-7.7325,12.61c-3.093,4.2826-9.3385,12.1044-10.5281,13.6509
			c-1.1896,1.5465-4.8774,6.7808-4.8774,6.7808s-6.2455,0.5948-6.9593-4.5503c0,0,5.4722-8.5058,8.2084-15.2866
			c2.7361-6.7808,7.0188-13.0858,10.5876-16.8926s7.2567-23.5545,7.2567-23.5545s-9.279-12.61-6.5429-22.3648
			c2.7361-9.7549,3.4499-11.0635,2.8551-15.465s-4.0447-11.1824-4.0447-11.1824l0.1586-2.3792c0,0-9.0015,1.1103-10.429-1.15
			c0,0,1.0614-14.5067,1.4275-16.734C60.8482,42.1025,62.4741,38.6526,63.5447,37.1061z"/>
		<g id="Surfbrett_4_">
			<g id="Surfbrett_5_">
				<path style="fill:#F3F1DF;" d="M192.4467,19.0087c0,0-10.0544,44.3903-95.4588,82.8283c0,0-21.1649,8.839-41.8487,13.9121
					C29.6746,121.9955,3.62,119.3081,3.62,119.3081l2.2821-9.0089l-5.045-6.4861c0,0,27.5078-31.2312,77.2363-54.2939
					C126.2561,27.1829,154.4891,15.8858,192.4467,19.0087z"/>
				<g>
					<defs>
						<path id="SVGID_1_" d="M192.4467,19.0087c0,0-10.0899,45.645-95.4944,84.0832c0,0-20.9979,6.2181-41.6816,11.2913
							C29.806,120.6295,3.62,119.3081,3.62,119.3081l2.2821-9.0089l-5.045-6.4861c0,0,27.5078-31.2312,77.2363-54.2939
							C126.2561,27.1829,154.4891,15.8858,192.4467,19.0087z"/>
					</defs>
					<clipPath id="SVGID_2_">
						<use xlink:href="#SVGID_1_"  style="overflow:visible;"/>
					</clipPath>
					<path style="clip-path:url(#SVGID_2_);fill:#F3F1DF;" d="M132.748,113.3024c-0.7205-1.0814,75.3148-57.6574,74.2332-87.9273
						c-0.7589-21.2594-67.4221-24.9051-61.621-2.8828c5.4503,20.69-9.6847,36.5463-28.5882,45.7653
						c-13.7842,6.7222-51.4105,57.1766-51.4105,57.1766L132.748,113.3024z"/>
					<g style="clip-path:url(#SVGID_2_);">
						<polygon style="fill:#35C0C8;" points="131.2103,39.6039 41.3171,23.7218 33.6935,43.4157 42.9057,47.8626 70.541,128.5439 
													"/>
						<path style="fill:#7BB24A;" d="M166.3331,54.8578c0,0-1.2697-21.9701-12.0693-34.0408c0,0-13.659,3.6532-14.4527,3.971
							l-70.4643,87.0338c0,0,40.87-15.776,55.1635-24.6704C138.8049,78.2575,163.1575,58.511,166.3331,54.8578z"/>
						<polygon style="fill:#7DCED3;" points="80.3877,34.7334 97.5407,76.2386 50.32,69.2307 45.34,54.7449 						"/>
						<path style="fill:none;stroke:#FFFFFF;stroke-width:3.0364;stroke-miterlimit:10;" d="M103.2577,68.827
							c0,0-3.3883-3.7056-9.9538-0.9529c-4.9229,2.0648-7.5939,8.8228-1.0049,15.8819c4.4469,4.7647,11.7521,4.4469,15.5645,2.3827
							c3.8116-2.0648,8.738-6.2232,9.3702-13.182c0.53-5.8238-1.271-13.5533-6.5647-18.5296
							c-4.5932-4.3184-15.8285-8.4701-26.6281-5.453c-10.8007,3.0175-17.153,11.594-19.3772,16.3588
							c-2.223,4.7647-8.1239,18.5387,0.1592,33.1937c4.1296,7.3058,7.0939,9.1586,7.0939,9.1586"/>
					</g>
				</g>
				<path style="fill:none;stroke:#000000;stroke-width:0.7085;stroke-miterlimit:10;" d="M192.0493,19.0602
					c0,0-10.0895,45.645-95.4944,84.0832c0,0-20.9986,6.2181-41.6816,11.2913c-25.4647,6.2463-51.6507,4.9247-51.6507,4.9247
					l2.2821-9.0087l-5.045-6.4867c0,0,27.507-31.2306,77.2363-54.2933C125.859,27.2342,154.0921,15.937,192.0493,19.0602z"/>
				<path d="M192.0493,19.0602c0,0-10.0895,45.645-95.4944,84.0832c0,0-20.9986,8.8607-41.6816,13.9339
					c-25.4647,6.2461-51.6507,2.2821-51.6507,2.2821s41.5608,5.886,102.4616-24.3843
					C153.2252,71.3456,184.2418,38.3995,192.0493,19.0602z"/>
			</g>
			<path id="Schatten_3_" style="stroke:#000000;stroke-width:0.846;stroke-miterlimit:10;" d="M69.0282,68.0509
				c0.0527-1.719,1.3887-3.1213,2.491-5.0761c1.1008-1.9552,7.57-14.1311,7.57-14.1311l-7.0099,1.0467l-8.5345-12.7843
				c-1.0707,1.5465-2.6965,4.9964-3.1723,7.8912c-0.3662,2.2272-1.4275,16.734-1.4275,16.734
				c0.7247,1.1475,3.401,1.4257,5.8607,1.422L63.1459,69.32l1.3703,19.4297l-0.5948,0.1247l-1.1836,11.6484l2.6467,8.8197
				l4.0687,1.1233c0,0,0.9585-5.4489,0.4899-6.5549c-0.4695-1.1056-1.4994-4.9479-1.7929-5.7626
				c-0.2943-0.8152-0.6202-2.9995-1.0901-4.105c-0.3866-0.9116-0.5304-4.1895-0.569-5.3159
				c0.1809-1.4639,1.2373-9.9538,1.6574-12.1089C68.6075,74.2571,68.9739,69.7696,69.0282,68.0509z"/>
		</g>
		<g id="rechter_Arm_6_">
			<path style="fill:#F5CBAB;stroke:#000000;stroke-width:0.7085;stroke-miterlimit:10;" d="M70.2259,113.0195
				c0,0-1.3365-0.6517-1.6174-0.836c-0.4292-0.2807-0.7744-0.6663-0.7744-0.6663c1.1436-0.0201,0.8107-2.0544,0.8107-2.0544
				s0.5086-1.5273,0.6567-1.8221c0.1485-0.2948,0.1366-2.4317-0.294-4.1703c-0.4299-1.7383-1.9768-4.7125-2.184-5.2514
				c-0.208-0.5391-0.7825-3.2746-0.8839-4.2821c-0.1017-1.0082-0.3718-4.7357-0.3581-6.2568
				c0.0216-2.3753,0.8098-7.6158,1.3484-11.1058c0.5386-3.4905-0.0816-5.8462-0.0018-6.5668c0.0802-0.7205,0.24-2.1623,0.7202-3.203
				c0.204-0.4422,0.5468-1.2377,0.8737-2.0068c0.0698-0.1641,0.8358-1.5886,0.3959-1.5299
				c-4.4611,0.5948-9.1594-0.5649-9.1594-0.5649c-0.0568,0.4786-0.1084,0.8916-0.1451,1.1456
				c-0.1509,1.033-0.6675,2.9688-0.6164,3.4727c0.051,0.5044-0.032,1.9632-0.3131,3.2131
				c-0.2811,1.2503-0.7208,7.2249-0.6505,10.1954c0.0705,2.971,0.9534,11.4591,1.4104,12.7112
				c0.4571,1.2517,0.3149,2.6154,0.2522,3.2576c-0.0623,0.6425,0.4219,1.4083,0.4378,2.0685
				c0.0156,0.6599-0.4332,3.0213-0.6189,4.2111c-0.1852,1.1893-0.7334,5.088-0.7961,5.7305
				c-0.0623,0.6425,0.3363,1.2451,0.5605,1.7065c0.2248,0.4607,0.3495,1.1864,0.8556,1.6692
				c0.2097,0.1997,0.8077,0.2435,0.8077,0.2435s0.917,0.5755,1.2689,0.6546c0.3511,0.0789,0.8225-0.1024,0.8225-0.1024
				s0.888,0.9793,1.3891,1.2151c0.5011,0.2358,2.3362,0.8332,2.3362,0.8332s0.9566,0.3995,1.1493-0.7267
				c0,0,1.3015,0.2313,1.693,0.1345C69.9918,114.2393,70.3301,113.7404,70.2259,113.0195z"/>
			<g>
				<path style="fill:none;stroke:#000000;stroke-width:0.4;stroke-miterlimit:10;" d="M68.7817,113.951
					c0,0-3.0591-1.0649-3.8994-1.7939c-0.3217-0.2787-0.93-3.7196-1.065-3.8672"/>
				<path style="fill:none;stroke:#000000;stroke-width:0.4;stroke-miterlimit:10;" d="M63.0521,112.7906
					c-0.4479-0.6547-0.744-2.4918-1.1632-4.2121"/>
				<path style="fill:none;stroke:#000000;stroke-width:0.4;stroke-miterlimit:10;" d="M60.9711,112.1544
					c-0.4467-0.6549-0.5315-3.185-0.9498-4.9057"/>
				<polyline style="fill:none;stroke:#000000;stroke-width:0.4;stroke-miterlimit:10;" points="61.0203,112.3264 59.9848,109.605 
					60.0555,107.5001 				"/>
				<path style="fill:none;stroke:#000000;stroke-width:0.4;stroke-miterlimit:10;" d="M66.7425,104.4405
					c0,0,0.0529,1.8838-0.125,2.8283c-0.0755,0.4011-0.5874,2.2526-0.0762,3.0005c0.5108,0.748,1.1564,1.1054,1.1564,1.1054"/>
			</g>
		</g>
		<g id="Gesicht_3_">
			<g>
				<path style="fill:#F5CBAB;stroke:#000000;stroke-width:0.5922;stroke-miterlimit:10;" d="M96.0643,10.268
					c0,0,0.3304,0.9612,0.5963,1.8103c0.4365,1.3963-0.0146,3.1344-0.1891,4.1234c-0.1744,0.9897-0.2474,1.3455-0.4218,2.3345
					c-0.1744,0.9897-0.4073,1.9203-0.524,2.9676c-0.1161,1.0465-1.8885,3.4454-2.1909,5.0344
					c-0.2728,1.4338-1.5339,1.8204-2.29,2.1116c-0.7562,0.2905-3.0633,0.1784-3.0633,0.1784s-0.58,1.8581-0.548,3.1398
					c0.032,1.2817,0.5204,3.4393-0.8758,4.4859c-1.0904,0.8183-3.2929-0.6453-6.3766-0.9365
					c-3.0836-0.2912-4.4653-3.454-4.4653-3.454s0.6255-0.5986,0.9744-1.6076c0.524-1.513,0.2336-2.8508,0.4073-3.7814
					c0.1752-0.9312-0.8722-11.0544-0.1737-12.7411c0.6977-1.6875,4.7703-6.8074,7.5628-7.5052
					c2.7924-0.6985,8.4357,0.3488,9.367,1.0466C94.7849,8.1733,96.0643,10.268,96.0643,10.268z"/>
				<g>
					<path d="M90.4499,28.7986c0,0,1.2325,0.2706,2.409-1.2491c0.4969-0.6418,0.8614-1.6274,1.378-2.8154
						c0.7931-1.8241,2.1017-5.2343,2.0184-7.087c-0.0713-1.5868,2.1126-4.5683-2.5423-8.8698c0,0,2.8295,0.2739,4.0901,3.6414
						c1.2607,3.3673-1.3495,4.6169-0.303,7.8182c0.5233,1.6012,0.5197,3.1336,0.2463,4.4295
						c-0.2718,1.2959-1.7116,1.8974-2.2602,2.5514c-0.4824,0.5759-0.4371,2.7524-1.3506,3.4688
						c-1.1614,0.9118-2.3684,0.7873-2.4927,1.0099c-0.2214,0.3975-1.7733,0.0666-1.8472,0.2545
						c-0.0741,0.1886-0.0396,2.1017-0.0396,2.1017s-1.4908,2.7632-1.3879,2.4189c0.1026-0.3446-0.1855-1.2253-0.5948-1.8637
						c-0.4092-0.6389-0.3341-0.9802-0.3569-1.8241c-0.0397-1.4672,0.5608-2.7314,0.5948-3.3706
						C88.046,28.7738,90.4499,28.7986,90.4499,28.7986z"/>
					<path style="fill:#CBA067;stroke:#000000;stroke-width:0.5922;stroke-miterlimit:10;" d="M68.6218,25.3052
						c0,0,0.647,1.6245,1.7021,1.576c0.564-0.0253,0.9844-0.2074,1.2579-0.3727c-0.3296,0.3258-0.627,0.926,0.3704,1.7043
						c0,0-1.5215,2.3636,0.0338,3.4494c1.5537,1.085,1.8104,1.4477,1.8104,1.4477s-0.6032-1.7021-0.166-2.2069
						c0.4373-0.5056,1.7796-1.8542,1.7796-1.8542s-1.1772,1.4331,0.2974,2.3736c0.9336,0.5956-0.2021,3.0952-0.2021,3.0952
						c2.887,0.5563,1.5038-4.2916,1.4439-4.8195c-0.0607-0.5263,0.7761-0.8483,0.7761-0.8483s0.2912,1.1995,0.8937,1.4846
						c0.5271,0.2497,0.65,0.7899,0.3335,1.6214c-0.7054,1.8527,1.0397,2.7255,1.0397,2.7255
						c-0.5233-1.9203,0.1744-2.4435,0.8729-3.404c0.5471-0.7523-1.0121-1.3355-0.156-2.8301c1.4861-2.5926-0.5071-2.8032-0.1521-4.4
						c0.262-1.1826,1.4784-1.4754,0.1482-4.2693c-0.1852-0.3896-0.0999-1.1819,0.0677-1.9948
						c0.1206,0.1191,1.7021,1.2841,2.5357,0.8845c0.8876-0.4265,1.1841-1.8312,1.0036-2.7932
						c-0.1806-0.9613,0.6585-2.0702,1.699-2.7025c1.0412-0.6316,2.3068-1.3425,2.4397-2.9285
						c0.1468-1.7443,1.8803-1.8796,1.8803-1.8796l2.0148-0.3527c0,0,0.3189,0.9628,2.3943,1.8857
						c1.5707,0.6985,2.3883,1.0973,2.8801,2.7056c0.242,0.7891,0.1359,2.3728-0.3698,3.6852
						c-1.4169,3.6731-1.1289,3.5753-1.5862,5.8291c-0.5552,2.7361-1.2689,3.2516-1.7051,4.3619
						c-0.4362,1.1103-0.3965,2.0224-0.9641,2.5301c-0.7347,0.6573-3.9251,1.8965-2.635,3.1682
						c1.2894,1.2717-0.3319,3.0276-0.3319,3.0276s1.5268-0.4949,2.0855-1.6721c0.4687-0.9851-0.0354-1.7367,0.2704-2.2553
						c0.2467-0.4181,1.2218-1.2211,1.2218-1.2211s-0.7514,0.4834,0.312,1.7159c1.0643,1.2325,1.2556,0.8006,0.4603,1.3593
						c-0.7954,0.5587-0.2812,2.2769-0.2812,2.2769s0.0629-1.0658,0.9928-1.6875c1.5491-1.0366,0.8061-1.9517,0.7914-2.5357
						c-0.0146-0.584,0.3128-1.178,1.407-1.1649c1.1519,0.0146,2.5589-1.4208,2.1093-2.721c-0.335-0.969-0.3012-1.9779,0.0737-2.5973
						c0.8031-1.3248,0.4926-2.8216,0.4926-2.8216s0.7899,0.1383,1.4477,0.3696c0.657,0.2313,0.9958,0.2904-0.0108,1.3939
						c-0.0845,0.0922-0.1606,0.1867-0.2305,0.282c-0.7592,1.045-0.5025,1.9157-0.5025,1.9157s1.0712-2.1385,2.0524-2.4328
						c0.9829-0.2936,1.679-0.2882,0.7085-1.3878c-0.9705-1.0996-1.8626-2.6511-1.8626-2.6511l-0.6732-0.7899
						c0,0,1.2564,0.7754,2.0663,0.8015c0.8106,0.0245,1.6928,0.2951,1.6336,0.6332c-0.0592,0.3388,0.4626-1.314-0.2874-1.6775
						c-0.7515-0.3635-2.0317-0.355-1.8934-1.1449c0.1383-0.7899-2.3713-1.7589-2.1001-2.6419
						c0.2697-0.8836,1.2833-1.3378,0.2928-2.3252c-0.9905-0.9874-1.5784-1.669-1.5784-1.669s0.9752-0.9829-0.0092-2.6664
						c-0.9852-1.6844-2.1777-4.1571-4.1894-4.6251c-2.0118-0.468-3.0545-0.3489-3.0545-0.3489s-0.0253-1.427,1.4954-1.3424
						c1.5207,0.0837,2.9554,2.1277,2.9554,2.1277s-0.0261-2.346-1.9871-3.0914c-2.2016-0.836-3.736,0.8968-3.736,0.8968
						s-1.8481-2.0671-3.0468-0.5325c-0.6501,0.8323-2.041-0.6524-3.4472-0.6769c-3.6415-0.0622-4.5383,2.9676-4.5383,2.9676
						s-1.5314-0.7454-2.7055,0.1744c-1.0512,0.8238-1.1764,2.1216-1.5914,2.6096c-0.4641,0.5471-1.4415,0.6885-2.24,1.7966
						c-0.7238,1.0051-0.5755,2.9438-0.5755,2.9438s-0.0415,0.0092-0.1106,0.0268c0.315,0.5733-0.2275,0.1983-0.3697,0.9137
						c-0.126,0.6355-0.3665,0.9713-0.6108,1.5707c0.0238-0.0615-0.3942,1.1664-0.3489,1.0473
						c-0.04,0.1091-0.232,0.7201-0.2643,0.8315c-0.0515,0.1775-0.1338,0.9589-0.0846,0.2159
						c-0.0492,0.7522,1.0743,0.9405,0.5487,1.5153c-0.0308,0.0338-0.0745,0.0629-0.1098,0.096
						c0.6285,0.8115,0.9151,0.1998,0.6086,1.0943c0.2251-0.0062-0.7861,1.221-0.7861,1.221s0.3542,1.314,0.0437,2.4236
						c-0.3096,1.108,0.415,2.2814,0.415,2.2814s0.7715,1.3033-0.8991,1.8196C69.4932,26.1228,68.6218,25.3052,68.6218,25.3052z
						 M80.7789,17.7563c0.2559-1.2233,0.6961-2.4836,0.6961-2.4836l0.5894,0.4411c0,0,0.992,0.8214,0.6669,1.3455
						C82.4257,17.5572,80.9318,17.7386,80.7789,17.7563z"/>
					<g>
						<path d="M84.4504,6.5335c1.646-1.0712,3.9489-0.4058,3.9489-0.4058c-0.6301,0.0515-2.575-0.4249-3.4664,1.4846
							c-0.8914,1.9103,0.9605,2.097-0.6532,2.8231c-0.733,0.3305-1.2195,0.5248-1.2656,1.0689
							c-0.0453,0.5448,0.7976,0.7969-0.0253,1.2518c-1.7251,0.952-0.8338,2.8085-0.2098,3.4287c0,0-2.502-0.9928-1.9887-2.4382
							c0.5118-1.4455,1.3609-0.3558,1.0704-1.5553c-0.2912-1.1995-0.5302-2.0809,1.1618-2.6442
							C84.7147,8.984,83.6758,7.0376,84.4504,6.5335z"/>
						<path d="M100.6548,25.4182c-0.0038-0.1084-0.2605-1.0727,0.7769-1.9495c0.335-0.2835,0.6047-0.5018,0.5839-0.5486
							c-0.4011-0.929-2.5865-0.9682-2.2138-1.2856c1.6175-1.3786,0.8729-3.491,0.8729-3.491s1.1519,1.6367,1.722,2.3107
							c0.5702,0.6747,1.4776,1.8472,1.3217,2.4612c0,0,0.75-0.2044-0.7715,0.2182
							C101.424,23.5555,100.6548,25.4182,100.6548,25.4182z"/>
						<path d="M80.5108,3.9924c0,0-3.7998,1.4046-3.7945,2.2676c0.0061,0.8614-0.0714,0.8552-1.0051,1.7166
							c-0.9344,0.8622-2.4252,0.8937-2.0363,1.8665c0.388,0.9721,0.1121,1.9218-1.6637,3.3334
							c-0.9513,0.7562-0.1867,1.9165,0.7001,3.4794c0.8875,1.563-1.5445,2.5335-1.4016,3.6423
							c0.1414,1.1088,1.0881,1.0313,0.8207,3.2812c-0.0999,0.8529,1.2963,2.3021,0.3288,3.5524
							c-0.9667,1.2509-1.7381,2.0478-1.7381,2.0478s-0.5179-1.2971-0.4918-1.6083c0.0261-0.3112-1.6982-0.2989-1.6982-0.2989
							l-0.5379-1.0635c0,0,2.3698,0.2928,2.2414-0.9712c-0.1291-1.2641-0.574-2.1008-0.574-2.1008l0.7907-3.1974
							c0,0-1.5799,0.4679-1.5937,1.5637c-0.0131,1.0958-0.8438,1.6813-1.1003,1.9188c-0.594,0.5502-2.6964-0.2267-2.6964-0.2267
							s2.8577-0.6009,2.6042-1.4792c-0.4142-1.4339,1.181-2.8777,1.181-2.8777s-0.408-1.0527,0.2413-2.5642
							c0.8199-1.9096,1.4577-1.8104,1.4577-1.8104l0.2006-1.9288c0,0-0.7277,0.4718-0.8814,0.7093
							c-0.252,0.3911-0.4649,1.8027-0.4649,1.8027s-0.6916-1.367-0.5887-2.3214c0.1038-0.9544,2.1469-1.7781,2.1469-1.7781
							s0.6424-2.4082,1.1611-3.1144c0.5218-0.7077,2.9776-1.8657,2.9776-1.8657s0.8752-1.1019,1.835-1.3347
							C77.8904,4.3996,80.5108,3.9924,80.5108,3.9924z"/>
					</g>
					<path d="M82.7372,26.6771c0,0,3.8167,1.8836,5.7201,1.8836s-0.2478,2.4387-0.2478,2.4387s-2.974-0.2379-3.9257-1.6655
						C83.332,27.9064,82.7372,26.6771,82.7372,26.6771z"/>
				</g>
			</g>
			<g>
				<path d="M96.7445,15.9613c0,0-0.2432,0.0471-0.5058,0.0023c-0.2934-0.0496-0.7794-0.3321-1.1034-0.324
					c-0.5133,0.0127-1.3941,0.2715-0.7398,0.8464c0,0,0.1081-0.2278,0.2776-0.3371c0.1982-0.1278,0.4737-0.1363,0.6579-0.0751
					c0.3423,0.1133,0.944,0.315,1.114,0.2598C96.6129,16.2781,96.7445,15.9613,96.7445,15.9613z"/>
				<path d="M88.971,22.6991c-0.1561-0.2428,0.5679,0.1333,1.4133,0.1247c0.4324-0.0044,1.5227-0.3355,1.6359-0.3141
					c0.1591,0.0304,0.6526,0.2959,0.6526,0.2959s0.6721-0.1172,0.7336-0.0394c0.133,0.1674,0.1329,0.6384,0.1233,0.8831
					c-0.0074,0.1871-0.4992,0.0955-0.9424,0.0057c-0.4432-0.0898-0.6192-0.1408-1.3325-0.1532
					C90.509,23.4889,89.3451,23.2811,88.971,22.6991z"/>
				<path d="M91.6164,24.8632l1.1064,0.3507c0,0-0.4815,0.6371-1.0415,0.4236c-0.56-0.2125-1.1615-0.6553-1.1615-0.6553
					L91.6164,24.8632z"/>
				<path style="fill:none;stroke:#000000;stroke-width:0.3384;stroke-miterlimit:10;" d="M94.3311,16.0845
					c0,0-0.3424,1.7142,0.1239,2.4238c0.456,0.6939,1.5181,1.5151,0.456,2.4632c-0.5056,0.4513-1.4226,0.3572-1.943,0.4315"/>
				<path d="M97.0332,14.8503c0,0-0.1275-0.7569-0.3042-0.8464c-0.1767-0.0903-0.6678-0.0416-0.9709,0.0487
					c-0.2789,0.0826-0.5635,0.1031-0.7919,0.3059c-0.0671,0.0599-0.1243,0.4541,0.1232,0.4621
					c0.3073,0.0099,0.7377-0.1113,1.1284-0.2577C96.4611,14.4715,97.0332,14.8503,97.0332,14.8503z"/>
				<path d="M92.5234,13.988c0.0731,0.0964,0.0433,0.1439-0.0305,0.2249c-0.4151,0.4507-0.719,0.2488-1.522-0.0352
					c-0.9992-0.3542-1.6809-0.7123-2.4917-0.6779c-0.9111,0.0379-2.4645,0.4757-2.4645,0.4757s1.6232-0.9801,2.7407-1.0066
					c1.1183-0.0265,1.73,0.224,2.2753,0.3611C91.5837,13.4681,92.3143,13.713,92.5234,13.988z"/>
				<path d="M91.4717,15.1313c0,0-0.4651,0.1089-0.7766,0.0428c-0.3847-0.0805-0.9036-0.2165-1.5961-0.2352
					c-1.0959-0.0296-1.3548,0.4437-2.2334,0.4223c-0.2321-0.0058-0.44,0.0244-0.44,0.0244s0.7082,0.2998,1.0199,0.2367
					c0.2591-0.052,0.8649-0.2393,1.2305-0.3135c0.0775-0.0112,0.1689-0.027,0.2427-0.0354c0.2951-0.0093,0.6828,0.0694,0.9804,0.122
					c0.2632,0.0782,0.5386,0.167,0.7293,0.1834c0.1548,0.0422,0.2523-0.012,0.2662-0.0142
					C91.3131,15.4848,91.4717,15.1313,91.4717,15.1313z"/>
				<path d="M89.0119,15.8298c0.0334,0.3217,0.333,0.5537,0.6696,0.5187c0.3365-0.0349,0.5821-0.3234,0.5488-0.6451
					c-0.0333-0.321-0.333-0.5528-0.6694-0.5179C89.2243,15.2204,88.9786,15.5088,89.0119,15.8298z"/>
				<path d="M94.8262,16.497c0,0.2781,0.2217,0.5044,0.495,0.5044c0.2726,0,0.4935-0.2263,0.4935-0.5044
					c0-0.2788-0.2209-0.5036-0.4935-0.5036C95.0479,15.9935,94.8262,16.2183,94.8262,16.497z"/>
				<path d="M87.924,21.4914c0,0-0.4065,0.3099-0.4366,0.5349c-0.0289,0.226,0.0034,1.0296,0.0034,1.0296
					s-0.2865-0.9981-0.2707-1.2842c0.0169-0.285,0.2861-0.3765,0.4627-0.4146c0.1764-0.0392,0.9229-0.2459,0.9229-0.2459
					L87.924,21.4914z"/>
				<g>
					<path d="M92.0134,17.6161c0,0.0516,0.0689,0.094,0.1519,0.094s0.1504-0.0423,0.1504-0.094c0-0.0517-0.0674-0.094-0.1504-0.094
						S92.0134,17.5643,92.0134,17.6161z"/>
					<ellipse cx="92.2287" cy="18.1463" rx="0.2138" ry="0.1331"/>
					<path d="M91.4197,17.544c0,0.0721,0.0925,0.13,0.2084,0.13c0.1152,0,0.2084-0.0579,0.2084-0.13
						c0-0.0712-0.0932-0.1292-0.2084-0.1292C91.5121,17.4148,91.4197,17.4727,91.4197,17.544z"/>
					<path d="M91.0109,18.0625c0,0.0517,0.0674,0.0932,0.1504,0.0932c0.0845,0,0.1519-0.0415,0.1519-0.0932
						c0-0.0516-0.0674-0.094-0.1519-0.094C91.0783,17.9685,91.0109,18.0108,91.0109,18.0625z"/>
					<path d="M91.4753,18.3655c0,0.0752,0.0994,0.1363,0.2201,0.1363c0.1213,0,0.2193-0.0611,0.2193-0.1363
						c0-0.0751-0.0979-0.1371-0.2193-0.1371C91.5748,18.2285,91.4753,18.2904,91.4753,18.3655z"/>
					<path d="M92.3439,18.5857c0,0.0525,0.0689,0.0939,0.1519,0.0939s0.1504-0.0415,0.1504-0.0939
						c0-0.0517-0.0674-0.094-0.1504-0.094S92.3439,18.5339,92.3439,18.5857z"/>
				</g>
				<g>
					<path d="M89.1147,17.8199c0.0175,0.0771,0.1432,0.1145,0.2815,0.0831c0.1375-0.0312,0.2347-0.1191,0.2172-0.1963
						c-0.0175-0.0771-0.1432-0.1145-0.2807-0.0833C89.1945,17.6548,89.0972,17.7428,89.1147,17.8199z"/>
					<path d="M88.5807,18.3507c0.0175,0.0772,0.1432,0.1145,0.2807,0.0833c0.1383-0.0314,0.2363-0.1194,0.2188-0.1966
						c-0.0175-0.0771-0.144-0.1143-0.2822-0.0829C88.6604,18.1856,88.5632,18.2735,88.5807,18.3507z"/>
					<path d="M87.292,18.6921c0.0175,0.0771,0.1425,0.1146,0.2807,0.0833c0.1382-0.0314,0.2355-0.1193,0.218-0.1964
						c-0.0175-0.0771-0.1432-0.1145-0.2814-0.0831C87.371,18.5272,87.2745,18.615,87.292,18.6921z"/>
					<path d="M87.9403,18.0133c0.0173,0.0764,0.1431,0.1138,0.2806,0.0825c0.1382-0.0314,0.2347-0.1191,0.2174-0.1956
						c-0.0175-0.0771-0.1425-0.1146-0.2807-0.0833C88.0201,17.8482,87.9228,17.9362,87.9403,18.0133z"/>
					<path d="M86.5934,17.7866c0.0175,0.0771,0.1425,0.1146,0.2807,0.0832c0.1382-0.0314,0.2347-0.1191,0.2172-0.1963
						c-0.0173-0.0764-0.1423-0.1139-0.2805-0.0826C86.6726,17.6224,86.5761,17.7101,86.5934,17.7866z"/>
					<path d="M89.9603,18.803c0.0175,0.0771,0.1432,0.1144,0.2807,0.0833c0.1383-0.0314,0.2364-0.1195,0.2189-0.1966
						c-0.0175-0.0771-0.1439-0.1135-0.2821-0.0821C90.0403,18.6387,89.9428,18.7259,89.9603,18.803z"/>
				</g>
				<path d="M94.6847,17.8786c0,0.0791,0.1151,0.1433,0.2569,0.1433c0.1402,0,0.2553-0.0642,0.2553-0.1433
					c0-0.0792-0.1151-0.1433-0.2553-0.1433C94.7998,17.7353,94.6847,17.7994,94.6847,17.8786z"/>
				<path d="M91.7097,20.6266c0.1604-0.4606,0.7812-0.3806,0.9619-0.1201c0.0536,0.0782-0.2546,0.0188-0.3607,0.0802
					C91.9343,20.804,91.565,21.0442,91.7097,20.6266z"/>
			</g>
		</g>
	</g>
</g>
<g>
</g>
<g>
</g>
<g>
</g>
<g>
</g>
<g>
</g>
<g>
</g>
</svg>
