<?xml version="1.0" encoding="iso-8859-1"?>
<!-- Generator: Adobe Illustrator 25.0.1, SVG Export Plug-In . SVG Version: 6.00 Build 0)  -->
<svg version="1.1" id="Layer_1" xmlns="http://www.w3.org/2000/svg" xmlns:xlink="http://www.w3.org/1999/xlink" x="0px" y="0px"
	 viewBox="0 0 128.804 139.175" style="enable-background:new 0 0 128.804 139.175;" xml:space="preserve">
<g>
	<g>
		<defs>
			<rect id="SVGID_1_" width="128.804" height="139.175"/>
		</defs>
		<clipPath id="SVGID_2_">
			<use xlink:href="#SVGID_1_"  style="overflow:visible;"/>
		</clipPath>
		<path style="clip-path:url(#SVGID_2_);fill:none;stroke:#231F20;stroke-width:0.449;stroke-miterlimit:10;" d="M40.1196,131.0375
			c-13.544,0-24.5031-2.105-24.5031-4.707c0-2.602,10.959-4.707,24.5031-4.707c13.5439,0,24.504,2.105,24.504,4.707
			C64.6235,128.9325,53.6635,131.0375,40.1196,131.0375z"/>
		
			<ellipse style="clip-path:url(#SVGID_2_);fill:none;stroke:#231F20;stroke-width:0.449;stroke-miterlimit:10;" cx="40.1198" cy="126.3306" rx="18.495" ry="3.553"/>
		<path style="clip-path:url(#SVGID_2_);fill:none;stroke:#231F20;stroke-width:0.449;stroke-miterlimit:10;" d="M40.1196,128.6988
			c-6.815,0-12.33-1.059-12.33-2.368s5.515-2.369,12.33-2.369c6.8149,0,12.33,1.06,12.33,2.369S46.9345,128.6988,40.1196,128.6988z"
			/>
		
			<ellipse style="clip-path:url(#SVGID_2_);fill:none;stroke:#231F20;stroke-width:0.449;stroke-miterlimit:10;" cx="40.1202" cy="126.3306" rx="6.165" ry="1.184"/>
		<path style="clip-path:url(#SVGID_2_);fill:none;stroke:#231F20;stroke-width:0.449;stroke-miterlimit:10;" d="M96.182,132.7337
			c0-1.963-8.272-3.552-18.4951-3.552c-10.223,0-18.495,1.589-18.495,3.552c0,1.964,8.272,3.553,18.495,3.553
			C87.91,136.2867,96.182,134.6977,96.182,132.7337z"/>
		<path style="clip-path:url(#SVGID_2_);fill:none;stroke:#231F20;stroke-width:0.449;stroke-miterlimit:10;" d="M77.6868,135.1024
			c-6.815,0-12.33-1.059-12.33-2.368c0-1.309,5.515-2.369,12.33-2.369c6.8149,0,12.33,1.06,12.33,2.369
			C90.0167,134.0434,84.5017,135.1024,77.6868,135.1024z"/>
		<path style="clip-path:url(#SVGID_2_);fill:none;stroke:#231F20;stroke-width:0.449;stroke-miterlimit:10;" d="M83.8516,132.7337
			c0-0.655-2.7581-1.184-6.165-1.184s-6.165,0.529-6.165,1.184s2.758,1.185,6.165,1.185S83.8516,133.3887,83.8516,132.7337z"/>
		<path style="clip-path:url(#SVGID_2_);fill:#F5CBAB;" d="M36.0515,111.1965c-1.528,1.73-2.623,2.525-3.4821,2.923
			c-0.858,0.398-2.439,2.457-0.921,4.152c1.516,1.697,3.906,2.337,4.2,3.87c0.293,1.532,0.295,3.934,2.239,4.098
			c1.807,0.152,3.326,0.214,4.32,0.196c1.502-0.025,1.356-1.393,0.191-1.908c-0.9901-0.438-1.836-0.954-1.965-1.572
			c-0.131-0.618-0.66-4.727-0.79-5.345c-0.129-0.618-0.076-2.876-0.076-2.876"/>
		<path style="clip-path:url(#SVGID_2_);fill:none;stroke:#231F20;stroke-width:0.449;stroke-miterlimit:10;" d="M36.0515,111.1965
			c-1.528,1.73-2.623,2.525-3.4821,2.923c-0.858,0.398-2.439,2.457-0.921,4.152c1.516,1.697,3.906,2.337,4.2,3.87
			c0.293,1.532,0.295,3.934,2.239,4.098c1.807,0.152,3.326,0.214,4.32,0.196c1.502-0.025,1.356-1.393,0.191-1.908
			c-0.9901-0.438-1.836-0.954-1.965-1.572c-0.131-0.618-0.66-4.727-0.79-5.345c-0.129-0.618-0.076-2.876-0.076-2.876"/>
		<path style="clip-path:url(#SVGID_2_);fill:none;stroke:#231F20;stroke-width:0.257;stroke-miterlimit:10;" d="M39.1054,124.546
			c0.322-0.293,1.2809-0.379,2.0439-0.111c0.617,0.217,1.106,0.664,1.0291,1.418c-0.0211,0.215-0.324,0.631-1.03,0.603"/>
		<path style="clip-path:url(#SVGID_2_);fill:#F5CBAB;" d="M74.975,127.1424c0.086,0.682,0.623,1.912,0.724,3.053
			c0.101,1.141,0.3979,2.75,2.1479,2.595c1.749-0.155,2.059-0.695,3.393-0.915c1.335-0.222,3.645-0.964,4.896-0.973
			c0.805-0.005,1.137-0.456,1.271-0.776c0.081-0.191,0.2661-0.32,0.472-0.345c0.55-0.066,1.447-0.287,0.981-1.012
			c0,0,1.017-0.346,0.892-0.897c0,0,0.456-0.322,0.463-0.527c0,0,0.713-0.319,0.468-1.064c0,0,0.943-0.862-0.011-1.558
			c-0.437-0.319-0.219,0.122-1.188,0.439c-0.968,0.316-3.799,1.232-5.737,0.995c-1.938-0.236-2.528,0.021-4.313-1.66"/>
		<path style="clip-path:url(#SVGID_2_);fill:none;stroke:#231F20;stroke-width:0.449;stroke-miterlimit:10;" d="M75.1726,127.5786
			c0.087,0.682,0.425,1.476,0.5259,2.617c0.1021,1.141,0.398,2.75,2.148,2.594c1.75-0.155,2.059-0.694,3.394-0.915
			c1.334-0.221,3.645-0.963,4.896-0.972c0.805-0.006,1.137-0.455,1.271-0.776c0.081-0.191,0.266-0.319,0.472-0.344
			c0.55-0.067,1.447-0.288,0.98-1.013c0,0,1.017-0.346,0.892-0.897c0,0,0.457-0.322,0.464-0.527c0,0,0.712-0.318,0.467-1.064
			c0,0,0.944-0.862-0.011-1.557c-0.436-0.319-0.218,0.121-1.187,0.437c-0.969,0.317-3.8,1.233-5.738,0.996
			c-1.937-0.236-2.947-0.249-4.732-1.93"/>
		<path style="clip-path:url(#SVGID_2_);fill:none;stroke:#231F20;stroke-width:0.257;stroke-miterlimit:10;" d="M90.6827,126.2817
			c-0.424-0.167-0.1671-0.726-1.885,0.066"/>
		<path style="clip-path:url(#SVGID_2_);fill:none;stroke:#231F20;stroke-width:0.257;stroke-miterlimit:10;" d="M90.2152,127.3455
			c-0.117-0.449-0.265-0.973-1.643-0.365"/>
		<path style="clip-path:url(#SVGID_2_);fill:none;stroke:#231F20;stroke-width:0.257;stroke-miterlimit:10;" d="M89.7513,127.8727
			c-0.552-0.462-0.985-0.449-2.254,0.226"/>
		<path style="clip-path:url(#SVGID_2_);fill:none;stroke:#231F20;stroke-width:0.257;stroke-miterlimit:10;" d="M88.86,128.7696
			c-0.553-0.181-0.811-0.209-1.8491,0.19"/>
		<path style="clip-path:url(#SVGID_2_);fill:#F5CBAB;" d="M94.5101,57.604c-0.035-0.473-1.956-1.768-2.879-2.602
			c-0.923-0.833-4.314-1.549-4.765-1.606c-0.783-0.097-4.743-2.394-5.784-3.228l0.046-0.059c0,0-4.683-3.309-5.8539-3.613
			c-1.171-0.306-3.767-6.797-3.767-6.797l-3.615,2.978l-0.534,2.75c0,0,3.691,4.988,4.174,5.242
			c0.4839,0.256,6.643,3.208,6.643,3.208l0.024-0.03c1.378,0.818,6.338,2.711,6.892,3.087c0.594,0.405,2.03,1.784,2.903,2.348
			c0.478,0.31,0.948,0.163,1.415,0.389c0.386,0.185,0.806,0.763,0.91,0.832c0.23,0.149-0.306,0.652,0.432,0.955
			c0.57,0.235,0.701-0.391,0.701-0.391c0.769,0.439,0.975-0.713,0.975-0.713c1.072,0.735,1.049-1.074,1.049-1.074
			C94.2641,60.008,94.5441,58.079,94.5101,57.604 M93.3261,58.652l-0.6931-0.814l0.845,0.183L93.3261,58.652z"/>
		<path style="clip-path:url(#SVGID_2_);fill:none;stroke:#231F20;stroke-width:0.449;stroke-miterlimit:10;" d="M66.7856,43.3391
			c0.4579,2.8,3.18,5.526,3.78,6.312c0.814,1.07,3.156,1.986,7.389,4.034c1.005,0.486,6.521,2.452,6.966,3.017
			c0.573,0.725,2.201,2.016,3.074,2.58c0.482,0.312,1.018,0.19,1.487,0.416c0.381,0.183,0.686,0.59,0.701,0.712
			c0.06,0.479,0.293,0.72,0.488,0.818c0.55,0.276,0.733-0.213,0.733-0.213c0.769,0.44,0.945-0.531,0.945-0.531
			c0.838,0.46,1.009-1.345,1.009-1.345c0.789,0.729,1.187-1.06,1.152-1.534c-0.0341-0.475-1.955-1.769-2.8781-2.603
			c-0.923-0.834-4.7209-1.417-5.146-1.584c-2.479-0.971-7.266-4.785-8.259-5.345c-1.92-1.083-2.545-1.107-3.461-2.023
			c-0.917-0.916-2.546-4.837-3.665-6.529"/>
		<path style="clip-path:url(#SVGID_2_);fill:none;stroke:#231F20;stroke-width:0.257;stroke-miterlimit:10;" d="M93.5355,59.2261
			c-0.571-0.312,0.2289-0.999-0.234-1.404"/>
		<path style="clip-path:url(#SVGID_2_);fill:none;stroke:#231F20;stroke-width:0.257;stroke-miterlimit:10;" d="M91.7158,55.0972
			c0.28,0.419,1.337,1.618,1.5909,2.033c0.254,0.414,0.109,1.137-0.999,0.448c-1.107-0.69-0.887-1.009-1.774-1.343"/>
		<path style="clip-path:url(#SVGID_2_);fill:none;stroke:#231F20;stroke-width:0.257;stroke-miterlimit:10;" d="M92.3163,60.4002
			c-0.6331-0.497,0.155-1.18-0.134-1.419c-0.289-0.24-1.331-1.057-1.331-1.057"/>
		<path style="clip-path:url(#SVGID_2_);fill:none;stroke:#231F20;stroke-width:0.257;stroke-miterlimit:10;" d="M91.4525,61.0671
			c-0.731-0.627,0.748-1.438-1.3651-2.431"/>
		<path style="clip-path:url(#SVGID_2_);fill:none;stroke:#231F20;stroke-width:0.257;stroke-miterlimit:10;" d="M91.0238,56.5095
			c-0.371,0.198-0.761,0.976-2.703,0.08"/>
		<path style="clip-path:url(#SVGID_2_);fill:none;stroke:#231F20;stroke-width:0.257;stroke-miterlimit:10;" d="M92.5338,57.7173
			c0,0,0.855,0.687,0.813,1.283"/>
		<path style="clip-path:url(#SVGID_2_);fill:#231F20;" d="M43.4074,26.7188c0.799-1.155,7.636-3.615,7.636-3.615
			s0.362,0.289,1.145,0.892c0.147,0.113,0.1671-2.71,0.321-2.577c1.028,0.897,0.643,3.337,0.807,3.455
			c1.4059,1.006,3.112,2.052,4.039,1.972c1.756-0.153,1.6039-1.986,1.6039-1.986s3.436,2.215,4.8101,2.674
			c1.374,0.457,2.62,1.236,3.512,2.672c0.879,1.412,4.506,9.773,4.506,9.773s-2.215,2.062-3.818,2.444c0,0-1.566,6.643-0.879,9.086
			c0.796,2.828,1.272,10.029,1.032,12.294c-0.255,2.393-0.382,5.498-2.444,10.232c0,0,4.887,11.912,5.192,14.661
			c0.363,3.267,0,8.323,0.458,10.843c0.459,2.52,3.284,11.454,3.666,13.134s4.257,10.556,4.543,11.415c0,0-0.267,1.661-2.0229,2.654
			c-1.757,0.992-2.596,0.82-2.596,0.82c-0.153-0.228-4.811-9.544-6.491-12.522c-1.68-2.978-4.581-8.705-4.581-13.744
			c0-5.04-0.459-6.797-1.069-8.247c-0.611-1.451-3.36-5.498-3.36-5.498s-3.971,5.04-4.811,6.185
			c-0.84,1.145-2.978,5.344-4.963,8.094c-1.986,2.749-5.995,7.77-6.758,8.762c-0.764,0.993-3.13,4.352-3.13,4.352
			s-4.01,0.382-4.468-2.921c0,0,3.513-5.459,5.269-9.811c1.757-4.353,4.505-8.4,6.796-10.843c2.291-2.444,4.657-15.119,4.657-15.119
			s-5.955-8.094-4.199-14.355c1.756-6.262,2.215-7.102,1.833-9.927s-2.597-7.178-2.597-7.178l0.103-1.527
			c0,0-5.779,0.713-6.6949-0.738c0,0,0.681-9.312,0.916-10.741C41.6774,29.9258,42.7204,27.7108,43.4074,26.7188"/>
		<path style="clip-path:url(#SVGID_2_);fill:none;stroke:#231F20;stroke-width:0.543;stroke-miterlimit:10;" d="M43.4074,26.7188
			c0.799-1.155,7.636-3.615,7.636-3.615s0.362,0.289,1.145,0.892c0.147,0.113,0.1671-2.71,0.321-2.577
			c1.028,0.897,0.643,3.337,0.807,3.455c1.4059,1.006,3.112,2.052,4.039,1.972c1.756-0.153,1.6039-1.986,1.6039-1.986
			s3.436,2.215,4.8101,2.674c1.374,0.457,2.62,1.236,3.512,2.672c0.879,1.412,4.506,9.773,4.506,9.773s-2.215,2.062-3.818,2.444
			c0,0-1.566,6.643-0.879,9.086c0.796,2.828,1.272,10.029,1.032,12.294c-0.255,2.393-0.382,5.498-2.444,10.232
			c0,0,4.887,11.912,5.192,14.661c0.363,3.267,0,8.323,0.458,10.843c0.459,2.52,3.284,11.454,3.666,13.134
			s4.257,10.556,4.543,11.415c0,0-0.267,1.661-2.0229,2.654c-1.757,0.992-2.596,0.82-2.596,0.82
			c-0.153-0.228-4.811-9.544-6.491-12.522c-1.68-2.978-4.581-8.705-4.581-13.744c0-5.04-0.459-6.797-1.069-8.247
			c-0.611-1.451-3.36-5.498-3.36-5.498s-3.971,5.04-4.811,6.185c-0.84,1.145-2.978,5.344-4.963,8.094
			c-1.986,2.749-5.995,7.77-6.758,8.762c-0.764,0.993-3.13,4.352-3.13,4.352s-4.01,0.382-4.468-2.921c0,0,3.513-5.459,5.269-9.811
			c1.757-4.353,4.505-8.4,6.796-10.843c2.291-2.444,4.657-15.119,4.657-15.119s-5.955-8.094-4.199-14.355
			c1.756-6.262,2.215-7.102,1.833-9.927s-2.597-7.178-2.597-7.178l0.103-1.527c0,0-5.779,0.713-6.6949-0.738
			c0,0,0.681-9.312,0.916-10.741C41.6774,29.9258,42.7204,27.7108,43.4074,26.7188z"/>
		<path style="clip-path:url(#SVGID_2_);fill:#F3F1DF;" d="M126.1456,15.1024c0,0-6.453,28.493-61.272,53.165
			c0,0-13.585,5.674-26.862,8.93c-16.344,4.009-33.068,2.284-33.068,2.284l1.465-5.782l-3.239-4.164
			c0,0,17.657-20.046,49.576-34.849C83.6595,20.3494,101.7816,13.0974,126.1456,15.1024"/>
	</g>
	<g>
		<defs>
			<path id="SVGID_3_" d="M52.747,34.687C20.826,49.49,3.17,69.535,3.17,69.535l3.238,4.164l-1.465,5.782
				c0,0,16.808,0.848,33.154-3.16c13.275-3.257,26.753-7.248,26.753-7.248c54.819-24.672,61.295-53.97,61.295-53.97
				c-2.674-0.221-5.268-0.329-7.817-0.329C97.654,14.775,80.267,21.923,52.747,34.687"/>
		</defs>
		<clipPath id="SVGID_4_">
			<use xlink:href="#SVGID_3_"  style="overflow:visible;"/>
		</clipPath>
		<path style="clip-path:url(#SVGID_4_);fill:#F3F1DF;" d="M87.827,75.6271c-0.463-0.694,48.342-37.009,47.6479-56.439
			c-0.486-13.646-43.276-15.985-39.553-1.85c3.498,13.281-6.216,23.458-18.35,29.376c-8.848,4.315-32.999,36.7-32.999,36.7
			L87.827,75.6271z"/>
		<polygon style="clip-path:url(#SVGID_4_);fill:#35C0C8;" points="86.8397,28.3216 29.1397,18.1276 24.2467,30.7686 
			30.1587,33.6226 47.8977,85.4096 		"/>
		<path style="clip-path:url(#SVGID_4_);fill:#7BB24A;" d="M109.3842,38.1126c0,0-0.815-14.102-7.747-21.85
			c0,0-8.768,2.345-9.277,2.55l-45.229,55.864c0,0,26.234-10.127,35.408-15.835C91.7152,53.1326,107.3452,40.4576,109.3842,38.1126"
			/>
		<polygon style="clip-path:url(#SVGID_4_);fill:#7DCED3;" points="54.2183,25.1956 65.2283,51.8366 34.9193,47.3386 
			31.7223,38.0406 		"/>
		<path style="clip-path:url(#SVGID_4_);fill:none;stroke:#FFFFFF;stroke-width:1.949;stroke-miterlimit:10;" d="M68.898,47.0794
			c0,0-2.175-2.379-6.389-0.612c-3.16,1.325-4.875,5.663-0.645,10.195c2.854,3.057,7.543,2.854,9.9901,1.529
			c2.447-1.326,5.6089-3.995,6.015-8.462c0.34-3.737-0.816-8.699-4.214-11.893c-2.949-2.772-10.16-5.437-17.092-3.501
			c-6.933,1.937-11.01,7.443-12.438,10.501c-1.426,3.059-5.214,11.899,0.102,21.306c2.651,4.69,4.554,5.878,4.554,5.878"/>
	</g>
	<g>
		<defs>
			<rect id="SVGID_5_" width="128.804" height="139.175"/>
		</defs>
		<clipPath id="SVGID_6_">
			<use xlink:href="#SVGID_5_"  style="overflow:visible;"/>
		</clipPath>
		<path style="clip-path:url(#SVGID_6_);fill:none;stroke:#231F20;stroke-width:0.454;stroke-miterlimit:10;" d="M125.8905,15.135
			c0,0-6.476,29.299-61.295,53.971c0,0-13.478,3.991-26.754,7.248c-16.346,4.009-33.153,3.161-33.153,3.161l1.465-5.783
			l-3.239-4.163c0,0,17.656-20.047,49.576-34.85C83.4055,20.382,101.5265,13.13,125.8905,15.135z"/>
		<path style="clip-path:url(#SVGID_6_);fill:#231F20;" d="M125.8905,15.135c0,0-6.476,29.299-61.295,53.971
			c0,0-13.478,5.687-26.754,8.944c-16.346,4.009-33.153,1.465-33.153,1.465s26.676,3.778,65.767-15.652
			C100.9715,48.696,120.8795,27.549,125.8905,15.135"/>
		<path style="clip-path:url(#SVGID_6_);fill:#231F20;" d="M46.927,46.5811c0.034-1.103,0.892-2.003,1.599-3.258
			c0.707-1.255,4.8589-9.07,4.8589-9.07l-4.5,0.672l-5.477-8.207c-0.688,0.993-1.731,3.208-2.037,5.065
			c-0.235,1.43-0.917,10.742-0.917,10.742c0.466,0.736,2.183,0.915,3.762,0.913l-1.0649,3.958l0.8799,12.471l-0.382,0.08
			l-0.76,7.477l1.699,5.661l2.612,0.721c0,0,0.615-3.498,0.314-4.207c-0.301-0.71-0.962-3.176-1.151-3.699
			c-0.189-0.524-0.398-1.926-0.7-2.635c-0.247-0.585-0.34-2.689-0.364-3.412c0.116-0.94,0.794-6.389,1.063-7.773
			C46.657,50.5641,46.892,47.6841,46.927,46.5811"/>
		<path style="clip-path:url(#SVGID_6_);fill:none;stroke:#231F20;stroke-width:0.543;stroke-miterlimit:10;" d="M46.927,46.5811
			c0.034-1.103,0.892-2.003,1.599-3.258c0.707-1.255,4.8589-9.07,4.8589-9.07l-4.5,0.672l-5.477-8.207
			c-0.688,0.993-1.731,3.208-2.037,5.065c-0.235,1.43-0.917,10.742-0.917,10.742c0.466,0.736,2.183,0.915,3.762,0.913l-1.0649,3.958
			l0.8799,12.471l-0.382,0.08l-0.76,7.477l1.699,5.661l2.612,0.721c0,0,0.615-3.498,0.314-4.207
			c-0.301-0.71-0.962-3.176-1.151-3.699c-0.189-0.524-0.398-1.926-0.7-2.635c-0.247-0.585-0.34-2.689-0.364-3.412
			c0.116-0.94,0.794-6.389,1.063-7.773C46.657,50.5641,46.892,47.6841,46.927,46.5811z"/>
		<path style="clip-path:url(#SVGID_6_);fill:#F5CBAB;" d="M47.6954,75.4453c0,0-0.858-0.419-1.038-0.537
			c-0.276-0.18-0.497-0.427-0.497-0.427c0.734-0.013,0.52-1.319,0.52-1.319s0.327-0.98,0.422-1.17
			c0.096-0.189,0.087-1.561-0.189-2.676c-0.276-1.116-1.269-3.025-1.402-3.371c-0.133-0.346-0.502-2.102-0.567-2.749
			c-0.066-0.647-0.239-3.039-0.23-4.016c0.014-1.525,0.52-4.888,0.865-7.128c0.346-2.241-0.052-3.753-0.001-4.215
			c0.051-0.462,0.154-1.389,0.463-2.056c0.131-0.284,0.351-0.795,0.56-1.288c0.045-0.106,0.537-1.02,0.254-0.982
			c-2.863,0.381-5.878-0.362-5.878-0.362c-0.037,0.306-0.07,0.571-0.094,0.734c-0.097,0.663-0.428,1.906-0.396,2.23
			c0.033,0.323-0.02,1.26-0.2,2.062c-0.181,0.802-0.463,4.637-0.418,6.544c0.045,1.907,0.612,7.355,0.905,8.159
			c0.294,0.803,0.203,1.678,0.163,2.091c-0.041,0.412,0.271,0.904,0.28,1.327c0.011,0.424-0.278,1.94-0.397,2.703
			c-0.119,0.763-0.471,3.266-0.511,3.678c-0.04,0.413,0.216,0.8,0.36,1.097c0.144,0.295,0.224,0.761,0.549,1.07
			c0.135,0.129,0.519,0.157,0.519,0.157s0.588,0.37,0.813,0.42c0.226,0.051,0.529-0.066,0.529-0.066s0.57,0.629,0.891,0.78
			c0.322,0.152,1.5,0.535,1.5,0.535s0.614,0.256,0.738-0.466c0,0,0.835,0.148,1.0861,0.086
			C47.5453,76.2283,47.7623,75.9083,47.6954,75.4453"/>
		<path style="clip-path:url(#SVGID_6_);fill:none;stroke:#231F20;stroke-width:0.454;stroke-miterlimit:10;" d="M47.6954,75.4453
			c0,0-0.858-0.419-1.038-0.537c-0.276-0.18-0.497-0.427-0.497-0.427c0.734-0.013,0.52-1.319,0.52-1.319s0.327-0.98,0.422-1.17
			c0.096-0.189,0.087-1.561-0.189-2.676c-0.276-1.116-1.269-3.025-1.402-3.371c-0.133-0.346-0.502-2.102-0.567-2.749
			c-0.066-0.647-0.239-3.039-0.23-4.016c0.014-1.525,0.52-4.888,0.865-7.128c0.346-2.241-0.052-3.753-0.001-4.215
			c0.051-0.462,0.154-1.389,0.463-2.056c0.131-0.284,0.351-0.795,0.56-1.288c0.045-0.106,0.537-1.02,0.254-0.982
			c-2.863,0.381-5.878-0.362-5.878-0.362c-0.037,0.306-0.07,0.571-0.094,0.734c-0.097,0.663-0.428,1.906-0.396,2.23
			c0.033,0.323-0.02,1.26-0.2,2.062c-0.181,0.802-0.463,4.637-0.418,6.544c0.045,1.907,0.612,7.355,0.905,8.159
			c0.294,0.803,0.203,1.678,0.163,2.091c-0.041,0.412,0.271,0.904,0.28,1.327c0.011,0.424-0.278,1.94-0.397,2.703
			c-0.119,0.763-0.471,3.266-0.511,3.678c-0.04,0.413,0.216,0.8,0.36,1.097c0.144,0.295,0.224,0.761,0.549,1.07
			c0.135,0.129,0.519,0.157,0.519,0.157s0.588,0.37,0.813,0.42c0.226,0.051,0.529-0.066,0.529-0.066s0.57,0.629,0.891,0.78
			c0.322,0.152,1.5,0.535,1.5,0.535s0.614,0.256,0.738-0.466c0,0,0.835,0.148,1.0861,0.086
			C47.5453,76.2283,47.7623,75.9083,47.6954,75.4453z"/>
		<path style="clip-path:url(#SVGID_6_);fill:none;stroke:#231F20;stroke-width:0.257;stroke-miterlimit:10;" d="M46.7684,76.0433
			c0,0-1.9641-0.684-2.5031-1.152c-0.206-0.179-0.597-2.387-0.683-2.482"/>
		<path style="clip-path:url(#SVGID_6_);fill:none;stroke:#231F20;stroke-width:0.257;stroke-miterlimit:10;" d="M43.0908,75.298
			c-0.287-0.42-0.478-1.599-0.747-2.704"/>
		<path style="clip-path:url(#SVGID_6_);fill:none;stroke:#231F20;stroke-width:0.257;stroke-miterlimit:10;" d="M41.7551,74.8899
			c-0.286-0.42-0.341-2.044-0.609-3.149"/>
		<polyline style="clip-path:url(#SVGID_6_);fill:none;stroke:#231F20;stroke-width:0.257;stroke-miterlimit:10;" points="
			41.7871,75.0003 41.1221,73.2533 41.1681,71.9023 		"/>
		<path style="clip-path:url(#SVGID_6_);fill:none;stroke:#231F20;stroke-width:0.257;stroke-miterlimit:10;" d="M45.4596,69.9386
			c0,0,0.034,1.209-0.08,1.815c-0.048,0.258-0.377,1.446-0.049,1.926c0.328,0.481,0.742,0.71,0.742,0.71"/>
		<path style="clip-path:url(#SVGID_6_);fill:#F5CBAB;" d="M64.2808,9.4916c0,0,0.212,0.617,0.383,1.162
			c0.279,0.896-0.01,2.012-0.122,2.647s-0.159,0.863-0.271,1.499c-0.111,0.634-0.261,1.231-0.336,1.904
			c-0.074,0.671-1.212,2.212-1.406,3.232c-0.176,0.92-0.985,1.168-1.47,1.355s-1.966,0.115-1.966,0.115s-0.373,1.192-0.352,2.015
			c0.021,0.823,0.334,2.208-0.562,2.88c-0.701,0.525-2.114-0.415-4.094-0.602c-1.978-0.187-2.866-2.217-2.866-2.217
			s0.402-0.384,0.626-1.032c0.336-0.971,0.15-1.83,0.262-2.427s-0.56-7.095-0.112-8.178c0.448-1.083,3.062-4.37,4.854-4.818
			c1.793-0.448,5.415,0.225,6.013,0.672C63.4598,8.1466,64.2808,9.4916,64.2808,9.4916"/>
		<path style="clip-path:url(#SVGID_6_);fill:none;stroke:#231F20;stroke-width:0.38;stroke-miterlimit:10;" d="M64.2808,9.4916
			c0,0,0.212,0.617,0.383,1.162c0.279,0.896-0.01,2.012-0.122,2.647s-0.159,0.863-0.271,1.499c-0.111,0.634-0.261,1.231-0.336,1.904
			c-0.074,0.671-1.212,2.212-1.406,3.232c-0.176,0.92-0.985,1.168-1.47,1.355s-1.966,0.115-1.966,0.115s-0.373,1.192-0.352,2.015
			c0.021,0.823,0.334,2.208-0.562,2.88c-0.701,0.525-2.114-0.415-4.094-0.602c-1.978-0.187-2.866-2.217-2.866-2.217
			s0.402-0.384,0.626-1.032c0.336-0.971,0.15-1.83,0.262-2.427s-0.56-7.095-0.112-8.178c0.448-1.083,3.062-4.37,4.854-4.818
			c1.793-0.448,5.415,0.225,6.013,0.672C63.4598,8.1466,64.2808,9.4916,64.2808,9.4916z"/>
		<path style="clip-path:url(#SVGID_6_);fill:#231F20;" d="M60.6771,21.3863c0,0,0.791,0.174,1.546-0.802
			c0.319-0.412,0.554-1.045,0.884-1.807c0.5099-1.171,1.35-3.36,1.296-4.549c-0.046-1.018,1.356-2.932-1.632-5.693
			c0,0,1.816,0.175,2.626,2.337c0.808,2.161-0.867,2.963-0.195,5.018c0.336,1.028,0.333,2.011,0.158,2.843
			c-0.174,0.832-1.098,1.218-1.451,1.638c-0.309,0.37-0.28,1.767-0.866,2.227c-0.747,0.585-1.521,0.505-1.601,0.647
			c-0.141,0.256-1.138,0.044-1.185,0.164c-0.048,0.122-0.025,1.349-0.025,1.349s-0.958,1.774-0.8911,1.553
			c0.066-0.221-0.12-0.787-0.382-1.196c-0.263-0.411-0.215-0.629-0.229-1.172c-0.025-0.941,0.36-1.752,0.382-2.163
			C59.1341,21.3703,60.6771,21.3863,60.6771,21.3863"/>
		<path style="clip-path:url(#SVGID_6_);fill:#CB9F67;" d="M46.6666,19.1442c0,0,0.414,1.043,1.092,1.011
			c0.362-0.016,0.632-0.133,0.808-0.239c-0.212,0.209-0.403,0.595,0.237,1.094c0,0-0.977,1.517,0.021,2.214
			c0.998,0.696,1.163,0.929,1.163,0.929s-0.387-1.092-0.107-1.416c0.281-0.324,1.143-1.19,1.143-1.19s-0.756,0.919,0.19,1.523
			c0.599,0.382-0.129,1.987-0.129,1.987c1.853,0.357,0.964-2.755,0.927-3.094c-0.04-0.337,0.498-0.544,0.498-0.544
			s0.187,0.77,0.574,0.952c0.337,0.161,0.416,0.508,0.213,1.042c-0.452,1.189,0.668,1.749,0.668,1.749
			c-0.336-1.233,0.112-1.569,0.56-2.185c0.351-0.482-0.65-0.857-0.1-1.817c0.954-1.663-0.325-1.799-0.098-2.824
			c0.168-0.759,0.949-0.947,0.0959-2.74c-0.12-0.25-0.065-0.759,0.0421-1.281c0.078,0.077,1.093,0.825,1.628,0.568
			c0.57-0.274,0.76-1.176,0.644-1.793c-0.115-0.617,0.423-1.329,1.091-1.734c0.668-0.406,1.48-0.862,1.566-1.88
			c0.094-1.12,1.207-1.207,1.207-1.207l1.293-0.226c0,0,0.205,0.618,1.537,1.211c1.008,0.448,1.534,0.704,1.849,1.736
			c0.155,0.507,0.087,1.524-0.237,2.366c-0.91,2.357-0.725,2.294-1.019,3.741c-0.356,1.756-0.814,2.087-1.094,2.8
			c-0.28,0.713-0.255,1.298-0.619,1.624c-0.472,0.422-2.519,1.217-1.691,2.033c0.827,0.817-0.213,1.944-0.213,1.944
			s0.979-0.318,1.339-1.074c0.301-0.631-0.0229-1.114,0.1721-1.447c0.159-0.268,0.785-0.783,0.785-0.783s-0.482,0.31,0.201,1.101
			s0.806,0.513,0.295,0.872c-0.5099,0.359-0.181,1.461-0.181,1.461s0.041-0.683,0.638-1.083c0.993-0.664,0.517-1.252,0.508-1.627
			s0.2-0.756,0.903-0.747c0.739,0.009,1.642-0.913,1.353-1.748c-0.215-0.622-0.193-1.269,0.048-1.667
			c0.515-0.85,0.316-1.811,0.316-1.811s0.507,0.089,0.93,0.238c0.421,0.148,0.638,0.186-0.008,0.894
			c-0.054,0.059-0.103,0.12-0.148,0.181c-0.487,0.671-0.322,1.23-0.322,1.23s0.688-1.373,1.317-1.562
			c0.631-0.188,1.078-0.185,0.455-0.89c-0.623-0.706-1.195-1.702-1.195-1.702l-0.433-0.507c0,0,0.807,0.498,1.327,0.514
			c0.52,0.016,1.086,0.19,1.048,0.407c-0.038,0.218,0.297-0.844-0.184-1.077c-0.483-0.233-1.305-0.227-1.215-0.734
			c0.088-0.508-1.522-1.129-1.348-1.697c0.173-0.567,0.823-0.858,0.187-1.492c-0.635-0.634-1.013-1.071-1.013-1.071
			s0.627-0.631-0.006-1.712c-0.632-1.081-1.397-2.668-2.688-2.968c-1.292-0.301-1.961-0.224-1.961-0.224s-0.016-0.917,0.959-0.862
			c0.977,0.053,1.897,1.365,1.897,1.365s-0.016-1.505-1.275-1.984c-1.413-0.536-2.3979,0.576-2.3979,0.576s-1.187-1.327-1.956-0.342
			c-0.4171,0.534-1.31-0.419-2.212-0.434c-2.338-0.04-2.913,1.905-2.913,1.905s-0.983-0.479-1.737,0.111
			c-0.674,0.529-0.755,1.362-1.0211,1.676c-0.298,0.351-0.926,0.441-1.438,1.152c-0.465,0.646-0.369,1.89-0.369,1.89
			s-0.027,0.006-0.072,0.017c0.202,0.368-0.145,0.128-0.237,0.587c-0.08,0.408-0.235,0.623-0.392,1.008
			c0.0161-0.04-0.253,0.749-0.224,0.672c-0.026,0.07-0.149,0.463-0.1689,0.534c-0.0341,0.114-0.0861,0.615-0.0551,0.139
			c-0.031,0.483,0.69,0.603,0.353,0.972c-0.02,0.022-0.049,0.04-0.071,0.062c0.403,0.521,0.587,0.128,0.39,0.702
			c0.145-0.004-0.504,0.784-0.504,0.784s0.227,0.844,0.028,1.555c-0.199,0.712,0.266,1.465,0.266,1.465s0.495,0.837-0.577,1.168
			C47.2256,19.6692,46.6666,19.1442,46.6666,19.1442 M54.4697,14.2982c0.1639-0.785,0.446-1.594,0.446-1.594l0.379,0.283
			c0,0,0.637,0.527,0.428,0.864C55.5266,14.1702,54.5676,14.2862,54.4697,14.2982"/>
		<path style="clip-path:url(#SVGID_6_);fill:none;stroke:#231F20;stroke-width:0.38;stroke-miterlimit:10;" d="M46.6666,19.1442
			c0,0,0.414,1.043,1.092,1.011c0.362-0.016,0.632-0.133,0.808-0.239c-0.212,0.209-0.403,0.595,0.237,1.094
			c0,0-0.977,1.517,0.021,2.214c0.998,0.696,1.163,0.929,1.163,0.929s-0.387-1.092-0.107-1.416c0.281-0.324,1.143-1.19,1.143-1.19
			s-0.756,0.919,0.19,1.523c0.599,0.382-0.129,1.987-0.129,1.987c1.853,0.357,0.964-2.755,0.927-3.094
			c-0.04-0.337,0.498-0.544,0.498-0.544s0.187,0.77,0.574,0.952c0.337,0.161,0.416,0.508,0.213,1.042
			c-0.452,1.189,0.668,1.749,0.668,1.749c-0.336-1.233,0.112-1.569,0.56-2.185c0.351-0.482-0.65-0.857-0.1-1.817
			c0.954-1.663-0.325-1.799-0.098-2.824c0.168-0.759,0.949-0.947,0.0959-2.74c-0.12-0.25-0.065-0.759,0.0421-1.281
			c0.078,0.077,1.093,0.825,1.628,0.568c0.57-0.274,0.76-1.176,0.644-1.793c-0.115-0.617,0.423-1.329,1.091-1.734
			c0.668-0.406,1.48-0.862,1.566-1.88c0.094-1.12,1.207-1.207,1.207-1.207l1.293-0.226c0,0,0.205,0.618,1.537,1.211
			c1.008,0.448,1.534,0.704,1.849,1.736c0.155,0.507,0.087,1.524-0.237,2.366c-0.91,2.357-0.725,2.294-1.019,3.741
			c-0.356,1.756-0.814,2.087-1.094,2.8c-0.28,0.713-0.255,1.298-0.619,1.624c-0.472,0.422-2.519,1.217-1.691,2.033
			c0.827,0.817-0.213,1.944-0.213,1.944s0.979-0.318,1.339-1.074c0.301-0.631-0.0229-1.114,0.1721-1.447
			c0.159-0.268,0.785-0.783,0.785-0.783s-0.482,0.31,0.201,1.101s0.806,0.513,0.295,0.872c-0.5099,0.359-0.181,1.461-0.181,1.461
			s0.041-0.683,0.638-1.083c0.993-0.664,0.517-1.252,0.508-1.627s0.2-0.756,0.903-0.747c0.739,0.009,1.642-0.913,1.353-1.748
			c-0.215-0.622-0.193-1.269,0.048-1.667c0.515-0.85,0.316-1.811,0.316-1.811s0.507,0.089,0.93,0.238
			c0.421,0.148,0.638,0.186-0.008,0.894c-0.054,0.059-0.103,0.12-0.148,0.181c-0.487,0.671-0.322,1.23-0.322,1.23
			s0.688-1.373,1.317-1.562c0.631-0.188,1.078-0.185,0.455-0.89c-0.623-0.706-1.195-1.702-1.195-1.702l-0.433-0.507
			c0,0,0.807,0.498,1.327,0.514c0.52,0.016,1.086,0.19,1.048,0.407c-0.038,0.218,0.297-0.844-0.184-1.077
			c-0.483-0.233-1.305-0.227-1.215-0.734c0.088-0.508-1.522-1.129-1.348-1.697c0.173-0.567,0.823-0.858,0.187-1.492
			c-0.635-0.634-1.013-1.071-1.013-1.071s0.627-0.631-0.006-1.712c-0.632-1.081-1.397-2.668-2.688-2.968
			c-1.292-0.301-1.961-0.224-1.961-0.224s-0.016-0.917,0.959-0.862c0.977,0.053,1.897,1.365,1.897,1.365s-0.016-1.505-1.275-1.984
			c-1.413-0.536-2.3979,0.576-2.3979,0.576s-1.187-1.327-1.956-0.342c-0.4171,0.534-1.31-0.419-2.212-0.434
			c-2.338-0.04-2.913,1.905-2.913,1.905s-0.983-0.479-1.737,0.111c-0.674,0.529-0.755,1.362-1.0211,1.676
			c-0.298,0.351-0.926,0.441-1.438,1.152c-0.465,0.646-0.369,1.89-0.369,1.89s-0.027,0.006-0.072,0.017
			c0.202,0.368-0.145,0.128-0.237,0.587c-0.08,0.408-0.235,0.623-0.392,1.008c0.0161-0.04-0.253,0.749-0.224,0.672
			c-0.026,0.07-0.149,0.463-0.1689,0.534c-0.0341,0.114-0.0861,0.615-0.0551,0.139c-0.031,0.483,0.69,0.603,0.353,0.972
			c-0.02,0.022-0.049,0.04-0.071,0.062c0.403,0.521,0.587,0.128,0.39,0.702c0.145-0.004-0.504,0.784-0.504,0.784
			s0.227,0.844,0.028,1.555c-0.199,0.712,0.266,1.465,0.266,1.465s0.495,0.837-0.577,1.168
			C47.2256,19.6692,46.6666,19.1442,46.6666,19.1442z M54.4697,14.2982c0.1639-0.785,0.446-1.594,0.446-1.594l0.379,0.283
			c0,0,0.637,0.527,0.428,0.864C55.5266,14.1702,54.5676,14.2862,54.4697,14.2982z"/>
		<path style="clip-path:url(#SVGID_6_);fill:#231F20;" d="M56.8259,7.0946c1.0569-0.687,2.535-0.26,2.535-0.26
			c-0.405,0.033-1.653-0.273-2.226,0.953c-0.571,1.226,0.617,1.346-0.419,1.812c-0.47,0.211-0.782,0.337-0.812,0.686
			c-0.029,0.35,0.512,0.511-0.016,0.803c-1.108,0.611-0.535,1.803-0.135,2.201c0,0-1.606-0.637-1.276-1.565
			c0.328-0.928,0.873-0.229,0.687-0.998c-0.187-0.77-0.34-1.336,0.745-1.697C56.9958,8.6676,56.3289,7.4186,56.8259,7.0946"/>
		<path style="clip-path:url(#SVGID_6_);fill:#231F20;" d="M67.2269,19.2163c-0.002-0.069-0.1671-0.688,0.499-1.251
			c0.215-0.182,0.388-0.322,0.375-0.352c-0.258-0.597-1.661-0.622-1.422-0.825c1.039-0.885,0.561-2.241,0.561-2.241
			s0.739,1.05,1.105,1.483c0.367,0.433,0.949,1.186,0.849,1.579c0,0,0.481-0.131-0.495,0.141
			C67.7208,18.0213,67.2269,19.2163,67.2269,19.2163"/>
		<path style="clip-path:url(#SVGID_6_);fill:#231F20;" d="M54.2972,5.4636c0,0-2.439,0.901-2.436,1.456
			c0.005,0.552-0.045,0.549-0.645,1.101c-0.599,0.554-1.5569,0.574-1.3069,1.199c0.249,0.624,0.072,1.233-1.0681,2.14
			c-0.61,0.484-0.12,1.229,0.449,2.232c0.57,1.004-0.991,1.627-0.899,2.338c0.091,0.712,0.698,0.662,0.526,2.106
			c-0.063,0.547,0.8329,1.479,0.212,2.281c-0.621,0.803-1.116,1.314-1.116,1.314s-0.332-0.832-0.315-1.032
			c0.017-0.2-1.09-0.192-1.09-0.192l-0.346-0.683c0,0,1.522,0.189,1.439-0.623s-0.369-1.348-0.369-1.348l0.508-2.053
			c0,0-1.014,0.3-1.023,1.004c-0.008,0.703-0.541,1.079-0.706,1.232c-0.382,0.352-1.731-0.146-1.731-0.146s1.835-0.386,1.672-0.949
			c-0.266-0.921,0.758-1.848,0.758-1.848s-0.262-0.676,0.1541-1.646c0.527-1.225,0.936-1.161,0.936-1.161l0.128-1.238
			c0,0-0.466,0.302-0.564,0.455c-0.162,0.251-0.299,1.157-0.299,1.157s-0.444-0.878-0.378-1.491
			c0.066-0.612,1.378-1.141,1.378-1.141s0.412-1.545,0.745-1.999c0.335-0.454,1.912-1.197,1.912-1.197s0.562-0.708,1.178-0.857
			C52.6152,5.7246,54.2972,5.4636,54.2972,5.4636"/>
		<path style="clip-path:url(#SVGID_6_);fill:#231F20;" d="M55.7264,20.0243c0,0,2.449,1.209,3.672,1.209
			c1.2209,0-0.16,1.565-0.16,1.565s-1.909-0.152-2.52-1.069C56.1083,20.8133,55.7264,20.0243,55.7264,20.0243"/>
		<path style="clip-path:url(#SVGID_6_);fill:#231F20;" d="M64.717,13.1461c0,0-0.156,0.031-0.325,0.002
			c-0.188-0.032-0.5-0.214-0.708-0.208c-0.329,0.008-0.895,0.174-0.475,0.543c0,0,0.07-0.146,0.179-0.217
			c0.127-0.081,0.303-0.087,0.422-0.047c0.22,0.073,0.606,0.202,0.715,0.166C64.6329,13.3491,64.717,13.1461,64.717,13.1461"/>
		<path style="clip-path:url(#SVGID_6_);fill:#231F20;" d="M59.7275,17.4712c-0.1-0.156,0.365,0.085,0.907,0.08
			c0.278-0.003,0.978-0.215,1.051-0.201c0.1021,0.019,0.418,0.189,0.418,0.189s0.432-0.075,0.471-0.025
			c0.085,0.107,0.085,0.41,0.079,0.567c-0.004,0.12-0.32,0.061-0.605,0.004c-0.284-0.058-0.397-0.091-0.855-0.099
			C60.7145,17.9782,59.9675,17.8452,59.7275,17.4712"/>
		<path style="clip-path:url(#SVGID_6_);fill:#231F20;" d="M61.4255,18.8602l0.71,0.225c0,0-0.309,0.409-0.668,0.272
			c-0.36-0.136-0.746-0.421-0.746-0.421L61.4255,18.8602z"/>
		<path style="clip-path:url(#SVGID_6_);fill:none;stroke:#231F20;stroke-width:0.217;stroke-miterlimit:10;" d="M63.1681,13.225
			c0,0-0.22,1.101,0.08,1.556c0.292,0.445,0.974,0.972,0.292,1.581c-0.324,0.29-0.913,0.23-1.2469,0.277"/>
		<path style="clip-path:url(#SVGID_6_);fill:#231F20;" d="M64.9026,12.4333c0,0-0.082-0.486-0.196-0.544
			c-0.112-0.057-0.428-0.027-0.622,0.032c-0.179,0.052-0.362,0.066-0.509,0.196c-0.043,0.038-0.079,0.292,0.079,0.297
			c0.197,0.006,0.474-0.072,0.725-0.166C64.5356,12.1903,64.9026,12.4333,64.9026,12.4333"/>
		<path style="clip-path:url(#SVGID_6_);fill:#231F20;" d="M62.0079,11.8799c0.047,0.062,0.028,0.092-0.019,0.144
			c-0.267,0.289-0.462,0.16-0.978-0.023c-0.641-0.227-1.078-0.457-1.599-0.434c-0.585,0.024-1.582,0.305-1.582,0.305
			s1.042-0.629,1.759-0.647c0.718-0.016,1.111,0.144,1.461,0.233C61.4048,11.5459,61.8738,11.7029,62.0079,11.8799"/>
		<path style="clip-path:url(#SVGID_6_);fill:#231F20;" d="M61.3328,12.6133c0,0-0.298,0.07-0.498,0.028
			c-0.247-0.052-0.581-0.14-1.025-0.151c-0.704-0.019-0.87,0.285-1.433,0.271c-0.149-0.004-0.283,0.016-0.283,0.016
			s0.455,0.192,0.655,0.151c0.165-0.033,0.555-0.153,0.789-0.201c0.05-0.007,0.109-0.018,0.156-0.022
			c0.19-0.007,0.439,0.044,0.63,0.078c0.168,0.05,0.345,0.107,0.467,0.117c0.1,0.028,0.163-0.007,0.172-0.008
			C61.2318,12.8403,61.3328,12.6133,61.3328,12.6133"/>
		<path style="clip-path:url(#SVGID_6_);fill:#231F20;" d="M59.7538,13.062c0.021,0.206,0.214,0.356,0.43,0.333
			s0.374-0.208,0.352-0.414c-0.021-0.207-0.213-0.355-0.43-0.333C59.8907,12.671,59.7327,12.856,59.7538,13.062"/>
		<path style="clip-path:url(#SVGID_6_);fill:#231F20;" d="M63.4859,13.4902c0,0.178,0.1429,0.324,0.318,0.324
			c0.175,0,0.316-0.146,0.316-0.324c0-0.179-0.141-0.324-0.316-0.324C63.6288,13.1662,63.4859,13.3112,63.4859,13.4902"/>
		<path style="clip-path:url(#SVGID_6_);fill:#231F20;" d="M59.0555,16.6958c0,0-0.261,0.199-0.281,0.343
			c-0.018,0.145,0.003,0.661,0.003,0.661s-0.184-0.641-0.174-0.824c0.011-0.183,0.184-0.242,0.297-0.266
			c0.114-0.026,0.593-0.158,0.593-0.158L59.0555,16.6958z"/>
		<path style="clip-path:url(#SVGID_6_);fill:#231F20;" d="M61.6807,14.2085c0,0.033,0.0439,0.06,0.097,0.06
			c0.053,0,0.097-0.027,0.097-0.06c0-0.033-0.044-0.061-0.097-0.061C61.7246,14.1475,61.6807,14.1755,61.6807,14.2085"/>
		<path style="clip-path:url(#SVGID_6_);fill:#231F20;" d="M61.6813,14.5489c0,0.047,0.062,0.085,0.137,0.085
			c0.076,0,0.138-0.038,0.138-0.085c0-0.047-0.062-0.086-0.138-0.086C61.7432,14.4629,61.6813,14.5019,61.6813,14.5489"/>
		<path style="clip-path:url(#SVGID_6_);fill:#231F20;" d="M61.2996,14.1622c0,0.046,0.059,0.083,0.133,0.083
			c0.074,0,0.134-0.037,0.134-0.083c0-0.046-0.06-0.083-0.134-0.083C61.3586,14.0792,61.2996,14.1162,61.2996,14.1622"/>
		<path style="clip-path:url(#SVGID_6_);fill:#231F20;" d="M61.0369,14.495c0,0.033,0.043,0.06,0.0959,0.06
			c0.055,0,0.098-0.027,0.098-0.06c0-0.033-0.043-0.06-0.098-0.06C61.0798,14.435,61.0369,14.462,61.0369,14.495"/>
		<path style="clip-path:url(#SVGID_6_);fill:#231F20;" d="M61.3353,14.6893c0,0.048,0.064,0.088,0.141,0.088
			c0.078,0,0.141-0.04,0.141-0.088c0-0.048-0.063-0.088-0.141-0.088C61.3992,14.6013,61.3353,14.6413,61.3353,14.6893"/>
		<path style="clip-path:url(#SVGID_6_);fill:#231F20;" d="M61.8925,14.831c0,0.033,0.0439,0.06,0.098,0.06
			c0.053,0,0.097-0.027,0.097-0.06c0-0.033-0.044-0.061-0.097-0.061C61.9365,14.77,61.8925,14.798,61.8925,14.831"/>
		<path style="clip-path:url(#SVGID_6_);fill:#231F20;" d="M59.8196,14.3389c0.012,0.049,0.092,0.074,0.181,0.054
			c0.088-0.02,0.151-0.076,0.139-0.126c-0.011-0.049-0.092-0.074-0.179-0.054C59.8705,14.2329,59.8076,14.2899,59.8196,14.3389"/>
		<path style="clip-path:url(#SVGID_6_);fill:#231F20;" d="M59.4774,14.6799c0.011,0.049,0.092,0.073,0.18,0.053
			c0.089-0.02,0.152-0.076,0.14-0.126c-0.011-0.049-0.092-0.073-0.181-0.053C59.5284,14.5739,59.4654,14.6309,59.4774,14.6799"/>
		<path style="clip-path:url(#SVGID_6_);fill:#231F20;" d="M58.6499,14.8993c0.012,0.049,0.092,0.073,0.18,0.053
			c0.089-0.02,0.152-0.076,0.14-0.126c-0.011-0.049-0.092-0.074-0.181-0.053C58.7009,14.7933,58.6379,14.8503,58.6499,14.8993"/>
		<path style="clip-path:url(#SVGID_6_);fill:#231F20;" d="M59.0662,14.4636c0.012,0.049,0.092,0.073,0.18,0.053
			c0.089-0.02,0.151-0.077,0.14-0.126c-0.012-0.049-0.092-0.074-0.181-0.053C59.1172,14.3566,59.0542,14.4146,59.0662,14.4636"/>
		<path style="clip-path:url(#SVGID_6_);fill:#231F20;" d="M58.2018,14.3176c0.011,0.049,0.0909,0.074,0.18,0.054
			c0.089-0.021,0.151-0.076,0.139-0.126c-0.011-0.049-0.091-0.074-0.18-0.053C58.2527,14.2126,58.1898,14.2686,58.2018,14.3176"/>
		<path style="clip-path:url(#SVGID_6_);fill:#231F20;" d="M60.3624,14.9701c0.012,0.049,0.092,0.073,0.18,0.053
			c0.089-0.02,0.153-0.076,0.141-0.126c-0.012-0.049-0.093-0.073-0.181-0.052C60.4133,14.8651,60.3503,14.9211,60.3624,14.9701"/>
		<path style="clip-path:url(#SVGID_6_);fill:#231F20;" d="M63.395,14.3771c0,0.051,0.074,0.092,0.165,0.092
			c0.09,0,0.164-0.041,0.164-0.092c0-0.051-0.074-0.092-0.164-0.092C63.469,14.2851,63.395,14.3261,63.395,14.3771"/>
		<path style="clip-path:url(#SVGID_6_);fill:#231F20;" d="M61.4857,16.1404c0.103-0.295,0.501-0.244,0.6169-0.076
			c0.035,0.05-0.163,0.011-0.231,0.051C61.6297,16.2544,61.3917,16.4084,61.4857,16.1404"/>
	</g>
</g>
<g>
</g>
<g>
</g>
<g>
</g>
<g>
</g>
<g>
</g>
<g>
</g>
</svg>
